<?xml version="1.0" standalone="no"?>
<!DOCTYPE svg PUBLIC "-//W3C//DTD SVG 1.1//EN" "http://www.w3.org/Graphics/SVG/1.1/DTD/svg11.dtd" >
<svg xmlns="http://www.w3.org/2000/svg" xmlns:xlink="http://www.w3.org/1999/xlink" version="1.1">
<metadata>
Created by FontForge 20170731 at Wed Oct  5 18:59:31 2016
 By Aleksey,,,
Copyright 2011 The Francois One Project Authors (contact@sansoxygen.com)
</metadata>
<defs>
<font id="FrancoisOne-Regular" horiz-adv-x="0" >
  <font-face 
    font-family="Francois One"
    font-weight="400"
    font-stretch="normal"
    units-per-em="1000"
    panose-1="2 0 5 3 4 0 0 2 0 4"
    ascent="800"
    descent="-200"
    x-height="563"
    cap-height="750"
    bbox="-550 -332 1322 1351"
    underline-thickness="50"
    underline-position="-150"
    unicode-range="U+000D-FB02"
  />
<missing-glyph horiz-adv-x="695" 
d="M570 1063v-1390h-441v1390h441zM463 970h-229v-46h90v-51h-92v-46h231v46h-92v51h92v46zM371 791h-139v-145h231v47h-92v98zM324 743v-50h-46v50h46zM463 608h-231v-45h92v-52h-92v-46h139v98h92v45zM463 525h-46v-92h-185v-47h231v139zM463 355h-139v-77h47v32h46v-66
h-139v111h-46v-157h231v157zM463 115h-231v-157h231v157zM417 69v-65h-139v65h139zM463 -74h-231v-46h97l-97 -65v-46h231v46h-142l97 65h45v46z" />
    <glyph glyph-name="fi" unicode="fi" horiz-adv-x="628" 
d="M427 629v152h141v-146zM86 448h-69l12 115h57v10q0 59 7.5 95.5t38 61.5t94.5 25q38 0 73 -7q18 -6 22 -8v-84h-30q-40 0 -52 -22t-12 -61v-10h341v-557l-141 -12v453h-200v-441l-141 -12v454z" />
    <glyph glyph-name="fl" unicode="fl" horiz-adv-x="628" 
d="M86 448h-69l12 115h57v10q0 59 10 94.5t51 59t128 23.5h293v-744l-141 -12v662h-156q-28 0 -36 -21.5t-8 -61.5v-10h93l-11 -116h-82v-441l-141 -12v454z" />
    <glyph glyph-name="f_f" unicode="ff" horiz-adv-x="706" 
d="M86 457h-69l5 106h64v10q0 59 7.5 95.5t38 61.5t94.5 25q38 0 73 -7q18 -6 22 -8v-84h-31q-40 0 -51.5 -22t-11.5 -61v-10h99l-6 -106h-93v-451l-141 -12v463zM454 457h-69l6 106h63v10q0 59 7.5 95.5t38 61.5t94.5 25q38 0 73 -7q18 -6 22 -8v-84h-31q-39 0 -51 -22
t-12 -61v-10h99l-6 -106h-93v-451l-141 -12v463z" />
    <glyph glyph-name="f_f_i" unicode="ffi" horiz-adv-x="1023" 
d="M822 635v145l140 1v-140zM86 457h-69l5 106h64v10q0 59 7.5 95.5t38 61.5t94.5 25q38 0 73 -7q18 -6 22 -8v-84h-31q-40 0 -51.5 -22t-11.5 -61v-10h99l-6 -106h-93v-451l-141 -12v463zM454 457h-69l6 106h63v10q0 59 7.5 95.5t38 61.5t94.5 25q38 0 73 -7q18 -6 22 -8
v-84h-31q-39 0 -51 -22t-12 -61v-10h99l-6 -106h-93v-451l-141 -12v463zM822 -6v557l140 12v-557z" />
    <glyph glyph-name="f_f_l" unicode="ffl" horiz-adv-x="1022" 
d="M86 457h-69l5 106h64v10q0 59 7.5 95.5t38 61.5t94.5 25q38 0 73 -7q18 -6 22 -8v-84h-31q-40 0 -51.5 -22t-11.5 -61v-10h99l-6 -106h-93v-451l-141 -12v463zM454 457h-69l6 106h63v10q0 59 7.5 95.5t38 61.5t94.5 25q38 0 73 -7q18 -6 22 -8v-84h-31q-39 0 -51 -22
t-12 -61v-10h99l-6 -106h-93v-451l-141 -12v463zM821 -6v738l141 18v-744z" />
    <glyph glyph-name=".notdef" horiz-adv-x="695" 
d="M570 1063v-1390h-441v1390h441zM463 970h-229v-46h90v-51h-92v-46h231v46h-92v51h92v46zM371 791h-139v-145h231v47h-92v98zM324 743v-50h-46v50h46zM463 608h-231v-45h92v-52h-92v-46h139v98h92v45zM463 525h-46v-92h-185v-47h231v139zM463 355h-139v-77h47v32h46v-66
h-139v111h-46v-157h231v157zM463 115h-231v-157h231v157zM417 69v-65h-139v65h139zM463 -74h-231v-46h97l-97 -65v-46h231v46h-142l97 65h45v46z" />
    <glyph glyph-name=".null" 
 />
    <glyph glyph-name="nonmarkingreturn" unicode="&#xd;" horiz-adv-x="244" 
 />
    <glyph glyph-name="NULL" 
 />
    <glyph glyph-name="NULL" 
 />
    <glyph glyph-name="space" unicode=" " horiz-adv-x="244" 
 />
    <glyph glyph-name="exclam" unicode="!" horiz-adv-x="265" 
d="M86 219l-24 531h141l-23 -531h-94zM62 -6v152h141v-146z" />
    <glyph glyph-name="quotedbl" unicode="&#x22;" horiz-adv-x="408" 
d="M63 463l-23 287h141l-24 -281zM251 463l-23 287h140l-23 -281z" />
    <glyph glyph-name="numbersign" unicode="#" horiz-adv-x="626" 
d="M80 0l24 188h-73v116h88l22 165h-86v116h101l22 165h146l-22 -165h91l22 165h147l-22 -165h55v-116h-71l-21 -165h69v-116h-84l-25 -188h-146l24 188h-91l-24 -188h-146zM266 304h90l22 165h-91z" />
    <glyph glyph-name="dollar" unicode="$" horiz-adv-x="544" 
d="M485.5 119.5q-27.5 -45.5 -76 -74t-109.5 -33.5v-59h-70v61q-74 12 -126 60t-79 122l124 58l11 -18q28 -47 56.5 -77.5t67.5 -30.5q27 0 48.5 16.5t21.5 43.5q0 26 -19 51.5t-46 40.5l-116 69q-125 75 -125 189q0 76 50.5 129t131.5 64v66h70v-64q66 -7 112 -44.5
t69 -104.5l-124 -56q-3 6 -16 34.5t-31.5 41.5t-44.5 13q-30 0 -45 -14t-15 -37q0 -22 13 -39.5t33 -29.5l121 -70q80 -46 110.5 -100.5t30.5 -106.5q0 -55 -27.5 -100.5z" />
    <glyph glyph-name="percent" unicode="%" horiz-adv-x="940" 
d="M227 13l388 742l81 -47l-384 -735zM91.5 376q-46.5 59 -46.5 158q0 98 46 157t134 59q89 0 136 -59.5t47 -156.5q0 -98 -47.5 -157.5t-135.5 -59.5q-87 0 -133.5 59zM273 447.5q15 35.5 15 88.5t-14.5 89t-47.5 36t-47.5 -35.5t-14.5 -87.5q0 -53 14.5 -89.5t47.5 -36.5
q32 0 47 35.5zM578.5 39q-46.5 59 -46.5 158q0 98 46 157t134 59q89 0 136 -59.5t47 -156.5q0 -98 -47.5 -157.5t-135.5 -59.5q-87 0 -133.5 59zM760 110.5q15 35.5 15 88.5t-14.5 89t-47.5 36t-47.5 -35.5t-14.5 -87.5q0 -53 14.5 -89.5t47.5 -36.5q32 0 47 35.5z" />
    <glyph glyph-name="ampersand" unicode="&#x26;" horiz-adv-x="623" 
d="M108.5 12q-42.5 26 -66 70.5t-23.5 97.5q0 72 40 124t103 94q-28 39 -48 88t-20 98q0 52 24.5 90.5t66.5 59.5t93 21q49 0 89 -19t63 -55t23 -83q0 -106 -129 -198l91 -141q13 30 26.5 69.5t21.5 74.5l111 -35q-20 -94 -84 -196q23 -23 48.5 -36t60.5 -17v-126
q-55 0 -86.5 9t-49.5 23.5t-53 49.5q-43 -40 -95.5 -64.5t-107.5 -24.5q-56 0 -98.5 26zM302.5 517q30.5 40 30.5 83q0 26 -17.5 41.5t-38.5 15.5t-38 -15.5t-17 -42.5q0 -19 9.5 -42.5t28.5 -60.5l11 -22q1 3 31.5 43zM295.5 126q26.5 11 45.5 25l-125 164
q-30 -19 -46.5 -50.5t-16.5 -63.5q0 -37 23 -61.5t65 -24.5q28 0 54.5 11z" />
    <glyph glyph-name="quotesingle" unicode="'" horiz-adv-x="220" 
d="M63 463l-23 287h141l-24 -281z" />
    <glyph glyph-name="parenleft" unicode="(" horiz-adv-x="333" 
d="M154.5 28.5q-62.5 57.5 -93.5 146t-31 189.5q0 102 32 192t94.5 147t149.5 60v-89q-64 -12 -99.5 -102t-35.5 -208q0 -78 15.5 -147.5t46 -113.5t73.5 -48v-92q-89 8 -151.5 65.5z" />
    <glyph glyph-name="parenright" unicode=")" horiz-adv-x="333" 
d="M27 55q43 4 74 48t46.5 113.5t15.5 147.5q0 117 -36 207.5t-100 102.5v89q87 -3 149.5 -60t94.5 -147t32 -192q0 -101 -31 -189.5t-93.5 -146t-151.5 -65.5v92z" />
    <glyph glyph-name="asterisk" unicode="*" horiz-adv-x="513" 
d="M178 209l-111 82l128 126l-171 27l39 133l155 -74l-25 177h128l-25 -177l154 74l39 -133l-171 -27l128 -126l-111 -82l-78 156z" />
    <glyph glyph-name="plus" unicode="+" horiz-adv-x="417" 
d="M150 10v117h-117v116h117v117h117v-117h117v-116h-117v-117h-117z" />
    <glyph glyph-name="comma" unicode="," horiz-adv-x="238" 
d="M72 -47q29 0 41 24q4 9 6 23h-71v141h141v-141q0 -48 -16.5 -78t-42.5 -45t-58 -18v94z" />
    <glyph glyph-name="hyphen" unicode="-" horiz-adv-x="393" 
d="M56 234v117h281v-117h-281z" />
    <glyph glyph-name="period" unicode="." horiz-adv-x="239" 
d="M50 -6v147h140v-135z" />
    <glyph glyph-name="slash" unicode="/" horiz-adv-x="307" 
d="M31 0l98 750h147l-98 -750h-147z" />
    <glyph glyph-name="zero" unicode="0" horiz-adv-x="556" 
d="M97 100.5q-50 114.5 -50 276.5q0 161 49.5 274t180.5 113t181.5 -113t50.5 -273q0 -162 -50.5 -277t-181.5 -115q-130 0 -180 114.5zM328.5 127q19.5 23 29.5 88t10 188q0 118 -17.5 180.5t-73.5 62.5t-72.5 -60.5t-16.5 -170.5q0 -128 9 -195t28 -91.5t52 -24.5
q32 0 51.5 23z" />
    <glyph glyph-name="one" unicode="1" horiz-adv-x="454" 
d="M77 0v123h96v444l-103 -22v105l171 100h72v-627h98l-6 -123h-328z" />
    <glyph glyph-name="two" unicode="2" horiz-adv-x="521" 
d="M58 109q26 34 86 104q65 74 104.5 126.5t67 110t27.5 112.5q0 31 -19.5 57.5t-57.5 26.5t-67 -36.5t-37 -87.5l-120 39q10 54 40 100.5t78 74.5t109 28q63 0 112 -26t76.5 -72.5t27.5 -105.5q0 -108 -74 -216t-191 -221h259l-12 -123h-409v109z" />
    <glyph glyph-name="three" unicode="3" horiz-adv-x="521" 
d="M105 26.5q-62 40.5 -82 119.5l107 47q17 -48 45.5 -68.5t67.5 -20.5q38 0 63 28t25 83q0 71 -41.5 95.5t-117.5 24.5v98q64 0 105.5 32t42.5 95v1q0 40 -25 63t-59 23q-30 0 -56 -18.5t-39 -53.5l-100 57q33 69 87 100.5t128 31.5q53 0 100 -22.5t76.5 -66t29.5 -103.5
q0 -65 -32 -110.5t-94 -66.5q63 -20 99.5 -70.5t36.5 -123.5q0 -67 -31 -115.5t-81.5 -74t-109.5 -25.5q-83 0 -145 40.5z" />
    <glyph glyph-name="four" unicode="4" horiz-adv-x="521" 
d="M275 -6v194h-251v112l245 450h147v-450h94l-12 -112h-82v-182zM141 300h134v263z" />
    <glyph glyph-name="five" unicode="5" horiz-adv-x="521" 
d="M129.5 32.5q-63.5 46.5 -81.5 131.5l113 42q7 -40 36.5 -71t71.5 -31q43 0 68 39t25 91q0 53 -27 90.5t-79 37.5q-24 0 -46 -12t-39 -37l-100 33l42 404h349l-12 -117h-227l-23 -175q53 20 102 20q55 0 99.5 -32t70 -86t25.5 -117q0 -73 -29 -131.5t-80.5 -92
t-115.5 -33.5q-79 0 -142.5 46.5z" />
    <glyph glyph-name="six" unicode="6" horiz-adv-x="521" 
d="M100.5 99q-46.5 113 -46.5 255q0 112 27 205.5t80 149t128 55.5q68 0 113.5 -48t57.5 -134l-109 -25q-1 4 -6.5 29.5t-21 42.5t-38.5 17q-88 0 -88 -229q24 18 54.5 28.5t60.5 10.5q50 0 88.5 -28.5t59 -77t20.5 -105.5q0 -65 -26.5 -124.5t-75.5 -97t-113 -37.5
q-118 0 -164.5 113zM324.5 142q17.5 38 17.5 85t-19 78.5t-59 31.5q-15 0 -30 -5t-36 -17q-2 -38 -2 -54q0 -80 17 -118.5t54 -38.5q40 0 57.5 38z" />
    <glyph glyph-name="seven" unicode="7" horiz-adv-x="521" 
d="M185 298q44 155 117 331h-244l11 121h405v-104q-87 -170 -135 -338.5t-48 -307.5h-162q12 143 56 298z" />
    <glyph glyph-name="eight" unicode="8" horiz-adv-x="521" 
d="M451 325q34 -45 34 -115q0 -67 -31 -118t-83.5 -78.5t-115.5 -27.5q-57 0 -107 22.5t-81 67t-31 108.5q0 67 34 117.5t91 82.5q-52 31 -77.5 73t-25.5 99q0 61 27.5 108.5t74.5 73.5t105 26q52 0 96.5 -22t70.5 -62.5t26 -93.5q0 -56 -29.5 -100.5t-77.5 -74.5
q66 -41 100 -86zM210.5 627q-21.5 -19 -21.5 -53q0 -36 23 -64.5t54 -47.5q73 46 73 110q0 34 -19.5 54t-54.5 20q-33 0 -54.5 -19zM321.5 124q23.5 20 23.5 65q0 92 -104 140q-64 -48 -64 -130q0 -95 83 -95q38 0 61.5 20z" />
    <glyph glyph-name="nine" unicode="9" horiz-adv-x="521" 
d="M125.5 33.5q-45.5 47.5 -58.5 134.5l110 26q6 -29 11 -45.5t18.5 -30.5t37.5 -14q50 0 67.5 60.5t19.5 159.5q-23 -17 -54.5 -27.5t-59.5 -10.5q-51 0 -89 32t-58.5 84.5t-20.5 111.5q0 68 26.5 125t74.5 91t110 34q119 0 166 -115t47 -261q0 -118 -28.5 -209t-81.5 -142
t-124 -51q-68 0 -113.5 47.5zM331 426q2 19 2 50q0 74 -14.5 122t-56.5 48q-38 0 -55.5 -40t-17.5 -88t18.5 -81t59.5 -33q30 0 64 22z" />
    <glyph glyph-name="colon" unicode=":" horiz-adv-x="252" 
d="M56 281v141h140v-141h-140zM56 -6v147h140v-141z" />
    <glyph glyph-name="semicolon" unicode=";" horiz-adv-x="252" 
d="M56 281v141h141v-141h-141zM80 -47q29 0 41 24q5 10 5 23l-70 -6v147h141v-141q0 -48 -17 -78t-42 -45q-26 -15 -58 -18v94z" />
    <glyph glyph-name="less" unicode="&#x3c;" horiz-adv-x="477" 
d="M422 43l-395 171v130l396 176l-7 -128l-220 -96l233 -85z" />
    <glyph glyph-name="equal" unicode="=" horiz-adv-x="393" 
d="M56 328v116h281v-116h-281zM56 141v116h281v-116h-281z" />
    <glyph glyph-name="greater" unicode="&#x3e;" horiz-adv-x="477" 
d="M55 43l-7 168l233 85l-220 96l-7 128l395 -176v-130z" />
    <glyph glyph-name="question" unicode="?" horiz-adv-x="432" 
d="M93 236q0 55 13.5 89t32.5 51.5t50 36.5q27 17 42 30t25.5 36.5t10.5 60.5q0 104 -57 104q-28 0 -37.5 -26.5t-14.5 -70.5l-134 6q2 59 26.5 105t67 71.5t96.5 25.5q64 0 108 -31.5t65 -82t21 -106.5q0 -58 -14.5 -95t-35.5 -57t-56 -43q-31 -20 -48.5 -35.5t-29.5 -42.5
t-12 -69v-5h-117q-2 17 -2 48zM83 -6v147h141v-141z" />
    <glyph glyph-name="at" unicode="@" horiz-adv-x="771" 
d="M179 31.5q-76 47.5 -114 125t-38 167.5q0 97 44.5 185.5t128.5 144t196 55.5q92 0 171.5 -38t128.5 -112.5t49 -179.5q0 -97 -41.5 -153t-113.5 -56q-46 0 -69 21.5t-36 57.5q-49 -91 -126 -91q-36 0 -67 21t-50.5 62.5t-19.5 101.5t19.5 100t50.5 59t66 19
q34 0 63.5 -16.5t44.5 -45.5l17 54h77v-229q0 -30 8.5 -42.5t25.5 -12.5q35 0 46.5 39.5t11.5 88.5q0 94 -47 175.5t-190 81.5q-94 0 -156.5 -41t-92.5 -106t-30 -138q0 -69 26 -127t80 -93t132 -35q94 0 214 60l36 -73q-75 -41 -137.5 -59t-123.5 -18q-108 0 -184 47.5z
M425.5 264.5q15.5 14.5 25.5 40.5v107q-32 33 -58 33t-41.5 -28.5t-15.5 -72.5q0 -46 16 -70t40 -24q18 0 33.5 14.5z" />
    <glyph glyph-name="A" unicode="A" horiz-adv-x="552" 
d="M12 0l158 741l209 9l162 -744l-160 -6l-27 161h-179l-32 -161h-131zM202 281h125l-69 359z" />
    <glyph glyph-name="B" unicode="B" horiz-adv-x="551" 
d="M70 750h168q136 0 198 -53t62 -140q0 -55 -21.5 -97t-59.5 -61q48 -25 76 -66.5t28 -122.5q0 -210 -331 -210h-120v750zM247 445q58 0 86.5 19t28.5 78q0 52 -32.5 71.5t-88.5 19.5h-29v-188h35zM244 117q72 0 104 35.5t32 77.5q0 65 -34.5 86.5t-96.5 21.5h-32v-221h27z
" />
    <glyph glyph-name="C" unicode="C" horiz-adv-x="522" 
d="M92.5 103q-52.5 117 -52.5 288q0 92 24 177t77.5 140.5t135.5 55.5q63 0 110.5 -39t73 -101.5t25.5 -130.5l-142 -7q0 45 -15 102.5t-60 57.5q-47 0 -65 -75t-18 -180q0 -130 20 -208.5t77 -78.5q40 0 57 47.5t22 115.5l125 -12q0 -72 -24 -133.5t-72 -98.5t-117 -37
q-129 0 -181.5 117z" />
    <glyph glyph-name="D" unicode="D" horiz-adv-x="554" 
d="M70 750h154q148 0 221 -94t73 -284q0 -101 -27.5 -185t-87.5 -135.5t-153 -51.5h-180v750zM237 117q76 0 105.5 65.5t29.5 161.5v34q0 69 -8.5 122.5t-39 93t-91.5 39.5h-17v-516h21z" />
    <glyph glyph-name="E" unicode="E" horiz-adv-x="483" 
d="M70 0v750h381l-12 -117h-222v-179h158l-1 -126h-157v-211h242l-12 -117h-377z" />
    <glyph glyph-name="F" unicode="F" horiz-adv-x="460" 
d="M70 -6v756h381l-12 -118h-222v-196h157v-124h-157v-306z" />
    <glyph glyph-name="G" unicode="G" horiz-adv-x="553" 
d="M91.5 97q-51.5 111 -51.5 281q0 95 24.5 183t79 145.5t139.5 57.5q73 0 121.5 -35.5t72 -94t23.5 -129.5l-139 -9l-3 21q-6 59 -21 94t-56 35q-52 0 -73.5 -83.5t-21.5 -192.5q0 -77 5 -131t26 -94.5t65 -40.5q37 0 58.5 46t21.5 113h-74l12 112h203v-369l-56 -6l-34 139
q-9 -39 -22.5 -70t-46.5 -57t-90 -26q-111 0 -162.5 111z" />
    <glyph glyph-name="H" unicode="H" horiz-adv-x="574" 
d="M70 -6v744l147 12v-304h140v292l147 12v-744l-147 -12v318h-140v-306z" />
    <glyph glyph-name="I" unicode="I" horiz-adv-x="287" 
d="M70 -6v744l147 12v-744z" />
    <glyph glyph-name="J" unicode="J" horiz-adv-x="333" 
d="M27 1v99q21 -7 39 -7q36 0 45.5 27t9.5 80v538l146 12v-562q0 -97 -33.5 -149.5t-112.5 -52.5q-40 0 -94 15z" />
    <glyph glyph-name="K" unicode="K" horiz-adv-x="563" 
d="M404 -13l-130 349l-57 -99v-237h-147v738l147 12v-328l178 328h156l-161 -310l163 -419z" />
    <glyph glyph-name="L" unicode="L" horiz-adv-x="469" 
d="M70 0v738l146 12v-633h246l-15 -117h-377z" />
    <glyph glyph-name="M" unicode="M" horiz-adv-x="794" 
d="M572 -6v563l-140 -557h-90l-151 559v-553l-121 -6v743l215 6l124 -464l119 447l196 12v-738z" />
    <glyph glyph-name="N" unicode="N" horiz-adv-x="611" 
d="M420 -6l-219 469v-457l-131 -6v744l153 6l194 -446v434l124 12v-744z" />
    <glyph glyph-name="O" unicode="O" horiz-adv-x="549" 
d="M93.5 95.5q-51.5 109.5 -51.5 283.5q0 185 55 285t177 100q233 0 233 -381q0 -171 -52.5 -284t-182.5 -113q-127 0 -178.5 109.5zM344 173.5q17 69.5 17 210.5q0 113 -16.5 187.5t-70.5 74.5t-70 -74t-16 -187q0 -142 16.5 -211.5t69.5 -69.5t70 69.5z" />
    <glyph glyph-name="P" unicode="P" horiz-adv-x="533" 
d="M70 750h94q113 0 180 -9.5t118.5 -58.5t51.5 -157q0 -98 -43.5 -148.5t-107 -66t-146.5 -15.5v-289l-147 -12v756zM243 414q58 0 91.5 24t33.5 88q0 63 -31 85t-98 22h-21v-219h25z" />
    <glyph glyph-name="Q" unicode="Q" horiz-adv-x="549" 
d="M479 159q-28 -98 -96 -142l91 -135l-90 -59l-116 163q-226 4 -226 393q0 185 55 285t177 100q233 0 233 -381q0 -126 -28 -224zM204.5 173.5q16.5 -69.5 69.5 -69.5t70 69.5t17 210.5q0 113 -16.5 187.5t-70.5 74.5t-70 -74t-16 -187q0 -142 16.5 -211.5z" />
    <glyph glyph-name="R" unicode="R" horiz-adv-x="565" 
d="M273 329h-57v-323l-146 -12v750l178 6q129 0 202 -51.5t73 -157.5q0 -70 -27.5 -115t-79.5 -75l67 -163l68 -162l-144 -39zM266 437q52 0 81.5 21.5t29.5 81.5q0 93 -92 93h-69v-196h50z" />
    <glyph glyph-name="S" unicode="S" horiz-adv-x="533" 
d="M114.5 36.5q-62.5 50.5 -91.5 135.5l124 58l12 -20q29 -50 55.5 -78t66.5 -28q26 0 46.5 25t20.5 55q0 28 -14 51t-36 37l-131 78q-57 32 -91 81t-34 110q0 65 30.5 116t83 79t118.5 28q77 0 131 -38t80 -113l-124 -56q-4 8 -17 36t-31.5 40.5t-45.5 12.5
q-33 0 -50.5 -21t-17.5 -54q0 -24 13.5 -43.5t32.5 -30.5l121 -71q134 -76 141 -200q0 -71 -31.5 -125.5t-86 -84.5t-121.5 -30q-91 0 -153.5 50.5z" />
    <glyph glyph-name="T" unicode="T" horiz-adv-x="477" 
d="M167 -6v639h-153l11 117h440l-12 -117h-140v-627z" />
    <glyph glyph-name="U" unicode="U" horiz-adv-x="568" 
d="M120 58q-56 72 -56 189v497l147 6v-515q0 -39 4.5 -66t22.5 -46t55 -19q35 0 51.5 19.5t20.5 46t4 67.5v501l134 12v-486q0 -106 -41.5 -192t-173.5 -86q-112 0 -168 72z" />
    <glyph glyph-name="V" unicode="V" horiz-adv-x="533" 
d="M185 0l-177 744l174 6l99 -518l104 512l141 6l-180 -750h-161z" />
    <glyph glyph-name="W" unicode="W" horiz-adv-x="774" 
d="M166 0l-153 744l160 6l79 -449l85 443l120 6l79 -454l95 448l135 6l-161 -750h-145l-79 458l-81 -458h-134z" />
    <glyph glyph-name="X" unicode="X" horiz-adv-x="520" 
d="M0 0l187 381l-179 369h175l87 -195l90 195h140l-169 -341l194 -409h-174l-106 235l-106 -235h-139z" />
    <glyph glyph-name="Y" unicode="Y" horiz-adv-x="501" 
d="M179 -6v303l-180 453h161l103 -312l111 312h126l-173 -436v-308z" />
    <glyph glyph-name="Z" unicode="Z" horiz-adv-x="472" 
d="M30 0v93l241 540h-218l12 117h376v-97l-235 -536h242l-23 -117h-395z" />
    <glyph glyph-name="bracketleft" unicode="[" horiz-adv-x="338" 
d="M69 -47v844h240v-94h-94v-657h94v-93h-240z" />
    <glyph glyph-name="backslash" unicode="\" horiz-adv-x="307" 
d="M129 0l-98 750h146l98 -750h-146z" />
    <glyph glyph-name="bracketright" unicode="]" horiz-adv-x="338" 
d="M29 -47v93h94v657h-94v94h241v-844h-241z" />
    <glyph glyph-name="asciicircum" unicode="^" horiz-adv-x="458" 
d="M32 405l134 298h129l131 -298h-150l-51 141l-58 -141h-135z" />
    <glyph glyph-name="underscore" unicode="_" horiz-adv-x="271" 
d="M-5 -116v116h281v-116h-281z" />
    <glyph glyph-name="grave" unicode="`" horiz-adv-x="299" 
d="M210 605l-181 152l103 95l130 -197z" />
    <glyph glyph-name="a" unicode="a" horiz-adv-x="471" 
d="M88 9.5q-29 22.5 -45 61t-16 86.5q0 109 74.5 153.5t173.5 50.5q0 54 -7 80t-34 26q-23 0 -35 -18t-15 -46l-137 24q10 77 63 110t124 33q91 0 136.5 -48t45.5 -125v-291q0 -47 15 -100l-137 -12l-16 69q-18 -32 -53 -54t-72 -22q-36 0 -65 22.5zM246.5 95
q11.5 8 28.5 26v156q-50 0 -80 -27t-30 -84q0 -38 13.5 -58.5t39.5 -20.5q17 0 28.5 8z" />
    <glyph glyph-name="b" unicode="b" horiz-adv-x="518" 
d="M239 9.5q-27 22.5 -38 60.5l-34 -76l-106 12v726l140 18v-259q25 36 63 57.5t80 21.5q65 0 102 -68.5t37 -220.5q0 -294 -161 -294q-56 0 -83 22.5zM329.5 136q13.5 49 13.5 145q0 67 -5.5 102.5t-19 51t-39.5 15.5q-18 0 -42 -13t-36 -25v-178q0 -80 19.5 -113.5
t49.5 -33.5q46 0 59.5 49z" />
    <glyph glyph-name="c" unicode="c" horiz-adv-x="445" 
d="M125.5 27q-45.5 40 -68.5 106t-23 143q0 76 22.5 143t68.5 109t113 42q51 0 91.5 -25.5t63.5 -71.5t25 -105l-133 -6q0 4 -3.5 32t-15 46t-29.5 18q-40 0 -51 -54.5t-11 -122.5q0 -67 11.5 -121.5t54.5 -54.5q54 0 56 106l118 -13q-13 -104 -52 -157.5t-128 -53.5
q-64 0 -109.5 40z" />
    <glyph glyph-name="d" unicode="d" horiz-adv-x="518" 
d="M36 281q0 153 40 221t125 68q36 0 69 -23.5t48 -58.5v244l141 18v-744l-106 -12l-35 76q-10 -37 -37 -60t-83 -23q-162 0 -162 294zM299 120.5q19 33.5 19 113.5v188q-29 45 -68 45q-33 0 -48.5 -23.5t-20 -61.5t-4.5 -101q0 -64 4.5 -104t20.5 -65t48 -25q30 0 49 33.5z
" />
    <glyph glyph-name="e" unicode="e" horiz-adv-x="471" 
d="M87 66.5q-53 79.5 -53 211.5q0 134 54 213t157 79q98 0 150 -79t52 -213q0 -8 -3 -11.5t-3 -4.5h-267q0 -65 17 -118.5t52 -53.5q39 0 58 45t20 47l106 -40q-21 -72 -67 -113.5t-120 -41.5q-100 0 -153 79.5zM309 343q0 60 -16 95t-50 35q-17 0 -33 -17t-26 -47t-10 -66
h135z" />
    <glyph glyph-name="f" unicode="f" horiz-adv-x="338" 
d="M88 457h-69l5 106h64v10q0 59 7.5 95.5t38 61.5t94.5 25q61 0 95 -15v-84h-31q-40 0 -51.5 -22t-11.5 -61v-10h99l-6 -106h-93v-451l-141 -12v463z" />
    <glyph glyph-name="g" unicode="g" horiz-adv-x="532" 
d="M78 -143.5q-62 31.5 -62 86.5q0 38 28 64.5t71 42.5q-38 11 -57 28t-19 49q0 39 27 70.5t71 52.5q-90 52 -90 145q0 56 30.5 95.5t79 59.5t101.5 20q79 0 140 -42q30 27 60.5 45t76.5 18v-93q-58 0 -89 -14q12 -31 16.5 -49t4.5 -39q0 -68 -46 -118.5t-150 -50.5l-37 1
q-9 1 -22 1q-13 -4 -25 -17.5t-12 -28.5q0 -14 10 -24t25 -12l160 -18q139 -16 139 -135q0 -93 -71.5 -131t-185.5 -38q-112 0 -174 31.5zM304 330.5q17 23.5 17 66.5q0 44 -18 66t-46 22q-31 0 -49 -25t-18 -62q0 -34 15 -62.5t51 -28.5q31 0 48 23.5zM372 -11q0 17 -9 25
t-28.5 11.5t-63.5 6.5l-83 7q-18 -6 -31 -21.5t-13 -34.5q0 -27 28.5 -41.5t85.5 -14.5q114 0 114 62z" />
    <glyph glyph-name="h" unicode="h" horiz-adv-x="539" 
d="M61 732l140 18v-259q86 79 161 79q53 0 86.5 -38.5t33.5 -103.5v-422l-140 -12v383q0 37 -13.5 55t-35.5 18q-18 0 -38 -9t-54 -29v-406l-140 -12v738z" />
    <glyph glyph-name="i" unicode="i" horiz-adv-x="263" 
d="M62 635v145l140 10v-149zM61 -6v557l140 12v-557z" />
    <glyph glyph-name="j" unicode="j" horiz-adv-x="265" 
d="M66 635v145l141 10v-149zM-12 -131v84q36 0 52.5 7t21 21.5t4.5 44.5v525l141 12v-537q0 -66 -6 -98t-32.5 -50.5t-86.5 -18.5q-41 0 -94 10z" />
    <glyph glyph-name="k" unicode="k" horiz-adv-x="500" 
d="M361 -13l-114 280l-46 -61v-206h-140v732l140 18v-372l143 185h152l-158 -203l147 -331z" />
    <glyph glyph-name="l" unicode="l" horiz-adv-x="263" 
d="M62 -6v738l140 18v-744z" />
    <glyph glyph-name="m" unicode="m" horiz-adv-x="737" 
d="M61 551l137 12v-72q31 36 71.5 57.5t80.5 21.5q63 0 83 -88q66 88 148 88q54 0 77 -43t23 -128v-393l-138 -12v398q0 27 -10 42.5t-23 15.5q-21 0 -39.5 -11.5t-31.5 -28.5v-404l-137 -12v399q0 28 -8.5 42.5t-19.5 14.5q-20 0 -41 -12t-35 -28v-404l-137 -12v557z" />
    <glyph glyph-name="n" unicode="n" horiz-adv-x="539" 
d="M61 551l140 12v-72q43 38 84.5 58.5t76.5 20.5q53 0 86.5 -38.5t33.5 -103.5v-422l-140 -12v381q0 75 -51 75q-17 0 -37.5 -10t-52.5 -29v-405l-140 -12v557z" />
    <glyph glyph-name="o" unicode="o" horiz-adv-x="490" 
d="M88.5 67q-54.5 80 -54.5 213q0 132 54 211t156 79q101 0 156.5 -79t55.5 -211t-55.5 -212.5t-156.5 -80.5t-155.5 80zM302 146q13 55 13 135t-13 135t-58 55t-57 -52t-12 -127q0 -92 12 -146.5t57 -54.5t58 55z" />
    <glyph glyph-name="p" unicode="p" horiz-adv-x="505" 
d="M61 551l140 12v-55q33 33 61.5 47.5t66.5 14.5q52 0 82.5 -29t44 -90.5t13.5 -164.5q0 -141 -32.5 -220t-124.5 -79q-42 0 -67 16t-44 45v-195l-140 -28v726zM311.5 133q16.5 39 16.5 147q0 103 -16.5 146t-50.5 43q-35 0 -60 -39v-291q20 -45 61 -45q33 0 49.5 39z" />
    <glyph glyph-name="q" unicode="q" horiz-adv-x="495" 
d="M294 48q-18 -28 -44 -44.5t-65 -16.5q-66 0 -99 46.5t-41.5 107t-8.5 131.5q0 81 9 144t42 108.5t99 45.5q37 0 63 -16.5t45 -45.5l5 43l136 12v-720l-141 -18v223zM270.5 107q14.5 13 23.5 32v291q-11 19 -23 29t-29 10q-33 0 -49 -44t-16 -150q0 -105 14.5 -143
t43.5 -38q21 0 35.5 13z" />
    <glyph glyph-name="r" unicode="r" horiz-adv-x="404" 
d="M61 551l140 12v-91q30 43 74.5 69.5t113.5 26.5v-137q-36 0 -94.5 -12.5t-93.5 -43.5v-369l-140 -12v557z" />
    <glyph glyph-name="s" unicode="s" horiz-adv-x="451" 
d="M95 24.5q-51 37.5 -66 104.5l109 36q4 -19 15 -34q23 -33 67 -33q25 0 48 11t23 34q0 31 -43 48l-118 48q-47 20 -72 60t-25 98q0 54 26.5 93t70 59.5t93.5 20.5q63 0 116 -36.5t71 -99.5l-116 -36q-4 17 -14 34q-22 34 -56 34q-25 0 -43 -11.5t-18 -33.5q0 -26 49 -48
l100 -41q53 -25 83 -63t30 -102q0 -58 -28 -98.5t-73 -61t-95 -20.5q-83 0 -134 37.5z" />
    <glyph glyph-name="t" unicode="t" horiz-adv-x="360" 
d="M138 23.5q-47 34.5 -47 122.5v311h-78l6 106h76l14 122l122 17v-139h116l-6 -106h-109v-310q0 -30 15 -43t44 -13q16 0 54 6v-97q-4 -1 -31.5 -6t-60.5 -5q-68 0 -115 34.5z" />
    <glyph glyph-name="u" unicode="u" horiz-adv-x="539" 
d="M92 25.5q-35 38.5 -35 103.5v422l140 12v-377q0 -40 13 -57.5t40 -17.5q21 0 45 10.5t43 33.5v396l141 12v-557l-141 -12v72q-35 -40 -76.5 -59.5t-79.5 -19.5q-55 0 -90 38.5z" />
    <glyph glyph-name="v" unicode="v" horiz-adv-x="455" 
d="M161 0l-157 551l168 12l71 -360l81 342l127 12l-161 -557h-129z" />
    <glyph glyph-name="w" unicode="w" horiz-adv-x="642" 
d="M133 0l-115 552l143 11l48 -319l71 307l117 12l61 -315l61 303l114 6l-129 -557h-113l-64 365l-79 -365h-115z" />
    <glyph glyph-name="x" unicode="x" horiz-adv-x="459" 
d="M308 -6l-83 172l-86 -166h-134l152 283l-147 280h154l67 -138l72 138h133l-136 -253l162 -304z" />
    <glyph glyph-name="y" unicode="y" horiz-adv-x="440" 
d="M15 -172v117q37 -2 59 -2q88 0 88 82v28l-161 503l152 7l79 -353l75 350l127 1l-144 -551q-30 -108 -87.5 -148t-128.5 -40q-24 0 -59 6z" />
    <glyph glyph-name="z" unicode="z" horiz-adv-x="425" 
d="M44 0v88l189 365h-181l12 110h325v-84l-186 -368h201l-12 -111h-348z" />
    <glyph glyph-name="braceleft" unicode="{" horiz-adv-x="329" 
d="M161 -7q-51 35 -71.5 102t-20.5 174q0 33 -8 51t-39 18v93q31 0 39 18t8 51q0 101 20.5 165.5t71.5 98t142 33.5v-79q-45 0 -65 -23t-24.5 -64t-4.5 -131q0 -27 -4.5 -45t-25 -37t-63.5 -34q43 -14 63.5 -33t25 -37t4.5 -45q0 -96 4.5 -140t24.5 -68t65 -24v-79
q-91 0 -142 35z" />
    <glyph glyph-name="bar" unicode="|" horiz-adv-x="284" 
d="M69 -47v844h146v-844h-146z" />
    <glyph glyph-name="braceright" unicode="}" horiz-adv-x="329" 
d="M268 449q8 -18 39 -18v-93q-31 0 -39 -18t-8 -51q0 -107 -20.5 -174t-71.5 -102t-143 -35v79q45 0 65 24t24.5 68t4.5 140q0 27 5 45.5t25 37t62 32.5q-42 15 -62 34t-25 37t-5 45q0 90 -4.5 131t-24.5 64t-65 23v79q92 0 143 -33.5t71.5 -98t20.5 -165.5q0 -33 8 -51z
" />
    <glyph glyph-name="asciitilde" unicode="~" horiz-adv-x="398" 
d="M235.5 377.5q-13.5 7.5 -31.5 21.5q-19 15 -33 22.5t-31 7.5q-44 0 -95 -54v80q58 69 106 69q16 0 28 -6.5t31 -19.5q19 -14 32 -20.5t30 -6.5q26 0 49.5 16t34.5 37v-88q0 -3 -13 -20t-33 -31.5t-44 -14.5q-17 0 -30.5 7.5z" />
    <glyph glyph-name="uni00A0" unicode="&#xa0;" horiz-adv-x="244" 
 />
    <glyph glyph-name="exclamdown" unicode="&#xa1;" horiz-adv-x="265" 
d="M62 598v152l141 -6v-146h-141zM62 -6l24 531h94l23 -531h-141z" />
    <glyph glyph-name="cent" unicode="&#xa2;" horiz-adv-x="480" 
d="M214 -8q-92 19 -140.5 99.5t-48.5 187.5q0 69 21 132t63.5 105.5t104.5 50.5v89h68v-89q75 -12 121.5 -66t49.5 -133l-133 -6q-5 30 -12.5 52t-25.5 34v-342q26 6 37.5 37.5t13.5 67.5l117 -13q-13 -99 -50 -151.5t-118 -58.5v-82h-68v86zM214 449q-30 -20 -38.5 -64
t-8.5 -104q0 -52 8.5 -93t38.5 -65v326z" />
    <glyph glyph-name="sterling" unicode="&#xa3;" horiz-adv-x="446" 
d="M282 157q60 0 130 -44v-108l-21 -6q-29 29 -57 38.5t-56 9.5q-32 0 -57 -8.5t-56 -23.5q-21 -11 -35 -16t-28 -5q-17 0 -31.5 7t-23.5 17v92q39 12 56 60t17 106q0 13 -2 35h-81v93h64q-6 23 -20 65q-14 43 -20.5 70t-6.5 52q0 48 25.5 87.5t68.5 62.5t91 23
q64 0 115 -42t62 -120l-114 -43q0 44 -16.5 67.5t-41.5 23.5q-21 0 -34 -18t-13 -54q0 -32 9 -60t27 -71l18 -43h130v-93h-110v-3q0 -78 -59 -167q33 16 70 16z" />
    <glyph glyph-name="currency" unicode="&#xa4;" horiz-adv-x="592" 
d="M43 271l68 61q-25 47 -25 114q0 69 27 116l-70 62l46 53l70 -61q54 40 137 40q84 0 138 -41l70 62l47 -53l-71 -62q27 -51 27 -117q0 -65 -26 -113l70 -61l-47 -53l-67 60q-54 -43 -141 -43q-88 0 -139 42l-68 -59zM390 445q0 105 -94 105q-93 0 -93 -105q0 -104 93 -104
q94 0 94 104z" />
    <glyph glyph-name="yen" unicode="&#xa5;" horiz-adv-x="535" 
d="M519 750l-153 -383h116v-71h-137v-81h137v-70h-137v-145h-148v145h-136v70h136v81h-136v71h108l-152 383h161l103 -312l111 312h127z" />
    <glyph glyph-name="brokenbar" unicode="&#xa6;" horiz-adv-x="288" 
d="M71 469v328h146v-328h-146zM71 -47v328h146v-328h-146z" />
    <glyph glyph-name="section" unicode="&#xa7;" horiz-adv-x="480" 
d="M106.5 20q-51.5 36 -65.5 97l108 35q6 -27 27 -47t54 -20q26 0 49 11t23 35q0 23 -21.5 37t-45.5 22.5t-31 11.5q-77 29 -118.5 71.5t-41.5 107.5q0 64 40 111q-35 41 -35 104q0 54 26.5 92.5t69.5 58t92 19.5q66 0 118.5 -35t70.5 -96l-115 -36q-21 68 -73 68
q-23 0 -41 -12t-18 -31q0 -22 22 -36t71 -33q42 -16 56 -23q55 -25 84 -59.5t29 -94.5q0 -72 -45 -120q41 -41 41 -103q0 -54 -28 -93t-74.5 -58.5t-101.5 -19.5q-75 0 -126.5 36zM302 333.5q5 7.5 5 19.5q0 32 -43 49l-78 32q-12 -15 -12 -31q0 -18 10.5 -30t30.5 -21.5
t73 -32.5q9 7 14 14.5z" />
    <glyph glyph-name="dieresis" unicode="&#xa8;" horiz-adv-x="533" 
d="M79 609v141h141v-141h-141zM313 609v141h141v-141h-141z" />
    <glyph glyph-name="copyright" unicode="&#xa9;" horiz-adv-x="682" 
d="M183.5 44q-72.5 44 -115 120t-42.5 165t42.5 164.5t115 119.5t157.5 44t157.5 -44t115 -119.5t42.5 -164.5t-42.5 -165t-115 -120t-157.5 -44t-157.5 44zM465.5 100.5q57.5 35.5 91.5 96t34 132.5t-34 132t-91.5 95.5t-124.5 35.5t-124.5 -35.5t-91.5 -95.5t-34 -132
t34 -132.5t91.5 -96t124.5 -35.5t124.5 35.5zM258 150q-35 32 -51 81t-16 102t16.5 100.5t50.5 77t84 29.5q45 0 77.5 -24t49 -62.5t16.5 -80.5l-93 -4q0 26 -9.5 59t-41.5 33q-31 0 -42 -36t-11 -93q0 -60 12.5 -100.5t48.5 -40.5q29 0 40 27t15 74l82 -8q0 -70 -36.5 -118
t-102.5 -48q-54 0 -89 32z" />
    <glyph glyph-name="ordfeminine" unicode="&#xaa;" horiz-adv-x="378" 
d="M59 367q-26 36 -26 90q0 135 183 150q0 37 -5.5 57t-25.5 20q-16 0 -25 -13.5t-12 -33.5l-100 18q7 56 46 80.5t92 24.5q67 0 100 -35t33 -92v-214q0 -18 3.5 -40t7.5 -34l-101 -9l-11 51q-11 -23 -38 -39.5t-55 -16.5q-40 0 -66 36zM216 429v115q-81 0 -81 -82
q0 -27 9.5 -42t28.5 -15q21 0 43 24z" />
    <glyph glyph-name="guillemotleft" unicode="&#xab;" horiz-adv-x="607" 
d="M274 29l-248 185v130l249 190l-6 -127l-147 -111l159 -100zM556 29l-248 185v130l249 190l-7 -127l-147 -111l160 -100z" />
    <glyph glyph-name="logicalnot" unicode="&#xac;" horiz-adv-x="385" 
d="M257 141v93h-211v117h282v-210h-71z" />
    <glyph glyph-name="uni00AD" unicode="&#xad;" horiz-adv-x="293" 
d="M6 234v117h281v-117h-281z" />
    <glyph glyph-name="registered" unicode="&#xae;" horiz-adv-x="682" 
d="M183.5 44q-72.5 44 -115 120t-42.5 165t42.5 164.5t115 119.5t157.5 44t157.5 -44t115 -119.5t42.5 -164.5t-42.5 -165t-115 -120t-157.5 -44t-157.5 44zM465.5 100.5q57.5 35.5 91.5 96t34 132.5t-34 132t-91.5 95.5t-124.5 35.5t-124.5 -35.5t-91.5 -95.5t-34 -132
t34 -132.5t91.5 -96t124.5 -35.5t124.5 35.5zM334 308h-33v-159l-84 -8v379h78q51 0 87 -6.5t61 -30.5t25 -73q0 -35 -14.5 -56t-42.5 -32l65 -154l-79 -27zM320 367q35 0 52.5 9t17.5 35q0 25 -17.5 33.5t-54.5 8.5h-16v-86h18z" />
    <glyph glyph-name="macron" unicode="&#xaf;" horiz-adv-x="438" 
d="M79 609v94h281v-94h-281z" />
    <glyph glyph-name="degree" unicode="&#xb0;" horiz-adv-x="381" 
d="M76.5 503q-41.5 42 -41.5 109t41.5 109.5t115.5 42.5t114 -42t40 -110q0 -67 -40 -109t-114 -42t-115.5 42zM236.5 566q12.5 21 12.5 47t-12.5 46.5t-44.5 20.5q-34 0 -47.5 -20.5t-13.5 -48.5q0 -24 13.5 -45t47.5 -21q32 0 44.5 21z" />
    <glyph glyph-name="plusminus" unicode="&#xb1;" horiz-adv-x="423" 
d="M154 164v117h-117v116h117v118h116v-118h117v-116h-117v-117h-116zM69 0v117h282v-117h-282z" />
    <glyph glyph-name="uni00B2" unicode="&#xb2;" horiz-adv-x="410" 
d="M42 366q24 27 53 56q65 66 99.5 113t34.5 93q0 20 -8 32.5t-22 12.5q-22 0 -32 -34q-4 -11 -8 -33l-117 39q13 51 59 86t111 35q68 0 112 -34.5t44 -104.5q0 -103 -171 -252h148q0 -19 -4 -47t-4 -47h-295v85z" />
    <glyph glyph-name="uni00B3" unicode="&#xb3;" horiz-adv-x="418" 
d="M83.5 286.5q-46.5 28.5 -60.5 81.5l105 31q7 -21 20 -33.5t36 -12.5q22 0 36 15t14 36q0 41 -26.5 55.5t-73.5 14.5v94q44 0 69 13t25 48q0 19 -11.5 32t-30.5 13q-11 0 -18.5 -5.5t-14.5 -15.5q-6 -11 -10 -21l-101 38q29 51 65 73t89 22q67 0 116 -32.5t49 -90.5
q0 -79 -91 -115q48 -16 73 -45t25 -77q0 -69 -51 -108t-127 -39q-60 0 -106.5 28.5z" />
    <glyph glyph-name="acute" unicode="&#xb4;" horiz-adv-x="293" 
d="M71 608l-55 49l145 218l111 -98z" />
    <glyph glyph-name="uni00B5" unicode="&#xb5;" horiz-adv-x="537" 
d="M63 551l140 12v-377q0 -75 47 -75q17 0 39 11.5t55 32.5v396l140 12v-557l-140 -12v72q-62 -45 -113 -45q-19 0 -28 1v-116l-140 -6v651z" />
    <glyph glyph-name="paragraph" unicode="&#xb6;" horiz-adv-x="563" 
d="M164 391q-67 19 -104 58.5t-37 109.5q0 85 51.5 127t125 53t180.5 11h39h116v-121h-71v-629h-113v373q-36 0 -74 3v-376h-113v391z" />
    <glyph glyph-name="periodcentered" unicode="&#xb7;" horiz-adv-x="252" 
d="M56 234v141h140v-141h-140z" />
    <glyph glyph-name="cedilla" unicode="&#xb8;" horiz-adv-x="269" 
d="M87.5 -262.5q-30.5 8.5 -50.5 22.5v80q38 -17 70 -17q24 0 35.5 10t11.5 26q0 22 -24 40t-69 18l19 106h74l-14 -60q71 -20 93 -59.5t22 -68.5q0 -55 -30 -80.5t-76 -25.5q-31 0 -61.5 8.5z" />
    <glyph glyph-name="uni00B9" unicode="&#xb9;" horiz-adv-x="373" 
d="M51 375h87v214l-30 -4q-34 -4 -51 -4h-13v69l162 100h49v-375h92l-6 -94h-290v94z" />
    <glyph glyph-name="ordmasculine" unicode="&#xba;" horiz-adv-x="464" 
d="M90.5 430q-49.5 54 -49.5 143q0 88 49 142t141 54t142.5 -54t50.5 -142q0 -89 -50.5 -143t-142.5 -54q-91 0 -140.5 54zM283.5 501.5q18.5 30.5 18.5 73.5q0 42 -18.5 73t-51.5 31t-51.5 -30.5t-18.5 -72.5t18.5 -73.5t51.5 -31.5t51.5 30.5z" />
    <glyph glyph-name="guillemotright" unicode="&#xbb;" horiz-adv-x="607" 
d="M52 29l-7 167l160 100l-147 111l-7 127l249 -190v-130zM333 29l-7 167l160 100l-147 111l-7 127l249 -190v-130z" />
    <glyph glyph-name="onequarter" unicode="&#xbc;" horiz-adv-x="972" 
d="M41 375h87v214l-30 -4q-34 -4 -51 -4h-12v69l161 100h50v-375h91l-6 -94h-290v94zM332 0l188 750h140l-187 -750h-141zM768 -23v117h-191v82l172 293h140v-288h61l-8 -87h-53v-110zM667 181h101v166z" />
    <glyph glyph-name="onehalf" unicode="&#xbd;" horiz-adv-x="969" 
d="M38 375h87v214l-30 -4q-34 -4 -51 -4h-12v69l161 100h50v-375h91l-6 -94h-290v94zM329 0l188 750h140l-187 -750h-141zM619 84q18 20 56 60q65 68 97.5 113t32.5 90q0 20 -8 32.5t-22 12.5q-20 0 -32 -34q-4 -11 -8 -33l-116 39q12 50 57.5 85t111.5 35q69 0 112.5 -34
t43.5 -104q0 -105 -171 -252h148q0 -13 -1.5 -27t-1.5 -20q-4 -28 -4 -47h-295v84z" />
    <glyph glyph-name="threequarters" unicode="&#xbe;" horiz-adv-x="967" 
d="M81.5 286.5q-46.5 28.5 -60.5 81.5l105 31q7 -21 19.5 -33.5t36.5 -12.5q22 0 36 15t14 36q0 41 -26.5 55.5t-74.5 14.5v94q44 0 69 13t25 48q0 19 -11 32t-31 13q-19 0 -32 -21q-7 -9 -11 -21l-101 38q29 51 65.5 73t89.5 22q67 0 115.5 -32.5t48.5 -90.5
q0 -79 -91 -115q49 -16 73.5 -45t24.5 -77q0 -68 -51 -107.5t-126 -39.5q-60 0 -106.5 28.5zM327 0l187 750h141l-188 -750h-140zM762 -23v117h-190v82l172 293h139v-288h61l-7 -87h-54v-110zM662 181h100v166z" />
    <glyph glyph-name="questiondown" unicode="&#xbf;" horiz-adv-x="432" 
d="M209 608v141l141 6v-147h-141zM111 25.5q-44 31.5 -65.5 82t-21.5 106.5q0 58 14.5 95t35.5 57t56 43q31 20 48.5 35.5t29.5 42.5t12 69v6h117q2 -18 2 -48q0 -55 -13 -89t-32 -51.5t-50 -37.5q-27 -17 -42 -30t-25.5 -36.5t-10.5 -60.5q0 -104 56 -104q28 0 38 26.5
t15 70.5l133 -6q-2 -59 -26.5 -105t-66.5 -71.5t-96 -25.5q-64 0 -108 31.5z" />
    <glyph glyph-name="Agrave" unicode="&#xc0;" horiz-adv-x="552" 
d="M12 0l158 741l209 9l162 -744l-160 -6l-27 161h-179l-32 -161h-131zM202 281h125l-69 359zM273 793l-181 152l103 95l130 -197z" />
    <glyph glyph-name="Aacute" unicode="&#xc1;" horiz-adv-x="552" 
d="M12 0l158 741l209 9l162 -744l-160 -6l-27 161h-179l-32 -161h-131zM202 281h125l-69 359zM292 793l-52 50l130 197l103 -95z" />
    <glyph glyph-name="Acircumflex" unicode="&#xc2;" horiz-adv-x="552" 
d="M12 0l158 741l209 9l162 -744l-160 -6l-27 161h-179l-32 -161h-131zM202 281h125l-69 359zM112 797l117 235h98l113 -235h-122l-47 142l-57 -142h-102z" />
    <glyph glyph-name="Atilde" unicode="&#xc3;" horiz-adv-x="552" 
d="M12 0l158 741l209 9l162 -744l-160 -6l-27 161h-179l-32 -161h-131zM202 281h125l-69 359zM311 826q-13 6 -34 18q-19 13 -33 19t-31 6q-41 0 -85 -49l-7 90q25 27 48 43t50 16q14 0 26.5 -4.5t33.5 -14.5q19 -10 32.5 -15t28.5 -5q22 0 41.5 12t28.5 27l22 -79
q0 -3 -13 -21t-33.5 -33.5t-45.5 -15.5q-16 0 -29 6z" />
    <glyph glyph-name="Adieresis" unicode="&#xc4;" horiz-adv-x="552" 
d="M12 0l158 741l209 9l162 -744l-160 -6l-27 161h-179l-32 -161h-131zM202 281h125l-69 359zM88 816v141h141v-141h-141zM322 816v141h141v-141h-141z" />
    <glyph glyph-name="Aring" unicode="&#xc5;" horiz-adv-x="552" 
d="M12 0l158 741l209 9l162 -744l-160 -6l-27 161h-179l-32 -161h-131zM202 281h125l-69 359zM168.5 831q-45.5 35 -45.5 98t45 98t108 35q62 0 107 -34.5t45 -98.5q0 -42 -21.5 -72.5t-56.5 -45.5t-74 -15q-62 0 -107.5 35zM317.5 888.5q18.5 14.5 18.5 40.5
q0 25 -18.5 39.5t-42.5 14.5t-42 -14.5t-18 -39.5t18 -40t42 -15t42.5 14.5z" />
    <glyph glyph-name="AE" unicode="&#xc6;" horiz-adv-x="771" 
d="M-3 0l322 741l100 9h320l-11 -117h-189v-179h124l-1 -126h-123v-211h208l-12 -117h-360l8 161h-163l-64 -161h-159zM268 281h116l11 359z" />
    <glyph glyph-name="Ccedilla" unicode="&#xc7;" horiz-adv-x="522" 
d="M466 128.5q-21 -58.5 -63.5 -96.5t-103.5 -45l-6 -24q71 -20 93 -59.5t22 -68.5q0 -55 -30 -80.5t-76 -25.5q-31 0 -61.5 8.5t-50.5 22.5v80q38 -17 70 -17q24 0 35.5 10t11.5 26q0 22 -24 40t-69 18l13 74q-103 23 -145 134.5t-42 265.5q0 92 24 177t77.5 140.5
t135.5 55.5q63 0 110.5 -39t73 -101.5t25.5 -130.5l-142 -7q0 45 -15 102.5t-60 57.5q-47 0 -65 -75t-18 -180q0 -130 20 -208.5t77 -78.5q40 0 57 47.5t22 115.5l125 -12q0 -68 -21 -126.5z" />
    <glyph glyph-name="Egrave" unicode="&#xc8;" horiz-adv-x="483" 
d="M70 0v750h381l-12 -117h-222v-179h158l-1 -126h-157v-211h242l-12 -117h-377zM239 793l-181 152l103 95l130 -197z" />
    <glyph glyph-name="Eacute" unicode="&#xc9;" horiz-adv-x="483" 
d="M70 0v750h381l-12 -117h-222v-179h158l-1 -126h-157v-211h242l-12 -117h-377zM258 793l-52 50l130 197l103 -95z" />
    <glyph glyph-name="Ecircumflex" unicode="&#xca;" horiz-adv-x="483" 
d="M70 0v750h381l-12 -117h-222v-179h158l-1 -126h-157v-211h242l-12 -117h-377zM78 797l117 235h98l113 -235h-122l-47 142l-57 -142h-102z" />
    <glyph glyph-name="Edieresis" unicode="&#xcb;" horiz-adv-x="483" 
d="M70 0v750h381l-12 -117h-222v-179h158l-1 -126h-157v-211h242l-12 -117h-377zM54 816v141h141v-141h-141zM288 816v141h141v-141h-141z" />
    <glyph glyph-name="Igrave" unicode="&#xcc;" horiz-adv-x="287" 
d="M70 -6v744l147 12v-744zM141 793l-181 152l103 95l130 -197z" />
    <glyph glyph-name="Iacute" unicode="&#xcd;" horiz-adv-x="287" 
d="M70 -6v744l147 12v-744zM160 793l-52 50l130 197l103 -95z" />
    <glyph glyph-name="Icircumflex" unicode="&#xce;" horiz-adv-x="287" 
d="M70 -6v744l147 12v-744zM-20 796l117 235h98l113 -235h-122l-47 142l-57 -142h-102z" />
    <glyph glyph-name="Idieresis" unicode="&#xcf;" horiz-adv-x="287" 
d="M70 -6v744l147 12v-744zM-44 816v141h141v-141h-141zM190 816v141h141v-141h-141z" />
    <glyph glyph-name="Eth" unicode="&#xd0;" horiz-adv-x="556" 
d="M447 656q73 -94 73 -284q0 -101 -27.5 -185t-87.5 -135.5t-154 -51.5h-179v328h-70v94h70v328h154q148 0 221 -94zM374 378q0 69 -8.5 122.5t-39 93t-91.5 39.5h-17v-211h66v-94h-66v-211h21q76 0 105.5 65.5t29.5 161.5v34z" />
    <glyph glyph-name="Ntilde" unicode="&#xd1;" horiz-adv-x="611" 
d="M420 -6l-219 469v-457l-131 -6v744l153 6l194 -446v434l124 12v-744zM341 794q-13 6 -34 18q-19 13 -33 19t-31 6q-41 0 -85 -49l-7 90q25 27 48 43t50 16q14 0 26.5 -4.5t33.5 -14.5q19 -10 32.5 -15t28.5 -5q22 0 41.5 12t28.5 27l22 -79q0 -3 -13 -21t-33.5 -33.5
t-45.5 -15.5q-16 0 -29 6z" />
    <glyph glyph-name="Ograve" unicode="&#xd2;" horiz-adv-x="549" 
d="M93.5 95.5q-51.5 109.5 -51.5 283.5q0 185 55 285t177 100q233 0 233 -381q0 -171 -52.5 -284t-182.5 -113q-127 0 -178.5 109.5zM344 173.5q17 69.5 17 210.5q0 113 -16.5 187.5t-70.5 74.5t-70 -74t-16 -187q0 -142 16.5 -211.5t69.5 -69.5t70 69.5zM272 793l-181 152
l103 95l130 -197z" />
    <glyph glyph-name="Oacute" unicode="&#xd3;" horiz-adv-x="549" 
d="M93.5 95.5q-51.5 109.5 -51.5 283.5q0 185 55 285t177 100q233 0 233 -381q0 -171 -52.5 -284t-182.5 -113q-127 0 -178.5 109.5zM344 173.5q17 69.5 17 210.5q0 113 -16.5 187.5t-70.5 74.5t-70 -74t-16 -187q0 -142 16.5 -211.5t69.5 -69.5t70 69.5zM291 793l-52 50
l130 197l103 -95z" />
    <glyph glyph-name="Ocircumflex" unicode="&#xd4;" horiz-adv-x="549" 
d="M93.5 95.5q-51.5 109.5 -51.5 283.5q0 185 55 285t177 100q233 0 233 -381q0 -171 -52.5 -284t-182.5 -113q-127 0 -178.5 109.5zM344 173.5q17 69.5 17 210.5q0 113 -16.5 187.5t-70.5 74.5t-70 -74t-16 -187q0 -142 16.5 -211.5t69.5 -69.5t70 69.5zM111 797l117 235
h98l113 -235h-122l-47 142l-57 -142h-102z" />
    <glyph glyph-name="Otilde" unicode="&#xd5;" horiz-adv-x="549" 
d="M93.5 95.5q-51.5 109.5 -51.5 283.5q0 185 55 285t177 100q233 0 233 -381q0 -171 -52.5 -284t-182.5 -113q-127 0 -178.5 109.5zM344 173.5q17 69.5 17 210.5q0 113 -16.5 187.5t-70.5 74.5t-70 -74t-16 -187q0 -142 16.5 -211.5t69.5 -69.5t70 69.5zM310 826
q-13 6 -34 18q-19 13 -33 19t-31 6q-41 0 -85 -49l-7 90q25 27 48 43t50 16q14 0 26.5 -4.5t33.5 -14.5q19 -10 32.5 -15t28.5 -5q22 0 41.5 12t28.5 27l22 -79q0 -3 -13 -21t-33.5 -33.5t-45.5 -15.5q-16 0 -29 6z" />
    <glyph glyph-name="Odieresis" unicode="&#xd6;" horiz-adv-x="549" 
d="M93.5 95.5q-51.5 109.5 -51.5 283.5q0 185 55 285t177 100q233 0 233 -381q0 -171 -52.5 -284t-182.5 -113q-127 0 -178.5 109.5zM344 173.5q17 69.5 17 210.5q0 113 -16.5 187.5t-70.5 74.5t-70 -74t-16 -187q0 -142 16.5 -211.5t69.5 -69.5t70 69.5zM87 816v141h141
v-141h-141zM321 816v141h141v-141h-141z" />
    <glyph glyph-name="multiply" unicode="&#xd7;" horiz-adv-x="418" 
d="M301 94l-93 94l-91 -92l-82 82l91 92l-90 89l83 83l89 -90l92 91l82 -82l-91 -91l93 -93z" />
    <glyph glyph-name="Oslash" unicode="&#xd8;" horiz-adv-x="551" 
d="M96 94l-35 -42l-47 45l55 66q-27 95 -27 237q0 172 57 269t175 97q132 0 190 -123l41 50l47 -45l-63 -76q19 -81 19 -172q0 -186 -51 -301t-183 -115q-121 0 -178 110zM356 512q-15 137 -82 137q-53 0 -69.5 -73t-16.5 -176q0 -63 1 -90zM330.5 143q18.5 34 24.5 94
t6 163v17l-164 -200q8 -54 26 -81t51 -27q38 0 56.5 34z" />
    <glyph glyph-name="Ugrave" unicode="&#xd9;" horiz-adv-x="568" 
d="M120 58q-56 72 -56 189v497l147 6v-515q0 -39 4.5 -66t22.5 -46t55 -19q35 0 51.5 19.5t20.5 46t4 67.5v501l134 12v-486q0 -106 -41.5 -192t-173.5 -86q-112 0 -168 72zM281 793l-181 152l103 95l130 -197z" />
    <glyph glyph-name="Uacute" unicode="&#xda;" horiz-adv-x="568" 
d="M120 58q-56 72 -56 189v497l147 6v-515q0 -39 4.5 -66t22.5 -46t55 -19q35 0 51.5 19.5t20.5 46t4 67.5v501l134 12v-486q0 -106 -41.5 -192t-173.5 -86q-112 0 -168 72zM300 793l-52 50l130 197l103 -95z" />
    <glyph glyph-name="Ucircumflex" unicode="&#xdb;" horiz-adv-x="568" 
d="M120 58q-56 72 -56 189v497l147 6v-515q0 -39 4.5 -66t22.5 -46t55 -19q35 0 51.5 19.5t20.5 46t4 67.5v501l134 12v-486q0 -106 -41.5 -192t-173.5 -86q-112 0 -168 72zM120 796l117 235h98l113 -235h-122l-47 142l-57 -142h-102z" />
    <glyph glyph-name="Udieresis" unicode="&#xdc;" horiz-adv-x="568" 
d="M120 58q-56 72 -56 189v497l147 6v-515q0 -39 4.5 -66t22.5 -46t55 -19q35 0 51.5 19.5t20.5 46t4 67.5v501l134 12v-486q0 -106 -41.5 -192t-173.5 -86q-112 0 -168 72zM96 816v141h141v-141h-141zM330 816v141h141v-141h-141z" />
    <glyph glyph-name="Yacute" unicode="&#xdd;" horiz-adv-x="501" 
d="M179 -6v303l-180 453h161l103 -312l111 312h126l-173 -436v-308zM267 793l-52 50l130 197l103 -95z" />
    <glyph glyph-name="Thorn" unicode="&#xde;" horiz-adv-x="528" 
d="M68 750h148v-180q88 -1 150 -15.5t104 -62.5t42 -142t-43.5 -142.5t-107 -63.5t-146.5 -15v-162l-147 -12v795zM241 238q58 0 91.5 24.5t33.5 88.5q0 63 -31 85t-98 22h-21v-220h25z" />
    <glyph glyph-name="germandbls" unicode="&#xdf;" horiz-adv-x="571" 
d="M61 516q0 147 67.5 198.5t150.5 51.5q63 0 110.5 -23.5t73 -65.5t25.5 -96q0 -45 -20.5 -84t-70.5 -72q73 -25 113 -69.5t40 -127.5q0 -120 -80.5 -171.5t-205.5 -55.5v102q48 0 80.5 18t48 46t15.5 59q0 32 -17 64t-48.5 52.5t-73.5 20.5v81q49 17 73.5 51.5t24.5 72.5
q0 35 -21 62t-61 27q-37 0 -60 -27t-23 -88v-542l-141 -12v528z" />
    <glyph glyph-name="agrave" unicode="&#xe0;" horiz-adv-x="471" 
d="M88 9.5q-29 22.5 -45 61t-16 86.5q0 109 74.5 153.5t173.5 50.5q0 54 -7 80t-34 26q-23 0 -35 -18t-15 -46l-137 24q10 77 63 110t124 33q91 0 136.5 -48t45.5 -125v-291q0 -47 15 -100l-137 -12l-16 69q-18 -32 -53 -54t-72 -22q-36 0 -65 22.5zM246.5 95
q11.5 8 28.5 26v156q-50 0 -80 -27t-30 -84q0 -38 13.5 -58.5t39.5 -20.5q17 0 28.5 8zM261 605l-181 152l103 95l130 -197z" />
    <glyph glyph-name="aacute" unicode="&#xe1;" horiz-adv-x="471" 
d="M88 9.5q-29 22.5 -45 61t-16 86.5q0 109 74.5 153.5t173.5 50.5q0 54 -7 80t-34 26q-23 0 -35 -18t-15 -46l-137 24q10 77 63 110t124 33q91 0 136.5 -48t45.5 -125v-291q0 -47 15 -100l-137 -12l-16 69q-18 -32 -53 -54t-72 -22q-36 0 -65 22.5zM246.5 95
q11.5 8 28.5 26v156q-50 0 -80 -27t-30 -84q0 -38 13.5 -58.5t39.5 -20.5q17 0 28.5 8zM260 605l-52 50l130 197l103 -95z" />
    <glyph glyph-name="acircumflex" unicode="&#xe2;" horiz-adv-x="471" 
d="M88 9.5q-29 22.5 -45 61t-16 86.5q0 109 74.5 153.5t173.5 50.5q0 54 -7 80t-34 26q-23 0 -35 -18t-15 -46l-137 24q10 77 63 110t124 33q91 0 136.5 -48t45.5 -125v-291q0 -47 15 -100l-137 -12l-16 69q-18 -32 -53 -54t-72 -22q-36 0 -65 22.5zM246.5 95
q11.5 8 28.5 26v156q-50 0 -80 -27t-30 -84q0 -38 13.5 -58.5t39.5 -20.5q17 0 28.5 8zM80 609l117 235h98l113 -235h-122l-47 142l-57 -142h-102z" />
    <glyph glyph-name="atilde" unicode="&#xe3;" horiz-adv-x="471" 
d="M88 9.5q-29 22.5 -45 61t-16 86.5q0 109 74.5 153.5t173.5 50.5q0 54 -7 80t-34 26q-23 0 -35 -18t-15 -46l-137 24q10 77 63 110t124 33q91 0 136.5 -48t45.5 -125v-291q0 -47 15 -100l-137 -12l-16 69q-18 -32 -53 -54t-72 -22q-36 0 -65 22.5zM246.5 95
q11.5 8 28.5 26v156q-50 0 -80 -27t-30 -84q0 -38 13.5 -58.5t39.5 -20.5q17 0 28.5 8zM279 607q-13 6 -34 18q-19 13 -33 19t-31 6q-41 0 -85 -49l-7 90q25 27 48 43t50 16q14 0 26.5 -4.5t33.5 -14.5q19 -10 32.5 -15t28.5 -5q22 0 41.5 12t28.5 27l22 -79q0 -3 -13 -21
t-33.5 -33.5t-45.5 -15.5q-16 0 -29 6z" />
    <glyph glyph-name="adieresis" unicode="&#xe4;" horiz-adv-x="471" 
d="M88 9.5q-29 22.5 -45 61t-16 86.5q0 109 74.5 153.5t173.5 50.5q0 54 -7 80t-34 26q-23 0 -35 -18t-15 -46l-137 24q10 77 63 110t124 33q91 0 136.5 -48t45.5 -125v-291q0 -47 15 -100l-137 -12l-16 69q-18 -32 -53 -54t-72 -22q-36 0 -65 22.5zM246.5 95
q11.5 8 28.5 26v156q-50 0 -80 -27t-30 -84q0 -38 13.5 -58.5t39.5 -20.5q17 0 28.5 8zM56 629v141h141v-141h-141zM290 629v141h141v-141h-141z" />
    <glyph glyph-name="aring" unicode="&#xe5;" horiz-adv-x="471" 
d="M431 6l-137 -12l-16 69q-18 -32 -53 -54t-72 -22q-36 0 -65 22.5t-45 61t-16 86.5q0 109 74.5 153.5t173.5 50.5q0 54 -7 80t-34 26q-23 0 -35 -18t-15 -46l-137 24q10 79 71 115q-27 33 -27 80q0 63 45 98t108 35q62 0 107 -34.5t45 -98.5q0 -55 -37 -90q57 -47 57 -135
v-291q0 -47 15 -100zM194.5 588.5q11.5 -13.5 29.5 -18.5h10q17 0 25 -1q19 5 32 18.5t13 34.5q0 25 -18.5 39.5t-42.5 14.5t-42 -14.5t-18 -39.5q0 -20 11.5 -33.5zM275 277q-50 0 -80 -27t-30 -84q0 -38 13.5 -58.5t39.5 -20.5q17 0 28.5 8t28.5 26v156z" />
    <glyph glyph-name="ae" unicode="&#xe6;" horiz-adv-x="711" 
d="M68.5 35q-42.5 48 -42.5 124q0 107 75 151.5t173 50.5q0 57 -7.5 81.5t-33.5 24.5q-42 0 -50 -64l-137 24q9 76 62 109.5t120 33.5q44 0 73 -16t52 -50q29 33 61 49.5t75 16.5q94 0 144 -74t50 -209v-25h-268q0 -65 16.5 -118.5t50.5 -53.5q40 0 59 44.5t20 47.5l106 -40
q-19 -71 -66 -113t-116 -42q-46 0 -78 20.5t-59 62.5q-22 -43 -68.5 -63t-93.5 -20q-75 0 -117.5 48zM549 343q0 58 -16 94t-46 36q-31 0 -50.5 -36t-21.5 -94h134zM260 120.5q14 33.5 14 66.5v90q-50 0 -80 -27t-30 -83q0 -37 13.5 -58.5t36.5 -21.5q32 0 46 33.5z" />
    <glyph glyph-name="ccedilla" unicode="&#xe7;" horiz-adv-x="445" 
d="M367 46q-35 -53 -114 -58l-6 -25q71 -20 93 -59.5t22 -68.5q0 -55 -30 -80.5t-76 -25.5q-31 0 -61.5 8.5t-50.5 22.5v80q38 -17 70 -17q24 0 35.5 10t11.5 26q0 22 -24 40t-69 18l14 78q-71 23 -109.5 101.5t-38.5 179.5q0 76 22.5 143t68.5 109t113 42q51 0 91.5 -25.5
t63.5 -71.5t25 -105l-133 -6q0 4 -3.5 32t-15 46t-29.5 18q-40 0 -51 -54.5t-11 -122.5q0 -67 11.5 -121.5t54.5 -54.5q54 0 56 106l118 -13q-13 -99 -48 -152z" />
    <glyph glyph-name="egrave" unicode="&#xe8;" horiz-adv-x="471" 
d="M87 66.5q-53 79.5 -53 211.5q0 134 54 213t157 79q98 0 150 -79t52 -213q0 -8 -3 -11.5t-3 -4.5h-267q0 -65 17 -118.5t52 -53.5q39 0 58 45t20 47l106 -40q-21 -72 -67 -113.5t-120 -41.5q-100 0 -153 79.5zM309 343q0 60 -16 95t-50 35q-17 0 -33 -17t-26 -47t-10 -66
h135zM253 605l-181 152l103 95l130 -197z" />
    <glyph glyph-name="eacute" unicode="&#xe9;" horiz-adv-x="471" 
d="M87 66.5q-53 79.5 -53 211.5q0 134 54 213t157 79q98 0 150 -79t52 -213q0 -8 -3 -11.5t-3 -4.5h-267q0 -65 17 -118.5t52 -53.5q39 0 58 45t20 47l106 -40q-21 -72 -67 -113.5t-120 -41.5q-100 0 -153 79.5zM309 343q0 60 -16 95t-50 35q-17 0 -33 -17t-26 -47t-10 -66
h135zM252 605l-52 50l130 197l103 -95z" />
    <glyph glyph-name="ecircumflex" unicode="&#xea;" horiz-adv-x="471" 
d="M87 66.5q-53 79.5 -53 211.5q0 134 54 213t157 79q98 0 150 -79t52 -213q0 -8 -3 -11.5t-3 -4.5h-267q0 -65 17 -118.5t52 -53.5q39 0 58 45t20 47l106 -40q-21 -72 -67 -113.5t-120 -41.5q-100 0 -153 79.5zM309 343q0 60 -16 95t-50 35q-17 0 -33 -17t-26 -47t-10 -66
h135zM72 609l117 235h98l113 -235h-122l-47 142l-57 -142h-102z" />
    <glyph glyph-name="edieresis" unicode="&#xeb;" horiz-adv-x="471" 
d="M74 637v141h141v-141h-141zM308 637v141h141v-141h-141zM87 66.5q-53 79.5 -53 211.5q0 134 54 213t157 79q98 0 150 -79t52 -213q0 -8 -3 -11.5t-3 -4.5h-267q0 -65 17 -118.5t52 -53.5q39 0 58 45t20 47l106 -40q-21 -72 -67 -113.5t-120 -41.5q-100 0 -153 79.5z
M309 343q0 60 -16 95t-50 35q-17 0 -33 -17t-26 -47t-10 -66h135z" />
    <glyph glyph-name="igrave" unicode="&#xec;" horiz-adv-x="262" 
d="M61 -6v557l140 12v-557zM148 605l-181 152l103 95l130 -197z" />
    <glyph glyph-name="iacute" unicode="&#xed;" horiz-adv-x="262" 
d="M61 -6v557l140 12v-557zM147 605l-52 50l130 197l103 -95z" />
    <glyph glyph-name="icircumflex" unicode="&#xee;" horiz-adv-x="262" 
d="M61 -6v557l140 12v-557zM-33 609l117 235h98l113 -235h-122l-47 142l-57 -142h-102z" />
    <glyph glyph-name="idieresis" unicode="&#xef;" horiz-adv-x="262" 
d="M61 -6v557l140 12v-557zM-57 629v141h141v-141h-141zM177 629v141h141v-141h-141z" />
    <glyph glyph-name="eth" unicode="&#xf0;" horiz-adv-x="491" 
d="M440.5 502.5q21.5 -76.5 21.5 -140.5q0 -131 -17.5 -211.5t-65.5 -122t-137 -41.5q-105 0 -155.5 70t-50.5 224q0 153 40 221t125 68q20 0 43.5 -11.5t44.5 -30.5q-17 46 -40 85l-107 -23l-21 68l83 18q-23 28 -55 56l150 18q20 -13 43 -43l88 19l22 -68l-68 -15
q35 -64 56.5 -140.5zM286 102q17 15 26.5 69.5t9.5 171.5q0 37 -7 83q-27 41 -65 41q-33 0 -48.5 -23.5t-20 -61.5t-4.5 -101q0 -87 14 -140.5t45 -53.5q33 0 50 15z" />
    <glyph glyph-name="ntilde" unicode="&#xf1;" horiz-adv-x="539" 
d="M61 551l140 12v-72q43 38 84.5 58.5t76.5 20.5q53 0 86.5 -38.5t33.5 -103.5v-422l-140 -12v381q0 75 -51 75q-17 0 -37.5 -10t-52.5 -29v-405l-140 -12v557zM305 607q-13 6 -34 18q-19 13 -33 19t-31 6q-41 0 -85 -49l-7 90q25 27 48 43t50 16q14 0 26.5 -4.5
t33.5 -14.5q19 -10 32.5 -15t28.5 -5q22 0 41.5 12t28.5 27l22 -79q0 -3 -13 -21t-33.5 -33.5t-45.5 -15.5q-16 0 -29 6z" />
    <glyph glyph-name="ograve" unicode="&#xf2;" horiz-adv-x="490" 
d="M88.5 67q-54.5 80 -54.5 213q0 132 54 211t156 79q101 0 156.5 -79t55.5 -211t-55.5 -212.5t-156.5 -80.5t-155.5 80zM302 146q13 55 13 135t-13 135t-58 55t-57 -52t-12 -127q0 -92 12 -146.5t57 -54.5t58 55zM262 605l-181 152l103 95l130 -197z" />
    <glyph glyph-name="oacute" unicode="&#xf3;" horiz-adv-x="490" 
d="M88.5 67q-54.5 80 -54.5 213q0 132 54 211t156 79q101 0 156.5 -79t55.5 -211t-55.5 -212.5t-156.5 -80.5t-155.5 80zM302 146q13 55 13 135t-13 135t-58 55t-57 -52t-12 -127q0 -92 12 -146.5t57 -54.5t58 55zM261 605l-52 50l130 197l103 -95z" />
    <glyph glyph-name="ocircumflex" unicode="&#xf4;" horiz-adv-x="490" 
d="M88.5 67q-54.5 80 -54.5 213q0 132 54 211t156 79q101 0 156.5 -79t55.5 -211t-55.5 -212.5t-156.5 -80.5t-155.5 80zM302 146q13 55 13 135t-13 135t-58 55t-57 -52t-12 -127q0 -92 12 -146.5t57 -54.5t58 55zM81 609l117 235h98l113 -235h-122l-47 142l-57 -142h-102z
" />
    <glyph glyph-name="otilde" unicode="&#xf5;" horiz-adv-x="490" 
d="M88.5 67q-54.5 80 -54.5 213q0 132 54 211t156 79q101 0 156.5 -79t55.5 -211t-55.5 -212.5t-156.5 -80.5t-155.5 80zM302 146q13 55 13 135t-13 135t-58 55t-57 -52t-12 -127q0 -92 12 -146.5t57 -54.5t58 55zM280 607q-13 6 -34 18q-19 13 -33 19t-31 6q-41 0 -85 -49
l-7 90q25 27 48 43t50 16q14 0 26.5 -4.5t33.5 -14.5q19 -10 32.5 -15t28.5 -5q22 0 41.5 12t28.5 27l22 -79q0 -3 -13 -21t-33.5 -33.5t-45.5 -15.5q-16 0 -29 6z" />
    <glyph glyph-name="odieresis" unicode="&#xf6;" horiz-adv-x="490" 
d="M88.5 67q-54.5 80 -54.5 213q0 132 54 211t156 79q101 0 156.5 -79t55.5 -211t-55.5 -212.5t-156.5 -80.5t-155.5 80zM302 146q13 55 13 135t-13 135t-58 55t-57 -52t-12 -127q0 -92 12 -146.5t57 -54.5t58 55zM57 629v141h141v-141h-141zM291 629v141h141v-141h-141z
" />
    <glyph glyph-name="divide" unicode="&#xf7;" horiz-adv-x="389" 
d="M125 328v141h141v-141h-141zM31 188v93h327v-93h-327zM125 -6v147h141v-141z" />
    <glyph glyph-name="oslash" unicode="&#xf8;" horiz-adv-x="490" 
d="M434 426q22 -66 22 -146q0 -132 -55.5 -212.5t-156.5 -80.5q-74 0 -125 45l-45 -57l-87 83l66 84q-19 58 -19 138q0 132 54 211t156 79q68 0 117 -37l41 52l88 -83zM187 419q-12 -52 -12 -127v-7l119 150q-18 36 -50 36q-45 0 -57 -52zM302 146q13 55 13 135v10
l-123 -157q17 -43 52 -43q45 0 58 55z" />
    <glyph glyph-name="ugrave" unicode="&#xf9;" horiz-adv-x="539" 
d="M92 25.5q-35 38.5 -35 103.5v422l140 12v-377q0 -40 13 -57.5t40 -17.5q21 0 45 10.5t43 33.5v396l141 12v-557l-141 -12v72q-35 -40 -76.5 -59.5t-79.5 -19.5q-55 0 -90 38.5zM287 605l-181 152l103 95l130 -197z" />
    <glyph glyph-name="uacute" unicode="&#xfa;" horiz-adv-x="539" 
d="M92 25.5q-35 38.5 -35 103.5v422l140 12v-377q0 -40 13 -57.5t40 -17.5q21 0 45 10.5t43 33.5v396l141 12v-557l-141 -12v72q-35 -40 -76.5 -59.5t-79.5 -19.5q-55 0 -90 38.5zM286 605l-52 50l130 197l103 -95z" />
    <glyph glyph-name="ucircumflex" unicode="&#xfb;" horiz-adv-x="539" 
d="M92 25.5q-35 38.5 -35 103.5v422l140 12v-377q0 -40 13 -57.5t40 -17.5q21 0 45 10.5t43 33.5v396l141 12v-557l-141 -12v72q-35 -40 -76.5 -59.5t-79.5 -19.5q-55 0 -90 38.5zM106 609l117 235h98l113 -235h-122l-47 142l-57 -142h-102z" />
    <glyph glyph-name="udieresis" unicode="&#xfc;" horiz-adv-x="539" 
d="M92 25.5q-35 38.5 -35 103.5v422l140 12v-377q0 -40 13 -57.5t40 -17.5q21 0 45 10.5t43 33.5v396l141 12v-557l-141 -12v72q-35 -40 -76.5 -59.5t-79.5 -19.5q-55 0 -90 38.5zM82 629v141h141v-141h-141zM316 629v141h141v-141h-141z" />
    <glyph glyph-name="yacute" unicode="&#xfd;" horiz-adv-x="440" 
d="M15 -172v117q37 -2 59 -2q88 0 88 82v28l-161 503l152 7l79 -353l75 350l127 1l-144 -551q-30 -108 -87.5 -148t-128.5 -40q-24 0 -59 6zM236 605l-52 50l130 197l103 -95z" />
    <glyph glyph-name="thorn" unicode="&#xfe;" horiz-adv-x="511" 
d="M61 732l140 18v-242q33 33 61.5 47.5t66.5 14.5q54 0 85.5 -29t45.5 -90.5t14 -163.5q0 -141 -33.5 -220.5t-127.5 -79.5q-43 0 -68 16t-44 45v-195l-140 -28v907zM315 133.5q18 39.5 18 146.5q0 102 -17.5 145.5t-53.5 43.5t-61 -39v-291q20 -45 62 -45q34 0 52 39.5z
" />
    <glyph glyph-name="ydieresis" unicode="&#xff;" horiz-adv-x="440" 
d="M15 -172v117q37 -2 59 -2q88 0 88 82v28l-161 503l152 7l79 -353l75 350l127 1l-144 -551q-30 -108 -87.5 -148t-128.5 -40q-24 0 -59 6zM32 629v141h141v-141h-141zM266 629v141h141v-141h-141z" />
    <glyph glyph-name="Amacron" unicode="&#x100;" horiz-adv-x="552" 
d="M12 0l158 741l209 9l162 -744l-160 -6l-27 161h-179l-32 -161h-131zM202 281h125l-69 359zM135 796v94h281v-94h-281z" />
    <glyph glyph-name="amacron" unicode="&#x101;" horiz-adv-x="471" 
d="M88 9.5q-29 22.5 -45 61t-16 86.5q0 109 74.5 153.5t173.5 50.5q0 54 -7 80t-34 26q-23 0 -35 -18t-15 -46l-137 24q10 77 63 110t124 33q91 0 136.5 -48t45.5 -125v-291q0 -47 15 -100l-137 -12l-16 69q-18 -32 -53 -54t-72 -22q-36 0 -65 22.5zM246.5 95
q11.5 8 28.5 26v156q-50 0 -80 -27t-30 -84q0 -38 13.5 -58.5t39.5 -20.5q17 0 28.5 8zM103 609v94h281v-94h-281z" />
    <glyph glyph-name="Abreve" unicode="&#x102;" horiz-adv-x="552" 
d="M12 0l158 741l209 9l162 -744l-160 -6l-27 161h-179l-32 -161h-131zM202 281h125l-69 359zM170.5 853.5q-36.5 39.5 -43.5 106.5h84q1 -3 6 -20t19.5 -25.5t39.5 -8.5t37.5 7.5t16 16t10.5 30.5h84q-7 -66 -43 -106t-103 -40q-71 0 -107.5 39.5z" />
    <glyph glyph-name="abreve" unicode="&#x103;" horiz-adv-x="471" 
d="M88 9.5q-29 22.5 -45 61t-16 86.5q0 109 74.5 153.5t173.5 50.5q0 54 -7 80t-34 26q-23 0 -35 -18t-15 -46l-137 24q10 77 63 110t124 33q91 0 136.5 -48t45.5 -125v-291q0 -47 15 -100l-137 -12l-16 69q-18 -32 -53 -54t-72 -22q-36 0 -65 22.5zM246.5 95
q11.5 8 28.5 26v156q-50 0 -80 -27t-30 -84q0 -38 13.5 -58.5t39.5 -20.5q17 0 28.5 8zM138.5 665.5q-36.5 39.5 -43.5 106.5h84q1 -3 6 -20t19.5 -25.5t39.5 -8.5t37.5 7.5t16 16t10.5 30.5h84q-7 -66 -43 -106t-103 -40q-71 0 -107.5 39.5z" />
    <glyph glyph-name="Aogonek" unicode="&#x104;" horiz-adv-x="552" 
d="M573 -90q-19 -44 -57 -71t-81 -27q-28 0 -53 15t-40.5 39t-15.5 50q0 72 50 111l-22 134h-179l-32 -161h-131l158 741l209 9l162 -744l-90 -3q-30 -28 -30 -55q0 -19 11 -31t28 -12q36 0 59 43zM202 281h125l-69 359z" />
    <glyph glyph-name="aogonek" unicode="&#x105;" horiz-adv-x="471" 
d="M506 -99q-19 -44 -57 -71t-81 -27q-28 0 -53 15t-40.5 39t-15.5 50q0 57 33 95l-14 61q-18 -32 -53 -54t-72 -22q-36 0 -65 22.5t-45 61t-16 86.5q0 109 74.5 153.5t173.5 50.5q0 54 -7 80t-34 26q-23 0 -35 -18t-15 -46l-137 24q10 77 63 110t124 33q91 0 136.5 -48
t45.5 -125v-291q0 -47 15 -100l-38 -3q-19 -18 -29 -32.5t-10 -31.5q0 -19 11 -31t28 -12q36 0 59 43zM275 277q-50 0 -80 -27t-30 -84q0 -38 13.5 -58.5t39.5 -20.5q17 0 28.5 8t28.5 26v156z" />
    <glyph glyph-name="Cacute" unicode="&#x106;" horiz-adv-x="522" 
d="M92.5 103q-52.5 117 -52.5 288q0 92 24 177t77.5 140.5t135.5 55.5q63 0 110.5 -39t73 -101.5t25.5 -130.5l-142 -7q0 45 -15 102.5t-60 57.5q-47 0 -65 -75t-18 -180q0 -130 20 -208.5t77 -78.5q40 0 57 47.5t22 115.5l125 -12q0 -72 -24 -133.5t-72 -98.5t-117 -37
q-129 0 -181.5 117zM277 792l-52 50l130 197l103 -95z" />
    <glyph glyph-name="cacute" unicode="&#x107;" horiz-adv-x="445" 
d="M238 604l-52 50l130 197l103 -95zM125.5 27q-45.5 40 -68.5 106t-23 143q0 76 22.5 143t68.5 109t113 42q51 0 91.5 -25.5t63.5 -71.5t25 -105l-133 -6q0 4 -3.5 32t-15 46t-29.5 18q-40 0 -51 -54.5t-11 -122.5q0 -67 11.5 -121.5t54.5 -54.5q54 0 56 106l118 -13
q-13 -104 -52 -157.5t-128 -53.5q-64 0 -109.5 40z" />
    <glyph glyph-name="Ccircumflex" unicode="&#x108;" horiz-adv-x="522" 
d="M92.5 103q-52.5 117 -52.5 288q0 92 24 177t77.5 140.5t135.5 55.5q63 0 110.5 -39t73 -101.5t25.5 -130.5l-142 -7q0 45 -15 102.5t-60 57.5q-47 0 -65 -75t-18 -180q0 -130 20 -208.5t77 -78.5q40 0 57 47.5t22 115.5l125 -12q0 -72 -24 -133.5t-72 -98.5t-117 -37
q-129 0 -181.5 117zM97 796l117 235h98l113 -235h-122l-47 142l-57 -142h-102z" />
    <glyph glyph-name="ccircumflex" unicode="&#x109;" horiz-adv-x="445" 
d="M125.5 27q-45.5 40 -68.5 106t-23 143q0 76 22.5 143t68.5 109t113 42q51 0 91.5 -25.5t63.5 -71.5t25 -105l-133 -6q0 4 -3.5 32t-15 46t-29.5 18q-40 0 -51 -54.5t-11 -122.5q0 -67 11.5 -121.5t54.5 -54.5q54 0 56 106l118 -13q-13 -104 -52 -157.5t-128 -53.5
q-64 0 -109.5 40zM59 609l117 235h98l113 -235h-122l-47 142l-57 -142h-102z" />
    <glyph glyph-name="Cdotaccent" unicode="&#x10a;" horiz-adv-x="522" 
d="M92.5 103q-52.5 117 -52.5 288q0 92 24 177t77.5 140.5t135.5 55.5q63 0 110.5 -39t73 -101.5t25.5 -130.5l-142 -7q0 45 -15 102.5t-60 57.5q-47 0 -65 -75t-18 -180q0 -130 20 -208.5t77 -78.5q40 0 57 47.5t22 115.5l125 -12q0 -72 -24 -133.5t-72 -98.5t-117 -37
q-129 0 -181.5 117zM190 796v141h141v-141h-141z" />
    <glyph glyph-name="cdotaccent" unicode="&#x10b;" horiz-adv-x="445" 
d="M125.5 27q-45.5 40 -68.5 106t-23 143q0 76 22.5 143t68.5 109t113 42q51 0 91.5 -25.5t63.5 -71.5t25 -105l-133 -6q0 4 -3.5 32t-15 46t-29.5 18q-40 0 -51 -54.5t-11 -122.5q0 -67 11.5 -121.5t54.5 -54.5q54 0 56 106l118 -13q-13 -104 -52 -157.5t-128 -53.5
q-64 0 -109.5 40zM152 609v141h141v-141h-141z" />
    <glyph glyph-name="Ccaron" unicode="&#x10c;" horiz-adv-x="522" 
d="M92.5 103q-52.5 117 -52.5 288q0 92 24 177t77.5 140.5t135.5 55.5q63 0 110.5 -39t73 -101.5t25.5 -130.5l-142 -7q0 45 -15 102.5t-60 57.5q-47 0 -65 -75t-18 -180q0 -130 20 -208.5t77 -78.5q40 0 57 47.5t22 115.5l125 -12q0 -72 -24 -133.5t-72 -98.5t-117 -37
q-129 0 -181.5 117zM214 796l-117 235h102l57 -142l47 142h122l-113 -235h-98z" />
    <glyph glyph-name="ccaron" unicode="&#x10d;" horiz-adv-x="445" 
d="M125.5 27q-45.5 40 -68.5 106t-23 143q0 76 22.5 143t68.5 109t113 42q51 0 91.5 -25.5t63.5 -71.5t25 -105l-133 -6q0 4 -3.5 32t-15 46t-29.5 18q-40 0 -51 -54.5t-11 -122.5q0 -67 11.5 -121.5t54.5 -54.5q54 0 56 106l118 -13q-13 -104 -52 -157.5t-128 -53.5
q-64 0 -109.5 40zM176 609l-117 235h102l57 -142l47 142h122l-113 -235h-98z" />
    <glyph glyph-name="Dcaron" unicode="&#x10e;" horiz-adv-x="554" 
d="M70 750h154q148 0 221 -94t73 -284q0 -101 -27.5 -185t-87.5 -135.5t-153 -51.5h-180v750zM237 117q76 0 105.5 65.5t29.5 161.5v34q0 69 -8.5 122.5t-39 93t-91.5 39.5h-17v-516h21zM187 796l-117 235h102l57 -142l47 142h122l-113 -235h-98z" />
    <glyph glyph-name="dcaron" unicode="&#x10f;" horiz-adv-x="642" 
d="M38 281q0 105 15.5 168t49.5 92t90 29q22 0 45 -11.5t43 -29.5q20 -17 39 -41v244l141 18v-744l-107 -12l-34 76q-6 -22 -21 -42q-33 -41 -99 -41q-162 0 -162 294zM553 563q30 0 41 23q4 10 6 23l-71 -5v146h141v-141q0 -48 -16.5 -78t-42.5 -45q-26 -16 -58 -17v94z
M301 120.5q19 33.5 19 113.5v188q-14 16 -21 22q-25 23 -47 23q-33 0 -48.5 -23.5t-20 -61.5t-4.5 -101q0 -64 4.5 -104t20.5 -65t48 -25q30 0 49 33.5z" />
    <glyph glyph-name="Dcroat" unicode="&#x110;" horiz-adv-x="556" 
d="M447 656q73 -94 73 -284q0 -101 -27.5 -185t-87.5 -135.5t-154 -51.5h-179v328h-70v94h70v328h154q148 0 221 -94zM374 378q0 69 -8.5 122.5t-39 93t-91.5 39.5h-17v-211h66v-94h-66v-211h21q76 0 105.5 65.5t29.5 161.5v34z" />
    <glyph glyph-name="dcroat" unicode="&#x111;" horiz-adv-x="518" 
d="M518 595h-59v-589l-106 -12l-35 76q-10 -37 -37 -60t-83 -23q-162 0 -162 294q0 153 40 221t125 68q36 0 69 -23.5t48 -58.5v107h-111v97h111v40l141 18v-58h59v-97zM318 422q-29 45 -68 45q-33 0 -48.5 -23.5t-20 -61.5t-4.5 -101q0 -64 4.5 -104t20.5 -65t48 -25
q30 0 49 33.5t19 113.5v188z" />
    <glyph glyph-name="Emacron" unicode="&#x112;" horiz-adv-x="483" 
d="M70 0v750h381l-12 -117h-222v-179h158l-1 -126h-157v-211h242l-12 -117h-377zM101 796v94h281v-94h-281z" />
    <glyph glyph-name="emacron" unicode="&#x113;" horiz-adv-x="471" 
d="M87 66.5q-53 79.5 -53 211.5q0 134 54 213t157 79q98 0 150 -79t52 -213q0 -8 -3 -11.5t-3 -4.5h-267q0 -65 17 -118.5t52 -53.5q39 0 58 45t20 47l106 -40q-21 -72 -67 -113.5t-120 -41.5q-100 0 -153 79.5zM309 343q0 60 -16 95t-50 35q-17 0 -33 -17t-26 -47t-10 -66
h135zM95 609v94h281v-94h-281z" />
    <glyph glyph-name="Ebreve" unicode="&#x114;" horiz-adv-x="483" 
d="M70 0v750h381l-12 -117h-222v-179h158l-1 -126h-157v-211h242l-12 -117h-377zM136.5 852.5q-36.5 39.5 -43.5 106.5h84q1 -3 6 -20t19.5 -25.5t39.5 -8.5t37.5 7.5t16 16t10.5 30.5h84q-7 -66 -43 -106t-103 -40q-71 0 -107.5 39.5z" />
    <glyph glyph-name="ebreve" unicode="&#x115;" horiz-adv-x="471" 
d="M167.5 681.5q-36.5 39.5 -43.5 106.5h84q1 -3 6 -20t19.5 -25.5t39.5 -8.5t37.5 7.5t16 16t10.5 30.5h84q-7 -66 -43 -106t-103 -40q-71 0 -107.5 39.5zM87 66.5q-53 79.5 -53 211.5q0 134 54 213t157 79q98 0 150 -79t52 -213q0 -8 -3 -11.5t-3 -4.5h-267
q0 -65 17 -118.5t52 -53.5q39 0 58 45t20 47l106 -40q-21 -72 -67 -113.5t-120 -41.5q-100 0 -153 79.5zM309 343q0 60 -16 95t-50 35q-17 0 -33 -17t-26 -47t-10 -66h135z" />
    <glyph glyph-name="Edotaccent" unicode="&#x116;" horiz-adv-x="483" 
d="M70 0v750h381l-12 -117h-222v-179h158l-1 -126h-157v-211h242l-12 -117h-377zM171 796v141h141v-141h-141z" />
    <glyph glyph-name="edotaccent" unicode="&#x117;" horiz-adv-x="471" 
d="M174 630v141h141v-141h-141zM87 66.5q-53 79.5 -53 211.5q0 134 54 213t157 79q98 0 150 -79t52 -213q0 -8 -3 -11.5t-3 -4.5h-267q0 -65 17 -118.5t52 -53.5q39 0 58 45t20 47l106 -40q-21 -72 -67 -113.5t-120 -41.5q-100 0 -153 79.5zM309 343q0 60 -16 95t-50 35
q-17 0 -33 -17t-26 -47t-10 -66h135z" />
    <glyph glyph-name="Eogonek" unicode="&#x118;" horiz-adv-x="483" 
d="M465 -95q-19 -44 -57 -71t-81 -27q-28 0 -53 15t-40.5 39t-15.5 50q0 52 28 89h-176v750h381l-12 -117h-222v-179h158l-1 -126h-157v-211h242l-12 -117h-102q-15 -15 -23.5 -28.5t-8.5 -28.5q0 -19 11 -31t28 -12q36 0 59 43z" />
    <glyph glyph-name="eogonek" unicode="&#x119;" horiz-adv-x="471" 
d="M452 -90q-19 -44 -57 -71t-81 -27q-28 0 -53 15t-40.5 39t-15.5 50q0 41 17 72q-91 7 -139.5 85.5t-48.5 204.5q0 134 54 213t157 79q98 0 150 -79t52 -213q0 -8 -3 -11.5t-3 -4.5h-267q0 -65 17 -118.5t52 -53.5q39 0 58 45t20 47l106 -40q-8 -39 -29.5 -68t-52.5 -57
q-22 -20 -33.5 -35t-11.5 -34q0 -20 11.5 -31.5t32.5 -11.5q31 0 54 43zM210 456q-16 -17 -26 -47t-10 -66h135q0 60 -16 95t-50 35q-17 0 -33 -17z" />
    <glyph glyph-name="Ecaron" unicode="&#x11a;" horiz-adv-x="483" 
d="M70 0v750h381l-12 -117h-222v-179h158l-1 -126h-157v-211h242l-12 -117h-377zM195 796l-117 235h102l57 -142l47 142h122l-113 -235h-98z" />
    <glyph glyph-name="ecaron" unicode="&#x11b;" horiz-adv-x="471" 
d="M209 629l-117 235h102l57 -142l47 142h122l-113 -235h-98zM87 66.5q-53 79.5 -53 211.5q0 134 54 213t157 79q98 0 150 -79t52 -213q0 -8 -3 -11.5t-3 -4.5h-267q0 -65 17 -118.5t52 -53.5q39 0 58 45t20 47l106 -40q-21 -72 -67 -113.5t-120 -41.5q-100 0 -153 79.5z
M309 343q0 60 -16 95t-50 35q-17 0 -33 -17t-26 -47t-10 -66h135z" />
    <glyph glyph-name="Gcircumflex" unicode="&#x11c;" horiz-adv-x="553" 
d="M91.5 97q-51.5 111 -51.5 281q0 95 24.5 183t79 145.5t139.5 57.5q73 0 121.5 -35.5t72 -94t23.5 -129.5l-139 -9l-3 21q-6 59 -21 94t-56 35q-52 0 -73.5 -83.5t-21.5 -192.5q0 -77 5 -131t26 -94.5t65 -40.5q37 0 58.5 46t21.5 113h-74l12 112h203v-369l-56 -6l-34 139
q-9 -39 -22.5 -70t-46.5 -57t-90 -26q-111 0 -162.5 111zM112 796l117 235h98l113 -235h-122l-47 142l-57 -142h-102z" />
    <glyph glyph-name="gcircumflex" unicode="&#x11d;" horiz-adv-x="532" 
d="M100 611l117 235h98l113 -235h-122l-47 142l-57 -142h-102zM78 -143.5q-62 31.5 -62 86.5q0 38 28 64.5t71 42.5q-38 11 -57 28t-19 49q0 39 27 70.5t71 52.5q-90 52 -90 145q0 56 30.5 95.5t79 59.5t101.5 20q79 0 140 -42q30 27 60.5 45t76.5 18v-93q-58 0 -89 -14
q12 -31 16.5 -49t4.5 -39q0 -68 -46 -118.5t-150 -50.5l-37 1q-9 1 -22 1q-13 -4 -25 -17.5t-12 -28.5q0 -14 10 -24t25 -12l160 -18q139 -16 139 -135q0 -93 -71.5 -131t-185.5 -38q-112 0 -174 31.5zM304 330.5q17 23.5 17 66.5q0 44 -18 66t-46 22q-31 0 -49 -25t-18 -62
q0 -34 15 -62.5t51 -28.5q31 0 48 23.5zM372 -11q0 17 -9 25t-28.5 11.5t-63.5 6.5l-83 7q-18 -6 -31 -21.5t-13 -34.5q0 -27 28.5 -41.5t85.5 -14.5q114 0 114 62z" />
    <glyph glyph-name="Gbreve" unicode="&#x11e;" horiz-adv-x="553" 
d="M91.5 97q-51.5 111 -51.5 281q0 95 24.5 183t79 145.5t139.5 57.5q73 0 121.5 -35.5t72 -94t23.5 -129.5l-139 -9l-3 21q-6 59 -21 94t-56 35q-52 0 -73.5 -83.5t-21.5 -192.5q0 -77 5 -131t26 -94.5t65 -40.5q37 0 58.5 46t21.5 113h-74l12 112h203v-369l-56 -6l-34 139
q-9 -39 -22.5 -70t-46.5 -57t-90 -26q-111 0 -162.5 111zM170.5 852.5q-36.5 39.5 -43.5 106.5h84q1 -3 6 -20t19.5 -25.5t39.5 -8.5t37.5 7.5t16 16t10.5 30.5h84q-7 -66 -43 -106t-103 -40q-71 0 -107.5 39.5z" />
    <glyph glyph-name="gbreve" unicode="&#x11f;" horiz-adv-x="532" 
d="M178.5 681.5q-36.5 39.5 -43.5 106.5h84q1 -3 6 -20t19.5 -25.5t39.5 -8.5t37.5 7.5t16 16t10.5 30.5h84q-7 -66 -43 -106t-103 -40q-71 0 -107.5 39.5zM78 -143.5q-62 31.5 -62 86.5q0 38 28 64.5t71 42.5q-38 11 -57 28t-19 49q0 39 27 70.5t71 52.5q-90 52 -90 145
q0 56 30.5 95.5t79 59.5t101.5 20q79 0 140 -42q30 27 60.5 45t76.5 18v-93q-58 0 -89 -14q12 -31 16.5 -49t4.5 -39q0 -68 -46 -118.5t-150 -50.5l-37 1q-9 1 -22 1q-13 -4 -25 -17.5t-12 -28.5q0 -14 10 -24t25 -12l160 -18q139 -16 139 -135q0 -93 -71.5 -131t-185.5 -38
q-112 0 -174 31.5zM304 330.5q17 23.5 17 66.5q0 44 -18 66t-46 22q-31 0 -49 -25t-18 -62q0 -34 15 -62.5t51 -28.5q31 0 48 23.5zM372 -11q0 17 -9 25t-28.5 11.5t-63.5 6.5l-83 7q-18 -6 -31 -21.5t-13 -34.5q0 -27 28.5 -41.5t85.5 -14.5q114 0 114 62z" />
    <glyph glyph-name="Gdotaccent" unicode="&#x120;" horiz-adv-x="553" 
d="M91.5 97q-51.5 111 -51.5 281q0 95 24.5 183t79 145.5t139.5 57.5q73 0 121.5 -35.5t72 -94t23.5 -129.5l-139 -9l-3 21q-6 59 -21 94t-56 35q-52 0 -73.5 -83.5t-21.5 -192.5q0 -77 5 -131t26 -94.5t65 -40.5q37 0 58.5 46t21.5 113h-74l12 112h203v-369l-56 -6l-34 139
q-9 -39 -22.5 -70t-46.5 -57t-90 -26q-111 0 -162.5 111zM205 796v141h141v-141h-141z" />
    <glyph glyph-name="gdotaccent" unicode="&#x121;" horiz-adv-x="532" 
d="M185 630v141h141v-141h-141zM78 -143.5q-62 31.5 -62 86.5q0 38 28 64.5t71 42.5q-38 11 -57 28t-19 49q0 39 27 70.5t71 52.5q-90 52 -90 145q0 56 30.5 95.5t79 59.5t101.5 20q79 0 140 -42q30 27 60.5 45t76.5 18v-93q-58 0 -89 -14q12 -31 16.5 -49t4.5 -39
q0 -68 -46 -118.5t-150 -50.5l-37 1q-9 1 -22 1q-13 -4 -25 -17.5t-12 -28.5q0 -14 10 -24t25 -12l160 -18q139 -16 139 -135q0 -93 -71.5 -131t-185.5 -38q-112 0 -174 31.5zM304 330.5q17 23.5 17 66.5q0 44 -18 66t-46 22q-31 0 -49 -25t-18 -62q0 -34 15 -62.5t51 -28.5
q31 0 48 23.5zM372 -11q0 17 -9 25t-28.5 11.5t-63.5 6.5l-83 7q-18 -6 -31 -21.5t-13 -34.5q0 -27 28.5 -41.5t85.5 -14.5q114 0 114 62z" />
    <glyph glyph-name="Gcommaaccent" unicode="&#x122;" horiz-adv-x="553" 
d="M91.5 97q-51.5 111 -51.5 281q0 95 24.5 183t79 145.5t139.5 57.5q73 0 121.5 -35.5t72 -94t23.5 -129.5l-139 -9l-3 21q-6 59 -21 94t-56 35q-52 0 -73.5 -83.5t-21.5 -192.5q0 -77 5 -131t26 -94.5t65 -40.5q37 0 58.5 46t21.5 113h-74l12 112h203v-369l-56 -6l-34 139
q-9 -39 -22.5 -70t-46.5 -57t-90 -26q-111 0 -162.5 111zM257 -236q29 0 41 24q4 9 6 23h-71v141h141v-141q0 -48 -16.5 -78t-42.5 -45t-58 -18v94z" />
    <glyph glyph-name="gcommaaccent" unicode="&#x123;" horiz-adv-x="542" 
d="M202 797q0 70 41 104t100 37v-94q-34 0 -51.5 -13.5t-19.5 -33.5h95v-155l-165 -6v161zM78 -143.5q-62 31.5 -62 86.5q0 38 28 64.5t71 42.5q-38 11 -57 28t-19 49q0 39 27 70.5t71 52.5q-90 52 -90 145q0 56 30.5 95.5t79 59.5t101.5 20q79 0 140 -42q30 27 60.5 45
t76.5 18v-93q-58 0 -89 -14q12 -31 16.5 -49t4.5 -39q0 -68 -46 -118.5t-150 -50.5l-37 1q-9 1 -22 1q-13 -4 -25 -17.5t-12 -28.5q0 -14 10 -24t25 -12l160 -18q139 -16 139 -135q0 -93 -71.5 -131t-185.5 -38q-112 0 -174 31.5zM304 330.5q17 23.5 17 66.5q0 44 -18 66
t-46 22q-31 0 -49 -25t-18 -62q0 -34 15 -62.5t51 -28.5q31 0 48 23.5zM372 -11q0 17 -9 25t-28.5 11.5t-63.5 6.5l-83 7q-18 -6 -31 -21.5t-13 -34.5q0 -27 28.5 -41.5t85.5 -14.5q114 0 114 62z" />
    <glyph glyph-name="Hcircumflex" unicode="&#x124;" horiz-adv-x="574" 
d="M70 -6v744l147 12v-304h140v292l147 12v-744l-147 -12v318h-140v-306zM123 796l117 235h98l113 -235h-122l-47 142l-57 -142h-102z" />
    <glyph glyph-name="hcircumflex" unicode="&#x125;" horiz-adv-x="539" 
d="M61 732l140 18v-259q86 79 161 79q53 0 86.5 -38.5t33.5 -103.5v-422l-140 -12v383q0 37 -13.5 55t-35.5 18q-18 0 -38 -9t-54 -29v-406l-140 -12v738zM-35 796l117 235h98l113 -235h-122l-47 142l-57 -142h-102z" />
    <glyph glyph-name="Hbar" unicode="&#x126;" horiz-adv-x="576" 
d="M71 -6v573h-58v89h58v82l146 12v-94h141v82l146 12v-94h52v-89h-52v-561l-146 -12v318h-141v-306zM217 446h141v121h-141v-121z" />
    <glyph glyph-name="hbar" unicode="&#x127;" horiz-adv-x="539" 
d="M448.5 531.5q33.5 -38.5 33.5 -103.5v-422l-140 -12v383q0 37 -13.5 55t-35.5 18q-18 0 -38 -9t-54 -29v-406l-140 -12v589h-77v94h77v55l140 18v-73h111v-94h-111v-92q86 79 161 79q53 0 86.5 -38.5z" />
    <glyph glyph-name="Itilde" unicode="&#x128;" horiz-adv-x="287" 
d="M70 -6v744l147 12v-744zM179 826q-13 6 -34 18q-19 13 -33 19t-31 6q-41 0 -85 -49l-7 90q25 27 48 43t50 16q14 0 26.5 -4.5t33.5 -14.5q19 -10 32.5 -15t28.5 -5q22 0 41.5 12t28.5 27l22 -79q0 -3 -13 -21t-33.5 -33.5t-45.5 -15.5q-16 0 -29 6z" />
    <glyph glyph-name="itilde" unicode="&#x129;" horiz-adv-x="262" 
d="M61 -6v557l140 12v-557zM166 607q-13 6 -34 18q-19 13 -33 19t-31 6q-41 0 -85 -49l-7 90q25 27 48 43t50 16q14 0 26.5 -4.5t33.5 -14.5q19 -10 32.5 -15t28.5 -5q22 0 41.5 12t28.5 27l22 -79q0 -3 -13 -21t-33.5 -33.5t-45.5 -15.5q-16 0 -29 6z" />
    <glyph glyph-name="Imacron" unicode="&#x12a;" horiz-adv-x="287" 
d="M70 -6v744l147 12v-744zM3 796v94h281v-94h-281z" />
    <glyph glyph-name="imacron" unicode="&#x12b;" horiz-adv-x="262" 
d="M61 -6v557l140 12v-557zM-10 609v94h281v-94h-281z" />
    <glyph glyph-name="Ibreve" unicode="&#x12c;" horiz-adv-x="287" 
d="M70 -6v744l147 12v-744zM38.5 852.5q-36.5 39.5 -43.5 106.5h84q1 -3 6 -20t19.5 -25.5t39.5 -8.5t37.5 7.5t16 16t10.5 30.5h84q-7 -66 -43 -106t-103 -40q-71 0 -107.5 39.5z" />
    <glyph glyph-name="ibreve" unicode="&#x12d;" horiz-adv-x="262" 
d="M61 -6v557l140 12v-557zM25.5 665.5q-36.5 39.5 -43.5 106.5h84q1 -3 6 -20t19.5 -25.5t39.5 -8.5t37.5 7.5t16 16t10.5 30.5h84q-7 -66 -43 -106t-103 -40q-71 0 -107.5 39.5z" />
    <glyph glyph-name="Iogonek" unicode="&#x12e;" horiz-adv-x="287" 
d="M298 -90q-19 -44 -57 -71t-81 -27q-28 0 -53 15t-40.5 39t-15.5 50q0 46 20 78h-1v744l147 12v-744l-41 -3q-30 -28 -30 -55q0 -19 11 -31t28 -12q36 0 59 43z" />
    <glyph glyph-name="iogonek" unicode="&#x12f;" horiz-adv-x="263" 
d="M62 635v145l140 10v-149zM61 -6v557l140 12v-557zM146.5 -18q-11.5 -15 -11.5 -34t11 -31t28 -12q36 0 59 43l54 -38q-19 -44 -57 -71t-81 -27q-28 0 -53 15t-40.5 39t-15.5 50q0 74 55 115l85 -14q-22 -20 -33.5 -35z" />
    <glyph glyph-name="Idotaccent" unicode="&#x130;" horiz-adv-x="287" 
d="M70 -6v744l147 12v-744zM73 796v141h141v-141h-141z" />
    <glyph glyph-name="dotlessi" unicode="&#x131;" horiz-adv-x="262" 
d="M61 -6v557l140 12v-557z" />
    <glyph glyph-name="IJ" unicode="&#x132;" horiz-adv-x="620" 
d="M70 -6v744l147 12v-744zM314 1v99q21 -7 39 -7q36 0 45.5 27t9.5 80v538l146 12v-562q0 -97 -33.5 -149.5t-112.5 -52.5q-40 0 -94 15z" />
    <glyph glyph-name="ij" unicode="&#x133;" horiz-adv-x="528" 
d="M62 635v145l140 10v-149zM61 -6v557l140 12v-557zM329 635v145l141 10v-149zM251 -131v84q36 0 52.5 7t21 21.5t4.5 44.5v525l141 12v-537q0 -66 -6 -98t-32.5 -50.5t-86.5 -18.5q-41 0 -94 10z" />
    <glyph glyph-name="Jcircumflex" unicode="&#x134;" horiz-adv-x="333" 
d="M27 1v99q21 -7 39 -7q36 0 45.5 27t9.5 80v538l146 12v-562q0 -97 -33.5 -149.5t-112.5 -52.5q-40 0 -94 15zM34 796l117 235h98l113 -235h-122l-47 142l-57 -142h-102z" />
    <glyph glyph-name="jcircumflex" unicode="&#x135;" horiz-adv-x="262" 
d="M-30 610l117 235h98l113 -235h-122l-47 142l-57 -142h-102zM-17 -131v84q36 0 52.5 7t21 21.5t4.5 44.5v525l140 12v-537q0 -66 -6 -98t-32.5 -50.5t-85.5 -18.5q-41 0 -94 10z" />
    <glyph glyph-name="Kcommaaccent" unicode="&#x136;" horiz-adv-x="563" 
d="M404 -13l-130 349l-57 -99v-237h-147v738l147 12v-328l178 328h156l-161 -310l163 -419zM256 -236q29 0 41 24q4 9 6 23h-71v141h141v-141q0 -48 -16.5 -78t-42.5 -45t-58 -18v94z" />
    <glyph glyph-name="kcommaaccent" unicode="&#x137;" horiz-adv-x="500" 
d="M361 -13l-114 280l-46 -61v-206h-140v732l140 18v-372l143 185h152l-158 -203l147 -331zM203 -219q24 0 35 13.5t12 33.5h-70v140h140v-140q0 -69 -33.5 -103.5t-83.5 -37.5v94z" />
    <glyph glyph-name="kgreenlandic" unicode="&#x138;" horiz-adv-x="500" 
d="M361 -13l-114 280l-46 -61v-206h-140v551l140 12v-185l143 185h152l-158 -203l147 -331z" />
    <glyph glyph-name="Lacute" unicode="&#x139;" horiz-adv-x="469" 
d="M70 0v738l146 12v-633h246l-15 -117h-377zM140 792l-52 50l130 197l103 -95z" />
    <glyph glyph-name="lacute" unicode="&#x13a;" horiz-adv-x="263" 
d="M62 -6v738l140 18v-744zM147 796l-52 50l130 197l103 -95z" />
    <glyph glyph-name="Lcommaaccent" unicode="&#x13b;" horiz-adv-x="469" 
d="M70 0v738l146 12v-633h246l-15 -117h-377zM223 -236q29 0 41 24q4 9 6 23h-71v141h141v-141q0 -48 -16.5 -78t-42.5 -45t-58 -18v94z" />
    <glyph glyph-name="lcommaaccent" unicode="&#x13c;" horiz-adv-x="263" 
d="M62 -6v738l140 18v-744zM76 -236q29 0 41 24q4 9 6 23h-71v141h141v-141q0 -48 -16.5 -78t-42.5 -45t-58 -18v94z" />
    <glyph glyph-name="Lcaron" unicode="&#x13d;" horiz-adv-x="469" 
d="M70 0v738l146 12v-633h246l-15 -117h-377zM223 -236q29 0 41 24q4 9 6 23h-71v141h141v-141q0 -48 -16.5 -78t-42.5 -45t-58 -18v94z" />
    <glyph glyph-name="lcaron" unicode="&#x13e;" horiz-adv-x="263" 
d="M62 -6v738l140 18v-744zM76 -236q29 0 41 24q4 9 6 23h-71v141h141v-141q0 -48 -16.5 -78t-42.5 -45t-58 -18v94z" />
    <glyph glyph-name="Ldot" unicode="&#x13f;" horiz-adv-x="469" 
d="M70 0v738l146 12v-633h246l-15 -117h-377zM295 303v141h140v-141h-140z" />
    <glyph glyph-name="ldot" unicode="&#x140;" horiz-adv-x="263" 
d="M62 732l140 18v-744l-140 -12v215h-1v141h1v382z" />
    <glyph glyph-name="Lslash" unicode="&#x141;" horiz-adv-x="481" 
d="M76 0v339l-77 -11v116l77 11v283l146 12v-274l105 15v-116l-105 -15v-243h254l-23 -117h-377z" />
    <glyph glyph-name="lslash" unicode="&#x142;" horiz-adv-x="285" 
d="M281 469v-116l-64 -16v-331l-141 -12v306l-76 -19v116l76 19v316l141 18v-297z" />
    <glyph glyph-name="Nacute" unicode="&#x143;" horiz-adv-x="611" 
d="M420 -6l-219 469v-457l-131 -6v744l153 6l194 -446v434l124 12v-744zM322 792l-52 50l130 197l103 -95z" />
    <glyph glyph-name="nacute" unicode="&#x144;" horiz-adv-x="539" 
d="M61 551l140 12v-72q43 38 84.5 58.5t76.5 20.5q53 0 86.5 -38.5t33.5 -103.5v-422l-140 -12v381q0 75 -51 75q-17 0 -37.5 -10t-52.5 -29v-405l-140 -12v557zM286 605l-52 50l130 197l103 -95z" />
    <glyph glyph-name="Ncommaaccent" unicode="&#x145;" horiz-adv-x="611" 
d="M420 -6l-219 469v-457l-131 -6v744l153 6l194 -446v434l124 12v-744zM274 -236q29 0 41 24q4 9 6 23h-71v141h141v-141q0 -48 -16.5 -78t-42.5 -45t-58 -18v94z" />
    <glyph glyph-name="ncommaaccent" unicode="&#x146;" horiz-adv-x="539" 
d="M61 551l140 12v-72q43 38 84.5 58.5t76.5 20.5q53 0 86.5 -38.5t33.5 -103.5v-422l-140 -12v381q0 75 -51 75q-17 0 -37.5 -10t-52.5 -29v-405l-140 -12v557zM216 -236q29 0 41 24q4 9 6 23h-71v141h141v-141q0 -48 -16.5 -78t-42.5 -45t-58 -18v94z" />
    <glyph glyph-name="Ncaron" unicode="&#x147;" horiz-adv-x="611" 
d="M420 -6l-219 469v-457l-131 -6v744l153 6l194 -446v434l124 12v-744zM259 796l-117 235h102l57 -142l47 142h122l-113 -235h-98z" />
    <glyph glyph-name="ncaron" unicode="&#x148;" horiz-adv-x="539" 
d="M61 551l140 12v-72q43 38 84.5 58.5t76.5 20.5q53 0 86.5 -38.5t33.5 -103.5v-422l-140 -12v381q0 75 -51 75q-17 0 -37.5 -10t-52.5 -29v-405l-140 -12v557zM223 609l-117 235h102l57 -142l47 142h122l-113 -235h-98z" />
    <glyph glyph-name="napostrophe" unicode="&#x149;" horiz-adv-x="654" 
d="M13 562q16 0 25 6.5t16 17.5q4 6 6 23h-70v141h140v-141q0 -48 -16.5 -78t-41.5 -45t-59 -18v94zM176 551l140 12v-72q43 38 84.5 58.5t76.5 20.5q53 0 86.5 -38.5t33.5 -103.5v-422l-140 -12v381q0 75 -51 75q-17 0 -37.5 -10t-52.5 -29v-405l-140 -12v557z" />
    <glyph glyph-name="Eng" unicode="&#x14a;" horiz-adv-x="608" 
d="M307 -140v99q21 -7 39 -7q32 0 47 14.5t18.5 36t3.5 56.5v11l-215 417v-481l-131 -6v744l153 6l193 -397v385l124 12v-704q0 -96 -32.5 -148.5t-106.5 -52.5q-39 0 -93 15z" />
    <glyph glyph-name="eng" unicode="&#x14b;" horiz-adv-x="540" 
d="M264 -131v84q36 0 52.5 7t21 21.5t4.5 44.5v349q0 75 -51 75q-17 0 -37.5 -10t-52.5 -29v-405l-140 -12v557l140 12v-72q43 38 84.5 58.5t76.5 20.5q53 0 86.5 -38.5t33.5 -103.5v-402q0 -66 -6 -98t-32.5 -50.5t-85.5 -18.5q-41 0 -94 10z" />
    <glyph glyph-name="Omacron" unicode="&#x14c;" horiz-adv-x="549" 
d="M93.5 95.5q-51.5 109.5 -51.5 283.5q0 185 55 285t177 100q233 0 233 -381q0 -171 -52.5 -284t-182.5 -113q-127 0 -178.5 109.5zM344 173.5q17 69.5 17 210.5q0 113 -16.5 187.5t-70.5 74.5t-70 -74t-16 -187q0 -142 16.5 -211.5t69.5 -69.5t70 69.5zM134 796v94h281
v-94h-281z" />
    <glyph glyph-name="omacron" unicode="&#x14d;" horiz-adv-x="490" 
d="M118 633v94h281v-94h-281zM88.5 67q-54.5 80 -54.5 213q0 132 54 211t156 79q101 0 156.5 -79t55.5 -211t-55.5 -212.5t-156.5 -80.5t-155.5 80zM302 146q13 55 13 135t-13 135t-58 55t-57 -52t-12 -127q0 -92 12 -146.5t57 -54.5t58 55z" />
    <glyph glyph-name="Obreve" unicode="&#x14e;" horiz-adv-x="549" 
d="M93.5 95.5q-51.5 109.5 -51.5 283.5q0 185 55 285t177 100q233 0 233 -381q0 -171 -52.5 -284t-182.5 -113q-127 0 -178.5 109.5zM344 173.5q17 69.5 17 210.5q0 113 -16.5 187.5t-70.5 74.5t-70 -74t-16 -187q0 -142 16.5 -211.5t69.5 -69.5t70 69.5zM169.5 852.5
q-36.5 39.5 -43.5 106.5h84q1 -3 6 -20t19.5 -25.5t39.5 -8.5t37.5 7.5t16 16t10.5 30.5h84q-7 -66 -43 -106t-103 -40q-71 0 -107.5 39.5z" />
    <glyph glyph-name="obreve" unicode="&#x14f;" horiz-adv-x="490" 
d="M88.5 67q-54.5 80 -54.5 213q0 132 54 211t156 79q101 0 156.5 -79t55.5 -211t-55.5 -212.5t-156.5 -80.5t-155.5 80zM302 146q13 55 13 135t-13 135t-58 55t-57 -52t-12 -127q0 -92 12 -146.5t57 -54.5t58 55zM139.5 665.5q-36.5 39.5 -43.5 106.5h84q1 -3 6 -20
t19.5 -25.5t39.5 -8.5t37.5 7.5t16 16t10.5 30.5h84q-7 -66 -43 -106t-103 -40q-71 0 -107.5 39.5z" />
    <glyph glyph-name="Ohungarumlaut" unicode="&#x150;" horiz-adv-x="549" 
d="M93.5 95.5q-51.5 109.5 -51.5 283.5q0 185 55 285t177 100q233 0 233 -381q0 -171 -52.5 -284t-182.5 -113q-127 0 -178.5 109.5zM344 173.5q17 69.5 17 210.5q0 113 -16.5 187.5t-70.5 74.5t-70 -74t-16 -187q0 -142 16.5 -211.5t69.5 -69.5t70 69.5zM170 807l-58 47
l131 235l114 -95zM415 807l-58 47l132 235l114 -95z" />
    <glyph glyph-name="ohungarumlaut" unicode="&#x151;" horiz-adv-x="490" 
d="M150 620l-58 47l131 235l114 -95zM395 620l-58 47l132 235l114 -95zM88.5 67q-54.5 80 -54.5 213q0 132 54 211t156 79q101 0 156.5 -79t55.5 -211t-55.5 -212.5t-156.5 -80.5t-155.5 80zM302 146q13 55 13 135t-13 135t-58 55t-57 -52t-12 -127q0 -92 12 -146.5
t57 -54.5t58 55z" />
    <glyph glyph-name="OE" unicode="&#x152;" horiz-adv-x="790" 
d="M92 99.5q-50 112.5 -50 296.5q0 167 57.5 263t174.5 96q63 0 101 -60v55h378v-117h-232v-179h146v-126h-146v-211h240v-117h-386v47q-38 -60 -101 -60q-132 0 -182 112.5zM353 166q22 55 22 167v99q0 83 -23 144.5t-78 61.5q-53 0 -69.5 -71.5t-16.5 -170.5
q0 -101 5.5 -160t24.5 -92t56 -33q57 0 79 55z" />
    <glyph glyph-name="oe" unicode="&#x153;" horiz-adv-x="751" 
d="M88.5 67.5q-54.5 80.5 -54.5 212.5q0 131 54 210.5t151 79.5q93 0 148 -83q29 44 62.5 63.5t79.5 19.5q117 0 156 -92t39 -184v-32h-269q0 -64 17 -118t51 -54q39 0 58.5 44.5t20.5 47.5l106 -40q-20 -71 -66.5 -113t-118.5 -42q-45 0 -77 18.5t-60 58.5
q-54 -77 -145 -77q-98 0 -152.5 80.5zM589 343q0 58 -15.5 94t-45.5 36q-32 0 -52.5 -38t-20.5 -92h134zM302 146q13 55 13 135t-13 135t-58 55q-43 0 -56.5 -53.5t-13.5 -135.5q0 -86 13.5 -138.5t56.5 -52.5q45 0 58 55z" />
    <glyph glyph-name="Racute" unicode="&#x154;" horiz-adv-x="565" 
d="M273 329h-57v-323l-146 -12v750l178 6q129 0 202 -51.5t73 -157.5q0 -70 -27.5 -115t-79.5 -75l67 -163l68 -162l-144 -39zM266 437q52 0 81.5 21.5t29.5 81.5q0 93 -92 93h-69v-196h50zM299 792l-52 50l130 197l103 -95z" />
    <glyph glyph-name="racute" unicode="&#x155;" horiz-adv-x="404" 
d="M61 551l140 12v-91q30 43 74.5 69.5t113.5 26.5v-137q-36 0 -94.5 -12.5t-93.5 -43.5v-369l-140 -12v557zM218 605l-52 50l130 197l103 -95z" />
    <glyph glyph-name="Rcommaaccent" unicode="&#x156;" horiz-adv-x="565" 
d="M273 329h-57v-323l-146 -12v750l178 6q129 0 202 -51.5t73 -157.5q0 -70 -27.5 -115t-79.5 -75l67 -163l68 -162l-144 -39zM266 437q52 0 81.5 21.5t29.5 81.5q0 93 -92 93h-69v-196h50zM245 -236q29 0 41 24q4 9 6 23h-71v141h141v-141q0 -48 -16.5 -78t-42.5 -45
t-58 -18v94z" />
    <glyph glyph-name="rcommaaccent" unicode="&#x157;" horiz-adv-x="404" 
d="M61 551l140 12v-91q30 43 74.5 69.5t113.5 26.5v-137q-36 0 -94.5 -12.5t-93.5 -43.5v-369l-140 -12v557zM81 -238q29 0 41 24q4 9 6 23h-71v141h141v-141q0 -48 -16.5 -78t-42.5 -45t-58 -18v94z" />
    <glyph glyph-name="Rcaron" unicode="&#x158;" horiz-adv-x="565" 
d="M273 329h-57v-323l-146 -12v750l178 6q129 0 202 -51.5t73 -157.5q0 -70 -27.5 -115t-79.5 -75l67 -163l68 -162l-144 -39zM266 437q52 0 81.5 21.5t29.5 81.5q0 93 -92 93h-69v-196h50zM236 796l-117 235h102l57 -142l47 142h122l-113 -235h-98z" />
    <glyph glyph-name="rcaron" unicode="&#x159;" horiz-adv-x="404" 
d="M61 551l140 12v-91q30 43 74.5 69.5t113.5 26.5v-137q-36 0 -94.5 -12.5t-93.5 -43.5v-369l-140 -12v557zM155 609l-117 235h102l57 -142l47 142h122l-113 -235h-98z" />
    <glyph glyph-name="Sacute" unicode="&#x15a;" horiz-adv-x="533" 
d="M114.5 36.5q-62.5 50.5 -91.5 135.5l124 58l12 -20q29 -50 55.5 -78t66.5 -28q26 0 46.5 25t20.5 55q0 28 -14 51t-36 37l-131 78q-57 32 -91 81t-34 110q0 65 30.5 116t83 79t118.5 28q77 0 131 -38t80 -113l-124 -56q-4 8 -17 36t-31.5 40.5t-45.5 12.5
q-33 0 -50.5 -21t-17.5 -54q0 -24 13.5 -43.5t32.5 -30.5l121 -71q134 -76 141 -200q0 -71 -31.5 -125.5t-86 -84.5t-121.5 -30q-91 0 -153.5 50.5zM283 792l-52 50l130 197l103 -95z" />
    <glyph glyph-name="sacute" unicode="&#x15b;" horiz-adv-x="451" 
d="M95 24.5q-51 37.5 -66 104.5l109 36q4 -19 15 -34q23 -33 67 -33q25 0 48 11t23 34q0 31 -43 48l-118 48q-47 20 -72 60t-25 98q0 54 26.5 93t70 59.5t93.5 20.5q63 0 116 -36.5t71 -99.5l-116 -36q-4 17 -14 34q-22 34 -56 34q-25 0 -43 -11.5t-18 -33.5q0 -26 49 -48
l100 -41q53 -25 83 -63t30 -102q0 -58 -28 -98.5t-73 -61t-95 -20.5q-83 0 -134 37.5zM242 605l-52 50l130 197l103 -95z" />
    <glyph glyph-name="Scircumflex" unicode="&#x15c;" horiz-adv-x="533" 
d="M114.5 36.5q-62.5 50.5 -91.5 135.5l124 58l12 -20q29 -50 55.5 -78t66.5 -28q26 0 46.5 25t20.5 55q0 28 -14 51t-36 37l-131 78q-57 32 -91 81t-34 110q0 65 30.5 116t83 79t118.5 28q77 0 131 -38t80 -113l-124 -56q-4 8 -17 36t-31.5 40.5t-45.5 12.5
q-33 0 -50.5 -21t-17.5 -54q0 -24 13.5 -43.5t32.5 -30.5l121 -71q134 -76 141 -200q0 -71 -31.5 -125.5t-86 -84.5t-121.5 -30q-91 0 -153.5 50.5zM103 796l117 235h98l113 -235h-122l-47 142l-57 -142h-102z" />
    <glyph glyph-name="scircumflex" unicode="&#x15d;" horiz-adv-x="451" 
d="M95 24.5q-51 37.5 -66 104.5l109 36q4 -19 15 -34q23 -33 67 -33q25 0 48 11t23 34q0 31 -43 48l-118 48q-47 20 -72 60t-25 98q0 54 26.5 93t70 59.5t93.5 20.5q63 0 116 -36.5t71 -99.5l-116 -36q-4 17 -14 34q-22 34 -56 34q-25 0 -43 -11.5t-18 -33.5q0 -26 49 -48
l100 -41q53 -25 83 -63t30 -102q0 -58 -28 -98.5t-73 -61t-95 -20.5q-83 0 -134 37.5zM62 609l117 235h98l113 -235h-122l-47 142l-57 -142h-102z" />
    <glyph glyph-name="Scedilla" unicode="&#x15e;" horiz-adv-x="533" 
d="M480 108q-27 -52 -75 -83t-108 -38l-6 -24q71 -20 93 -59.5t22 -68.5q0 -55 -30 -80.5t-76 -25.5q-31 0 -61.5 8.5t-50.5 22.5v80q38 -17 70 -17q24 0 35.5 10t11.5 26q0 22 -24 40t-69 18l13 72q-74 12 -125 60.5t-77 122.5l124 58l12 -20q29 -50 55.5 -78t66.5 -28
q26 0 46.5 25t20.5 55q0 28 -14 51t-36 37l-131 78q-57 32 -91 81t-34 110q0 65 30.5 116t83 79t118.5 28q77 0 131 -38t80 -113l-124 -56q-4 8 -17 36t-31.5 40.5t-45.5 12.5q-33 0 -50.5 -21t-17.5 -54q0 -24 13.5 -43.5t32.5 -30.5l121 -71q134 -76 141 -200
q0 -66 -27 -118z" />
    <glyph glyph-name="scedilla" unicode="&#x15f;" horiz-adv-x="451" 
d="M376 43q-49 -46 -120 -54l-6 -26q71 -20 93 -59.5t22 -68.5q0 -55 -30 -80.5t-76 -25.5q-31 0 -61.5 8.5t-50.5 22.5v80q38 -17 70 -17q24 0 35.5 10t11.5 26q0 22 -24 40t-69 18l13 73q-64 10 -103 45.5t-52 93.5l109 36q4 -19 15 -34q23 -33 67 -33q25 0 48 11t23 34
q0 31 -43 48l-118 48q-47 20 -72 60t-25 98q0 54 26.5 93t70 59.5t93.5 20.5q63 0 116 -36.5t71 -99.5l-116 -36q-4 17 -14 34q-22 34 -56 34q-25 0 -43 -11.5t-18 -33.5q0 -26 49 -48l100 -41q53 -25 83 -63t30 -102q0 -78 -49 -124z" />
    <glyph glyph-name="Scaron" unicode="&#x160;" horiz-adv-x="533" 
d="M114.5 36.5q-62.5 50.5 -91.5 135.5l124 58l12 -20q29 -50 55.5 -78t66.5 -28q26 0 46.5 25t20.5 55q0 28 -14 51t-36 37l-131 78q-57 32 -91 81t-34 110q0 65 30.5 116t83 79t118.5 28q77 0 131 -38t80 -113l-124 -56q-4 8 -17 36t-31.5 40.5t-45.5 12.5
q-33 0 -50.5 -21t-17.5 -54q0 -24 13.5 -43.5t32.5 -30.5l121 -71q134 -76 141 -200q0 -71 -31.5 -125.5t-86 -84.5t-121.5 -30q-91 0 -153.5 50.5zM220 796l-117 235h102l57 -142l47 142h122l-113 -235h-98z" />
    <glyph glyph-name="scaron" unicode="&#x161;" horiz-adv-x="451" 
d="M95 24.5q-51 37.5 -66 104.5l109 36q4 -19 15 -34q23 -33 67 -33q25 0 48 11t23 34q0 31 -43 48l-118 48q-47 20 -72 60t-25 98q0 54 26.5 93t70 59.5t93.5 20.5q63 0 116 -36.5t71 -99.5l-116 -36q-4 17 -14 34q-22 34 -56 34q-25 0 -43 -11.5t-18 -33.5q0 -26 49 -48
l100 -41q53 -25 83 -63t30 -102q0 -58 -28 -98.5t-73 -61t-95 -20.5q-83 0 -134 37.5zM179 609l-117 235h102l57 -142l47 142h122l-113 -235h-98z" />
    <glyph glyph-name="uni0162" unicode="&#x162;" horiz-adv-x="477" 
d="M272 3l-9 -40q71 -20 93 -59.5t22 -68.5q0 -55 -30 -80.5t-76 -25.5q-31 0 -61.5 8.5t-50.5 22.5v80q38 -17 70 -17q24 0 35.5 10t11.5 26q0 22 -24 40t-69 18l14 80l-31 -3v639h-153l11 117h440l-12 -117h-140v-627z" />
    <glyph glyph-name="uni0163" unicode="&#x163;" horiz-adv-x="360" 
d="M356 -96.5q22 -39.5 22 -68.5q0 -55 -30 -80.5t-76 -25.5q-31 0 -61.5 8.5t-50.5 22.5v80q38 -17 70 -17q24 0 35.5 10t11.5 26q0 22 -24 40t-69 18l14 78q-48 11 -77.5 47t-29.5 104v311h-78l6 106h76l14 122l122 17v-139h116l-6 -106h-109v-310q0 -30 15 -43t44 -13
q16 0 54 6v-97q-46 -9 -76 -11l-6 -26q71 -20 93 -59.5z" />
    <glyph glyph-name="Tcaron" unicode="&#x164;" horiz-adv-x="477" 
d="M167 -6v639h-153l11 117h440l-12 -117h-140v-627zM192 796l-117 235h102l57 -142l47 142h122l-113 -235h-98z" />
    <glyph glyph-name="tcaron" unicode="&#x165;" horiz-adv-x="360" 
d="M138 23.5q-47 34.5 -47 122.5v311h-78l6 106h76l14 122l122 17v-139h116l-6 -106h-109v-310q0 -30 15 -43t44 -13q16 0 54 6v-97q-4 -1 -31.5 -6t-60.5 -5q-68 0 -115 34.5zM175 -236q29 0 41 24q4 9 6 23h-71v141h141v-141q0 -48 -16.5 -78t-42.5 -45t-58 -18v94z" />
    <glyph glyph-name="Tbar" unicode="&#x166;" horiz-adv-x="477" 
d="M453 633h-140v-240h63v-94h-63v-293l-146 -12v305h-72v94h72v240h-153l11 117h440z" />
    <glyph glyph-name="tbar" unicode="&#x167;" horiz-adv-x="358" 
d="M247 104q15 -13 44 -13q16 0 54 6v-97q-4 -1 -31.5 -6t-60.5 -5q-68 0 -115 34.5t-47 122.5v136h-63v93h63v82h-78l6 106h76l14 122l122 17v-139h116l-6 -106h-109v-82h78v-93h-78v-135q0 -30 15 -43z" />
    <glyph glyph-name="Utilde" unicode="&#x168;" horiz-adv-x="568" 
d="M120 58q-56 72 -56 189v497l147 6v-515q0 -39 4.5 -66t22.5 -46t55 -19q35 0 51.5 19.5t20.5 46t4 67.5v501l134 12v-486q0 -106 -41.5 -192t-173.5 -86q-112 0 -168 72zM319 826q-13 6 -34 18q-19 13 -33 19t-31 6q-41 0 -85 -49l-7 90q25 27 48 43t50 16
q14 0 26.5 -4.5t33.5 -14.5q19 -10 32.5 -15t28.5 -5q22 0 41.5 12t28.5 27l22 -79q0 -3 -13 -21t-33.5 -33.5t-45.5 -15.5q-16 0 -29 6z" />
    <glyph glyph-name="utilde" unicode="&#x169;" horiz-adv-x="539" 
d="M92 25.5q-35 38.5 -35 103.5v422l140 12v-377q0 -40 13 -57.5t40 -17.5q21 0 45 10.5t43 33.5v396l141 12v-557l-141 -12v72q-35 -40 -76.5 -59.5t-79.5 -19.5q-55 0 -90 38.5zM305 607q-13 6 -34 18q-19 13 -33 19t-31 6q-41 0 -85 -49l-7 90q25 27 48 43t50 16
q14 0 26.5 -4.5t33.5 -14.5q19 -10 32.5 -15t28.5 -5q22 0 41.5 12t28.5 27l22 -79q0 -3 -13 -21t-33.5 -33.5t-45.5 -15.5q-16 0 -29 6z" />
    <glyph glyph-name="Umacron" unicode="&#x16a;" horiz-adv-x="568" 
d="M120 58q-56 72 -56 189v497l147 6v-515q0 -39 4.5 -66t22.5 -46t55 -19q35 0 51.5 19.5t20.5 46t4 67.5v501l134 12v-486q0 -106 -41.5 -192t-173.5 -86q-112 0 -168 72zM143 796v94h281v-94h-281z" />
    <glyph glyph-name="umacron" unicode="&#x16b;" horiz-adv-x="539" 
d="M92 25.5q-35 38.5 -35 103.5v422l140 12v-377q0 -40 13 -57.5t40 -17.5q21 0 45 10.5t43 33.5v396l141 12v-557l-141 -12v72q-35 -40 -76.5 -59.5t-79.5 -19.5q-55 0 -90 38.5zM129 609v94h281v-94h-281z" />
    <glyph glyph-name="Ubreve" unicode="&#x16c;" horiz-adv-x="568" 
d="M120 58q-56 72 -56 189v497l147 6v-515q0 -39 4.5 -66t22.5 -46t55 -19q35 0 51.5 19.5t20.5 46t4 67.5v501l134 12v-486q0 -106 -41.5 -192t-173.5 -86q-112 0 -168 72zM178.5 852.5q-36.5 39.5 -43.5 106.5h84q1 -3 6 -20t19.5 -25.5t39.5 -8.5t37.5 7.5t16 16
t10.5 30.5h84q-7 -66 -43 -106t-103 -40q-71 0 -107.5 39.5z" />
    <glyph glyph-name="ubreve" unicode="&#x16d;" horiz-adv-x="539" 
d="M92 25.5q-35 38.5 -35 103.5v422l140 12v-377q0 -40 13 -57.5t40 -17.5q21 0 45 10.5t43 33.5v396l141 12v-557l-141 -12v72q-35 -40 -76.5 -59.5t-79.5 -19.5q-55 0 -90 38.5zM164.5 665.5q-36.5 39.5 -43.5 106.5h84q1 -3 6 -20t19.5 -25.5t39.5 -8.5t37.5 7.5t16 16
t10.5 30.5h84q-7 -66 -43 -106t-103 -40q-71 0 -107.5 39.5z" />
    <glyph glyph-name="Uring" unicode="&#x16e;" horiz-adv-x="568" 
d="M120 58q-56 72 -56 189v497l147 6v-515q0 -39 4.5 -66t22.5 -46t55 -19q35 0 51.5 19.5t20.5 46t4 67.5v501l134 12v-486q0 -106 -41.5 -192t-173.5 -86q-112 0 -168 72zM176.5 831q-45.5 35 -45.5 98t45 98t108 35q62 0 107 -34.5t45 -98.5q0 -42 -21.5 -72.5
t-56.5 -45.5t-74 -15q-62 0 -107.5 35zM325.5 888.5q18.5 14.5 18.5 40.5q0 25 -18.5 39.5t-42.5 14.5t-42 -14.5t-18 -39.5t18 -40t42 -15t42.5 14.5z" />
    <glyph glyph-name="uring" unicode="&#x16f;" horiz-adv-x="539" 
d="M92 25.5q-35 38.5 -35 103.5v422l140 12v-377q0 -40 13 -57.5t40 -17.5q21 0 45 10.5t43 33.5v396l141 12v-557l-141 -12v72q-35 -40 -76.5 -59.5t-79.5 -19.5q-55 0 -90 38.5zM162.5 644q-45.5 35 -45.5 98t45 98t108 35q62 0 107 -34.5t45 -98.5q0 -42 -21.5 -72.5
t-56.5 -45.5t-74 -15q-62 0 -107.5 35zM311.5 701.5q18.5 14.5 18.5 40.5q0 25 -18.5 39.5t-42.5 14.5t-42 -14.5t-18 -39.5t18 -40t42 -15t42.5 14.5z" />
    <glyph glyph-name="Uhungarumlaut" unicode="&#x170;" horiz-adv-x="568" 
d="M120 58q-56 72 -56 189v497l147 6v-515q0 -39 4.5 -66t22.5 -46t55 -19q35 0 51.5 19.5t20.5 46t4 67.5v501l134 12v-486q0 -106 -41.5 -192t-173.5 -86q-112 0 -168 72zM190 807l-58 47l131 235l114 -95zM435 807l-58 47l132 235l114 -95z" />
    <glyph glyph-name="uhungarumlaut" unicode="&#x171;" horiz-adv-x="539" 
d="M92 25.5q-35 38.5 -35 103.5v422l140 12v-377q0 -40 13 -57.5t40 -17.5q21 0 45 10.5t43 33.5v396l141 12v-557l-141 -12v72q-35 -40 -76.5 -59.5t-79.5 -19.5q-55 0 -90 38.5zM173 620l-58 47l131 235l114 -95zM418 620l-58 47l132 235l114 -95z" />
    <glyph glyph-name="Uogonek" unicode="&#x172;" horiz-adv-x="568" 
d="M323 -12q-16 -21 -16 -40t11 -31t28 -12q36 0 59 43l54 -38q-19 -44 -57 -71t-81 -27q-28 0 -53 15t-40.5 39t-15.5 50q0 45 19 76q-84 17 -125.5 85.5t-41.5 169.5v497l147 6v-515q0 -39 4.5 -66t22.5 -46t55 -19q35 0 51.5 19.5t20.5 46t4 67.5v501l134 12v-486
q0 -254 -180 -276z" />
    <glyph glyph-name="uogonek" unicode="&#x173;" horiz-adv-x="539" 
d="M530 -90q-19 -44 -57 -71t-81 -27q-28 0 -53 15t-40.5 39t-15.5 50q0 74 55 115v35q-35 -40 -76.5 -59.5t-79.5 -19.5q-55 0 -90 38.5t-35 103.5v422l140 12v-377q0 -40 13 -57.5t40 -17.5q21 0 45 10.5t43 33.5v396l141 12v-557l-74 -6q-27 -27 -27 -52q0 -19 11 -31
t28 -12q36 0 59 43z" />
    <glyph glyph-name="Wcircumflex" unicode="&#x174;" horiz-adv-x="774" 
d="M166 0l-153 744l160 6l79 -449l85 443l120 6l79 -454l95 448l135 6l-161 -750h-145l-79 458l-81 -458h-134zM223 796l117 235h98l113 -235h-122l-47 142l-57 -142h-102z" />
    <glyph glyph-name="wcircumflex" unicode="&#x175;" horiz-adv-x="642" 
d="M133 0l-115 552l143 11l48 -319l71 307l117 12l61 -315l61 303l114 6l-129 -557h-113l-64 365l-79 -365h-115zM157 609l117 235h98l113 -235h-122l-47 142l-57 -142h-102z" />
    <glyph glyph-name="Ycircumflex" unicode="&#x176;" horiz-adv-x="501" 
d="M179 -6v303l-180 453h161l103 -312l111 312h126l-173 -436v-308zM87 796l117 235h98l113 -235h-122l-47 142l-57 -142h-102z" />
    <glyph glyph-name="ycircumflex" unicode="&#x177;" horiz-adv-x="440" 
d="M15 -172v117q37 -2 59 -2q88 0 88 82v28l-161 503l152 7l79 -353l75 350l127 1l-144 -551q-30 -108 -87.5 -148t-128.5 -40q-24 0 -59 6zM56 609l117 235h98l113 -235h-122l-47 142l-57 -142h-102z" />
    <glyph glyph-name="Ydieresis" unicode="&#x178;" horiz-adv-x="501" 
d="M179 -6v303l-180 453h161l103 -312l111 312h126l-173 -436v-308zM63 816v141h141v-141h-141zM297 816v141h141v-141h-141z" />
    <glyph glyph-name="Zacute" unicode="&#x179;" horiz-adv-x="472" 
d="M30 0v93l241 540h-218l12 117h376v-97l-235 -536h242l-23 -117h-395zM273 792l-52 50l130 197l103 -95z" />
    <glyph glyph-name="zacute" unicode="&#x17a;" horiz-adv-x="425" 
d="M44 0v88l189 365h-181l12 110h325v-84l-186 -368h201l-12 -111h-348zM252 605l-52 50l130 197l103 -95z" />
    <glyph glyph-name="Zdotaccent" unicode="&#x17b;" horiz-adv-x="472" 
d="M30 0v93l241 540h-218l12 117h376v-97l-235 -536h242l-23 -117h-395zM186 796v141h141v-141h-141z" />
    <glyph glyph-name="zdotaccent" unicode="&#x17c;" horiz-adv-x="425" 
d="M44 0v88l189 365h-181l12 110h325v-84l-186 -368h201l-12 -111h-348zM165 609v141h141v-141h-141z" />
    <glyph glyph-name="Zcaron" unicode="&#x17d;" horiz-adv-x="472" 
d="M30 0v93l241 540h-218l12 117h376v-97l-235 -536h242l-23 -117h-395zM210 796l-117 235h102l57 -142l47 142h122l-113 -235h-98z" />
    <glyph glyph-name="zcaron" unicode="&#x17e;" horiz-adv-x="425" 
d="M44 0v88l189 365h-181l12 110h325v-84l-186 -368h201l-12 -111h-348zM189 609l-117 235h102l57 -142l47 142h122l-113 -235h-98z" />
    <glyph glyph-name="uni018F" unicode="&#x18f;" horiz-adv-x="542" 
d="M84 99q-50 115 -50 299h319q0 104 -17 177.5t-70 73.5q-37 0 -58.5 -38.5t-29.5 -100.5l-135 47q51 209 225 209q232 0 232 -383q0 -172 -52 -285.5t-183 -113.5t-181 115zM328.5 154q18.5 45 22.5 137h-169q5 -93 23 -137.5t61 -44.5q44 0 62.5 45z" />
    <glyph glyph-name="florin" unicode="&#x192;" horiz-adv-x="344" 
d="M19 -185q-16 4 -22 7v84h30q40 0 52 22.5t12 61.5v317h-70v115h70v151q0 59 7.5 95.5t38 61.5t93.5 25q39 0 74 -7q18 -6 22 -8v-84h-31q-40 0 -52 -22t-12 -61v-151h94v-116h-94v-317q0 -59 -7.5 -95.5t-37.5 -61t-94 -24.5q-47 0 -73 7z" />
    <glyph glyph-name="uni019D" unicode="&#x19d;" horiz-adv-x="600" 
d="M70 744l153 6l194 -446v434l124 12v-744l-121 -12l-219 469v-417q0 -96 -32.5 -148.5t-106.5 -52.5q-39 0 -93 15v99q21 -7 39 -7q32 0 45.5 14.5t15 31.5t1.5 61v685z" />
    <glyph glyph-name="Ohorn" unicode="&#x1a0;" horiz-adv-x="643" 
d="M573.5 599.5q-32.5 -38.5 -80.5 -50.5q14 -75 14 -166q0 -171 -52.5 -284t-182.5 -113q-127 0 -178.5 109.5t-51.5 283.5q0 185 55 285t177 100q137 0 194 -132q14 6 22 18t8 25q0 17 -8 38t-19 40l99 37q14 -19 25 -42t11 -57q0 -53 -32.5 -91.5zM344 173.5
q17 69.5 17 210.5q0 113 -16.5 187.5t-70.5 74.5t-70 -74t-16 -187q0 -142 16.5 -211.5t69.5 -69.5t70 69.5z" />
    <glyph glyph-name="ohorn" unicode="&#x1a1;" horiz-adv-x="566" 
d="M575.5 416q-20.5 -33 -53.5 -52t-70 -21q4 -27 4 -63q0 -132 -55.5 -212.5t-156.5 -80.5t-155.5 80t-54.5 213q0 132 54 211t156 79q68 0 116 -37t73 -105q26 -1 40.5 13t14.5 33q0 17 -8 38t-19 40l99 37q14 -19 25 -42t11 -57q0 -41 -20.5 -74zM302 146q13 55 13 135
t-13 135t-58 55t-57 -52t-12 -127q0 -92 12 -146.5t57 -54.5t58 55z" />
    <glyph glyph-name="Uhorn" unicode="&#x1af;" horiz-adv-x="641" 
d="M660 750q11 -23 11 -57q0 -42 -21.5 -75.5t-56 -52.5t-72.5 -19q-12 0 -18 1v-283q0 -106 -41.5 -192t-173.5 -86q-112 0 -168 72t-56 189v497l147 6v-515q0 -39 4.5 -66t22.5 -46t55 -19q35 0 51.5 19.5t20.5 46t4 67.5v501l134 12v-118q29 -3 44.5 11t15.5 34
q0 17 -8 38t-19 40l99 37q14 -19 25 -42z" />
    <glyph glyph-name="uhorn" unicode="&#x1b0;" horiz-adv-x="615" 
d="M634 547q11 -23 11 -57q0 -42 -21.5 -75.5t-56 -52.5t-72.5 -19q-11 0 -16 1v-338l-141 -12v72q-35 -40 -76.5 -59.5t-79.5 -19.5q-55 0 -90 38.5t-35 103.5v422l140 12v-377q0 -40 13 -57.5t40 -17.5q21 0 45 10.5t43 33.5v396l141 12v-135q28 -2 43 12.5t15 33.5
q0 17 -8 38t-19 40l99 37q14 -19 25 -42z" />
    <glyph glyph-name="uni01C4" unicode="&#x1c4;" horiz-adv-x="1026" 
d="M70 750h154q148 0 221 -94t73 -284q0 -101 -27.5 -185t-87.5 -135.5t-153 -51.5h-180v750zM237 117q76 0 105.5 65.5t29.5 161.5v34q0 69 -8.5 122.5t-39 93t-91.5 39.5h-17v-516h21zM584 0v93l241 540h-218l12 117h376v-97l-235 -536h242l-23 -117h-395zM764 796
l-117 235h102l57 -142l47 142h122l-113 -235h-98z" />
    <glyph glyph-name="uni01C5" unicode="&#x1c5;" horiz-adv-x="979" 
d="M70 750h154q148 0 221 -94t73 -284q0 -101 -27.5 -185t-87.5 -135.5t-153 -51.5h-180v750zM237 117q76 0 105.5 65.5t29.5 161.5v34q0 69 -8.5 122.5t-39 93t-91.5 39.5h-17v-516h21zM598 0v88l189 365h-181l12 110h325v-84l-186 -368h201l-12 -111h-348zM743 609
l-117 235h102l57 -142l47 142h122l-113 -235h-98z" />
    <glyph glyph-name="uni01C6" unicode="&#x1c6;" horiz-adv-x="943" 
d="M36 281q0 153 40 221t125 68q36 0 69 -23.5t48 -58.5v244l141 18v-744l-106 -12l-35 76q-10 -37 -37 -60t-83 -23q-162 0 -162 294zM299 120.5q19 33.5 19 113.5v188q-29 45 -68 45q-33 0 -48.5 -23.5t-20 -61.5t-4.5 -101q0 -64 4.5 -104t20.5 -65t48 -25q30 0 49 33.5z
M562 0v88l189 365h-181l12 110h325v-84l-186 -368h201l-12 -111h-348zM707 609l-117 235h102l57 -142l47 142h122l-113 -235h-98z" />
    <glyph glyph-name="uni01C7" unicode="&#x1c7;" horiz-adv-x="802" 
d="M70 0v738l146 12v-633h246l-15 -117h-377zM496 1v99q21 -7 39 -7q36 0 45.5 27t9.5 80v538l146 12v-562q0 -97 -33.5 -149.5t-112.5 -52.5q-40 0 -94 15z" />
    <glyph glyph-name="uni01C8" unicode="&#x1c8;" horiz-adv-x="734" 
d="M70 0v738l146 12v-633h246l-15 -117h-377zM535 635v145l141 10v-149zM457 -131v84q36 0 52.5 7t21 21.5t4.5 44.5v525l141 12v-537q0 -66 -6 -98t-32.5 -50.5t-86.5 -18.5q-41 0 -94 10z" />
    <glyph glyph-name="uni01C9" unicode="&#x1c9;" horiz-adv-x="528" 
d="M62 -6v738l140 18v-744zM329 635v145l141 10v-149zM251 -131v84q36 0 52.5 7t21 21.5t4.5 44.5v525l141 12v-537q0 -66 -6 -98t-32.5 -50.5t-86.5 -18.5q-41 0 -94 10z" />
    <glyph glyph-name="uni01CA" unicode="&#x1ca;" horiz-adv-x="944" 
d="M420 -6l-219 469v-457l-131 -6v744l153 6l194 -446v434l124 12v-744zM638 1v99q21 -7 39 -7q36 0 45.5 27t9.5 80v538l146 12v-562q0 -97 -33.5 -149.5t-112.5 -52.5q-40 0 -94 15z" />
    <glyph glyph-name="uni01CB" unicode="&#x1cb;" horiz-adv-x="876" 
d="M420 -6l-219 469v-457l-131 -6v744l153 6l194 -446v434l124 12v-744zM677 635v145l141 10v-149zM599 -131v84q36 0 52.5 7t21 21.5t4.5 44.5v525l141 12v-537q0 -66 -6 -98t-32.5 -50.5t-86.5 -18.5q-41 0 -94 10z" />
    <glyph glyph-name="uni01CC" unicode="&#x1cc;" horiz-adv-x="804" 
d="M61 551l140 12v-72q43 38 84.5 58.5t76.5 20.5q53 0 86.5 -38.5t33.5 -103.5v-422l-140 -12v381q0 75 -51 75q-17 0 -37.5 -10t-52.5 -29v-405l-140 -12v557zM605 635v145l141 10v-149zM527 -131v84q36 0 52.5 7t21 21.5t4.5 44.5v525l141 12v-537q0 -66 -6 -98
t-32.5 -50.5t-86.5 -18.5q-41 0 -94 10z" />
    <glyph glyph-name="uni01D3" unicode="&#x1d3;" horiz-adv-x="568" 
d="M120 58q-56 72 -56 189v497l147 6v-515q0 -39 4.5 -66t22.5 -46t55 -19q35 0 51.5 19.5t20.5 46t4 67.5v501l134 12v-486q0 -106 -41.5 -192t-173.5 -86q-112 0 -168 72zM237 796l-117 235h102l57 -142l47 142h122l-113 -235h-98z" />
    <glyph glyph-name="uni01D4" unicode="&#x1d4;" horiz-adv-x="539" 
d="M92 25.5q-35 38.5 -35 103.5v422l140 12v-377q0 -40 13 -57.5t40 -17.5q21 0 45 10.5t43 33.5v396l141 12v-557l-141 -12v72q-35 -40 -76.5 -59.5t-79.5 -19.5q-55 0 -90 38.5zM223 609l-117 235h102l57 -142l47 142h122l-113 -235h-98z" />
    <glyph glyph-name="uni01E2" unicode="&#x1e2;" horiz-adv-x="771" 
d="M-3 0l322 741l100 9h320l-11 -117h-189v-179h124l-1 -126h-123v-211h208l-12 -117h-360l8 161h-163l-64 -161h-159zM268 281h116l11 359zM335 796v94h281v-94h-281z" />
    <glyph glyph-name="uni01E3" unicode="&#x1e3;" horiz-adv-x="711" 
d="M68.5 35q-42.5 48 -42.5 124q0 107 75 151.5t173 50.5q0 57 -7.5 81.5t-33.5 24.5q-42 0 -50 -64l-137 24q9 76 62 109.5t120 33.5q44 0 73 -16t52 -50q29 33 61 49.5t75 16.5q94 0 144 -74t50 -209v-25h-268q0 -65 16.5 -118.5t50.5 -53.5q40 0 59 44.5t20 47.5l106 -40
q-19 -71 -66 -113t-116 -42q-46 0 -78 20.5t-59 62.5q-22 -43 -68.5 -63t-93.5 -20q-75 0 -117.5 48zM549 343q0 58 -16 94t-46 36q-31 0 -50.5 -36t-21.5 -94h134zM260 120.5q14 33.5 14 66.5v90q-50 0 -80 -27t-30 -83q0 -37 13.5 -58.5t36.5 -21.5q32 0 46 33.5zM219 629
v94h281v-94h-281z" />
    <glyph glyph-name="Gcaron" unicode="&#x1e6;" horiz-adv-x="553" 
d="M91.5 97q-51.5 111 -51.5 281q0 95 24.5 183t79 145.5t139.5 57.5q73 0 121.5 -35.5t72 -94t23.5 -129.5l-139 -9l-3 21q-6 59 -21 94t-56 35q-52 0 -73.5 -83.5t-21.5 -192.5q0 -77 5 -131t26 -94.5t65 -40.5q37 0 58.5 46t21.5 113h-74l12 112h203v-369l-56 -6l-34 139
q-9 -39 -22.5 -70t-46.5 -57t-90 -26q-111 0 -162.5 111zM229 796l-117 235h102l57 -142l47 142h122l-113 -235h-98z" />
    <glyph glyph-name="gcaron" unicode="&#x1e7;" horiz-adv-x="532" 
d="M78 -143.5q-62 31.5 -62 86.5q0 38 28 64.5t71 42.5q-38 11 -57 28t-19 49q0 39 27 70.5t71 52.5q-90 52 -90 145q0 56 30.5 95.5t79 59.5t101.5 20q79 0 140 -42q30 27 60.5 45t76.5 18v-93q-58 0 -89 -14q12 -31 16.5 -49t4.5 -39q0 -68 -46 -118.5t-150 -50.5l-37 1
q-9 1 -22 1q-13 -4 -25 -17.5t-12 -28.5q0 -14 10 -24t25 -12l160 -18q139 -16 139 -135q0 -93 -71.5 -131t-185.5 -38q-112 0 -174 31.5zM304 330.5q17 23.5 17 66.5q0 44 -18 66t-46 22q-31 0 -49 -25t-18 -62q0 -34 15 -62.5t51 -28.5q31 0 48 23.5zM372 -11q0 17 -9 25
t-28.5 11.5t-63.5 6.5l-83 7q-18 -6 -31 -21.5t-13 -34.5q0 -27 28.5 -41.5t85.5 -14.5q114 0 114 62zM219 609l-117 235h102l57 -142l47 142h122l-113 -235h-98z" />
    <glyph glyph-name="uni01EA" unicode="&#x1ea;" horiz-adv-x="549" 
d="M397 -52l54 -38q-19 -44 -57 -71t-81 -27q-28 0 -53 15t-40.5 39t-15.5 50q0 44 19 75q-181 40 -181 388q0 185 55 285t177 100q233 0 233 -381q0 -155 -42.5 -263.5t-147.5 -129.5q-18 -20 -18 -42q0 -19 11 -31t28 -12q36 0 59 43zM204 572q-16 -74 -16 -187
q0 -142 16.5 -211.5t69.5 -69.5t70 69.5t17 210.5q0 113 -16.5 187.5t-70.5 74.5t-70 -74z" />
    <glyph glyph-name="uni01EB" unicode="&#x1eb;" horiz-adv-x="490" 
d="M374 -52l54 -38q-19 -44 -57 -71t-81 -27q-28 0 -53 15t-40.5 39t-15.5 50q0 46 19 75q-81 18 -123.5 95t-42.5 194q0 132 54 211t156 79q101 0 156.5 -79t55.5 -211q0 -114 -41 -190t-118 -96q-21 -25 -21 -46q0 -19 11 -31t28 -12q36 0 59 43zM187 419
q-12 -52 -12 -127q0 -92 12 -146.5t57 -54.5t58 55t13 135t-13 135t-58 55t-57 -52z" />
    <glyph glyph-name="uni01F1" unicode="&#x1f1;" horiz-adv-x="1019" 
d="M70 750h154q148 0 221 -94t73 -284q0 -101 -27.5 -185t-87.5 -135.5t-153 -51.5h-180v750zM237 117q76 0 105.5 65.5t29.5 161.5v34q0 69 -8.5 122.5t-39 93t-91.5 39.5h-17v-516h21zM577 0v93l241 540h-218l12 117h376v-97l-235 -536h242l-23 -117h-395z" />
    <glyph glyph-name="uni01F2" unicode="&#x1f2;" horiz-adv-x="979" 
d="M70 750h154q148 0 221 -94t73 -284q0 -101 -27.5 -185t-87.5 -135.5t-153 -51.5h-180v750zM237 117q76 0 105.5 65.5t29.5 161.5v34q0 69 -8.5 122.5t-39 93t-91.5 39.5h-17v-516h21zM598 0v88l189 365h-181l12 110h325v-84l-186 -368h201l-12 -111h-348z" />
    <glyph glyph-name="uni01F3" unicode="&#x1f3;" horiz-adv-x="943" 
d="M36 281q0 153 40 221t125 68q36 0 69 -23.5t48 -58.5v244l141 18v-744l-106 -12l-35 76q-10 -37 -37 -60t-83 -23q-162 0 -162 294zM299 120.5q19 33.5 19 113.5v188q-29 45 -68 45q-33 0 -48.5 -23.5t-20 -61.5t-4.5 -101q0 -64 4.5 -104t20.5 -65t48 -25q30 0 49 33.5z
M562 0v88l189 365h-181l12 110h325v-84l-186 -368h201l-12 -111h-348z" />
    <glyph glyph-name="Aringacute" unicode="&#x1fa;" horiz-adv-x="552" 
d="M12 0l158 741l209 9l162 -744l-160 -6l-27 161h-179l-32 -161h-131zM202 281h125l-69 359zM168.5 831q-45.5 35 -45.5 98t45 98t108 35q62 0 107 -34.5t45 -98.5q0 -42 -21.5 -72.5t-56.5 -45.5t-74 -15q-62 0 -107.5 35zM317.5 888.5q18.5 14.5 18.5 40.5
q0 25 -18.5 39.5t-42.5 14.5t-42 -14.5t-18 -39.5t18 -40t42 -15t42.5 14.5zM292 1104l-52 50l130 197l103 -95z" />
    <glyph glyph-name="aringacute" unicode="&#x1fb;" horiz-adv-x="471" 
d="M431 6l-137 -12l-16 69q-18 -32 -53 -54t-72 -22q-36 0 -65 22.5t-45 61t-16 86.5q0 109 74.5 153.5t173.5 50.5q0 54 -7 80t-34 26q-23 0 -35 -18t-15 -46l-137 24q10 79 71 115q-27 33 -27 80q0 63 45 98t108 35q62 0 107 -34.5t45 -98.5q0 -55 -37 -90q57 -47 57 -135
v-291q0 -47 15 -100zM194.5 588.5q11.5 -13.5 29.5 -18.5h10q17 0 25 -1q19 5 32 18.5t13 34.5q0 25 -18.5 39.5t-42.5 14.5t-42 -14.5t-18 -39.5q0 -20 11.5 -33.5zM275 277q-50 0 -80 -27t-30 -84q0 -38 13.5 -58.5t39.5 -20.5q17 0 28.5 8t28.5 26v156zM260 797l-52 50
l130 197l103 -95z" />
    <glyph glyph-name="AEacute" unicode="&#x1fc;" horiz-adv-x="771" 
d="M-3 0l322 741l100 9h320l-11 -117h-189v-179h124l-1 -126h-123v-211h208l-12 -117h-360l8 161h-163l-64 -161h-159zM268 281h116l11 359zM492 792l-52 50l130 197l103 -95z" />
    <glyph glyph-name="aeacute" unicode="&#x1fd;" horiz-adv-x="711" 
d="M369 626l-52 50l130 197l103 -95zM68.5 35q-42.5 48 -42.5 124q0 107 75 151.5t173 50.5q0 57 -7.5 81.5t-33.5 24.5q-42 0 -50 -64l-137 24q9 76 62 109.5t120 33.5q44 0 73 -16t52 -50q29 33 61 49.5t75 16.5q94 0 144 -74t50 -209v-25h-268q0 -65 16.5 -118.5
t50.5 -53.5q40 0 59 44.5t20 47.5l106 -40q-19 -71 -66 -113t-116 -42q-46 0 -78 20.5t-59 62.5q-22 -43 -68.5 -63t-93.5 -20q-75 0 -117.5 48zM549 343q0 58 -16 94t-46 36q-31 0 -50.5 -36t-21.5 -94h134zM260 120.5q14 33.5 14 66.5v90q-50 0 -80 -27t-30 -83
q0 -37 13.5 -58.5t36.5 -21.5q32 0 46 33.5z" />
    <glyph glyph-name="Oslashacute" unicode="&#x1fe;" horiz-adv-x="551" 
d="M96 94l-35 -42l-47 45l55 66q-27 95 -27 237q0 172 57 269t175 97q132 0 190 -123l41 50l47 -45l-63 -76q19 -81 19 -172q0 -186 -51 -301t-183 -115q-121 0 -178 110zM356 512q-15 137 -82 137q-53 0 -69.5 -73t-16.5 -176q0 -63 1 -90zM330.5 143q18.5 34 24.5 94
t6 163v17l-164 -200q8 -54 26 -81t51 -27q38 0 56.5 34zM292 822l-52 50l130 197l103 -95z" />
    <glyph glyph-name="oslashacute" unicode="&#x1ff;" horiz-adv-x="490" 
d="M434 426q22 -66 22 -146q0 -132 -55.5 -212.5t-156.5 -80.5q-74 0 -125 45l-45 -57l-87 83l66 84q-19 58 -19 138q0 132 54 211t156 79q68 0 117 -37l41 52l88 -83zM187 419q-12 -52 -12 -127v-7l119 150q-18 36 -50 36q-45 0 -57 -52zM302 146q13 55 13 135v10
l-123 -157q17 -43 52 -43q45 0 58 55zM261 605l-52 50l130 197l103 -95z" />
    <glyph glyph-name="uni0200" unicode="&#x200;" horiz-adv-x="552" 
d="M12 0l158 741l209 9l162 -744l-160 -6l-27 161h-179l-32 -161h-131zM202 281h125l-69 359zM378 797l-143 224l132 68l78 -257zM194 796l-188 188l114 95l132 -235z" />
    <glyph glyph-name="uni0201" unicode="&#x201;" horiz-adv-x="471" 
d="M88 9.5q-29 22.5 -45 61t-16 86.5q0 109 74.5 153.5t173.5 50.5q0 54 -7 80t-34 26q-23 0 -35 -18t-15 -46l-137 24q10 77 63 110t124 33q91 0 136.5 -48t45.5 -125v-291q0 -47 15 -100l-137 -12l-16 69q-18 -32 -53 -54t-72 -22q-36 0 -65 22.5zM246.5 95
q11.5 8 28.5 26v156q-50 0 -80 -27t-30 -84q0 -38 13.5 -58.5t39.5 -20.5q17 0 28.5 8zM346 610l-143 224l132 68l78 -257zM162 609l-188 188l114 95l132 -235z" />
    <glyph glyph-name="uni0202" unicode="&#x202;" horiz-adv-x="552" 
d="M12 0l158 741l209 9l162 -744l-160 -6l-27 161h-179l-32 -161h-131zM202 281h125l-69 359zM85 902q20 54 67.5 91.5t123.5 37.5t123 -37.5t67 -91.5t20 -106h-117q0 34 -4.5 58t-25 42t-63.5 18t-64 -18t-25.5 -42t-4.5 -58h-117q0 52 20 106z" />
    <glyph glyph-name="uni0203" unicode="&#x203;" horiz-adv-x="471" 
d="M88 9.5q-29 22.5 -45 61t-16 86.5q0 109 74.5 153.5t173.5 50.5q0 54 -7 80t-34 26q-23 0 -35 -18t-15 -46l-137 24q10 77 63 110t124 33q91 0 136.5 -48t45.5 -125v-291q0 -47 15 -100l-137 -12l-16 69q-18 -32 -53 -54t-72 -22q-36 0 -65 22.5zM246.5 95
q11.5 8 28.5 26v156q-50 0 -80 -27t-30 -84q0 -38 13.5 -58.5t39.5 -20.5q17 0 28.5 8zM53 715q20 54 67.5 91.5t123.5 37.5t123 -37.5t67 -91.5t20 -106h-117q0 34 -4.5 58t-25 42t-63.5 18t-64 -18t-25.5 -42t-4.5 -58h-117q0 52 20 106z" />
    <glyph glyph-name="uni0204" unicode="&#x204;" horiz-adv-x="483" 
d="M70 0v750h381l-12 -117h-222v-179h158l-1 -126h-157v-211h242l-12 -117h-377zM344 797l-143 224l132 68l78 -257zM160 796l-188 188l114 95l132 -235z" />
    <glyph glyph-name="uni0205" unicode="&#x205;" horiz-adv-x="471" 
d="M318 611l-143 224l132 68l78 -257zM134 610l-188 188l114 95l132 -235zM87 66.5q-53 79.5 -53 211.5q0 134 54 213t157 79q98 0 150 -79t52 -213q0 -8 -3 -11.5t-3 -4.5h-267q0 -65 17 -118.5t52 -53.5q39 0 58 45t20 47l106 -40q-21 -72 -67 -113.5t-120 -41.5
q-100 0 -153 79.5zM309 343q0 60 -16 95t-50 35q-17 0 -33 -17t-26 -47t-10 -66h135z" />
    <glyph glyph-name="uni0206" unicode="&#x206;" horiz-adv-x="483" 
d="M70 0v750h381l-12 -117h-222v-179h158l-1 -126h-157v-211h242l-12 -117h-377zM51 902q20 54 67.5 91.5t123.5 37.5t123 -37.5t67 -91.5t20 -106h-117q0 34 -4.5 58t-25 42t-63.5 18t-64 -18t-25.5 -42t-4.5 -58h-117q0 52 20 106z" />
    <glyph glyph-name="uni0207" unicode="&#x207;" horiz-adv-x="471" 
d="M87 66.5q-53 79.5 -53 211.5q0 134 54 213t157 79q98 0 150 -79t52 -213q0 -8 -3 -11.5t-3 -4.5h-267q0 -65 17 -118.5t52 -53.5q39 0 58 45t20 47l106 -40q-21 -72 -67 -113.5t-120 -41.5q-100 0 -153 79.5zM309 343q0 60 -16 95t-50 35q-17 0 -33 -17t-26 -47t-10 -66
h135zM45 715q20 54 67.5 91.5t123.5 37.5t123 -37.5t67 -91.5t20 -106h-117q0 34 -4.5 58t-25 42t-63.5 18t-64 -18t-25.5 -42t-4.5 -58h-117q0 52 20 106z" />
    <glyph glyph-name="uni0208" unicode="&#x208;" horiz-adv-x="287" 
d="M70 -6v744l147 12v-744zM246 797l-143 224l132 68l78 -257zM62 796l-188 188l114 95l132 -235z" />
    <glyph glyph-name="uni0209" unicode="&#x209;" horiz-adv-x="262" 
d="M61 -6v557l140 12v-557zM233 610l-143 224l132 68l78 -257zM49 609l-188 188l114 95l132 -235z" />
    <glyph glyph-name="uni020A" unicode="&#x20a;" horiz-adv-x="287" 
d="M70 -6v744l147 12v-744zM-47 902q20 54 67.5 91.5t123.5 37.5t123 -37.5t67 -91.5t20 -106h-117q0 34 -4.5 58t-25 42t-63.5 18t-64 -18t-25.5 -42t-4.5 -58h-117q0 52 20 106z" />
    <glyph glyph-name="uni020B" unicode="&#x20b;" horiz-adv-x="262" 
d="M61 -6v557l140 12v-557zM-60 715q20 54 67.5 91.5t123.5 37.5t123 -37.5t67 -91.5t20 -106h-117q0 34 -4.5 58t-25 42t-63.5 18t-64 -18t-25.5 -42t-4.5 -58h-117q0 52 20 106z" />
    <glyph glyph-name="uni020C" unicode="&#x20c;" horiz-adv-x="549" 
d="M93.5 95.5q-51.5 109.5 -51.5 283.5q0 185 55 285t177 100q233 0 233 -381q0 -171 -52.5 -284t-182.5 -113q-127 0 -178.5 109.5zM344 173.5q17 69.5 17 210.5q0 113 -16.5 187.5t-70.5 74.5t-70 -74t-16 -187q0 -142 16.5 -211.5t69.5 -69.5t70 69.5zM377 797l-143 224
l132 68l78 -257zM193 796l-188 188l114 95l132 -235z" />
    <glyph glyph-name="uni020D" unicode="&#x20d;" horiz-adv-x="490" 
d="M88.5 67q-54.5 80 -54.5 213q0 132 54 211t156 79q101 0 156.5 -79t55.5 -211t-55.5 -212.5t-156.5 -80.5t-155.5 80zM302 146q13 55 13 135t-13 135t-58 55t-57 -52t-12 -127q0 -92 12 -146.5t57 -54.5t58 55zM347 610l-143 224l132 68l78 -257zM163 609l-188 188
l114 95l132 -235z" />
    <glyph glyph-name="uni020E" unicode="&#x20e;" horiz-adv-x="549" 
d="M93.5 95.5q-51.5 109.5 -51.5 283.5q0 185 55 285t177 100q233 0 233 -381q0 -171 -52.5 -284t-182.5 -113q-127 0 -178.5 109.5zM344 173.5q17 69.5 17 210.5q0 113 -16.5 187.5t-70.5 74.5t-70 -74t-16 -187q0 -142 16.5 -211.5t69.5 -69.5t70 69.5zM84 902
q20 54 67.5 91.5t123.5 37.5t123 -37.5t67 -91.5t20 -106h-117q0 34 -4.5 58t-25 42t-63.5 18t-64 -18t-25.5 -42t-4.5 -58h-117q0 52 20 106z" />
    <glyph glyph-name="uni020F" unicode="&#x20f;" horiz-adv-x="490" 
d="M88.5 67q-54.5 80 -54.5 213q0 132 54 211t156 79q101 0 156.5 -79t55.5 -211t-55.5 -212.5t-156.5 -80.5t-155.5 80zM302 146q13 55 13 135t-13 135t-58 55t-57 -52t-12 -127q0 -92 12 -146.5t57 -54.5t58 55zM54 715q20 54 67.5 91.5t123.5 37.5t123 -37.5t67 -91.5
t20 -106h-117q0 34 -4.5 58t-25 42t-63.5 18t-64 -18t-25.5 -42t-4.5 -58h-117q0 52 20 106z" />
    <glyph glyph-name="uni0210" unicode="&#x210;" horiz-adv-x="565" 
d="M273 329h-57v-323l-146 -12v750l178 6q129 0 202 -51.5t73 -157.5q0 -70 -27.5 -115t-79.5 -75l67 -163l68 -162l-144 -39zM266 437q52 0 81.5 21.5t29.5 81.5q0 93 -92 93h-69v-196h50zM385 797l-143 224l132 68l78 -257zM201 796l-188 188l114 95l132 -235z" />
    <glyph glyph-name="uni0211" unicode="&#x211;" horiz-adv-x="404" 
d="M61 551l140 12v-91q30 43 74.5 69.5t113.5 26.5v-137q-36 0 -94.5 -12.5t-93.5 -43.5v-369l-140 -12v557zM304 610l-143 224l132 68l78 -257zM120 609l-188 188l114 95l132 -235z" />
    <glyph glyph-name="uni0212" unicode="&#x212;" horiz-adv-x="565" 
d="M273 329h-57v-323l-146 -12v750l178 6q129 0 202 -51.5t73 -157.5q0 -70 -27.5 -115t-79.5 -75l67 -163l68 -162l-144 -39zM266 437q52 0 81.5 21.5t29.5 81.5q0 93 -92 93h-69v-196h50zM92 902q20 54 67.5 91.5t123.5 37.5t123 -37.5t67 -91.5t20 -106h-117
q0 34 -4.5 58t-25 42t-63.5 18t-64 -18t-25.5 -42t-4.5 -58h-117q0 52 20 106z" />
    <glyph glyph-name="uni0213" unicode="&#x213;" horiz-adv-x="404" 
d="M61 551l140 12v-91q30 43 74.5 69.5t113.5 26.5v-137q-36 0 -94.5 -12.5t-93.5 -43.5v-369l-140 -12v557zM11 715q20 54 67.5 91.5t123.5 37.5t123 -37.5t67 -91.5t20 -106h-117q0 34 -4.5 58t-25 42t-63.5 18t-64 -18t-25.5 -42t-4.5 -58h-117q0 52 20 106z" />
    <glyph glyph-name="uni0214" unicode="&#x214;" horiz-adv-x="568" 
d="M120 58q-56 72 -56 189v497l147 6v-515q0 -39 4.5 -66t22.5 -46t55 -19q35 0 51.5 19.5t20.5 46t4 67.5v501l134 12v-486q0 -106 -41.5 -192t-173.5 -86q-112 0 -168 72zM386 797l-143 224l132 68l78 -257zM202 796l-188 188l114 95l132 -235z" />
    <glyph glyph-name="uni0215" unicode="&#x215;" horiz-adv-x="539" 
d="M92 25.5q-35 38.5 -35 103.5v422l140 12v-377q0 -40 13 -57.5t40 -17.5q21 0 45 10.5t43 33.5v396l141 12v-557l-141 -12v72q-35 -40 -76.5 -59.5t-79.5 -19.5q-55 0 -90 38.5zM372 610l-143 224l132 68l78 -257zM188 609l-188 188l114 95l132 -235z" />
    <glyph glyph-name="uni0216" unicode="&#x216;" horiz-adv-x="568" 
d="M120 58q-56 72 -56 189v497l147 6v-515q0 -39 4.5 -66t22.5 -46t55 -19q35 0 51.5 19.5t20.5 46t4 67.5v501l134 12v-486q0 -106 -41.5 -192t-173.5 -86q-112 0 -168 72zM93 902q20 54 67.5 91.5t123.5 37.5t123 -37.5t67 -91.5t20 -106h-117q0 34 -4.5 58t-25 42
t-63.5 18t-64 -18t-25.5 -42t-4.5 -58h-117q0 52 20 106z" />
    <glyph glyph-name="uni0217" unicode="&#x217;" horiz-adv-x="539" 
d="M92 25.5q-35 38.5 -35 103.5v422l140 12v-377q0 -40 13 -57.5t40 -17.5q21 0 45 10.5t43 33.5v396l141 12v-557l-141 -12v72q-35 -40 -76.5 -59.5t-79.5 -19.5q-55 0 -90 38.5zM79 715q20 54 67.5 91.5t123.5 37.5t123 -37.5t67 -91.5t20 -106h-117q0 34 -4.5 58t-25 42
t-63.5 18t-64 -18t-25.5 -42t-4.5 -58h-117q0 52 20 106z" />
    <glyph glyph-name="Scommaaccent" unicode="&#x218;" horiz-adv-x="533" 
d="M114.5 36.5q-62.5 50.5 -91.5 135.5l124 58l12 -20q29 -50 55.5 -78t66.5 -28q26 0 46.5 25t20.5 55q0 28 -14 51t-36 37l-131 78q-57 32 -91 81t-34 110q0 65 30.5 116t83 79t118.5 28q77 0 131 -38t80 -113l-124 -56q-4 8 -17 36t-31.5 40.5t-45.5 12.5
q-33 0 -50.5 -21t-17.5 -54q0 -24 13.5 -43.5t32.5 -30.5l121 -71q134 -76 141 -200q0 -71 -31.5 -125.5t-86 -84.5t-121.5 -30q-91 0 -153.5 50.5zM226 -237q29 0 41 24q4 9 6 23h-71v141h141v-141q0 -48 -16.5 -78t-42.5 -45t-58 -18v94z" />
    <glyph glyph-name="scommaaccent" unicode="&#x219;" horiz-adv-x="451" 
d="M95 24.5q-51 37.5 -66 104.5l109 36q4 -19 15 -34q23 -33 67 -33q25 0 48 11t23 34q0 31 -43 48l-118 48q-47 20 -72 60t-25 98q0 54 26.5 93t70 59.5t93.5 20.5q63 0 116 -36.5t71 -99.5l-116 -36q-4 17 -14 34q-22 34 -56 34q-25 0 -43 -11.5t-18 -33.5q0 -26 49 -48
l100 -41q53 -25 83 -63t30 -102q0 -58 -28 -98.5t-73 -61t-95 -20.5q-83 0 -134 37.5zM181 -236q29 0 41 24q4 9 6 23h-71v141h141v-141q0 -48 -16.5 -78t-42.5 -45t-58 -18v94z" />
    <glyph glyph-name="uni021A" unicode="&#x21a;" horiz-adv-x="477" 
d="M167 -6v639h-153l11 117h440l-12 -117h-140v-627zM200 -236q29 0 41 24q4 9 6 23h-71v141h141v-141q0 -48 -16.5 -78t-42.5 -45t-58 -18v94z" />
    <glyph glyph-name="uni021B" unicode="&#x21b;" horiz-adv-x="360" 
d="M138 23.5q-47 34.5 -47 122.5v311h-78l6 106h76l14 122l122 17v-139h116l-6 -106h-109v-310q0 -30 15 -43t44 -13q16 0 54 6v-97q-4 -1 -31.5 -6t-60.5 -5q-68 0 -115 34.5zM175 -236q29 0 41 24q4 9 6 23h-71v141h141v-141q0 -48 -16.5 -78t-42.5 -45t-58 -18v94z" />
    <glyph glyph-name="uni022A" unicode="&#x22a;" horiz-adv-x="549" 
d="M93.5 95.5q-51.5 109.5 -51.5 283.5q0 185 55 285t177 100q233 0 233 -381q0 -171 -52.5 -284t-182.5 -113q-127 0 -178.5 109.5zM344 173.5q17 69.5 17 210.5q0 113 -16.5 187.5t-70.5 74.5t-70 -74t-16 -187q0 -142 16.5 -211.5t69.5 -69.5t70 69.5zM87 816v141h141
v-141h-141zM321 816v141h141v-141h-141zM134 1003v94h281v-94h-281z" />
    <glyph glyph-name="uni022B" unicode="&#x22b;" horiz-adv-x="490" 
d="M88.5 67q-54.5 80 -54.5 213q0 132 54 211t156 79q101 0 156.5 -79t55.5 -211t-55.5 -212.5t-156.5 -80.5t-155.5 80zM302 146q13 55 13 135t-13 135t-58 55t-57 -52t-12 -127q0 -92 12 -146.5t57 -54.5t58 55zM57 629v141h141v-141h-141zM291 629v141h141v-141h-141z
M104 816v94h281v-94h-281z" />
    <glyph glyph-name="uni022C" unicode="&#x22c;" horiz-adv-x="549" 
d="M93.5 95.5q-51.5 109.5 -51.5 283.5q0 185 55 285t177 100q233 0 233 -381q0 -171 -52.5 -284t-182.5 -113q-127 0 -178.5 109.5zM344 173.5q17 69.5 17 210.5q0 113 -16.5 187.5t-70.5 74.5t-70 -74t-16 -187q0 -142 16.5 -211.5t69.5 -69.5t70 69.5zM310 794
q-13 6 -34 18q-19 13 -33 19t-31 6q-41 0 -85 -49l-7 90q25 27 48 43t50 16q14 0 26.5 -4.5t33.5 -14.5q19 -10 32.5 -15t28.5 -5q22 0 41.5 12t28.5 27l22 -79q0 -3 -13 -21t-33.5 -33.5t-45.5 -15.5q-16 0 -29 6zM134 983v94h281v-94h-281z" />
    <glyph glyph-name="uni022D" unicode="&#x22d;" horiz-adv-x="490" 
d="M88.5 67q-54.5 80 -54.5 213q0 132 54 211t156 79q101 0 156.5 -79t55.5 -211t-55.5 -212.5t-156.5 -80.5t-155.5 80zM302 146q13 55 13 135t-13 135t-58 55t-57 -52t-12 -127q0 -92 12 -146.5t57 -54.5t58 55zM280 607q-13 6 -34 18q-19 13 -33 19t-31 6q-41 0 -85 -49
l-7 90q25 27 48 43t50 16q14 0 26.5 -4.5t33.5 -14.5q19 -10 32.5 -15t28.5 -5q22 0 41.5 12t28.5 27l22 -79q0 -3 -13 -21t-33.5 -33.5t-45.5 -15.5q-16 0 -29 6zM104 796v94h281v-94h-281z" />
    <glyph glyph-name="uni0230" unicode="&#x230;" horiz-adv-x="549" 
d="M93.5 95.5q-51.5 109.5 -51.5 283.5q0 185 55 285t177 100q233 0 233 -381q0 -171 -52.5 -284t-182.5 -113q-127 0 -178.5 109.5zM344 173.5q17 69.5 17 210.5q0 113 -16.5 187.5t-70.5 74.5t-70 -74t-16 -187q0 -142 16.5 -211.5t69.5 -69.5t70 69.5zM204 796v141h141
v-141h-141zM134 983v94h281v-94h-281z" />
    <glyph glyph-name="uni0231" unicode="&#x231;" horiz-adv-x="490" 
d="M88.5 67q-54.5 80 -54.5 213q0 132 54 211t156 79q101 0 156.5 -79t55.5 -211t-55.5 -212.5t-156.5 -80.5t-155.5 80zM302 146q13 55 13 135t-13 135t-58 55t-57 -52t-12 -127q0 -92 12 -146.5t57 -54.5t58 55zM174 609v141h141v-141h-141zM104 796v94h281v-94h-281z" />
    <glyph glyph-name="uni0232" unicode="&#x232;" horiz-adv-x="501" 
d="M179 -6v303l-180 453h161l103 -312l111 312h126l-173 -436v-308zM110 796v94h281v-94h-281z" />
    <glyph glyph-name="uni0233" unicode="&#x233;" horiz-adv-x="440" 
d="M15 -172v117q37 -2 59 -2q88 0 88 82v28l-161 503l152 7l79 -353l75 350l127 1l-144 -551q-30 -108 -87.5 -148t-128.5 -40q-24 0 -59 6zM79 609v94h281v-94h-281z" />
    <glyph glyph-name="uni0237" unicode="&#x237;" horiz-adv-x="262" 
d="M-17 -131v84q36 0 52.5 7t21 21.5t4.5 44.5v525l140 12v-537q0 -66 -6 -98t-32.5 -50.5t-85.5 -18.5q-41 0 -94 10z" />
    <glyph glyph-name="uni0259" unicode="&#x259;" horiz-adv-x="471" 
d="M67.5 66q-41.5 82 -41.5 181q0 30 2 48h269q0 64 -17 117.5t-51 53.5q-25 0 -43 -25.5t-26 -44t-10 -21.5l-106 40q21 72 67 113.5t119 41.5q101 0 154 -79.5t53 -212.5q0 -134 -54.5 -214t-159.5 -80q-114 0 -155.5 82zM276 120.5q21 39.5 21 93.5h-134q0 -59 15.5 -96
t45.5 -37q31 0 52 39.5z" />
    <glyph glyph-name="uni0272" unicode="&#x272;" horiz-adv-x="600" 
d="M61 551l140 12v-72q43 38 84.5 58.5t76.5 20.5q53 0 86.5 -38.5t33.5 -103.5v-422l-140 -12v381q0 75 -51 75q-17 0 -37.5 -10t-52.5 -29v-385q0 -66 -6 -98t-32.5 -50.5t-85.5 -18.5q-41 0 -94 10v84q36 0 52.5 7t21 21.5t4.5 44.5v525z" />
    <glyph glyph-name="circumflex" unicode="&#x2c6;" horiz-adv-x="361" 
d="M16 609l117 235h98l113 -235h-122l-47 142l-57 -142h-102z" />
    <glyph glyph-name="caron" unicode="&#x2c7;" horiz-adv-x="375" 
d="M133 609l-117 235h102l57 -142l47 142h122l-113 -235h-98z" />
    <glyph glyph-name="uni02C9" unicode="&#x2c9;" horiz-adv-x="393" 
d="M56 591v117h281v-117h-281z" />
    <glyph glyph-name="breve" unicode="&#x2d8;" horiz-adv-x="497" 
d="M143.5 665.5q-36.5 39.5 -43.5 106.5h84q1 -3 6 -20t19.5 -25.5t39.5 -8.5t37.5 7.5t16 16t10.5 30.5h84q-7 -66 -43 -106t-103 -40q-71 0 -107.5 39.5z" />
    <glyph glyph-name="dotaccent" unicode="&#x2d9;" horiz-adv-x="186" 
d="M22 609v141h141v-141h-141z" />
    <glyph glyph-name="ring" unicode="&#x2da;" horiz-adv-x="385" 
d="M85.5 644q-45.5 35 -45.5 98t45 98t108 35q62 0 107 -34.5t45 -98.5q0 -42 -21.5 -72.5t-56.5 -45.5t-74 -15q-62 0 -107.5 35zM234.5 701.5q18.5 14.5 18.5 40.5q0 25 -18.5 39.5t-42.5 14.5t-42 -14.5t-18 -39.5t18 -40t42 -15t42.5 14.5z" />
    <glyph glyph-name="ogonek" unicode="&#x2db;" horiz-adv-x="266" 
d="M131.5 -18q-11.5 -15 -11.5 -34t11 -31t28 -12q36 0 59 43l54 -38q-19 -44 -57 -71t-81 -27q-28 0 -53 15t-40.5 39t-15.5 50q0 74 55 115l85 -14q-22 -20 -33.5 -35z" />
    <glyph glyph-name="tilde" unicode="&#x2dc;" horiz-adv-x="420" 
d="M248 607q-13 6 -34 18q-19 13 -33 19t-31 6q-41 0 -85 -49l-7 90q25 27 48 43t50 16q14 0 26.5 -4.5t33.5 -14.5q19 -10 32.5 -15t28.5 -5q22 0 41.5 12t28.5 27l22 -79q0 -3 -13 -21t-33.5 -33.5t-45.5 -15.5q-16 0 -29 6z" />
    <glyph glyph-name="hungarumlaut" unicode="&#x2dd;" horiz-adv-x="538" 
d="M88 562l-58 47l131 235l114 -95zM333 562l-58 47l132 235l114 -95z" />
    <glyph glyph-name="gravecomb" unicode="&#x300;" 
d="M-89 605l-181 152l103 95l130 -197z" />
    <glyph glyph-name="acutecomb" unicode="&#x301;" 
d="M-208 605l-52 50l130 197l103 -95z" />
    <glyph glyph-name="uni0302" unicode="&#x302;" 
d="M-345 609l117 235h98l113 -235h-122l-47 142l-57 -142h-102z" />
    <glyph glyph-name="tildecomb" unicode="&#x303;" 
d="M-172 607q-13 6 -34 18q-19 13 -33 19t-31 6q-41 0 -85 -49l-7 90q25 27 48 43t50 16q14 0 26.5 -4.5t33.5 -14.5q19 -10 32.5 -15t28.5 -5q22 0 41.5 12t28.5 27l22 -79q0 -3 -13 -21t-33.5 -33.5t-45.5 -15.5q-16 0 -29 6z" />
    <glyph glyph-name="uni0304" unicode="&#x304;" 
d="M-359 609v94h281v-94h-281z" />
    <glyph glyph-name="uni0306" unicode="&#x306;" 
d="M-353.5 665.5q-36.5 39.5 -43.5 106.5h84q1 -3 6 -20t19.5 -25.5t39.5 -8.5t37.5 7.5t16 16t10.5 30.5h84q-7 -66 -43 -106t-103 -40q-71 0 -107.5 39.5z" />
    <glyph glyph-name="uni0307" unicode="&#x307;" 
d="M-164 609v141h141v-141h-141z" />
    <glyph glyph-name="uni0308" unicode="&#x308;" 
d="M-454 609v141h141v-141h-141zM-220 609v141h141v-141h-141z" />
    <glyph glyph-name="hookabovecomb" unicode="&#x309;" 
d="M-219 594q0 26 14 44t38 38q14 11 21 19t7 15q0 23 -24 23q-30 0 -35 -38l-90 2q1 28 17.5 54t45.5 42.5t65 16.5q55 0 87.5 -27.5t32.5 -72.5q0 -26 -13 -41.5t-39 -34.5q-20 -14 -29.5 -24.5t-9.5 -25.5v-1h-87q-1 4 -1 11z" />
    <glyph glyph-name="uni030A" unicode="&#x30a;" 
d="M-299.5 644q-45.5 35 -45.5 98t45 98t108 35q62 0 107 -34.5t45 -98.5q0 -42 -21.5 -72.5t-56.5 -45.5t-74 -15q-62 0 -107.5 35zM-150.5 701.5q18.5 14.5 18.5 40.5q0 25 -18.5 39.5t-42.5 14.5t-42 -14.5t-18 -39.5t18 -40t42 -15t42.5 14.5z" />
    <glyph glyph-name="uni030B" unicode="&#x30b;" 
d="M-450 562l-58 47l131 235l114 -95zM-205 562l-58 47l132 235l114 -95z" />
    <glyph glyph-name="uni030C" unicode="&#x30c;" 
d="M-242 609l-117 235h102l57 -142l47 142h122l-113 -235h-98z" />
    <glyph glyph-name="uni030F" unicode="&#x30f;" 
d="M-166 610l-143 224l132 68l78 -257zM-350 609l-188 188l114 95l132 -235z" />
    <glyph glyph-name="uni0311" unicode="&#x311;" 
d="M-439 715q20 54 67.5 91.5t123.5 37.5t123 -37.5t67 -91.5t20 -106h-117q0 34 -4.5 58t-25 42t-63.5 18t-64 -18t-25.5 -42t-4.5 -58h-117q0 52 20 106z" />
    <glyph glyph-name="uni031B" unicode="&#x31b;" 
d="M-32 547q11 -23 11 -57q0 -42 -21.5 -75.5t-56 -52.5t-72.5 -19q-14 0 -27 3v84q14 -2 18 -2q25 0 38 14t13 32q0 17 -8 38t-19 40l99 37q14 -19 25 -42z" />
    <glyph glyph-name="dotbelowcomb" unicode="&#x323;" 
d="M-164 -220v141h141v-141h-141z" />
    <glyph glyph-name="uni0324" unicode="&#x324;" 
d="M-454 -220v141h141v-141h-141zM-220 -220v141h141v-141h-141z" />
    <glyph glyph-name="uni0326" unicode="&#x326;" 
d="M-162 -189q24 0 35 13.5t12 33.5h-70v140h140v-140q0 -69 -33.5 -103.5t-83.5 -37.5v94z" />
    <glyph glyph-name="uni0327" unicode="&#x327;" 
d="M-181.5 -262.5q-30.5 8.5 -50.5 22.5v80q38 -17 70 -17q24 0 35.5 10t11.5 26q0 22 -24 40t-69 18l19 106h74l-14 -60q71 -20 93 -59.5t22 -68.5q0 -55 -30 -80.5t-76 -25.5q-31 0 -61.5 8.5z" />
    <glyph glyph-name="uni0328" unicode="&#x328;" 
d="M-134.5 -18q-11.5 -15 -11.5 -34t11 -31t28 -12q36 0 59 43l54 -38q-19 -44 -57 -71t-81 -27q-28 0 -53 15t-40.5 39t-15.5 50q0 74 55 115l85 -14q-22 -20 -33.5 -35z" />
    <glyph glyph-name="uni032E" unicode="&#x32e;" 
d="M-353.5 -195.5q-36.5 39.5 -43.5 106.5h84q1 -3 6 -20t19.5 -25.5t39.5 -8.5t37.5 7.5t16 16t10.5 30.5h84q-7 -66 -43 -106t-103 -40q-71 0 -107.5 39.5z" />
    <glyph glyph-name="uni0331" unicode="&#x331;" 
d="M-359 -173v94h281v-94h-281z" />
    <glyph glyph-name="uni0335" unicode="&#x335;" 
d="M-361 244v97h311v-97h-311z" />
    <glyph glyph-name="uni1E46" unicode="&#x1e46;" horiz-adv-x="611" 
d="M420 -6l-219 469v-457l-131 -6v744l153 6l194 -446v434l124 12v-744zM235 796v141h141v-141h-141z" />
    <glyph glyph-name="uni1E47" unicode="&#x1e47;" horiz-adv-x="539" 
d="M61 551l140 12v-72q43 38 84.5 58.5t76.5 20.5q53 0 86.5 -38.5t33.5 -103.5v-422l-140 -12v381q0 75 -51 75q-17 0 -37.5 -10t-52.5 -29v-405l-140 -12v557zM199 -220v141h141v-141h-141z" />
    <glyph glyph-name="uni1E62" unicode="&#x1e62;" horiz-adv-x="533" 
d="M114.5 36.5q-62.5 50.5 -91.5 135.5l124 58l12 -20q29 -50 55.5 -78t66.5 -28q26 0 46.5 25t20.5 55q0 28 -14 51t-36 37l-131 78q-57 32 -91 81t-34 110q0 65 30.5 116t83 79t118.5 28q77 0 131 -38t80 -113l-124 -56q-4 8 -17 36t-31.5 40.5t-45.5 12.5
q-33 0 -50.5 -21t-17.5 -54q0 -24 13.5 -43.5t32.5 -30.5l121 -71q134 -76 141 -200q0 -71 -31.5 -125.5t-86 -84.5t-121.5 -30q-91 0 -153.5 50.5zM196 796v141h141v-141h-141z" />
    <glyph glyph-name="uni1E63" unicode="&#x1e63;" horiz-adv-x="451" 
d="M95 24.5q-51 37.5 -66 104.5l109 36q4 -19 15 -34q23 -33 67 -33q25 0 48 11t23 34q0 31 -43 48l-118 48q-47 20 -72 60t-25 98q0 54 26.5 93t70 59.5t93.5 20.5q63 0 116 -36.5t71 -99.5l-116 -36q-4 17 -14 34q-22 34 -56 34q-25 0 -43 -11.5t-18 -33.5q0 -26 49 -48
l100 -41q53 -25 83 -63t30 -102q0 -58 -28 -98.5t-73 -61t-95 -20.5q-83 0 -134 37.5zM155 -220v141h141v-141h-141z" />
    <glyph glyph-name="Wgrave" unicode="&#x1e80;" horiz-adv-x="774" 
d="M166 0l-153 744l160 6l79 -449l85 443l120 6l79 -454l95 448l135 6l-161 -750h-145l-79 458l-81 -458h-134zM404 792l-181 152l103 95l130 -197z" />
    <glyph glyph-name="wgrave" unicode="&#x1e81;" horiz-adv-x="642" 
d="M133 0l-115 552l143 11l48 -319l71 307l117 12l61 -315l61 303l114 6l-129 -557h-113l-64 365l-79 -365h-115zM338 605l-181 152l103 95l130 -197z" />
    <glyph glyph-name="Wacute" unicode="&#x1e82;" horiz-adv-x="774" 
d="M166 0l-153 744l160 6l79 -449l85 443l120 6l79 -454l95 448l135 6l-161 -750h-145l-79 458l-81 -458h-134zM403 792l-52 50l130 197l103 -95z" />
    <glyph glyph-name="wacute" unicode="&#x1e83;" horiz-adv-x="642" 
d="M133 0l-115 552l143 11l48 -319l71 307l117 12l61 -315l61 303l114 6l-129 -557h-113l-64 365l-79 -365h-115zM337 605l-52 50l130 197l103 -95z" />
    <glyph glyph-name="Wdieresis" unicode="&#x1e84;" horiz-adv-x="774" 
d="M166 0l-153 744l160 6l79 -449l85 443l120 6l79 -454l95 448l135 6l-161 -750h-145l-79 458l-81 -458h-134zM199 816v141h141v-141h-141zM433 816v141h141v-141h-141z" />
    <glyph glyph-name="wdieresis" unicode="&#x1e85;" horiz-adv-x="642" 
d="M133 0l-115 552l143 11l48 -319l71 307l117 12l61 -315l61 303l114 6l-129 -557h-113l-64 365l-79 -365h-115zM133 629v141h141v-141h-141zM367 629v141h141v-141h-141z" />
    <glyph glyph-name="uni1E9E" unicode="&#x1e9e;" horiz-adv-x="669" 
d="M576 356q43 -44 43 -127q0 -121 -91.5 -178.5t-233.5 -62.5v102q61 0 101 20.5t58.5 52t18.5 64.5q0 30 -16.5 60t-48 51t-72.5 24l-13 82l96 205q-24 7 -51 10t-42 3q-50 0 -83.5 -28.5t-33.5 -91.5v-542l-147 -12v528q0 105 39.5 160t99.5 72.5t139 17.5q47 0 111.5 -9
t126.5 -26v-60l-120 -246q76 -25 119 -69z" />
    <glyph glyph-name="uni1EA0" unicode="&#x1ea0;" horiz-adv-x="552" 
d="M12 0l158 741l209 9l162 -744l-160 -6l-27 161h-179l-32 -161h-131zM202 281h125l-69 359zM205 -220v141h141v-141h-141z" />
    <glyph glyph-name="uni1EA1" unicode="&#x1ea1;" horiz-adv-x="471" 
d="M88 9.5q-29 22.5 -45 61t-16 86.5q0 109 74.5 153.5t173.5 50.5q0 54 -7 80t-34 26q-23 0 -35 -18t-15 -46l-137 24q10 77 63 110t124 33q91 0 136.5 -48t45.5 -125v-291q0 -47 15 -100l-137 -12l-16 69q-18 -32 -53 -54t-72 -22q-36 0 -65 22.5zM246.5 95
q11.5 8 28.5 26v156q-50 0 -80 -27t-30 -84q0 -38 13.5 -58.5t39.5 -20.5q17 0 28.5 8zM164 -220v141h141v-141h-141z" />
    <glyph glyph-name="uni1EA2" unicode="&#x1ea2;" horiz-adv-x="552" 
d="M12 0l158 741l209 9l162 -744l-160 -6l-27 161h-179l-32 -161h-131zM202 281h125l-69 359zM235 801q0 26 14 44t38 38q14 11 21 19t7 15q0 23 -24 23q-30 0 -35 -38l-90 2q1 28 17.5 54t45.5 42.5t65 16.5q55 0 87.5 -27.5t32.5 -72.5q0 -26 -13 -41.5t-39 -34.5
q-20 -14 -29.5 -24.5t-9.5 -25.5v-1h-87q-1 4 -1 11z" />
    <glyph glyph-name="uni1EA3" unicode="&#x1ea3;" horiz-adv-x="471" 
d="M88 9.5q-29 22.5 -45 61t-16 86.5q0 109 74.5 153.5t173.5 50.5q0 54 -7 80t-34 26q-23 0 -35 -18t-15 -46l-137 24q10 77 63 110t124 33q91 0 136.5 -48t45.5 -125v-291q0 -47 15 -100l-137 -12l-16 69q-18 -32 -53 -54t-72 -22q-36 0 -65 22.5zM246.5 95
q11.5 8 28.5 26v156q-50 0 -80 -27t-30 -84q0 -38 13.5 -58.5t39.5 -20.5q17 0 28.5 8zM189 614q0 26 14 44t38 38q14 11 21 19t7 15q0 23 -24 23q-30 0 -35 -38l-90 2q1 28 17.5 54t45.5 42.5t65 16.5q55 0 87.5 -27.5t32.5 -72.5q0 -26 -13 -41.5t-39 -34.5
q-20 -14 -29.5 -24.5t-9.5 -25.5v-1h-87q-1 4 -1 11z" />
    <glyph glyph-name="uni1EA4" unicode="&#x1ea4;" horiz-adv-x="552" 
d="M12 0l158 741l209 9l162 -744l-160 -6l-27 161h-179l-32 -161h-131zM202 281h125l-69 359zM491 1095l98 -82l-141 -118l-47 37zM229 991h98l113 -175h-122l-47 97l-57 -97h-102z" />
    <glyph glyph-name="uni1EA5" unicode="&#x1ea5;" horiz-adv-x="471" 
d="M88 9.5q-29 22.5 -45 61t-16 86.5q0 109 74.5 153.5t173.5 50.5q0 54 -7 80t-34 26q-23 0 -35 -18t-15 -46l-137 24q10 77 63 110t124 33q91 0 136.5 -48t45.5 -125v-291q0 -47 15 -100l-137 -12l-16 69q-18 -32 -53 -54t-72 -22q-36 0 -65 22.5zM246.5 95
q11.5 8 28.5 26v156q-50 0 -80 -27t-30 -84q0 -38 13.5 -58.5t39.5 -20.5q17 0 28.5 8zM459 908l98 -82l-141 -118l-47 37zM197 804h98l113 -175h-122l-47 97l-57 -97h-102z" />
    <glyph glyph-name="uni1EA6" unicode="&#x1ea6;" horiz-adv-x="552" 
d="M12 0l158 741l209 9l162 -744l-160 -6l-27 161h-179l-32 -161h-131zM202 281h125l-69 359zM69 1075l90 -163l-47 -37l-141 118zM447 796h-122l-47 97l-57 -97h-102l117 175h98z" />
    <glyph glyph-name="uni1EA7" unicode="&#x1ea7;" horiz-adv-x="471" 
d="M88 9.5q-29 22.5 -45 61t-16 86.5q0 109 74.5 153.5t173.5 50.5q0 54 -7 80t-34 26q-23 0 -35 -18t-15 -46l-137 24q10 77 63 110t124 33q91 0 136.5 -48t45.5 -125v-291q0 -47 15 -100l-137 -12l-16 69q-18 -32 -53 -54t-72 -22q-36 0 -65 22.5zM246.5 95
q11.5 8 28.5 26v156q-50 0 -80 -27t-30 -84q0 -38 13.5 -58.5t39.5 -20.5q17 0 28.5 8zM37 888l90 -163l-47 -37l-141 118zM415 609h-122l-47 97l-57 -97h-102l117 175h98z" />
    <glyph glyph-name="uni1EA8" unicode="&#x1ea8;" horiz-adv-x="552" 
d="M12 0l158 741l209 9l162 -744l-160 -6l-27 161h-179l-32 -161h-131zM202 281h125l-69 359zM503 1078l98 -82l-141 -118l-47 37zM241 974h98l113 -175h-122l-47 97l-57 -97h-102z" />
    <glyph glyph-name="uni1EA9" unicode="&#x1ea9;" horiz-adv-x="471" 
d="M88 9.5q-29 22.5 -45 61t-16 86.5q0 109 74.5 153.5t173.5 50.5q0 54 -7 80t-34 26q-23 0 -35 -18t-15 -46l-137 24q10 77 63 110t124 33q91 0 136.5 -48t45.5 -125v-291q0 -47 15 -100l-137 -12l-16 69q-18 -32 -53 -54t-72 -22q-36 0 -65 22.5zM246.5 95
q11.5 8 28.5 26v156q-50 0 -80 -27t-30 -84q0 -38 13.5 -58.5t39.5 -20.5q17 0 28.5 8zM560.5 881.5q32.5 -27.5 32.5 -72.5q0 -26 -13 -41.5t-39 -34.5q-20 -14 -29.5 -24.5t-9.5 -25.5v-1h-87q-1 4 -1 11q0 26 14 44t38 38q14 11 21 19t7 15q0 23 -24 23q-30 0 -35 -38
l-90 2q1 28 17.5 54t45.5 42.5t65 16.5q55 0 87.5 -27.5zM200 784h98l113 -175h-122l-47 97l-57 -97h-102z" />
    <glyph glyph-name="uni1EAA" unicode="&#x1eaa;" horiz-adv-x="552" 
d="M12 0l158 741l209 9l162 -744l-160 -6l-27 161h-179l-32 -161h-131zM202 281h125l-69 359zM145 999l-7 90q25 27 48 43t50 16q14 0 26.5 -4.5t33.5 -14.5q19 -10 32.5 -15t28.5 -5q22 0 41.5 12t28.5 27l22 -79q0 -3 -13 -21t-33.5 -33.5t-45.5 -15.5q-16 0 -29 6t-34 18
q-19 13 -33 19t-31 6q-41 0 -85 -49zM236 971h98l113 -175h-122l-47 97l-57 -97h-102z" />
    <glyph glyph-name="uni1EAB" unicode="&#x1eab;" horiz-adv-x="471" 
d="M88 9.5q-29 22.5 -45 61t-16 86.5q0 109 74.5 153.5t173.5 50.5q0 54 -7 80t-34 26q-23 0 -35 -18t-15 -46l-137 24q10 77 63 110t124 33q91 0 136.5 -48t45.5 -125v-291q0 -47 15 -100l-137 -12l-16 69q-18 -32 -53 -54t-72 -22q-36 0 -65 22.5zM246.5 95
q11.5 8 28.5 26v156q-50 0 -80 -27t-30 -84q0 -38 13.5 -58.5t39.5 -20.5q17 0 28.5 8zM113 812l-7 90q25 27 48 43t50 16q14 0 26.5 -4.5t33.5 -14.5q19 -10 32.5 -15t28.5 -5q22 0 41.5 12t28.5 27l22 -79q0 -3 -13 -21t-33.5 -33.5t-45.5 -15.5q-16 0 -29 6t-34 18
q-19 13 -33 19t-31 6q-41 0 -85 -49zM204 784h98l113 -175h-122l-47 97l-57 -97h-102z" />
    <glyph glyph-name="uni1EAC" unicode="&#x1eac;" horiz-adv-x="552" 
d="M12 0l158 741l209 9l162 -744l-160 -6l-27 161h-179l-32 -161h-131zM202 281h125l-69 359zM112 797l117 235h98l113 -235h-122l-47 142l-57 -142h-102zM205 -220v141h141v-141h-141z" />
    <glyph glyph-name="uni1EAD" unicode="&#x1ead;" horiz-adv-x="471" 
d="M88 9.5q-29 22.5 -45 61t-16 86.5q0 109 74.5 153.5t173.5 50.5q0 54 -7 80t-34 26q-23 0 -35 -18t-15 -46l-137 24q10 77 63 110t124 33q91 0 136.5 -48t45.5 -125v-291q0 -47 15 -100l-137 -12l-16 69q-18 -32 -53 -54t-72 -22q-36 0 -65 22.5zM246.5 95
q11.5 8 28.5 26v156q-50 0 -80 -27t-30 -84q0 -38 13.5 -58.5t39.5 -20.5q17 0 28.5 8zM80 609l117 235h98l113 -235h-122l-47 142l-57 -142h-102zM164 -220v141h141v-141h-141z" />
    <glyph glyph-name="uni1EAE" unicode="&#x1eae;" horiz-adv-x="552" 
d="M12 0l158 741l209 9l162 -744l-160 -6l-27 161h-179l-32 -161h-131zM202 281h125l-69 359zM161.5 852.5q-36.5 39.5 -43.5 106.5h84q1 -3 6 -20t19.5 -25.5t39.5 -8.5t37.5 7.5t16 16t10.5 30.5h84q-7 -66 -43 -106t-103 -40q-71 0 -107.5 39.5zM272 976l-52 50l130 197
l103 -95z" />
    <glyph glyph-name="uni1EAF" unicode="&#x1eaf;" horiz-adv-x="471" 
d="M88 9.5q-29 22.5 -45 61t-16 86.5q0 109 74.5 153.5t173.5 50.5q0 54 -7 80t-34 26q-23 0 -35 -18t-15 -46l-137 24q10 77 63 110t124 33q91 0 136.5 -48t45.5 -125v-291q0 -47 15 -100l-137 -12l-16 69q-18 -32 -53 -54t-72 -22q-36 0 -65 22.5zM246.5 95
q11.5 8 28.5 26v156q-50 0 -80 -27t-30 -84q0 -38 13.5 -58.5t39.5 -20.5q17 0 28.5 8zM129.5 665.5q-36.5 39.5 -43.5 106.5h84q1 -3 6 -20t19.5 -25.5t39.5 -8.5t37.5 7.5t16 16t10.5 30.5h84q-7 -66 -43 -106t-103 -40q-71 0 -107.5 39.5zM240 789l-52 50l130 197
l103 -95z" />
    <glyph glyph-name="uni1EB0" unicode="&#x1eb0;" horiz-adv-x="552" 
d="M12 0l158 741l209 9l162 -744l-160 -6l-27 161h-179l-32 -161h-131zM202 281h125l-69 359zM175.5 852.5q-36.5 39.5 -43.5 106.5h84q1 -3 6 -20t19.5 -25.5t39.5 -8.5t37.5 7.5t16 16t10.5 30.5h84q-7 -66 -43 -106t-103 -40q-71 0 -107.5 39.5zM280 972l-181 152l103 95
l130 -197z" />
    <glyph glyph-name="uni1EB1" unicode="&#x1eb1;" horiz-adv-x="471" 
d="M88 9.5q-29 22.5 -45 61t-16 86.5q0 109 74.5 153.5t173.5 50.5q0 54 -7 80t-34 26q-23 0 -35 -18t-15 -46l-137 24q10 77 63 110t124 33q91 0 136.5 -48t45.5 -125v-291q0 -47 15 -100l-137 -12l-16 69q-18 -32 -53 -54t-72 -22q-36 0 -65 22.5zM246.5 95
q11.5 8 28.5 26v156q-50 0 -80 -27t-30 -84q0 -38 13.5 -58.5t39.5 -20.5q17 0 28.5 8zM143.5 665.5q-36.5 39.5 -43.5 106.5h84q1 -3 6 -20t19.5 -25.5t39.5 -8.5t37.5 7.5t16 16t10.5 30.5h84q-7 -66 -43 -106t-103 -40q-71 0 -107.5 39.5zM248 785l-181 152l103 95
l130 -197z" />
    <glyph glyph-name="uni1EB2" unicode="&#x1eb2;" horiz-adv-x="552" 
d="M12 0l158 741l209 9l162 -744l-160 -6l-27 161h-179l-32 -161h-131zM202 281h125l-69 359zM168.5 852.5q-36.5 39.5 -43.5 106.5h84q1 -3 6 -20t19.5 -25.5t39.5 -8.5t37.5 7.5t16 16t10.5 30.5h84q-7 -66 -43 -106t-103 -40q-71 0 -107.5 39.5zM227 993q0 26 14 44
t38 38q14 11 21 19t7 15q0 23 -24 23q-30 0 -35 -38l-90 2q1 28 17.5 54t45.5 42.5t65 16.5q55 0 87.5 -27.5t32.5 -72.5q0 -26 -13 -41.5t-39 -34.5q-20 -14 -29.5 -24.5t-9.5 -25.5v-1h-87q-1 4 -1 11z" />
    <glyph glyph-name="uni1EB3" unicode="&#x1eb3;" horiz-adv-x="471" 
d="M88 9.5q-29 22.5 -45 61t-16 86.5q0 109 74.5 153.5t173.5 50.5q0 54 -7 80t-34 26q-23 0 -35 -18t-15 -46l-137 24q10 77 63 110t124 33q91 0 136.5 -48t45.5 -125v-291q0 -47 15 -100l-137 -12l-16 69q-18 -32 -53 -54t-72 -22q-36 0 -65 22.5zM246.5 95
q11.5 8 28.5 26v156q-50 0 -80 -27t-30 -84q0 -38 13.5 -58.5t39.5 -20.5q17 0 28.5 8zM136.5 665.5q-36.5 39.5 -43.5 106.5h84q1 -3 6 -20t19.5 -25.5t39.5 -8.5t37.5 7.5t16 16t10.5 30.5h84q-7 -66 -43 -106t-103 -40q-71 0 -107.5 39.5zM195 806q0 26 14 44t38 38
q14 11 21 19t7 15q0 23 -24 23q-30 0 -35 -38l-90 2q1 28 17.5 54t45.5 42.5t65 16.5q55 0 87.5 -27.5t32.5 -72.5q0 -26 -13 -41.5t-39 -34.5q-20 -14 -29.5 -24.5t-9.5 -25.5v-1h-87q-1 4 -1 11z" />
    <glyph glyph-name="uni1EB4" unicode="&#x1eb4;" horiz-adv-x="552" 
d="M12 0l158 741l209 9l162 -744l-160 -6l-27 161h-179l-32 -161h-131zM202 281h125l-69 359zM172.5 852.5q-36.5 39.5 -43.5 106.5h84q1 -3 6 -20t19.5 -25.5t39.5 -8.5t37.5 7.5t16 16t10.5 30.5h84q-7 -66 -43 -106t-103 -40q-71 0 -107.5 39.5zM323 991q-13 6 -34 18
q-19 13 -33 19t-31 6q-41 0 -85 -49l-7 90q25 27 48 43t50 16q14 0 26.5 -4.5t33.5 -14.5q19 -10 32.5 -15t28.5 -5q22 0 41.5 12t28.5 27l22 -79q0 -3 -13 -21t-33.5 -33.5t-45.5 -15.5q-16 0 -29 6z" />
    <glyph glyph-name="uni1EB5" unicode="&#x1eb5;" horiz-adv-x="471" 
d="M88 9.5q-29 22.5 -45 61t-16 86.5q0 109 74.5 153.5t173.5 50.5q0 54 -7 80t-34 26q-23 0 -35 -18t-15 -46l-137 24q10 77 63 110t124 33q91 0 136.5 -48t45.5 -125v-291q0 -47 15 -100l-137 -12l-16 69q-18 -32 -53 -54t-72 -22q-36 0 -65 22.5zM246.5 95
q11.5 8 28.5 26v156q-50 0 -80 -27t-30 -84q0 -38 13.5 -58.5t39.5 -20.5q17 0 28.5 8zM140.5 665.5q-36.5 39.5 -43.5 106.5h84q1 -3 6 -20t19.5 -25.5t39.5 -8.5t37.5 7.5t16 16t10.5 30.5h84q-7 -66 -43 -106t-103 -40q-71 0 -107.5 39.5zM291 804q-13 6 -34 18
q-19 13 -33 19t-31 6q-41 0 -85 -49l-7 90q25 27 48 43t50 16q14 0 26.5 -4.5t33.5 -14.5q19 -10 32.5 -15t28.5 -5q22 0 41.5 12t28.5 27l22 -79q0 -3 -13 -21t-33.5 -33.5t-45.5 -15.5q-16 0 -29 6z" />
    <glyph glyph-name="uni1EB6" unicode="&#x1eb6;" horiz-adv-x="552" 
d="M12 0l158 741l209 9l162 -744l-160 -6l-27 161h-179l-32 -161h-131zM202 281h125l-69 359zM170.5 853.5q-36.5 39.5 -43.5 106.5h84q1 -3 6 -20t19.5 -25.5t39.5 -8.5t37.5 7.5t16 16t10.5 30.5h84q-7 -66 -43 -106t-103 -40q-71 0 -107.5 39.5zM205 -220v141h141v-141
h-141z" />
    <glyph glyph-name="uni1EB7" unicode="&#x1eb7;" horiz-adv-x="471" 
d="M184 -9q-13 -4 -31 -4q-36 0 -65 22.5t-45 61t-16 86.5q0 109 74.5 153.5t173.5 50.5q0 54 -7 80t-34 26q-23 0 -35 -18t-15 -46l-137 24q10 77 63 110t124 33q91 0 136.5 -48t45.5 -125v-291q0 -47 15 -100l-135 -12q-28 -10 -59 -10q-25 0 -53 7zM195 250
q-30 -27 -30 -84q0 -23 4 -36h1l5 -17q14 -26 43 -26q17 0 28.5 8t28.5 26v156q-50 0 -80 -27zM164 -220v141h141v-141h-141z" />
    <glyph glyph-name="uni1EB8" unicode="&#x1eb8;" horiz-adv-x="483" 
d="M70 0v750h381l-12 -117h-222v-179h158l-1 -126h-157v-211h242l-12 -117h-377zM171 -220v141h141v-141h-141z" />
    <glyph glyph-name="uni1EB9" unicode="&#x1eb9;" horiz-adv-x="471" 
d="M87 66.5q-53 79.5 -53 211.5q0 134 54 213t157 79q98 0 150 -79t52 -213q0 -8 -3 -11.5t-3 -4.5h-267q0 -65 17 -118.5t52 -53.5q39 0 58 45t20 47l106 -40q-21 -72 -67 -113.5t-120 -41.5q-100 0 -153 79.5zM309 343q0 60 -16 95t-50 35q-17 0 -33 -17t-26 -47t-10 -66
h135zM165 -220v141h141v-141h-141z" />
    <glyph glyph-name="uni1EBA" unicode="&#x1eba;" horiz-adv-x="483" 
d="M70 0v750h381l-12 -117h-222v-179h158l-1 -126h-157v-211h242l-12 -117h-377zM201 801q0 26 14 44t38 38q14 11 21 19t7 15q0 23 -24 23q-30 0 -35 -38l-90 2q1 28 17.5 54t45.5 42.5t65 16.5q55 0 87.5 -27.5t32.5 -72.5q0 -26 -13 -41.5t-39 -34.5q-20 -14 -29.5 -24.5
t-9.5 -25.5v-1h-87q-1 4 -1 11z" />
    <glyph glyph-name="uni1EBB" unicode="&#x1ebb;" horiz-adv-x="471" 
d="M87 66.5q-53 79.5 -53 211.5q0 134 54 213t157 79q98 0 150 -79t52 -213q0 -8 -3 -11.5t-3 -4.5h-267q0 -65 17 -118.5t52 -53.5q39 0 58 45t20 47l106 -40q-21 -72 -67 -113.5t-120 -41.5q-100 0 -153 79.5zM309 343q0 60 -16 95t-50 35q-17 0 -33 -17t-26 -47t-10 -66
h135zM181 614q0 26 14 44t38 38q14 11 21 19t7 15q0 23 -24 23q-30 0 -35 -38l-90 2q1 28 17.5 54t45.5 42.5t65 16.5q55 0 87.5 -27.5t32.5 -72.5q0 -26 -13 -41.5t-39 -34.5q-20 -14 -29.5 -24.5t-9.5 -25.5v-1h-87q-1 4 -1 11z" />
    <glyph glyph-name="uni1EBC" unicode="&#x1ebc;" horiz-adv-x="483" 
d="M70 0v750h381l-12 -117h-222v-179h158l-1 -126h-157v-211h242l-12 -117h-377zM277 826q-13 6 -34 18q-19 13 -33 19t-31 6q-41 0 -85 -49l-7 90q25 27 48 43t50 16q14 0 26.5 -4.5t33.5 -14.5q19 -10 32.5 -15t28.5 -5q22 0 41.5 12t28.5 27l22 -79q0 -3 -13 -21
t-33.5 -33.5t-45.5 -15.5q-16 0 -29 6z" />
    <glyph glyph-name="uni1EBD" unicode="&#x1ebd;" horiz-adv-x="471" 
d="M87 66.5q-53 79.5 -53 211.5q0 134 54 213t157 79q98 0 150 -79t52 -213q0 -8 -3 -11.5t-3 -4.5h-267q0 -65 17 -118.5t52 -53.5q39 0 58 45t20 47l106 -40q-21 -72 -67 -113.5t-120 -41.5q-100 0 -153 79.5zM309 343q0 60 -16 95t-50 35q-17 0 -33 -17t-26 -47t-10 -66
h135zM271 607q-13 6 -34 18q-19 13 -33 19t-31 6q-41 0 -85 -49l-7 90q25 27 48 43t50 16q14 0 26.5 -4.5t33.5 -14.5q19 -10 32.5 -15t28.5 -5q22 0 41.5 12t28.5 27l22 -79q0 -3 -13 -21t-33.5 -33.5t-45.5 -15.5q-16 0 -29 6z" />
    <glyph glyph-name="uni1EBE" unicode="&#x1ebe;" horiz-adv-x="483" 
d="M70 0v750h381l-12 -117h-222v-179h158l-1 -126h-157v-211h242l-12 -117h-377zM457 1095l98 -82l-141 -118l-47 37zM195 991h98l113 -175h-122l-47 97l-57 -97h-102z" />
    <glyph glyph-name="uni1EBF" unicode="&#x1ebf;" horiz-adv-x="471" 
d="M87 66.5q-53 79.5 -53 211.5q0 134 54 213t157 79q98 0 150 -79t52 -213q0 -8 -3 -11.5t-3 -4.5h-267q0 -65 17 -118.5t52 -53.5q39 0 58 45t20 47l106 -40q-21 -72 -67 -113.5t-120 -41.5q-100 0 -153 79.5zM309 343q0 60 -16 95t-50 35q-17 0 -33 -17t-26 -47t-10 -66
h135zM451 908l98 -82l-141 -118l-47 37zM189 804h98l113 -175h-122l-47 97l-57 -97h-102z" />
    <glyph glyph-name="uni1EC0" unicode="&#x1ec0;" horiz-adv-x="483" 
d="M70 0v750h381l-12 -117h-222v-179h158l-1 -126h-157v-211h242l-12 -117h-377zM35 1075l90 -163l-47 -37l-141 118zM413 796h-122l-47 97l-57 -97h-102l117 175h98z" />
    <glyph glyph-name="uni1EC1" unicode="&#x1ec1;" horiz-adv-x="471" 
d="M87 66.5q-53 79.5 -53 211.5q0 134 54 213t157 79q98 0 150 -79t52 -213q0 -8 -3 -11.5t-3 -4.5h-267q0 -65 17 -118.5t52 -53.5q39 0 58 45t20 47l106 -40q-21 -72 -67 -113.5t-120 -41.5q-100 0 -153 79.5zM309 343q0 60 -16 95t-50 35q-17 0 -33 -17t-26 -47t-10 -66
h135zM29 888l90 -163l-47 -37l-141 118zM407 609h-122l-47 97l-57 -97h-102l117 175h98z" />
    <glyph glyph-name="uni1EC2" unicode="&#x1ec2;" horiz-adv-x="483" 
d="M70 0v750h381l-12 -117h-222v-179h158l-1 -126h-157v-211h242l-12 -117h-377zM558.5 1068.5q32.5 -27.5 32.5 -72.5q0 -26 -13 -41.5t-39 -34.5q-20 -14 -29.5 -24.5t-9.5 -25.5v-1h-87q-1 4 -1 11q0 26 14 44t38 38q14 11 21 19t7 15q0 23 -24 23q-30 0 -35 -38l-90 2
q1 28 17.5 54t45.5 42.5t65 16.5q55 0 87.5 -27.5zM198 971h98l113 -175h-122l-47 97l-57 -97h-102z" />
    <glyph glyph-name="uni1EC3" unicode="&#x1ec3;" horiz-adv-x="471" 
d="M87 66.5q-53 79.5 -53 211.5q0 134 54 213t157 79q98 0 150 -79t52 -213q0 -8 -3 -11.5t-3 -4.5h-267q0 -65 17 -118.5t52 -53.5q39 0 58 45t20 47l106 -40q-21 -72 -67 -113.5t-120 -41.5q-100 0 -153 79.5zM309 343q0 60 -16 95t-50 35q-17 0 -33 -17t-26 -47t-10 -66
h135zM552.5 881.5q32.5 -27.5 32.5 -72.5q0 -26 -13 -41.5t-39 -34.5q-20 -14 -29.5 -24.5t-9.5 -25.5v-1h-87q-1 4 -1 11q0 26 14 44t38 38q14 11 21 19t7 15q0 23 -24 23q-30 0 -35 -38l-90 2q1 28 17.5 54t45.5 42.5t65 16.5q55 0 87.5 -27.5zM192 784h98l113 -175h-122
l-47 97l-57 -97h-102z" />
    <glyph glyph-name="uni1EC4" unicode="&#x1ec4;" horiz-adv-x="483" 
d="M70 0v750h381l-12 -117h-222v-179h158l-1 -126h-157v-211h242l-12 -117h-377zM111 999l-7 90q25 27 48 43t50 16q14 0 26.5 -4.5t33.5 -14.5q19 -10 32.5 -15t28.5 -5q22 0 41.5 12t28.5 27l22 -79q0 -3 -13 -21t-33.5 -33.5t-45.5 -15.5q-16 0 -29 6t-34 18
q-19 13 -33 19t-31 6q-41 0 -85 -49zM202 971h98l113 -175h-122l-47 97l-57 -97h-102z" />
    <glyph glyph-name="uni1EC5" unicode="&#x1ec5;" horiz-adv-x="471" 
d="M87 66.5q-53 79.5 -53 211.5q0 134 54 213t157 79q98 0 150 -79t52 -213q0 -8 -3 -11.5t-3 -4.5h-267q0 -65 17 -118.5t52 -53.5q39 0 58 45t20 47l106 -40q-21 -72 -67 -113.5t-120 -41.5q-100 0 -153 79.5zM309 343q0 60 -16 95t-50 35q-17 0 -33 -17t-26 -47t-10 -66
h135zM105 812l-7 90q25 27 48 43t50 16q14 0 26.5 -4.5t33.5 -14.5q19 -10 32.5 -15t28.5 -5q22 0 41.5 12t28.5 27l22 -79q0 -3 -13 -21t-33.5 -33.5t-45.5 -15.5q-16 0 -29 6t-34 18q-19 13 -33 19t-31 6q-41 0 -85 -49zM196 784h98l113 -175h-122l-47 97l-57 -97h-102z
" />
    <glyph glyph-name="uni1EC6" unicode="&#x1ec6;" horiz-adv-x="483" 
d="M70 0v750h381l-12 -117h-222v-179h158l-1 -126h-157v-211h242l-12 -117h-377zM78 797l117 235h98l113 -235h-122l-47 142l-57 -142h-102zM171 -220v141h141v-141h-141z" />
    <glyph glyph-name="uni1EC7" unicode="&#x1ec7;" horiz-adv-x="471" 
d="M87 66.5q-53 79.5 -53 211.5q0 134 54 213t157 79q98 0 150 -79t52 -213q0 -8 -3 -11.5t-3 -4.5h-267q0 -65 17 -118.5t52 -53.5q39 0 58 45t20 47l106 -40q-21 -72 -67 -113.5t-120 -41.5q-100 0 -153 79.5zM309 343q0 60 -16 95t-50 35q-17 0 -33 -17t-26 -47t-10 -66
h135zM72 609l117 235h98l113 -235h-122l-47 142l-57 -142h-102zM165 -220v141h141v-141h-141z" />
    <glyph glyph-name="uni1EC8" unicode="&#x1ec8;" horiz-adv-x="287" 
d="M70 -6v744l147 12v-744zM103 801q0 26 14 44t38 38q14 11 21 19t7 15q0 23 -24 23q-30 0 -35 -38l-90 2q1 28 17.5 54t45.5 42.5t65 16.5q55 0 87.5 -27.5t32.5 -72.5q0 -26 -13 -41.5t-39 -34.5q-20 -14 -29.5 -24.5t-9.5 -25.5v-1h-87q-1 4 -1 11z" />
    <glyph glyph-name="uni1EC9" unicode="&#x1ec9;" horiz-adv-x="262" 
d="M61 -6v557l140 12v-557zM76 614q0 26 14 44t38 38q14 11 21 19t7 15q0 23 -24 23q-30 0 -35 -38l-90 2q1 28 17.5 54t45.5 42.5t65 16.5q55 0 87.5 -27.5t32.5 -72.5q0 -26 -13 -41.5t-39 -34.5q-20 -14 -29.5 -24.5t-9.5 -25.5v-1h-87q-1 4 -1 11z" />
    <glyph glyph-name="uni1ECA" unicode="&#x1eca;" horiz-adv-x="287" 
d="M70 -6v744l147 12v-744zM73 -220v141h141v-141h-141z" />
    <glyph glyph-name="uni1ECB" unicode="&#x1ecb;" horiz-adv-x="263" 
d="M62 635v145l140 10v-149zM61 -6v557l140 12v-557zM56 -220v141h141v-141h-141z" />
    <glyph glyph-name="uni1ECC" unicode="&#x1ecc;" horiz-adv-x="549" 
d="M93.5 95.5q-51.5 109.5 -51.5 283.5q0 185 55 285t177 100q233 0 233 -381q0 -171 -52.5 -284t-182.5 -113q-127 0 -178.5 109.5zM344 173.5q17 69.5 17 210.5q0 113 -16.5 187.5t-70.5 74.5t-70 -74t-16 -187q0 -142 16.5 -211.5t69.5 -69.5t70 69.5zM204 -220v141h141
v-141h-141z" />
    <glyph glyph-name="uni1ECD" unicode="&#x1ecd;" horiz-adv-x="490" 
d="M88.5 67q-54.5 80 -54.5 213q0 132 54 211t156 79q101 0 156.5 -79t55.5 -211t-55.5 -212.5t-156.5 -80.5t-155.5 80zM302 146q13 55 13 135t-13 135t-58 55t-57 -52t-12 -127q0 -92 12 -146.5t57 -54.5t58 55zM169 -220v141h141v-141h-141z" />
    <glyph glyph-name="uni1ECE" unicode="&#x1ece;" horiz-adv-x="549" 
d="M93.5 95.5q-51.5 109.5 -51.5 283.5q0 185 55 285t177 100q233 0 233 -381q0 -171 -52.5 -284t-182.5 -113q-127 0 -178.5 109.5zM344 173.5q17 69.5 17 210.5q0 113 -16.5 187.5t-70.5 74.5t-70 -74t-16 -187q0 -142 16.5 -211.5t69.5 -69.5t70 69.5zM234 801
q0 26 14 44t38 38q14 11 21 19t7 15q0 23 -24 23q-30 0 -35 -38l-90 2q1 28 17.5 54t45.5 42.5t65 16.5q55 0 87.5 -27.5t32.5 -72.5q0 -26 -13 -41.5t-39 -34.5q-20 -14 -29.5 -24.5t-9.5 -25.5v-1h-87q-1 4 -1 11z" />
    <glyph glyph-name="uni1ECF" unicode="&#x1ecf;" horiz-adv-x="490" 
d="M88.5 67q-54.5 80 -54.5 213q0 132 54 211t156 79q101 0 156.5 -79t55.5 -211t-55.5 -212.5t-156.5 -80.5t-155.5 80zM302 146q13 55 13 135t-13 135t-58 55t-57 -52t-12 -127q0 -92 12 -146.5t57 -54.5t58 55zM190 614q0 26 14 44t38 38q14 11 21 19t7 15q0 23 -24 23
q-30 0 -35 -38l-90 2q1 28 17.5 54t45.5 42.5t65 16.5q55 0 87.5 -27.5t32.5 -72.5q0 -26 -13 -41.5t-39 -34.5q-20 -14 -29.5 -24.5t-9.5 -25.5v-1h-87q-1 4 -1 11z" />
    <glyph glyph-name="uni1ED0" unicode="&#x1ed0;" horiz-adv-x="549" 
d="M93.5 95.5q-51.5 109.5 -51.5 283.5q0 185 55 285t177 100q233 0 233 -381q0 -171 -52.5 -284t-182.5 -113q-127 0 -178.5 109.5zM344 173.5q17 69.5 17 210.5q0 113 -16.5 187.5t-70.5 74.5t-70 -74t-16 -187q0 -142 16.5 -211.5t69.5 -69.5t70 69.5zM490 1095l98 -82
l-141 -118l-47 37zM228 991h98l113 -175h-122l-47 97l-57 -97h-102z" />
    <glyph glyph-name="uni1ED1" unicode="&#x1ed1;" horiz-adv-x="490" 
d="M88.5 67q-54.5 80 -54.5 213q0 132 54 211t156 79q101 0 156.5 -79t55.5 -211t-55.5 -212.5t-156.5 -80.5t-155.5 80zM302 146q13 55 13 135t-13 135t-58 55t-57 -52t-12 -127q0 -92 12 -146.5t57 -54.5t58 55zM460 908l98 -82l-141 -118l-47 37zM198 804h98l113 -175
h-122l-47 97l-57 -97h-102z" />
    <glyph glyph-name="uni1ED2" unicode="&#x1ed2;" horiz-adv-x="549" 
d="M93.5 95.5q-51.5 109.5 -51.5 283.5q0 185 55 285t177 100q233 0 233 -381q0 -171 -52.5 -284t-182.5 -113q-127 0 -178.5 109.5zM344 173.5q17 69.5 17 210.5q0 113 -16.5 187.5t-70.5 74.5t-70 -74t-16 -187q0 -142 16.5 -211.5t69.5 -69.5t70 69.5zM68 1075l90 -163
l-47 -37l-141 118zM446 796h-122l-47 97l-57 -97h-102l117 175h98z" />
    <glyph glyph-name="uni1ED3" unicode="&#x1ed3;" horiz-adv-x="490" 
d="M88.5 67q-54.5 80 -54.5 213q0 132 54 211t156 79q101 0 156.5 -79t55.5 -211t-55.5 -212.5t-156.5 -80.5t-155.5 80zM302 146q13 55 13 135t-13 135t-58 55t-57 -52t-12 -127q0 -92 12 -146.5t57 -54.5t58 55zM38 888l90 -163l-47 -37l-141 118zM416 609h-122l-47 97
l-57 -97h-102l117 175h98z" />
    <glyph glyph-name="uni1ED4" unicode="&#x1ed4;" horiz-adv-x="549" 
d="M93.5 95.5q-51.5 109.5 -51.5 283.5q0 185 55 285t177 100q233 0 233 -381q0 -171 -52.5 -284t-182.5 -113q-127 0 -178.5 109.5zM344 173.5q17 69.5 17 210.5q0 113 -16.5 187.5t-70.5 74.5t-70 -74t-16 -187q0 -142 16.5 -211.5t69.5 -69.5t70 69.5zM591.5 1068.5
q32.5 -27.5 32.5 -72.5q0 -26 -13 -41.5t-39 -34.5q-20 -14 -29.5 -24.5t-9.5 -25.5v-1h-87q-1 4 -1 11q0 26 14 44t38 38q14 11 21 19t7 15q0 23 -24 23q-30 0 -35 -38l-90 2q1 28 17.5 54t45.5 42.5t65 16.5q55 0 87.5 -27.5zM231 971h98l113 -175h-122l-47 97l-57 -97
h-102z" />
    <glyph glyph-name="uni1ED5" unicode="&#x1ed5;" horiz-adv-x="490" 
d="M88.5 67q-54.5 80 -54.5 213q0 132 54 211t156 79q101 0 156.5 -79t55.5 -211t-55.5 -212.5t-156.5 -80.5t-155.5 80zM302 146q13 55 13 135t-13 135t-58 55t-57 -52t-12 -127q0 -92 12 -146.5t57 -54.5t58 55zM561.5 881.5q32.5 -27.5 32.5 -72.5q0 -26 -13 -41.5
t-39 -34.5q-20 -14 -29.5 -24.5t-9.5 -25.5v-1h-87q-1 4 -1 11q0 26 14 44t38 38q14 11 21 19t7 15q0 23 -24 23q-30 0 -35 -38l-90 2q1 28 17.5 54t45.5 42.5t65 16.5q55 0 87.5 -27.5zM201 784h98l113 -175h-122l-47 97l-57 -97h-102z" />
    <glyph glyph-name="uni1ED6" unicode="&#x1ed6;" horiz-adv-x="549" 
d="M93.5 95.5q-51.5 109.5 -51.5 283.5q0 185 55 285t177 100q233 0 233 -381q0 -171 -52.5 -284t-182.5 -113q-127 0 -178.5 109.5zM344 173.5q17 69.5 17 210.5q0 113 -16.5 187.5t-70.5 74.5t-70 -74t-16 -187q0 -142 16.5 -211.5t69.5 -69.5t70 69.5zM144 999l-7 90
q25 27 48 43t50 16q14 0 26.5 -4.5t33.5 -14.5q19 -10 32.5 -15t28.5 -5q22 0 41.5 12t28.5 27l22 -79q0 -3 -13 -21t-33.5 -33.5t-45.5 -15.5q-16 0 -29 6t-34 18q-19 13 -33 19t-31 6q-41 0 -85 -49zM235 971h98l113 -175h-122l-47 97l-57 -97h-102z" />
    <glyph glyph-name="uni1ED7" unicode="&#x1ed7;" horiz-adv-x="490" 
d="M88.5 67q-54.5 80 -54.5 213q0 132 54 211t156 79q101 0 156.5 -79t55.5 -211t-55.5 -212.5t-156.5 -80.5t-155.5 80zM302 146q13 55 13 135t-13 135t-58 55t-57 -52t-12 -127q0 -92 12 -146.5t57 -54.5t58 55zM114 812l-7 90q25 27 48 43t50 16q14 0 26.5 -4.5
t33.5 -14.5q19 -10 32.5 -15t28.5 -5q22 0 41.5 12t28.5 27l22 -79q0 -3 -13 -21t-33.5 -33.5t-45.5 -15.5q-16 0 -29 6t-34 18q-19 13 -33 19t-31 6q-41 0 -85 -49zM205 784h98l113 -175h-122l-47 97l-57 -97h-102z" />
    <glyph glyph-name="uni1ED8" unicode="&#x1ed8;" horiz-adv-x="549" 
d="M93.5 95.5q-51.5 109.5 -51.5 283.5q0 185 55 285t177 100q233 0 233 -381q0 -171 -52.5 -284t-182.5 -113q-127 0 -178.5 109.5zM344 173.5q17 69.5 17 210.5q0 113 -16.5 187.5t-70.5 74.5t-70 -74t-16 -187q0 -142 16.5 -211.5t69.5 -69.5t70 69.5zM111 797l117 235
h98l113 -235h-122l-47 142l-57 -142h-102zM204 -220v141h141v-141h-141z" />
    <glyph glyph-name="uni1ED9" unicode="&#x1ed9;" horiz-adv-x="490" 
d="M88.5 67q-54.5 80 -54.5 213q0 132 54 211t156 79q101 0 156.5 -79t55.5 -211t-55.5 -212.5t-156.5 -80.5t-155.5 80zM302 146q13 55 13 135t-13 135t-58 55t-57 -52t-12 -127q0 -92 12 -146.5t57 -54.5t58 55zM81 609l117 235h98l113 -235h-122l-47 142l-57 -142h-102z
M169 -220v141h141v-141h-141z" />
    <glyph glyph-name="uni1EDA" unicode="&#x1eda;" horiz-adv-x="643" 
d="M573.5 599.5q-32.5 -38.5 -80.5 -50.5q14 -75 14 -166q0 -171 -52.5 -284t-182.5 -113q-127 0 -178.5 109.5t-51.5 283.5q0 185 55 285t177 100q137 0 194 -132q14 6 22 18t8 25q0 17 -8 38t-19 40l99 37q14 -19 25 -42t11 -57q0 -53 -32.5 -91.5zM344 173.5
q17 69.5 17 210.5q0 113 -16.5 187.5t-70.5 74.5t-70 -74t-16 -187q0 -142 16.5 -211.5t69.5 -69.5t70 69.5zM291 793l-52 50l130 197l103 -95z" />
    <glyph glyph-name="uni1EDB" unicode="&#x1edb;" horiz-adv-x="566" 
d="M575.5 416q-20.5 -33 -53.5 -52t-70 -21q4 -27 4 -63q0 -132 -55.5 -212.5t-156.5 -80.5t-155.5 80t-54.5 213q0 132 54 211t156 79q68 0 116 -37t73 -105q26 -1 40.5 13t14.5 33q0 17 -8 38t-19 40l99 37q14 -19 25 -42t11 -57q0 -41 -20.5 -74zM302 146q13 55 13 135
t-13 135t-58 55t-57 -52t-12 -127q0 -92 12 -146.5t57 -54.5t58 55zM261 605l-52 50l130 197l103 -95z" />
    <glyph glyph-name="uni1EDC" unicode="&#x1edc;" horiz-adv-x="643" 
d="M573.5 599.5q-32.5 -38.5 -80.5 -50.5q14 -75 14 -166q0 -171 -52.5 -284t-182.5 -113q-127 0 -178.5 109.5t-51.5 283.5q0 185 55 285t177 100q137 0 194 -132q14 6 22 18t8 25q0 17 -8 38t-19 40l99 37q14 -19 25 -42t11 -57q0 -53 -32.5 -91.5zM344 173.5
q17 69.5 17 210.5q0 113 -16.5 187.5t-70.5 74.5t-70 -74t-16 -187q0 -142 16.5 -211.5t69.5 -69.5t70 69.5zM272 793l-181 152l103 95l130 -197z" />
    <glyph glyph-name="uni1EDD" unicode="&#x1edd;" horiz-adv-x="566" 
d="M575.5 416q-20.5 -33 -53.5 -52t-70 -21q4 -27 4 -63q0 -132 -55.5 -212.5t-156.5 -80.5t-155.5 80t-54.5 213q0 132 54 211t156 79q68 0 116 -37t73 -105q26 -1 40.5 13t14.5 33q0 17 -8 38t-19 40l99 37q14 -19 25 -42t11 -57q0 -41 -20.5 -74zM302 146q13 55 13 135
t-13 135t-58 55t-57 -52t-12 -127q0 -92 12 -146.5t57 -54.5t58 55zM262 605l-181 152l103 95l130 -197z" />
    <glyph glyph-name="uni1EDE" unicode="&#x1ede;" horiz-adv-x="643" 
d="M573.5 599.5q-32.5 -38.5 -80.5 -50.5q14 -75 14 -166q0 -171 -52.5 -284t-182.5 -113q-127 0 -178.5 109.5t-51.5 283.5q0 185 55 285t177 100q137 0 194 -132q14 6 22 18t8 25q0 17 -8 38t-19 40l99 37q14 -19 25 -42t11 -57q0 -53 -32.5 -91.5zM344 173.5
q17 69.5 17 210.5q0 113 -16.5 187.5t-70.5 74.5t-70 -74t-16 -187q0 -142 16.5 -211.5t69.5 -69.5t70 69.5zM234 801q0 26 14 44t38 38q14 11 21 19t7 15q0 23 -24 23q-30 0 -35 -38l-90 2q1 28 17.5 54t45.5 42.5t65 16.5q55 0 87.5 -27.5t32.5 -72.5q0 -26 -13 -41.5
t-39 -34.5q-20 -14 -29.5 -24.5t-9.5 -25.5v-1h-87q-1 4 -1 11z" />
    <glyph glyph-name="uni1EDF" unicode="&#x1edf;" horiz-adv-x="566" 
d="M575.5 416q-20.5 -33 -53.5 -52t-70 -21q4 -27 4 -63q0 -132 -55.5 -212.5t-156.5 -80.5t-155.5 80t-54.5 213q0 132 54 211t156 79q68 0 116 -37t73 -105q26 -1 40.5 13t14.5 33q0 17 -8 38t-19 40l99 37q14 -19 25 -42t11 -57q0 -41 -20.5 -74zM302 146q13 55 13 135
t-13 135t-58 55t-57 -52t-12 -127q0 -92 12 -146.5t57 -54.5t58 55zM190 614q0 26 14 44t38 38q14 11 21 19t7 15q0 23 -24 23q-30 0 -35 -38l-90 2q1 28 17.5 54t45.5 42.5t65 16.5q55 0 87.5 -27.5t32.5 -72.5q0 -26 -13 -41.5t-39 -34.5q-20 -14 -29.5 -24.5t-9.5 -25.5
v-1h-87q-1 4 -1 11z" />
    <glyph glyph-name="uni1EE0" unicode="&#x1ee0;" horiz-adv-x="643" 
d="M573.5 599.5q-32.5 -38.5 -80.5 -50.5q14 -75 14 -166q0 -171 -52.5 -284t-182.5 -113q-127 0 -178.5 109.5t-51.5 283.5q0 185 55 285t177 100q137 0 194 -132q14 6 22 18t8 25q0 17 -8 38t-19 40l99 37q14 -19 25 -42t11 -57q0 -53 -32.5 -91.5zM344 173.5
q17 69.5 17 210.5q0 113 -16.5 187.5t-70.5 74.5t-70 -74t-16 -187q0 -142 16.5 -211.5t69.5 -69.5t70 69.5zM310 826q-13 6 -34 18q-19 13 -33 19t-31 6q-41 0 -85 -49l-7 90q25 27 48 43t50 16q14 0 26.5 -4.5t33.5 -14.5q19 -10 32.5 -15t28.5 -5q22 0 41.5 12t28.5 27
l22 -79q0 -3 -13 -21t-33.5 -33.5t-45.5 -15.5q-16 0 -29 6z" />
    <glyph glyph-name="uni1EE1" unicode="&#x1ee1;" horiz-adv-x="566" 
d="M575.5 416q-20.5 -33 -53.5 -52t-70 -21q4 -27 4 -63q0 -132 -55.5 -212.5t-156.5 -80.5t-155.5 80t-54.5 213q0 132 54 211t156 79q68 0 116 -37t73 -105q26 -1 40.5 13t14.5 33q0 17 -8 38t-19 40l99 37q14 -19 25 -42t11 -57q0 -41 -20.5 -74zM302 146q13 55 13 135
t-13 135t-58 55t-57 -52t-12 -127q0 -92 12 -146.5t57 -54.5t58 55zM280 607q-13 6 -34 18q-19 13 -33 19t-31 6q-41 0 -85 -49l-7 90q25 27 48 43t50 16q14 0 26.5 -4.5t33.5 -14.5q19 -10 32.5 -15t28.5 -5q22 0 41.5 12t28.5 27l22 -79q0 -3 -13 -21t-33.5 -33.5
t-45.5 -15.5q-16 0 -29 6z" />
    <glyph glyph-name="uni1EE2" unicode="&#x1ee2;" horiz-adv-x="643" 
d="M573.5 599.5q-32.5 -38.5 -80.5 -50.5q14 -75 14 -166q0 -171 -52.5 -284t-182.5 -113q-127 0 -178.5 109.5t-51.5 283.5q0 185 55 285t177 100q137 0 194 -132q14 6 22 18t8 25q0 17 -8 38t-19 40l99 37q14 -19 25 -42t11 -57q0 -53 -32.5 -91.5zM344 173.5
q17 69.5 17 210.5q0 113 -16.5 187.5t-70.5 74.5t-70 -74t-16 -187q0 -142 16.5 -211.5t69.5 -69.5t70 69.5zM204 -220v141h141v-141h-141z" />
    <glyph glyph-name="uni1EE3" unicode="&#x1ee3;" horiz-adv-x="566" 
d="M575.5 416q-20.5 -33 -53.5 -52t-70 -21q4 -27 4 -63q0 -132 -55.5 -212.5t-156.5 -80.5t-155.5 80t-54.5 213q0 132 54 211t156 79q68 0 116 -37t73 -105q26 -1 40.5 13t14.5 33q0 17 -8 38t-19 40l99 37q14 -19 25 -42t11 -57q0 -41 -20.5 -74zM302 146q13 55 13 135
t-13 135t-58 55t-57 -52t-12 -127q0 -92 12 -146.5t57 -54.5t58 55zM169 -220v141h141v-141h-141z" />
    <glyph glyph-name="uni1EE4" unicode="&#x1ee4;" horiz-adv-x="568" 
d="M120 58q-56 72 -56 189v497l147 6v-515q0 -39 4.5 -66t22.5 -46t55 -19q35 0 51.5 19.5t20.5 46t4 67.5v501l134 12v-486q0 -106 -41.5 -192t-173.5 -86q-112 0 -168 72zM213 -220v141h141v-141h-141z" />
    <glyph glyph-name="uni1EE5" unicode="&#x1ee5;" horiz-adv-x="539" 
d="M92 25.5q-35 38.5 -35 103.5v422l140 12v-377q0 -40 13 -57.5t40 -17.5q21 0 45 10.5t43 33.5v396l141 12v-557l-141 -12v72q-35 -40 -76.5 -59.5t-79.5 -19.5q-55 0 -90 38.5zM199 -220v141h141v-141h-141z" />
    <glyph glyph-name="uni1EE6" unicode="&#x1ee6;" horiz-adv-x="568" 
d="M120 58q-56 72 -56 189v497l147 6v-515q0 -39 4.5 -66t22.5 -46t55 -19q35 0 51.5 19.5t20.5 46t4 67.5v501l134 12v-486q0 -106 -41.5 -192t-173.5 -86q-112 0 -168 72zM243 801q0 26 14 44t38 38q14 11 21 19t7 15q0 23 -24 23q-30 0 -35 -38l-90 2q1 28 17.5 54
t45.5 42.5t65 16.5q55 0 87.5 -27.5t32.5 -72.5q0 -26 -13 -41.5t-39 -34.5q-20 -14 -29.5 -24.5t-9.5 -25.5v-1h-87q-1 4 -1 11z" />
    <glyph glyph-name="uni1EE7" unicode="&#x1ee7;" horiz-adv-x="539" 
d="M92 25.5q-35 38.5 -35 103.5v422l140 12v-377q0 -40 13 -57.5t40 -17.5q21 0 45 10.5t43 33.5v396l141 12v-557l-141 -12v72q-35 -40 -76.5 -59.5t-79.5 -19.5q-55 0 -90 38.5zM215 614q0 26 14 44t38 38q14 11 21 19t7 15q0 23 -24 23q-30 0 -35 -38l-90 2q1 28 17.5 54
t45.5 42.5t65 16.5q55 0 87.5 -27.5t32.5 -72.5q0 -26 -13 -41.5t-39 -34.5q-20 -14 -29.5 -24.5t-9.5 -25.5v-1h-87q-1 4 -1 11z" />
    <glyph glyph-name="uni1EE8" unicode="&#x1ee8;" horiz-adv-x="641" 
d="M660 750q11 -23 11 -57q0 -42 -21.5 -75.5t-56 -52.5t-72.5 -19q-12 0 -18 1v-283q0 -106 -41.5 -192t-173.5 -86q-112 0 -168 72t-56 189v497l147 6v-515q0 -39 4.5 -66t22.5 -46t55 -19q35 0 51.5 19.5t20.5 46t4 67.5v501l134 12v-118q29 -3 44.5 11t15.5 34
q0 17 -8 38t-19 40l99 37q14 -19 25 -42zM300 793l-52 50l130 197l103 -95z" />
    <glyph glyph-name="uni1EE9" unicode="&#x1ee9;" horiz-adv-x="615" 
d="M634 547q11 -23 11 -57q0 -42 -21.5 -75.5t-56 -52.5t-72.5 -19q-11 0 -16 1v-338l-141 -12v72q-35 -40 -76.5 -59.5t-79.5 -19.5q-55 0 -90 38.5t-35 103.5v422l140 12v-377q0 -40 13 -57.5t40 -17.5q21 0 45 10.5t43 33.5v396l141 12v-135q28 -2 43 12.5t15 33.5
q0 17 -8 38t-19 40l99 37q14 -19 25 -42zM286 605l-52 50l130 197l103 -95z" />
    <glyph glyph-name="uni1EEA" unicode="&#x1eea;" horiz-adv-x="641" 
d="M660 750q11 -23 11 -57q0 -42 -21.5 -75.5t-56 -52.5t-72.5 -19q-12 0 -18 1v-283q0 -106 -41.5 -192t-173.5 -86q-112 0 -168 72t-56 189v497l147 6v-515q0 -39 4.5 -66t22.5 -46t55 -19q35 0 51.5 19.5t20.5 46t4 67.5v501l134 12v-118q29 -3 44.5 11t15.5 34
q0 17 -8 38t-19 40l99 37q14 -19 25 -42zM281 793l-181 152l103 95l130 -197z" />
    <glyph glyph-name="uni1EEB" unicode="&#x1eeb;" horiz-adv-x="615" 
d="M634 547q11 -23 11 -57q0 -42 -21.5 -75.5t-56 -52.5t-72.5 -19q-11 0 -16 1v-338l-141 -12v72q-35 -40 -76.5 -59.5t-79.5 -19.5q-55 0 -90 38.5t-35 103.5v422l140 12v-377q0 -40 13 -57.5t40 -17.5q21 0 45 10.5t43 33.5v396l141 12v-135q28 -2 43 12.5t15 33.5
q0 17 -8 38t-19 40l99 37q14 -19 25 -42zM287 605l-181 152l103 95l130 -197z" />
    <glyph glyph-name="uni1EEC" unicode="&#x1eec;" horiz-adv-x="641" 
d="M660 750q11 -23 11 -57q0 -42 -21.5 -75.5t-56 -52.5t-72.5 -19q-12 0 -18 1v-283q0 -106 -41.5 -192t-173.5 -86q-112 0 -168 72t-56 189v497l147 6v-515q0 -39 4.5 -66t22.5 -46t55 -19q35 0 51.5 19.5t20.5 46t4 67.5v501l134 12v-118q29 -3 44.5 11t15.5 34
q0 17 -8 38t-19 40l99 37q14 -19 25 -42zM243 801q0 26 14 44t38 38q14 11 21 19t7 15q0 23 -24 23q-30 0 -35 -38l-90 2q1 28 17.5 54t45.5 42.5t65 16.5q55 0 87.5 -27.5t32.5 -72.5q0 -26 -13 -41.5t-39 -34.5q-20 -14 -29.5 -24.5t-9.5 -25.5v-1h-87q-1 4 -1 11z" />
    <glyph glyph-name="uni1EED" unicode="&#x1eed;" horiz-adv-x="615" 
d="M634 547q11 -23 11 -57q0 -42 -21.5 -75.5t-56 -52.5t-72.5 -19q-11 0 -16 1v-338l-141 -12v72q-35 -40 -76.5 -59.5t-79.5 -19.5q-55 0 -90 38.5t-35 103.5v422l140 12v-377q0 -40 13 -57.5t40 -17.5q21 0 45 10.5t43 33.5v396l141 12v-135q28 -2 43 12.5t15 33.5
q0 17 -8 38t-19 40l99 37q14 -19 25 -42zM215 614q0 26 14 44t38 38q14 11 21 19t7 15q0 23 -24 23q-30 0 -35 -38l-90 2q1 28 17.5 54t45.5 42.5t65 16.5q55 0 87.5 -27.5t32.5 -72.5q0 -26 -13 -41.5t-39 -34.5q-20 -14 -29.5 -24.5t-9.5 -25.5v-1h-87q-1 4 -1 11z" />
    <glyph glyph-name="uni1EEE" unicode="&#x1eee;" horiz-adv-x="641" 
d="M660 750q11 -23 11 -57q0 -42 -21.5 -75.5t-56 -52.5t-72.5 -19q-12 0 -18 1v-283q0 -106 -41.5 -192t-173.5 -86q-112 0 -168 72t-56 189v497l147 6v-515q0 -39 4.5 -66t22.5 -46t55 -19q35 0 51.5 19.5t20.5 46t4 67.5v501l134 12v-118q29 -3 44.5 11t15.5 34
q0 17 -8 38t-19 40l99 37q14 -19 25 -42zM319 826q-13 6 -34 18q-19 13 -33 19t-31 6q-41 0 -85 -49l-7 90q25 27 48 43t50 16q14 0 26.5 -4.5t33.5 -14.5q19 -10 32.5 -15t28.5 -5q22 0 41.5 12t28.5 27l22 -79q0 -3 -13 -21t-33.5 -33.5t-45.5 -15.5q-16 0 -29 6z" />
    <glyph glyph-name="uni1EEF" unicode="&#x1eef;" horiz-adv-x="615" 
d="M634 547q11 -23 11 -57q0 -42 -21.5 -75.5t-56 -52.5t-72.5 -19q-11 0 -16 1v-338l-141 -12v72q-35 -40 -76.5 -59.5t-79.5 -19.5q-55 0 -90 38.5t-35 103.5v422l140 12v-377q0 -40 13 -57.5t40 -17.5q21 0 45 10.5t43 33.5v396l141 12v-135q28 -2 43 12.5t15 33.5
q0 17 -8 38t-19 40l99 37q14 -19 25 -42zM305 607q-13 6 -34 18q-19 13 -33 19t-31 6q-41 0 -85 -49l-7 90q25 27 48 43t50 16q14 0 26.5 -4.5t33.5 -14.5q19 -10 32.5 -15t28.5 -5q22 0 41.5 12t28.5 27l22 -79q0 -3 -13 -21t-33.5 -33.5t-45.5 -15.5q-16 0 -29 6z" />
    <glyph glyph-name="uni1EF0" unicode="&#x1ef0;" horiz-adv-x="641" 
d="M660 750q11 -23 11 -57q0 -42 -21.5 -75.5t-56 -52.5t-72.5 -19q-12 0 -18 1v-283q0 -106 -41.5 -192t-173.5 -86q-112 0 -168 72t-56 189v497l147 6v-515q0 -39 4.5 -66t22.5 -46t55 -19q35 0 51.5 19.5t20.5 46t4 67.5v501l134 12v-118q29 -3 44.5 11t15.5 34
q0 17 -8 38t-19 40l99 37q14 -19 25 -42zM213 -220v141h141v-141h-141z" />
    <glyph glyph-name="uni1EF1" unicode="&#x1ef1;" horiz-adv-x="615" 
d="M634 547q11 -23 11 -57q0 -42 -21.5 -75.5t-56 -52.5t-72.5 -19q-11 0 -16 1v-338l-141 -12v72q-35 -40 -76.5 -59.5t-79.5 -19.5q-55 0 -90 38.5t-35 103.5v422l140 12v-377q0 -40 13 -57.5t40 -17.5q21 0 45 10.5t43 33.5v396l141 12v-135q28 -2 43 12.5t15 33.5
q0 17 -8 38t-19 40l99 37q14 -19 25 -42zM199 -220v141h141v-141h-141z" />
    <glyph glyph-name="Ygrave" unicode="&#x1ef2;" horiz-adv-x="501" 
d="M179 -6v303l-180 453h161l103 -312l111 312h126l-173 -436v-308zM248 793l-181 152l103 95l130 -197z" />
    <glyph glyph-name="ygrave" unicode="&#x1ef3;" horiz-adv-x="440" 
d="M15 -172v117q37 -2 59 -2q88 0 88 82v28l-161 503l152 7l79 -353l75 350l127 1l-144 -551q-30 -108 -87.5 -148t-128.5 -40q-24 0 -59 6zM237 605l-181 152l103 95l130 -197z" />
    <glyph glyph-name="uni1EF4" unicode="&#x1ef4;" horiz-adv-x="501" 
d="M179 -6v303l-180 453h161l103 -312l111 312h126l-173 -436v-308zM180 -220v141h141v-141h-141z" />
    <glyph glyph-name="uni1EF5" unicode="&#x1ef5;" horiz-adv-x="440" 
d="M15 -172v117q37 -2 59 -2q88 0 88 82v28l-161 503l152 7l79 -353l75 350l127 1l-144 -551q-30 -108 -87.5 -148t-128.5 -40q-24 0 -59 6zM309 -171v141h141v-141h-141z" />
    <glyph glyph-name="uni1EF6" unicode="&#x1ef6;" horiz-adv-x="501" 
d="M179 -6v303l-180 453h161l103 -312l111 312h126l-173 -436v-308zM210 801q0 26 14 44t38 38q14 11 21 19t7 15q0 23 -24 23q-30 0 -35 -38l-90 2q1 28 17.5 54t45.5 42.5t65 16.5q55 0 87.5 -27.5t32.5 -72.5q0 -26 -13 -41.5t-39 -34.5q-20 -14 -29.5 -24.5t-9.5 -25.5
v-1h-87q-1 4 -1 11z" />
    <glyph glyph-name="uni1EF7" unicode="&#x1ef7;" horiz-adv-x="440" 
d="M15 -172v117q37 -2 59 -2q88 0 88 82v28l-161 503l152 7l79 -353l75 350l127 1l-144 -551q-30 -108 -87.5 -148t-128.5 -40q-24 0 -59 6zM165 614q0 26 14 44t38 38q14 11 21 19t7 15q0 23 -24 23q-30 0 -35 -38l-90 2q1 28 17.5 54t45.5 42.5t65 16.5q55 0 87.5 -27.5
t32.5 -72.5q0 -26 -13 -41.5t-39 -34.5q-20 -14 -29.5 -24.5t-9.5 -25.5v-1h-87q-1 4 -1 11z" />
    <glyph glyph-name="uni1EF8" unicode="&#x1ef8;" horiz-adv-x="501" 
d="M179 -6v303l-180 453h161l103 -312l111 312h126l-173 -436v-308zM286 826q-13 6 -34 18q-19 13 -33 19t-31 6q-41 0 -85 -49l-7 90q25 27 48 43t50 16q14 0 26.5 -4.5t33.5 -14.5q19 -10 32.5 -15t28.5 -5q22 0 41.5 12t28.5 27l22 -79q0 -3 -13 -21t-33.5 -33.5
t-45.5 -15.5q-16 0 -29 6z" />
    <glyph glyph-name="uni1EF9" unicode="&#x1ef9;" horiz-adv-x="440" 
d="M15 -172v117q37 -2 59 -2q88 0 88 82v28l-161 503l152 7l79 -353l75 350l127 1l-144 -551q-30 -108 -87.5 -148t-128.5 -40q-24 0 -59 6zM255 607q-13 6 -34 18q-19 13 -33 19t-31 6q-41 0 -85 -49l-7 90q25 27 48 43t50 16q14 0 26.5 -4.5t33.5 -14.5q19 -10 32.5 -15
t28.5 -5q22 0 41.5 12t28.5 27l22 -79q0 -3 -13 -21t-33.5 -33.5t-45.5 -15.5q-16 0 -29 6z" />
    <glyph glyph-name="endash" unicode="&#x2013;" horiz-adv-x="393" 
d="M56 234v117h281v-117h-281z" />
    <glyph glyph-name="emdash" unicode="&#x2014;" horiz-adv-x="673" 
d="M56 234v117h562v-117h-562z" />
    <glyph glyph-name="quoteleft" unicode="&#x2018;" horiz-adv-x="256" 
d="M47 609q0 86 71 123q30 16 70 18v-94q-43 0 -62 -23q-8 -11 -8 -24h94v-155l-165 -6v161z" />
    <glyph glyph-name="quoteright" unicode="&#x2019;" horiz-adv-x="224" 
d="M66 563q30 0 41 23q4 10 6 23l-71 -5v146h141v-141q0 -48 -16.5 -78t-41.5 -45q-28 -16 -59 -17v94z" />
    <glyph glyph-name="quotesinglbase" unicode="&#x201a;" horiz-adv-x="239" 
d="M72 -47q29 0 41 24q6 9 6 23h-70v141h140v-141q0 -48 -16.5 -78t-41.5 -45t-59 -18v94z" />
    <glyph glyph-name="quotedblleft" unicode="&#x201c;" horiz-adv-x="419" 
d="M47 609q0 87 58 123q27 17 59 18v-94q-29 0 -41 -23q-4 -10 -6 -24h71v-140l-141 -6v146zM234 609q0 86 59 123q25 16 59 18v-94q-31 0 -41 -23q-6 -10 -6 -24h70v-140l-141 -6v146z" />
    <glyph glyph-name="quotedblright" unicode="&#x201d;" horiz-adv-x="411" 
d="M66 563q30 0 41 23q4 10 6 23l-71 -5v146h141v-141q0 -48 -16.5 -78t-41.5 -45q-28 -16 -59 -17v94zM253 563q31 0 41 23q6 11 6 23l-70 -5v146h141v-141q0 -48 -17 -78t-42 -45q-26 -16 -59 -17v94z" />
    <glyph glyph-name="quotedblbase" unicode="&#x201e;" horiz-adv-x="426" 
d="M72 -47q29 0 41 24q6 9 6 23h-70v141h140v-141q0 -48 -16.5 -78t-41.5 -45t-59 -18v94zM260 -47q29 0 41 24q4 9 6 23h-71v141h141v-141q0 -48 -16.5 -78t-42.5 -45t-58 -18v94z" />
    <glyph glyph-name="dagger" unicode="&#x2020;" horiz-adv-x="375" 
d="M129 88v381h-106l6 94h100v134l117 6v-140h106l-6 -94h-100v-375z" />
    <glyph glyph-name="daggerdbl" unicode="&#x2021;" horiz-adv-x="401" 
d="M143 88v146h-106l6 94h100v141h-106l6 94h100v134l117 6v-140h105l-6 -94h-99v-141h105l-6 -94h-99v-140z" />
    <glyph glyph-name="bullet" unicode="&#x2022;" horiz-adv-x="399" 
d="M78.5 233.5q-43.5 45.5 -43.5 118.5t43.5 118.5t124.5 45.5q76 0 118.5 -46t42.5 -118q0 -73 -42.5 -118.5t-118.5 -45.5q-81 0 -124.5 45.5z" />
    <glyph glyph-name="ellipsis" unicode="&#x2026;" horiz-adv-x="797" 
d="M50 -6v147h140v-135zM329 -6v147h141v-135zM608 -6v147h141v-135z" />
    <glyph glyph-name="perthousand" unicode="&#x2030;" horiz-adv-x="1367" 
d="M167 13l508 742l81 -47l-504 -735zM91.5 376q-46.5 59 -46.5 158q0 98 46 157t134 59q89 0 136 -59.5t47 -156.5q0 -98 -47.5 -157.5t-135.5 -59.5q-87 0 -133.5 59zM273 447.5q15 35.5 15 88.5t-14.5 89t-47.5 36t-47.5 -35.5t-14.5 -87.5q0 -53 14.5 -89.5t47.5 -36.5
q32 0 47 35.5zM578.5 39q-46.5 59 -46.5 158q0 98 46 157t134 59q89 0 136 -59.5t47 -156.5q0 -98 -47.5 -157.5t-135.5 -59.5q-87 0 -133.5 59zM1005.5 39q-46.5 59 -46.5 158q0 98 46 157t134 59q89 0 136 -59.5t47 -156.5q0 -98 -47.5 -157.5t-135.5 -59.5
q-87 0 -133.5 59zM760 110.5q15 35.5 15 88.5t-14.5 89t-47.5 36t-47.5 -35.5t-14.5 -87.5q0 -53 14.5 -89.5t47.5 -36.5q32 0 47 35.5zM1187 110.5q15 35.5 15 88.5t-14.5 89t-47.5 36t-47.5 -35.5t-14.5 -87.5q0 -53 14.5 -89.5t47.5 -36.5q32 0 47 35.5z" />
    <glyph glyph-name="guilsinglleft" unicode="&#x2039;" horiz-adv-x="391" 
d="M338 29l-312 185v130l313 190l-7 -127l-186 -111l199 -100z" />
    <glyph glyph-name="guilsinglright" unicode="&#x203a;" horiz-adv-x="391" 
d="M53 29l-7 167l199 100l-186 111l-7 127l312 -190v-130z" />
    <glyph glyph-name="fraction" unicode="&#x2044;" horiz-adv-x="310" 
d="M33 0l98 750h146l-98 -750h-146z" />
    <glyph glyph-name="colonmonetary" unicode="&#x20a1;" horiz-adv-x="547" 
d="M489 138q-24 -54 -72 -88t-118 -38l-10 -59h-46l10 59q-24 3 -45 9l-12 -68h-46l15 87q-72 44 -102.5 138t-30.5 213q0 85 25.5 163t82.5 129t144 51h3l11 63h46l-12 -68q22 -4 45 -14l14 82h46l-19 -107q45 -35 69.5 -87.5t24.5 -109.5l-129 -6l-62 -354q33 13 47.5 49
t20.5 85l124 -12q0 -63 -24 -117zM196 216l70 400q-50 -6 -69 -71t-19 -154q0 -112 18 -175zM274 129l77 441q-16 30 -40 40l-80 -458q19 -19 43 -23z" />
    <glyph glyph-name="franc" unicode="&#x20a3;" horiz-adv-x="489" 
d="M464 632h-223v-191h223v-125h-223v-73h223v-71h-223v-172h-146v172h-70v71h70v507h369v-118z" />
    <glyph glyph-name="lira" unicode="&#x20a4;" horiz-adv-x="429" 
d="M208 479h196v-71h-166q14 -37 18 -66h148v-71h-148q-10 -60 -55 -130q32 16 69 16q60 0 130 -44v-108l-21 -6q-48 48 -112 48q-32 0 -57 -8.5t-56 -23.5q-23 -11 -36.5 -16t-27.5 -5q-17 0 -31.5 7t-22.5 17v92q38 12 54.5 57.5t17.5 103.5h-83v71h78q-6 35 -15 66h-63
v71h41q-12 36 -18 62t-6 50q0 48 25.5 87.5t68.5 62.5t91 23q65 0 115.5 -41.5t61.5 -120.5l-113 -43q0 44 -16.5 67.5t-42.5 23.5q-21 0 -33.5 -18t-12.5 -54q0 -42 22 -99z" />
    <glyph glyph-name="uni20A6" unicode="&#x20a6;" horiz-adv-x="657" 
d="M632 448h-69v-135h69v-70h-69v-243h-123l-113 243h-103v-243h-131v243h-68v70h68v135h-68v70h68v232h153l100 -232h93v232h124v-232h69v-70zM224 313h70l-63 135h-7v-135zM439 313v135h-62l58 -135h4z" />
    <glyph glyph-name="peseta" unicode="&#x20a7;" horiz-adv-x="658" 
d="M646 491h-95q-10 -76 -56.5 -115.5t-109 -52t-144.5 -13.5v-310h-146v491h-70v70h70v189h124q95 0 161 -10.5t115 -52t57 -126.5h94v-70zM241 561h164q-8 45 -42.5 61t-99.5 16h-22v-77zM356.5 431q34.5 17 45.5 60h-161v-77h26q55 0 89.5 17z" />
    <glyph glyph-name="uni20A9" unicode="&#x20a9;" horiz-adv-x="850" 
d="M824 409h-97l-14 -67h111v-70h-126l-58 -272h-145l-32 272h-83l-46 -272h-134l-56 272h-119v70h105l-14 67h-91v70h77l-56 271h162l37 -271h87l40 271h119l37 -271h93l46 271h133l-58 -271h82v-70zM429 559l-13 -80h23zM255 409l9 -67h48l10 67h-67zM392 342h63l-8 67
h-43zM598 342l12 67h-72l9 -67h51zM287 175l14 97h-27zM570 173l17 99h-31z" />
    <glyph glyph-name="dong" unicode="&#x20ab;" horiz-adv-x="500" 
d="M498 592h-63v-462h-103l-32 70q-9 -37 -34 -60t-76 -23q-68 0 -104 55t-36 159q0 109 34.5 159t108.5 50q33 0 63 -23.5t44 -58.5v134h-144v71h144v87h135v-87h63v-71zM300 399q-24 45 -58 45q-40 0 -51.5 -27t-11.5 -86q0 -62 11.5 -91t51.5 -29q25 0 41.5 22t16.5 75
v91zM65 -1v70h370v-70h-370z" />
    <glyph glyph-name="Euro" unicode="&#x20ac;" horiz-adv-x="557" 
d="M523 202q0 -59 -23.5 -108.5t-71 -79.5t-116.5 -30q-204 0 -232 287h-55v71h51v28q0 26 1 38h-52v71h56q15 140 71.5 213.5t155.5 73.5q67 0 115.5 -33t73.5 -85t25 -109l-141 -7q0 40 -14.5 78t-54.5 38q-38 0 -58.5 -41.5t-27.5 -127.5h221v-71h-224v-31v-35h224v-71
h-220q15 -161 95 -161q39 0 56 31.5t21 71.5z" />
    <glyph glyph-name="uni20AD" unicode="&#x20ad;" horiz-adv-x="601" 
d="M426 0l-145 361h-52v-361h-146v361h-63v70h63v319h146v-319h37l155 319h162l-163 -319h156v-70h-149l161 -361h-162z" />
    <glyph glyph-name="uni20B1" unicode="&#x20b1;" horiz-adv-x="646" 
d="M621 523h-69q1 -8 1 -25q0 -15 -2 -41h70v-70h-84q-30 -90 -107.5 -120t-188.5 -31v-236h-146v387h-70v70h70v66h-70v71h70v156h124q83 0 142.5 -9t109.5 -43t70 -104h80v-71zM241 594h144q-16 25 -46 34.5t-76 9.5h-22v-44zM406 523h-165v-66h163q3 20 3 42q0 16 -1 24z
M333.5 350.5q28.5 10.5 46.5 36.5h-139v-47h26q38 0 66.5 10.5z" />
    <glyph glyph-name="uni20B2" unicode="&#x20b2;" horiz-adv-x="547" 
d="M460 116.5q-53 -93.5 -149 -104.5v-59h-66v61q-114 16 -164.5 113t-50.5 237q0 142 52 245.5t163 121.5v66h66v-64q65 -5 110 -37t67 -82t22 -109l-139 -9q-2 8 -7 36t-18 50.5t-35 30.5v-238h202q0 -165 -53 -258.5zM188 217.5q12 -63.5 57 -83.5v472q-38 -24 -53.5 -90
t-15.5 -146q0 -89 12 -152.5zM359.5 190q15.5 41 16.5 97h-65v-152q33 14 48.5 55z" />
    <glyph glyph-name="uni20B5" unicode="&#x20b5;" horiz-adv-x="532" 
d="M451.5 95q-47.5 -68 -136.5 -81v-61h-70v60q-116 14 -164.5 121t-48.5 257q0 79 21.5 152.5t69.5 126t122 62.5v65h70v-66q56 -9 97.5 -45t63.5 -87t22 -106l-142 -7q0 24 -8 59.5t-33 56.5v-468q29 14 41.5 50t17.5 83l125 -12q0 -92 -47.5 -160zM192 227.5
q14 -66.5 53 -89.5v474q-38 -18 -52.5 -79.5t-14.5 -141.5q0 -97 14 -163.5z" />
    <glyph glyph-name="uni20B9" unicode="&#x20b9;" horiz-adv-x="559" 
d="M546 680h-148q48 -48 55 -119h93v-71h-94q-16 -110 -117 -164l159 -326h-161l-143 309h-153v104h161q91 0 107 77h-273v71h274q-7 39 -30.5 58t-59.5 19h-184v112h514v-70z" />
    <glyph glyph-name="uni20BA" unicode="&#x20ba;" horiz-adv-x="469" 
d="M437 289v-85q0 -78 -49.5 -141t-190.5 -63h-136v236l-36 -18v75l36 18v61l-36 -18v76l36 18v302h146v-230l176 88v-75l-176 -88v-61l176 88v-76l-176 -88v-191h7q63 0 91 26t28 66v80h104z" />
    <glyph glyph-name="uni20BC" unicode="&#x20bc;" horiz-adv-x="609" 
d="M523 567q55 -60 55 -193v-374h-130v401q0 56 -19 87t-74 40v-528h-101v526q-51 -11 -71.5 -42.5t-20.5 -82.5v-401h-130v374q0 132 54.5 192.5t167.5 69.5v142h101v-142q113 -9 168 -69z" />
    <glyph glyph-name="uni20BD" unicode="&#x20bd;" horiz-adv-x="586" 
d="M508 389q-45 -48 -112 -63t-155 -16v-67h211v-71h-211v-172h-146v172h-70v71h70v66h-70v70h70v371h124q100 0 169 -12.5t117 -60.5t48 -147q0 -93 -45 -141zM241 638v-224h26q66 0 103 25.5t37 93.5q0 62 -35 83.5t-109 21.5h-22z" />
    <glyph glyph-name="uni2116" unicode="&#x2116;" horiz-adv-x="1101" 
d="M420 -6l-219 469v-457l-131 -6v744l153 6l194 -446v434l124 12v-744zM699.5 67q-54.5 80 -54.5 213q0 132 54 211t156 79q101 0 156.5 -79t55.5 -211t-55.5 -212.5t-156.5 -80.5t-155.5 80zM913 146q13 55 13 135t-13 135t-58 55t-57 -52t-12 -127q0 -92 12 -146.5
t57 -54.5t58 55z" />
    <glyph glyph-name="trademark" unicode="&#x2122;" horiz-adv-x="917" 
d="M151 259v334h-106l8 86h306l-9 -86h-97v-325zM736 259v278l-82 -274h-63l-87 276v-271l-84 -5v411l149 4l69 -244l68 232l136 9v-407z" />
    <glyph glyph-name="minus" unicode="&#x2212;" horiz-adv-x="393" 
d="M56 234v117h281v-117h-281z" />
    <glyph glyph-name="uni2215" unicode="&#x2215;" horiz-adv-x="307" 
d="M31 0l98 750h147l-98 -750h-147z" />
    <glyph glyph-name="uni2219" unicode="&#x2219;" horiz-adv-x="319" 
d="M74 380.5q-35 34.5 -35 85.5q0 32 16.5 59.5t44 44t60.5 16.5q32 0 59.5 -16.5t44 -44t16.5 -59.5q0 -50 -35.5 -85t-84.5 -35q-51 0 -86 34.5z" />
    <glyph glyph-name="approxequal" unicode="&#x2248;" horiz-adv-x="404" 
d="M235.5 303.5q-13.5 7.5 -31.5 21.5q-19 15 -33 22.5t-31 7.5q-45 0 -95 -53v80q14 17 34 35q38 34 72 34q16 0 28 -6.5t31 -19.5q18 -14 31.5 -21t30.5 -7q26 0 49 16.5t35 37.5v-89q0 -3 -13 -20t-33 -31.5t-44 -14.5q-17 0 -30.5 7.5zM235.5 115.5
q-13.5 7.5 -31.5 21.5q-19 15 -33 22.5t-31 7.5q-44 0 -95 -54v80q19 23 34 35q39 35 72 35q16 0 28 -6.5t31 -19.5q18 -14 31.5 -21t30.5 -7q26 0 49.5 16t34.5 38v-89q0 -3 -13 -20t-33 -31.5t-44 -14.5q-17 0 -30.5 7.5z" />
    <glyph glyph-name="notequal" unicode="&#x2260;" horiz-adv-x="393" 
d="M56 328v116h281v-116h-281zM56 141v116h281v-116h-281z" />
    <glyph glyph-name="lessequal" unicode="&#x2264;" horiz-adv-x="478" 
d="M424 231l-394 171v129l395 176l-7 -127l-220 -96l233 -86zM90 0v116h281v-116h-281z" />
    <glyph glyph-name="greaterequal" unicode="&#x2265;" horiz-adv-x="478" 
d="M54 231l-7 167l233 86l-220 96l-7 127l395 -176v-129zM107 0v116h281v-116h-281z" />
    <glyph glyph-name="i.loclTRK" horiz-adv-x="262" 
d="M61 -6v557l140 12v-557zM60 609v141h141v-141h-141z" />
    <glyph glyph-name="periodcentered.loclCAT.case" horiz-adv-x="252" 
d="M56 323v141h140v-141h-140z" />
    <glyph glyph-name="periodcentered.loclCAT" horiz-adv-x="252" 
d="M56 226v141h140v-141h-140z" />
    <glyph glyph-name="uni0308.case" 
d="M-453 824v141h141v-141h-141zM-219 824v141h141v-141h-141z" />
    <glyph glyph-name="uni0307.case" 
d="M-164 797v141h141v-141h-141z" />
    <glyph glyph-name="gravecomb.case" 
d="M-89 793l-181 152l103 95l130 -197z" />
    <glyph glyph-name="acutecomb.case" 
d="M-207 793l-52 50l130 197l103 -95z" />
    <glyph glyph-name="uni030B.case" 
d="M-450 807l-58 47l131 235l114 -95zM-205 807l-58 47l132 235l114 -95z" />
    <glyph glyph-name="uni0302.case" 
d="M-345 797l117 235h98l113 -235h-122l-47 142l-57 -142h-102z" />
    <glyph glyph-name="uni030C.case" 
d="M-242 797l-117 235h102l57 -142l47 142h122l-113 -235h-98z" />
    <glyph glyph-name="uni0306.case" 
d="M-353.5 853.5q-36.5 39.5 -43.5 106.5h84q1 -3 6 -20t19.5 -25.5t39.5 -8.5t37.5 7.5t16 16t10.5 30.5h84q-7 -66 -43 -106t-103 -40q-71 0 -107.5 39.5z" />
    <glyph glyph-name="uni030A.case" 
d="M-299.5 832q-45.5 35 -45.5 98t45 98t108 35q62 0 107 -34.5t45 -98.5q0 -42 -21.5 -72.5t-56.5 -45.5t-74 -15q-62 0 -107.5 35zM-150.5 889.5q18.5 14.5 18.5 40.5q0 25 -18.5 39.5t-42.5 14.5t-42 -14.5t-18 -39.5t18 -40t42 -15t42.5 14.5z" />
    <glyph glyph-name="tildecomb.case" 
d="M-172 826q-13 6 -34 18q-19 13 -33 19t-31 6q-41 0 -85 -49l-7 90q25 27 48 43t50 16q14 0 26.5 -4.5t33.5 -14.5q19 -10 32.5 -15t28.5 -5q22 0 41.5 12t28.5 27l22 -79q0 -3 -13 -21t-33.5 -33.5t-45.5 -15.5q-16 0 -29 6z" />
    <glyph glyph-name="uni0304.case" 
d="M-359 820v94h281v-94h-281z" />
    <glyph glyph-name="hookabovecomb.case" 
d="M-202 624q0 26 14 44t38 38q14 11 21 19t7 15q0 23 -24 23q-30 0 -35 -38l-90 2q1 28 17.5 54t45.5 42.5t65 16.5q55 0 87.5 -27.5t32.5 -72.5q0 -26 -13 -41.5t-39 -34.5q-20 -14 -29.5 -24.5t-9.5 -25.5v-1h-87q-1 4 -1 11z" />
    <glyph glyph-name="uni030F.case" 
d="M-166 794l-143 224l132 68l78 -257zM-350 793l-188 188l114 95l132 -235z" />
    <glyph glyph-name="uni0311.case" 
d="M-439 899q20 54 67.5 91.5t123.5 37.5t123 -37.5t67 -91.5t20 -106h-117q0 34 -4.5 58t-25 42t-63.5 18t-64 -18t-25.5 -42t-4.5 -58h-117q0 52 20 106z" />
    <glyph glyph-name="uni031B.case" 
d="M-83 738q11 -23 11 -57q0 -42 -21.5 -75.5t-56 -52.5t-72.5 -19q-13 0 -27 3v84q14 -2 18 -2q25 0 38 14t13 32q0 17 -8 38t-19 40l99 37q14 -19 25 -42z" />
    <glyph glyph-name="dotbelowcomb.case" 
d="M-164 -220v141h141v-141h-141z" />
    <glyph glyph-name="uni0324.case" 
d="M-454 -220v141h141v-141h-141zM-220 -220v141h141v-141h-141z" />
    <glyph glyph-name="uni0326.case" 
d="M-162 -189q24 0 35 13.5t12 33.5h-70v140h140v-140q0 -69 -33.5 -103.5t-83.5 -37.5v94z" />
    <glyph glyph-name="uni0327.case" 
d="M-181.5 -262.5q-30.5 8.5 -50.5 22.5v80q38 -17 70 -17q24 0 35.5 10t11.5 26q0 22 -24 40t-69 18l19 106h74l-14 -60q71 -20 93 -59.5t22 -68.5q0 -55 -30 -80.5t-76 -25.5q-31 0 -61.5 8.5z" />
    <glyph glyph-name="uni0328.case" 
d="M-134.5 -18q-11.5 -15 -11.5 -34t11 -31t28 -12q36 0 59 43l54 -38q-19 -44 -57 -71t-81 -27q-28 0 -53 15t-40.5 39t-15.5 50q0 74 55 115l85 -14q-22 -20 -33.5 -35z" />
    <glyph glyph-name="uni032E.case" 
d="M-353.5 -195.5q-36.5 39.5 -43.5 106.5h84q1 -3 6 -20t19.5 -25.5t39.5 -8.5t37.5 7.5t16 16t10.5 30.5h84q-7 -66 -43 -106t-103 -40q-71 0 -107.5 39.5z" />
    <glyph glyph-name="uni0331.case" 
d="M-359 -173v94h281v-94h-281z" />
    <glyph glyph-name="uni03020301" 
d="M-148 908l98 -82l-141 -118l-47 37zM-410 804h98l113 -175h-122l-47 97l-57 -97h-102z" />
    <glyph glyph-name="uni03020300" 
d="M-428 888l90 -163l-47 -37l-141 118zM-50 609h-122l-47 97l-57 -97h-102l117 175h98z" />
    <glyph glyph-name="uni03020309" 
d="M-72.5 881.5q32.5 -27.5 32.5 -72.5q0 -26 -13 -41.5t-39 -34.5q-20 -14 -29.5 -24.5t-9.5 -25.5v-1h-87q-1 4 -1 11q0 26 14 44t38 38q14 11 21 19t7 15q0 23 -24 23q-30 0 -35 -38l-90 2q1 28 17.5 54t45.5 42.5t65 16.5q55 0 87.5 -27.5zM-433 784h98l113 -175h-122
l-47 97l-57 -97h-102z" />
    <glyph glyph-name="uni03020303" 
d="M-352 812l-7 90q25 27 48 43t50 16q14 0 26.5 -4.5t33.5 -14.5q19 -10 32.5 -15t28.5 -5q22 0 41.5 12t28.5 27l22 -79q0 -3 -13 -21t-33.5 -33.5t-45.5 -15.5q-16 0 -29 6t-34 18q-19 13 -33 19t-31 6q-41 0 -85 -49zM-261 784h98l113 -175h-122l-47 97l-57 -97h-102z
" />
    <glyph glyph-name="uni03020301.case" 
d="M-148 1078l98 -82l-141 -118l-47 37zM-410 974h98l113 -175h-122l-47 97l-57 -97h-102z" />
    </font>
</defs>
</svg>
