<?xml version="1.0" standalone="no"?>
<!DOCTYPE svg PUBLIC "-//W3C//DTD SVG 1.1//EN" "http://www.w3.org/Graphics/SVG/1.1/DTD/svg11.dtd" >
<svg xmlns="http://www.w3.org/2000/svg" xmlns:xlink="http://www.w3.org/1999/xlink" version="1.1">
<metadata>
Created by FontForge 20170731 at Wed Apr 28 16:42:51 2021
 By Aleksey,,,
Copyright 2020 The Tourney Project Authors (https://github.com/Etcetera-Type-Co/Tourney)
</metadata>
<defs>
<font id="Tourney-SemiBold" horiz-adv-x="0" >
  <font-face 
    font-family="Tourney SemiBold"
    font-weight="600"
    font-stretch="normal"
    units-per-em="2000"
    panose-1="0 0 0 0 0 0 0 0 0 0"
    ascent="1600"
    descent="-400"
    x-height="1080"
    cap-height="1400"
    bbox="-405 -533 2891 2125"
    underline-thickness="50"
    underline-position="-175"
    unicode-range="U+000D-FB02"
  />
<missing-glyph horiz-adv-x="666" 
d="M80 73v1344h509v-1344h-509zM230 176l-30 26l109 98l-109 98l30 26l109 -98l109 98l30 -26l-109 -98l109 -98l-30 -26l-109 98zM230 612l-30 26l109 98l-109 98l30 26l109 -98l109 98l30 -26l-109 -98l109 -98l-30 -26l-109 98zM119 107h431v1276h-431v-1276zM230 1048
l-30 26l110 98l-110 98l30 25l109 -97l109 97l30 -25l-110 -98l110 -98l-30 -26l-109 98z" />
    <glyph glyph-name="fi" unicode="fi" horiz-adv-x="1953" 
d="M277 0v798h-202v282h202v214l206 206h450v-263h-329l-44 -45v-112h1081v-797h267v-283h-815v283h266v515h-799v-798h-283zM387 106h62v803h1012v-738h-258v-61h596v61h-277v800h-1073v256l113 114h267v58h-293l-149 -148v-280h-201v-62h201v-803zM1319 1237v263h322v-263
h-322zM1446 1337h68v75h-68v-75z" />
    <glyph glyph-name="fl" unicode="fl" horiz-adv-x="1895" 
d="M277 0v798h-202v282h202v214l206 206h1097v-1217h270v-283h-822v283h270v954h-694l-44 -45v-112h313v-282h-313v-798h-283zM387 106h62v803h320v62h-320v256l113 114h842v-1170h-266v-61h603v61h-275v1228h-930l-149 -148v-280h-201v-62h201v-803z" />
    <glyph glyph-name="f_f" unicode="ff" horiz-adv-x="1965" 
d="M277 0v798h-202v282h202v214l206 206h390v-263h-269l-44 -45v-112h313v-282h-313v-798h-283zM387 106h62v803h320v62h-320v256l113 114h207v58h-233l-149 -148v-280h-201v-62h201v-803zM1260 0v798h-202v282h202v214l206 206h390v-263h-269l-44 -45v-112h313v-282h-313
v-798h-283zM1370 106h62v803h320v62h-320v256l113 114h207v58h-233l-149 -148v-280h-201v-62h201v-803z" />
    <glyph glyph-name="f_f_i" unicode="ffi" horiz-adv-x="2936" 
d="M277 0v798h-202v282h202v214l206 206h390v-263h-269l-44 -45v-112h313v-282h-313v-798h-283zM387 106h62v803h320v62h-320v256l113 114h207v58h-233l-149 -148v-280h-201v-62h201v-803zM1260 0v798h-202v282h202v214l206 206h390v-263h-269l-44 -45v-112h313v-282h-313
v-798h-283zM1370 106h62v803h320v62h-320v256l113 114h207v58h-233l-149 -148v-280h-201v-62h201v-803zM2302 1237v263h322v-263h-322zM2429 1337h68v75h-68v-75zM2075 0v283h267v514h-267v283h549v-797h267v-283h-816zM2185 110h597v61h-277v801h-320v-61h259v-740h-259
v-61z" />
    <glyph glyph-name="f_f_l" unicode="ffl" horiz-adv-x="2877" 
d="M277 0v798h-202v282h202v214l206 206h390v-263h-269l-44 -45v-112h313v-282h-313v-798h-283zM387 106h62v803h320v62h-320v256l113 114h207v58h-233l-149 -148v-280h-201v-62h201v-803zM1260 0v798h-202v282h202v214l206 206h390v-263h-269l-44 -45v-112h313v-282h-313
v-798h-283zM1370 106h62v803h320v62h-320v256l113 114h207v58h-233l-149 -148v-280h-201v-62h201v-803zM2010 0v283h270v934h-270v283h552v-1217h270v-283h-822zM2120 110h603v61h-275v1221h-328v-61h266v-1160h-266v-61z" />
    <glyph glyph-name=".notdef" horiz-adv-x="666" 
d="M80 73v1344h509v-1344h-509zM230 176l-30 26l109 98l-109 98l30 26l109 -98l109 98l30 -26l-109 -98l109 -98l-30 -26l-109 98zM230 612l-30 26l109 98l-109 98l30 26l109 -98l109 98l30 -26l-109 -98l109 -98l-30 -26l-109 98zM119 107h431v1276h-431v-1276zM230 1048
l-30 26l110 98l-110 98l30 25l109 -97l109 97l30 -25l-110 -98l110 -98l-30 -26l-109 98z" />
    <glyph glyph-name=".null" 
 />
    <glyph glyph-name="nonmarkingreturn" horiz-adv-x="666" 
 />
    <glyph glyph-name="CR" unicode="&#xd;" horiz-adv-x="1200" 
 />
    <glyph glyph-name="space" unicode=" " horiz-adv-x="550" 
 />
    <glyph glyph-name="exclam" unicode="!" horiz-adv-x="558" 
d="M196 388l-62 691v349h286v-349l-62 -691h-162zM266 523h27l17 532v248h-61v-248zM122 0v294h314v-294h-314zM238 114h83v66h-83v-66z" />
    <glyph glyph-name="quotedbl" unicode="&#x22;" horiz-adv-x="860" 
d="M162 946l-46 172v282h302v-282l-48 -172h-208zM248 1041h41l13 88v165h-65v-165zM492 946l-46 172v282h302v-282l-48 -172h-208zM578 1041h41l13 88v165h-65v-165z" />
    <glyph glyph-name="numbersign" unicode="#" horiz-adv-x="1344" 
d="M231 0l31 298h-162v246h188l31 302h-163v246h188l33 308h285l-33 -308h163l33 308h285l-33 -308h167v-246h-192l-31 -302h167v-246h-194l-31 -298h-284l31 298h-164l-31 -298h-284zM441 447l56 500h402l-56 -500h-402zM573 544h164l30 302h-163zM341 98h62l32 294h402
l-32 -294h61l32 294h205v55h-199l56 500h200v56h-194l35 306h-61l-35 -306h-402l35 306h-61l-35 -306h-191v-56h185l-56 -500h-186v-55h180z" />
    <glyph glyph-name="dollar" unicode="$" horiz-adv-x="1282" 
d="M488 -96v96h-150l-206 206v252h283v-114l61 -61h310l61 61v170l-61 61h-442l-206 206v413l206 206h144v96h281v-96h136l206 -206v-252h-283v114l-61 61h-285l-62 -61v-137l62 -61h442l206 -206v-446l-206 -206h-155v-96h-281zM596 -25h61v135h212l152 151v337l-152 152
h-444l-121 120v245l118 116h396l118 -116v-68h61v94l-151 151h-189v135h-61v-135h-202l-151 -151v-297l146 -155h452l118 -116v-286l-118 -116h-412l-118 116v75h-61v-101l152 -151h194v-135z" />
    <glyph glyph-name="percent" unicode="%" horiz-adv-x="1555" 
d="M183 0l1006 1400h223l-1006 -1400h-223zM341 100h49l859 1193h-48zM247 709l-132 132v427l132 132h357l132 -132v-427l-132 -132h-357zM291 780h275l98 98v353l-98 99h-279l-99 -100v-347zM307 818l-81 81v316l77 77h246l77 -76v-323l-77 -75h-242zM335 890h180l39 39
v251l-39 39h-180l-39 -39v-251zM951 -79l-132 132v427l132 132h357l132 -132v-427l-132 -132h-357zM995 -8h275l98 98v353l-98 99h-279l-99 -100v-347zM1011 30l-81 81v316l77 77h246l77 -76v-323l-77 -75h-242zM1039 102h180l39 39v251l-39 39h-180l-39 -39v-251z" />
    <glyph glyph-name="ampersand" unicode="&#x26;" horiz-adv-x="1282" 
d="M348 -1l-206 206v362l245 247l-149 156v223l206 206h234l206 -206v-223l-150 -161l162 -175v74h244v-381l-227 -328h-565zM447 282h283l70 89l-241 257l-154 -158v-146zM424 176l-122 115v209l255 277l380 -411l-135 -190h-378zM402 114h438l202 294v204h-54v-155
l-24 -40l-370 397l177 185v163l-135 133h-152l-135 -133v-163l169 -183l-274 -295v-257zM557 857l-149 162v122l99 94h107l99 -94v-121zM561 1002l58 66v15l-35 41h-45l-35 -41v-15z" />
    <glyph glyph-name="quotesingle" unicode="'" horiz-adv-x="534" 
d="M162 946l-46 172v282h302v-282l-48 -172h-208zM248 1041h41l13 88v165h-65v-165z" />
    <glyph glyph-name="parenleft" unicode="(" horiz-adv-x="784" 
d="M364 -400l-214 214v1472l214 214h387l-307 -298v-1304l307 -298h-387zM406 -283h79l-161 158v1363l161 158h-79l-145 -143v-1393z" />
    <glyph glyph-name="parenright" unicode=")" horiz-adv-x="784" 
d="M428 -400h-387l307 298v1304l-307 298h387l214 -214v-1472zM386 -283l145 143v1393l-145 143h-79l161 -158v-1363l-161 -158h79z" />
    <glyph glyph-name="asterisk" unicode="*" horiz-adv-x="804" 
d="M294 896v113l-104 -70l-117 177l141 92l-143 96l115 175l108 -72v121h218v-120l106 71l115 -175l-143 -96l141 -92l-117 -177l-102 68v-111h-218zM380 997h47v170l156 -105l25 39l-165 110l161 109l-26 38l-151 -102v174h-47v-176l-148 100l-25 -39l155 -104l-160 -106
l26 -39l152 103v-172z" />
    <glyph glyph-name="plus" unicode="+" horiz-adv-x="836" 
d="M290 288v188h-188v256h188v188h256v-188h188v-256h-188v-188h-256zM390 394h56v178h185v57h-185v181h-56v-181h-175v-57h175v-178z" />
    <glyph glyph-name="comma" unicode="," horiz-adv-x="558" 
d="M120 -160l62 160h-48v294h302v-275l-125 -179h-191zM236 -74h33l71 122v126h-106v-63h53v-63z" />
    <glyph glyph-name="hyphen" unicode="-" horiz-adv-x="836" 
d="M102 476v256h632v-256h-632zM215 572h416v57h-416v-57z" />
    <glyph glyph-name="period" unicode="." horiz-adv-x="558" 
d="M122 0v294h314v-294h-314zM238 114h83v66h-83v-66z" />
    <glyph glyph-name="slash" unicode="/" horiz-adv-x="624" 
d="M38 -201l250 1701h283l-250 -1701h-283zM162 -93h62l225 1489h-61z" />
    <glyph glyph-name="zero" unicode="0" horiz-adv-x="1125" 
d="M281 0l-206 206v988l206 206h563l206 -206v-988l-206 -206h-563zM459 283h267l61 61v467zM359 176l-48 51l527 907l47 -41v-801l-118 -116h-408zM328 115h463l152 151v875l-152 151h-463l-152 -151v-875zM235 317v798l117 116h406l46 -50l-525 -904zM338 611l315 506
h-253l-62 -61v-445z" />
    <glyph glyph-name="one" unicode="1" horiz-adv-x="968" 
d="M75 0v283h266v786l-266 -75v311l360 95h188v-1117h270v-283h-818zM197 106h572v62h-255v1121h-50l-279 -80v-66l267 78v-1053h-255v-62z" />
    <glyph glyph-name="two" unicode="2" horiz-adv-x="1080" 
d="M75 0v577l206 206h381l61 61v212l-61 61h-244l-61 -61v-143h-282v281l206 206h518l206 -206v-488l-206 -206h-381l-61 -61v-156h648v-283h-930zM191 110h691v61h-629v329l117 116h371l155 155v374l-152 151h-401l-152 -151v-124h62v98l117 116h346l118 -116v-322
l-121 -119h-370l-152 -152v-416z" />
    <glyph glyph-name="three" unicode="3" horiz-adv-x="1073" 
d="M281 0l-206 206v271h282v-133l61 -61h237l61 61v153l-61 61h-216v282h215l62 67v149l-61 61h-237l-61 -61v-133h-282v271l206 206h511l206 -206v-431l-63 -63l63 -65v-429l-206 -206h-511zM336 115h401l152 151v310l-125 124l125 124v317l-152 151h-401l-152 -151v-123
h62v97l118 116h345l118 -116v-264l-121 -120h-177v-62h177l121 -119v-258l-118 -116h-345l-118 116v91h-62v-117z" />
    <glyph glyph-name="four" unicode="4" horiz-adv-x="1088" 
d="M589 0v321h-539v327l391 752h431v-796h166v-283h-166v-321h-283zM704 98h62v323h183v62h-183v809h-249l-352 -650v-221h539v-323zM231 483v161l320 583h153v-744h-473zM361 604h228v487h-9l-219 -442v-45z" />
    <glyph glyph-name="five" unicode="5" horiz-adv-x="1086" 
d="M281 0l-206 206v252h282v-114l61 -61h250l61 61v299l-61 61h-240l-86 -96h-267v792h931v-283h-649v-160l30 30h418l206 -207v-574l-206 -206h-524zM345 108h403l154 153v466l-154 154h-354l-95 -95h-50v445h647v61h-708v-574h116l101 101h316l119 -117v-415l-119 -118
h-348l-128 127v78h-61v-104z" />
    <glyph glyph-name="six" unicode="6" horiz-adv-x="1082" 
d="M281 0l-206 206v988l206 206h514l207 -206v-213h-283v75l-61 61h-240l-61 -61v-138l30 30h414l206 -206v-536l-206 -206h-520zM371 174l-124 122v313l171 168h299l119 -118v-368l-119 -117h-346zM418 283h246l61 61v260l-61 61h-226l-81 -80v-241zM344 112h400l154 153
v420l-154 154h-339l-158 -156v432l119 116h344l118 -116v-54h61v80l-152 151h-398l-154 -151v-871z" />
    <glyph glyph-name="seven" unicode="7" horiz-adv-x="984" 
d="M84 0l558 965v152h-602v283h884v-495l-501 -905h-339zM279 98h69l466 828v363h-667v-62h605v-287z" />
    <glyph glyph-name="eight" unicode="8" horiz-adv-x="1080" 
d="M281 0l-206 206v427l90 86l-90 89v386l206 206h518l206 -206v-386l-90 -91l90 -84v-427l-206 -206h-518zM367 174l-118 117v279l121 119h343l121 -119v-279l-118 -117h-349zM340 113h404l152 152v328l-128 127l128 128v288l-152 152h-404l-152 -152v-288l128 -128
l-128 -127v-328zM370 751l-121 120v239l118 117h349l118 -117v-239l-121 -120h-343zM418 283h244l61 61v172l-61 61h-244l-61 -61v-172zM419 860h242l62 66v130l-61 61h-244l-61 -61v-130z" />
    <glyph glyph-name="nine" unicode="9" horiz-adv-x="1082" 
d="M801 1400l206 -206v-988l-206 -206h-514l-207 206v213h283v-75l61 -61h240l61 61v138l-30 -30h-414l-206 206v536l206 206h520zM711 1226l124 -122v-313l-171 -168h-299l-119 118v368l119 117h346zM664 1117h-246l-61 -61v-260l61 -61h226l81 80v241zM738 1288h-400
l-154 -153v-420l154 -154h339l158 156v-432l-119 -116h-344l-118 116v54h-61v-80l152 -151h398l154 151v871z" />
    <glyph glyph-name="colon" unicode=":" horiz-adv-x="558" 
d="M122 787v294h314v-294h-314zM238 901h83v66h-83v-66zM122 0v294h314v-294h-314zM238 114h83v66h-83v-66z" />
    <glyph glyph-name="semicolon" unicode=";" horiz-adv-x="558" 
d="M120 -160l62 160h-48v294h302v-275l-125 -179h-191zM236 -74h33l71 122v126h-106v-63h53v-63zM122 787v294h314v-294h-314zM238 901h83v66h-83v-66z" />
    <glyph glyph-name="less" unicode="&#x3c;" horiz-adv-x="826" 
d="M714 -2l-602 419v346l602 423v-359l-362 -237v0l362 -232v-360zM604 216v72l-356 234v132l356 238v72l-409 -278v-197z" />
    <glyph glyph-name="equal" unicode="=" horiz-adv-x="836" 
d="M102 276v256h632v-256h-632zM215 372h416v57h-416v-57zM102 676v256h632v-256h-632zM215 772h416v57h-416v-57z" />
    <glyph glyph-name="greater" unicode="&#x3e;" horiz-adv-x="826" 
d="M112 -2v360l362 232v0l-362 237v359l602 -423v-346zM222 216l409 273v197l-409 278v-72l356 -238v-132l-356 -234v-72z" />
    <glyph glyph-name="question" unicode="?" horiz-adv-x="1100" 
d="M431 379v208l268 267v202l-62 61h-150l-62 -61v-114h-282v252l206 206h426l206 -206v-459l-267 -268v-88h-283zM535 111h82v62h-82v-62zM424 0v283h301v-283h-301zM545 471h61v39l265 271v357l-152 152h-307l-152 -152v-91h62v65l117 116h253l117 -116v-308l-264 -271
v-62z" />
    <glyph glyph-name="at" unicode="@" horiz-adv-x="1834" 
d="M316 -68l-214 214v1128l214 214h1192l214 -214v-772l-214 -214h-254l-76 78l-78 -78h-404l-214 214v426l214 214h424l214 -214v-302l44 -44h6l44 44v504l-64 64h-904l-64 -64v-840l64 -64h1050v-294h-1194zM376 47h1029v63h-1000l-124 121v956l124 122h1008l123 -122
v-605l-120 -120h-78l-120 120v282l-155 172h-307l-154 -155v-324l158 -158h296l129 129l128 -129h128l158 158v657l-158 158h-1065l-158 -158v-1009zM785 462l-120 120v276l116 115h257l117 -132v-259l-120 -120h-250zM820 582h176l44 44v178l-44 44h-176l-44 -44v-178z" />
    <glyph glyph-name="A" unicode="A" horiz-adv-x="1288" 
d="M115 0v1194l206 206h646l206 -206v-1194h-282v412h-494v-412h-282zM230 120h61v400h710v-400h62v1025l-152 151h-530l-151 -151v-1025zM397 694h494v362l-61 61h-372l-61 -61v-362zM291 581v538l118 116h475l117 -116v-538h-710z" />
    <glyph glyph-name="B" unicode="B" horiz-adv-x="1273" 
d="M125 0v1400h782l206 -206v-357l-89 -89l134 -135v-407l-206 -206h-827zM241 108h652l155 155v309l-163 163h-30l145 145v264l-151 152h-608v-1188zM303 169v518h543l140 -139v-259l-121 -120h-562zM303 748v486h518l118 -116v-216l-156 -154h-480zM408 283h406l61 61v141
l-88 88h-379v-290zM408 856h323l100 99v101l-61 61h-362v-261z" />
    <glyph glyph-name="C" unicode="C" horiz-adv-x="1244" 
d="M311 0l-206 206v988l206 206h621l207 -206v-322h-283v184l-61 61h-346l-61 -61v-712l61 -61h346l61 61v184h283v-322l-207 -206h-621zM366 111h511l152 152v167h-62v-141l-118 -116h-455l-118 116v826l118 116h455l118 -116v-142h62v168l-152 151h-511l-151 -151v-878z
" />
    <glyph glyph-name="D" unicode="D" horiz-adv-x="1289" 
d="M125 0v1400h833l206 -206v-988l-206 -206h-833zM408 283h413l61 61v712l-61 61h-413v-834zM237 110h663l151 152v874l-151 152h-663v-1178zM299 172v1055h573l118 -117v-822l-118 -116h-573z" />
    <glyph glyph-name="E" unicode="E" horiz-adv-x="1140" 
d="M115 0v1400h910v-283h-627v-269h558v-283h-558v-282h627v-283h-910zM229 115h700v61h-639v500h569v62h-569v493h639v61h-700v-1177z" />
    <glyph glyph-name="F" unicode="F" horiz-adv-x="1080" 
d="M115 0v1400h890v-283h-607v-269h569v-283h-569v-565h-283zM225 106h62v573h570v61h-570v491h610v61h-672v-1186z" />
    <glyph glyph-name="G" unicode="G" horiz-adv-x="1278" 
d="M321 0l-206 206v988l206 206h636l206 -206v-252h-282v114l-61 61h-363l-60 -63v-711l60 -60h363l61 61v138h-277v282h559v-558l-206 -206h-636zM379 115h522l152 151v385h-338v-61h276v-298l-117 -116h-468l-118 116v823l118 116h468l117 -116v-68h62v94l-152 151h-522
l-152 -151v-875z" />
    <glyph glyph-name="H" unicode="H" horiz-adv-x="1295" 
d="M125 0v1400h283v-552h480v552h282v-1400h-282v565h-480v-565h-283zM236 108h62v571h701v-571h62v1184h-62v-552h-701v552h-62v-1184z" />
    <glyph glyph-name="I" unicode="I" horiz-adv-x="1059" 
d="M115 0v283h274v834h-274v283h829v-283h-273v-834h273v-283h-829zM225 110h610v61h-283v1060h283v61h-610v-61h266v-1060h-266v-61z" />
    <glyph glyph-name="J" unicode="J" horiz-adv-x="1216" 
d="M322 0l-207 206v357h283v-219l61 -61h298l61 61v773h-512v283h795v-1194l-207 -206h-572zM378 116h465l152 152v1024h-584v-61h522v-936l-117 -117h-410l-118 117v160h-62v-187z" />
    <glyph glyph-name="K" unicode="K" horiz-adv-x="1298" 
d="M125 0v1400h283v-552h349l119 119v433h283v-552l-141 -140l141 -143v-565h-283v447l-119 118h-349v-565h-283zM235 111h62v574h518l172 -177v-397h62v420l-177 184l177 177v400h-62v-378l-169 -167h-521v545h-62v-1181z" />
    <glyph glyph-name="L" unicode="L" horiz-adv-x="1091" 
d="M125 0v1400h283v-1117h608v-283h-891zM236 109h671v61h-609v1122h-62v-1183z" />
    <glyph glyph-name="M" unicode="M" horiz-adv-x="1741" 
d="M125 0v1400h553l169 -993h48l169 993h552v-1400h-283v1116h-39l-172 -996h-502l-171 996h-41v-1116h-283zM235 110h61v1116h233l185 -983h312l185 983h232v-1116h62v1181h-346l-185 -984h-207l-186 984h-346v-1181z" />
    <glyph glyph-name="N" unicode="N" horiz-adv-x="1465" 
d="M235 106h61v1117h231l365 -1113h339v1182h-61v-1118h-231l-364 1114h-340v-1182zM125 0v1400h543l346 -1113h43v1113h283v-1400h-543l-348 1116h-41v-1116h-283z" />
    <glyph glyph-name="O" unicode="O" horiz-adv-x="1306" 
d="M321 0l-206 206v988l206 206h664l206 -206v-988l-206 -206h-664zM459 283h388l61 61v712l-61 61h-388l-61 -61v-712zM380 115h548l152 151v875l-152 151h-548l-152 -151v-875zM407 176l-118 116v823l118 116h494l117 -116v-823l-117 -116h-494z" />
    <glyph glyph-name="P" unicode="P" horiz-adv-x="1258" 
d="M125 0v1400h831l206 -206v-551l-225 -225h-529v-418h-283zM234 95h61v438h592l170 170v438l-152 151h-671v-1197zM408 701h391l81 80v275l-61 61h-411v-416zM295 594v637h583l117 -116v-387l-136 -134h-564z" />
    <glyph glyph-name="Q" unicode="Q" horiz-adv-x="1343" 
d="M1036 -242l-241 242h-474l-206 206v988l206 206h690l206 -206v-988l-121 -121l132 -135zM1055 -109l43 42l-186 191h53l143 142v875l-152 151h-576l-152 -151v-875l152 -151h457zM459 283h414l62 61v712l-62 61h-414l-61 -61v-712zM407 176l-118 116v823l118 116h521
l118 -116v-823l-118 -116h-521z" />
    <glyph glyph-name="R" unicode="R" horiz-adv-x="1309" 
d="M125 0v1400h863l206 -206v-434l-122 -112l122 -133v-515h-283v415l-100 100h-403v-515h-283zM236 108h62v524h560l167 -179v-345h61v364l-173 189l167 142v337l-152 151h-692v-1183zM408 798h442l61 62v196l-61 61h-442v-319zM298 694v536h602l118 -116v-291l-154 -129
h-566z" />
    <glyph glyph-name="S" unicode="S" horiz-adv-x="1302" 
d="M321 0l-206 206v252h283v-114l61 -61h384l61 61v154l-61 61h-516l-206 206v429l206 206h635l206 -206v-252h-283v114l-61 61h-359l-62 -61v-153l62 -61h516l206 -206v-430l-206 -206h-660zM374 110h545l152 151v336l-135 135h-524l-119 119v260l118 116h474l110 -107v-78
h61v104l-143 143h-530l-152 -152v-312l155 -155h522l101 -99v-284l-117 -116h-491l-109 108v79h-62v-105z" />
    <glyph glyph-name="T" unicode="T" horiz-adv-x="1126" 
d="M422 0v1117h-347v283h976v-283h-347v-1117h-282zM532 106h61v1125h353v61h-766v-61h352v-1125z" />
    <glyph glyph-name="U" unicode="U" horiz-adv-x="1328" 
d="M321 0l-206 206v1194h283v-1056l61 -61h410l61 61v1056h283v-1194l-206 -206h-686zM379 110h572l152 150v1032h-62v-1006l-118 -114h-517l-119 114v1006h-62v-1032z" />
    <glyph glyph-name="V" unicode="V" horiz-adv-x="1338" 
d="M501 0l-376 376v1024h283v-886l204 -203h115l203 203v886h283v-1024l-376 -376h-336zM559 110h222l322 320v862h-62v-836l-284 -280h-174l-286 280v836h-62v-862z" />
    <glyph glyph-name="W" unicode="W" horiz-adv-x="1738" 
d="M125 1400h283v-1116h44l166 996h502l167 -996h43v1116h283v-1400h-556l-164 993h-48l-164 -993h-556v1400zM235 1291v-1181h347l181 984h210l182 -984h347v1181h-62v-1117h-234l-181 983h-314l-180 -983h-235v1117h-61z" />
    <glyph glyph-name="X" unicode="X" horiz-adv-x="1353" 
d="M125 0v515l193 193l-193 190v502h283v-383l169 -169h199l169 169v383h283v-502l-191 -190l191 -193v-515h-283v397l-169 168h-199l-169 -168v-397h-283zM236 110h62v325l239 244h279l239 -244v-325h62v347l-244 251l244 244v340h-62v-318l-235 -234h-286l-236 234v318
h-62v-340l244 -244l-244 -251v-347z" />
    <glyph glyph-name="Y" unicode="Y" horiz-adv-x="1294" 
d="M505 0v443l-400 382v575h283v-473l268 -253h-19l269 253v473h283v-575l-401 -382v-443h-283zM615 106h62v379l401 379v428h-62v-409l-367 -346h-5l-368 346v409h-61v-428l400 -379v-379z" />
    <glyph glyph-name="Z" unicode="Z" horiz-adv-x="1123" 
d="M227 111h684v62h-616v222l611 602v295h-671v-61h604v-215l-612 -604v-301zM105 0v448l610 605v64h-591v283h894v-444l-604 -597v-76h604v-283h-913z" />
    <glyph glyph-name="bracketleft" unicode="[" horiz-adv-x="656" 
d="M102 -400v1900h492v-294h-198v-1312h198v-294h-492zM217 -277h259v63h-196v1535h196v63h-259v-1661z" />
    <glyph glyph-name="backslash" unicode="\" horiz-adv-x="624" 
d="M573 -201h-283l-250 1701h283zM449 -93l-225 1489h-62l226 -1489h61z" />
    <glyph glyph-name="bracketright" unicode="]" horiz-adv-x="656" 
d="M560 -400h-492v294h198v1312h-198v294h492v-1900zM445 -277v1661h-259v-63h196v-1535h-196v-63h259z" />
    <glyph glyph-name="asciicircum" unicode="^" horiz-adv-x="912" 
d="M62 980l250 448h293l244 -448h-293l-98 219v0l-102 -219h-294zM230 1066h63l117 228h98l116 -228h63l-142 274h-172z" />
    <glyph glyph-name="underscore" unicode="_" horiz-adv-x="1156" 
d="M102 -256v256h952v-256h-952zM215 -154h736v57h-736v-57z" />
    <glyph glyph-name="grave" unicode="`" horiz-adv-x="688" 
d="M590 1112h-247l-284 264h287zM430 1173l-132 140h-60l139 -140h53z" />
    <glyph glyph-name="a" unicode="a" horiz-adv-x="1253" 
d="M316 0l-206 206v285l206 206h544v39l-61 61h-675v283h813l206 -206v-668l-206 -206h-621zM403 171l-120 118v136l107 106h590v-234l-127 -126h-450zM375 110h505l162 161v545l-155 155h-646v-62h618l121 -119v-199h-613l-145 -143v-185zM454 283h345l61 61v80h-426
l-42 -42v-38z" />
    <glyph glyph-name="b" unicode="b" horiz-adv-x="1211" 
d="M332 0l-207 206v1294h283v-439l20 19h466l207 -206v-668l-207 -206h-562zM424 168l-128 126v461l161 159h358l111 -109v-511l-128 -126h-374zM469 283h288l61 61v392l-61 62h-269l-80 -81v-373zM396 106h430l161 162v563l-145 145h-400l-146 -147v563h-61v-1124z" />
    <glyph glyph-name="c" unicode="c" horiz-adv-x="1205" 
d="M316 0l-206 206v668l206 206h764v-283h-626l-61 -61v-392l61 -61h626v-283h-764zM384 110h586v62h-559l-127 126v494l121 120h565v61h-593l-155 -155v-550z" />
    <glyph glyph-name="d" unicode="d" horiz-adv-x="1211" 
d="M879 0h-562l-207 206v668l207 206h466l20 -19v439h283v-1294zM787 168h-374l-128 126v511l111 109h358l161 -159v-461zM742 283l61 61v373l-80 81h-269l-61 -62v-392l61 -61h288zM815 106l162 162v1124h-62v-563l-146 147h-400l-145 -145v-563l162 -162h429z" />
    <glyph glyph-name="e" unicode="e" horiz-adv-x="1253" 
d="M937 1080l206 -206v-285l-206 -206h-544v-39l61 -61h675v-283h-813l-206 206v668l206 206h621zM850 909l120 -118v-136l-107 -106h-590v234l127 126h450zM878 970h-505l-162 -161v-545l155 -155h646v62h-618l-121 119v199h613l145 143v185zM799 797h-345l-61 -61v-80h426
l42 42v38z" />
    <glyph glyph-name="f" unicode="f" horiz-adv-x="983" 
d="M277 0v798h-202v282h202v214l206 206h390v-263h-269l-44 -45v-112h313v-282h-313v-798h-283zM387 106h62v803h320v62h-320v256l113 114h207v58h-233l-149 -148v-280h-201v-62h201v-803z" />
    <glyph glyph-name="g" unicode="g" horiz-adv-x="1210" 
d="M160 -400v282h562l81 81v57l-20 -20h-467l-206 206v668l206 206h563l206 -206v-1068l-206 -206h-719zM270 -292h535l175 180v924l-162 162h-444l-154 -153v-546l164 -163h373l161 161v-356l-144 -148h-504v-61zM411 174l-129 127v494l119 118h390l127 -127v-435
l-179 -177h-328zM454 283h249l100 100v354l-62 61h-287l-61 -61v-393z" />
    <glyph glyph-name="h" unicode="h" horiz-adv-x="1210" 
d="M125 0v1499h283v-438l19 19h467l206 -206v-874h-283v736l-61 62h-268l-80 -81v-717h-283zM238 110h61v650l153 151h366l111 -110v-691h62v717l-145 145h-409l-138 -136v556h-61v-1282z" />
    <glyph glyph-name="i" unicode="i" horiz-adv-x="971" 
d="M337 1237v263h322v-263h-322zM464 1337h68v75h-68v-75zM110 0v283h267v514h-267v283h549v-797h267v-283h-816zM220 110h597v61h-277v801h-320v-61h259v-740h-259v-61z" />
    <glyph glyph-name="j" unicode="j" horiz-adv-x="724" 
d="M-15 -400v282h251l80 81v835h-331v282h614v-1274l-206 -206h-408zM100 -284h239l150 155v1100h-398v-62h336v-1009l-119 -122h-208v-62zM316 1236v264h283v-264h-283zM427 1337h62v75h-62v-75z" />
    <glyph glyph-name="k" unicode="k" horiz-adv-x="1139" 
d="M125 0v1400h283v-722h204l119 119v283h283v-402l-141 -140l141 -143v-395h-283v277l-119 118h-204v-395h-283zM235 111h62v399h371l173 -178v-221h61v244l-177 184l177 177v259h-61v-236l-170 -168h-374v721h-62v-1181z" />
    <glyph glyph-name="l" unicode="l" horiz-adv-x="912" 
d="M45 0v283h270v934h-270v283h552v-1217h270v-283h-822zM155 110h603v61h-275v1221h-328v-61h266v-1160h-266v-61z" />
    <glyph glyph-name="m" unicode="m" horiz-adv-x="1613" 
d="M110 0v874l206 206h387l104 -102l103 102h387l206 -206v-874h-283v736l-61 61h-150l-61 -61v-676h-283v676l-61 61h-150l-61 -61v-736h-283zM221 110h62v683l121 119h243l129 -127v-624h62v624l129 127h243l121 -119v-683h62v709l-155 155h-292l-139 -139l-139 139h-292
l-155 -155v-709z" />
    <glyph glyph-name="n" unicode="n" horiz-adv-x="1180" 
d="M110 0v874l206 206h548l206 -206v-874h-282v736l-61 61h-274l-61 -61v-736h-282zM222 110h61v680l122 119h374l119 -118v-681h62v707l-154 154h-429l-155 -155v-706z" />
    <glyph glyph-name="o" unicode="o" horiz-adv-x="1257" 
d="M316 0l-206 206v668l206 206h625l206 -206v-668l-206 -206h-625zM385 110h498l153 153v554l-153 154h-505l-155 -155v-545zM412 171l-128 126v493l122 119h449l119 -118v-502l-119 -118h-443zM454 283h349l61 61v392l-61 61h-349l-61 -61v-392z" />
    <glyph glyph-name="p" unicode="p" horiz-adv-x="1233" 
d="M125 -378v1252l206 206h586l206 -206v-668l-206 -206h-490l-19 20v-398h-283zM235 -268h61v534l146 -146h424l153 153v544l-153 154h-470l-161 -162v-1077zM488 283h291l61 61v392l-61 62h-310l-61 -62v-373zM457 181l-161 159v443l128 126h414l120 -118v-492l-120 -118
h-381z" />
    <glyph glyph-name="q" unicode="q" horiz-adv-x="1233" 
d="M1108 -378h-283v398l-19 -20h-490l-206 206v668l206 206h586l206 -206v-1252zM999 -268v1077l-162 162h-470l-153 -154v-544l153 -153h424l146 146v-534h62zM745 283l80 80v373l-61 62h-310l-61 -62v-392l61 -61h291zM776 181h-381l-120 118v492l120 118h414l128 -126
v-443z" />
    <glyph glyph-name="r" unicode="r" horiz-adv-x="1148" 
d="M110 0v282h194v501l-15 15h-177v282h253l68 -80l77 80h389l219 -219l-218 -212l-138 148h-114l-61 -61v-455h194v-281h-671zM213 110h465v62h-202v629l104 104h248l88 -98l47 44l-107 115h-303l-111 -111l-102 111h-127v-61h109l92 -101v-632h-201v-62z" />
    <glyph glyph-name="s" unicode="s" horiz-adv-x="1203" 
d="M120 0v283h630l61 61v-5l-59 60h-436l-206 206v269l206 206h757v-283h-620l-61 -61v6l61 -61h434l206 -206v-269l-206 -206h-767zM228 114h608l147 146v172l-147 143h-449l-104 102v121l112 111h570v62h-597l-147 -147v-172l139 -138h449l112 -107v-121l-112 -111h-581
v-61z" />
    <glyph glyph-name="t" unicode="t" horiz-adv-x="935" 
d="M294 0v798h-249v282h249v274h283v-274h248v-282h-248v-515h241v-283h-524zM405 110h305v61h-243v740h250v61h-250v273h-62v-273h-251v-61h251v-801z" />
    <glyph glyph-name="u" unicode="u" horiz-adv-x="1202" 
d="M316 0l-206 206v874h283v-736l61 -61h294l61 61v736h283v-874l-206 -206h-570zM381 111h448l154 162v698h-62v-672l-119 -126h-393l-128 126v672h-61v-698z" />
    <glyph glyph-name="v" unicode="v" horiz-adv-x="1200" 
d="M283 0l-238 1080h309l159 -796h177l156 796h309l-234 -1080h-638zM381 111h444l189 860h-64l-174 -797h-346l-172 797h-65z" />
    <glyph glyph-name="w" unicode="w" horiz-adv-x="1613" 
d="M110 1080h283v-736l61 -61h150l61 61v676h283v-676l61 -61h150l61 61v736h283v-874l-206 -206h-387l-103 102l-104 -102h-387l-206 206v874zM221 971v-710l155 -155h292l139 139l139 -139h292l155 155v710h-62v-684l-121 -119h-243l-129 128v623h-62v-623l-129 -128h-243
l-121 119v684h-62z" />
    <glyph glyph-name="x" unicode="x" horiz-adv-x="1252" 
d="M110 0v365l182 183l-182 180v352h283v-233l158 -159h150l158 159v233h283v-352l-181 -180l181 -183v-365h-283v247l-158 158h-150l-158 -158v-247h-283zM222 110h62v175l227 232h230l228 -232v-175h61v197l-232 239l232 232v193h-61v-170l-224 -222h-237l-224 222v170
h-62v-193l232 -232l-232 -239v-197z" />
    <glyph glyph-name="y" unicode="y" horiz-adv-x="1206" 
d="M316 0l-206 206v874h283v-736l61 -61h245l100 100v697h282v-1274l-206 -206h-715v282h558l81 81v57l-20 -20h-463zM286 -292h520l166 172v1091h-61v-620l-179 -177h-333l-117 117v680h-62v-706l151 -153h379l161 161v-364l-136 -140h-489v-61z" />
    <glyph glyph-name="z" unicode="z" horiz-adv-x="1070" 
d="M244 113h612v61h-536v173l511 364v260h-597v-62h522v-180l-512 -367v-249zM110 0v399l515 368v30h-496v283h831v-407l-508 -358v-32h508v-283h-850z" />
    <glyph glyph-name="braceleft" unicode="{" horiz-adv-x="822" 
d="M362 362v-651h260v63h-197v591l-158 186l158 186v589h197v63h-260v-649l-161 -189zM544 362v-468h198v-294h-492v751l-170 200l170 200v749h492v-294h-198v-466l-161 -189z" />
    <glyph glyph-name="bar" unicode="|" horiz-adv-x="618" 
d="M162 -428v1928h294v-1928h-294zM278 -322h63v1715h-63v-1715z" />
    <glyph glyph-name="braceright" unicode="}" horiz-adv-x="822" 
d="M460 362l161 189l-161 189v649h-260v-63h197v-589l158 -186l-158 -186v-591h-197v-63h260v651zM278 362l161 189l-161 189v466h-198v294h492v-749l170 -200l-170 -200v-751h-492v294h198v468z" />
    <glyph glyph-name="asciitilde" unicode="~" horiz-adv-x="780" 
d="M112 509v136l112 112h178l56 -56h18v56h192v-136l-112 -112h-178l-56 56h-18v-56h-192zM190 572h46v20l48 52h65l68 -65h99l79 84v33h-46v-20l-48 -52h-72l-66 65h-94l-79 -84v-33z" />
    <glyph glyph-name="uni00A0" unicode="&#xa0;" horiz-adv-x="550" 
 />
    <glyph glyph-name="exclamdown" unicode="&#xa1;" horiz-adv-x="558" 
d="M196 1012h162l62 -691v-349h-286v349zM266 877l-17 -532v-248h61v248l-17 532h-27zM122 1400h314v-294h-314v294zM238 1286v-66h83v66h-83z" />
    <glyph glyph-name="cent" unicode="&#xa2;" horiz-adv-x="1178" 
d="M440 0v154h-92l-206 206v680l206 206h92v154h304v-154h88l206 -206v-230h-283v92l-61 61h-208l-61 -61v-404l61 -61h208l61 61v92h283v-230l-206 -206h-88v-154h-304zM558 85h65v180h146l154 154v67h-62v-41l-119 -118h-299l-127 126v506l121 119h305l119 -117v-41h62v67
l-154 153h-146v181h-65v-181h-149l-155 -155v-558l162 -162h142v-180z" />
    <glyph glyph-name="sterling" unicode="&#xa3;" horiz-adv-x="1204" 
d="M75 0v283h120l61 61v202h-159v256h159v392l206 206h627v-283h-489l-61 -61v-254h190v-256h-190v-263h546v-283h-1010zM161 111h821v62h-652l97 96v373h199v57h-199v416l118 116h445v61h-473l-151 -151v-442h-156v-57h156v-353l-118 -116h-87v-62z" />
    <glyph glyph-name="currency" unicode="&#xa4;" horiz-adv-x="1240" 
d="M177 8l-181 181l148 148l-14 14v523l14 14l-152 152l181 181l152 -152l11 11h558l13 -13l154 154l181 -181l-154 -154l12 -12v-523l-8 -8l154 -154l-181 -181l-154 154l-17 -17h-558l-11 11zM474 428h282l61 61v247l-61 61h-282l-61 -61v-247zM177 154l164 163l64 -62
h431l64 63l165 -165l40 40l-165 166l49 49v409l-53 53l166 166l-41 41l-166 -167l-60 61h-437l-60 -60l-165 165l-40 -40l165 -165l-55 -56v-398l59 -59l-164 -165zM432 316l-128 126v348l122 119h382l119 -118v-357l-119 -118h-376z" />
    <glyph glyph-name="yen" unicode="&#xa5;" horiz-adv-x="1220" 
d="M468 0v70h-173v246h173v31h-173v222l-190 181v650h283v-548l222 -208l222 208v548h283v-650l-188 -179v-224h-176v-31h176v-246h-176v-70h-283zM578 106h62v60h178v56h-178v212h178v58h-129l315 297v503h-62v-484l-330 -310h-5l-331 310v484h-61v-503l315 -297h-128v-58
h176v-212h-176v-56h176v-60z" />
    <glyph glyph-name="brokenbar" unicode="&#xa6;" horiz-adv-x="618" 
d="M162 665v835h294v-835h-294zM278 771h64v622h-64v-622zM162 -400v835h294v-835h-294zM278 -294h64v622h-64v-622z" />
    <glyph glyph-name="section" unicode="&#xa7;" horiz-adv-x="1166" 
d="M135 -189v283h563l59 59l-57 57h-369l-206 206v269l64 64l-64 63v269l206 206h690v-283h-553l-58 -58l58 -58h367l206 -206v-269l-63 -63l63 -64v-269l-206 -206h-700zM243 -75h541l147 146v172l-114 110l114 114v172l-147 143h-382l-104 102v121l112 111h503v62h-530
l-147 -147v-172l113 -112l-113 -112v-172l139 -138h382l112 -107v-121l-112 -111h-514v-61zM468 492h232l57 57l-57 57h-234l-56 -56zM402 386l-104 102v121l113 112h346l112 -107v-121l-109 -107h-358z" />
    <glyph glyph-name="dieresis" unicode="&#xa8;" horiz-adv-x="944" 
d="M574 1132v210h212v-210h-212zM158 1132v210h212v-210h-212zM241 1212h43v49h-43v-49zM659 1212h42v49h-42v-49z" />
    <glyph glyph-name="copyright" unicode="&#xa9;" horiz-adv-x="1618" 
d="M364 -28l-214 214v1028l214 214h910l214 -214v-1028l-214 -214h-910zM411 93h818l153 153v914l-153 153h-818l-153 -153v-914zM436 156l-118 117v861l118 116h768l118 -116v-861l-118 -117h-768zM687 388h278l116 123v51h-53v-28l-88 -93h-228l-103 102v310l96 96h235
l88 -94v-28h53v52l-116 122h-285l-124 -124v-358zM488 266h662l64 64v740l-64 64h-662l-64 -64v-740zM630 300l-162 164v470l162 162h380l162 -162v-188h-232v74l-42 44h-154l-44 -44v-244l44 -44h154l42 44v76h232v-188l-162 -164h-380z" />
    <glyph glyph-name="ordfeminine" unicode="&#xaa;" horiz-adv-x="885" 
d="M243.479 717l-132.647 132.647v183.518l132.647 132.647h350.293v25.1133l-39.2783 39.2793h-434.647v182.229h523.508l132.648 -132.647v-430.14l-132.648 -132.647h-399.875zM299.5 827.11l-77.2705 75.9824v87.5732l68.8994 68.2559h379.914v-150.678
l-81.7783 -81.1338h-289.765zM281.471 787.831h325.18l104.315 103.672v350.937l-99.8076 99.8076h-415.974v-39.9229h397.943l77.915 -76.627v-128.14h-394.724l-93.3691 -92.0811v-119.125zM332.34 899.229h222.153l39.2783 39.2793v51.5137h-274.31l-27.0449 -27.0449
v-24.4688z" />
    <glyph glyph-name="guillemotleft" unicode="&#xab;" horiz-adv-x="1200" 
d="M1063 216l-448 250v293l448 244v-293l-219 -98v0l219 -102v-294zM977 384v63l-228 117v98l228 116v63l-274 -142v-172zM565 216l-448 250v293l448 244v-293l-219 -98v0l219 -102v-294zM479 384v63l-228 117v98l228 116v63l-274 -142v-172z" />
    <glyph glyph-name="logicalnot" unicode="&#xac;" horiz-adv-x="1128" 
d="M1026 883v-548h-283v265h-641v283h924zM917 772h-707v-62h646v-265h61v327z" />
    <glyph glyph-name="uni00AD" unicode="&#xad;" horiz-adv-x="836" 
d="M102 476v256h632v-256h-632zM215 572h416v57h-416v-57z" />
    <glyph glyph-name="registered" unicode="&#xae;" horiz-adv-x="1382" 
d="M336 262l-214 214v738l214 214h710l214 -214v-738l-214 -214h-710zM383 342h618l153 153v665l-153 153h-618l-153 -153v-665zM408 403l-118 117v615l118 117h568l118 -117v-615l-118 -117h-568zM460 546h462l64 64v470l-64 64h-462l-64 -64v-470zM442 602v344l162 162
h210l165 -166l-187 -158l-92 92h18l-44 -44v-230h-232zM532 682h52v195l77 75h98l47 -47l40 36l-64 64h-144l-106 -106v-217z" />
    <glyph glyph-name="macron" unicode="&#xaf;" horiz-adv-x="836" 
d="M102 1119v256h632v-256h-632zM215 1215h416v57h-416v-57z" />
    <glyph glyph-name="degree" unicode="&#xb0;" horiz-adv-x="884" 
d="M242.244 709l-131.843 131.843v427.53l131.843 131.843h400.01l131.843 -131.843v-427.53l-131.843 -131.843h-400.01zM286.405 779.401h318.728l97.9219 97.9229v354.567l-97.9219 98.5625h-323.207l-99.2021 -99.2021v-348.808zM303.686 818.442l-81.9219 80.6416
v315.527l78.082 76.1621h287.367l76.1611 -75.5215v-321.288l-76.1611 -75.5215h-283.527zM330.566 890.124h223.365l39.041 39.041v250.886l-39.041 39.041h-223.365l-39.041 -39.041v-250.886z" />
    <glyph glyph-name="plusminus" unicode="&#xb1;" horiz-adv-x="836" 
d="M290 538v188h-188v256h188v188h256v-188h188v-256h-188v-188h-256zM390 644h56v178h185v57h-185v181h-56v-181h-175v-57h175v-178zM102 235v256h632v-256h-632zM215 331h416v57h-416v-57z" />
    <glyph glyph-name="uni00B2" unicode="&#xb2;" horiz-adv-x="512" 
d="M75 830v238l88 85h131l20 20v84l-20 20h-75l-20 -20v-62h-124v120l88 85h186l88 -84v-199l-88 -87h-130l-20 -21v-56h237v-123h-361zM125 878h257v27h-229v128l46 47h126l64 64v149l-63 62h-138l-63 -62v-49h28v37l47 46h114l47 -46v-126l-48 -47h-125l-63 -63v-167z" />
    <glyph glyph-name="uni00B3" unicode="&#xb3;" horiz-adv-x="511" 
d="M163 830l-87 87v114h123v-58l19 -20h76l20 20v61l-20 19h-80v123h80l20 22v59l-20 20h-76l-19 -20v-58h-124v114l88 87h186l87 -87v-173l-25 -25l25 -26v-172l-87 -87h-186zM185 879h141l62 63v123l-50 50l51 50v126l-63 62h-141l-63 -62v-48h29v37l46 46h117l47 -46
v-103l-48 -48h-60v-28h60l48 -46v-101l-47 -47h-117l-46 47v34h-29v-46z" />
    <glyph glyph-name="acute" unicode="&#xb4;" horiz-adv-x="688" 
d="M82 1112l244 264h287l-284 -264h-247zM242 1173h54l139 140h-61z" />
    <glyph glyph-name="uni00B5" unicode="&#xb5;" horiz-adv-x="1142" 
d="M110 -428v1508h283v-736l61 -61h234l61 61v736h283v-874l-206 -206h-433v-428h-283zM220 -322h61v540l113 -107h375l154 162v698h-62v-672l-119 -126h-333l-128 126v672h-61v-1293z" />
    <glyph glyph-name="paragraph" unicode="&#xb6;" horiz-adv-x="1335" 
d="M546 -234v652h-221l-225 225v551l206 206h889v-1634h-283v1352h-82v-1352h-284zM657 -128h62v1359h304v-1359h61v1420h-692l-152 -151v-438l170 -170l49 16l-125 135v435l103 112h220v-1359z" />
    <glyph glyph-name="periodcentered" unicode="&#xb7;" horiz-adv-x="558" 
d="M122 588v294h314v-294h-314zM238 702h83v66h-83v-66z" />
    <glyph glyph-name="cedilla" unicode="&#xb8;" horiz-adv-x="638" 
d="M80 -349v157h205l30 32l-30 30h-134v157h244l163 -187l-163 -189h-315zM156 -290h197l116 130l-116 128h-125v-39h100l82 -89l-82 -91h-172v-39z" />
    <glyph glyph-name="uni00B9" unicode="&#xb9;" horiz-adv-x="466" 
d="M75 830v123h95v301l-95 -28v136l138 38h81v-447h97v-123h-316zM129 876h207v28h-90v450h-21l-101 -31v-30l95 31v-420h-90v-28z" />
    <glyph glyph-name="ordmasculine" unicode="&#xba;" horiz-adv-x="884" 
d="M242.244 709l-131.843 131.843v427.53l131.843 131.843h400.01l131.843 -131.843v-427.53l-131.843 -131.843h-400.01zM286.405 779.401h318.728l97.9219 97.9229v354.567l-97.9219 98.5625h-323.207l-99.2021 -99.2021v-348.808zM303.686 818.442l-81.9219 80.6416
v315.527l78.082 76.1621h287.367l76.1611 -75.5215v-321.288l-76.1611 -75.5215h-283.527zM330.566 890.124h223.365l39.041 39.041v250.886l-39.041 39.041h-223.365l-39.041 -39.041v-250.886z" />
    <glyph glyph-name="guillemotright" unicode="&#xbb;" horiz-adv-x="1200" 
d="M137 216v294l219 102v0l-219 98v293l448 -244v-293zM223 384l274 143v172l-274 142v-63l228 -116v-98l-228 -117v-63zM635 216v294l219 102v0l-219 98v293l448 -244v-293zM721 384l274 143v172l-274 142v-63l228 -116v-98l-228 -117v-63z" />
    <glyph glyph-name="onequarter" unicode="&#xbc;" horiz-adv-x="1021" 
d="M75 830v123h95v301l-95 -28v136l138 38h81v-447h97v-123h-316zM129 876h207v28h-90v450h-21l-101 -31v-30l95 31v-420h-90v-28zM61 0l742 1400h154l-741 -1400h-155zM147 47h36l693 1311h-35zM790 0v128h-188v136l115 306h196v-318h58v-124h-58v-128h-123zM736 252h54
v184h3l-57 -171v-13zM841 41h26v131h65v28h-65v323h-118l-98 -262v-88h190v-132zM681 200v61l85 233h73v-294h-158z" />
    <glyph glyph-name="onehalf" unicode="&#xbd;" horiz-adv-x="1064" 
d="M75 830v123h95v301l-95 -28v136l138 38h81v-447h97v-123h-316zM129 876h207v28h-90v450h-21l-101 -31v-30l95 31v-420h-90v-28zM61 0l742 1400h154l-741 -1400h-155zM147 47h36l693 1311h-35zM627 0v238l88 85h131l20 20v84l-20 20h-75l-20 -20v-62h-124v120l88 85h186
l88 -84v-199l-88 -87h-130l-20 -21v-56h237v-123h-361zM677 48h257v27h-229v128l46 47h126l64 64v149l-63 62h-138l-63 -62v-49h28v37l47 46h114l47 -46v-126l-48 -47h-125l-63 -63v-167z" />
    <glyph glyph-name="threequarters" unicode="&#xbe;" horiz-adv-x="1066" 
d="M163 830l-87 87v114h123v-58l19 -20h76l20 20v61l-20 19h-80v123h80l20 22v59l-20 20h-76l-19 -20v-58h-124v114l88 87h186l87 -87v-173l-25 -25l25 -26v-172l-87 -87h-186zM185 879h141l62 63v123l-50 50l51 50v126l-63 62h-141l-63 -62v-48h29v37l46 46h117l47 -46
v-103l-48 -48h-60v-28h60l48 -46v-101l-47 -47h-117l-46 47v34h-29v-46zM106 0l742 1400h154l-741 -1400h-155zM192 47h36l693 1311h-35zM835 0v128h-188v136l115 306h196v-318h58v-124h-58v-128h-123zM781 252h54v184h3l-57 -171v-13zM886 41h26v131h65v28h-65v323h-118
l-98 -262v-88h190v-132zM726 200v61l85 233h73v-294h-158z" />
    <glyph glyph-name="questiondown" unicode="&#xbf;" horiz-adv-x="1100" 
d="M687 1021v-208l-268 -267v-202l62 -61h150l62 61v114h282v-252l-206 -206h-426l-206 206v459l267 268v88h283zM583 1289h-82v-62h82v62zM694 1400v-283h-301v283h301zM573 929h-61v-39l-265 -271v-357l152 -152h307l152 152v91h-62v-65l-117 -116h-253l-117 116v308
l264 271v62z" />
    <glyph glyph-name="Agrave" unicode="&#xc0;" horiz-adv-x="1288" 
d="M115 0v1194l206 206h646l206 -206v-1194h-282v412h-494v-412h-282zM230 120h61v400h710v-400h62v1025l-152 151h-530l-151 -151v-1025zM397 694h494v362l-61 61h-372l-61 -61v-362zM291 581v538l118 116h475l117 -116v-538h-710zM790 1432h-247l-284 264h287zM630 1493
l-132 140h-60l139 -140h53z" />
    <glyph glyph-name="Aacute" unicode="&#xc1;" horiz-adv-x="1311" 
d="M30 0l369 1400h508l374 -1400h-325l-73 296h-456l-71 -296h-326zM185 105h69l74 292h658l76 -292h69l-312 1185h-330zM341 454l194 775h237l201 -775h-632zM483 552h344l-137 564h-77zM528 1432l244 264h287l-284 -264h-247zM688 1493h54l139 140h-61z" />
    <glyph glyph-name="Acircumflex" unicode="&#xc2;" horiz-adv-x="1311" 
d="M30 0l369 1400h508l374 -1400h-325l-73 296h-456l-71 -296h-326zM185 105h69l74 292h658l76 -292h69l-312 1185h-330zM341 454l194 775h237l201 -775h-632zM483 552h344l-137 564h-77zM525 1716h252l224 -284h-277l-73 108l-73 -108h-277zM579 1646l-101 -134h60l71 100
h80l72 -100h60l-101 134h-141z" />
    <glyph glyph-name="Atilde" unicode="&#xc3;" horiz-adv-x="1288" 
d="M115 0v1194l206 206h646l206 -206v-1194h-282v412h-494v-412h-282zM230 120h61v400h710v-400h62v1025l-152 151h-530l-151 -151v-1025zM397 694h494v362l-61 61h-372l-61 -61v-362zM291 581v538l118 116h475l117 -116v-538h-710zM366 1432v136l112 112h178l56 -56h18v56
h192v-136l-112 -112h-178l-56 56h-18v-56h-192zM444 1495h46v20l48 52h65l68 -65h99l79 84v33h-46v-20l-48 -52h-72l-66 65h-94l-79 -84v-33z" />
    <glyph glyph-name="Adieresis" unicode="&#xc4;" horiz-adv-x="1288" 
d="M115 0v1194l206 206h646l206 -206v-1194h-282v412h-494v-412h-282zM230 120h61v400h710v-400h62v1025l-152 151h-530l-151 -151v-1025zM397 694h494v362l-61 61h-372l-61 -61v-362zM291 581v538l118 116h475l117 -116v-538h-710zM748 1452v210h212v-210h-212zM332 1452
v210h212v-210h-212zM415 1532h43v49h-43v-49zM833 1532h42v49h-42v-49z" />
    <glyph glyph-name="Aring" unicode="&#xc5;" horiz-adv-x="1288" 
d="M115 0v1194l206 206h646l206 -206v-1194h-282v412h-494v-412h-282zM230 120h61v400h710v-400h62v1025l-152 151h-530l-151 -151v-1025zM397 694h494v362l-61 61h-372l-61 -61v-362zM291 581v538l118 116h475l117 -116v-538h-710zM553 1430l-98 97v174l98 98h183l98 -98
v-174l-98 -97h-183zM587 1497h116l66 65v108l-66 65h-116l-66 -65v-108zM605 1540l-39 40v73l39 38h80l39 -38v-73l-39 -40h-80zM636 1597h17l9 10v15l-9 9h-17l-9 -9v-15z" />
    <glyph glyph-name="AE" unicode="&#xc6;" horiz-adv-x="1934" 
d="M30 0l595 1400h1147v-283h-550v-269h512v-283h-512v-282h550v-283h-833v412h-429l-173 -412h-307zM169 98h67l183 418h632v-418h636v61h-574v520h534v61h-534v507h574v62h-987zM445 578l294 669h312v-669h-606zM626 694h313v423h-133z" />
    <glyph glyph-name="Ccedilla" unicode="&#xc7;" horiz-adv-x="1211" 
d="M417 -349v157h205l30 32l-30 30h-134v130h-157l-206 206v988l206 206h547l207 -206v-322h-283v184l-61 61h-272l-61 -61v-712l61 -61h272l61 61v184h283v-322l-207 -206h-122l139 -160l-163 -189h-315zM493 -290h197l116 130l-116 128h-68v143h201l152 152v167h-62v-141
l-118 -116h-381l-118 116v826l118 116h381l118 -116v-142h62v168l-152 151h-437l-151 -151v-878l151 -152h179v-182h100l82 -89l-82 -91h-172v-39z" />
    <glyph glyph-name="Egrave" unicode="&#xc8;" horiz-adv-x="1140" 
d="M115 0v1400h910v-283h-627v-269h558v-283h-558v-282h627v-283h-910zM229 115h700v61h-639v500h569v62h-569v493h639v61h-700v-1177zM707 1432h-247l-284 264h287zM547 1493l-132 140h-60l139 -140h53z" />
    <glyph glyph-name="Eacute" unicode="&#xc9;" horiz-adv-x="1140" 
d="M115 0v1400h910v-283h-627v-269h558v-283h-558v-282h627v-283h-910zM229 115h700v61h-639v500h569v62h-569v493h639v61h-700v-1177zM439 1432l244 264h287l-284 -264h-247zM599 1493h54l139 140h-61z" />
    <glyph glyph-name="Ecircumflex" unicode="&#xca;" horiz-adv-x="1140" 
d="M115 0v1400h910v-283h-627v-269h558v-283h-558v-282h627v-283h-910zM229 115h700v61h-639v500h569v62h-569v493h639v61h-700v-1177zM436 1716h252l224 -284h-277l-73 108l-73 -108h-277zM490 1646l-101 -134h60l71 100h80l72 -100h60l-101 134h-141z" />
    <glyph glyph-name="Edieresis" unicode="&#xcb;" horiz-adv-x="1140" 
d="M115 0v1400h910v-283h-627v-269h558v-283h-558v-282h627v-283h-910zM229 115h700v61h-639v500h569v62h-569v493h639v61h-700v-1177zM665 1452v210h212v-210h-212zM249 1452v210h212v-210h-212zM332 1532h43v49h-43v-49zM750 1532h42v49h-42v-49z" />
    <glyph glyph-name="Igrave" unicode="&#xcc;" horiz-adv-x="1059" 
d="M115 0v283h274v834h-274v283h829v-283h-273v-834h273v-283h-829zM225 110h610v61h-283v1060h283v61h-610v-61h266v-1060h-266v-61zM675 1432h-247l-284 264h287zM515 1493l-132 140h-60l139 -140h53z" />
    <glyph glyph-name="Iacute" unicode="&#xcd;" horiz-adv-x="1059" 
d="M115 0v283h274v834h-274v283h829v-283h-273v-834h273v-283h-829zM225 110h610v61h-283v1060h283v61h-610v-61h266v-1060h-266v-61zM407 1432l244 264h287l-284 -264h-247zM567 1493h54l139 140h-61z" />
    <glyph glyph-name="Icircumflex" unicode="&#xce;" horiz-adv-x="1059" 
d="M115 0v283h274v834h-274v283h829v-283h-273v-834h273v-283h-829zM225 110h610v61h-283v1060h283v61h-610v-61h266v-1060h-266v-61zM404 1716h252l224 -284h-277l-73 108l-73 -108h-277zM458 1646l-101 -134h60l71 100h80l72 -100h60l-101 134h-141z" />
    <glyph glyph-name="Idieresis" unicode="&#xcf;" horiz-adv-x="1059" 
d="M115 0v283h274v834h-274v283h829v-283h-273v-834h273v-283h-829zM225 110h610v61h-283v1060h283v61h-610v-61h266v-1060h-266v-61zM633 1452v210h212v-210h-212zM217 1452v210h212v-210h-212zM300 1532h43v49h-43v-49zM718 1532h42v49h-42v-49z" />
    <glyph glyph-name="Eth" unicode="&#xd0;" horiz-adv-x="1223" 
d="M178 0v562h-173v256h173v582h759l206 -206v-988l-206 -206h-759zM290 110h589l151 152v874l-151 152h-589v-573h-172v-57h172v-548zM352 172v486h262v57h-262v512h499l118 -117v-822l-118 -116h-499zM461 283h339l61 61v712l-61 61h-339v-299h256v-256h-256v-279z" />
    <glyph glyph-name="Ntilde" unicode="&#xd1;" horiz-adv-x="1465" 
d="M235 106h61v1117h231l365 -1113h339v1182h-61v-1118h-231l-364 1114h-340v-1182zM125 0v1400h543l346 -1113h43v1113h283v-1400h-543l-348 1116h-41v-1116h-283zM457 1432v136l112 112h178l56 -56h18v56h192v-136l-112 -112h-178l-56 56h-18v-56h-192zM535 1495h46v20
l48 52h65l68 -65h99l79 84v33h-46v-20l-48 -52h-72l-66 65h-94l-79 -84v-33z" />
    <glyph glyph-name="Ograve" unicode="&#xd2;" horiz-adv-x="1306" 
d="M321 0l-206 206v988l206 206h664l206 -206v-988l-206 -206h-664zM459 283h388l61 61v712l-61 61h-388l-61 -61v-712zM380 115h548l152 151v875l-152 151h-548l-152 -151v-875zM407 176l-118 116v823l118 116h494l117 -116v-823l-117 -116h-494zM798 1432h-247l-284 264
h287zM638 1493l-132 140h-60l139 -140h53z" />
    <glyph glyph-name="Oacute" unicode="&#xd3;" horiz-adv-x="1306" 
d="M321 0l-206 206v988l206 206h664l206 -206v-988l-206 -206h-664zM459 283h388l61 61v712l-61 61h-388l-61 -61v-712zM380 115h548l152 151v875l-152 151h-548l-152 -151v-875zM407 176l-118 116v823l118 116h494l117 -116v-823l-117 -116h-494zM530 1432l244 264h287
l-284 -264h-247zM690 1493h54l139 140h-61z" />
    <glyph glyph-name="Ocircumflex" unicode="&#xd4;" horiz-adv-x="1306" 
d="M321 0l-206 206v988l206 206h664l206 -206v-988l-206 -206h-664zM459 283h388l61 61v712l-61 61h-388l-61 -61v-712zM380 115h548l152 151v875l-152 151h-548l-152 -151v-875zM407 176l-118 116v823l118 116h494l117 -116v-823l-117 -116h-494zM527 1716h252l224 -284
h-277l-73 108l-73 -108h-277zM581 1646l-101 -134h60l71 100h80l72 -100h60l-101 134h-141z" />
    <glyph glyph-name="Otilde" unicode="&#xd5;" horiz-adv-x="1306" 
d="M321 0l-206 206v988l206 206h664l206 -206v-988l-206 -206h-664zM459 283h388l61 61v712l-61 61h-388l-61 -61v-712zM380 115h548l152 151v875l-152 151h-548l-152 -151v-875zM407 176l-118 116v823l118 116h494l117 -116v-823l-117 -116h-494zM374 1432v136l112 112h178
l56 -56h18v56h192v-136l-112 -112h-178l-56 56h-18v-56h-192zM452 1495h46v20l48 52h65l68 -65h99l79 84v33h-46v-20l-48 -52h-72l-66 65h-94l-79 -84v-33z" />
    <glyph glyph-name="Odieresis" unicode="&#xd6;" horiz-adv-x="1306" 
d="M321 0l-206 206v988l206 206h664l206 -206v-988l-206 -206h-664zM459 283h388l61 61v712l-61 61h-388l-61 -61v-712zM380 115h548l152 151v875l-152 151h-548l-152 -151v-875zM407 176l-118 116v823l118 116h494l117 -116v-823l-117 -116h-494zM756 1452v210h212v-210
h-212zM340 1452v210h212v-210h-212zM423 1532h43v49h-43v-49zM841 1532h42v49h-42v-49z" />
    <glyph glyph-name="multiply" unicode="&#xd7;" horiz-adv-x="836" 
d="M552 278l-133 133l-132 -133l-181 181l133 133l-133 132l181 181l132 -132l133 132l181 -181l-133 -132l133 -133zM548 423l40 40l-126 127l130 130l-40 40l-130 -130l-128 128l-41 -41l129 -127l-124 -124l41 -41l123 124z" />
    <glyph glyph-name="Oslash" unicode="&#xd8;" horiz-adv-x="1390" 
d="M304 -53l-196 139l73 102l-20 18v988l206 206h644l17 -16l57 81l197 -137l-82 -117l17 -17v-988l-206 -206h-644l-14 15zM542 283h331l61 61v493zM446 159l-66 58l649 920l30 -37v-824l-118 -117h-495zM265 53l79 113l68 -68h556l152 152v907l-45 45l86 122l-42 29
l-80 -114l-71 70h-556l-152 -152v-907l46 -46l-85 -120zM352 268l-31 39v824l118 116h495l68 -59zM444 560l394 558h-332l-62 -62v-496z" />
    <glyph glyph-name="Ugrave" unicode="&#xd9;" horiz-adv-x="1328" 
d="M321 0l-206 206v1194h283v-1056l61 -61h410l61 61v1056h283v-1194l-206 -206h-686zM379 110h572l152 150v1032h-62v-1006l-118 -114h-517l-119 114v1006h-62v-1032zM810 1432h-247l-284 264h287zM650 1493l-132 140h-60l139 -140h53z" />
    <glyph glyph-name="Uacute" unicode="&#xda;" horiz-adv-x="1328" 
d="M321 0l-206 206v1194h283v-1056l61 -61h410l61 61v1056h283v-1194l-206 -206h-686zM379 110h572l152 150v1032h-62v-1006l-118 -114h-517l-119 114v1006h-62v-1032zM542 1432l244 264h287l-284 -264h-247zM702 1493h54l139 140h-61z" />
    <glyph glyph-name="Ucircumflex" unicode="&#xdb;" horiz-adv-x="1328" 
d="M321 0l-206 206v1194h283v-1056l61 -61h410l61 61v1056h283v-1194l-206 -206h-686zM379 110h572l152 150v1032h-62v-1006l-118 -114h-517l-119 114v1006h-62v-1032zM539 1716h252l224 -284h-277l-73 108l-73 -108h-277zM593 1646l-101 -134h60l71 100h80l72 -100h60
l-101 134h-141z" />
    <glyph glyph-name="Udieresis" unicode="&#xdc;" horiz-adv-x="1328" 
d="M321 0l-206 206v1194h283v-1056l61 -61h410l61 61v1056h283v-1194l-206 -206h-686zM379 110h572l152 150v1032h-62v-1006l-118 -114h-517l-119 114v1006h-62v-1032zM768 1452v210h212v-210h-212zM352 1452v210h212v-210h-212zM435 1532h43v49h-43v-49zM853 1532h42v49
h-42v-49z" />
    <glyph glyph-name="Yacute" unicode="&#xdd;" horiz-adv-x="1294" 
d="M505 0v443l-400 382v575h283v-473l268 -253h-19l269 253v473h283v-575l-401 -382v-443h-283zM615 106h62v379l401 379v428h-62v-409l-367 -346h-5l-368 346v409h-61v-428l400 -379v-379zM524 1432l244 264h287l-284 -264h-247zM684 1493h54l139 140h-61z" />
    <glyph glyph-name="Thorn" unicode="&#xde;" horiz-adv-x="1132" 
d="M105 0v1400h283v-320h432l207 -206v-348l-207 -206h-432v-320h-283zM215 107h61v326h476l161 162v236l-145 145h-492v321h-61v-1190zM276 494v420h465l111 -109v-184l-128 -127h-448zM388 603h295l61 61v72l-61 62h-295v-195z" />
    <glyph glyph-name="germandbls" unicode="&#xdf;" horiz-adv-x="1306" 
d="M85 0v1194l206 206h659l206 -206v-357l-89 -89l154 -155v-367l-226 -226h-375v283h237l81 81v101l-164 164v227l100 99v101l-61 61h-384l-61 -61v-1056h-283zM192 111h62v1017l96 99h542l92 -100v-223l-91 -91v-141l153 -154v-217l-132 -127h-199v-61h227l165 157v270
l-153 159v90l91 92v275l-123 131h-603l-127 -127v-1049z" />
    <glyph glyph-name="agrave" unicode="&#xe0;" horiz-adv-x="1253" 
d="M316 0l-206 206v285l206 206h544v39l-61 61h-675v283h813l206 -206v-668l-206 -206h-621zM403 171l-120 118v136l107 106h590v-234l-127 -126h-450zM375 110h505l162 161v545l-155 155h-646v-62h618l121 -119v-199h-613l-145 -143v-185zM454 283h345l61 61v80h-426
l-42 -42v-38zM773 1112h-247l-284 264h287zM613 1173l-132 140h-60l139 -140h53z" />
    <glyph glyph-name="aacute" unicode="&#xe1;" horiz-adv-x="1253" 
d="M316 0l-206 206v285l206 206h544v39l-61 61h-675v283h813l206 -206v-668l-206 -206h-621zM403 171l-120 118v136l107 106h590v-234l-127 -126h-450zM375 110h505l162 161v545l-155 155h-646v-62h618l121 -119v-199h-613l-145 -143v-185zM454 283h345l61 61v80h-426
l-42 -42v-38zM505 1112l244 264h287l-284 -264h-247zM665 1173h54l139 140h-61z" />
    <glyph glyph-name="acircumflex" unicode="&#xe2;" horiz-adv-x="1253" 
d="M316 0l-206 206v285l206 206h544v39l-61 61h-675v283h813l206 -206v-668l-206 -206h-621zM403 171l-120 118v136l107 106h590v-234l-127 -126h-450zM375 110h505l162 161v545l-155 155h-646v-62h618l121 -119v-199h-613l-145 -143v-185zM454 283h345l61 61v80h-426
l-42 -42v-38zM502 1396h252l224 -284h-277l-73 108l-73 -108h-277zM556 1326l-101 -134h60l71 100h80l72 -100h60l-101 134h-141z" />
    <glyph glyph-name="atilde" unicode="&#xe3;" horiz-adv-x="1253" 
d="M316 0l-206 206v285l206 206h544v39l-61 61h-675v283h813l206 -206v-668l-206 -206h-621zM403 171l-120 118v136l107 106h590v-234l-127 -126h-450zM375 110h505l162 161v545l-155 155h-646v-62h618l121 -119v-199h-613l-145 -143v-185zM454 283h345l61 61v80h-426
l-42 -42v-38zM349 1112v136l112 112h178l56 -56h18v56h192v-136l-112 -112h-178l-56 56h-18v-56h-192zM427 1175h46v20l48 52h65l68 -65h99l79 84v33h-46v-20l-48 -52h-72l-66 65h-94l-79 -84v-33z" />
    <glyph glyph-name="adieresis" unicode="&#xe4;" horiz-adv-x="1253" 
d="M316 0l-206 206v285l206 206h544v39l-61 61h-675v283h813l206 -206v-668l-206 -206h-621zM403 171l-120 118v136l107 106h590v-234l-127 -126h-450zM375 110h505l162 161v545l-155 155h-646v-62h618l121 -119v-199h-613l-145 -143v-185zM454 283h345l61 61v80h-426
l-42 -42v-38zM731 1132v210h212v-210h-212zM315 1132v210h212v-210h-212zM398 1212h43v49h-43v-49zM816 1212h42v49h-42v-49z" />
    <glyph glyph-name="aring" unicode="&#xe5;" horiz-adv-x="1253" 
d="M316 0l-206 206v285l206 206h544v39l-61 61h-675v283h813l206 -206v-668l-206 -206h-621zM403 171l-120 118v136l107 106h590v-234l-127 -126h-450zM375 110h505l162 161v545l-155 155h-646v-62h618l121 -119v-199h-613l-145 -143v-185zM454 283h345l61 61v80h-426
l-42 -42v-38zM536 1110l-98 97v174l98 98h183l98 -98v-174l-98 -97h-183zM570 1177h116l66 65v108l-66 65h-116l-66 -65v-108zM588 1220l-39 40v73l39 38h80l39 -38v-73l-39 -40h-80zM619 1277h17l9 10v15l-9 9h-17l-9 -9v-15z" />
    <glyph glyph-name="ae" unicode="&#xe6;" horiz-adv-x="1790" 
d="M339 0l-206 206v280l206 206h342l66 65v-21l-62 61h-207l-129 -128l-228 192l218 219h485l67 -67l67 67h485l206 -206v-292l-206 -194h-342l-66 -65v21l62 -61h207l129 128l228 -192l-218 -219h-485l-67 67l-67 -67h-485zM383 115h377l128 128l128 -128h393l107 106
l-48 42l-86 -87h-339l-121 120v31l170 169h324l137 133v180l-154 157h-376l-129 -128l-128 128h-393l-107 -106l48 -42l86 87h339l121 -120v-32l-170 -169h-324l-137 -135v-181zM410 176l-119 118v133l98 98h313l158 158v-381l-128 -126h-322zM922 397v382l128 126h322
l119 -118v-134l-98 -98h-313zM478 283h207l62 61v96l-19 -19h-270l-42 -42v-35zM1035 640l19 19h270l42 42v35l-62 61h-207l-62 -61v-96z" />
    <glyph glyph-name="ccedilla" unicode="&#xe7;" horiz-adv-x="1148" 
d="M385 -349v157h205l30 32l-30 30h-134v130h-123l-206 206v668l206 206h484l206 -206v-224h-283v86l-61 61h-208l-61 -61v-392l61 -61h208l61 61v86h283v-224l-206 -206h-93l139 -160l-163 -189h-315zM461 -290h197l116 130l-116 128h-68v142h169l154 154v74h-62v-48
l-119 -118h-304l-127 126v494l121 120h310l119 -118v-49h62v75l-154 153h-365l-155 -155v-550l162 -158h132v-181h100l82 -89l-82 -91h-172v-39z" />
    <glyph glyph-name="egrave" unicode="&#xe8;" horiz-adv-x="1253" 
d="M937 1080l206 -206v-285l-206 -206h-544v-39l61 -61h675v-283h-813l-206 206v668l206 206h621zM850 909l120 -118v-136l-107 -106h-590v234l127 126h450zM878 970h-505l-162 -161v-545l155 -155h646v62h-618l-121 119v199h613l145 143v185zM799 797h-345l-61 -61v-80h426
l42 42v38zM774 1112h-247l-284 264h287zM614 1173l-132 140h-60l139 -140h53z" />
    <glyph glyph-name="eacute" unicode="&#xe9;" horiz-adv-x="1253" 
d="M937 1080l206 -206v-285l-206 -206h-544v-39l61 -61h675v-283h-813l-206 206v668l206 206h621zM850 909l120 -118v-136l-107 -106h-590v234l127 126h450zM878 970h-505l-162 -161v-545l155 -155h646v62h-618l-121 119v199h613l145 143v185zM799 797h-345l-61 -61v-80h426
l42 42v38zM506 1112l244 264h287l-284 -264h-247zM666 1173h54l139 140h-61z" />
    <glyph glyph-name="ecircumflex" unicode="&#xea;" horiz-adv-x="1253" 
d="M937 1080l206 -206v-285l-206 -206h-544v-39l61 -61h675v-283h-813l-206 206v668l206 206h621zM850 909l120 -118v-136l-107 -106h-590v234l127 126h450zM878 970h-505l-162 -161v-545l155 -155h646v62h-618l-121 119v199h613l145 143v185zM799 797h-345l-61 -61v-80h426
l42 42v38zM503 1396h252l224 -284h-277l-73 108l-73 -108h-277zM557 1326l-101 -134h60l71 100h80l72 -100h60l-101 134h-141z" />
    <glyph glyph-name="edieresis" unicode="&#xeb;" horiz-adv-x="1253" 
d="M937 1080l206 -206v-285l-206 -206h-544v-39l61 -61h675v-283h-813l-206 206v668l206 206h621zM850 909l120 -118v-136l-107 -106h-590v234l127 126h450zM878 970h-505l-162 -161v-545l155 -155h646v62h-618l-121 119v199h613l145 143v185zM799 797h-345l-61 -61v-80h426
l42 42v38zM732 1132v210h212v-210h-212zM316 1132v210h212v-210h-212zM399 1212h43v49h-43v-49zM817 1212h42v49h-42v-49z" />
    <glyph glyph-name="igrave" unicode="&#xec;" horiz-adv-x="990" 
d="M114 0v283h240v514h-240v283h522v-797h240v-283h-762zM215 110h561v61h-259v801h-302v-61h241v-740h-241v-61zM640 1112h-247l-284 264h287zM480 1173l-132 140h-60l139 -140h53z" />
    <glyph glyph-name="iacute" unicode="&#xed;" horiz-adv-x="990" 
d="M114 0v283h240v514h-240v283h522v-797h240v-283h-762zM215 110h561v61h-259v801h-302v-61h241v-740h-241v-61zM372 1112l244 264h287l-284 -264h-247zM532 1173h54l139 140h-61z" />
    <glyph glyph-name="icircumflex" unicode="&#xee;" horiz-adv-x="990" 
d="M114 0v283h240v514h-240v283h522v-797h240v-283h-762zM215 110h561v61h-259v801h-302v-61h241v-740h-241v-61zM369 1396h252l224 -284h-277l-73 108l-73 -108h-277zM423 1326l-101 -134h60l71 100h80l72 -100h60l-101 134h-141z" />
    <glyph glyph-name="idieresis" unicode="&#xef;" horiz-adv-x="990" 
d="M114 0v283h240v514h-240v283h522v-797h240v-283h-762zM215 110h561v61h-259v801h-302v-61h241v-740h-241v-61zM598 1132v210h212v-210h-212zM182 1132v210h212v-210h-212zM265 1212h43v49h-43v-49zM683 1212h42v49h-42v-49z" />
    <glyph glyph-name="eth" unicode="&#xf0;" horiz-adv-x="1120" 
d="M325 0l-206 206v536l206 206h187l-120 111l101 100l-242 241h394l45 -45l65 65l128 -118l-73 -72l191 -196v-828l-206 -206h-470zM413 174l-120 117v368l120 118h249l171 -168v-313l-125 -122h-295zM462 283h196l61 61v241l-81 80h-176l-61 -61v-260zM385 112h351
l158 158v712l-208 217l81 81l-32 31l-79 -79l-78 81h-85l121 -124l-95 -94l32 -31l94 94l188 -196v-280l-160 157h-288l-153 -154v-420zM719 908v28l-103 101l-89 -89h152z" />
    <glyph glyph-name="ntilde" unicode="&#xf1;" horiz-adv-x="1180" 
d="M110 0v874l206 206h548l206 -206v-874h-282v736l-61 61h-274l-61 -61v-736h-282zM222 110h61v680l122 119h374l119 -118v-681h62v707l-154 154h-429l-155 -155v-706zM318 1112v136l112 112h178l56 -56h18v56h192v-136l-112 -112h-178l-56 56h-18v-56h-192zM396 1175h46
v20l48 52h65l68 -65h99l79 84v33h-46v-20l-48 -52h-72l-66 65h-94l-79 -84v-33z" />
    <glyph glyph-name="ograve" unicode="&#xf2;" horiz-adv-x="1257" 
d="M316 0l-206 206v668l206 206h625l206 -206v-668l-206 -206h-625zM385 110h498l153 153v554l-153 154h-505l-155 -155v-545zM412 171l-128 126v493l122 119h449l119 -118v-502l-119 -118h-443zM454 283h349l61 61v392l-61 61h-349l-61 -61v-392zM773 1112h-247l-284 264
h287zM613 1173l-132 140h-60l139 -140h53z" />
    <glyph glyph-name="oacute" unicode="&#xf3;" horiz-adv-x="1257" 
d="M316 0l-206 206v668l206 206h625l206 -206v-668l-206 -206h-625zM385 110h498l153 153v554l-153 154h-505l-155 -155v-545zM412 171l-128 126v493l122 119h449l119 -118v-502l-119 -118h-443zM454 283h349l61 61v392l-61 61h-349l-61 -61v-392zM505 1112l244 264h287
l-284 -264h-247zM665 1173h54l139 140h-61z" />
    <glyph glyph-name="ocircumflex" unicode="&#xf4;" horiz-adv-x="1257" 
d="M316 0l-206 206v668l206 206h625l206 -206v-668l-206 -206h-625zM385 110h498l153 153v554l-153 154h-505l-155 -155v-545zM412 171l-128 126v493l122 119h449l119 -118v-502l-119 -118h-443zM454 283h349l61 61v392l-61 61h-349l-61 -61v-392zM502 1396h252l224 -284
h-277l-73 108l-73 -108h-277zM556 1326l-101 -134h60l71 100h80l72 -100h60l-101 134h-141z" />
    <glyph glyph-name="otilde" unicode="&#xf5;" horiz-adv-x="1257" 
d="M316 0l-206 206v668l206 206h625l206 -206v-668l-206 -206h-625zM385 110h498l153 153v554l-153 154h-505l-155 -155v-545zM412 171l-128 126v493l122 119h449l119 -118v-502l-119 -118h-443zM454 283h349l61 61v392l-61 61h-349l-61 -61v-392zM349 1112v136l112 112h178
l56 -56h18v56h192v-136l-112 -112h-178l-56 56h-18v-56h-192zM427 1175h46v20l48 52h65l68 -65h99l79 84v33h-46v-20l-48 -52h-72l-66 65h-94l-79 -84v-33z" />
    <glyph glyph-name="odieresis" unicode="&#xf6;" horiz-adv-x="1257" 
d="M316 0l-206 206v668l206 206h625l206 -206v-668l-206 -206h-625zM385 110h498l153 153v554l-153 154h-505l-155 -155v-545zM412 171l-128 126v493l122 119h449l119 -118v-502l-119 -118h-443zM454 283h349l61 61v392l-61 61h-349l-61 -61v-392zM731 1132v210h212v-210
h-212zM315 1132v210h212v-210h-212zM398 1212h43v49h-43v-49zM816 1212h42v49h-42v-49z" />
    <glyph glyph-name="divide" unicode="&#xf7;" horiz-adv-x="836" 
d="M102 476v256h632v-256h-632zM215 572h416v57h-416v-57zM309 159v210h212v-210h-212zM392 239h43v49h-43v-49zM309 839v210h212v-210h-212zM392 919h43v49h-43v-49z" />
    <glyph glyph-name="oslash" unicode="&#xf8;" horiz-adv-x="1158" 
d="M300 -53l-196 139l58 80l-40 40v668l206 206h485h5l40 57l196 -137l-67 -94l31 -32v-668l-205 -206h-475l-4 -5zM538 283h136l62 61v207zM264 53l72 101l49 -49h380l141 141v588l-53 53l80 114l-42 29l-75 -106l-51 51h-374l-155 -143v-577l61 -63l-77 -108zM425 167
l-51 42l435 615l36 -45v-507l-107 -105h-313zM341 253l-44 54v499l121 107h309l51 -42zM405 510l213 288h-151l-62 -62v-226z" />
    <glyph glyph-name="ugrave" unicode="&#xf9;" horiz-adv-x="1202" 
d="M316 0l-206 206v874h283v-736l61 -61h294l61 61v736h283v-874l-206 -206h-570zM381 111h448l154 162v698h-62v-672l-119 -126h-393l-128 126v672h-61v-698zM748 1112h-247l-284 264h287zM588 1173l-132 140h-60l139 -140h53z" />
    <glyph glyph-name="uacute" unicode="&#xfa;" horiz-adv-x="1202" 
d="M316 0l-206 206v874h283v-736l61 -61h294l61 61v736h283v-874l-206 -206h-570zM381 111h448l154 162v698h-62v-672l-119 -126h-393l-128 126v672h-61v-698zM480 1112l244 264h287l-284 -264h-247zM640 1173h54l139 140h-61z" />
    <glyph glyph-name="ucircumflex" unicode="&#xfb;" horiz-adv-x="1202" 
d="M316 0l-206 206v874h283v-736l61 -61h294l61 61v736h283v-874l-206 -206h-570zM381 111h448l154 162v698h-62v-672l-119 -126h-393l-128 126v672h-61v-698zM477 1396h252l224 -284h-277l-73 108l-73 -108h-277zM531 1326l-101 -134h60l71 100h80l72 -100h60l-101 134
h-141z" />
    <glyph glyph-name="udieresis" unicode="&#xfc;" horiz-adv-x="1202" 
d="M316 0l-206 206v874h283v-736l61 -61h294l61 61v736h283v-874l-206 -206h-570zM381 111h448l154 162v698h-62v-672l-119 -126h-393l-128 126v672h-61v-698zM706 1132v210h212v-210h-212zM290 1132v210h212v-210h-212zM373 1212h43v49h-43v-49zM791 1212h42v49h-42v-49z
" />
    <glyph glyph-name="yacute" unicode="&#xfd;" horiz-adv-x="1206" 
d="M316 0l-206 206v874h283v-736l61 -61h245l100 100v697h282v-1274l-206 -206h-715v282h558l81 81v57l-20 -20h-463zM286 -292h520l166 172v1091h-61v-620l-179 -177h-333l-117 117v680h-62v-706l151 -153h379l161 161v-364l-136 -140h-489v-61zM470 1112l244 264h287
l-284 -264h-247zM630 1173h54l139 140h-61z" />
    <glyph glyph-name="thorn" unicode="&#xfe;" horiz-adv-x="1132" 
d="M105 -400v1900h283v-439l20 19h412l207 -206v-668l-207 -206h-412l-20 19v-419h-283zM468 282h215l61 62v392l-61 62h-215l-80 -81v-354zM218 -281h61v543l147 -147h346l145 145v571l-145 145h-346l-147 -147v563h-61v-1673zM440 177l-161 159v419l161 159h304l111 -109
v-519l-111 -109h-304z" />
    <glyph glyph-name="ydieresis" unicode="&#xff;" horiz-adv-x="1206" 
d="M316 0l-206 206v874h283v-736l61 -61h245l100 100v697h282v-1274l-206 -206h-715v282h558l81 81v57l-20 -20h-463zM286 -292h520l166 172v1091h-61v-620l-179 -177h-333l-117 117v680h-62v-706l151 -153h379l161 161v-364l-136 -140h-489v-61zM696 1132v210h212v-210
h-212zM280 1132v210h212v-210h-212zM363 1212h43v49h-43v-49zM781 1212h42v49h-42v-49z" />
    <glyph glyph-name="Amacron" unicode="&#x100;" horiz-adv-x="1288" 
d="M115 0v1194l206 206h646l206 -206v-1194h-282v412h-494v-412h-282zM230 120h61v400h710v-400h62v1025l-152 151h-530l-151 -151v-1025zM397 694h494v362l-61 61h-372l-61 -61v-362zM291 581v538l118 116h475l117 -116v-538h-710zM329 1431v256h632v-256h-632zM442 1527
h416v57h-416v-57z" />
    <glyph glyph-name="amacron" unicode="&#x101;" horiz-adv-x="1253" 
d="M316 0l-206 206v285l206 206h544v39l-61 61h-675v283h813l206 -206v-668l-206 -206h-621zM403 171l-120 118v136l107 106h590v-234l-127 -126h-450zM375 110h505l162 161v545l-155 155h-646v-62h618l121 -119v-199h-613l-145 -143v-185zM454 283h345l61 61v80h-426
l-42 -42v-38zM312 1111v256h632v-256h-632zM425 1207h416v57h-416v-57z" />
    <glyph glyph-name="Abreve" unicode="&#x102;" horiz-adv-x="1311" 
d="M30 0l369 1400h508l374 -1400h-325l-73 296h-456l-71 -296h-326zM185 105h69l74 292h658l76 -292h69l-312 1185h-330zM341 454l194 775h237l201 -775h-632zM483 552h344l-137 564h-77zM532 1432l-112 112v156h192v-76h78v76h192v-156l-112 -112h-238zM577 1502h149l80 84
v41h-46v-28l-48 -52h-120l-48 52v28h-46v-41z" />
    <glyph glyph-name="abreve" unicode="&#x103;" horiz-adv-x="1253" 
d="M316 0l-206 206v285l206 206h544v39l-61 61h-675v283h813l206 -206v-668l-206 -206h-621zM403 171l-120 118v136l107 106h590v-234l-127 -126h-450zM375 110h505l162 161v545l-155 155h-646v-62h618l121 -119v-199h-613l-145 -143v-185zM454 283h345l61 61v80h-426
l-42 -42v-38zM509 1112l-112 112v156h192v-76h78v76h192v-156l-112 -112h-238zM554 1182h149l80 84v41h-46v-28l-48 -52h-120l-48 52v28h-46v-41z" />
    <glyph glyph-name="Aogonek" unicode="&#x104;" horiz-adv-x="1164" 
d="M854 -369l-163 189l162 180h-26l-60 296h-389l-59 -296h-299l304 1400h498l304 -1400h-52l-180 -180l30 -32h235v-157h-305zM884 -310h221v39h-203l-82 91l187 196h5l-274 1284h-326l-255 -1195h65l59 292h587l77 -378h11l-187 -199zM293 454l164 789h235l164 -789h-563z
M429 552h286l-114 564h-60z" />
    <glyph glyph-name="aogonek" unicode="&#x105;" horiz-adv-x="1140" 
d="M591 -369l-183 189l180 180h-261l-206 206v270l206 206h407v54l-61 61h-538v283h676l206 -206v-668l-386 -386l30 -32h235v-157h-305zM611 -310h221v39h-203l-82 91l364 385v606l-155 155h-504v-61h476l121 -120v-211h-471l-145 -143v-168l153 -153h381l-274 -290z
M465 283h269v126h-289l-42 -42v-23zM414 171l-120 118v119l107 106h448v-294l-44 -49h-391z" />
    <glyph glyph-name="Cacute" unicode="&#x106;" horiz-adv-x="1244" 
d="M311 0l-206 206v988l206 206h621l207 -206v-322h-283v184l-61 61h-346l-61 -61v-712l61 -61h346l61 61v184h283v-322l-207 -206h-621zM366 111h511l152 152v167h-62v-141l-118 -116h-455l-118 116v826l118 116h455l118 -116v-142h62v168l-152 151h-511l-151 -151v-878z
M503 1432l244 264h287l-284 -264h-247zM663 1493h54l139 140h-61z" />
    <glyph glyph-name="cacute" unicode="&#x107;" horiz-adv-x="1205" 
d="M316 0l-206 206v668l206 206h764v-283h-626l-61 -61v-392l61 -61h626v-283h-764zM384 110h586v62h-559l-127 126v494l121 120h565v61h-593l-155 -155v-550zM468 1112l244 264h287l-284 -264h-247zM628 1173h54l139 140h-61z" />
    <glyph glyph-name="Ccircumflex" unicode="&#x108;" horiz-adv-x="1244" 
d="M311 0l-206 206v988l206 206h621l207 -206v-322h-283v184l-61 61h-346l-61 -61v-712l61 -61h346l61 61v184h283v-322l-207 -206h-621zM366 111h511l152 152v167h-62v-141l-118 -116h-455l-118 116v826l118 116h455l118 -116v-142h62v168l-152 151h-511l-151 -151v-878z
M500 1716h252l224 -284h-277l-73 108l-73 -108h-277zM554 1646l-101 -134h60l71 100h80l72 -100h60l-101 134h-141z" />
    <glyph glyph-name="ccircumflex" unicode="&#x109;" horiz-adv-x="1205" 
d="M316 0l-206 206v668l206 206h764v-283h-626l-61 -61v-392l61 -61h626v-283h-764zM384 110h586v62h-559l-127 126v494l121 120h565v61h-593l-155 -155v-550zM465 1396h252l224 -284h-277l-73 108l-73 -108h-277zM519 1326l-101 -134h60l71 100h80l72 -100h60l-101 134
h-141z" />
    <glyph glyph-name="Cdotaccent" unicode="&#x10a;" horiz-adv-x="1244" 
d="M311 0l-206 206v988l206 206h621l207 -206v-322h-283v184l-61 61h-346l-61 -61v-712l61 -61h346l61 61v184h283v-322l-207 -206h-621zM366 111h511l152 152v167h-62v-141l-118 -116h-455l-118 116v826l118 116h455l118 -116v-142h62v168l-152 151h-511l-151 -151v-878z
M521 1452v210h212v-210h-212zM604 1532h43v49h-43v-49z" />
    <glyph glyph-name="cdotaccent" unicode="&#x10b;" horiz-adv-x="1205" 
d="M316 0l-206 206v668l206 206h764v-283h-626l-61 -61v-392l61 -61h626v-283h-764zM384 110h586v62h-559l-127 126v494l121 120h565v61h-593l-155 -155v-550zM486 1132v210h212v-210h-212zM569 1212h43v49h-43v-49z" />
    <glyph glyph-name="Ccaron" unicode="&#x10c;" horiz-adv-x="1244" 
d="M311 0l-206 206v988l206 206h621l207 -206v-322h-283v184l-61 61h-346l-61 -61v-712l61 -61h346l61 61v184h283v-322l-207 -206h-621zM366 111h511l152 152v167h-62v-141l-118 -116h-455l-118 116v826l118 116h455l118 -116v-142h62v168l-152 151h-511l-151 -151v-878z
M500 1432l-224 284h277l73 -108l73 108h277l-224 -284h-252zM554 1502h141l101 134h-60l-72 -100h-80l-71 100h-60z" />
    <glyph glyph-name="ccaron" unicode="&#x10d;" horiz-adv-x="1205" 
d="M316 0l-206 206v668l206 206h764v-283h-626l-61 -61v-392l61 -61h626v-283h-764zM384 110h586v62h-559l-127 126v494l121 120h565v61h-593l-155 -155v-550zM465 1112l-224 284h277l73 -108l73 108h277l-224 -284h-252zM519 1182h141l101 134h-60l-72 -100h-80l-71 100
h-60z" />
    <glyph glyph-name="Dcaron" unicode="&#x10e;" horiz-adv-x="1289" 
d="M125 0v1400h833l206 -206v-988l-206 -206h-833zM408 283h413l61 61v712l-61 61h-413v-834zM237 110h663l151 152v874l-151 152h-663v-1178zM299 172v1055h573l118 -117v-822l-118 -116h-573zM519 1432l-224 284h277l73 -108l73 108h277l-224 -284h-252zM573 1502h141
l101 134h-60l-72 -100h-80l-71 100h-60z" />
    <glyph glyph-name="dcaron" unicode="&#x10f;" horiz-adv-x="1492" 
d="M879 0h-562l-207 206v668l207 206h466l20 -19v439h283v-1294zM787 168h-374l-128 126v511l111 109h358l161 -159v-461zM742 283l61 61v373l-80 81h-269l-61 -62v-392l61 -61h288zM815 106l162 162v1124h-62v-563l-146 147h-400l-145 -145v-563l162 -162h429zM1236 1046
l-46 172v282h302v-282l-48 -172h-208zM1324 1141h37l15 77v167h-65v-167z" />
    <glyph glyph-name="Dcroat" unicode="&#x110;" horiz-adv-x="1223" 
d="M178 0v562h-173v256h173v582h759l206 -206v-988l-206 -206h-759zM290 110h589l151 152v874l-151 152h-589v-573h-172v-57h172v-548zM352 172v486h262v57h-262v512h499l118 -117v-822l-118 -116h-499zM461 283h339l61 61v712l-61 61h-339v-299h256v-256h-256v-279z" />
    <glyph glyph-name="dcroat" unicode="&#x111;" horiz-adv-x="1170" 
d="M312 0l-207 206v668l207 206h412l20 -19v113h-229v247h229v79h283v-79h120v-247h-120v-968l-207 -206h-508zM404 168l-128 126v511l111 109h304l161 -159v-461l-128 -126h-320zM449 283h234l61 61v373l-80 81h-215l-61 -62v-392zM376 106h376l161 162v1003h142v55h-142
v66h-61v-66h-226v-55h226v-442l-146 147h-346l-145 -145v-563z" />
    <glyph glyph-name="Emacron" unicode="&#x112;" horiz-adv-x="1140" 
d="M115 0v1400h910v-283h-627v-269h558v-283h-558v-282h627v-283h-910zM229 115h700v61h-639v500h569v62h-569v493h639v61h-700v-1177zM246 1431v256h632v-256h-632zM359 1527h416v57h-416v-57z" />
    <glyph glyph-name="emacron" unicode="&#x113;" horiz-adv-x="1253" 
d="M937 1080l206 -206v-285l-206 -206h-544v-39l61 -61h675v-283h-813l-206 206v668l206 206h621zM850 909l120 -118v-136l-107 -106h-590v234l127 126h450zM878 970h-505l-162 -161v-545l155 -155h646v62h-618l-121 119v199h613l145 143v185zM799 797h-345l-61 -61v-80h426
l42 42v38zM313 1111v256h632v-256h-632zM426 1207h416v57h-416v-57z" />
    <glyph glyph-name="Ebreve" unicode="&#x114;" horiz-adv-x="1140" 
d="M115 0v1400h910v-283h-627v-269h558v-283h-558v-282h627v-283h-910zM229 115h700v61h-639v500h569v62h-569v493h639v61h-700v-1177zM443 1432l-112 112v156h192v-76h78v76h192v-156l-112 -112h-238zM488 1502h149l80 84v41h-46v-28l-48 -52h-120l-48 52v28h-46v-41z" />
    <glyph glyph-name="ebreve" unicode="&#x115;" horiz-adv-x="1253" 
d="M937 1080l206 -206v-285l-206 -206h-544v-39l61 -61h675v-283h-813l-206 206v668l206 206h621zM850 909l120 -118v-136l-107 -106h-590v234l127 126h450zM878 970h-505l-162 -161v-545l155 -155h646v62h-618l-121 119v199h613l145 143v185zM799 797h-345l-61 -61v-80h426
l42 42v38zM510 1112l-112 112v156h192v-76h78v76h192v-156l-112 -112h-238zM555 1182h149l80 84v41h-46v-28l-48 -52h-120l-48 52v28h-46v-41z" />
    <glyph glyph-name="Edotaccent" unicode="&#x116;" horiz-adv-x="1140" 
d="M115 0v1400h910v-283h-627v-269h558v-283h-558v-282h627v-283h-910zM229 115h700v61h-639v500h569v62h-569v493h639v61h-700v-1177zM457 1452v210h212v-210h-212zM540 1532h43v49h-43v-49z" />
    <glyph glyph-name="edotaccent" unicode="&#x117;" horiz-adv-x="1253" 
d="M937 1080l206 -206v-285l-206 -206h-544v-39l61 -61h675v-283h-813l-206 206v668l206 206h621zM850 909l120 -118v-136l-107 -106h-590v234l127 126h450zM878 970h-505l-162 -161v-545l155 -155h646v62h-618l-121 119v199h613l145 143v185zM799 797h-345l-61 -61v-80h426
l42 42v38zM524 1132v210h212v-210h-212zM607 1212h43v49h-43v-49z" />
    <glyph glyph-name="Eogonek" unicode="&#x118;" horiz-adv-x="1063" 
d="M595 -369l-163 189l162 180h-479v1400h833v-283h-550v-269h481v-283h-481v-282h550v-283h-133l-180 -180l30 -32h235v-157h-305zM619 -310h221v39h-203l-82 91l277 295h20v61h-562v500h492v62h-492v493h562v61h-623v-1177h548v-5l-273 -290z" />
    <glyph glyph-name="eogonek" unicode="&#x119;" horiz-adv-x="1140" 
d="M617 -367l-163 189l160 178h-285l-206 206v668l206 206h484l206 -206v-270l-206 -206h-407v-54l61 -61h538v-283h-170l-178 -178l30 -32h235v-157h-305zM643 -308h221v39h-203l-82 91l276 292h25v61h-468l-121 120v211h471l145 143v168l-153 154h-363l-162 -162v-540
l155 -155h418l-274 -292zM291 566v217l128 126h307l120 -118v-119l-107 -106h-448zM406 671h289l42 42v23l-62 61h-208l-61 -61v-65z" />
    <glyph glyph-name="Ecaron" unicode="&#x11a;" horiz-adv-x="1140" 
d="M115 0v1400h910v-283h-627v-269h558v-283h-558v-282h627v-283h-910zM229 115h700v61h-639v500h569v62h-569v493h639v61h-700v-1177zM436 1432l-224 284h277l73 -108l73 108h277l-224 -284h-252zM490 1502h141l101 134h-60l-72 -100h-80l-71 100h-60z" />
    <glyph glyph-name="ecaron" unicode="&#x11b;" horiz-adv-x="1253" 
d="M937 1080l206 -206v-285l-206 -206h-544v-39l61 -61h675v-283h-813l-206 206v668l206 206h621zM850 909l120 -118v-136l-107 -106h-590v234l127 126h450zM878 970h-505l-162 -161v-545l155 -155h646v62h-618l-121 119v199h613l145 143v185zM799 797h-345l-61 -61v-80h426
l42 42v38zM503 1112l-224 284h277l73 -108l73 108h277l-224 -284h-252zM557 1182h141l101 134h-60l-72 -100h-80l-71 100h-60z" />
    <glyph glyph-name="Gcircumflex" unicode="&#x11c;" horiz-adv-x="1278" 
d="M321 0l-206 206v988l206 206h636l206 -206v-252h-282v114l-61 61h-363l-60 -63v-711l60 -60h363l61 61v138h-277v282h559v-558l-206 -206h-636zM379 115h522l152 151v385h-338v-61h276v-298l-117 -116h-468l-118 116v823l118 116h468l117 -116v-68h62v94l-152 151h-522
l-152 -151v-875zM513 1716h252l224 -284h-277l-73 108l-73 -108h-277zM567 1646l-101 -134h60l71 100h80l72 -100h60l-101 134h-141z" />
    <glyph glyph-name="gcircumflex" unicode="&#x11d;" horiz-adv-x="1210" 
d="M160 -400v282h562l81 81v57l-20 -20h-467l-206 206v668l206 206h563l206 -206v-1068l-206 -206h-719zM270 -292h535l175 180v924l-162 162h-444l-154 -153v-546l164 -163h373l161 161v-356l-144 -148h-504v-61zM411 174l-129 127v494l119 118h390l127 -127v-435
l-179 -177h-328zM454 283h249l100 100v354l-62 61h-287l-61 -61v-393zM467 1396h252l224 -284h-277l-73 108l-73 -108h-277zM521 1326l-101 -134h60l71 100h80l72 -100h60l-101 134h-141z" />
    <glyph glyph-name="Gbreve" unicode="&#x11e;" horiz-adv-x="1278" 
d="M321 0l-206 206v988l206 206h636l206 -206v-252h-282v114l-61 61h-363l-60 -63v-711l60 -60h363l61 61v138h-277v282h559v-558l-206 -206h-636zM379 115h522l152 151v385h-338v-61h276v-298l-117 -116h-468l-118 116v823l118 116h468l117 -116v-68h62v94l-152 151h-522
l-152 -151v-875zM520 1432l-112 112v156h192v-76h78v76h192v-156l-112 -112h-238zM565 1502h149l80 84v41h-46v-28l-48 -52h-120l-48 52v28h-46v-41z" />
    <glyph glyph-name="gbreve" unicode="&#x11f;" horiz-adv-x="1210" 
d="M160 -400v282h562l81 81v57l-20 -20h-467l-206 206v668l206 206h563l206 -206v-1068l-206 -206h-719zM270 -292h535l175 180v924l-162 162h-444l-154 -153v-546l164 -163h373l161 161v-356l-144 -148h-504v-61zM411 174l-129 127v494l119 118h390l127 -127v-435
l-179 -177h-328zM454 283h249l100 100v354l-62 61h-287l-61 -61v-393zM474 1112l-112 112v156h192v-76h78v76h192v-156l-112 -112h-238zM519 1182h149l80 84v41h-46v-28l-48 -52h-120l-48 52v28h-46v-41z" />
    <glyph glyph-name="Gdotaccent" unicode="&#x120;" horiz-adv-x="1278" 
d="M321 0l-206 206v988l206 206h636l206 -206v-252h-282v114l-61 61h-363l-60 -63v-711l60 -60h363l61 61v138h-277v282h559v-558l-206 -206h-636zM379 115h522l152 151v385h-338v-61h276v-298l-117 -116h-468l-118 116v823l118 116h468l117 -116v-68h62v94l-152 151h-522
l-152 -151v-875zM534 1452v210h212v-210h-212zM617 1532h43v49h-43v-49z" />
    <glyph glyph-name="gdotaccent" unicode="&#x121;" horiz-adv-x="1210" 
d="M160 -400v282h562l81 81v57l-20 -20h-467l-206 206v668l206 206h563l206 -206v-1068l-206 -206h-719zM270 -292h535l175 180v924l-162 162h-444l-154 -153v-546l164 -163h373l161 161v-356l-144 -148h-504v-61zM411 174l-129 127v494l119 118h390l127 -127v-435
l-179 -177h-328zM454 283h249l100 100v354l-62 61h-287l-61 -61v-393zM488 1132v210h212v-210h-212zM571 1212h43v49h-43v-49z" />
    <glyph glyph-name="uni0122" unicode="&#x122;" horiz-adv-x="1278" 
d="M321 0l-206 206v988l206 206h636l206 -206v-252h-282v114l-61 61h-363l-60 -63v-711l60 -60h363l61 61v138h-277v282h559v-558l-206 -206h-636zM379 115h522l152 151v385h-338v-61h276v-298l-117 -116h-468l-118 116v823l118 116h468l117 -116v-68h62v94l-152 151h-522
l-152 -151v-875zM391 -530l114 458h271l-159 -458h-226zM509 -437h40l91 250h-66z" />
    <glyph glyph-name="uni0123" unicode="&#x123;" horiz-adv-x="1210" 
d="M160 -400v282h562l81 81v57l-20 -20h-467l-206 206v668l206 206h563l206 -206v-1068l-206 -206h-719zM270 -292h535l175 180v924l-162 162h-444l-154 -153v-546l164 -163h373l161 161v-356l-144 -148h-504v-61zM411 174l-129 127v494l119 118h390l127 -127v-435
l-179 -177h-328zM454 283h249l100 100v354l-62 61h-287l-61 -61v-393zM813 1568l-114 -458h-271l159 458h226zM695 1475h-40l-91 -250h66z" />
    <glyph glyph-name="Hcircumflex" unicode="&#x124;" horiz-adv-x="1295" 
d="M125 0v1400h283v-552h480v552h282v-1400h-282v565h-480v-565h-283zM236 108h62v571h701v-571h62v1184h-62v-552h-701v552h-62v-1184zM522 1716h252l224 -284h-277l-73 108l-73 -108h-277zM576 1646l-101 -134h60l71 100h80l72 -100h60l-101 134h-141z" />
    <glyph glyph-name="hcircumflex" unicode="&#x125;" horiz-adv-x="1210" 
d="M125 0v1499h283v-438l19 19h467l206 -206v-874h-283v736l-61 62h-268l-80 -81v-717h-283zM238 110h61v650l153 151h366l111 -110v-691h62v717l-145 145h-409l-138 -136v556h-61v-1282zM487 1816h252l224 -284h-277l-73 108l-73 -108h-277zM541 1746l-101 -134h60l71 100
h80l72 -100h60l-101 134h-141z" />
    <glyph glyph-name="Hbar" unicode="&#x126;" horiz-adv-x="1270" 
d="M142 0v979h-109v246h109v175h283v-175h400v175h283v-175h100v-246h-100v-979h-283v565h-400v-565h-283zM253 106h62v573h620v-573h62v979h124v56h-124v160h-62v-160h-620v160h-62v-160h-126v-56h126v-979zM315 740v345h620v-345h-620zM425 848h400v131h-400v-131z" />
    <glyph glyph-name="hbar" unicode="&#x127;" horiz-adv-x="1192" 
d="M143 0v1175h-111v246h111v79h283v-79h271v-246h-271v-114l19 19h414l205 -206v-874h-282v736l-62 62h-213l-81 -81v-717h-283zM251 93h61v656l159 163h309l111 -112v-707h61v733l-145 148h-352l-143 -150v448h281v55h-281v82h-61v-82h-135v-55h135v-1179z" />
    <glyph glyph-name="Itilde" unicode="&#x128;" horiz-adv-x="1059" 
d="M115 0v283h274v834h-274v283h829v-283h-273v-834h273v-283h-829zM225 110h610v61h-283v1060h283v61h-610v-61h266v-1060h-266v-61zM251 1432v136l112 112h178l56 -56h18v56h192v-136l-112 -112h-178l-56 56h-18v-56h-192zM329 1495h46v20l48 52h65l68 -65h99l79 84v33
h-46v-20l-48 -52h-72l-66 65h-94l-79 -84v-33z" />
    <glyph glyph-name="itilde" unicode="&#x129;" horiz-adv-x="990" 
d="M114 0v283h240v514h-240v283h522v-797h240v-283h-762zM215 110h561v61h-259v801h-302v-61h241v-740h-241v-61zM216 1112v136l112 112h178l56 -56h18v56h192v-136l-112 -112h-178l-56 56h-18v-56h-192zM294 1175h46v20l48 52h65l68 -65h99l79 84v33h-46v-20l-48 -52h-72
l-66 65h-94l-79 -84v-33z" />
    <glyph glyph-name="Imacron" unicode="&#x12a;" horiz-adv-x="1059" 
d="M115 0v283h274v834h-274v283h829v-283h-273v-834h273v-283h-829zM225 110h610v61h-283v1060h283v61h-610v-61h266v-1060h-266v-61zM214 1431v256h632v-256h-632zM327 1527h416v57h-416v-57z" />
    <glyph glyph-name="imacron" unicode="&#x12b;" horiz-adv-x="990" 
d="M114 0v283h240v514h-240v283h522v-797h240v-283h-762zM215 110h561v61h-259v801h-302v-61h241v-740h-241v-61zM179 1111v256h632v-256h-632zM292 1207h416v57h-416v-57z" />
    <glyph glyph-name="Ibreve" unicode="&#x12c;" horiz-adv-x="1059" 
d="M115 0v283h274v834h-274v283h829v-283h-273v-834h273v-283h-829zM225 110h610v61h-283v1060h283v61h-610v-61h266v-1060h-266v-61zM411 1432l-112 112v156h192v-76h78v76h192v-156l-112 -112h-238zM456 1502h149l80 84v41h-46v-28l-48 -52h-120l-48 52v28h-46v-41z" />
    <glyph glyph-name="ibreve" unicode="&#x12d;" horiz-adv-x="990" 
d="M114 0v283h240v514h-240v283h522v-797h240v-283h-762zM215 110h561v61h-259v801h-302v-61h241v-740h-241v-61zM376 1112l-112 112v156h192v-76h78v76h192v-156l-112 -112h-238zM421 1182h149l80 84v41h-46v-28l-48 -52h-120l-48 52v28h-46v-41z" />
    <glyph glyph-name="Iogonek" unicode="&#x12e;" horiz-adv-x="990" 
d="M382 -368l-163 189l161 179h-266v283h240v834h-240v283h762v-283h-240v-834h240v-283h-275l-179 -179l30 -32h235v-157h-305zM413 -310h221v40h-203l-82 90l273 290h154v61h-259v1060h259v61h-561v-61h241v-1060h-241v-61h353l-270 -290z" />
    <glyph glyph-name="iogonek" unicode="&#x12f;" horiz-adv-x="990" 
d="M360 -369l-163 189l162 180h-245v283h240v514h-240v283h522v-797h240v-283h-296l-180 -180l30 -32h235v-157h-305zM383 -310h220v39h-203l-82 91l275 290h183v61h-259v801h-302v-61h241v-740h-241v-61h324l-272 -290zM314 1237v263h322v-263h-322zM441 1337h68v75h-68
v-75z" />
    <glyph glyph-name="Idotaccent" unicode="&#x130;" horiz-adv-x="1059" 
d="M115 0v283h274v834h-274v283h829v-283h-273v-834h273v-283h-829zM225 110h610v61h-283v1060h283v61h-610v-61h266v-1060h-266v-61zM425 1452v210h212v-210h-212zM508 1532h43v49h-43v-49z" />
    <glyph glyph-name="dotlessi" unicode="&#x131;" horiz-adv-x="990" 
d="M114 0v283h240v514h-240v283h522v-797h240v-283h-762zM215 110h561v61h-259v801h-302v-61h241v-740h-241v-61z" />
    <glyph glyph-name="Jcircumflex" unicode="&#x134;" horiz-adv-x="1216" 
d="M322 0l-207 206v357h283v-219l61 -61h298l61 61v773h-512v283h795v-1194l-207 -206h-572zM378 116h465l152 152v1024h-584v-61h522v-936l-117 -117h-410l-118 117v160h-62v-187zM582 1716h252l224 -284h-277l-73 108l-73 -108h-277zM636 1646l-101 -134h60l71 100h80
l72 -100h60l-101 134h-141z" />
    <glyph glyph-name="jcircumflex" unicode="&#x135;" horiz-adv-x="706" 
d="M25 -400v282h181l80 81v835h-261v282h544v-1274l-206 -206h-338zM140 -284h169l150 155v1100h-328v-62h266v-1009l-119 -122h-138v-62zM227 1396h252l224 -284h-277l-73 108l-73 -108h-277zM281 1326l-101 -134h60l71 100h80l72 -100h60l-101 134h-141z" />
    <glyph glyph-name="uni0136" unicode="&#x136;" horiz-adv-x="1298" 
d="M125 0v1400h283v-552h349l119 119v433h283v-552l-141 -140l141 -143v-565h-283v447l-119 118h-349v-565h-283zM235 111h62v574h518l172 -177v-397h62v420l-177 184l177 177v400h-62v-378l-169 -167h-521v545h-62v-1181zM395 -530l114 458h271l-159 -458h-226zM513 -437
h40l91 250h-66z" />
    <glyph glyph-name="uni0137" unicode="&#x137;" horiz-adv-x="1139" 
d="M125 0v1400h283v-722h204l119 119v283h283v-402l-141 -140l141 -143v-395h-283v277l-119 118h-204v-395h-283zM235 111h62v399h371l173 -178v-221h61v244l-177 184l177 177v259h-61v-236l-170 -168h-374v721h-62v-1181zM325 -530l114 458h271l-159 -458h-226zM443 -437
h40l91 250h-66z" />
    <glyph glyph-name="kgreenlandic" unicode="&#x138;" horiz-adv-x="1092" 
d="M125 0v1080h283v-402h157l119 119v283h283v-402l-141 -140l141 -143v-395h-283v277l-119 118h-157v-395h-283zM235 111h62v399h324l173 -178v-221h61v244l-177 184l177 177v259h-61v-236l-170 -168h-327v401h-62v-861z" />
    <glyph glyph-name="Lacute" unicode="&#x139;" horiz-adv-x="1091" 
d="M125 0v1400h283v-1117h608v-283h-891zM236 109h671v61h-609v1122h-62v-1183zM140 1432l244 264h287l-284 -264h-247zM300 1493h54l139 140h-61z" />
    <glyph glyph-name="lacute" unicode="&#x13a;" horiz-adv-x="912" 
d="M45 0v283h270v934h-270v283h552v-1217h270v-283h-822zM155 110h603v61h-275v1221h-328v-61h266v-1160h-266v-61zM289 1532l244 264h287l-284 -264h-247zM449 1593h54l139 140h-61z" />
    <glyph glyph-name="uni013B" unicode="&#x13b;" horiz-adv-x="1091" 
d="M125 0v1400h283v-1117h608v-283h-891zM236 109h671v61h-609v1122h-62v-1183zM308 -530l114 458h271l-159 -458h-226zM426 -437h40l91 250h-66z" />
    <glyph glyph-name="uni013C" unicode="&#x13c;" horiz-adv-x="912" 
d="M45 0v283h270v934h-270v283h552v-1217h270v-283h-822zM155 110h603v61h-275v1221h-328v-61h266v-1160h-266v-61zM188 -530l114 458h271l-159 -458h-226zM306 -437h40l91 250h-66z" />
    <glyph glyph-name="Lcaron" unicode="&#x13d;" horiz-adv-x="1091" 
d="M125 0v1400h283v-1117h608v-283h-891zM236 109h671v61h-609v1122h-62v-1183zM872 946l-46 172v282h302v-282l-48 -172h-208zM960 1041h37l15 77v167h-65v-167z" />
    <glyph glyph-name="lcaron" unicode="&#x13e;" horiz-adv-x="1065" 
d="M45 0v283h270v934h-270v283h552v-1217h270v-283h-822zM155 110h603v61h-275v1221h-328v-61h266v-1160h-266v-61zM809 1046l-46 172v282h302v-282l-48 -172h-208zM897 1141h37l15 77v167h-65v-167z" />
    <glyph glyph-name="Ldot" unicode="&#x13f;" horiz-adv-x="1070" 
d="M125 0v1400h283v-1117h608v-283h-891zM236 109h671v61h-609v1122h-62v-1183zM633 588v294h314v-294h-314zM749 702h83v66h-83v-66z" />
    <glyph glyph-name="ldot" unicode="&#x140;" horiz-adv-x="1032" 
d="M45 0v283h270v934h-270v283h552v-1217h270v-283h-822zM155 110h603v61h-275v1221h-328v-61h266v-1160h-266v-61zM718 588v294h314v-294h-314zM834 702h83v66h-83v-66z" />
    <glyph glyph-name="Lslash" unicode="&#x141;" horiz-adv-x="1100" 
d="M181 0v488l-117 -47v250l117 47v662h283v-553l342 135v-250l-342 -135v-314h530v-283h-813zM290 110h622v61h-561v477l345 137v55l-345 -136v605h-61v-629l-134 -51v-55l134 51v-515z" />
    <glyph glyph-name="lslash" unicode="&#x142;" horiz-adv-x="588" 
d="M153 0v452l-164 -52v248l164 52v800h282v-712l162 50v-249l-162 -50v-539h-282zM264 101h62v493l175 54v56l-175 -54v751h-62v-770l-175 -54v-56l175 55v-475z" />
    <glyph glyph-name="Nacute" unicode="&#x143;" horiz-adv-x="1465" 
d="M235 106h61v1117h231l365 -1113h339v1182h-61v-1118h-231l-364 1114h-340v-1182zM125 0v1400h543l346 -1113h43v1113h283v-1400h-543l-348 1116h-41v-1116h-283zM613 1432l244 264h287l-284 -264h-247zM773 1493h54l139 140h-61z" />
    <glyph glyph-name="nacute" unicode="&#x144;" horiz-adv-x="1180" 
d="M110 0v874l206 206h548l206 -206v-874h-282v736l-61 61h-274l-61 -61v-736h-282zM222 110h61v680l122 119h374l119 -118v-681h62v707l-154 154h-429l-155 -155v-706zM474 1112l244 264h287l-284 -264h-247zM634 1173h54l139 140h-61z" />
    <glyph glyph-name="uni0145" unicode="&#x145;" horiz-adv-x="1465" 
d="M235 106h61v1117h231l365 -1113h339v1182h-61v-1118h-231l-364 1114h-340v-1182zM125 0v1400h543l346 -1113h43v1113h283v-1400h-543l-348 1116h-41v-1116h-283zM488 -530l114 458h271l-159 -458h-226zM606 -437h40l91 250h-66z" />
    <glyph glyph-name="uni0146" unicode="&#x146;" horiz-adv-x="1180" 
d="M110 0v874l206 206h548l206 -206v-874h-282v736l-61 61h-274l-61 -61v-736h-282zM222 110h61v680l122 119h374l119 -118v-681h62v707l-154 154h-429l-155 -155v-706zM349 -530l114 458h271l-159 -458h-226zM467 -437h40l91 250h-66z" />
    <glyph glyph-name="Ncaron" unicode="&#x147;" horiz-adv-x="1465" 
d="M235 106h61v1117h231l365 -1113h339v1182h-61v-1118h-231l-364 1114h-340v-1182zM125 0v1400h543l346 -1113h43v1113h283v-1400h-543l-348 1116h-41v-1116h-283zM610 1432l-224 284h277l73 -108l73 108h277l-224 -284h-252zM664 1502h141l101 134h-60l-72 -100h-80
l-71 100h-60z" />
    <glyph glyph-name="ncaron" unicode="&#x148;" horiz-adv-x="1180" 
d="M110 0v874l206 206h548l206 -206v-874h-282v736l-61 61h-274l-61 -61v-736h-282zM222 110h61v680l122 119h374l119 -118v-681h62v707l-154 154h-429l-155 -155v-706zM471 1112l-224 284h277l73 -108l73 108h277l-224 -284h-252zM525 1182h141l101 134h-60l-72 -100h-80
l-71 100h-60z" />
    <glyph glyph-name="Eng" unicode="&#x14a;" horiz-adv-x="1249" 
d="M596 -400v282h181l80 81v47l-465 800v-810h-283v1400h277l471 -810v810h283v-1594l-206 -206h-338zM738 -284h143l150 155v1438h-61v-1130l-662 1130h-89v-1211h61v1108h13l677 -1152v-154l-119 -122h-113v-62z" />
    <glyph glyph-name="eng" unicode="&#x14b;" horiz-adv-x="1130" 
d="M495 -400v282h161l80 81v773l-61 61h-220l-61 -61v-736h-282v874l206 206h494l206 -206v-1068l-205 -206h-318zM618 -284h140l150 155v946l-154 154h-375l-155 -155v-706h61v680l122 119h320l119 -118v-891l-119 -122h-109v-62z" />
    <glyph glyph-name="Omacron" unicode="&#x14c;" horiz-adv-x="1306" 
d="M321 0l-206 206v988l206 206h664l206 -206v-988l-206 -206h-664zM459 283h388l61 61v712l-61 61h-388l-61 -61v-712zM380 115h548l152 151v875l-152 151h-548l-152 -151v-875zM407 176l-118 116v823l118 116h494l117 -116v-823l-117 -116h-494zM337 1431v256h632v-256
h-632zM450 1527h416v57h-416v-57z" />
    <glyph glyph-name="omacron" unicode="&#x14d;" horiz-adv-x="1257" 
d="M316 0l-206 206v668l206 206h625l206 -206v-668l-206 -206h-625zM385 110h498l153 153v554l-153 154h-505l-155 -155v-545zM412 171l-128 126v493l122 119h449l119 -118v-502l-119 -118h-443zM454 283h349l61 61v392l-61 61h-349l-61 -61v-392zM312 1111v256h632v-256
h-632zM425 1207h416v57h-416v-57z" />
    <glyph glyph-name="Obreve" unicode="&#x14e;" horiz-adv-x="1306" 
d="M321 0l-206 206v988l206 206h664l206 -206v-988l-206 -206h-664zM459 283h388l61 61v712l-61 61h-388l-61 -61v-712zM380 115h548l152 151v875l-152 151h-548l-152 -151v-875zM407 176l-118 116v823l118 116h494l117 -116v-823l-117 -116h-494zM534 1432l-112 112v156
h192v-76h78v76h192v-156l-112 -112h-238zM579 1502h149l80 84v41h-46v-28l-48 -52h-120l-48 52v28h-46v-41z" />
    <glyph glyph-name="obreve" unicode="&#x14f;" horiz-adv-x="1257" 
d="M316 0l-206 206v668l206 206h625l206 -206v-668l-206 -206h-625zM385 110h498l153 153v554l-153 154h-505l-155 -155v-545zM412 171l-128 126v493l122 119h449l119 -118v-502l-119 -118h-443zM454 283h349l61 61v392l-61 61h-349l-61 -61v-392zM509 1112l-112 112v156
h192v-76h78v76h192v-156l-112 -112h-238zM554 1182h149l80 84v41h-46v-28l-48 -52h-120l-48 52v28h-46v-41z" />
    <glyph glyph-name="Ohungarumlaut" unicode="&#x150;" horiz-adv-x="1306" 
d="M321 0l-206 206v988l206 206h664l206 -206v-988l-206 -206h-664zM459 283h388l61 61v712l-61 61h-388l-61 -61v-712zM380 115h548l152 151v875l-152 151h-548l-152 -151v-875zM407 176l-118 116v823l118 116h494l117 -116v-823l-117 -116h-494zM694 1432l145 264h287
l-195 -264h-237zM471 1488h52l95 144h-62zM342 1432l145 264h287l-195 -264h-237zM823 1488h52l95 144h-62z" />
    <glyph glyph-name="ohungarumlaut" unicode="&#x151;" horiz-adv-x="1257" 
d="M316 0l-206 206v668l206 206h625l206 -206v-668l-206 -206h-625zM385 110h498l153 153v554l-153 154h-505l-155 -155v-545zM412 171l-128 126v493l122 119h449l119 -118v-502l-119 -118h-443zM454 283h349l61 61v392l-61 61h-349l-61 -61v-392zM669 1112l145 264h287
l-195 -264h-237zM446 1168h52l95 144h-62zM317 1112l145 264h287l-195 -264h-237zM798 1168h52l95 144h-62z" />
    <glyph glyph-name="OE" unicode="&#x152;" horiz-adv-x="1922" 
d="M363 0l-206 206v988l206 206h1400v-283h-550v-269h511v-283h-511v-282h550v-283h-1400zM447 159l-118 117v855l118 116h481l117 -116v-855l-117 -117h-481zM501 283h368l61 61v712l-61 61h-368l-61 -61v-712zM419 98h537l99 97l1 -97h616v61h-565v520h525v61h-525v507
h565v62h-616l-1 -97l-99 97h-537l-152 -152v-907z" />
    <glyph glyph-name="oe" unicode="&#x153;" horiz-adv-x="1766" 
d="M325 0l-206 206v668l206 206h484l66 -64l64 64h484l206 -206v-280l-206 -206h-342l-65 -65v21l61 -61h208l129 128l228 -192l-219 -219h-484l-64 65l-65 -65h-485zM413 171l-128 126v493l121 119h315l120 -118v-502l-120 -118h-308zM464 283h207l62 61v392l-62 61h-207
l-62 -61v-392zM385 110h364l124 123l123 -123h394l106 106l-47 42l-87 -87h-338l-122 120v36l170 169h308l136 135v186l-153 154h-360l-127 -127l-127 127h-370l-155 -155v-545zM902 397v386l128 126h305l120 -118v-138l-98 -98h-297zM1016 640l19 19h269l42 42v35l-61 61
h-208l-61 -61v-96z" />
    <glyph glyph-name="Racute" unicode="&#x154;" horiz-adv-x="1309" 
d="M125 0v1400h863l206 -206v-434l-122 -112l122 -133v-515h-283v415l-100 100h-403v-515h-283zM236 108h62v524h560l167 -179v-345h61v364l-173 189l167 142v337l-152 151h-692v-1183zM408 798h442l61 62v196l-61 61h-442v-319zM298 694v536h602l118 -116v-291l-154 -129
h-566zM534 1432l244 264h287l-284 -264h-247zM694 1493h54l139 140h-61z" />
    <glyph glyph-name="racute" unicode="&#x155;" horiz-adv-x="1148" 
d="M110 0v282h194v501l-15 15h-177v282h253l68 -80l77 80h389l219 -219l-218 -212l-138 148h-114l-61 -61v-455h194v-281h-671zM213 110h465v62h-202v629l104 104h248l88 -98l47 44l-107 115h-303l-111 -111l-102 111h-127v-61h109l92 -101v-632h-201v-62zM423 1112l244 264
h287l-284 -264h-247zM583 1173h54l139 140h-61z" />
    <glyph glyph-name="uni0156" unicode="&#x156;" horiz-adv-x="1309" 
d="M125 0v1400h863l206 -206v-434l-122 -112l122 -133v-515h-283v415l-100 100h-403v-515h-283zM236 108h62v524h560l167 -179v-345h61v364l-173 189l167 142v337l-152 151h-692v-1183zM408 798h442l61 62v196l-61 61h-442v-319zM298 694v536h602l118 -116v-291l-154 -129
h-566zM409 -530l114 458h271l-159 -458h-226zM527 -437h40l91 250h-66z" />
    <glyph glyph-name="uni0157" unicode="&#x157;" horiz-adv-x="1148" 
d="M110 0v282h194v501l-15 15h-177v282h253l68 -80l77 80h389l219 -219l-218 -212l-138 148h-114l-61 -61v-455h194v-281h-671zM213 110h465v62h-202v629l104 104h248l88 -98l47 44l-107 115h-303l-111 -111l-102 111h-127v-61h109l92 -101v-632h-201v-62zM198 -530l114 458
h271l-159 -458h-226zM316 -437h40l91 250h-66z" />
    <glyph glyph-name="Rcaron" unicode="&#x158;" horiz-adv-x="1309" 
d="M125 0v1400h863l206 -206v-434l-122 -112l122 -133v-515h-283v415l-100 100h-403v-515h-283zM236 108h62v524h560l167 -179v-345h61v364l-173 189l167 142v337l-152 151h-692v-1183zM408 798h442l61 62v196l-61 61h-442v-319zM298 694v536h602l118 -116v-291l-154 -129
h-566zM531 1432l-224 284h277l73 -108l73 108h277l-224 -284h-252zM585 1502h141l101 134h-60l-72 -100h-80l-71 100h-60z" />
    <glyph glyph-name="rcaron" unicode="&#x159;" horiz-adv-x="1148" 
d="M110 0v282h194v501l-15 15h-177v282h253l68 -80l77 80h389l219 -219l-218 -212l-138 148h-114l-61 -61v-455h194v-281h-671zM213 110h465v62h-202v629l104 104h248l88 -98l47 44l-107 115h-303l-111 -111l-102 111h-127v-61h109l92 -101v-632h-201v-62zM420 1112
l-224 284h277l73 -108l73 108h277l-224 -284h-252zM474 1182h141l101 134h-60l-72 -100h-80l-71 100h-60z" />
    <glyph glyph-name="Sacute" unicode="&#x15a;" horiz-adv-x="1302" 
d="M321 0l-206 206v252h283v-114l61 -61h384l61 61v154l-61 61h-516l-206 206v429l206 206h635l206 -206v-252h-283v114l-61 61h-359l-62 -61v-153l62 -61h516l206 -206v-430l-206 -206h-660zM374 110h545l152 151v336l-135 135h-524l-119 119v260l118 116h474l110 -107v-78
h61v104l-143 143h-530l-152 -152v-312l155 -155h522l101 -99v-284l-117 -116h-491l-109 108v79h-62v-105zM528 1432l244 264h287l-284 -264h-247zM688 1493h54l139 140h-61z" />
    <glyph glyph-name="sacute" unicode="&#x15b;" horiz-adv-x="1203" 
d="M120 0v283h630l61 61v-5l-59 60h-436l-206 206v269l206 206h757v-283h-620l-61 -61v6l61 -61h434l206 -206v-269l-206 -206h-767zM228 114h608l147 146v172l-147 143h-449l-104 102v121l112 111h570v62h-597l-147 -147v-172l139 -138h449l112 -107v-121l-112 -111h-581
v-61zM488 1112l244 264h287l-284 -264h-247zM648 1173h54l139 140h-61z" />
    <glyph glyph-name="Scircumflex" unicode="&#x15c;" horiz-adv-x="1302" 
d="M321 0l-206 206v252h283v-114l61 -61h384l61 61v154l-61 61h-516l-206 206v429l206 206h635l206 -206v-252h-283v114l-61 61h-359l-62 -61v-153l62 -61h516l206 -206v-430l-206 -206h-660zM374 110h545l152 151v336l-135 135h-524l-119 119v260l118 116h474l110 -107v-78
h61v104l-143 143h-530l-152 -152v-312l155 -155h522l101 -99v-284l-117 -116h-491l-109 108v79h-62v-105zM525 1716h252l224 -284h-277l-73 108l-73 -108h-277zM579 1646l-101 -134h60l71 100h80l72 -100h60l-101 134h-141z" />
    <glyph glyph-name="scircumflex" unicode="&#x15d;" horiz-adv-x="1203" 
d="M120 0v283h630l61 61v-5l-59 60h-436l-206 206v269l206 206h757v-283h-620l-61 -61v6l61 -61h434l206 -206v-269l-206 -206h-767zM228 114h608l147 146v172l-147 143h-449l-104 102v121l112 111h570v62h-597l-147 -147v-172l139 -138h449l112 -107v-121l-112 -111h-581
v-61zM485 1396h252l224 -284h-277l-73 108l-73 -108h-277zM539 1326l-101 -134h60l71 100h80l72 -100h60l-101 134h-141z" />
    <glyph glyph-name="Scedilla" unicode="&#x15e;" horiz-adv-x="1232" 
d="M427 -349v157h205l30 32l-30 30h-134v130h-175l-206 206v252h283v-114l61 -61h310l61 61v114l-61 61l-442 90l-206 206v379l206 206h561l206 -206v-252h-283v114l-61 61h-285l-62 -61v-103l62 -61l442 -90l206 -206v-390l-206 -206h-143l139 -160l-163 -189h-315z
M503 -290h197l116 130l-116 128h-68v142h215l152 151v296l-135 135l-450 90l-119 119v210l118 116h400l110 -107v-78h61v104l-143 143h-456l-152 -152v-262l155 -155l448 -90l101 -99v-244l-117 -116h-417l-109 108v87h-62v-113l144 -143h199v-181h100l82 -89l-82 -91h-172
v-39z" />
    <glyph glyph-name="scedilla" unicode="&#x15f;" horiz-adv-x="1152" 
d="M396 -349v157h205l30 32l-30 30h-134v130h-339v283h563l59 59l-57 57h-369l-206 206v269l206 206h690v-283h-553l-58 -58l58 -58h367l206 -206v-269l-206 -206h-93l139 -160l-163 -189h-315zM472 -290h197l116 130l-116 128h-68v146h176l147 146v172l-147 143h-382
l-104 102v121l112 111h503v62h-530l-147 -147v-172l139 -138h382l112 -107v-121l-112 -111h-514v-61h308v-185h100l82 -89l-82 -91h-172v-39z" />
    <glyph glyph-name="Scaron" unicode="&#x160;" horiz-adv-x="1302" 
d="M321 0l-206 206v252h283v-114l61 -61h384l61 61v154l-61 61h-516l-206 206v429l206 206h635l206 -206v-252h-283v114l-61 61h-359l-62 -61v-153l62 -61h516l206 -206v-430l-206 -206h-660zM374 110h545l152 151v336l-135 135h-524l-119 119v260l118 116h474l110 -107v-78
h61v104l-143 143h-530l-152 -152v-312l155 -155h522l101 -99v-284l-117 -116h-491l-109 108v79h-62v-105zM525 1432l-224 284h277l73 -108l73 108h277l-224 -284h-252zM579 1502h141l101 134h-60l-72 -100h-80l-71 100h-60z" />
    <glyph glyph-name="scaron" unicode="&#x161;" horiz-adv-x="1203" 
d="M120 0v283h630l61 61v-5l-59 60h-436l-206 206v269l206 206h757v-283h-620l-61 -61v6l61 -61h434l206 -206v-269l-206 -206h-767zM228 114h608l147 146v172l-147 143h-449l-104 102v121l112 111h570v62h-597l-147 -147v-172l139 -138h449l112 -107v-121l-112 -111h-581
v-61zM485 1112l-224 284h277l73 -108l73 108h277l-224 -284h-252zM539 1182h141l101 134h-60l-72 -100h-80l-71 100h-60z" />
    <glyph glyph-name="uni0162" unicode="&#x162;" horiz-adv-x="1092" 
d="M357 -349v157h205l30 32l-30 30h-157v1247h-310v283h902v-283h-310v-1107l148 -170l-163 -189h-315zM433 -290h197l116 130l-115 127h-55v1264h324v61h-708v-61h323v-1302h90l82 -89l-82 -91h-172v-39z" />
    <glyph glyph-name="uni0163" unicode="&#x163;" horiz-adv-x="883" 
d="M293 -349v157h205l30 32l-30 30h-134v130h-94v798h-225v282h225v274h283v-274h225v-282h-225v-515h218v-283h-139l139 -160l-163 -189h-315zM361 -290h197l115 130l-115 128l-73 5v137h178v61h-220v740h242v61h-242v288h-62v-288h-242v-61h242v-801h52v-181h100l81 -89
l-81 -91h-172v-39z" />
    <glyph glyph-name="Tcaron" unicode="&#x164;" horiz-adv-x="1126" 
d="M422 0v1117h-347v283h976v-283h-347v-1117h-282zM532 106h61v1125h353v61h-766v-61h352v-1125zM437 1432l-224 284h277l73 -108l73 108h277l-224 -284h-252zM491 1502h141l101 134h-60l-72 -100h-80l-71 100h-60z" />
    <glyph glyph-name="tcaron" unicode="&#x165;" horiz-adv-x="935" 
d="M294 0v798h-249v282h249v274h283v-274h248v-282h-248v-515h241v-283h-524zM405 110h305v61h-243v740h250v61h-250v273h-62v-273h-251v-61h251v-801zM313 1390l-224 284h277l73 -108l73 108h277l-224 -284h-252zM367 1460h141l101 134h-60l-72 -100h-80l-71 100h-60z" />
    <glyph glyph-name="Tbar" unicode="&#x166;" horiz-adv-x="1102" 
d="M395 0v704h-185v246h185v167h-310v283h902v-283h-310v-167h179v-246h-179v-704h-282zM505 106h61v693h195v55h-195v377h323v61h-708v-61h324v-377h-196v-55h196v-693z" />
    <glyph glyph-name="tbar" unicode="&#x167;" horiz-adv-x="898" 
d="M307 0v515h-225v247h225v48h-225v282h225v308h282v-308h218v-282h-218v-48h218v-247h-218v-515h-282zM418 101h62v510h233v56h-233v253h233v61h-233v320h-62v-320h-244v-61h244v-253h-239v-56h239v-510z" />
    <glyph glyph-name="Utilde" unicode="&#x168;" horiz-adv-x="1328" 
d="M321 0l-206 206v1194h283v-1056l61 -61h410l61 61v1056h283v-1194l-206 -206h-686zM379 110h572l152 150v1032h-62v-1006l-118 -114h-517l-119 114v1006h-62v-1032zM386 1432v136l112 112h178l56 -56h18v56h192v-136l-112 -112h-178l-56 56h-18v-56h-192zM464 1495h46v20
l48 52h65l68 -65h99l79 84v33h-46v-20l-48 -52h-72l-66 65h-94l-79 -84v-33z" />
    <glyph glyph-name="utilde" unicode="&#x169;" horiz-adv-x="1202" 
d="M316 0l-206 206v874h283v-736l61 -61h294l61 61v736h283v-874l-206 -206h-570zM381 111h448l154 162v698h-62v-672l-119 -126h-393l-128 126v672h-61v-698zM324 1112v136l112 112h178l56 -56h18v56h192v-136l-112 -112h-178l-56 56h-18v-56h-192zM402 1175h46v20l48 52
h65l68 -65h99l79 84v33h-46v-20l-48 -52h-72l-66 65h-94l-79 -84v-33z" />
    <glyph glyph-name="Umacron" unicode="&#x16a;" horiz-adv-x="1328" 
d="M321 0l-206 206v1194h283v-1056l61 -61h410l61 61v1056h283v-1194l-206 -206h-686zM379 110h572l152 150v1032h-62v-1006l-118 -114h-517l-119 114v1006h-62v-1032zM349 1431v256h632v-256h-632zM462 1527h416v57h-416v-57z" />
    <glyph glyph-name="umacron" unicode="&#x16b;" horiz-adv-x="1202" 
d="M316 0l-206 206v874h283v-736l61 -61h294l61 61v736h283v-874l-206 -206h-570zM381 111h448l154 162v698h-62v-672l-119 -126h-393l-128 126v672h-61v-698zM287 1111v256h632v-256h-632zM400 1207h416v57h-416v-57z" />
    <glyph glyph-name="Ubreve" unicode="&#x16c;" horiz-adv-x="1328" 
d="M321 0l-206 206v1194h283v-1056l61 -61h410l61 61v1056h283v-1194l-206 -206h-686zM379 110h572l152 150v1032h-62v-1006l-118 -114h-517l-119 114v1006h-62v-1032zM546 1432l-112 112v156h192v-76h78v76h192v-156l-112 -112h-238zM591 1502h149l80 84v41h-46v-28
l-48 -52h-120l-48 52v28h-46v-41z" />
    <glyph glyph-name="ubreve" unicode="&#x16d;" horiz-adv-x="1202" 
d="M316 0l-206 206v874h283v-736l61 -61h294l61 61v736h283v-874l-206 -206h-570zM381 111h448l154 162v698h-62v-672l-119 -126h-393l-128 126v672h-61v-698zM484 1112l-112 112v156h192v-76h78v76h192v-156l-112 -112h-238zM529 1182h149l80 84v41h-46v-28l-48 -52h-120
l-48 52v28h-46v-41z" />
    <glyph glyph-name="Uring" unicode="&#x16e;" horiz-adv-x="1328" 
d="M321 0l-206 206v1194h283v-1056l61 -61h410l61 61v1056h283v-1194l-206 -206h-686zM379 110h572l152 150v1032h-62v-1006l-118 -114h-517l-119 114v1006h-62v-1032zM573 1430l-98 97v174l98 98h183l98 -98v-174l-98 -97h-183zM607 1497h116l66 65v108l-66 65h-116
l-66 -65v-108zM625 1540l-39 40v73l39 38h80l39 -38v-73l-39 -40h-80zM656 1597h17l9 10v15l-9 9h-17l-9 -9v-15z" />
    <glyph glyph-name="uring" unicode="&#x16f;" horiz-adv-x="1202" 
d="M316 0l-206 206v874h283v-736l61 -61h294l61 61v736h283v-874l-206 -206h-570zM381 111h448l154 162v698h-62v-672l-119 -126h-393l-128 126v672h-61v-698zM511 1110l-98 97v174l98 98h183l98 -98v-174l-98 -97h-183zM545 1177h116l66 65v108l-66 65h-116l-66 -65v-108z
M563 1220l-39 40v73l39 38h80l39 -38v-73l-39 -40h-80zM594 1277h17l9 10v15l-9 9h-17l-9 -9v-15z" />
    <glyph glyph-name="Uhungarumlaut" unicode="&#x170;" horiz-adv-x="1328" 
d="M321 0l-206 206v1194h283v-1056l61 -61h410l61 61v1056h283v-1194l-206 -206h-686zM379 110h572l152 150v1032h-62v-1006l-118 -114h-517l-119 114v1006h-62v-1032zM706 1432l145 264h287l-195 -264h-237zM483 1488h52l95 144h-62zM354 1432l145 264h287l-195 -264h-237z
M835 1488h52l95 144h-62z" />
    <glyph glyph-name="uhungarumlaut" unicode="&#x171;" horiz-adv-x="1202" 
d="M316 0l-206 206v874h283v-736l61 -61h294l61 61v736h283v-874l-206 -206h-570zM381 111h448l154 162v698h-62v-672l-119 -126h-393l-128 126v672h-61v-698zM644 1112l145 264h287l-195 -264h-237zM421 1168h52l95 144h-62zM292 1112l145 264h287l-195 -264h-237z
M773 1168h52l95 144h-62z" />
    <glyph glyph-name="Uogonek" unicode="&#x172;" horiz-adv-x="1250" 
d="M512 -369l-163 189l162 180h-190l-206 206v1194h283v-1056l61 -61h330l61 61v1056h283v-1194l-206 -206h-195l-180 -180l30 -32h235v-157h-305zM539 -310h220v39h-202l-82 91l274 290h122l152 150v1032h-62v-1006l-118 -114h-437l-119 114v1006h-62v-1032l154 -150h317
l-272 -290z" />
    <glyph glyph-name="uogonek" unicode="&#x173;" horiz-adv-x="1152" 
d="M468 -369l-163 189l162 180h-148l-206 206v874h283v-736l61 -61h234l61 61v736h283v-874l-206 -206h-141l-180 -180l30 -32h235v-157h-305zM496 -310h220v39h-203l-82 91l276 291h65l154 162v698h-62v-672l-119 -126h-333l-128 126v672h-61v-698l161 -162h269l-273 -291z
" />
    <glyph glyph-name="Wcircumflex" unicode="&#x174;" horiz-adv-x="1738" 
d="M125 1400h283v-1116h44l166 996h502l167 -996h43v1116h283v-1400h-556l-164 993h-48l-164 -993h-556v1400zM235 1291v-1181h347l181 984h210l182 -984h347v1181h-62v-1117h-234l-181 983h-314l-180 -983h-235v1117h-61zM745 1716h252l224 -284h-277l-73 108l-73 -108
h-277zM799 1646l-101 -134h60l71 100h80l72 -100h60l-101 134h-141z" />
    <glyph glyph-name="wcircumflex" unicode="&#x175;" horiz-adv-x="1613" 
d="M110 1080h283v-736l61 -61h150l61 61v676h283v-676l61 -61h150l61 61v736h283v-874l-206 -206h-387l-103 102l-104 -102h-387l-206 206v874zM221 971v-710l155 -155h292l139 139l139 -139h292l155 155v710h-62v-684l-121 -119h-243l-129 128v623h-62v-623l-129 -128h-243
l-121 119v684h-62zM681 1396h252l224 -284h-277l-73 108l-73 -108h-277zM735 1326l-101 -134h60l71 100h80l72 -100h60l-101 134h-141z" />
    <glyph glyph-name="Ycircumflex" unicode="&#x176;" horiz-adv-x="1294" 
d="M505 0v443l-400 382v575h283v-473l268 -253h-19l269 253v473h283v-575l-401 -382v-443h-283zM615 106h62v379l401 379v428h-62v-409l-367 -346h-5l-368 346v409h-61v-428l400 -379v-379zM521 1716h252l224 -284h-277l-73 108l-73 -108h-277zM575 1646l-101 -134h60
l71 100h80l72 -100h60l-101 134h-141z" />
    <glyph glyph-name="ycircumflex" unicode="&#x177;" horiz-adv-x="1206" 
d="M316 0l-206 206v874h283v-736l61 -61h245l100 100v697h282v-1274l-206 -206h-715v282h558l81 81v57l-20 -20h-463zM286 -292h520l166 172v1091h-61v-620l-179 -177h-333l-117 117v680h-62v-706l151 -153h379l161 161v-364l-136 -140h-489v-61zM467 1396h252l224 -284
h-277l-73 108l-73 -108h-277zM521 1326l-101 -134h60l71 100h80l72 -100h60l-101 134h-141z" />
    <glyph glyph-name="Ydieresis" unicode="&#x178;" horiz-adv-x="1294" 
d="M505 0v443l-400 382v575h283v-473l268 -253h-19l269 253v473h283v-575l-401 -382v-443h-283zM615 106h62v379l401 379v428h-62v-409l-367 -346h-5l-368 346v409h-61v-428l400 -379v-379zM750 1452v210h212v-210h-212zM334 1452v210h212v-210h-212zM417 1532h43v49h-43
v-49zM835 1532h42v49h-42v-49z" />
    <glyph glyph-name="Zacute" unicode="&#x179;" horiz-adv-x="1123" 
d="M227 111h684v62h-616v222l611 602v295h-671v-61h604v-215l-612 -604v-301zM105 0v448l610 605v64h-591v283h894v-444l-604 -597v-76h604v-283h-913zM439 1432l244 264h287l-284 -264h-247zM599 1493h54l139 140h-61z" />
    <glyph glyph-name="zacute" unicode="&#x17a;" horiz-adv-x="1070" 
d="M244 113h612v61h-536v173l511 364v260h-597v-62h522v-180l-512 -367v-249zM110 0v399l515 368v30h-496v283h831v-407l-508 -358v-32h508v-283h-850zM412 1112l244 264h287l-284 -264h-247zM572 1173h54l139 140h-61z" />
    <glyph glyph-name="Zdotaccent" unicode="&#x17b;" horiz-adv-x="1123" 
d="M227 111h684v62h-616v222l611 602v295h-671v-61h604v-215l-612 -604v-301zM105 0v448l610 605v64h-591v283h894v-444l-604 -597v-76h604v-283h-913zM457 1452v210h212v-210h-212zM540 1532h43v49h-43v-49z" />
    <glyph glyph-name="zdotaccent" unicode="&#x17c;" horiz-adv-x="1070" 
d="M244 113h612v61h-536v173l511 364v260h-597v-62h522v-180l-512 -367v-249zM110 0v399l515 368v30h-496v283h831v-407l-508 -358v-32h508v-283h-850zM430 1132v210h212v-210h-212zM513 1212h43v49h-43v-49z" />
    <glyph glyph-name="Zcaron" unicode="&#x17d;" horiz-adv-x="1123" 
d="M227 111h684v62h-616v222l611 602v295h-671v-61h604v-215l-612 -604v-301zM105 0v448l610 605v64h-591v283h894v-444l-604 -597v-76h604v-283h-913zM436 1432l-224 284h277l73 -108l73 108h277l-224 -284h-252zM490 1502h141l101 134h-60l-72 -100h-80l-71 100h-60z" />
    <glyph glyph-name="zcaron" unicode="&#x17e;" horiz-adv-x="1070" 
d="M244 113h612v61h-536v173l511 364v260h-597v-62h522v-180l-512 -367v-249zM110 0v399l515 368v30h-496v283h831v-407l-508 -358v-32h508v-283h-850zM409 1112l-224 284h277l73 -108l73 108h277l-224 -284h-252zM463 1182h141l101 134h-60l-72 -100h-80l-71 100h-60z" />
    <glyph glyph-name="uni018F" unicode="&#x18f;" horiz-adv-x="1273" 
d="M327 0l-206 206v475l206 206h540v169l-61 61h-671v283h809l206 -206v-988l-206 -206h-617zM414 171l-120 118v326l107 106h586v-424l-127 -126h-446zM386 110h501l162 161v865l-155 155h-642v-62h614l121 -119v-329h-609l-145 -143v-375zM465 283h341l61 61v270h-422
l-42 -42v-228z" />
    <glyph glyph-name="florin" unicode="&#x192;" horiz-adv-x="1090" 
d="M-15 -400l28 263h212l49 45l93 890h-167l30 282h167l22 214l228 206h333l-28 -263h-212l-49 -45l-11 -112h256l-30 -282h-256l-104 -992l-228 -206h-333zM100 -299h176l164 149l110 1059h263l6 62h-262l27 256l126 114h149l6 58h-176l-164 -148l-30 -280h-166l-6 -62h166
l-108 -1036l-125 -114h-150z" />
    <glyph glyph-name="Ohorn" unicode="&#x1a0;" horiz-adv-x="1329" 
d="M459 283h204l61 61v712l-61 61h-204l-61 -61v-712zM380 115h364l152 151v875l-152 151h-364l-152 -151v-875zM407 176l-118 116v823l118 116h310l117 -116v-823l-117 -116h-310zM1205 1288v-123l-90 -98h-219v-39h244l116 129v131h-51zM1116 1355h228v-199l-163 -187
h-174v-763l-206 -206h-480l-206 206v988l206 206h480l206 -206v-68h64l45 45v184z" />
    <glyph glyph-name="ohorn" unicode="&#x1a1;" horiz-adv-x="1270" 
d="M380 110h301l153 153v554l-153 154h-308l-155 -155v-545zM407 171l-128 126v493l122 119h252l119 -118v-502l-119 -118h-246zM449 283h152l61 61v392l-61 61h-152l-61 -61v-392zM1146 954v-123l-90 -98h-222v-39h247l116 129v131h-51zM1057 1021h228v-199l-163 -187h-177
v-429l-206 -206h-428l-206 206v668l206 206h428l206 -206v-82h67l45 45v184z" />
    <glyph glyph-name="Uhorn" unicode="&#x1af;" horiz-adv-x="1329" 
d="M379 110h382l152 150v1032h-62v-1006l-118 -114h-327l-119 114v1006h-62v-1032zM1205 1288v-123l-90 -98h-202v-39h227l116 129v131h-51zM1116 1355h228v-199l-163 -187h-158v-763l-206 -206h-496l-206 206v1194h283v-1056l61 -61h220l61 61v1056h283v-274h48l45 45v184z
" />
    <glyph glyph-name="uhorn" unicode="&#x1b0;" horiz-adv-x="1270" 
d="M384 111h298l154 162v698h-62v-672l-119 -126h-243l-128 126v672h-61v-698zM1146 954v-123l-90 -98h-220v-39h245l116 129v131h-51zM1057 1021h228v-199l-163 -187h-177v-429l-206 -206h-420l-206 206v874h283v-736l61 -61h144l61 61v736h283v-288h67l45 45v184z" />
    <glyph glyph-name="uni01C4" unicode="&#x1c4;" horiz-adv-x="2411" 
d="M125 0v1400h833l206 -206v-988l-206 -206h-833zM408 283h413l61 61v712l-61 61h-413v-834zM237 110h663l151 152v874l-151 152h-663v-1178zM299 172v1055h573l118 -117v-822l-118 -116h-573zM1516 111h684v62h-616v222l611 602v295h-671v-61h604v-215l-612 -604v-301z
M1394 0v448l610 605v64h-591v283h894v-444l-604 -597v-76h604v-283h-913zM1725 1432l-224 284h277l73 -108l73 108h277l-224 -284h-252zM1779 1502h141l101 134h-60l-72 -100h-80l-71 100h-60z" />
    <glyph glyph-name="uni01C5" unicode="&#x1c5;" horiz-adv-x="2359" 
d="M125 0v1400h833l206 -206v-988l-206 -206h-833zM408 283h413l61 61v712l-61 61h-413v-834zM237 110h663l151 152v874l-151 152h-663v-1178zM299 172v1055h573l118 -117v-822l-118 -116h-573zM1533 113h612v61h-536v173l511 364v260h-597v-62h522v-180l-512 -367v-249z
M1399 0v399l515 368v30h-496v283h831v-407l-508 -358v-32h508v-283h-850zM1698 1112l-224 284h277l73 -108l73 108h277l-224 -284h-252zM1752 1182h141l101 134h-60l-72 -100h-80l-71 100h-60z" />
    <glyph glyph-name="uni01C6" unicode="&#x1c6;" horiz-adv-x="2281" 
d="M879 0h-562l-207 206v668l207 206h466l20 -19v439h283v-1294zM787 168h-374l-128 126v511l111 109h358l161 -159v-461zM742 283l61 61v373l-80 81h-269l-61 -62v-392l61 -61h288zM815 106l162 162v1124h-62v-563l-146 147h-400l-145 -145v-563l162 -162h429zM1455 113
h612v61h-536v173l511 364v260h-597v-62h522v-180l-512 -367v-249zM1321 0v399l515 368v30h-496v283h831v-407l-508 -358v-32h508v-283h-850zM1620 1112l-224 284h277l73 -108l73 108h277l-224 -284h-252zM1674 1182h141l101 134h-60l-72 -100h-80l-71 100h-60z" />
    <glyph glyph-name="uni01C7" unicode="&#x1c7;" horiz-adv-x="2306" 
d="M125 0v1400h283v-1117h608v-283h-891zM236 109h671v61h-609v1122h-62v-1183zM1413 0l-207 206v357h283v-219l61 -61h298l61 61v773h-512v283h795v-1194l-207 -206h-572zM1469 116h465l152 152v1024h-584v-61h522v-936l-117 -117h-410l-118 117v160h-62v-187z" />
    <glyph glyph-name="uni01C8" unicode="&#x1c8;" horiz-adv-x="1815" 
d="M125 0v1400h283v-1117h608v-283h-891zM236 109h671v61h-609v1122h-62v-1183zM1076 -400v282h251l80 81v835h-331v282h614v-1274l-206 -206h-408zM1191 -284h239l150 155v1100h-398v-62h336v-1009l-119 -122h-208v-62zM1407 1236v264h283v-264h-283zM1518 1337h62v75h-62
v-75z" />
    <glyph glyph-name="uni01C9" unicode="&#x1c9;" horiz-adv-x="1636" 
d="M45 0v283h270v934h-270v283h552v-1217h270v-283h-822zM155 110h603v61h-275v1221h-328v-61h266v-1160h-266v-61zM897 -400v282h251l80 81v835h-331v282h614v-1274l-206 -206h-408zM1012 -284h239l150 155v1100h-398v-62h336v-1009l-119 -122h-208v-62zM1228 1236v264h283
v-264h-283zM1339 1337h62v75h-62v-75z" />
    <glyph glyph-name="uni01CA" unicode="&#x1ca;" horiz-adv-x="2680" 
d="M235 106h61v1117h231l365 -1113h339v1182h-61v-1118h-231l-364 1114h-340v-1182zM125 0v1400h543l346 -1113h43v1113h283v-1400h-543l-348 1116h-41v-1116h-283zM1787 0l-207 206v357h283v-219l61 -61h298l61 61v773h-512v283h795v-1194l-207 -206h-572zM1843 116h465
l152 152v1024h-584v-61h522v-936l-117 -117h-410l-118 117v160h-62v-187z" />
    <glyph glyph-name="uni01CB" unicode="&#x1cb;" horiz-adv-x="2189" 
d="M235 106h61v1117h231l365 -1113h339v1182h-61v-1118h-231l-364 1114h-340v-1182zM125 0v1400h543l346 -1113h43v1113h283v-1400h-543l-348 1116h-41v-1116h-283zM1450 -400v282h251l80 81v835h-331v282h614v-1274l-206 -206h-408zM1565 -284h239l150 155v1100h-398v-62
h336v-1009l-119 -122h-208v-62zM1781 1236v264h283v-264h-283zM1892 1337h62v75h-62v-75z" />
    <glyph glyph-name="uni01CC" unicode="&#x1cc;" horiz-adv-x="1904" 
d="M110 0v874l206 206h548l206 -206v-874h-282v736l-61 61h-274l-61 -61v-736h-282zM222 110h61v680l122 119h374l119 -118v-681h62v707l-154 154h-429l-155 -155v-706zM1165 -400v282h251l80 81v835h-331v282h614v-1274l-206 -206h-408zM1280 -284h239l150 155v1100h-398
v-62h336v-1009l-119 -122h-208v-62zM1496 1236v264h283v-264h-283zM1607 1337h62v75h-62v-75z" />
    <glyph glyph-name="uni01CD" unicode="&#x1cd;" horiz-adv-x="1311" 
d="M30 0l369 1400h508l374 -1400h-325l-73 296h-456l-71 -296h-326zM185 105h69l74 292h658l76 -292h69l-312 1185h-330zM341 454l194 775h237l201 -775h-632zM483 552h344l-137 564h-77zM525 1432l-224 284h277l73 -108l73 108h277l-224 -284h-252zM579 1502h141l101 134
h-60l-72 -100h-80l-71 100h-60z" />
    <glyph glyph-name="uni01CE" unicode="&#x1ce;" horiz-adv-x="1253" 
d="M316 0l-206 206v285l206 206h544v39l-61 61h-675v283h813l206 -206v-668l-206 -206h-621zM403 171l-120 118v136l107 106h590v-234l-127 -126h-450zM375 110h505l162 161v545l-155 155h-646v-62h618l121 -119v-199h-613l-145 -143v-185zM454 283h345l61 61v80h-426
l-42 -42v-38zM502 1112l-224 284h277l73 -108l73 108h277l-224 -284h-252zM556 1182h141l101 134h-60l-72 -100h-80l-71 100h-60z" />
    <glyph glyph-name="uni01CF" unicode="&#x1cf;" horiz-adv-x="1059" 
d="M115 0v283h274v834h-274v283h829v-283h-273v-834h273v-283h-829zM225 110h610v61h-283v1060h283v61h-610v-61h266v-1060h-266v-61zM404 1432l-224 284h277l73 -108l73 108h277l-224 -284h-252zM458 1502h141l101 134h-60l-72 -100h-80l-71 100h-60z" />
    <glyph glyph-name="uni01D0" unicode="&#x1d0;" horiz-adv-x="990" 
d="M114 0v283h240v514h-240v283h522v-797h240v-283h-762zM215 110h561v61h-259v801h-302v-61h241v-740h-241v-61zM369 1112l-224 284h277l73 -108l73 108h277l-224 -284h-252zM423 1182h141l101 134h-60l-72 -100h-80l-71 100h-60z" />
    <glyph glyph-name="uni01D1" unicode="&#x1d1;" horiz-adv-x="1306" 
d="M321 0l-206 206v988l206 206h664l206 -206v-988l-206 -206h-664zM459 283h388l61 61v712l-61 61h-388l-61 -61v-712zM380 115h548l152 151v875l-152 151h-548l-152 -151v-875zM407 176l-118 116v823l118 116h494l117 -116v-823l-117 -116h-494zM527 1432l-224 284h277
l73 -108l73 108h277l-224 -284h-252zM581 1502h141l101 134h-60l-72 -100h-80l-71 100h-60z" />
    <glyph glyph-name="uni01D2" unicode="&#x1d2;" horiz-adv-x="1257" 
d="M316 0l-206 206v668l206 206h625l206 -206v-668l-206 -206h-625zM385 110h498l153 153v554l-153 154h-505l-155 -155v-545zM412 171l-128 126v493l122 119h449l119 -118v-502l-119 -118h-443zM454 283h349l61 61v392l-61 61h-349l-61 -61v-392zM502 1112l-224 284h277
l73 -108l73 108h277l-224 -284h-252zM556 1182h141l101 134h-60l-72 -100h-80l-71 100h-60z" />
    <glyph glyph-name="uni01D3" unicode="&#x1d3;" horiz-adv-x="1328" 
d="M321 0l-206 206v1194h283v-1056l61 -61h410l61 61v1056h283v-1194l-206 -206h-686zM379 110h572l152 150v1032h-62v-1006l-118 -114h-517l-119 114v1006h-62v-1032zM539 1432l-224 284h277l73 -108l73 108h277l-224 -284h-252zM593 1502h141l101 134h-60l-72 -100h-80
l-71 100h-60z" />
    <glyph glyph-name="uni01D4" unicode="&#x1d4;" horiz-adv-x="1202" 
d="M316 0l-206 206v874h283v-736l61 -61h294l61 61v736h283v-874l-206 -206h-570zM381 111h448l154 162v698h-62v-672l-119 -126h-393l-128 126v672h-61v-698zM477 1112l-224 284h277l73 -108l73 108h277l-224 -284h-252zM531 1182h141l101 134h-60l-72 -100h-80l-71 100
h-60z" />
    <glyph glyph-name="uni01D5" unicode="&#x1d5;" horiz-adv-x="1328" 
d="M321 0l-206 206v1194h283v-1056l61 -61h410l61 61v1056h283v-1194l-206 -206h-686zM379 110h572l152 150v1032h-62v-1006l-118 -114h-517l-119 114v1006h-62v-1032zM768 1452v210h212v-210h-212zM352 1452v210h212v-210h-212zM435 1532h43v49h-43v-49zM853 1532h42v49
h-42v-49zM349 1693v256h632v-256h-632zM462 1789h416v57h-416v-57z" />
    <glyph glyph-name="uni01D6" unicode="&#x1d6;" horiz-adv-x="1202" 
d="M316 0l-206 206v874h283v-736l61 -61h294l61 61v736h283v-874l-206 -206h-570zM381 111h448l154 162v698h-62v-672l-119 -126h-393l-128 126v672h-61v-698zM706 1132v210h212v-210h-212zM290 1132v210h212v-210h-212zM373 1212h43v49h-43v-49zM791 1212h42v49h-42v-49z
M287 1373v256h632v-256h-632zM400 1469h416v57h-416v-57z" />
    <glyph glyph-name="uni01D7" unicode="&#x1d7;" horiz-adv-x="1328" 
d="M321 0l-206 206v1194h283v-1056l61 -61h410l61 61v1056h283v-1194l-206 -206h-686zM379 110h572l152 150v1032h-62v-1006l-118 -114h-517l-119 114v1006h-62v-1032zM768 1452v210h212v-210h-212zM352 1452v210h212v-210h-212zM435 1532h43v49h-43v-49zM853 1532h42v49
h-42v-49zM542 1694l244 264h287l-284 -264h-247zM702 1755h54l139 140h-61z" />
    <glyph glyph-name="uni01D8" unicode="&#x1d8;" horiz-adv-x="1202" 
d="M316 0l-206 206v874h283v-736l61 -61h294l61 61v736h283v-874l-206 -206h-570zM381 111h448l154 162v698h-62v-672l-119 -126h-393l-128 126v672h-61v-698zM706 1132v210h212v-210h-212zM290 1132v210h212v-210h-212zM373 1212h43v49h-43v-49zM791 1212h42v49h-42v-49z
M480 1374l244 264h287l-284 -264h-247zM640 1435h54l139 140h-61z" />
    <glyph glyph-name="uni01D9" unicode="&#x1d9;" horiz-adv-x="1328" 
d="M321 0l-206 206v1194h283v-1056l61 -61h410l61 61v1056h283v-1194l-206 -206h-686zM379 110h572l152 150v1032h-62v-1006l-118 -114h-517l-119 114v1006h-62v-1032zM768 1452v210h212v-210h-212zM352 1452v210h212v-210h-212zM435 1532h43v49h-43v-49zM853 1532h42v49
h-42v-49zM539 1694l-224 284h277l73 -108l73 108h277l-224 -284h-252zM593 1764h141l101 134h-60l-72 -100h-80l-71 100h-60z" />
    <glyph glyph-name="uni01DA" unicode="&#x1da;" horiz-adv-x="1202" 
d="M316 0l-206 206v874h283v-736l61 -61h294l61 61v736h283v-874l-206 -206h-570zM381 111h448l154 162v698h-62v-672l-119 -126h-393l-128 126v672h-61v-698zM706 1132v210h212v-210h-212zM290 1132v210h212v-210h-212zM373 1212h43v49h-43v-49zM791 1212h42v49h-42v-49z
M477 1374l-224 284h277l73 -108l73 108h277l-224 -284h-252zM531 1444h141l101 134h-60l-72 -100h-80l-71 100h-60z" />
    <glyph glyph-name="uni01DB" unicode="&#x1db;" horiz-adv-x="1328" 
d="M321 0l-206 206v1194h283v-1056l61 -61h410l61 61v1056h283v-1194l-206 -206h-686zM379 110h572l152 150v1032h-62v-1006l-118 -114h-517l-119 114v1006h-62v-1032zM768 1452v210h212v-210h-212zM352 1452v210h212v-210h-212zM435 1532h43v49h-43v-49zM853 1532h42v49
h-42v-49zM810 1694h-247l-284 264h287zM650 1755l-132 140h-60l139 -140h53z" />
    <glyph glyph-name="uni01DC" unicode="&#x1dc;" horiz-adv-x="1202" 
d="M316 0l-206 206v874h283v-736l61 -61h294l61 61v736h283v-874l-206 -206h-570zM381 111h448l154 162v698h-62v-672l-119 -126h-393l-128 126v672h-61v-698zM706 1132v210h212v-210h-212zM290 1132v210h212v-210h-212zM373 1212h43v49h-43v-49zM791 1212h42v49h-42v-49z
M748 1374h-247l-284 264h287zM588 1435l-132 140h-60l139 -140h53z" />
    <glyph glyph-name="Gcaron" unicode="&#x1e6;" horiz-adv-x="1278" 
d="M321 0l-206 206v988l206 206h636l206 -206v-252h-282v114l-61 61h-363l-60 -63v-711l60 -60h363l61 61v138h-277v282h559v-558l-206 -206h-636zM379 115h522l152 151v385h-338v-61h276v-298l-117 -116h-468l-118 116v823l118 116h468l117 -116v-68h62v94l-152 151h-522
l-152 -151v-875zM513 1432l-224 284h277l73 -108l73 108h277l-224 -284h-252zM567 1502h141l101 134h-60l-72 -100h-80l-71 100h-60z" />
    <glyph glyph-name="gcaron" unicode="&#x1e7;" horiz-adv-x="1210" 
d="M160 -400v282h562l81 81v57l-20 -20h-467l-206 206v668l206 206h563l206 -206v-1068l-206 -206h-719zM270 -292h535l175 180v924l-162 162h-444l-154 -153v-546l164 -163h373l161 161v-356l-144 -148h-504v-61zM411 174l-129 127v494l119 118h390l127 -127v-435
l-179 -177h-328zM454 283h249l100 100v354l-62 61h-287l-61 -61v-393zM467 1112l-224 284h277l73 -108l73 108h277l-224 -284h-252zM521 1182h141l101 134h-60l-72 -100h-80l-71 100h-60z" />
    <glyph glyph-name="uni01EA" unicode="&#x1ea;" horiz-adv-x="1232" 
d="M459 283h314l61 61v712l-61 61h-314l-61 -61v-712zM380 115h474l152 151v875l-152 151h-474l-152 -151v-875zM407 176l-118 116v823l118 116h420l117 -116v-823l-117 -116h-420zM723 115l-278 -295l115 -130h221v39h-203l-82 91l280 295h-53zM911 1400l206 -206v-988
l-206 -206h-156l-180 -180l30 -32h235v-157h-305l-163 189l160 180h-211l-206 206v988l206 206h590z" />
    <glyph glyph-name="uni01EB" unicode="&#x1eb;" horiz-adv-x="1140" 
d="M380 110h391l153 153v554l-153 154h-398l-155 -155v-545zM407 171l-128 126v493l122 119h342l119 -118v-502l-119 -118h-336zM449 283h242l61 61v392l-61 61h-242l-61 -61v-392zM614 110l-266 -290l115 -130h221v39h-203l-82 91l268 290h-53zM829 1080l206 -206v-668
l-206 -206h-171l-180 -180l30 -32h235v-157h-305l-163 189l160 180h-124l-206 206v668l206 206h518z" />
    <glyph glyph-name="Aringacute" unicode="&#x1fa;" horiz-adv-x="1288" 
d="M115 0v1194l206 206h646l206 -206v-1194h-282v412h-494v-412h-282zM230 120h61v400h710v-400h62v1025l-152 151h-530l-151 -151v-1025zM397 694h494v362l-61 61h-372l-61 -61v-362zM291 581v538l118 116h475l117 -116v-538h-710zM553 1430l-98 97v174l98 98h183l98 -98
v-174l-98 -97h-183zM587 1497h116l66 65v108l-66 65h-116l-66 -65v-108zM605 1540l-39 40v73l39 38h80l39 -38v-73l-39 -40h-80zM636 1597h17l9 10v15l-9 9h-17l-9 -9v-15zM523 1831l244 264h287l-284 -264h-247zM683 1892h54l139 140h-61z" />
    <glyph glyph-name="aringacute" unicode="&#x1fb;" horiz-adv-x="1253" 
d="M316 0l-206 206v285l206 206h544v39l-61 61h-675v283h813l206 -206v-668l-206 -206h-621zM403 171l-120 118v136l107 106h590v-234l-127 -126h-450zM375 110h505l162 161v545l-155 155h-646v-62h618l121 -119v-199h-613l-145 -143v-185zM454 283h345l61 61v80h-426
l-42 -42v-38zM536 1110l-98 97v174l98 98h183l98 -98v-174l-98 -97h-183zM570 1177h116l66 65v108l-66 65h-116l-66 -65v-108zM588 1220l-39 40v73l39 38h80l39 -38v-73l-39 -40h-80zM619 1277h17l9 10v15l-9 9h-17l-9 -9v-15zM506 1511l244 264h287l-284 -264h-247z
M666 1572h54l139 140h-61z" />
    <glyph glyph-name="AEacute" unicode="&#x1fc;" horiz-adv-x="1934" 
d="M30 0l595 1400h1147v-283h-550v-269h512v-283h-512v-282h550v-283h-833v412h-429l-173 -412h-307zM169 98h67l183 418h632v-418h636v61h-574v520h534v61h-534v507h574v62h-987zM445 578l294 669h312v-669h-606zM626 694h313v423h-133zM844 1432l244 264h287l-284 -264
h-247zM1004 1493h54l139 140h-61z" />
    <glyph glyph-name="aeacute" unicode="&#x1fd;" horiz-adv-x="1790" 
d="M339 0l-206 206v280l206 206h342l66 65v-21l-62 61h-207l-129 -128l-228 192l218 219h485l67 -67l67 67h485l206 -206v-292l-206 -194h-342l-66 -65v21l62 -61h207l129 128l228 -192l-218 -219h-485l-67 67l-67 -67h-485zM383 115h377l128 128l128 -128h393l107 106
l-48 42l-86 -87h-339l-121 120v31l170 169h324l137 133v180l-154 157h-376l-129 -128l-128 128h-393l-107 -106l48 -42l86 87h339l121 -120v-32l-170 -169h-324l-137 -135v-181zM410 176l-119 118v133l98 98h313l158 158v-381l-128 -126h-322zM922 397v382l128 126h322
l119 -118v-134l-98 -98h-313zM478 283h207l62 61v96l-19 -19h-270l-42 -42v-35zM1035 640l19 19h270l42 42v35l-62 61h-207l-62 -61v-96zM772 1112l244 264h287l-284 -264h-247zM932 1173h54l139 140h-61z" />
    <glyph glyph-name="Oslashacute" unicode="&#x1fe;" horiz-adv-x="1390" 
d="M304 -53l-196 139l73 102l-20 18v988l206 206h644l17 -16l57 81l197 -137l-82 -117l17 -17v-988l-206 -206h-644l-14 15zM542 283h331l61 61v493zM446 159l-66 58l649 920l30 -37v-824l-118 -117h-495zM265 53l79 113l68 -68h556l152 152v907l-45 45l86 122l-42 29
l-80 -114l-71 70h-556l-152 -152v-907l46 -46l-85 -120zM352 268l-31 39v824l118 116h495l68 -59zM444 560l394 558h-332l-62 -62v-496zM557 1432l244 264h287l-284 -264h-247zM717 1493h54l139 140h-61z" />
    <glyph glyph-name="oslashacute" unicode="&#x1ff;" horiz-adv-x="1158" 
d="M300 -53l-196 139l58 80l-40 40v668l206 206h485h5l40 57l196 -137l-67 -94l31 -32v-668l-205 -206h-475l-4 -5zM538 283h136l62 61v207zM264 53l72 101l49 -49h380l141 141v588l-53 53l80 114l-42 29l-75 -106l-51 51h-374l-155 -143v-577l61 -63l-77 -108zM425 167
l-51 42l435 615l36 -45v-507l-107 -105h-313zM341 253l-44 54v499l121 107h309l51 -42zM405 510l213 288h-151l-62 -62v-226zM456 1112l244 264h287l-284 -264h-247zM616 1173h54l139 140h-61z" />
    <glyph glyph-name="uni0200" unicode="&#x200;" horiz-adv-x="1288" 
d="M115 0v1194l206 206h646l206 -206v-1194h-282v412h-494v-412h-282zM230 120h61v400h710v-400h62v1025l-152 151h-530l-151 -151v-1025zM397 694h494v362l-61 61h-372l-61 -61v-362zM291 581v538l118 116h475l117 -116v-538h-710zM973 1432h-247l-284 264h287zM813 1493
l-132 140h-60l139 -140h53zM581 1432h-247l-284 264h287zM421 1493l-132 140h-60l139 -140h53z" />
    <glyph glyph-name="uni0201" unicode="&#x201;" horiz-adv-x="1253" 
d="M316 0l-206 206v285l206 206h544v39l-61 61h-675v283h813l206 -206v-668l-206 -206h-621zM403 171l-120 118v136l107 106h590v-234l-127 -126h-450zM375 110h505l162 161v545l-155 155h-646v-62h618l121 -119v-199h-613l-145 -143v-185zM454 283h345l61 61v80h-426
l-42 -42v-38zM956 1112h-247l-284 264h287zM796 1173l-132 140h-60l139 -140h53zM564 1112h-247l-284 264h287zM404 1173l-132 140h-60l139 -140h53z" />
    <glyph glyph-name="uni0202" unicode="&#x202;" horiz-adv-x="1288" 
d="M115 0v1194l206 206h646l206 -206v-1194h-282v412h-494v-412h-282zM230 120h61v400h710v-400h62v1025l-152 151h-530l-151 -151v-1025zM397 694h494v362l-61 61h-372l-61 -61v-362zM291 581v538l118 116h475l117 -116v-538h-710zM764 1699l112 -112v-156h-192v76h-78v-76
h-192v156l112 112h238zM719 1629h-149l-80 -84v-41h46v28l48 52h120l48 -52v-28h46v41z" />
    <glyph glyph-name="uni0203" unicode="&#x203;" horiz-adv-x="1253" 
d="M316 0l-206 206v285l206 206h544v39l-61 61h-675v283h813l206 -206v-668l-206 -206h-621zM403 171l-120 118v136l107 106h590v-234l-127 -126h-450zM375 110h505l162 161v545l-155 155h-646v-62h618l121 -119v-199h-613l-145 -143v-185zM454 283h345l61 61v80h-426
l-42 -42v-38zM747 1379l112 -112v-156h-192v76h-78v-76h-192v156l112 112h238zM702 1309h-149l-80 -84v-41h46v28l48 52h120l48 -52v-28h46v41z" />
    <glyph glyph-name="uni0204" unicode="&#x204;" horiz-adv-x="1140" 
d="M115 0v1400h910v-283h-627v-269h558v-283h-558v-282h627v-283h-910zM229 115h700v61h-639v500h569v62h-569v493h639v61h-700v-1177zM890 1432h-247l-284 264h287zM730 1493l-132 140h-60l139 -140h53zM498 1432h-247l-284 264h287zM338 1493l-132 140h-60l139 -140h53z
" />
    <glyph glyph-name="uni0205" unicode="&#x205;" horiz-adv-x="1253" 
d="M937 1080l206 -206v-285l-206 -206h-544v-39l61 -61h675v-283h-813l-206 206v668l206 206h621zM850 909l120 -118v-136l-107 -106h-590v234l127 126h450zM878 970h-505l-162 -161v-545l155 -155h646v62h-618l-121 119v199h613l145 143v185zM799 797h-345l-61 -61v-80h426
l42 42v38zM957 1112h-247l-284 264h287zM797 1173l-132 140h-60l139 -140h53zM565 1112h-247l-284 264h287zM405 1173l-132 140h-60l139 -140h53z" />
    <glyph glyph-name="uni0206" unicode="&#x206;" horiz-adv-x="1140" 
d="M115 0v1400h910v-283h-627v-269h558v-283h-558v-282h627v-283h-910zM229 115h700v61h-639v500h569v62h-569v493h639v61h-700v-1177zM681 1699l112 -112v-156h-192v76h-78v-76h-192v156l112 112h238zM636 1629h-149l-80 -84v-41h46v28l48 52h120l48 -52v-28h46v41z" />
    <glyph glyph-name="uni0207" unicode="&#x207;" horiz-adv-x="1253" 
d="M937 1080l206 -206v-285l-206 -206h-544v-39l61 -61h675v-283h-813l-206 206v668l206 206h621zM850 909l120 -118v-136l-107 -106h-590v234l127 126h450zM878 970h-505l-162 -161v-545l155 -155h646v62h-618l-121 119v199h613l145 143v185zM799 797h-345l-61 -61v-80h426
l42 42v38zM748 1379l112 -112v-156h-192v76h-78v-76h-192v156l112 112h238zM703 1309h-149l-80 -84v-41h46v28l48 52h120l48 -52v-28h46v41z" />
    <glyph glyph-name="uni0208" unicode="&#x208;" horiz-adv-x="1059" 
d="M115 0v283h274v834h-274v283h829v-283h-273v-834h273v-283h-829zM225 110h610v61h-283v1060h283v61h-610v-61h266v-1060h-266v-61zM858 1432h-247l-284 264h287zM698 1493l-132 140h-60l139 -140h53zM466 1432h-247l-284 264h287zM306 1493l-132 140h-60l139 -140h53z
" />
    <glyph glyph-name="uni0209" unicode="&#x209;" horiz-adv-x="990" 
d="M114 0v283h240v514h-240v283h522v-797h240v-283h-762zM215 110h561v61h-259v801h-302v-61h241v-740h-241v-61zM823 1112h-247l-284 264h287zM663 1173l-132 140h-60l139 -140h53zM431 1112h-247l-284 264h287zM271 1173l-132 140h-60l139 -140h53z" />
    <glyph glyph-name="uni020A" unicode="&#x20a;" horiz-adv-x="1059" 
d="M115 0v283h274v834h-274v283h829v-283h-273v-834h273v-283h-829zM225 110h610v61h-283v1060h283v61h-610v-61h266v-1060h-266v-61zM649 1699l112 -112v-156h-192v76h-78v-76h-192v156l112 112h238zM604 1629h-149l-80 -84v-41h46v28l48 52h120l48 -52v-28h46v41z" />
    <glyph glyph-name="uni020B" unicode="&#x20b;" horiz-adv-x="990" 
d="M114 0v283h240v514h-240v283h522v-797h240v-283h-762zM215 110h561v61h-259v801h-302v-61h241v-740h-241v-61zM614 1379l112 -112v-156h-192v76h-78v-76h-192v156l112 112h238zM569 1309h-149l-80 -84v-41h46v28l48 52h120l48 -52v-28h46v41z" />
    <glyph glyph-name="uni020C" unicode="&#x20c;" horiz-adv-x="1306" 
d="M321 0l-206 206v988l206 206h664l206 -206v-988l-206 -206h-664zM459 283h388l61 61v712l-61 61h-388l-61 -61v-712zM380 115h548l152 151v875l-152 151h-548l-152 -151v-875zM407 176l-118 116v823l118 116h494l117 -116v-823l-117 -116h-494zM981 1432h-247l-284 264
h287zM821 1493l-132 140h-60l139 -140h53zM589 1432h-247l-284 264h287zM429 1493l-132 140h-60l139 -140h53z" />
    <glyph glyph-name="uni020D" unicode="&#x20d;" horiz-adv-x="1257" 
d="M316 0l-206 206v668l206 206h625l206 -206v-668l-206 -206h-625zM385 110h498l153 153v554l-153 154h-505l-155 -155v-545zM412 171l-128 126v493l122 119h449l119 -118v-502l-119 -118h-443zM454 283h349l61 61v392l-61 61h-349l-61 -61v-392zM956 1112h-247l-284 264
h287zM796 1173l-132 140h-60l139 -140h53zM564 1112h-247l-284 264h287zM404 1173l-132 140h-60l139 -140h53z" />
    <glyph glyph-name="uni020E" unicode="&#x20e;" horiz-adv-x="1306" 
d="M321 0l-206 206v988l206 206h664l206 -206v-988l-206 -206h-664zM459 283h388l61 61v712l-61 61h-388l-61 -61v-712zM380 115h548l152 151v875l-152 151h-548l-152 -151v-875zM407 176l-118 116v823l118 116h494l117 -116v-823l-117 -116h-494zM772 1699l112 -112v-156
h-192v76h-78v-76h-192v156l112 112h238zM727 1629h-149l-80 -84v-41h46v28l48 52h120l48 -52v-28h46v41z" />
    <glyph glyph-name="uni020F" unicode="&#x20f;" horiz-adv-x="1257" 
d="M316 0l-206 206v668l206 206h625l206 -206v-668l-206 -206h-625zM385 110h498l153 153v554l-153 154h-505l-155 -155v-545zM412 171l-128 126v493l122 119h449l119 -118v-502l-119 -118h-443zM454 283h349l61 61v392l-61 61h-349l-61 -61v-392zM747 1379l112 -112v-156
h-192v76h-78v-76h-192v156l112 112h238zM702 1309h-149l-80 -84v-41h46v28l48 52h120l48 -52v-28h46v41z" />
    <glyph glyph-name="uni0210" unicode="&#x210;" horiz-adv-x="1309" 
d="M125 0v1400h863l206 -206v-434l-122 -112l122 -133v-515h-283v415l-100 100h-403v-515h-283zM236 108h62v524h560l167 -179v-345h61v364l-173 189l167 142v337l-152 151h-692v-1183zM408 798h442l61 62v196l-61 61h-442v-319zM298 694v536h602l118 -116v-291l-154 -129
h-566zM985 1432h-247l-284 264h287zM825 1493l-132 140h-60l139 -140h53zM593 1432h-247l-284 264h287zM433 1493l-132 140h-60l139 -140h53z" />
    <glyph glyph-name="uni0211" unicode="&#x211;" horiz-adv-x="1148" 
d="M110 0v282h194v501l-15 15h-177v282h253l68 -80l77 80h389l219 -219l-218 -212l-138 148h-114l-61 -61v-455h194v-281h-671zM213 110h465v62h-202v629l104 104h248l88 -98l47 44l-107 115h-303l-111 -111l-102 111h-127v-61h109l92 -101v-632h-201v-62zM874 1112h-247
l-284 264h287zM714 1173l-132 140h-60l139 -140h53zM482 1112h-247l-284 264h287zM322 1173l-132 140h-60l139 -140h53z" />
    <glyph glyph-name="uni0212" unicode="&#x212;" horiz-adv-x="1309" 
d="M125 0v1400h863l206 -206v-434l-122 -112l122 -133v-515h-283v415l-100 100h-403v-515h-283zM236 108h62v524h560l167 -179v-345h61v364l-173 189l167 142v337l-152 151h-692v-1183zM408 798h442l61 62v196l-61 61h-442v-319zM298 694v536h602l118 -116v-291l-154 -129
h-566zM776 1699l112 -112v-156h-192v76h-78v-76h-192v156l112 112h238zM731 1629h-149l-80 -84v-41h46v28l48 52h120l48 -52v-28h46v41z" />
    <glyph glyph-name="uni0213" unicode="&#x213;" horiz-adv-x="1148" 
d="M110 0v282h194v501l-15 15h-177v282h253l68 -80l77 80h389l219 -219l-218 -212l-138 148h-114l-61 -61v-455h194v-281h-671zM213 110h465v62h-202v629l104 104h248l88 -98l47 44l-107 115h-303l-111 -111l-102 111h-127v-61h109l92 -101v-632h-201v-62zM665 1379
l112 -112v-156h-192v76h-78v-76h-192v156l112 112h238zM620 1309h-149l-80 -84v-41h46v28l48 52h120l48 -52v-28h46v41z" />
    <glyph glyph-name="uni0214" unicode="&#x214;" horiz-adv-x="1328" 
d="M321 0l-206 206v1194h283v-1056l61 -61h410l61 61v1056h283v-1194l-206 -206h-686zM379 110h572l152 150v1032h-62v-1006l-118 -114h-517l-119 114v1006h-62v-1032zM993 1432h-247l-284 264h287zM833 1493l-132 140h-60l139 -140h53zM601 1432h-247l-284 264h287z
M441 1493l-132 140h-60l139 -140h53z" />
    <glyph glyph-name="uni0215" unicode="&#x215;" horiz-adv-x="1202" 
d="M316 0l-206 206v874h283v-736l61 -61h294l61 61v736h283v-874l-206 -206h-570zM381 111h448l154 162v698h-62v-672l-119 -126h-393l-128 126v672h-61v-698zM931 1112h-247l-284 264h287zM771 1173l-132 140h-60l139 -140h53zM539 1112h-247l-284 264h287zM379 1173
l-132 140h-60l139 -140h53z" />
    <glyph glyph-name="uni0216" unicode="&#x216;" horiz-adv-x="1328" 
d="M321 0l-206 206v1194h283v-1056l61 -61h410l61 61v1056h283v-1194l-206 -206h-686zM379 110h572l152 150v1032h-62v-1006l-118 -114h-517l-119 114v1006h-62v-1032zM784 1699l112 -112v-156h-192v76h-78v-76h-192v156l112 112h238zM739 1629h-149l-80 -84v-41h46v28
l48 52h120l48 -52v-28h46v41z" />
    <glyph glyph-name="uni0217" unicode="&#x217;" horiz-adv-x="1202" 
d="M316 0l-206 206v874h283v-736l61 -61h294l61 61v736h283v-874l-206 -206h-570zM381 111h448l154 162v698h-62v-672l-119 -126h-393l-128 126v672h-61v-698zM722 1379l112 -112v-156h-192v76h-78v-76h-192v156l112 112h238zM677 1309h-149l-80 -84v-41h46v28l48 52h120
l48 -52v-28h46v41z" />
    <glyph glyph-name="uni0218" unicode="&#x218;" horiz-adv-x="1302" 
d="M321 0l-206 206v252h283v-114l61 -61h384l61 61v154l-61 61h-516l-206 206v429l206 206h635l206 -206v-252h-283v114l-61 61h-359l-62 -61v-153l62 -61h516l206 -206v-430l-206 -206h-660zM374 110h545l152 151v336l-135 135h-524l-119 119v260l118 116h474l110 -107v-78
h61v104l-143 143h-530l-152 -152v-312l155 -155h522l101 -99v-284l-117 -116h-491l-109 108v79h-62v-105zM403 -530l114 458h271l-159 -458h-226zM521 -437h40l91 250h-66z" />
    <glyph glyph-name="uni0219" unicode="&#x219;" horiz-adv-x="1203" 
d="M120 0v283h630l61 61v-5l-59 60h-436l-206 206v269l206 206h757v-283h-620l-61 -61v6l61 -61h434l206 -206v-269l-206 -206h-767zM228 114h608l147 146v172l-147 143h-449l-104 102v121l112 111h570v62h-597l-147 -147v-172l139 -138h449l112 -107v-121l-112 -111h-581
v-61zM363 -530l114 458h271l-159 -458h-226zM481 -437h40l91 250h-66z" />
    <glyph glyph-name="uni021A" unicode="&#x21a;" horiz-adv-x="1126" 
d="M422 0v1117h-347v283h976v-283h-347v-1117h-282zM532 106h61v1125h353v61h-766v-61h352v-1125zM315 -530l114 458h271l-159 -458h-226zM433 -437h40l91 250h-66z" />
    <glyph glyph-name="uni021B" unicode="&#x21b;" horiz-adv-x="935" 
d="M294 0v798h-249v282h249v274h283v-274h248v-282h-248v-515h241v-283h-524zM405 110h305v61h-243v740h250v61h-250v273h-62v-273h-251v-61h251v-801zM215 -533l114 458h271l-159 -458h-226zM333 -440h40l91 250h-66z" />
    <glyph glyph-name="uni022A" unicode="&#x22a;" horiz-adv-x="1306" 
d="M321 0l-206 206v988l206 206h664l206 -206v-988l-206 -206h-664zM459 283h388l61 61v712l-61 61h-388l-61 -61v-712zM380 115h548l152 151v875l-152 151h-548l-152 -151v-875zM407 176l-118 116v823l118 116h494l117 -116v-823l-117 -116h-494zM756 1452v210h212v-210
h-212zM340 1452v210h212v-210h-212zM423 1532h43v49h-43v-49zM841 1532h42v49h-42v-49zM337 1693v256h632v-256h-632zM450 1789h416v57h-416v-57z" />
    <glyph glyph-name="uni022B" unicode="&#x22b;" horiz-adv-x="1257" 
d="M316 0l-206 206v668l206 206h625l206 -206v-668l-206 -206h-625zM385 110h498l153 153v554l-153 154h-505l-155 -155v-545zM412 171l-128 126v493l122 119h449l119 -118v-502l-119 -118h-443zM454 283h349l61 61v392l-61 61h-349l-61 -61v-392zM731 1132v210h212v-210
h-212zM315 1132v210h212v-210h-212zM398 1212h43v49h-43v-49zM816 1212h42v49h-42v-49zM312 1373v256h632v-256h-632zM425 1469h416v57h-416v-57z" />
    <glyph glyph-name="uni022C" unicode="&#x22c;" horiz-adv-x="1306" 
d="M321 0l-206 206v988l206 206h664l206 -206v-988l-206 -206h-664zM459 283h388l61 61v712l-61 61h-388l-61 -61v-712zM380 115h548l152 151v875l-152 151h-548l-152 -151v-875zM407 176l-118 116v823l118 116h494l117 -116v-823l-117 -116h-494zM374 1432v136l112 112h178
l56 -56h18v56h192v-136l-112 -112h-178l-56 56h-18v-56h-192zM452 1495h46v20l48 52h65l68 -65h99l79 84v33h-46v-20l-48 -52h-72l-66 65h-94l-79 -84v-33zM337 1711v256h632v-256h-632zM450 1807h416v57h-416v-57z" />
    <glyph glyph-name="uni022D" unicode="&#x22d;" horiz-adv-x="1257" 
d="M316 0l-206 206v668l206 206h625l206 -206v-668l-206 -206h-625zM385 110h498l153 153v554l-153 154h-505l-155 -155v-545zM412 171l-128 126v493l122 119h449l119 -118v-502l-119 -118h-443zM454 283h349l61 61v392l-61 61h-349l-61 -61v-392zM349 1112v136l112 112h178
l56 -56h18v56h192v-136l-112 -112h-178l-56 56h-18v-56h-192zM427 1175h46v20l48 52h65l68 -65h99l79 84v33h-46v-20l-48 -52h-72l-66 65h-94l-79 -84v-33zM312 1391v256h632v-256h-632zM425 1487h416v57h-416v-57z" />
    <glyph glyph-name="uni0230" unicode="&#x230;" horiz-adv-x="1306" 
d="M321 0l-206 206v988l206 206h664l206 -206v-988l-206 -206h-664zM459 283h388l61 61v712l-61 61h-388l-61 -61v-712zM380 115h548l152 151v875l-152 151h-548l-152 -151v-875zM407 176l-118 116v823l118 116h494l117 -116v-823l-117 -116h-494zM548 1452v210h212v-210
h-212zM631 1532h43v49h-43v-49zM337 1693v256h632v-256h-632zM450 1789h416v57h-416v-57z" />
    <glyph glyph-name="uni0231" unicode="&#x231;" horiz-adv-x="1257" 
d="M316 0l-206 206v668l206 206h625l206 -206v-668l-206 -206h-625zM385 110h498l153 153v554l-153 154h-505l-155 -155v-545zM412 171l-128 126v493l122 119h449l119 -118v-502l-119 -118h-443zM454 283h349l61 61v392l-61 61h-349l-61 -61v-392zM523 1132v210h212v-210
h-212zM606 1212h43v49h-43v-49zM312 1373v256h632v-256h-632zM425 1469h416v57h-416v-57z" />
    <glyph glyph-name="uni0232" unicode="&#x232;" horiz-adv-x="1294" 
d="M505 0v443l-400 382v575h283v-473l268 -253h-19l269 253v473h283v-575l-401 -382v-443h-283zM615 106h62v379l401 379v428h-62v-409l-367 -346h-5l-368 346v409h-61v-428l400 -379v-379zM331 1431v256h632v-256h-632zM444 1527h416v57h-416v-57z" />
    <glyph glyph-name="uni0233" unicode="&#x233;" horiz-adv-x="1206" 
d="M316 0l-206 206v874h283v-736l61 -61h245l100 100v697h282v-1274l-206 -206h-715v282h558l81 81v57l-20 -20h-463zM286 -292h520l166 172v1091h-61v-620l-179 -177h-333l-117 117v680h-62v-706l151 -153h379l161 161v-364l-136 -140h-489v-61zM277 1111v256h632v-256
h-632zM390 1207h416v57h-416v-57z" />
    <glyph glyph-name="uni0237" unicode="&#x237;" horiz-adv-x="706" 
d="M25 -400v282h181l80 81v835h-261v282h544v-1274l-206 -206h-338zM140 -284h169l150 155v1100h-328v-62h266v-1009l-119 -122h-138v-62z" />
    <glyph glyph-name="uni0259" unicode="&#x259;" horiz-adv-x="1253" 
d="M316 0l-206 206v285l206 206h544v39l-61 61h-675v283h813l206 -206v-668l-206 -206h-621zM403 171l-120 118v136l107 106h590v-234l-127 -126h-450zM375 110h505l162 161v545l-155 155h-646v-62h618l121 -119v-199h-613l-145 -143v-185zM454 283h345l61 61v80h-426
l-42 -42v-38z" />
    <glyph glyph-name="uni02BC" unicode="&#x2bc;" horiz-adv-x="558" 
d="M82 942l114 458h271l-159 -458h-226zM200 1035h40l91 250h-66z" />
    <glyph glyph-name="circumflex" unicode="&#x2c6;" horiz-adv-x="884" 
d="M316 1396h252l224 -284h-277l-73 108l-73 -108h-277zM370 1326l-101 -134h60l71 100h80l72 -100h60l-101 134h-141z" />
    <glyph glyph-name="caron" unicode="&#x2c7;" horiz-adv-x="884" 
d="M316 1112l-224 284h277l73 -108l73 108h277l-224 -284h-252zM370 1182h141l101 134h-60l-72 -100h-80l-71 100h-60z" />
    <glyph glyph-name="uni02C9" unicode="&#x2c9;" horiz-adv-x="836" 
d="M102 1119v256h632v-256h-632zM215 1215h416v57h-416v-57z" />
    <glyph glyph-name="breve" unicode="&#x2d8;" horiz-adv-x="646" 
d="M204 1112l-112 112v156h192v-76h78v76h192v-156l-112 -112h-238zM249 1182h149l80 84v41h-46v-28l-48 -52h-120l-48 52v28h-46v-41z" />
    <glyph glyph-name="dotaccent" unicode="&#x2d9;" horiz-adv-x="528" 
d="M158 1132v210h212v-210h-212zM241 1212h43v49h-43v-49z" />
    <glyph glyph-name="ring" unicode="&#x2da;" horiz-adv-x="1200" 
d="M509 1110l-98 97v174l98 98h183l98 -98v-174l-98 -97h-183zM543 1177h116l66 65v108l-66 65h-116l-66 -65v-108zM561 1220l-39 40v73l39 38h80l39 -38v-73l-39 -40h-80zM592 1277h17l9 10v15l-9 9h-17l-9 -9v-15z" />
    <glyph glyph-name="ogonek" unicode="&#x2db;" horiz-adv-x="638" 
d="M223 -389l-163 189l154 172h211l-162 -172l27 -32h238v-157h-305zM252 -330h217v39h-200l-79 91l102 110h-54l-100 -110z" />
    <glyph glyph-name="tilde" unicode="&#x2dc;" horiz-adv-x="780" 
d="M112 1112v136l112 112h178l56 -56h18v56h192v-136l-112 -112h-178l-56 56h-18v-56h-192zM190 1175h46v20l48 52h65l68 -65h99l79 84v33h-46v-20l-48 -52h-72l-66 65h-94l-79 -84v-33z" />
    <glyph glyph-name="hungarumlaut" unicode="&#x2dd;" horiz-adv-x="1200" 
d="M559 1112l145 264h287l-195 -264h-237zM336 1168h52l95 144h-62zM207 1112l145 264h287l-195 -264h-237zM688 1168h52l95 144h-62z" />
    <glyph glyph-name="gravecomb" unicode="&#x300;" 
d="M590 1112h-247l-284 264h287zM430 1173l-132 140h-60l139 -140h53z" />
    <glyph glyph-name="acutecomb" unicode="&#x301;" 
d="M82 1112l244 264h287l-284 -264h-247zM242 1173h54l139 140h-61z" />
    <glyph glyph-name="uni0302" unicode="&#x302;" 
d="M316 1396h252l224 -284h-277l-73 108l-73 -108h-277zM370 1326l-101 -134h60l71 100h80l72 -100h60l-101 134h-141z" />
    <glyph glyph-name="tildecomb" unicode="&#x303;" 
d="M112 1112v136l112 112h178l56 -56h18v56h192v-136l-112 -112h-178l-56 56h-18v-56h-192zM190 1175h46v20l48 52h65l68 -65h99l79 84v33h-46v-20l-48 -52h-72l-66 65h-94l-79 -84v-33z" />
    <glyph glyph-name="uni0304" unicode="&#x304;" 
d="M102 1111v256h632v-256h-632zM215 1207h416v57h-416v-57z" />
    <glyph glyph-name="uni0306" unicode="&#x306;" 
d="M204 1112l-112 112v156h192v-76h78v76h192v-156l-112 -112h-238zM249 1182h149l80 84v41h-46v-28l-48 -52h-120l-48 52v28h-46v-41z" />
    <glyph glyph-name="uni0307" unicode="&#x307;" 
d="M158 1132v210h212v-210h-212zM241 1212h43v49h-43v-49z" />
    <glyph glyph-name="uni0308" unicode="&#x308;" 
d="M574 1132v210h212v-210h-212zM158 1132v210h212v-210h-212zM241 1212h43v49h-43v-49zM659 1212h42v49h-42v-49z" />
    <glyph glyph-name="hookabovecomb" unicode="&#x309;" 
d="M80 1482h315l163 -189l-163 -187h-244v157h134l30 30l-30 32h-205v157zM156 1423v-39h172l82 -91l-82 -89h-100v-39h125l116 128l-116 130h-197z" />
    <glyph glyph-name="uni030A" unicode="&#x30a;" 
d="M509 1110l-98 97v174l98 98h183l98 -98v-174l-98 -97h-183zM543 1177h116l66 65v108l-66 65h-116l-66 -65v-108zM561 1220l-39 40v73l39 38h80l39 -38v-73l-39 -40h-80zM592 1277h17l9 10v15l-9 9h-17l-9 -9v-15z" />
    <glyph glyph-name="uni030B" unicode="&#x30b;" 
d="M559 1112l145 264h287l-195 -264h-237zM336 1168h52l95 144h-62zM207 1112l145 264h287l-195 -264h-237zM688 1168h52l95 144h-62z" />
    <glyph glyph-name="uni030C" unicode="&#x30c;" 
d="M316 1112l-224 284h277l73 -108l73 108h277l-224 -284h-252zM370 1182h141l101 134h-60l-72 -100h-80l-71 100h-60z" />
    <glyph glyph-name="uni030F" unicode="&#x30f;" 
d="M982 1112h-247l-284 264h287zM822 1173l-132 140h-60l139 -140h53zM590 1112h-247l-284 264h287zM430 1173l-132 140h-60l139 -140h53z" />
    <glyph glyph-name="uni0311" unicode="&#x311;" 
d="M442 1379l112 -112v-156h-192v76h-78v-76h-192v156l112 112h238zM397 1309h-149l-80 -84v-41h46v28l48 52h120l48 -52v-28h46v41z" />
    <glyph glyph-name="uni0312" unicode="&#x312;" 
d="M505 1568l-114 -458h-271l159 458h226zM387 1475h-40l-91 -250h66z" />
    <glyph glyph-name="uni031B" unicode="&#x31b;" 
d="M487 1309v-199l-163 -187h-244v157h134l45 45v184h228zM348 1242v-123l-90 -98h-101v-39h126l116 129v131h-51z" />
    <glyph glyph-name="dotbelowcomb" unicode="&#x323;" 
d="M162 -271v210h212v-210h-212zM245 -191h43v49h-43v-49z" />
    <glyph glyph-name="uni0324" unicode="&#x324;" 
d="M574 -269v210h212v-210h-212zM158 -269v210h212v-210h-212zM241 -189h43v49h-43v-49zM659 -189h42v49h-42v-49z" />
    <glyph glyph-name="uni0326" unicode="&#x326;" 
d="M21 -530l114 458h271l-159 -458h-226zM139 -437h40l91 250h-66z" />
    <glyph glyph-name="uni0327" unicode="&#x327;" 
d="M100 -400v157h205l30 32l-30 30h-134v157h244l163 -187l-163 -189h-315zM176 -341h197l116 130l-116 128h-125v-39h100l82 -89l-82 -91h-172v-39z" />
    <glyph glyph-name="uni0328" unicode="&#x328;" 
d="M223 -389l-163 189l154 172h211l-162 -172l27 -32h238v-157h-305zM252 -330h217v39h-200l-79 91l102 110h-54l-100 -110z" />
    <glyph glyph-name="uni032E" unicode="&#x32e;" 
d="M204 -340l-112 112v156h192v-76h78v76h192v-156l-112 -112h-238zM249 -270h149l80 84v41h-46v-28l-48 -52h-120l-48 52v28h-46v-41z" />
    <glyph glyph-name="uni0331" unicode="&#x331;" 
d="M102 -326v256h632v-256h-632zM215 -230h416v57h-416v-57z" />
    <glyph glyph-name="uni1E08" unicode="&#x1e08;" horiz-adv-x="1244" 
d="M311 0l-206 206v988l206 206h621l207 -206v-322h-283v184l-61 61h-346l-61 -61v-712l61 -61h346l61 61v184h283v-322l-207 -206h-621zM366 111h511l152 152v167h-62v-141l-118 -116h-455l-118 116v826l118 116h455l118 -116v-142h62v168l-152 151h-511l-151 -151v-878z
M414 -400v157h205l30 32l-30 30h-134v157h244l163 -187l-163 -189h-315zM490 -341h197l116 130l-116 128h-125v-39h100l82 -89l-82 -91h-172v-39zM503 1432l244 264h287l-284 -264h-247zM663 1493h54l139 140h-61z" />
    <glyph glyph-name="uni1E09" unicode="&#x1e09;" horiz-adv-x="1148" 
d="M385 -349v157h205l30 32l-30 30h-134v130h-123l-206 206v668l206 206h484l206 -206v-224h-283v86l-61 61h-208l-61 -61v-392l61 -61h208l61 61v86h283v-224l-206 -206h-93l139 -160l-163 -189h-315zM461 -290h197l116 130l-116 128h-68v142h169l154 154v74h-62v-48
l-119 -118h-304l-127 126v494l121 120h310l119 -118v-49h62v75l-154 153h-365l-155 -155v-550l162 -158h132v-181h100l82 -89l-82 -91h-172v-39zM319 1112l244 264h287l-284 -264h-247zM479 1173h54l139 140h-61z" />
    <glyph glyph-name="uni1E0C" unicode="&#x1e0c;" horiz-adv-x="1289" 
d="M125 0v1400h833l206 -206v-988l-206 -206h-833zM408 283h413l61 61v712l-61 61h-413v-834zM237 110h663l151 152v874l-151 152h-663v-1178zM299 172v1055h573l118 -117v-822l-118 -116h-573zM539 -271v210h212v-210h-212zM622 -191h43v49h-43v-49z" />
    <glyph glyph-name="uni1E0D" unicode="&#x1e0d;" horiz-adv-x="1211" 
d="M879 0h-562l-207 206v668l207 206h466l20 -19v439h283v-1294zM787 168h-374l-128 126v511l111 109h358l161 -159v-461zM742 283l61 61v373l-80 81h-269l-61 -62v-392l61 -61h288zM815 106l162 162v1124h-62v-563l-146 147h-400l-145 -145v-563l162 -162h429zM500 -271
v210h212v-210h-212zM583 -191h43v49h-43v-49z" />
    <glyph glyph-name="uni1E0E" unicode="&#x1e0e;" horiz-adv-x="1289" 
d="M125 0v1400h833l206 -206v-988l-206 -206h-833zM408 283h413l61 61v712l-61 61h-413v-834zM237 110h663l151 152v874l-151 152h-663v-1178zM299 172v1055h573l118 -117v-822l-118 -116h-573zM329 -326v256h632v-256h-632zM442 -230h416v57h-416v-57z" />
    <glyph glyph-name="uni1E0F" unicode="&#x1e0f;" horiz-adv-x="1211" 
d="M879 0h-562l-207 206v668l207 206h466l20 -19v439h283v-1294zM787 168h-374l-128 126v511l111 109h358l161 -159v-461zM742 283l61 61v373l-80 81h-269l-61 -62v-392l61 -61h288zM815 106l162 162v1124h-62v-563l-146 147h-400l-145 -145v-563l162 -162h429zM290 -326
v256h632v-256h-632zM403 -230h416v57h-416v-57z" />
    <glyph glyph-name="uni1E14" unicode="&#x1e14;" horiz-adv-x="1140" 
d="M115 0v1400h910v-283h-627v-269h558v-283h-558v-282h627v-283h-910zM229 115h700v61h-639v500h569v62h-569v493h639v61h-700v-1177zM246 1431v256h632v-256h-632zM359 1527h416v57h-416v-57zM707 1719h-247l-284 264h287zM547 1780l-132 140h-60l139 -140h53z" />
    <glyph glyph-name="uni1E15" unicode="&#x1e15;" horiz-adv-x="1253" 
d="M937 1080l206 -206v-285l-206 -206h-544v-39l61 -61h675v-283h-813l-206 206v668l206 206h621zM850 909l120 -118v-136l-107 -106h-590v234l127 126h450zM878 970h-505l-162 -161v-545l155 -155h646v62h-618l-121 119v199h613l145 143v185zM799 797h-345l-61 -61v-80h426
l42 42v38zM313 1111v256h632v-256h-632zM426 1207h416v57h-416v-57zM774 1399h-247l-284 264h287zM614 1460l-132 140h-60l139 -140h53z" />
    <glyph glyph-name="uni1E16" unicode="&#x1e16;" horiz-adv-x="1140" 
d="M115 0v1400h910v-283h-627v-269h558v-283h-558v-282h627v-283h-910zM229 115h700v61h-639v500h569v62h-569v493h639v61h-700v-1177zM246 1431v256h632v-256h-632zM359 1527h416v57h-416v-57zM439 1719l244 264h287l-284 -264h-247zM599 1780h54l139 140h-61z" />
    <glyph glyph-name="uni1E17" unicode="&#x1e17;" horiz-adv-x="1253" 
d="M937 1080l206 -206v-285l-206 -206h-544v-39l61 -61h675v-283h-813l-206 206v668l206 206h621zM850 909l120 -118v-136l-107 -106h-590v234l127 126h450zM878 970h-505l-162 -161v-545l155 -155h646v62h-618l-121 119v199h613l145 143v185zM799 797h-345l-61 -61v-80h426
l42 42v38zM313 1111v256h632v-256h-632zM426 1207h416v57h-416v-57zM506 1399l244 264h287l-284 -264h-247zM666 1460h54l139 140h-61z" />
    <glyph glyph-name="uni1E1C" unicode="&#x1e1c;" horiz-adv-x="1140" 
d="M115 0v1400h910v-283h-627v-269h558v-283h-558v-282h627v-283h-910zM229 115h700v61h-639v500h569v62h-569v493h639v61h-700v-1177zM350 -400v157h205l30 32l-30 30h-134v157h244l163 -187l-163 -189h-315zM426 -341h197l116 130l-116 128h-125v-39h100l82 -89l-82 -91
h-172v-39zM443 1432l-112 112v156h192v-76h78v76h192v-156l-112 -112h-238zM488 1502h149l80 84v41h-46v-28l-48 -52h-120l-48 52v28h-46v-41z" />
    <glyph glyph-name="uni1E1D" unicode="&#x1e1d;" horiz-adv-x="1253" 
d="M937 1080l206 -206v-285l-206 -206h-544v-39l61 -61h675v-283h-813l-206 206v668l206 206h621zM850 909l120 -118v-136l-107 -106h-590v234l127 126h450zM878 970h-505l-162 -161v-545l155 -155h646v62h-618l-121 119v199h613l145 143v185zM799 797h-345l-61 -61v-80h426
l42 42v38zM418 -400v157h205l30 32l-30 30h-134v157h244l163 -187l-163 -189h-315zM494 -341h197l116 130l-116 128h-125v-39h100l82 -89l-82 -91h-172v-39zM510 1112l-112 112v156h192v-76h78v76h192v-156l-112 -112h-238zM555 1182h149l80 84v41h-46v-28l-48 -52h-120
l-48 52v28h-46v-41z" />
    <glyph glyph-name="uni1E20" unicode="&#x1e20;" horiz-adv-x="1278" 
d="M321 0l-206 206v988l206 206h636l206 -206v-252h-282v114l-61 61h-363l-60 -63v-711l60 -60h363l61 61v138h-277v282h559v-558l-206 -206h-636zM379 115h522l152 151v385h-338v-61h276v-298l-117 -116h-468l-118 116v823l118 116h468l117 -116v-68h62v94l-152 151h-522
l-152 -151v-875zM323 1431v256h632v-256h-632zM436 1527h416v57h-416v-57z" />
    <glyph glyph-name="uni1E21" unicode="&#x1e21;" horiz-adv-x="1210" 
d="M160 -400v282h562l81 81v57l-20 -20h-467l-206 206v668l206 206h563l206 -206v-1068l-206 -206h-719zM270 -292h535l175 180v924l-162 162h-444l-154 -153v-546l164 -163h373l161 161v-356l-144 -148h-504v-61zM411 174l-129 127v494l119 118h390l127 -127v-435
l-179 -177h-328zM454 283h249l100 100v354l-62 61h-287l-61 -61v-393zM277 1111v256h632v-256h-632zM390 1207h416v57h-416v-57z" />
    <glyph glyph-name="uni1E24" unicode="&#x1e24;" horiz-adv-x="1295" 
d="M125 0v1400h283v-552h480v552h282v-1400h-282v565h-480v-565h-283zM236 108h62v571h701v-571h62v1184h-62v-552h-701v552h-62v-1184zM534 -271v210h212v-210h-212zM617 -191h43v49h-43v-49z" />
    <glyph glyph-name="uni1E25" unicode="&#x1e25;" horiz-adv-x="1210" 
d="M125 0v1499h283v-438l19 19h467l206 -206v-874h-283v736l-61 62h-268l-80 -81v-717h-283zM238 110h61v650l153 151h366l111 -110v-691h62v717l-145 145h-409l-138 -136v556h-61v-1282zM507 -271v210h212v-210h-212zM590 -191h43v49h-43v-49z" />
    <glyph glyph-name="uni1E2A" unicode="&#x1e2a;" horiz-adv-x="1295" 
d="M125 0v1400h283v-552h480v552h282v-1400h-282v565h-480v-565h-283zM236 108h62v571h701v-571h62v1184h-62v-552h-701v552h-62v-1184zM521 -340l-112 112v156h192v-76h78v76h192v-156l-112 -112h-238zM566 -270h149l80 84v41h-46v-28l-48 -52h-120l-48 52v28h-46v-41z" />
    <glyph glyph-name="uni1E2B" unicode="&#x1e2b;" horiz-adv-x="1210" 
d="M125 0v1499h283v-438l19 19h467l206 -206v-874h-283v736l-61 62h-268l-80 -81v-717h-283zM238 110h61v650l153 151h366l111 -110v-691h62v717l-145 145h-409l-138 -136v556h-61v-1282zM494 -340l-112 112v156h192v-76h78v76h192v-156l-112 -112h-238zM539 -270h149l80 84
v41h-46v-28l-48 -52h-120l-48 52v28h-46v-41z" />
    <glyph glyph-name="uni1E2E" unicode="&#x1e2e;" horiz-adv-x="1059" 
d="M115 0v283h274v834h-274v283h829v-283h-273v-834h273v-283h-829zM225 110h610v61h-283v1060h283v61h-610v-61h266v-1060h-266v-61zM633 1452v210h212v-210h-212zM217 1452v210h212v-210h-212zM300 1532h43v49h-43v-49zM718 1532h42v49h-42v-49zM407 1694l244 264h287
l-284 -264h-247zM567 1755h54l139 140h-61z" />
    <glyph glyph-name="uni1E2F" unicode="&#x1e2f;" horiz-adv-x="990" 
d="M114 0v283h240v514h-240v283h522v-797h240v-283h-762zM215 110h561v61h-259v801h-302v-61h241v-740h-241v-61zM598 1132v210h212v-210h-212zM182 1132v210h212v-210h-212zM265 1212h43v49h-43v-49zM683 1212h42v49h-42v-49zM372 1374l244 264h287l-284 -264h-247z
M532 1435h54l139 140h-61z" />
    <glyph glyph-name="uni1E36" unicode="&#x1e36;" horiz-adv-x="1091" 
d="M125 0v1400h283v-1117h608v-283h-891zM236 109h671v61h-609v1122h-62v-1183zM450 -271v210h212v-210h-212zM533 -191h43v49h-43v-49z" />
    <glyph glyph-name="uni1E37" unicode="&#x1e37;" horiz-adv-x="912" 
d="M45 0v283h270v934h-270v283h552v-1217h270v-283h-822zM155 110h603v61h-275v1221h-328v-61h266v-1160h-266v-61zM330 -271v210h212v-210h-212zM413 -191h43v49h-43v-49z" />
    <glyph glyph-name="uni1E3A" unicode="&#x1e3a;" horiz-adv-x="1091" 
d="M125 0v1400h283v-1117h608v-283h-891zM236 109h671v61h-609v1122h-62v-1183zM240 -326v256h632v-256h-632zM353 -230h416v57h-416v-57z" />
    <glyph glyph-name="uni1E3B" unicode="&#x1e3b;" horiz-adv-x="912" 
d="M45 0v283h270v934h-270v283h552v-1217h270v-283h-822zM155 110h603v61h-275v1221h-328v-61h266v-1160h-266v-61zM120 -326v256h632v-256h-632zM233 -230h416v57h-416v-57z" />
    <glyph glyph-name="uni1E42" unicode="&#x1e42;" horiz-adv-x="1741" 
d="M125 0v1400h553l169 -993h48l169 993h552v-1400h-283v1116h-39l-172 -996h-502l-171 996h-41v-1116h-283zM235 110h61v1116h233l185 -983h312l185 983h232v-1116h62v1181h-346l-185 -984h-207l-186 984h-346v-1181zM766 -271v210h212v-210h-212zM849 -191h43v49h-43v-49z
" />
    <glyph glyph-name="uni1E43" unicode="&#x1e43;" horiz-adv-x="1613" 
d="M110 0v874l206 206h387l104 -102l103 102h387l206 -206v-874h-283v736l-61 61h-150l-61 -61v-676h-283v676l-61 61h-150l-61 -61v-736h-283zM221 110h62v683l121 119h243l129 -127v-624h62v624l129 127h243l121 -119v-683h62v709l-155 155h-292l-139 -139l-139 139h-292
l-155 -155v-709zM701 -271v210h212v-210h-212zM784 -191h43v49h-43v-49z" />
    <glyph glyph-name="uni1E44" unicode="&#x1e44;" horiz-adv-x="1465" 
d="M235 106h61v1117h231l365 -1113h339v1182h-61v-1118h-231l-364 1114h-340v-1182zM125 0v1400h543l346 -1113h43v1113h283v-1400h-543l-348 1116h-41v-1116h-283zM631 1452v210h212v-210h-212zM714 1532h43v49h-43v-49z" />
    <glyph glyph-name="uni1E45" unicode="&#x1e45;" horiz-adv-x="1180" 
d="M110 0v874l206 206h548l206 -206v-874h-282v736l-61 61h-274l-61 -61v-736h-282zM222 110h61v680l122 119h374l119 -118v-681h62v707l-154 154h-429l-155 -155v-706zM492 1132v210h212v-210h-212zM575 1212h43v49h-43v-49z" />
    <glyph glyph-name="uni1E46" unicode="&#x1e46;" horiz-adv-x="1465" 
d="M235 106h61v1117h231l365 -1113h339v1182h-61v-1118h-231l-364 1114h-340v-1182zM125 0v1400h543l346 -1113h43v1113h283v-1400h-543l-348 1116h-41v-1116h-283zM630 -271v210h212v-210h-212zM713 -191h43v49h-43v-49z" />
    <glyph glyph-name="uni1E47" unicode="&#x1e47;" horiz-adv-x="1180" 
d="M110 0v874l206 206h548l206 -206v-874h-282v736l-61 61h-274l-61 -61v-736h-282zM222 110h61v680l122 119h374l119 -118v-681h62v707l-154 154h-429l-155 -155v-706zM491 -271v210h212v-210h-212zM574 -191h43v49h-43v-49z" />
    <glyph glyph-name="uni1E48" unicode="&#x1e48;" horiz-adv-x="1465" 
d="M235 106h61v1117h231l365 -1113h339v1182h-61v-1118h-231l-364 1114h-340v-1182zM125 0v1400h543l346 -1113h43v1113h283v-1400h-543l-348 1116h-41v-1116h-283zM420 -326v256h632v-256h-632zM533 -230h416v57h-416v-57z" />
    <glyph glyph-name="uni1E49" unicode="&#x1e49;" horiz-adv-x="1180" 
d="M110 0v874l206 206h548l206 -206v-874h-282v736l-61 61h-274l-61 -61v-736h-282zM222 110h61v680l122 119h374l119 -118v-681h62v707l-154 154h-429l-155 -155v-706zM281 -326v256h632v-256h-632zM394 -230h416v57h-416v-57z" />
    <glyph glyph-name="uni1E4C" unicode="&#x1e4c;" horiz-adv-x="1306" 
d="M321 0l-206 206v988l206 206h664l206 -206v-988l-206 -206h-664zM459 283h388l61 61v712l-61 61h-388l-61 -61v-712zM380 115h548l152 151v875l-152 151h-548l-152 -151v-875zM407 176l-118 116v823l118 116h494l117 -116v-823l-117 -116h-494zM374 1432v136l112 112h178
l56 -56h18v56h192v-136l-112 -112h-178l-56 56h-18v-56h-192zM452 1495h46v20l48 52h65l68 -65h99l79 84v33h-46v-20l-48 -52h-72l-66 65h-94l-79 -84v-33zM530 1712l244 264h287l-284 -264h-247zM690 1773h54l139 140h-61z" />
    <glyph glyph-name="uni1E4D" unicode="&#x1e4d;" horiz-adv-x="1257" 
d="M316 0l-206 206v668l206 206h625l206 -206v-668l-206 -206h-625zM385 110h498l153 153v554l-153 154h-505l-155 -155v-545zM412 171l-128 126v493l122 119h449l119 -118v-502l-119 -118h-443zM454 283h349l61 61v392l-61 61h-349l-61 -61v-392zM349 1112v136l112 112h178
l56 -56h18v56h192v-136l-112 -112h-178l-56 56h-18v-56h-192zM427 1175h46v20l48 52h65l68 -65h99l79 84v33h-46v-20l-48 -52h-72l-66 65h-94l-79 -84v-33zM505 1392l244 264h287l-284 -264h-247zM665 1453h54l139 140h-61z" />
    <glyph glyph-name="uni1E4E" unicode="&#x1e4e;" horiz-adv-x="1306" 
d="M321 0l-206 206v988l206 206h664l206 -206v-988l-206 -206h-664zM459 283h388l61 61v712l-61 61h-388l-61 -61v-712zM380 115h548l152 151v875l-152 151h-548l-152 -151v-875zM407 176l-118 116v823l118 116h494l117 -116v-823l-117 -116h-494zM374 1432v136l112 112h178
l56 -56h18v56h192v-136l-112 -112h-178l-56 56h-18v-56h-192zM452 1495h46v20l48 52h65l68 -65h99l79 84v33h-46v-20l-48 -52h-72l-66 65h-94l-79 -84v-33zM756 1732v210h212v-210h-212zM340 1732v210h212v-210h-212zM423 1812h43v49h-43v-49zM841 1812h42v49h-42v-49z" />
    <glyph glyph-name="uni1E4F" unicode="&#x1e4f;" horiz-adv-x="1257" 
d="M316 0l-206 206v668l206 206h625l206 -206v-668l-206 -206h-625zM385 110h498l153 153v554l-153 154h-505l-155 -155v-545zM412 171l-128 126v493l122 119h449l119 -118v-502l-119 -118h-443zM454 283h349l61 61v392l-61 61h-349l-61 -61v-392zM349 1112v136l112 112h178
l56 -56h18v56h192v-136l-112 -112h-178l-56 56h-18v-56h-192zM427 1175h46v20l48 52h65l68 -65h99l79 84v33h-46v-20l-48 -52h-72l-66 65h-94l-79 -84v-33zM731 1412v210h212v-210h-212zM315 1412v210h212v-210h-212zM398 1492h43v49h-43v-49zM816 1492h42v49h-42v-49z" />
    <glyph glyph-name="uni1E50" unicode="&#x1e50;" horiz-adv-x="1306" 
d="M321 0l-206 206v988l206 206h664l206 -206v-988l-206 -206h-664zM459 283h388l61 61v712l-61 61h-388l-61 -61v-712zM380 115h548l152 151v875l-152 151h-548l-152 -151v-875zM407 176l-118 116v823l118 116h494l117 -116v-823l-117 -116h-494zM337 1431v256h632v-256
h-632zM450 1527h416v57h-416v-57zM798 1719h-247l-284 264h287zM638 1780l-132 140h-60l139 -140h53z" />
    <glyph glyph-name="uni1E51" unicode="&#x1e51;" horiz-adv-x="1257" 
d="M316 0l-206 206v668l206 206h625l206 -206v-668l-206 -206h-625zM385 110h498l153 153v554l-153 154h-505l-155 -155v-545zM412 171l-128 126v493l122 119h449l119 -118v-502l-119 -118h-443zM454 283h349l61 61v392l-61 61h-349l-61 -61v-392zM312 1111v256h632v-256
h-632zM425 1207h416v57h-416v-57zM773 1399h-247l-284 264h287zM613 1460l-132 140h-60l139 -140h53z" />
    <glyph glyph-name="uni1E52" unicode="&#x1e52;" horiz-adv-x="1306" 
d="M321 0l-206 206v988l206 206h664l206 -206v-988l-206 -206h-664zM459 283h388l61 61v712l-61 61h-388l-61 -61v-712zM380 115h548l152 151v875l-152 151h-548l-152 -151v-875zM407 176l-118 116v823l118 116h494l117 -116v-823l-117 -116h-494zM337 1431v256h632v-256
h-632zM450 1527h416v57h-416v-57zM530 1719l244 264h287l-284 -264h-247zM690 1780h54l139 140h-61z" />
    <glyph glyph-name="uni1E53" unicode="&#x1e53;" horiz-adv-x="1257" 
d="M316 0l-206 206v668l206 206h625l206 -206v-668l-206 -206h-625zM385 110h498l153 153v554l-153 154h-505l-155 -155v-545zM412 171l-128 126v493l122 119h449l119 -118v-502l-119 -118h-443zM454 283h349l61 61v392l-61 61h-349l-61 -61v-392zM312 1111v256h632v-256
h-632zM425 1207h416v57h-416v-57zM505 1399l244 264h287l-284 -264h-247zM665 1460h54l139 140h-61z" />
    <glyph glyph-name="uni1E5A" unicode="&#x1e5a;" horiz-adv-x="1309" 
d="M125 0v1400h863l206 -206v-434l-122 -112l122 -133v-515h-283v415l-100 100h-403v-515h-283zM236 108h62v524h560l167 -179v-345h61v364l-173 189l167 142v337l-152 151h-692v-1183zM408 798h442l61 62v196l-61 61h-442v-319zM298 694v536h602l118 -116v-291l-154 -129
h-566zM551 -271v210h212v-210h-212zM634 -191h43v49h-43v-49z" />
    <glyph glyph-name="uni1E5B" unicode="&#x1e5b;" horiz-adv-x="1148" 
d="M110 0v282h194v501l-15 15h-177v282h253l68 -80l77 80h389l219 -219l-218 -212l-138 148h-114l-61 -61v-455h194v-281h-671zM213 110h465v62h-202v629l104 104h248l88 -98l47 44l-107 115h-303l-111 -111l-102 111h-127v-61h109l92 -101v-632h-201v-62zM340 -271v210h212
v-210h-212zM423 -191h43v49h-43v-49z" />
    <glyph glyph-name="uni1E5E" unicode="&#x1e5e;" horiz-adv-x="1309" 
d="M125 0v1400h863l206 -206v-434l-122 -112l122 -133v-515h-283v415l-100 100h-403v-515h-283zM236 108h62v524h560l167 -179v-345h61v364l-173 189l167 142v337l-152 151h-692v-1183zM408 798h442l61 62v196l-61 61h-442v-319zM298 694v536h602l118 -116v-291l-154 -129
h-566zM341 -326v256h632v-256h-632zM454 -230h416v57h-416v-57z" />
    <glyph glyph-name="uni1E5F" unicode="&#x1e5f;" horiz-adv-x="1148" 
d="M110 0v282h194v501l-15 15h-177v282h253l68 -80l77 80h389l219 -219l-218 -212l-138 148h-114l-61 -61v-455h194v-281h-671zM213 110h465v62h-202v629l104 104h248l88 -98l47 44l-107 115h-303l-111 -111l-102 111h-127v-61h109l92 -101v-632h-201v-62zM130 -326v256h632
v-256h-632zM243 -230h416v57h-416v-57z" />
    <glyph glyph-name="uni1E60" unicode="&#x1e60;" horiz-adv-x="1302" 
d="M321 0l-206 206v252h283v-114l61 -61h384l61 61v154l-61 61h-516l-206 206v429l206 206h635l206 -206v-252h-283v114l-61 61h-359l-62 -61v-153l62 -61h516l206 -206v-430l-206 -206h-660zM374 110h545l152 151v336l-135 135h-524l-119 119v260l118 116h474l110 -107v-78
h61v104l-143 143h-530l-152 -152v-312l155 -155h522l101 -99v-284l-117 -116h-491l-109 108v79h-62v-105zM546 1452v210h212v-210h-212zM629 1532h43v49h-43v-49z" />
    <glyph glyph-name="uni1E61" unicode="&#x1e61;" horiz-adv-x="1203" 
d="M120 0v283h630l61 61v-5l-59 60h-436l-206 206v269l206 206h757v-283h-620l-61 -61v6l61 -61h434l206 -206v-269l-206 -206h-767zM228 114h608l147 146v172l-147 143h-449l-104 102v121l112 111h570v62h-597l-147 -147v-172l139 -138h449l112 -107v-121l-112 -111h-581
v-61zM506 1132v210h212v-210h-212zM589 1212h43v49h-43v-49z" />
    <glyph glyph-name="uni1E62" unicode="&#x1e62;" horiz-adv-x="1302" 
d="M321 0l-206 206v252h283v-114l61 -61h384l61 61v154l-61 61h-516l-206 206v429l206 206h635l206 -206v-252h-283v114l-61 61h-359l-62 -61v-153l62 -61h516l206 -206v-430l-206 -206h-660zM374 110h545l152 151v336l-135 135h-524l-119 119v260l118 116h474l110 -107v-78
h61v104l-143 143h-530l-152 -152v-312l155 -155h522l101 -99v-284l-117 -116h-491l-109 108v79h-62v-105zM545 -271v210h212v-210h-212zM628 -191h43v49h-43v-49z" />
    <glyph glyph-name="uni1E63" unicode="&#x1e63;" horiz-adv-x="1203" 
d="M120 0v283h630l61 61v-5l-59 60h-436l-206 206v269l206 206h757v-283h-620l-61 -61v6l61 -61h434l206 -206v-269l-206 -206h-767zM228 114h608l147 146v172l-147 143h-449l-104 102v121l112 111h570v62h-597l-147 -147v-172l139 -138h449l112 -107v-121l-112 -111h-581
v-61zM505 -271v210h212v-210h-212zM588 -191h43v49h-43v-49z" />
    <glyph glyph-name="uni1E64" unicode="&#x1e64;" horiz-adv-x="1302" 
d="M321 0l-206 206v252h283v-114l61 -61h384l61 61v154l-61 61h-516l-206 206v429l206 206h635l206 -206v-252h-283v114l-61 61h-359l-62 -61v-153l62 -61h516l206 -206v-430l-206 -206h-660zM374 110h545l152 151v336l-135 135h-524l-119 119v260l118 116h474l110 -107v-78
h61v104l-143 143h-530l-152 -152v-312l155 -155h522l101 -99v-284l-117 -116h-491l-109 108v79h-62v-105zM528 1432l244 264h287l-284 -264h-247zM688 1493h54l139 140h-61zM693 1748v210h212v-210h-212zM776 1828h43v49h-43v-49z" />
    <glyph glyph-name="uni1E65" unicode="&#x1e65;" horiz-adv-x="1203" 
d="M120 0v283h630l61 61v-5l-59 60h-436l-206 206v269l206 206h757v-283h-620l-61 -61v6l61 -61h434l206 -206v-269l-206 -206h-767zM228 114h608l147 146v172l-147 143h-449l-104 102v121l112 111h570v62h-597l-147 -147v-172l139 -138h449l112 -107v-121l-112 -111h-581
v-61zM488 1112l244 264h287l-284 -264h-247zM648 1173h54l139 140h-61zM653 1428v210h212v-210h-212zM736 1508h43v49h-43v-49z" />
    <glyph glyph-name="uni1E66" unicode="&#x1e66;" horiz-adv-x="1302" 
d="M321 0l-206 206v252h283v-114l61 -61h384l61 61v154l-61 61h-516l-206 206v429l206 206h635l206 -206v-252h-283v114l-61 61h-359l-62 -61v-153l62 -61h516l206 -206v-430l-206 -206h-660zM374 110h545l152 151v336l-135 135h-524l-119 119v260l118 116h474l110 -107v-78
h61v104l-143 143h-530l-152 -152v-312l155 -155h522l101 -99v-284l-117 -116h-491l-109 108v79h-62v-105zM525 1432l-224 284h277l73 -108l73 108h277l-224 -284h-252zM579 1502h141l101 134h-60l-72 -100h-80l-71 100h-60zM546 1768v210h212v-210h-212zM629 1848h43v49h-43
v-49z" />
    <glyph glyph-name="uni1E67" unicode="&#x1e67;" horiz-adv-x="1203" 
d="M120 0v283h630l61 61v-5l-59 60h-436l-206 206v269l206 206h757v-283h-620l-61 -61v6l61 -61h434l206 -206v-269l-206 -206h-767zM228 114h608l147 146v172l-147 143h-449l-104 102v121l112 111h570v62h-597l-147 -147v-172l139 -138h449l112 -107v-121l-112 -111h-581
v-61zM485 1112l-224 284h277l73 -108l73 108h277l-224 -284h-252zM539 1182h141l101 134h-60l-72 -100h-80l-71 100h-60zM506 1448v210h212v-210h-212zM589 1528h43v49h-43v-49z" />
    <glyph glyph-name="uni1E68" unicode="&#x1e68;" horiz-adv-x="1302" 
d="M321 0l-206 206v252h283v-114l61 -61h384l61 61v154l-61 61h-516l-206 206v429l206 206h635l206 -206v-252h-283v114l-61 61h-359l-62 -61v-153l62 -61h516l206 -206v-430l-206 -206h-660zM374 110h545l152 151v336l-135 135h-524l-119 119v260l118 116h474l110 -107v-78
h61v104l-143 143h-530l-152 -152v-312l155 -155h522l101 -99v-284l-117 -116h-491l-109 108v79h-62v-105zM545 -271v210h212v-210h-212zM628 -191h43v49h-43v-49zM546 1452v210h212v-210h-212zM629 1532h43v49h-43v-49z" />
    <glyph glyph-name="uni1E69" unicode="&#x1e69;" horiz-adv-x="1203" 
d="M120 0v283h630l61 61v-5l-59 60h-436l-206 206v269l206 206h757v-283h-620l-61 -61v6l61 -61h434l206 -206v-269l-206 -206h-767zM228 114h608l147 146v172l-147 143h-449l-104 102v121l112 111h570v62h-597l-147 -147v-172l139 -138h449l112 -107v-121l-112 -111h-581
v-61zM505 -271v210h212v-210h-212zM588 -191h43v49h-43v-49zM506 1132v210h212v-210h-212zM589 1212h43v49h-43v-49z" />
    <glyph glyph-name="uni1E6C" unicode="&#x1e6c;" horiz-adv-x="1126" 
d="M422 0v1117h-347v283h976v-283h-347v-1117h-282zM532 106h61v1125h353v61h-766v-61h352v-1125zM457 -271v210h212v-210h-212zM540 -191h43v49h-43v-49z" />
    <glyph glyph-name="uni1E6D" unicode="&#x1e6d;" horiz-adv-x="935" 
d="M294 0v798h-249v282h249v274h283v-274h248v-282h-248v-515h241v-283h-524zM405 110h305v61h-243v740h250v61h-250v273h-62v-273h-251v-61h251v-801zM357 -274v210h212v-210h-212zM440 -194h43v49h-43v-49z" />
    <glyph glyph-name="uni1E6E" unicode="&#x1e6e;" horiz-adv-x="1126" 
d="M422 0v1117h-347v283h976v-283h-347v-1117h-282zM532 106h61v1125h353v61h-766v-61h352v-1125zM247 -326v256h632v-256h-632zM360 -230h416v57h-416v-57z" />
    <glyph glyph-name="uni1E6F" unicode="&#x1e6f;" horiz-adv-x="935" 
d="M294 0v798h-249v282h249v274h283v-274h248v-282h-248v-515h241v-283h-524zM405 110h305v61h-243v740h250v61h-250v273h-62v-273h-251v-61h251v-801zM147 -329v256h632v-256h-632zM260 -233h416v57h-416v-57z" />
    <glyph glyph-name="uni1E78" unicode="&#x1e78;" horiz-adv-x="1328" 
d="M321 0l-206 206v1194h283v-1056l61 -61h410l61 61v1056h283v-1194l-206 -206h-686zM379 110h572l152 150v1032h-62v-1006l-118 -114h-517l-119 114v1006h-62v-1032zM386 1432v136l112 112h178l56 -56h18v56h192v-136l-112 -112h-178l-56 56h-18v-56h-192zM464 1495h46v20
l48 52h65l68 -65h99l79 84v33h-46v-20l-48 -52h-72l-66 65h-94l-79 -84v-33zM542 1712l244 264h287l-284 -264h-247zM702 1773h54l139 140h-61z" />
    <glyph glyph-name="uni1E79" unicode="&#x1e79;" horiz-adv-x="1202" 
d="M316 0l-206 206v874h283v-736l61 -61h294l61 61v736h283v-874l-206 -206h-570zM381 111h448l154 162v698h-62v-672l-119 -126h-393l-128 126v672h-61v-698zM324 1112v136l112 112h178l56 -56h18v56h192v-136l-112 -112h-178l-56 56h-18v-56h-192zM402 1175h46v20l48 52
h65l68 -65h99l79 84v33h-46v-20l-48 -52h-72l-66 65h-94l-79 -84v-33zM480 1392l244 264h287l-284 -264h-247zM640 1453h54l139 140h-61z" />
    <glyph glyph-name="uni1E7A" unicode="&#x1e7a;" horiz-adv-x="1328" 
d="M321 0l-206 206v1194h283v-1056l61 -61h410l61 61v1056h283v-1194l-206 -206h-686zM379 110h572l152 150v1032h-62v-1006l-118 -114h-517l-119 114v1006h-62v-1032zM349 1431v256h632v-256h-632zM462 1527h416v57h-416v-57zM768 1739v210h212v-210h-212zM352 1739v210
h212v-210h-212zM435 1819h43v49h-43v-49zM853 1819h42v49h-42v-49z" />
    <glyph glyph-name="uni1E7B" unicode="&#x1e7b;" horiz-adv-x="1202" 
d="M316 0l-206 206v874h283v-736l61 -61h294l61 61v736h283v-874l-206 -206h-570zM381 111h448l154 162v698h-62v-672l-119 -126h-393l-128 126v672h-61v-698zM287 1111v256h632v-256h-632zM400 1207h416v57h-416v-57zM706 1419v210h212v-210h-212zM290 1419v210h212v-210
h-212zM373 1499h43v49h-43v-49zM791 1499h42v49h-42v-49z" />
    <glyph glyph-name="Wgrave" unicode="&#x1e80;" horiz-adv-x="1738" 
d="M125 1400h283v-1116h44l166 996h502l167 -996h43v1116h283v-1400h-556l-164 993h-48l-164 -993h-556v1400zM235 1291v-1181h347l181 984h210l182 -984h347v1181h-62v-1117h-234l-181 983h-314l-180 -983h-235v1117h-61zM1016 1432h-247l-284 264h287zM856 1493l-132 140
h-60l139 -140h53z" />
    <glyph glyph-name="wgrave" unicode="&#x1e81;" horiz-adv-x="1613" 
d="M110 1080h283v-736l61 -61h150l61 61v676h283v-676l61 -61h150l61 61v736h283v-874l-206 -206h-387l-103 102l-104 -102h-387l-206 206v874zM221 971v-710l155 -155h292l139 139l139 -139h292l155 155v710h-62v-684l-121 -119h-243l-129 128v623h-62v-623l-129 -128h-243
l-121 119v684h-62zM952 1112h-247l-284 264h287zM792 1173l-132 140h-60l139 -140h53z" />
    <glyph glyph-name="Wacute" unicode="&#x1e82;" horiz-adv-x="1738" 
d="M125 1400h283v-1116h44l166 996h502l167 -996h43v1116h283v-1400h-556l-164 993h-48l-164 -993h-556v1400zM235 1291v-1181h347l181 984h210l182 -984h347v1181h-62v-1117h-234l-181 983h-314l-180 -983h-235v1117h-61zM748 1432l244 264h287l-284 -264h-247zM908 1493
h54l139 140h-61z" />
    <glyph glyph-name="wacute" unicode="&#x1e83;" horiz-adv-x="1613" 
d="M110 1080h283v-736l61 -61h150l61 61v676h283v-676l61 -61h150l61 61v736h283v-874l-206 -206h-387l-103 102l-104 -102h-387l-206 206v874zM221 971v-710l155 -155h292l139 139l139 -139h292l155 155v710h-62v-684l-121 -119h-243l-129 128v623h-62v-623l-129 -128h-243
l-121 119v684h-62zM684 1112l244 264h287l-284 -264h-247zM844 1173h54l139 140h-61z" />
    <glyph glyph-name="Wdieresis" unicode="&#x1e84;" horiz-adv-x="1738" 
d="M125 1400h283v-1116h44l166 996h502l167 -996h43v1116h283v-1400h-556l-164 993h-48l-164 -993h-556v1400zM235 1291v-1181h347l181 984h210l182 -984h347v1181h-62v-1117h-234l-181 983h-314l-180 -983h-235v1117h-61zM974 1452v210h212v-210h-212zM558 1452v210h212
v-210h-212zM641 1532h43v49h-43v-49zM1059 1532h42v49h-42v-49z" />
    <glyph glyph-name="wdieresis" unicode="&#x1e85;" horiz-adv-x="1613" 
d="M110 1080h283v-736l61 -61h150l61 61v676h283v-676l61 -61h150l61 61v736h283v-874l-206 -206h-387l-103 102l-104 -102h-387l-206 206v874zM221 971v-710l155 -155h292l139 139l139 -139h292l155 155v710h-62v-684l-121 -119h-243l-129 128v623h-62v-623l-129 -128h-243
l-121 119v684h-62zM910 1132v210h212v-210h-212zM494 1132v210h212v-210h-212zM577 1212h43v49h-43v-49zM995 1212h42v49h-42v-49z" />
    <glyph glyph-name="uni1E8E" unicode="&#x1e8e;" horiz-adv-x="1294" 
d="M505 0v443l-400 382v575h283v-473l268 -253h-19l269 253v473h283v-575l-401 -382v-443h-283zM615 106h62v379l401 379v428h-62v-409l-367 -346h-5l-368 346v409h-61v-428l400 -379v-379zM542 1452v210h212v-210h-212zM625 1532h43v49h-43v-49z" />
    <glyph glyph-name="uni1E8E" unicode="&#x1e8f;" horiz-adv-x="1294" 
d="M505 0v443l-400 382v575h283v-473l268 -253h-19l269 253v473h283v-575l-401 -382v-443h-283zM615 106h62v379l401 379v428h-62v-409l-367 -346h-5l-368 346v409h-61v-428l400 -379v-379zM542 1452v210h212v-210h-212zM625 1532h43v49h-43v-49z" />
    <glyph glyph-name="uni1E92" unicode="&#x1e92;" horiz-adv-x="1123" 
d="M227 111h684v62h-616v222l611 602v295h-671v-61h604v-215l-612 -604v-301zM105 0v448l610 605v64h-591v283h894v-444l-604 -597v-76h604v-283h-913zM456 -271v210h212v-210h-212zM539 -191h43v49h-43v-49z" />
    <glyph glyph-name="uni1E93" unicode="&#x1e93;" horiz-adv-x="1070" 
d="M244 113h612v61h-536v173l511 364v260h-597v-62h522v-180l-512 -367v-249zM110 0v399l515 368v30h-496v283h831v-407l-508 -358v-32h508v-283h-850zM429 -271v210h212v-210h-212zM512 -191h43v49h-43v-49z" />
    <glyph glyph-name="uni1E97" unicode="&#x1e97;" horiz-adv-x="935" 
d="M294 0v798h-249v282h249v274h283v-274h248v-282h-248v-515h241v-283h-524zM405 110h305v61h-243v740h250v61h-250v273h-62v-273h-251v-61h251v-801zM542 1410v210h212v-210h-212zM126 1410v210h212v-210h-212zM209 1490h43v49h-43v-49zM627 1490h42v49h-42v-49z" />
    <glyph glyph-name="uni1E9E" unicode="&#x1e9e;" horiz-adv-x="1306" 
d="M85 0v1194l206 206h659l206 -206v-357l-89 -89l154 -155v-367l-226 -226h-375v283h237l81 81v101l-164 164v227l100 99v101l-61 61h-384l-61 -61v-1056h-283zM192 111h62v1017l96 99h542l92 -100v-223l-91 -91v-141l153 -154v-217l-132 -127h-199v-61h227l165 157v270
l-153 159v90l91 92v275l-123 131h-603l-127 -127v-1049z" />
    <glyph glyph-name="uni1EA0" unicode="&#x1ea0;" horiz-adv-x="1288" 
d="M115 0v1194l206 206h646l206 -206v-1194h-282v412h-494v-412h-282zM230 120h61v400h710v-400h62v1025l-152 151h-530l-151 -151v-1025zM397 694h494v362l-61 61h-372l-61 -61v-362zM291 581v538l118 116h475l117 -116v-538h-710zM539 -271v210h212v-210h-212zM622 -191
h43v49h-43v-49z" />
    <glyph glyph-name="uni1EA1" unicode="&#x1ea1;" horiz-adv-x="1253" 
d="M316 0l-206 206v285l206 206h544v39l-61 61h-675v283h813l206 -206v-668l-206 -206h-621zM403 171l-120 118v136l107 106h590v-234l-127 -126h-450zM375 110h505l162 161v545l-155 155h-646v-62h618l121 -119v-199h-613l-145 -143v-185zM454 283h345l61 61v80h-426
l-42 -42v-38zM522 -271v210h212v-210h-212zM605 -191h43v49h-43v-49z" />
    <glyph glyph-name="uni1EA2" unicode="&#x1ea2;" horiz-adv-x="1288" 
d="M115 0v1194l206 206h646l206 -206v-1194h-282v412h-494v-412h-282zM230 120h61v400h710v-400h62v1025l-152 151h-530l-151 -151v-1025zM397 694h494v362l-61 61h-372l-61 -61v-362zM291 581v538l118 116h475l117 -116v-538h-710zM406 1802h315l163 -189l-163 -187h-244
v157h134l30 30l-30 32h-205v157zM482 1743v-39h172l82 -91l-82 -89h-100v-39h125l116 128l-116 130h-197z" />
    <glyph glyph-name="uni1EA3" unicode="&#x1ea3;" horiz-adv-x="1253" 
d="M316 0l-206 206v285l206 206h544v39l-61 61h-675v283h813l206 -206v-668l-206 -206h-621zM403 171l-120 118v136l107 106h590v-234l-127 -126h-450zM375 110h505l162 161v545l-155 155h-646v-62h618l121 -119v-199h-613l-145 -143v-185zM454 283h345l61 61v80h-426
l-42 -42v-38zM389 1482h315l163 -189l-163 -187h-244v157h134l30 30l-30 32h-205v157zM465 1423v-39h172l82 -91l-82 -89h-100v-39h125l116 128l-116 130h-197z" />
    <glyph glyph-name="uni1EA4" unicode="&#x1ea4;" horiz-adv-x="1288" 
d="M115 0v1194l206 206h646l206 -206v-1194h-282v412h-494v-412h-282zM230 120h61v400h710v-400h62v1025l-152 151h-530l-151 -151v-1025zM397 694h494v362l-61 61h-372l-61 -61v-362zM291 581v538l118 116h475l117 -116v-538h-710zM519 1716h252l224 -284h-277l-73 108
l-73 -108h-277zM573 1646l-101 -134h60l71 100h80l72 -100h60l-101 134h-141zM841 1660l244 264h287l-284 -264h-247zM1001 1721h54l139 140h-61z" />
    <glyph glyph-name="uni1EA5" unicode="&#x1ea5;" horiz-adv-x="1253" 
d="M316 0l-206 206v285l206 206h544v39l-61 61h-675v283h813l206 -206v-668l-206 -206h-621zM403 171l-120 118v136l107 106h590v-234l-127 -126h-450zM375 110h505l162 161v545l-155 155h-646v-62h618l121 -119v-199h-613l-145 -143v-185zM454 283h345l61 61v80h-426
l-42 -42v-38zM502 1396h252l224 -284h-277l-73 108l-73 -108h-277zM556 1326l-101 -134h60l71 100h80l72 -100h60l-101 134h-141zM824 1340l244 264h287l-284 -264h-247zM984 1401h54l139 140h-61z" />
    <glyph glyph-name="uni1EA6" unicode="&#x1ea6;" horiz-adv-x="1288" 
d="M115 0v1194l206 206h646l206 -206v-1194h-282v412h-494v-412h-282zM230 120h61v400h710v-400h62v1025l-152 151h-530l-151 -151v-1025zM397 694h494v362l-61 61h-372l-61 -61v-362zM291 581v538l118 116h475l117 -116v-538h-710zM519 1716h252l224 -284h-277l-73 108
l-73 -108h-277zM573 1646l-101 -134h60l71 100h80l72 -100h60l-101 134h-141zM1133 1660h-247l-284 264h287zM973 1721l-132 140h-60l139 -140h53z" />
    <glyph glyph-name="uni1EA7" unicode="&#x1ea7;" horiz-adv-x="1253" 
d="M316 0l-206 206v285l206 206h544v39l-61 61h-675v283h813l206 -206v-668l-206 -206h-621zM403 171l-120 118v136l107 106h590v-234l-127 -126h-450zM375 110h505l162 161v545l-155 155h-646v-62h618l121 -119v-199h-613l-145 -143v-185zM454 283h345l61 61v80h-426
l-42 -42v-38zM502 1396h252l224 -284h-277l-73 108l-73 -108h-277zM556 1326l-101 -134h60l71 100h80l72 -100h60l-101 134h-141zM1116 1340h-247l-284 264h287zM956 1401l-132 140h-60l139 -140h53z" />
    <glyph glyph-name="uni1EA8" unicode="&#x1ea8;" horiz-adv-x="1288" 
d="M115 0v1194l206 206h646l206 -206v-1194h-282v412h-494v-412h-282zM230 120h61v400h710v-400h62v1025l-152 151h-530l-151 -151v-1025zM397 694h494v362l-61 61h-372l-61 -61v-362zM291 581v538l118 116h475l117 -116v-538h-710zM519 1716h252l224 -284h-277l-73 108
l-73 -108h-277zM573 1646l-101 -134h60l71 100h80l72 -100h60l-101 134h-141zM785 1999h315l163 -189l-163 -187h-244v157h134l30 30l-30 32h-205v157zM861 1940v-39h172l82 -91l-82 -89h-100v-39h125l116 128l-116 130h-197z" />
    <glyph glyph-name="uni1EA9" unicode="&#x1ea9;" horiz-adv-x="1253" 
d="M316 0l-206 206v285l206 206h544v39l-61 61h-675v283h813l206 -206v-668l-206 -206h-621zM403 171l-120 118v136l107 106h590v-234l-127 -126h-450zM375 110h505l162 161v545l-155 155h-646v-62h618l121 -119v-199h-613l-145 -143v-185zM454 283h345l61 61v80h-426
l-42 -42v-38zM502 1396h252l224 -284h-277l-73 108l-73 -108h-277zM556 1326l-101 -134h60l71 100h80l72 -100h60l-101 134h-141zM768 1679h315l163 -189l-163 -187h-244v157h134l30 30l-30 32h-205v157zM844 1620v-39h172l82 -91l-82 -89h-100v-39h125l116 128l-116 130
h-197z" />
    <glyph glyph-name="uni1EAA" unicode="&#x1eaa;" horiz-adv-x="1288" 
d="M115 0v1194l206 206h646l206 -206v-1194h-282v412h-494v-412h-282zM230 120h61v400h710v-400h62v1025l-152 151h-530l-151 -151v-1025zM397 694h494v362l-61 61h-372l-61 -61v-362zM291 581v538l118 116h475l117 -116v-538h-710zM519 1716h252l224 -284h-277l-73 108
l-73 -108h-277zM573 1646l-101 -134h60l71 100h80l72 -100h60l-101 134h-141zM366 1748v136l112 112h178l56 -56h18v56h192v-136l-112 -112h-178l-56 56h-18v-56h-192zM444 1811h46v20l48 52h65l68 -65h99l79 84v33h-46v-20l-48 -52h-72l-66 65h-94l-79 -84v-33z" />
    <glyph glyph-name="uni1EAB" unicode="&#x1eab;" horiz-adv-x="1253" 
d="M316 0l-206 206v285l206 206h544v39l-61 61h-675v283h813l206 -206v-668l-206 -206h-621zM403 171l-120 118v136l107 106h590v-234l-127 -126h-450zM375 110h505l162 161v545l-155 155h-646v-62h618l121 -119v-199h-613l-145 -143v-185zM454 283h345l61 61v80h-426
l-42 -42v-38zM502 1396h252l224 -284h-277l-73 108l-73 -108h-277zM556 1326l-101 -134h60l71 100h80l72 -100h60l-101 134h-141zM349 1428v136l112 112h178l56 -56h18v56h192v-136l-112 -112h-178l-56 56h-18v-56h-192zM427 1491h46v20l48 52h65l68 -65h99l79 84v33h-46
v-20l-48 -52h-72l-66 65h-94l-79 -84v-33z" />
    <glyph glyph-name="uni1EAC" unicode="&#x1eac;" horiz-adv-x="1288" 
d="M115 0v1194l206 206h646l206 -206v-1194h-282v412h-494v-412h-282zM230 120h61v400h710v-400h62v1025l-152 151h-530l-151 -151v-1025zM397 694h494v362l-61 61h-372l-61 -61v-362zM291 581v538l118 116h475l117 -116v-538h-710zM539 -271v210h212v-210h-212zM622 -191
h43v49h-43v-49zM519 1716h252l224 -284h-277l-73 108l-73 -108h-277zM573 1646l-101 -134h60l71 100h80l72 -100h60l-101 134h-141z" />
    <glyph glyph-name="uni1EAD" unicode="&#x1ead;" horiz-adv-x="1253" 
d="M316 0l-206 206v285l206 206h544v39l-61 61h-675v283h813l206 -206v-668l-206 -206h-621zM403 171l-120 118v136l107 106h590v-234l-127 -126h-450zM375 110h505l162 161v545l-155 155h-646v-62h618l121 -119v-199h-613l-145 -143v-185zM454 283h345l61 61v80h-426
l-42 -42v-38zM522 -271v210h212v-210h-212zM605 -191h43v49h-43v-49zM502 1396h252l224 -284h-277l-73 108l-73 -108h-277zM556 1326l-101 -134h60l71 100h80l72 -100h60l-101 134h-141z" />
    <glyph glyph-name="uni1EAE" unicode="&#x1eae;" horiz-adv-x="1288" 
d="M115 0v1194l206 206h646l206 -206v-1194h-282v412h-494v-412h-282zM230 120h61v400h710v-400h62v1025l-152 151h-530l-151 -151v-1025zM397 694h494v362l-61 61h-372l-61 -61v-362zM291 581v538l118 116h475l117 -116v-538h-710zM526 1432l-112 112v156h192v-76h78v76
h192v-156l-112 -112h-238zM571 1502h149l80 84v41h-46v-28l-48 -52h-120l-48 52v28h-46v-41zM522 1732l244 264h287l-284 -264h-247zM682 1793h54l139 140h-61z" />
    <glyph glyph-name="uni1EAF" unicode="&#x1eaf;" horiz-adv-x="1253" 
d="M316 0l-206 206v285l206 206h544v39l-61 61h-675v283h813l206 -206v-668l-206 -206h-621zM403 171l-120 118v136l107 106h590v-234l-127 -126h-450zM375 110h505l162 161v545l-155 155h-646v-62h618l121 -119v-199h-613l-145 -143v-185zM454 283h345l61 61v80h-426
l-42 -42v-38zM509 1112l-112 112v156h192v-76h78v76h192v-156l-112 -112h-238zM554 1182h149l80 84v41h-46v-28l-48 -52h-120l-48 52v28h-46v-41zM505 1412l244 264h287l-284 -264h-247zM665 1473h54l139 140h-61z" />
    <glyph glyph-name="uni1EB0" unicode="&#x1eb0;" horiz-adv-x="1288" 
d="M115 0v1194l206 206h646l206 -206v-1194h-282v412h-494v-412h-282zM230 120h61v400h710v-400h62v1025l-152 151h-530l-151 -151v-1025zM397 694h494v362l-61 61h-372l-61 -61v-362zM291 581v538l118 116h475l117 -116v-538h-710zM526 1432l-112 112v156h192v-76h78v76
h192v-156l-112 -112h-238zM571 1502h149l80 84v41h-46v-28l-48 -52h-120l-48 52v28h-46v-41zM790 1732h-247l-284 264h287zM630 1793l-132 140h-60l139 -140h53z" />
    <glyph glyph-name="uni1EB1" unicode="&#x1eb1;" horiz-adv-x="1253" 
d="M316 0l-206 206v285l206 206h544v39l-61 61h-675v283h813l206 -206v-668l-206 -206h-621zM403 171l-120 118v136l107 106h590v-234l-127 -126h-450zM375 110h505l162 161v545l-155 155h-646v-62h618l121 -119v-199h-613l-145 -143v-185zM454 283h345l61 61v80h-426
l-42 -42v-38zM509 1112l-112 112v156h192v-76h78v76h192v-156l-112 -112h-238zM554 1182h149l80 84v41h-46v-28l-48 -52h-120l-48 52v28h-46v-41zM773 1412h-247l-284 264h287zM613 1473l-132 140h-60l139 -140h53z" />
    <glyph glyph-name="uni1EB2" unicode="&#x1eb2;" horiz-adv-x="1288" 
d="M115 0v1194l206 206h646l206 -206v-1194h-282v412h-494v-412h-282zM230 120h61v400h710v-400h62v1025l-152 151h-530l-151 -151v-1025zM397 694h494v362l-61 61h-372l-61 -61v-362zM291 581v538l118 116h475l117 -116v-538h-710zM526 1432l-112 112v156h192v-76h78v76
h192v-156l-112 -112h-238zM571 1502h149l80 84v41h-46v-28l-48 -52h-120l-48 52v28h-46v-41zM406 2125h315l163 -189l-163 -187h-244v157h134l30 30l-30 32h-205v157zM482 2066v-39h172l82 -91l-82 -89h-100v-39h125l116 128l-116 130h-197z" />
    <glyph glyph-name="uni1EB3" unicode="&#x1eb3;" horiz-adv-x="1253" 
d="M316 0l-206 206v285l206 206h544v39l-61 61h-675v283h813l206 -206v-668l-206 -206h-621zM403 171l-120 118v136l107 106h590v-234l-127 -126h-450zM375 110h505l162 161v545l-155 155h-646v-62h618l121 -119v-199h-613l-145 -143v-185zM454 283h345l61 61v80h-426
l-42 -42v-38zM509 1112l-112 112v156h192v-76h78v76h192v-156l-112 -112h-238zM554 1182h149l80 84v41h-46v-28l-48 -52h-120l-48 52v28h-46v-41zM389 1782h315l163 -189l-163 -187h-244v157h134l30 30l-30 32h-205v157zM465 1723v-39h172l82 -91l-82 -89h-100v-39h125
l116 128l-116 130h-197z" />
    <glyph glyph-name="uni1EB4" unicode="&#x1eb4;" horiz-adv-x="1288" 
d="M115 0v1194l206 206h646l206 -206v-1194h-282v412h-494v-412h-282zM230 120h61v400h710v-400h62v1025l-152 151h-530l-151 -151v-1025zM397 694h494v362l-61 61h-372l-61 -61v-362zM291 581v538l118 116h475l117 -116v-538h-710zM526 1432l-112 112v156h192v-76h78v76
h192v-156l-112 -112h-238zM571 1502h149l80 84v41h-46v-28l-48 -52h-120l-48 52v28h-46v-41zM366 1732v136l112 112h178l56 -56h18v56h192v-136l-112 -112h-178l-56 56h-18v-56h-192zM444 1795h46v20l48 52h65l68 -65h99l79 84v33h-46v-20l-48 -52h-72l-66 65h-94l-79 -84
v-33z" />
    <glyph glyph-name="uni1EB5" unicode="&#x1eb5;" horiz-adv-x="1253" 
d="M316 0l-206 206v285l206 206h544v39l-61 61h-675v283h813l206 -206v-668l-206 -206h-621zM403 171l-120 118v136l107 106h590v-234l-127 -126h-450zM375 110h505l162 161v545l-155 155h-646v-62h618l121 -119v-199h-613l-145 -143v-185zM454 283h345l61 61v80h-426
l-42 -42v-38zM509 1112l-112 112v156h192v-76h78v76h192v-156l-112 -112h-238zM554 1182h149l80 84v41h-46v-28l-48 -52h-120l-48 52v28h-46v-41zM349 1412v136l112 112h178l56 -56h18v56h192v-136l-112 -112h-178l-56 56h-18v-56h-192zM427 1475h46v20l48 52h65l68 -65h99
l79 84v33h-46v-20l-48 -52h-72l-66 65h-94l-79 -84v-33z" />
    <glyph glyph-name="uni1EB6" unicode="&#x1eb6;" horiz-adv-x="1288" 
d="M115 0v1194l206 206h646l206 -206v-1194h-282v412h-494v-412h-282zM230 120h61v400h710v-400h62v1025l-152 151h-530l-151 -151v-1025zM397 694h494v362l-61 61h-372l-61 -61v-362zM291 581v538l118 116h475l117 -116v-538h-710zM539 -271v210h212v-210h-212zM622 -191
h43v49h-43v-49zM526 1432l-112 112v156h192v-76h78v76h192v-156l-112 -112h-238zM571 1502h149l80 84v41h-46v-28l-48 -52h-120l-48 52v28h-46v-41z" />
    <glyph glyph-name="uni1EB7" unicode="&#x1eb7;" horiz-adv-x="1253" 
d="M316 0l-206 206v285l206 206h544v39l-61 61h-675v283h813l206 -206v-668l-206 -206h-621zM403 171l-120 118v136l107 106h590v-234l-127 -126h-450zM375 110h505l162 161v545l-155 155h-646v-62h618l121 -119v-199h-613l-145 -143v-185zM454 283h345l61 61v80h-426
l-42 -42v-38zM522 -271v210h212v-210h-212zM605 -191h43v49h-43v-49zM509 1112l-112 112v156h192v-76h78v76h192v-156l-112 -112h-238zM554 1182h149l80 84v41h-46v-28l-48 -52h-120l-48 52v28h-46v-41z" />
    <glyph glyph-name="uni1EB8" unicode="&#x1eb8;" horiz-adv-x="1140" 
d="M115 0v1400h910v-283h-627v-269h558v-283h-558v-282h627v-283h-910zM229 115h700v61h-639v500h569v62h-569v493h639v61h-700v-1177zM456 -271v210h212v-210h-212zM539 -191h43v49h-43v-49z" />
    <glyph glyph-name="uni1EB9" unicode="&#x1eb9;" horiz-adv-x="1253" 
d="M937 1080l206 -206v-285l-206 -206h-544v-39l61 -61h675v-283h-813l-206 206v668l206 206h621zM850 909l120 -118v-136l-107 -106h-590v234l127 126h450zM878 970h-505l-162 -161v-545l155 -155h646v62h-618l-121 119v199h613l145 143v185zM799 797h-345l-61 -61v-80h426
l42 42v38zM524 -271v210h212v-210h-212zM607 -191h43v49h-43v-49z" />
    <glyph glyph-name="uni1EBA" unicode="&#x1eba;" horiz-adv-x="1140" 
d="M115 0v1400h910v-283h-627v-269h558v-283h-558v-282h627v-283h-910zM229 115h700v61h-639v500h569v62h-569v493h639v61h-700v-1177zM323 1802h315l163 -189l-163 -187h-244v157h134l30 30l-30 32h-205v157zM399 1743v-39h172l82 -91l-82 -89h-100v-39h125l116 128
l-116 130h-197z" />
    <glyph glyph-name="uni1EBB" unicode="&#x1ebb;" horiz-adv-x="1253" 
d="M937 1080l206 -206v-285l-206 -206h-544v-39l61 -61h675v-283h-813l-206 206v668l206 206h621zM850 909l120 -118v-136l-107 -106h-590v234l127 126h450zM878 970h-505l-162 -161v-545l155 -155h646v62h-618l-121 119v199h613l145 143v185zM799 797h-345l-61 -61v-80h426
l42 42v38zM390 1482h315l163 -189l-163 -187h-244v157h134l30 30l-30 32h-205v157zM466 1423v-39h172l82 -91l-82 -89h-100v-39h125l116 128l-116 130h-197z" />
    <glyph glyph-name="uni1EBC" unicode="&#x1ebc;" horiz-adv-x="1140" 
d="M115 0v1400h910v-283h-627v-269h558v-283h-558v-282h627v-283h-910zM229 115h700v61h-639v500h569v62h-569v493h639v61h-700v-1177zM283 1432v136l112 112h178l56 -56h18v56h192v-136l-112 -112h-178l-56 56h-18v-56h-192zM361 1495h46v20l48 52h65l68 -65h99l79 84v33
h-46v-20l-48 -52h-72l-66 65h-94l-79 -84v-33z" />
    <glyph glyph-name="uni1EBD" unicode="&#x1ebd;" horiz-adv-x="1253" 
d="M937 1080l206 -206v-285l-206 -206h-544v-39l61 -61h675v-283h-813l-206 206v668l206 206h621zM850 909l120 -118v-136l-107 -106h-590v234l127 126h450zM878 970h-505l-162 -161v-545l155 -155h646v62h-618l-121 119v199h613l145 143v185zM799 797h-345l-61 -61v-80h426
l42 42v38zM350 1112v136l112 112h178l56 -56h18v56h192v-136l-112 -112h-178l-56 56h-18v-56h-192zM428 1175h46v20l48 52h65l68 -65h99l79 84v33h-46v-20l-48 -52h-72l-66 65h-94l-79 -84v-33z" />
    <glyph glyph-name="uni1EBE" unicode="&#x1ebe;" horiz-adv-x="1140" 
d="M115 0v1400h910v-283h-627v-269h558v-283h-558v-282h627v-283h-910zM229 115h700v61h-639v500h569v62h-569v493h639v61h-700v-1177zM436 1716h252l224 -284h-277l-73 108l-73 -108h-277zM490 1646l-101 -134h60l71 100h80l72 -100h60l-101 134h-141zM758 1660l244 264
h287l-284 -264h-247zM918 1721h54l139 140h-61z" />
    <glyph glyph-name="uni1EBF" unicode="&#x1ebf;" horiz-adv-x="1253" 
d="M937 1080l206 -206v-285l-206 -206h-544v-39l61 -61h675v-283h-813l-206 206v668l206 206h621zM850 909l120 -118v-136l-107 -106h-590v234l127 126h450zM878 970h-505l-162 -161v-545l155 -155h646v62h-618l-121 119v199h613l145 143v185zM799 797h-345l-61 -61v-80h426
l42 42v38zM503 1396h252l224 -284h-277l-73 108l-73 -108h-277zM557 1326l-101 -134h60l71 100h80l72 -100h60l-101 134h-141zM825 1340l244 264h287l-284 -264h-247zM985 1401h54l139 140h-61z" />
    <glyph glyph-name="uni1EC0" unicode="&#x1ec0;" horiz-adv-x="1140" 
d="M115 0v1400h910v-283h-627v-269h558v-283h-558v-282h627v-283h-910zM229 115h700v61h-639v500h569v62h-569v493h639v61h-700v-1177zM436 1716h252l224 -284h-277l-73 108l-73 -108h-277zM490 1646l-101 -134h60l71 100h80l72 -100h60l-101 134h-141zM1050 1660h-247
l-284 264h287zM890 1721l-132 140h-60l139 -140h53z" />
    <glyph glyph-name="uni1EC1" unicode="&#x1ec1;" horiz-adv-x="1253" 
d="M937 1080l206 -206v-285l-206 -206h-544v-39l61 -61h675v-283h-813l-206 206v668l206 206h621zM850 909l120 -118v-136l-107 -106h-590v234l127 126h450zM878 970h-505l-162 -161v-545l155 -155h646v62h-618l-121 119v199h613l145 143v185zM799 797h-345l-61 -61v-80h426
l42 42v38zM503 1396h252l224 -284h-277l-73 108l-73 -108h-277zM557 1326l-101 -134h60l71 100h80l72 -100h60l-101 134h-141zM1117 1340h-247l-284 264h287zM957 1401l-132 140h-60l139 -140h53z" />
    <glyph glyph-name="uni1EC2" unicode="&#x1ec2;" horiz-adv-x="1140" 
d="M115 0v1400h910v-283h-627v-269h558v-283h-558v-282h627v-283h-910zM229 115h700v61h-639v500h569v62h-569v493h639v61h-700v-1177zM436 1716h252l224 -284h-277l-73 108l-73 -108h-277zM490 1646l-101 -134h60l71 100h80l72 -100h60l-101 134h-141zM702 1999h315
l163 -189l-163 -187h-244v157h134l30 30l-30 32h-205v157zM778 1940v-39h172l82 -91l-82 -89h-100v-39h125l116 128l-116 130h-197z" />
    <glyph glyph-name="uni1EC3" unicode="&#x1ec3;" horiz-adv-x="1253" 
d="M937 1080l206 -206v-285l-206 -206h-544v-39l61 -61h675v-283h-813l-206 206v668l206 206h621zM850 909l120 -118v-136l-107 -106h-590v234l127 126h450zM878 970h-505l-162 -161v-545l155 -155h646v62h-618l-121 119v199h613l145 143v185zM799 797h-345l-61 -61v-80h426
l42 42v38zM503 1396h252l224 -284h-277l-73 108l-73 -108h-277zM557 1326l-101 -134h60l71 100h80l72 -100h60l-101 134h-141zM769 1679h315l163 -189l-163 -187h-244v157h134l30 30l-30 32h-205v157zM845 1620v-39h172l82 -91l-82 -89h-100v-39h125l116 128l-116 130h-197z
" />
    <glyph glyph-name="uni1EC4" unicode="&#x1ec4;" horiz-adv-x="1140" 
d="M115 0v1400h910v-283h-627v-269h558v-283h-558v-282h627v-283h-910zM229 115h700v61h-639v500h569v62h-569v493h639v61h-700v-1177zM436 1716h252l224 -284h-277l-73 108l-73 -108h-277zM490 1646l-101 -134h60l71 100h80l72 -100h60l-101 134h-141zM283 1748v136
l112 112h178l56 -56h18v56h192v-136l-112 -112h-178l-56 56h-18v-56h-192zM361 1811h46v20l48 52h65l68 -65h99l79 84v33h-46v-20l-48 -52h-72l-66 65h-94l-79 -84v-33z" />
    <glyph glyph-name="uni1EC5" unicode="&#x1ec5;" horiz-adv-x="1253" 
d="M937 1080l206 -206v-285l-206 -206h-544v-39l61 -61h675v-283h-813l-206 206v668l206 206h621zM850 909l120 -118v-136l-107 -106h-590v234l127 126h450zM878 970h-505l-162 -161v-545l155 -155h646v62h-618l-121 119v199h613l145 143v185zM799 797h-345l-61 -61v-80h426
l42 42v38zM503 1396h252l224 -284h-277l-73 108l-73 -108h-277zM557 1326l-101 -134h60l71 100h80l72 -100h60l-101 134h-141zM350 1428v136l112 112h178l56 -56h18v56h192v-136l-112 -112h-178l-56 56h-18v-56h-192zM428 1491h46v20l48 52h65l68 -65h99l79 84v33h-46v-20
l-48 -52h-72l-66 65h-94l-79 -84v-33z" />
    <glyph glyph-name="uni1EC6" unicode="&#x1ec6;" horiz-adv-x="1140" 
d="M115 0v1400h910v-283h-627v-269h558v-283h-558v-282h627v-283h-910zM229 115h700v61h-639v500h569v62h-569v493h639v61h-700v-1177zM456 -271v210h212v-210h-212zM539 -191h43v49h-43v-49zM436 1716h252l224 -284h-277l-73 108l-73 -108h-277zM490 1646l-101 -134h60
l71 100h80l72 -100h60l-101 134h-141z" />
    <glyph glyph-name="uni1EC7" unicode="&#x1ec7;" horiz-adv-x="1253" 
d="M937 1080l206 -206v-285l-206 -206h-544v-39l61 -61h675v-283h-813l-206 206v668l206 206h621zM850 909l120 -118v-136l-107 -106h-590v234l127 126h450zM878 970h-505l-162 -161v-545l155 -155h646v62h-618l-121 119v199h613l145 143v185zM799 797h-345l-61 -61v-80h426
l42 42v38zM524 -271v210h212v-210h-212zM607 -191h43v49h-43v-49zM503 1396h252l224 -284h-277l-73 108l-73 -108h-277zM557 1326l-101 -134h60l71 100h80l72 -100h60l-101 134h-141z" />
    <glyph glyph-name="uni1EC8" unicode="&#x1ec8;" horiz-adv-x="1059" 
d="M115 0v283h274v834h-274v283h829v-283h-273v-834h273v-283h-829zM225 110h610v61h-283v1060h283v61h-610v-61h266v-1060h-266v-61zM291 1802h315l163 -189l-163 -187h-244v157h134l30 30l-30 32h-205v157zM367 1743v-39h172l82 -91l-82 -89h-100v-39h125l116 128
l-116 130h-197z" />
    <glyph glyph-name="uni1EC9" unicode="&#x1ec9;" horiz-adv-x="990" 
d="M114 0v283h240v514h-240v283h522v-797h240v-283h-762zM215 110h561v61h-259v801h-302v-61h241v-740h-241v-61zM256 1482h315l163 -189l-163 -187h-244v157h134l30 30l-30 32h-205v157zM332 1423v-39h172l82 -91l-82 -89h-100v-39h125l116 128l-116 130h-197z" />
    <glyph glyph-name="uni1ECA" unicode="&#x1eca;" horiz-adv-x="1059" 
d="M115 0v283h274v834h-274v283h829v-283h-273v-834h273v-283h-829zM225 110h610v61h-283v1060h283v61h-610v-61h266v-1060h-266v-61zM424 -271v210h212v-210h-212zM507 -191h43v49h-43v-49z" />
    <glyph glyph-name="uni1ECB" unicode="&#x1ecb;" horiz-adv-x="971" 
d="M337 1237v263h322v-263h-322zM464 1337h68v75h-68v-75zM110 0v283h267v514h-267v283h549v-797h267v-283h-816zM220 110h597v61h-277v801h-320v-61h259v-740h-259v-61zM412 -271v210h212v-210h-212zM495 -191h43v49h-43v-49z" />
    <glyph glyph-name="uni1ECC" unicode="&#x1ecc;" horiz-adv-x="1306" 
d="M321 0l-206 206v988l206 206h664l206 -206v-988l-206 -206h-664zM459 283h388l61 61v712l-61 61h-388l-61 -61v-712zM380 115h548l152 151v875l-152 151h-548l-152 -151v-875zM407 176l-118 116v823l118 116h494l117 -116v-823l-117 -116h-494zM554 -271v210h212v-210
h-212zM637 -191h43v49h-43v-49z" />
    <glyph glyph-name="uni1ECD" unicode="&#x1ecd;" horiz-adv-x="1257" 
d="M316 0l-206 206v668l206 206h625l206 -206v-668l-206 -206h-625zM385 110h498l153 153v554l-153 154h-505l-155 -155v-545zM412 171l-128 126v493l122 119h449l119 -118v-502l-119 -118h-443zM454 283h349l61 61v392l-61 61h-349l-61 -61v-392zM514 -271v210h212v-210
h-212zM597 -191h43v49h-43v-49z" />
    <glyph glyph-name="uni1ECE" unicode="&#x1ece;" horiz-adv-x="1306" 
d="M321 0l-206 206v988l206 206h664l206 -206v-988l-206 -206h-664zM459 283h388l61 61v712l-61 61h-388l-61 -61v-712zM380 115h548l152 151v875l-152 151h-548l-152 -151v-875zM407 176l-118 116v823l118 116h494l117 -116v-823l-117 -116h-494zM414 1802h315l163 -189
l-163 -187h-244v157h134l30 30l-30 32h-205v157zM490 1743v-39h172l82 -91l-82 -89h-100v-39h125l116 128l-116 130h-197z" />
    <glyph glyph-name="uni1ECF" unicode="&#x1ecf;" horiz-adv-x="1257" 
d="M316 0l-206 206v668l206 206h625l206 -206v-668l-206 -206h-625zM385 110h498l153 153v554l-153 154h-505l-155 -155v-545zM412 171l-128 126v493l122 119h449l119 -118v-502l-119 -118h-443zM454 283h349l61 61v392l-61 61h-349l-61 -61v-392zM389 1482h315l163 -189
l-163 -187h-244v157h134l30 30l-30 32h-205v157zM465 1423v-39h172l82 -91l-82 -89h-100v-39h125l116 128l-116 130h-197z" />
    <glyph glyph-name="uni1ED0" unicode="&#x1ed0;" horiz-adv-x="1306" 
d="M321 0l-206 206v988l206 206h664l206 -206v-988l-206 -206h-664zM459 283h388l61 61v712l-61 61h-388l-61 -61v-712zM380 115h548l152 151v875l-152 151h-548l-152 -151v-875zM407 176l-118 116v823l118 116h494l117 -116v-823l-117 -116h-494zM527 1716h252l224 -284
h-277l-73 108l-73 -108h-277zM581 1646l-101 -134h60l71 100h80l72 -100h60l-101 134h-141zM849 1660l244 264h287l-284 -264h-247zM1009 1721h54l139 140h-61z" />
    <glyph glyph-name="uni1ED1" unicode="&#x1ed1;" horiz-adv-x="1257" 
d="M316 0l-206 206v668l206 206h625l206 -206v-668l-206 -206h-625zM385 110h498l153 153v554l-153 154h-505l-155 -155v-545zM412 171l-128 126v493l122 119h449l119 -118v-502l-119 -118h-443zM454 283h349l61 61v392l-61 61h-349l-61 -61v-392zM502 1396h252l224 -284
h-277l-73 108l-73 -108h-277zM556 1326l-101 -134h60l71 100h80l72 -100h60l-101 134h-141zM824 1340l244 264h287l-284 -264h-247zM984 1401h54l139 140h-61z" />
    <glyph glyph-name="uni1ED2" unicode="&#x1ed2;" horiz-adv-x="1306" 
d="M321 0l-206 206v988l206 206h664l206 -206v-988l-206 -206h-664zM459 283h388l61 61v712l-61 61h-388l-61 -61v-712zM380 115h548l152 151v875l-152 151h-548l-152 -151v-875zM407 176l-118 116v823l118 116h494l117 -116v-823l-117 -116h-494zM527 1716h252l224 -284
h-277l-73 108l-73 -108h-277zM581 1646l-101 -134h60l71 100h80l72 -100h60l-101 134h-141zM1141 1660h-247l-284 264h287zM981 1721l-132 140h-60l139 -140h53z" />
    <glyph glyph-name="uni1ED3" unicode="&#x1ed3;" horiz-adv-x="1257" 
d="M316 0l-206 206v668l206 206h625l206 -206v-668l-206 -206h-625zM385 110h498l153 153v554l-153 154h-505l-155 -155v-545zM412 171l-128 126v493l122 119h449l119 -118v-502l-119 -118h-443zM454 283h349l61 61v392l-61 61h-349l-61 -61v-392zM502 1396h252l224 -284
h-277l-73 108l-73 -108h-277zM556 1326l-101 -134h60l71 100h80l72 -100h60l-101 134h-141zM1116 1340h-247l-284 264h287zM956 1401l-132 140h-60l139 -140h53z" />
    <glyph glyph-name="uni1ED4" unicode="&#x1ed4;" horiz-adv-x="1306" 
d="M321 0l-206 206v988l206 206h664l206 -206v-988l-206 -206h-664zM459 283h388l61 61v712l-61 61h-388l-61 -61v-712zM380 115h548l152 151v875l-152 151h-548l-152 -151v-875zM407 176l-118 116v823l118 116h494l117 -116v-823l-117 -116h-494zM527 1716h252l224 -284
h-277l-73 108l-73 -108h-277zM581 1646l-101 -134h60l71 100h80l72 -100h60l-101 134h-141zM793 1999h315l163 -189l-163 -187h-244v157h134l30 30l-30 32h-205v157zM869 1940v-39h172l82 -91l-82 -89h-100v-39h125l116 128l-116 130h-197z" />
    <glyph glyph-name="uni1ED5" unicode="&#x1ed5;" horiz-adv-x="1257" 
d="M316 0l-206 206v668l206 206h625l206 -206v-668l-206 -206h-625zM385 110h498l153 153v554l-153 154h-505l-155 -155v-545zM412 171l-128 126v493l122 119h449l119 -118v-502l-119 -118h-443zM454 283h349l61 61v392l-61 61h-349l-61 -61v-392zM502 1396h252l224 -284
h-277l-73 108l-73 -108h-277zM556 1326l-101 -134h60l71 100h80l72 -100h60l-101 134h-141zM768 1679h315l163 -189l-163 -187h-244v157h134l30 30l-30 32h-205v157zM844 1620v-39h172l82 -91l-82 -89h-100v-39h125l116 128l-116 130h-197z" />
    <glyph glyph-name="uni1ED6" unicode="&#x1ed6;" horiz-adv-x="1306" 
d="M321 0l-206 206v988l206 206h664l206 -206v-988l-206 -206h-664zM459 283h388l61 61v712l-61 61h-388l-61 -61v-712zM380 115h548l152 151v875l-152 151h-548l-152 -151v-875zM407 176l-118 116v823l118 116h494l117 -116v-823l-117 -116h-494zM527 1716h252l224 -284
h-277l-73 108l-73 -108h-277zM581 1646l-101 -134h60l71 100h80l72 -100h60l-101 134h-141zM374 1748v136l112 112h178l56 -56h18v56h192v-136l-112 -112h-178l-56 56h-18v-56h-192zM452 1811h46v20l48 52h65l68 -65h99l79 84v33h-46v-20l-48 -52h-72l-66 65h-94l-79 -84
v-33z" />
    <glyph glyph-name="uni1ED7" unicode="&#x1ed7;" horiz-adv-x="1257" 
d="M316 0l-206 206v668l206 206h625l206 -206v-668l-206 -206h-625zM385 110h498l153 153v554l-153 154h-505l-155 -155v-545zM412 171l-128 126v493l122 119h449l119 -118v-502l-119 -118h-443zM454 283h349l61 61v392l-61 61h-349l-61 -61v-392zM502 1396h252l224 -284
h-277l-73 108l-73 -108h-277zM556 1326l-101 -134h60l71 100h80l72 -100h60l-101 134h-141zM349 1428v136l112 112h178l56 -56h18v56h192v-136l-112 -112h-178l-56 56h-18v-56h-192zM427 1491h46v20l48 52h65l68 -65h99l79 84v33h-46v-20l-48 -52h-72l-66 65h-94l-79 -84
v-33z" />
    <glyph glyph-name="uni1ED8" unicode="&#x1ed8;" horiz-adv-x="1306" 
d="M321 0l-206 206v988l206 206h664l206 -206v-988l-206 -206h-664zM459 283h388l61 61v712l-61 61h-388l-61 -61v-712zM380 115h548l152 151v875l-152 151h-548l-152 -151v-875zM407 176l-118 116v823l118 116h494l117 -116v-823l-117 -116h-494zM554 -271v210h212v-210
h-212zM637 -191h43v49h-43v-49zM527 1716h252l224 -284h-277l-73 108l-73 -108h-277zM581 1646l-101 -134h60l71 100h80l72 -100h60l-101 134h-141z" />
    <glyph glyph-name="uni1ED9" unicode="&#x1ed9;" horiz-adv-x="1257" 
d="M316 0l-206 206v668l206 206h625l206 -206v-668l-206 -206h-625zM385 110h498l153 153v554l-153 154h-505l-155 -155v-545zM412 171l-128 126v493l122 119h449l119 -118v-502l-119 -118h-443zM454 283h349l61 61v392l-61 61h-349l-61 -61v-392zM514 -271v210h212v-210
h-212zM597 -191h43v49h-43v-49zM502 1396h252l224 -284h-277l-73 108l-73 -108h-277zM556 1326l-101 -134h60l71 100h80l72 -100h60l-101 134h-141z" />
    </font>
</defs>
</svg>
