<svg width="285" height="185" viewBox="0 0 285 185" fill="none" xmlns="http://www.w3.org/2000/svg">
<path d="M7.71429 6C7.71429 7.41629 6.55915 8.57143 5.14286 8.57143C3.72656 8.57143 2.57143 7.41629 2.57143 6C2.57143 4.5837 3.72656 3.42857 5.14286 3.42857C6.55915 3.42857 7.71429 4.5837 7.71429 6ZM10.2857 6C10.2857 3.15737 7.98549 0.857142 5.14286 0.857142C2.30022 0.857142 0 3.15737 0 6C0 6.61272 0.0703125 7.24554 0.331473 7.79799L3.99777 15.5725C4.19866 16.0145 4.66071 16.2857 5.14286 16.2857C5.625 16.2857 6.08705 16.0145 6.29799 15.5725L9.95424 7.79799C10.2154 7.24554 10.2857 6.61272 10.2857 6ZM14.1429 68.0268C14.1429 67.9565 14.1429 67.8862 14.1127 67.8158C14.0424 67.6049 13.5502 67.3839 13.3493 67.2835C12.7768 66.9621 12.1942 66.6507 11.6317 66.3192C11.3705 66.1585 11.0491 65.8571 10.7377 65.8571C10.125 65.8571 9.23103 67.6752 8.68862 67.6752C8.41741 67.6752 8.06585 67.4241 7.82478 67.2835C5.99665 66.269 4.73103 65.0033 3.71652 63.1752C3.57589 62.9342 3.32478 62.5826 3.32478 62.3114C3.32478 61.769 5.14286 60.875 5.14286 60.2623C5.14286 59.9509 4.84152 59.6295 4.6808 59.3683C4.34933 58.8058 4.03795 58.2232 3.71652 57.6507C3.61607 57.4498 3.39509 56.9576 3.18415 56.8873C3.11384 56.8571 3.04353 56.8571 2.97321 56.8571C2.61161 56.8571 1.90848 57.0179 1.57701 57.1685C1.08482 57.3795 0.763393 57.942 0.512277 58.394C0.190848 58.9866 0 59.5893 0 60.2623C0 61.1964 0.381696 62.0402 0.69308 62.894C0.914063 63.5067 1.18527 64.0993 1.52679 64.6518C2.58147 66.3594 4.64062 68.4185 6.34821 69.4732C6.90067 69.8147 7.4933 70.0859 8.10603 70.3069C8.95982 70.6183 9.80357 71 10.7377 71C11.4107 71 12.0134 70.8092 12.606 70.4877C13.058 70.2366 13.6205 69.9152 13.8315 69.423C13.9821 69.0915 14.1429 68.3884 14.1429 68.0268ZM10.2757 121.214L9.32143 123.143H6.10714L5.1529 121.214H1.97879C1.99888 121.164 2.00893 121.104 2.02902 121.054L4.15848 116.071H11.2701L13.3996 121.054C13.4196 121.104 13.4297 121.164 13.4498 121.214H10.2757ZM15.4286 121.516C15.4286 121.154 15.3181 120.622 15.1775 120.28L12.7868 114.735C12.6462 114.404 12.2444 114.143 11.8929 114.143H3.53571C3.18415 114.143 2.78237 114.404 2.64174 114.735L0.251116 120.28C0.110491 120.622 0 121.154 0 121.516V126.357C0 126.709 0.291295 127 0.642857 127H14.7857C15.1373 127 15.4286 126.709 15.4286 126.357V121.516ZM9 173.036C9 172.855 8.85938 172.714 8.67857 172.714H8.03571C7.85491 172.714 7.71429 172.855 7.71429 173.036V176.571H5.46429C5.28348 176.571 5.14286 176.712 5.14286 176.893V177.536C5.14286 177.717 5.28348 177.857 5.46429 177.857H8.67857C8.85938 177.857 9 177.717 9 177.536V173.036ZM13.1786 176.571C13.1786 179.585 10.7277 182.036 7.71429 182.036C4.70089 182.036 2.25 179.585 2.25 176.571C2.25 173.558 4.70089 171.107 7.71429 171.107C10.7277 171.107 13.1786 173.558 13.1786 176.571ZM15.4286 176.571C15.4286 172.312 11.9732 168.857 7.71429 168.857C3.45536 168.857 0 172.312 0 176.571C0 180.83 3.45536 184.286 7.71429 184.286C11.9732 184.286 15.4286 180.83 15.4286 176.571Z" fill="#7E5AFF"/>
<path d="M24.5651 2.292C26.2331 2.292 27.5111 2.844 28.3991 3.948C29.2871 5.04 29.7311 6.588 29.7311 8.592C29.7311 9.996 29.4911 11.184 29.0111 12.156C28.5311 13.128 27.8591 13.866 26.9951 14.37C26.1311 14.862 25.1231 15.108 23.9711 15.108C22.7231 15.108 21.7271 14.88 20.9831 14.424L21.5051 13.38C22.1051 13.776 22.9211 13.974 23.9531 13.974C25.3451 13.974 26.4371 13.536 27.2291 12.66C28.0211 11.772 28.4171 10.488 28.4171 8.808C28.4171 8.496 28.3991 8.154 28.3631 7.782C28.0511 8.466 27.5531 9 26.8691 9.384C26.1851 9.756 25.3991 9.942 24.5111 9.942C23.6831 9.942 22.9451 9.786 22.2971 9.474C21.6611 9.162 21.1631 8.724 20.8031 8.16C20.4431 7.584 20.2631 6.918 20.2631 6.162C20.2631 5.394 20.4491 4.716 20.8211 4.128C21.1931 3.54 21.7031 3.09 22.3511 2.778C23.0111 2.454 23.7491 2.292 24.5651 2.292ZM24.7091 8.844C25.3451 8.844 25.9031 8.724 26.3831 8.484C26.8751 8.244 27.2591 7.914 27.5351 7.494C27.8111 7.074 27.9491 6.606 27.9491 6.09C27.9491 5.61 27.8171 5.166 27.5531 4.758C27.3011 4.35 26.9231 4.02 26.4191 3.768C25.9151 3.516 25.3151 3.39 24.6191 3.39C23.7071 3.39 22.9631 3.642 22.3871 4.146C21.8231 4.638 21.5411 5.298 21.5411 6.126C21.5411 6.954 21.8231 7.614 22.3871 8.106C22.9631 8.598 23.7371 8.844 24.7091 8.844ZM35.0667 2.4V15H33.7707V3.552H30.8007V2.4H35.0667ZM54.4355 2.4V15H53.3375L45.2375 4.776V15H43.9055V2.4H45.0035L53.1215 12.624V2.4H54.4355ZM62.1481 15.09C61.2361 15.09 60.4141 14.886 59.6821 14.478C58.9501 14.058 58.3741 13.482 57.9541 12.75C57.5341 12.018 57.3241 11.19 57.3241 10.266C57.3241 9.342 57.5341 8.514 57.9541 7.782C58.3741 7.05 58.9501 6.48 59.6821 6.072C60.4141 5.664 61.2361 5.46 62.1481 5.46C63.0601 5.46 63.8821 5.664 64.6141 6.072C65.3461 6.48 65.9161 7.05 66.3241 7.782C66.7441 8.514 66.9541 9.342 66.9541 10.266C66.9541 11.19 66.7441 12.018 66.3241 12.75C65.9161 13.482 65.3461 14.058 64.6141 14.478C63.8821 14.886 63.0601 15.09 62.1481 15.09ZM62.1481 13.956C62.8201 13.956 63.4201 13.806 63.9481 13.506C64.4881 13.194 64.9081 12.756 65.2081 12.192C65.5081 11.628 65.6581 10.986 65.6581 10.266C65.6581 9.546 65.5081 8.904 65.2081 8.34C64.9081 7.776 64.4881 7.344 63.9481 7.044C63.4201 6.732 62.8201 6.576 62.1481 6.576C61.4761 6.576 60.8701 6.732 60.3301 7.044C59.8021 7.344 59.3821 7.776 59.0701 8.34C58.7701 8.904 58.6201 9.546 58.6201 10.266C58.6201 10.986 58.7701 11.628 59.0701 12.192C59.3821 12.756 59.8021 13.194 60.3301 13.506C60.8701 13.806 61.4761 13.956 62.1481 13.956ZM69.5633 1.644H70.8413V15H69.5633V1.644ZM77.7092 5.46C78.9452 5.46 79.8932 5.772 80.5532 6.396C81.2132 7.008 81.5432 7.92 81.5432 9.132V15H80.3192V13.524C80.0312 14.016 79.6052 14.4 79.0412 14.676C78.4892 14.952 77.8292 15.09 77.0612 15.09C76.0052 15.09 75.1652 14.838 74.5412 14.334C73.9172 13.83 73.6052 13.164 73.6052 12.336C73.6052 11.532 73.8932 10.884 74.4692 10.392C75.0572 9.9 75.9872 9.654 77.2592 9.654H80.2652V9.078C80.2652 8.262 80.0372 7.644 79.5812 7.224C79.1252 6.792 78.4592 6.576 77.5832 6.576C76.9832 6.576 76.4072 6.678 75.8552 6.882C75.3032 7.074 74.8292 7.344 74.4332 7.692L73.8572 6.738C74.3372 6.33 74.9132 6.018 75.5852 5.802C76.2572 5.574 76.9652 5.46 77.7092 5.46ZM77.2592 14.082C77.9792 14.082 78.5972 13.92 79.1132 13.596C79.6292 13.26 80.0132 12.78 80.2652 12.156V10.608H77.2952C75.6752 10.608 74.8652 11.172 74.8652 12.3C74.8652 12.852 75.0752 13.29 75.4952 13.614C75.9152 13.926 76.5032 14.082 77.2592 14.082ZM89.8384 5.46C91.0264 5.46 91.9684 5.808 92.6644 6.504C93.3724 7.188 93.7264 8.19 93.7264 9.51V15H92.4484V9.636C92.4484 8.652 92.2024 7.902 91.7104 7.386C91.2184 6.87 90.5164 6.612 89.6044 6.612C88.5844 6.612 87.7744 6.918 87.1744 7.53C86.5864 8.13 86.2924 8.964 86.2924 10.032V15H85.0144V5.532H86.2384V7.278C86.5864 6.702 87.0664 6.258 87.6784 5.946C88.3024 5.622 89.0224 5.46 89.8384 5.46ZM111.087 13.848V15H102.177V2.4H110.817V3.552H103.509V8.034H110.025V9.168H103.509V13.848H111.087ZM119.714 15L116.708 11.04L113.684 15H112.244L115.988 10.14L112.424 5.532H113.864L116.708 9.24L119.552 5.532H120.956L117.392 10.14L121.172 15H119.714ZM128.286 14.424C128.046 14.64 127.746 14.808 127.386 14.928C127.038 15.036 126.672 15.09 126.288 15.09C125.4 15.09 124.716 14.85 124.236 14.37C123.756 13.89 123.516 13.212 123.516 12.336V6.612H121.824V5.532H123.516V3.462H124.794V5.532H127.674V6.612H124.794V12.264C124.794 12.828 124.932 13.26 125.208 13.56C125.496 13.848 125.904 13.992 126.432 13.992C126.696 13.992 126.948 13.95 127.188 13.866C127.44 13.782 127.656 13.662 127.836 13.506L128.286 14.424ZM138.522 10.662H130.602C130.674 11.646 131.052 12.444 131.736 13.056C132.42 13.656 133.284 13.956 134.328 13.956C134.916 13.956 135.456 13.854 135.948 13.65C136.44 13.434 136.866 13.122 137.226 12.714L137.946 13.542C137.526 14.046 136.998 14.43 136.362 14.694C135.738 14.958 135.048 15.09 134.292 15.09C133.32 15.09 132.456 14.886 131.7 14.478C130.956 14.058 130.374 13.482 129.954 12.75C129.534 12.018 129.324 11.19 129.324 10.266C129.324 9.342 129.522 8.514 129.918 7.782C130.326 7.05 130.878 6.48 131.574 6.072C132.282 5.664 133.074 5.46 133.95 5.46C134.826 5.46 135.612 5.664 136.308 6.072C137.004 6.48 137.55 7.05 137.946 7.782C138.342 8.502 138.54 9.33 138.54 10.266L138.522 10.662ZM133.95 6.558C133.038 6.558 132.27 6.852 131.646 7.44C131.034 8.016 130.686 8.772 130.602 9.708H137.316C137.232 8.772 136.878 8.016 136.254 7.44C135.642 6.852 134.874 6.558 133.95 6.558ZM145.965 5.46C147.153 5.46 148.095 5.808 148.791 6.504C149.499 7.188 149.853 8.19 149.853 9.51V15H148.575V9.636C148.575 8.652 148.329 7.902 147.837 7.386C147.345 6.87 146.643 6.612 145.731 6.612C144.711 6.612 143.901 6.918 143.301 7.53C142.713 8.13 142.419 8.964 142.419 10.032V15H141.141V5.532H142.365V7.278C142.713 6.702 143.193 6.258 143.805 5.946C144.429 5.622 145.149 5.46 145.965 5.46ZM155.861 15.09C155.093 15.09 154.355 14.982 153.647 14.766C152.951 14.538 152.405 14.256 152.009 13.92L152.585 12.912C152.981 13.224 153.479 13.482 154.079 13.686C154.679 13.878 155.303 13.974 155.951 13.974C156.815 13.974 157.451 13.842 157.859 13.578C158.279 13.302 158.489 12.918 158.489 12.426C158.489 12.078 158.375 11.808 158.147 11.616C157.919 11.412 157.631 11.262 157.283 11.166C156.935 11.058 156.473 10.956 155.897 10.86C155.129 10.716 154.511 10.572 154.043 10.428C153.575 10.272 153.173 10.014 152.837 9.654C152.513 9.294 152.351 8.796 152.351 8.16C152.351 7.368 152.681 6.72 153.341 6.216C154.001 5.712 154.919 5.46 156.095 5.46C156.707 5.46 157.319 5.544 157.931 5.712C158.543 5.868 159.047 6.078 159.443 6.342L158.885 7.368C158.105 6.828 157.175 6.558 156.095 6.558C155.279 6.558 154.661 6.702 154.241 6.99C153.833 7.278 153.629 7.656 153.629 8.124C153.629 8.484 153.743 8.772 153.971 8.988C154.211 9.204 154.505 9.366 154.853 9.474C155.201 9.57 155.681 9.672 156.293 9.78C157.049 9.924 157.655 10.068 158.111 10.212C158.567 10.356 158.957 10.602 159.281 10.95C159.605 11.298 159.767 11.778 159.767 12.39C159.767 13.218 159.419 13.878 158.723 14.37C158.039 14.85 157.085 15.09 155.861 15.09ZM162.13 5.532H163.408V15H162.13V5.532ZM162.778 3.462C162.514 3.462 162.292 3.372 162.112 3.192C161.932 3.012 161.842 2.796 161.842 2.544C161.842 2.304 161.932 2.094 162.112 1.914C162.292 1.734 162.514 1.644 162.778 1.644C163.042 1.644 163.264 1.734 163.444 1.914C163.624 2.082 163.714 2.286 163.714 2.526C163.714 2.79 163.624 3.012 163.444 3.192C163.264 3.372 163.042 3.462 162.778 3.462ZM170.834 15.09C169.922 15.09 169.1 14.886 168.368 14.478C167.636 14.058 167.06 13.482 166.64 12.75C166.22 12.018 166.01 11.19 166.01 10.266C166.01 9.342 166.22 8.514 166.64 7.782C167.06 7.05 167.636 6.48 168.368 6.072C169.1 5.664 169.922 5.46 170.834 5.46C171.746 5.46 172.568 5.664 173.3 6.072C174.032 6.48 174.602 7.05 175.01 7.782C175.43 8.514 175.64 9.342 175.64 10.266C175.64 11.19 175.43 12.018 175.01 12.75C174.602 13.482 174.032 14.058 173.3 14.478C172.568 14.886 171.746 15.09 170.834 15.09ZM170.834 13.956C171.506 13.956 172.106 13.806 172.634 13.506C173.174 13.194 173.594 12.756 173.894 12.192C174.194 11.628 174.344 10.986 174.344 10.266C174.344 9.546 174.194 8.904 173.894 8.34C173.594 7.776 173.174 7.344 172.634 7.044C172.106 6.732 171.506 6.576 170.834 6.576C170.162 6.576 169.556 6.732 169.016 7.044C168.488 7.344 168.068 7.776 167.756 8.34C167.456 8.904 167.306 9.546 167.306 10.266C167.306 10.986 167.456 11.628 167.756 12.192C168.068 12.756 168.488 13.194 169.016 13.506C169.556 13.806 170.162 13.956 170.834 13.956ZM183.073 5.46C184.261 5.46 185.203 5.808 185.899 6.504C186.607 7.188 186.961 8.19 186.961 9.51V15H185.683V9.636C185.683 8.652 185.437 7.902 184.945 7.386C184.453 6.87 183.751 6.612 182.839 6.612C181.819 6.612 181.009 6.918 180.409 7.53C179.821 8.13 179.527 8.964 179.527 10.032V15H178.249V5.532H179.473V7.278C179.821 6.702 180.301 6.258 180.913 5.946C181.537 5.622 182.257 5.46 183.073 5.46ZM192.968 15.09C192.2 15.09 191.462 14.982 190.754 14.766C190.058 14.538 189.512 14.256 189.116 13.92L189.692 12.912C190.088 13.224 190.586 13.482 191.186 13.686C191.786 13.878 192.41 13.974 193.058 13.974C193.922 13.974 194.558 13.842 194.966 13.578C195.386 13.302 195.596 12.918 195.596 12.426C195.596 12.078 195.482 11.808 195.254 11.616C195.026 11.412 194.738 11.262 194.39 11.166C194.042 11.058 193.58 10.956 193.004 10.86C192.236 10.716 191.618 10.572 191.15 10.428C190.682 10.272 190.28 10.014 189.944 9.654C189.62 9.294 189.458 8.796 189.458 8.16C189.458 7.368 189.788 6.72 190.448 6.216C191.108 5.712 192.026 5.46 193.202 5.46C193.814 5.46 194.426 5.544 195.038 5.712C195.65 5.868 196.154 6.078 196.55 6.342L195.992 7.368C195.212 6.828 194.282 6.558 193.202 6.558C192.386 6.558 191.768 6.702 191.348 6.99C190.94 7.278 190.736 7.656 190.736 8.124C190.736 8.484 190.85 8.772 191.078 8.988C191.318 9.204 191.612 9.366 191.96 9.474C192.308 9.57 192.788 9.672 193.4 9.78C194.156 9.924 194.762 10.068 195.218 10.212C195.674 10.356 196.064 10.602 196.388 10.95C196.712 11.298 196.874 11.778 196.874 12.39C196.874 13.218 196.526 13.878 195.83 14.37C195.146 14.85 194.192 15.09 192.968 15.09ZM207.692 15.108C206.756 15.108 205.856 14.958 204.992 14.658C204.14 14.358 203.48 13.962 203.012 13.47L203.534 12.444C203.99 12.9 204.596 13.272 205.352 13.56C206.108 13.836 206.888 13.974 207.692 13.974C208.82 13.974 209.666 13.77 210.23 13.362C210.794 12.942 211.076 12.402 211.076 11.742C211.076 11.238 210.92 10.836 210.608 10.536C210.308 10.236 209.936 10.008 209.492 9.852C209.048 9.684 208.43 9.504 207.638 9.312C206.69 9.072 205.934 8.844 205.37 8.628C204.806 8.4 204.32 8.058 203.912 7.602C203.516 7.146 203.318 6.528 203.318 5.748C203.318 5.112 203.486 4.536 203.822 4.02C204.158 3.492 204.674 3.072 205.37 2.76C206.066 2.448 206.93 2.292 207.962 2.292C208.682 2.292 209.384 2.394 210.068 2.598C210.764 2.79 211.364 3.06 211.868 3.408L211.418 4.47C210.89 4.122 210.326 3.864 209.726 3.696C209.126 3.516 208.538 3.426 207.962 3.426C206.858 3.426 206.024 3.642 205.46 4.074C204.908 4.494 204.632 5.04 204.632 5.712C204.632 6.216 204.782 6.624 205.082 6.936C205.394 7.236 205.778 7.47 206.234 7.638C206.702 7.794 207.326 7.968 208.106 8.16C209.03 8.388 209.774 8.616 210.338 8.844C210.914 9.06 211.4 9.396 211.796 9.852C212.192 10.296 212.39 10.902 212.39 11.67C212.39 12.306 212.216 12.888 211.868 13.416C211.532 13.932 211.01 14.346 210.302 14.658C209.594 14.958 208.724 15.108 207.692 15.108ZM223.554 5.532V15H222.33V13.272C221.994 13.848 221.532 14.298 220.944 14.622C220.356 14.934 219.684 15.09 218.928 15.09C217.692 15.09 216.714 14.748 215.994 14.064C215.286 13.368 214.932 12.354 214.932 11.022V5.532H216.21V10.896C216.21 11.892 216.456 12.648 216.948 13.164C217.44 13.68 218.142 13.938 219.054 13.938C220.05 13.938 220.836 13.638 221.412 13.038C221.988 12.426 222.276 11.58 222.276 10.5V5.532H223.554ZM227.134 5.532H228.412V15H227.134V5.532ZM227.782 3.462C227.518 3.462 227.296 3.372 227.116 3.192C226.936 3.012 226.846 2.796 226.846 2.544C226.846 2.304 226.936 2.094 227.116 1.914C227.296 1.734 227.518 1.644 227.782 1.644C228.046 1.644 228.268 1.734 228.448 1.914C228.628 2.082 228.718 2.286 228.718 2.526C228.718 2.79 228.628 3.012 228.448 3.192C228.268 3.372 228.046 3.462 227.782 3.462ZM236.954 14.424C236.714 14.64 236.414 14.808 236.054 14.928C235.706 15.036 235.34 15.09 234.956 15.09C234.068 15.09 233.384 14.85 232.904 14.37C232.424 13.89 232.184 13.212 232.184 12.336V6.612H230.492V5.532H232.184V3.462H233.462V5.532H236.342V6.612H233.462V12.264C233.462 12.828 233.6 13.26 233.876 13.56C234.164 13.848 234.572 13.992 235.1 13.992C235.364 13.992 235.616 13.95 235.856 13.866C236.108 13.782 236.324 13.662 236.504 13.506L236.954 14.424ZM247.19 10.662H239.27C239.342 11.646 239.72 12.444 240.404 13.056C241.088 13.656 241.952 13.956 242.996 13.956C243.584 13.956 244.124 13.854 244.616 13.65C245.108 13.434 245.534 13.122 245.894 12.714L246.614 13.542C246.194 14.046 245.666 14.43 245.03 14.694C244.406 14.958 243.716 15.09 242.96 15.09C241.988 15.09 241.124 14.886 240.368 14.478C239.624 14.058 239.042 13.482 238.622 12.75C238.202 12.018 237.992 11.19 237.992 10.266C237.992 9.342 238.19 8.514 238.586 7.782C238.994 7.05 239.546 6.48 240.242 6.072C240.95 5.664 241.742 5.46 242.618 5.46C243.494 5.46 244.28 5.664 244.976 6.072C245.672 6.48 246.218 7.05 246.614 7.782C247.01 8.502 247.208 9.33 247.208 10.266L247.19 10.662ZM242.618 6.558C241.706 6.558 240.938 6.852 240.314 7.44C239.702 8.016 239.354 8.772 239.27 9.708H245.984C245.9 8.772 245.546 8.016 244.922 7.44C244.31 6.852 243.542 6.558 242.618 6.558ZM258.894 7.458C259.722 7.458 260.454 7.614 261.09 7.926C261.738 8.238 262.242 8.682 262.602 9.258C262.962 9.822 263.142 10.482 263.142 11.238C263.142 12.006 262.956 12.684 262.584 13.272C262.212 13.86 261.696 14.316 261.036 14.64C260.388 14.952 259.656 15.108 258.84 15.108C257.172 15.108 255.894 14.562 255.006 13.47C254.118 12.366 253.674 10.812 253.674 8.808C253.674 7.404 253.914 6.216 254.394 5.244C254.874 4.272 255.546 3.54 256.41 3.048C257.274 2.544 258.282 2.292 259.434 2.292C260.682 2.292 261.678 2.52 262.422 2.976L261.9 4.02C261.3 3.624 260.484 3.426 259.452 3.426C258.06 3.426 256.968 3.87 256.176 4.758C255.384 5.634 254.988 6.912 254.988 8.592C254.988 8.892 255.006 9.234 255.042 9.618C255.354 8.934 255.852 8.406 256.536 8.034C257.22 7.65 258.006 7.458 258.894 7.458ZM258.786 14.01C259.698 14.01 260.436 13.764 261 13.272C261.576 12.768 261.864 12.102 261.864 11.274C261.864 10.446 261.576 9.786 261 9.294C260.436 8.802 259.668 8.556 258.696 8.556C258.06 8.556 257.496 8.676 257.004 8.916C256.524 9.156 256.146 9.486 255.87 9.906C255.594 10.326 255.456 10.794 255.456 11.31C255.456 11.79 255.582 12.234 255.834 12.642C256.098 13.05 256.482 13.38 256.986 13.632C257.49 13.884 258.09 14.01 258.786 14.01ZM273.394 2.4V3.318L268.12 15H266.716L271.9 3.552H265.42V5.91H264.142V2.4H273.394ZM279.772 15.108C278.8 15.108 277.93 14.85 277.162 14.334C276.406 13.818 275.812 13.08 275.38 12.12C274.96 11.148 274.75 10.008 274.75 8.7C274.75 7.392 274.96 6.258 275.38 5.298C275.812 4.326 276.406 3.582 277.162 3.066C277.93 2.55 278.8 2.292 279.772 2.292C280.744 2.292 281.608 2.55 282.364 3.066C283.132 3.582 283.732 4.326 284.164 5.298C284.596 6.258 284.812 7.392 284.812 8.7C284.812 10.008 284.596 11.148 284.164 12.12C283.732 13.08 283.132 13.818 282.364 14.334C281.608 14.85 280.744 15.108 279.772 15.108ZM279.772 13.92C280.504 13.92 281.146 13.716 281.698 13.308C282.262 12.9 282.7 12.306 283.012 11.526C283.324 10.746 283.48 9.804 283.48 8.7C283.48 7.596 283.324 6.654 283.012 5.874C282.7 5.094 282.262 4.5 281.698 4.092C281.146 3.684 280.504 3.48 279.772 3.48C279.04 3.48 278.392 3.684 277.828 4.092C277.276 4.5 276.844 5.094 276.532 5.874C276.22 6.654 276.064 7.596 276.064 8.7C276.064 9.804 276.22 10.746 276.532 11.526C276.844 12.306 277.276 12.9 277.828 13.308C278.392 13.716 279.04 13.92 279.772 13.92ZM32.6623 65.24H29.3143V68.516H28.1803V65.24H24.8323V64.178H28.1803V60.884H29.3143V64.178H32.6623V65.24ZM40.0244 71.108C39.0524 71.108 38.1824 70.85 37.4144 70.334C36.6584 69.818 36.0644 69.08 35.6324 68.12C35.2124 67.148 35.0024 66.008 35.0024 64.7C35.0024 63.392 35.2124 62.258 35.6324 61.298C36.0644 60.326 36.6584 59.582 37.4144 59.066C38.1824 58.55 39.0524 58.292 40.0244 58.292C40.9964 58.292 41.8604 58.55 42.6164 59.066C43.3844 59.582 43.9844 60.326 44.4164 61.298C44.8484 62.258 45.0644 63.392 45.0644 64.7C45.0644 66.008 44.8484 67.148 44.4164 68.12C43.9844 69.08 43.3844 69.818 42.6164 70.334C41.8604 70.85 40.9964 71.108 40.0244 71.108ZM40.0244 69.92C40.7564 69.92 41.3984 69.716 41.9504 69.308C42.5144 68.9 42.9524 68.306 43.2644 67.526C43.5764 66.746 43.7324 65.804 43.7324 64.7C43.7324 63.596 43.5764 62.654 43.2644 61.874C42.9524 61.094 42.5144 60.5 41.9504 60.092C41.3984 59.684 40.7564 59.48 40.0244 59.48C39.2924 59.48 38.6444 59.684 38.0804 60.092C37.5284 60.5 37.0964 61.094 36.7844 61.874C36.4724 62.654 36.3164 63.596 36.3164 64.7C36.3164 65.804 36.4724 66.746 36.7844 67.526C37.0964 68.306 37.5284 68.9 38.0804 69.308C38.6444 69.716 39.2924 69.92 40.0244 69.92ZM51.9424 71.108C50.9704 71.108 50.1004 70.85 49.3324 70.334C48.5764 69.818 47.9824 69.08 47.5504 68.12C47.1304 67.148 46.9204 66.008 46.9204 64.7C46.9204 63.392 47.1304 62.258 47.5504 61.298C47.9824 60.326 48.5764 59.582 49.3324 59.066C50.1004 58.55 50.9704 58.292 51.9424 58.292C52.9144 58.292 53.7784 58.55 54.5344 59.066C55.3024 59.582 55.9024 60.326 56.3344 61.298C56.7664 62.258 56.9824 63.392 56.9824 64.7C56.9824 66.008 56.7664 67.148 56.3344 68.12C55.9024 69.08 55.3024 69.818 54.5344 70.334C53.7784 70.85 52.9144 71.108 51.9424 71.108ZM51.9424 69.92C52.6744 69.92 53.3164 69.716 53.8684 69.308C54.4324 68.9 54.8704 68.306 55.1824 67.526C55.4944 66.746 55.6504 65.804 55.6504 64.7C55.6504 63.596 55.4944 62.654 55.1824 61.874C54.8704 61.094 54.4324 60.5 53.8684 60.092C53.3164 59.684 52.6744 59.48 51.9424 59.48C51.2104 59.48 50.5624 59.684 49.9984 60.092C49.4464 60.5 49.0144 61.094 48.7024 61.874C48.3904 62.654 48.2344 63.596 48.2344 64.7C48.2344 65.804 48.3904 66.746 48.7024 67.526C49.0144 68.306 49.4464 68.9 49.9984 69.308C50.5624 69.716 51.2104 69.92 51.9424 69.92ZM62.2952 58.4V71H60.9992V59.552H58.0292V58.4H62.2952ZM74.302 63.8C75.622 63.872 76.624 64.232 77.308 64.88C78.004 65.516 78.352 66.35 78.352 67.382C78.352 68.102 78.178 68.744 77.83 69.308C77.482 69.86 76.966 70.298 76.282 70.622C75.598 70.946 74.764 71.108 73.78 71.108C72.868 71.108 72.004 70.964 71.188 70.676C70.384 70.376 69.736 69.98 69.244 69.488L69.874 68.462C70.294 68.894 70.852 69.248 71.548 69.524C72.244 69.788 72.988 69.92 73.78 69.92C74.812 69.92 75.61 69.698 76.174 69.254C76.738 68.798 77.02 68.174 77.02 67.382C77.02 66.602 76.738 65.99 76.174 65.546C75.61 65.102 74.758 64.88 73.618 64.88H72.718V63.926L76.21 59.552H69.766V58.4H77.866V59.318L74.302 63.8ZM83.3144 63.566C85.1384 63.566 86.4644 63.896 87.2924 64.556C88.1324 65.204 88.5524 66.116 88.5524 67.292C88.5524 68.024 88.3784 68.678 88.0304 69.254C87.6944 69.83 87.1844 70.286 86.5004 70.622C85.8164 70.946 84.9764 71.108 83.9804 71.108C83.0804 71.108 82.2224 70.964 81.4064 70.676C80.6024 70.376 79.9544 69.98 79.4624 69.488L80.0924 68.462C80.5124 68.894 81.0644 69.248 81.7484 69.524C82.4324 69.788 83.1704 69.92 83.9624 69.92C85.0064 69.92 85.8104 69.686 86.3744 69.218C86.9504 68.75 87.2384 68.126 87.2384 67.346C87.2384 66.482 86.9144 65.828 86.2664 65.384C85.6304 64.94 84.5504 64.718 83.0264 64.718H80.3444L80.9924 58.4H87.8864V59.552H82.1264L81.6944 63.566H83.3144ZM95.4177 63.458C96.2457 63.458 96.9777 63.614 97.6137 63.926C98.2617 64.238 98.7657 64.682 99.1257 65.258C99.4857 65.822 99.6657 66.482 99.6657 67.238C99.6657 68.006 99.4797 68.684 99.1077 69.272C98.7357 69.86 98.2197 70.316 97.5597 70.64C96.9117 70.952 96.1797 71.108 95.3637 71.108C93.6957 71.108 92.4177 70.562 91.5297 69.47C90.6417 68.366 90.1977 66.812 90.1977 64.808C90.1977 63.404 90.4377 62.216 90.9177 61.244C91.3977 60.272 92.0697 59.54 92.9337 59.048C93.7977 58.544 94.8057 58.292 95.9577 58.292C97.2057 58.292 98.2017 58.52 98.9457 58.976L98.4237 60.02C97.8237 59.624 97.0077 59.426 95.9757 59.426C94.5837 59.426 93.4917 59.87 92.6997 60.758C91.9077 61.634 91.5117 62.912 91.5117 64.592C91.5117 64.892 91.5297 65.234 91.5657 65.618C91.8777 64.934 92.3757 64.406 93.0597 64.034C93.7437 63.65 94.5297 63.458 95.4177 63.458ZM95.3097 70.01C96.2217 70.01 96.9597 69.764 97.5237 69.272C98.0997 68.768 98.3877 68.102 98.3877 67.274C98.3877 66.446 98.0997 65.786 97.5237 65.294C96.9597 64.802 96.1917 64.556 95.2197 64.556C94.5837 64.556 94.0197 64.676 93.5277 64.916C93.0477 65.156 92.6697 65.486 92.3937 65.906C92.1177 66.326 91.9797 66.794 91.9797 67.31C91.9797 67.79 92.1057 68.234 92.3577 68.642C92.6217 69.05 93.0057 69.38 93.5097 69.632C94.0137 69.884 94.6137 70.01 95.3097 70.01ZM101.398 65.564H106.114V66.68H101.398V65.564ZM115.345 64.394C116.137 64.658 116.743 65.054 117.163 65.582C117.595 66.11 117.811 66.746 117.811 67.49C117.811 68.222 117.613 68.864 117.217 69.416C116.821 69.956 116.251 70.376 115.507 70.676C114.775 70.964 113.911 71.108 112.915 71.108C111.403 71.108 110.215 70.784 109.351 70.136C108.487 69.488 108.055 68.606 108.055 67.49C108.055 66.734 108.259 66.098 108.667 65.582C109.087 65.054 109.693 64.658 110.485 64.394C109.837 64.142 109.345 63.782 109.009 63.314C108.673 62.834 108.505 62.27 108.505 61.622C108.505 60.602 108.901 59.792 109.693 59.192C110.497 58.592 111.571 58.292 112.915 58.292C113.803 58.292 114.577 58.43 115.237 58.706C115.909 58.97 116.431 59.354 116.803 59.858C117.175 60.362 117.361 60.95 117.361 61.622C117.361 62.27 117.187 62.834 116.839 63.314C116.491 63.782 115.993 64.142 115.345 64.394ZM109.801 61.658C109.801 62.354 110.077 62.906 110.629 63.314C111.181 63.722 111.943 63.926 112.915 63.926C113.887 63.926 114.649 63.722 115.201 63.314C115.765 62.906 116.047 62.36 116.047 61.676C116.047 60.968 115.759 60.41 115.183 60.002C114.619 59.594 113.863 59.39 112.915 59.39C111.955 59.39 111.193 59.594 110.629 60.002C110.077 60.41 109.801 60.962 109.801 61.658ZM112.915 70.01C114.031 70.01 114.901 69.782 115.525 69.326C116.161 68.87 116.479 68.252 116.479 67.472C116.479 66.692 116.161 66.08 115.525 65.636C114.901 65.18 114.031 64.952 112.915 64.952C111.811 64.952 110.941 65.18 110.305 65.636C109.681 66.08 109.369 66.692 109.369 67.472C109.369 68.264 109.681 68.888 110.305 69.344C110.929 69.788 111.799 70.01 112.915 70.01ZM124.826 63.458C125.654 63.458 126.386 63.614 127.022 63.926C127.67 64.238 128.174 64.682 128.534 65.258C128.894 65.822 129.074 66.482 129.074 67.238C129.074 68.006 128.888 68.684 128.516 69.272C128.144 69.86 127.628 70.316 126.968 70.64C126.32 70.952 125.588 71.108 124.772 71.108C123.104 71.108 121.826 70.562 120.938 69.47C120.05 68.366 119.606 66.812 119.606 64.808C119.606 63.404 119.846 62.216 120.326 61.244C120.806 60.272 121.478 59.54 122.342 59.048C123.206 58.544 124.214 58.292 125.366 58.292C126.614 58.292 127.61 58.52 128.354 58.976L127.832 60.02C127.232 59.624 126.416 59.426 125.384 59.426C123.992 59.426 122.9 59.87 122.108 60.758C121.316 61.634 120.92 62.912 120.92 64.592C120.92 64.892 120.938 65.234 120.974 65.618C121.286 64.934 121.784 64.406 122.468 64.034C123.152 63.65 123.938 63.458 124.826 63.458ZM124.718 70.01C125.63 70.01 126.368 69.764 126.932 69.272C127.508 68.768 127.796 68.102 127.796 67.274C127.796 66.446 127.508 65.786 126.932 65.294C126.368 64.802 125.6 64.556 124.628 64.556C123.992 64.556 123.428 64.676 122.936 64.916C122.456 65.156 122.078 65.486 121.802 65.906C121.526 66.326 121.388 66.794 121.388 67.31C121.388 67.79 121.514 68.234 121.766 68.642C122.03 69.05 122.414 69.38 122.918 69.632C123.422 69.884 124.022 70.01 124.718 70.01ZM137.793 64.394C138.585 64.658 139.191 65.054 139.611 65.582C140.043 66.11 140.259 66.746 140.259 67.49C140.259 68.222 140.061 68.864 139.665 69.416C139.269 69.956 138.699 70.376 137.955 70.676C137.223 70.964 136.359 71.108 135.363 71.108C133.851 71.108 132.663 70.784 131.799 70.136C130.935 69.488 130.503 68.606 130.503 67.49C130.503 66.734 130.707 66.098 131.115 65.582C131.535 65.054 132.141 64.658 132.933 64.394C132.285 64.142 131.793 63.782 131.457 63.314C131.121 62.834 130.953 62.27 130.953 61.622C130.953 60.602 131.349 59.792 132.141 59.192C132.945 58.592 134.019 58.292 135.363 58.292C136.251 58.292 137.025 58.43 137.685 58.706C138.357 58.97 138.879 59.354 139.251 59.858C139.623 60.362 139.809 60.95 139.809 61.622C139.809 62.27 139.635 62.834 139.287 63.314C138.939 63.782 138.441 64.142 137.793 64.394ZM132.249 61.658C132.249 62.354 132.525 62.906 133.077 63.314C133.629 63.722 134.391 63.926 135.363 63.926C136.335 63.926 137.097 63.722 137.649 63.314C138.213 62.906 138.495 62.36 138.495 61.676C138.495 60.968 138.207 60.41 137.631 60.002C137.067 59.594 136.311 59.39 135.363 59.39C134.403 59.39 133.641 59.594 133.077 60.002C132.525 60.41 132.249 60.962 132.249 61.658ZM135.363 70.01C136.479 70.01 137.349 69.782 137.973 69.326C138.609 68.87 138.927 68.252 138.927 67.472C138.927 66.692 138.609 66.08 137.973 65.636C137.349 65.18 136.479 64.952 135.363 64.952C134.259 64.952 133.389 65.18 132.753 65.636C132.129 66.08 131.817 66.692 131.817 67.472C131.817 68.264 132.129 68.888 132.753 69.344C133.377 69.788 134.247 70.01 135.363 70.01ZM142.197 65.564H146.913V66.68H142.197V65.564ZM157.319 69.848V71H148.481V70.082L153.719 64.952C154.379 64.304 154.823 63.746 155.051 63.278C155.291 62.798 155.411 62.318 155.411 61.838C155.411 61.094 155.153 60.518 154.637 60.11C154.133 59.69 153.407 59.48 152.459 59.48C150.983 59.48 149.837 59.948 149.021 60.884L148.103 60.092C148.595 59.516 149.219 59.072 149.975 58.76C150.743 58.448 151.607 58.292 152.567 58.292C153.851 58.292 154.865 58.598 155.609 59.21C156.365 59.81 156.743 60.638 156.743 61.694C156.743 62.342 156.599 62.966 156.311 63.566C156.023 64.166 155.477 64.856 154.673 65.636L150.389 69.848H157.319ZM169.234 67.688H166.714V71H165.418V67.688H158.308V66.752L164.986 58.4H166.426L159.982 66.536H165.454V63.62H166.714V66.536H169.234V67.688ZM173.666 63.566C175.49 63.566 176.816 63.896 177.644 64.556C178.484 65.204 178.904 66.116 178.904 67.292C178.904 68.024 178.73 68.678 178.382 69.254C178.046 69.83 177.536 70.286 176.852 70.622C176.168 70.946 175.328 71.108 174.332 71.108C173.432 71.108 172.574 70.964 171.758 70.676C170.954 70.376 170.306 69.98 169.814 69.488L170.444 68.462C170.864 68.894 171.416 69.248 172.1 69.524C172.784 69.788 173.522 69.92 174.314 69.92C175.358 69.92 176.162 69.686 176.726 69.218C177.302 68.75 177.59 68.126 177.59 67.346C177.59 66.482 177.266 65.828 176.618 65.384C175.982 64.94 174.902 64.718 173.378 64.718H170.696L171.344 58.4H178.238V59.552H172.478L172.046 63.566H173.666ZM191.259 67.688H188.739V71H187.443V67.688H180.333V66.752L187.011 58.4H188.451L182.007 66.536H187.479V63.62H188.739V66.536H191.259V67.688ZM38.2345 117.46C39.4225 117.46 40.3525 117.802 41.0245 118.486C41.7085 119.17 42.0505 120.178 42.0505 121.51V127H40.7725V121.636C40.7725 120.652 40.5325 119.902 40.0525 119.386C39.5845 118.87 38.9185 118.612 38.0545 118.612C37.0705 118.612 36.2965 118.918 35.7325 119.53C35.1685 120.13 34.8865 120.964 34.8865 122.032V127H33.6085V121.636C33.6085 120.652 33.3685 119.902 32.8885 119.386C32.4205 118.87 31.7485 118.612 30.8725 118.612C29.9005 118.612 29.1265 118.918 28.5505 119.53C27.9865 120.13 27.7045 120.964 27.7045 122.032V127H26.4265V117.532H27.6505V119.26C27.9865 118.684 28.4545 118.24 29.0545 117.928C29.6545 117.616 30.3445 117.46 31.1245 117.46C31.9165 117.46 32.6005 117.628 33.1765 117.964C33.7645 118.3 34.2025 118.798 34.4905 119.458C34.8385 118.834 35.3365 118.348 35.9845 118C36.6445 117.64 37.3945 117.46 38.2345 117.46ZM49.4215 127.09C48.5095 127.09 47.6875 126.886 46.9555 126.478C46.2235 126.058 45.6475 125.482 45.2275 124.75C44.8075 124.018 44.5975 123.19 44.5975 122.266C44.5975 121.342 44.8075 120.514 45.2275 119.782C45.6475 119.05 46.2235 118.48 46.9555 118.072C47.6875 117.664 48.5095 117.46 49.4215 117.46C50.3335 117.46 51.1555 117.664 51.8875 118.072C52.6195 118.48 53.1895 119.05 53.5975 119.782C54.0175 120.514 54.2275 121.342 54.2275 122.266C54.2275 123.19 54.0175 124.018 53.5975 124.75C53.1895 125.482 52.6195 126.058 51.8875 126.478C51.1555 126.886 50.3335 127.09 49.4215 127.09ZM49.4215 125.956C50.0935 125.956 50.6935 125.806 51.2215 125.506C51.7615 125.194 52.1815 124.756 52.4815 124.192C52.7815 123.628 52.9315 122.986 52.9315 122.266C52.9315 121.546 52.7815 120.904 52.4815 120.34C52.1815 119.776 51.7615 119.344 51.2215 119.044C50.6935 118.732 50.0935 118.576 49.4215 118.576C48.7495 118.576 48.1435 118.732 47.6035 119.044C47.0755 119.344 46.6555 119.776 46.3435 120.34C46.0435 120.904 45.8935 121.546 45.8935 122.266C45.8935 122.986 46.0435 123.628 46.3435 124.192C46.6555 124.756 47.0755 125.194 47.6035 125.506C48.1435 125.806 48.7495 125.956 49.4215 125.956ZM61.6607 117.46C62.8487 117.46 63.7907 117.808 64.4867 118.504C65.1947 119.188 65.5487 120.19 65.5487 121.51V127H64.2707V121.636C64.2707 120.652 64.0247 119.902 63.5327 119.386C63.0407 118.87 62.3387 118.612 61.4267 118.612C60.4067 118.612 59.5967 118.918 58.9967 119.53C58.4087 120.13 58.1147 120.964 58.1147 122.032V127H56.8367V117.532H58.0607V119.278C58.4087 118.702 58.8887 118.258 59.5007 117.946C60.1247 117.622 60.8447 117.46 61.6607 117.46ZM74.0043 126.424C73.7643 126.64 73.4643 126.808 73.1043 126.928C72.7563 127.036 72.3903 127.09 72.0063 127.09C71.1183 127.09 70.4343 126.85 69.9543 126.37C69.4743 125.89 69.2343 125.212 69.2343 124.336V118.612H67.5423V117.532H69.2343V115.462H70.5123V117.532H73.3923V118.612H70.5123V124.264C70.5123 124.828 70.6503 125.26 70.9263 125.56C71.2143 125.848 71.6223 125.992 72.1503 125.992C72.4143 125.992 72.6663 125.95 72.9063 125.866C73.1583 125.782 73.3743 125.662 73.5543 125.506L74.0043 126.424ZM76.3308 117.532H77.6088V127H76.3308V117.532ZM76.9788 115.462C76.7148 115.462 76.4928 115.372 76.3128 115.192C76.1328 115.012 76.0428 114.796 76.0428 114.544C76.0428 114.304 76.1328 114.094 76.3128 113.914C76.4928 113.734 76.7148 113.644 76.9788 113.644C77.2428 113.644 77.4648 113.734 77.6448 113.914C77.8248 114.082 77.9148 114.286 77.9148 114.526C77.9148 114.79 77.8248 115.012 77.6448 115.192C77.4648 115.372 77.2428 115.462 76.9788 115.462ZM85.0888 127.09C84.1528 127.09 83.3128 126.886 82.5688 126.478C81.8368 126.07 81.2608 125.5 80.8408 124.768C80.4208 124.024 80.2108 123.19 80.2108 122.266C80.2108 121.342 80.4208 120.514 80.8408 119.782C81.2608 119.05 81.8368 118.48 82.5688 118.072C83.3128 117.664 84.1528 117.46 85.0888 117.46C85.9048 117.46 86.6308 117.622 87.2668 117.946C87.9148 118.258 88.4248 118.72 88.7968 119.332L87.8428 119.98C87.5308 119.512 87.1348 119.164 86.6548 118.936C86.1748 118.696 85.6528 118.576 85.0888 118.576C84.4048 118.576 83.7868 118.732 83.2348 119.044C82.6948 119.344 82.2688 119.776 81.9568 120.34C81.6568 120.904 81.5068 121.546 81.5068 122.266C81.5068 122.998 81.6568 123.646 81.9568 124.21C82.2688 124.762 82.6948 125.194 83.2348 125.506C83.7868 125.806 84.4048 125.956 85.0888 125.956C85.6528 125.956 86.1748 125.842 86.6548 125.614C87.1348 125.386 87.5308 125.038 87.8428 124.57L88.7968 125.218C88.4248 125.83 87.9148 126.298 87.2668 126.622C86.6188 126.934 85.8928 127.09 85.0888 127.09ZM95.9908 117.46C97.1788 117.46 98.1208 117.808 98.8168 118.504C99.5248 119.188 99.8788 120.19 99.8788 121.51V127H98.6008V121.636C98.6008 120.652 98.3548 119.902 97.8628 119.386C97.3708 118.87 96.6688 118.612 95.7568 118.612C94.7368 118.612 93.9268 118.918 93.3268 119.53C92.7388 120.13 92.4448 120.964 92.4448 122.032V127H91.1668V113.644H92.4448V119.188C92.7928 118.636 93.2728 118.21 93.8848 117.91C94.4968 117.61 95.1988 117.46 95.9908 117.46ZM111.628 122.662H103.708C103.78 123.646 104.158 124.444 104.842 125.056C105.526 125.656 106.39 125.956 107.434 125.956C108.022 125.956 108.562 125.854 109.054 125.65C109.546 125.434 109.972 125.122 110.332 124.714L111.052 125.542C110.632 126.046 110.104 126.43 109.468 126.694C108.844 126.958 108.154 127.09 107.398 127.09C106.426 127.09 105.562 126.886 104.806 126.478C104.062 126.058 103.48 125.482 103.06 124.75C102.64 124.018 102.43 123.19 102.43 122.266C102.43 121.342 102.628 120.514 103.024 119.782C103.432 119.05 103.984 118.48 104.68 118.072C105.388 117.664 106.18 117.46 107.056 117.46C107.932 117.46 108.718 117.664 109.414 118.072C110.11 118.48 110.656 119.05 111.052 119.782C111.448 120.502 111.646 121.33 111.646 122.266L111.628 122.662ZM107.056 118.558C106.144 118.558 105.376 118.852 104.752 119.44C104.14 120.016 103.792 120.772 103.708 121.708H110.422C110.338 120.772 109.984 120.016 109.36 119.44C108.748 118.852 107.98 118.558 107.056 118.558ZM114.247 113.644H115.525V127H114.247V113.644ZM119.081 113.644H120.359V127H119.081V113.644ZM127.785 127.09C126.873 127.09 126.051 126.886 125.319 126.478C124.587 126.058 124.011 125.482 123.591 124.75C123.171 124.018 122.961 123.19 122.961 122.266C122.961 121.342 123.171 120.514 123.591 119.782C124.011 119.05 124.587 118.48 125.319 118.072C126.051 117.664 126.873 117.46 127.785 117.46C128.697 117.46 129.519 117.664 130.251 118.072C130.983 118.48 131.553 119.05 131.961 119.782C132.381 120.514 132.591 121.342 132.591 122.266C132.591 123.19 132.381 124.018 131.961 124.75C131.553 125.482 130.983 126.058 130.251 126.478C129.519 126.886 128.697 127.09 127.785 127.09ZM127.785 125.956C128.457 125.956 129.057 125.806 129.585 125.506C130.125 125.194 130.545 124.756 130.845 124.192C131.145 123.628 131.295 122.986 131.295 122.266C131.295 121.546 131.145 120.904 130.845 120.34C130.545 119.776 130.125 119.344 129.585 119.044C129.057 118.732 128.457 118.576 127.785 118.576C127.113 118.576 126.507 118.732 125.967 119.044C125.439 119.344 125.019 119.776 124.707 120.34C124.407 120.904 124.257 121.546 124.257 122.266C124.257 122.986 124.407 123.628 124.707 124.192C125.019 124.756 125.439 125.194 125.967 125.506C126.507 125.806 127.113 125.956 127.785 125.956ZM142.76 114.292C144.368 114.292 145.802 114.628 147.062 115.3C148.334 115.96 149.324 116.896 150.032 118.108C150.74 119.308 151.094 120.682 151.094 122.23C151.094 123.754 150.83 124.948 150.302 125.812C149.774 126.664 149.042 127.09 148.106 127.09C147.518 127.09 147.038 126.916 146.666 126.568C146.306 126.22 146.108 125.74 146.072 125.128C145.712 125.752 145.22 126.238 144.596 126.586C143.972 126.922 143.264 127.09 142.472 127.09C141.632 127.09 140.87 126.892 140.186 126.496C139.514 126.088 138.98 125.53 138.584 124.822C138.2 124.114 138.008 123.316 138.008 122.428C138.008 121.54 138.2 120.748 138.584 120.052C138.98 119.344 139.514 118.792 140.186 118.396C140.87 118 141.632 117.802 142.472 117.802C143.24 117.802 143.93 117.97 144.542 118.306C145.166 118.63 145.664 119.092 146.036 119.692V117.874H147.206V124.696C147.206 125.176 147.308 125.524 147.512 125.74C147.716 125.956 147.986 126.064 148.322 126.064C148.886 126.064 149.33 125.728 149.654 125.056C149.99 124.384 150.158 123.448 150.158 122.248C150.158 120.856 149.846 119.632 149.222 118.576C148.598 117.508 147.722 116.68 146.594 116.092C145.478 115.504 144.2 115.21 142.76 115.21C141.308 115.21 140.018 115.516 138.89 116.128C137.774 116.728 136.904 117.58 136.28 118.684C135.656 119.776 135.344 121.024 135.344 122.428C135.344 123.832 135.65 125.086 136.262 126.19C136.886 127.294 137.75 128.152 138.854 128.764C139.97 129.376 141.248 129.682 142.688 129.682C143.252 129.682 143.84 129.616 144.452 129.484C145.076 129.352 145.64 129.154 146.144 128.89L146.45 129.772C145.934 130.036 145.334 130.24 144.65 130.384C143.978 130.528 143.324 130.6 142.688 130.6C141.056 130.6 139.61 130.252 138.35 129.556C137.09 128.86 136.106 127.894 135.398 126.658C134.702 125.41 134.354 124 134.354 122.428C134.354 120.844 134.708 119.44 135.416 118.216C136.124 116.98 137.114 116.02 138.386 115.336C139.67 114.64 141.128 114.292 142.76 114.292ZM142.634 126.046C143.282 126.046 143.864 125.896 144.38 125.596C144.896 125.296 145.304 124.876 145.604 124.336C145.904 123.784 146.054 123.148 146.054 122.428C146.054 121.72 145.904 121.096 145.604 120.556C145.304 120.004 144.896 119.584 144.38 119.296C143.864 118.996 143.282 118.846 142.634 118.846C141.974 118.846 141.38 118.996 140.852 119.296C140.336 119.596 139.928 120.016 139.628 120.556C139.34 121.096 139.196 121.72 139.196 122.428C139.196 123.136 139.34 123.766 139.628 124.318C139.928 124.858 140.336 125.284 140.852 125.596C141.38 125.896 141.974 126.046 142.634 126.046ZM156.336 127.09C155.568 127.09 154.83 126.982 154.122 126.766C153.426 126.538 152.88 126.256 152.484 125.92L153.06 124.912C153.456 125.224 153.954 125.482 154.554 125.686C155.154 125.878 155.778 125.974 156.426 125.974C157.29 125.974 157.926 125.842 158.334 125.578C158.754 125.302 158.964 124.918 158.964 124.426C158.964 124.078 158.85 123.808 158.622 123.616C158.394 123.412 158.106 123.262 157.758 123.166C157.41 123.058 156.948 122.956 156.372 122.86C155.604 122.716 154.986 122.572 154.518 122.428C154.05 122.272 153.648 122.014 153.312 121.654C152.988 121.294 152.826 120.796 152.826 120.16C152.826 119.368 153.156 118.72 153.816 118.216C154.476 117.712 155.394 117.46 156.57 117.46C157.182 117.46 157.794 117.544 158.406 117.712C159.018 117.868 159.522 118.078 159.918 118.342L159.36 119.368C158.58 118.828 157.65 118.558 156.57 118.558C155.754 118.558 155.136 118.702 154.716 118.99C154.308 119.278 154.104 119.656 154.104 120.124C154.104 120.484 154.218 120.772 154.446 120.988C154.686 121.204 154.98 121.366 155.328 121.474C155.676 121.57 156.156 121.672 156.768 121.78C157.524 121.924 158.13 122.068 158.586 122.212C159.042 122.356 159.432 122.602 159.756 122.95C160.08 123.298 160.242 123.778 160.242 124.39C160.242 125.218 159.894 125.878 159.198 126.37C158.514 126.85 157.56 127.09 156.336 127.09ZM170.848 122.662H162.928C163 123.646 163.378 124.444 164.062 125.056C164.746 125.656 165.61 125.956 166.654 125.956C167.242 125.956 167.782 125.854 168.274 125.65C168.766 125.434 169.192 125.122 169.552 124.714L170.272 125.542C169.852 126.046 169.324 126.43 168.688 126.694C168.064 126.958 167.374 127.09 166.618 127.09C165.646 127.09 164.782 126.886 164.026 126.478C163.282 126.058 162.7 125.482 162.28 124.75C161.86 124.018 161.65 123.19 161.65 122.266C161.65 121.342 161.848 120.514 162.244 119.782C162.652 119.05 163.204 118.48 163.9 118.072C164.608 117.664 165.4 117.46 166.276 117.46C167.152 117.46 167.938 117.664 168.634 118.072C169.33 118.48 169.876 119.05 170.272 119.782C170.668 120.502 170.866 121.33 170.866 122.266L170.848 122.662ZM166.276 118.558C165.364 118.558 164.596 118.852 163.972 119.44C163.36 120.016 163.012 120.772 162.928 121.708H169.642C169.558 120.772 169.204 120.016 168.58 119.44C167.968 118.852 167.2 118.558 166.276 118.558ZM174.692 119.386C174.992 118.75 175.436 118.27 176.024 117.946C176.624 117.622 177.362 117.46 178.238 117.46V118.702L177.932 118.684C176.936 118.684 176.156 118.99 175.592 119.602C175.028 120.214 174.746 121.072 174.746 122.176V127H173.468V117.532H174.692V119.386ZM188.912 117.532L184.7 127H183.386L179.192 117.532H180.524L184.07 125.596L187.652 117.532H188.912ZM190.712 117.532H191.99V127H190.712V117.532ZM191.36 115.462C191.096 115.462 190.874 115.372 190.694 115.192C190.514 115.012 190.424 114.796 190.424 114.544C190.424 114.304 190.514 114.094 190.694 113.914C190.874 113.734 191.096 113.644 191.36 113.644C191.624 113.644 191.846 113.734 192.026 113.914C192.206 114.082 192.296 114.286 192.296 114.526C192.296 114.79 192.206 115.012 192.026 115.192C191.846 115.372 191.624 115.462 191.36 115.462ZM199.47 127.09C198.534 127.09 197.694 126.886 196.95 126.478C196.218 126.07 195.642 125.5 195.222 124.768C194.802 124.024 194.592 123.19 194.592 122.266C194.592 121.342 194.802 120.514 195.222 119.782C195.642 119.05 196.218 118.48 196.95 118.072C197.694 117.664 198.534 117.46 199.47 117.46C200.286 117.46 201.012 117.622 201.648 117.946C202.296 118.258 202.806 118.72 203.178 119.332L202.224 119.98C201.912 119.512 201.516 119.164 201.036 118.936C200.556 118.696 200.034 118.576 199.47 118.576C198.786 118.576 198.168 118.732 197.616 119.044C197.076 119.344 196.65 119.776 196.338 120.34C196.038 120.904 195.888 121.546 195.888 122.266C195.888 122.998 196.038 123.646 196.338 124.21C196.65 124.762 197.076 125.194 197.616 125.506C198.168 125.806 198.786 125.956 199.47 125.956C200.034 125.956 200.556 125.842 201.036 125.614C201.516 125.386 201.912 125.038 202.224 124.57L203.178 125.218C202.806 125.83 202.296 126.298 201.648 126.622C201 126.934 200.274 127.09 199.47 127.09ZM213.774 122.662H205.854C205.926 123.646 206.304 124.444 206.988 125.056C207.672 125.656 208.536 125.956 209.58 125.956C210.168 125.956 210.708 125.854 211.2 125.65C211.692 125.434 212.118 125.122 212.478 124.714L213.198 125.542C212.778 126.046 212.25 126.43 211.614 126.694C210.99 126.958 210.3 127.09 209.544 127.09C208.572 127.09 207.708 126.886 206.952 126.478C206.208 126.058 205.626 125.482 205.206 124.75C204.786 124.018 204.576 123.19 204.576 122.266C204.576 121.342 204.774 120.514 205.17 119.782C205.578 119.05 206.13 118.48 206.826 118.072C207.534 117.664 208.326 117.46 209.202 117.46C210.078 117.46 210.864 117.664 211.56 118.072C212.256 118.48 212.802 119.05 213.198 119.782C213.594 120.502 213.792 121.33 213.792 122.266L213.774 122.662ZM209.202 118.558C208.29 118.558 207.522 118.852 206.898 119.44C206.286 120.016 205.938 120.772 205.854 121.708H212.568C212.484 120.772 212.13 120.016 211.506 119.44C210.894 118.852 210.126 118.558 209.202 118.558ZM216.519 127.09C216.255 127.09 216.027 126.994 215.835 126.802C215.655 126.61 215.565 126.376 215.565 126.1C215.565 125.824 215.655 125.596 215.835 125.416C216.027 125.224 216.255 125.128 216.519 125.128C216.783 125.128 217.011 125.224 217.203 125.416C217.395 125.596 217.491 125.824 217.491 126.1C217.491 126.376 217.395 126.61 217.203 126.802C217.011 126.994 216.783 127.09 216.519 127.09ZM223.868 127.09C222.932 127.09 222.092 126.886 221.348 126.478C220.616 126.07 220.04 125.5 219.62 124.768C219.2 124.024 218.99 123.19 218.99 122.266C218.99 121.342 219.2 120.514 219.62 119.782C220.04 119.05 220.616 118.48 221.348 118.072C222.092 117.664 222.932 117.46 223.868 117.46C224.684 117.46 225.41 117.622 226.046 117.946C226.694 118.258 227.204 118.72 227.576 119.332L226.622 119.98C226.31 119.512 225.914 119.164 225.434 118.936C224.954 118.696 224.432 118.576 223.868 118.576C223.184 118.576 222.566 118.732 222.014 119.044C221.474 119.344 221.048 119.776 220.736 120.34C220.436 120.904 220.286 121.546 220.286 122.266C220.286 122.998 220.436 123.646 220.736 124.21C221.048 124.762 221.474 125.194 222.014 125.506C222.566 125.806 223.184 125.956 223.868 125.956C224.432 125.956 224.954 125.842 225.434 125.614C225.914 125.386 226.31 125.038 226.622 124.57L227.576 125.218C227.204 125.83 226.694 126.298 226.046 126.622C225.398 126.934 224.672 127.09 223.868 127.09ZM233.798 127.09C232.886 127.09 232.064 126.886 231.332 126.478C230.6 126.058 230.024 125.482 229.604 124.75C229.184 124.018 228.974 123.19 228.974 122.266C228.974 121.342 229.184 120.514 229.604 119.782C230.024 119.05 230.6 118.48 231.332 118.072C232.064 117.664 232.886 117.46 233.798 117.46C234.71 117.46 235.532 117.664 236.264 118.072C236.996 118.48 237.566 119.05 237.974 119.782C238.394 120.514 238.604 121.342 238.604 122.266C238.604 123.19 238.394 124.018 237.974 124.75C237.566 125.482 236.996 126.058 236.264 126.478C235.532 126.886 234.71 127.09 233.798 127.09ZM233.798 125.956C234.47 125.956 235.07 125.806 235.598 125.506C236.138 125.194 236.558 124.756 236.858 124.192C237.158 123.628 237.308 122.986 237.308 122.266C237.308 121.546 237.158 120.904 236.858 120.34C236.558 119.776 236.138 119.344 235.598 119.044C235.07 118.732 234.47 118.576 233.798 118.576C233.126 118.576 232.52 118.732 231.98 119.044C231.452 119.344 231.032 119.776 230.72 120.34C230.42 120.904 230.27 121.546 230.27 122.266C230.27 122.986 230.42 123.628 230.72 124.192C231.032 124.756 231.452 125.194 231.98 125.506C232.52 125.806 233.126 125.956 233.798 125.956ZM253.022 117.46C254.21 117.46 255.14 117.802 255.812 118.486C256.496 119.17 256.838 120.178 256.838 121.51V127H255.56V121.636C255.56 120.652 255.32 119.902 254.84 119.386C254.372 118.87 253.706 118.612 252.842 118.612C251.858 118.612 251.084 118.918 250.52 119.53C249.956 120.13 249.674 120.964 249.674 122.032V127H248.396V121.636C248.396 120.652 248.156 119.902 247.676 119.386C247.208 118.87 246.536 118.612 245.66 118.612C244.688 118.612 243.914 118.918 243.338 119.53C242.774 120.13 242.492 120.964 242.492 122.032V127H241.214V117.532H242.438V119.26C242.774 118.684 243.242 118.24 243.842 117.928C244.442 117.616 245.132 117.46 245.912 117.46C246.704 117.46 247.388 117.628 247.964 117.964C248.552 118.3 248.99 118.798 249.278 119.458C249.626 118.834 250.124 118.348 250.772 118C251.432 117.64 252.182 117.46 253.022 117.46ZM28.2395 171.552V176.502H34.7555V177.654H28.2395V183H26.9075V170.4H35.5475V171.552H28.2395ZM39.0763 175.386C39.3763 174.75 39.8203 174.27 40.4083 173.946C41.0083 173.622 41.7463 173.46 42.6223 173.46V174.702L42.3163 174.684C41.3203 174.684 40.5403 174.99 39.9763 175.602C39.4123 176.214 39.1303 177.072 39.1303 178.176V183H37.8523V173.532H39.0763V175.386ZM48.7184 183.09C47.8064 183.09 46.9844 182.886 46.2524 182.478C45.5204 182.058 44.9444 181.482 44.5244 180.75C44.1044 180.018 43.8944 179.19 43.8944 178.266C43.8944 177.342 44.1044 176.514 44.5244 175.782C44.9444 175.05 45.5204 174.48 46.2524 174.072C46.9844 173.664 47.8064 173.46 48.7184 173.46C49.6304 173.46 50.4524 173.664 51.1844 174.072C51.9164 174.48 52.4864 175.05 52.8944 175.782C53.3144 176.514 53.5244 177.342 53.5244 178.266C53.5244 179.19 53.3144 180.018 52.8944 180.75C52.4864 181.482 51.9164 182.058 51.1844 182.478C50.4524 182.886 49.6304 183.09 48.7184 183.09ZM48.7184 181.956C49.3904 181.956 49.9904 181.806 50.5184 181.506C51.0584 181.194 51.4784 180.756 51.7784 180.192C52.0784 179.628 52.2284 178.986 52.2284 178.266C52.2284 177.546 52.0784 176.904 51.7784 176.34C51.4784 175.776 51.0584 175.344 50.5184 175.044C49.9904 174.732 49.3904 174.576 48.7184 174.576C48.0464 174.576 47.4404 174.732 46.9004 175.044C46.3724 175.344 45.9524 175.776 45.6404 176.34C45.3404 176.904 45.1904 177.546 45.1904 178.266C45.1904 178.986 45.3404 179.628 45.6404 180.192C45.9524 180.756 46.3724 181.194 46.9004 181.506C47.4404 181.806 48.0464 181.956 48.7184 181.956ZM67.9416 173.46C69.1296 173.46 70.0596 173.802 70.7316 174.486C71.4156 175.17 71.7576 176.178 71.7576 177.51V183H70.4796V177.636C70.4796 176.652 70.2396 175.902 69.7596 175.386C69.2916 174.87 68.6256 174.612 67.7616 174.612C66.7776 174.612 66.0036 174.918 65.4396 175.53C64.8756 176.13 64.5936 176.964 64.5936 178.032V183H63.3156V177.636C63.3156 176.652 63.0756 175.902 62.5956 175.386C62.1276 174.87 61.4556 174.612 60.5796 174.612C59.6076 174.612 58.8336 174.918 58.2576 175.53C57.6936 176.13 57.4116 176.964 57.4116 178.032V183H56.1336V173.532H57.3576V175.26C57.6936 174.684 58.1616 174.24 58.7616 173.928C59.3616 173.616 60.0516 173.46 60.8316 173.46C61.6236 173.46 62.3076 173.628 62.8836 173.964C63.4716 174.3 63.9096 174.798 64.1976 175.458C64.5456 174.834 65.0436 174.348 65.6916 174C66.3516 173.64 67.1016 173.46 67.9416 173.46ZM84.1103 183.108C83.1383 183.108 82.2683 182.85 81.5003 182.334C80.7443 181.818 80.1503 181.08 79.7183 180.12C79.2983 179.148 79.0883 178.008 79.0883 176.7C79.0883 175.392 79.2983 174.258 79.7183 173.298C80.1503 172.326 80.7443 171.582 81.5003 171.066C82.2683 170.55 83.1383 170.292 84.1103 170.292C85.0823 170.292 85.9463 170.55 86.7023 171.066C87.4703 171.582 88.0703 172.326 88.5023 173.298C88.9343 174.258 89.1503 175.392 89.1503 176.7C89.1503 178.008 88.9343 179.148 88.5023 180.12C88.0703 181.08 87.4703 181.818 86.7023 182.334C85.9463 182.85 85.0823 183.108 84.1103 183.108ZM84.1103 181.92C84.8423 181.92 85.4843 181.716 86.0363 181.308C86.6003 180.9 87.0383 180.306 87.3503 179.526C87.6623 178.746 87.8183 177.804 87.8183 176.7C87.8183 175.596 87.6623 174.654 87.3503 173.874C87.0383 173.094 86.6003 172.5 86.0363 172.092C85.4843 171.684 84.8423 171.48 84.1103 171.48C83.3783 171.48 82.7303 171.684 82.1663 172.092C81.6143 172.5 81.1823 173.094 80.8703 173.874C80.5583 174.654 80.4023 175.596 80.4023 176.7C80.4023 177.804 80.5583 178.746 80.8703 179.526C81.1823 180.306 81.6143 180.9 82.1663 181.308C82.7303 181.716 83.3783 181.92 84.1103 181.92ZM99.7577 170.4V171.318L94.4837 183H93.0797L98.2637 171.552H91.7837V173.91H90.5057V170.4H99.7577ZM102.086 175.422C101.822 175.422 101.594 175.326 101.402 175.134C101.222 174.942 101.132 174.708 101.132 174.432C101.132 174.156 101.222 173.928 101.402 173.748C101.594 173.556 101.822 173.46 102.086 173.46C102.35 173.46 102.578 173.556 102.77 173.748C102.962 173.928 103.058 174.156 103.058 174.432C103.058 174.708 102.962 174.942 102.77 175.134C102.578 175.326 102.35 175.422 102.086 175.422ZM102.086 183.09C101.822 183.09 101.594 182.994 101.402 182.802C101.222 182.61 101.132 182.376 101.132 182.1C101.132 181.824 101.222 181.596 101.402 181.416C101.594 181.224 101.822 181.128 102.086 181.128C102.35 181.128 102.578 181.224 102.77 181.416C102.962 181.596 103.058 181.824 103.058 182.1C103.058 182.376 102.962 182.61 102.77 182.802C102.578 182.994 102.35 183.09 102.086 183.09ZM109.95 183.108C108.978 183.108 108.108 182.85 107.34 182.334C106.584 181.818 105.99 181.08 105.558 180.12C105.138 179.148 104.928 178.008 104.928 176.7C104.928 175.392 105.138 174.258 105.558 173.298C105.99 172.326 106.584 171.582 107.34 171.066C108.108 170.55 108.978 170.292 109.95 170.292C110.922 170.292 111.786 170.55 112.542 171.066C113.31 171.582 113.91 172.326 114.342 173.298C114.774 174.258 114.99 175.392 114.99 176.7C114.99 178.008 114.774 179.148 114.342 180.12C113.91 181.08 113.31 181.818 112.542 182.334C111.786 182.85 110.922 183.108 109.95 183.108ZM109.95 181.92C110.682 181.92 111.324 181.716 111.876 181.308C112.44 180.9 112.878 180.306 113.19 179.526C113.502 178.746 113.658 177.804 113.658 176.7C113.658 175.596 113.502 174.654 113.19 173.874C112.878 173.094 112.44 172.5 111.876 172.092C111.324 171.684 110.682 171.48 109.95 171.48C109.218 171.48 108.57 171.684 108.006 172.092C107.454 172.5 107.022 173.094 106.71 173.874C106.398 174.654 106.242 175.596 106.242 176.7C106.242 177.804 106.398 178.746 106.71 179.526C107.022 180.306 107.454 180.9 108.006 181.308C108.57 181.716 109.218 181.92 109.95 181.92ZM120.158 175.566C121.982 175.566 123.308 175.896 124.136 176.556C124.976 177.204 125.396 178.116 125.396 179.292C125.396 180.024 125.222 180.678 124.874 181.254C124.538 181.83 124.028 182.286 123.344 182.622C122.66 182.946 121.82 183.108 120.824 183.108C119.924 183.108 119.066 182.964 118.25 182.676C117.446 182.376 116.798 181.98 116.306 181.488L116.936 180.462C117.356 180.894 117.908 181.248 118.592 181.524C119.276 181.788 120.014 181.92 120.806 181.92C121.85 181.92 122.654 181.686 123.218 181.218C123.794 180.75 124.082 180.126 124.082 179.346C124.082 178.482 123.758 177.828 123.11 177.384C122.474 176.94 121.394 176.718 119.87 176.718H117.188L117.836 170.4H124.73V171.552H118.97L118.538 175.566H120.158ZM136.059 179.634H129.039L127.527 183H126.141L131.901 170.4H133.215L138.975 183H137.571L136.059 179.634ZM135.573 178.554L132.549 171.786L129.525 178.554H135.573ZM154.146 170.4V183H152.868V172.92L147.918 181.398H147.288L142.338 172.974V183H141.06V170.4H142.158L147.63 179.742L153.048 170.4H154.146ZM167.678 182.424C167.438 182.64 167.138 182.808 166.778 182.928C166.43 183.036 166.064 183.09 165.68 183.09C164.792 183.09 164.108 182.85 163.628 182.37C163.148 181.89 162.908 181.212 162.908 180.336V174.612H161.216V173.532H162.908V171.462H164.186V173.532H167.066V174.612H164.186V180.264C164.186 180.828 164.324 181.26 164.6 181.56C164.888 181.848 165.296 181.992 165.824 181.992C166.088 181.992 166.34 181.95 166.58 181.866C166.832 181.782 167.048 181.662 167.228 181.506L167.678 182.424ZM173.541 183.09C172.629 183.09 171.807 182.886 171.075 182.478C170.343 182.058 169.767 181.482 169.347 180.75C168.927 180.018 168.717 179.19 168.717 178.266C168.717 177.342 168.927 176.514 169.347 175.782C169.767 175.05 170.343 174.48 171.075 174.072C171.807 173.664 172.629 173.46 173.541 173.46C174.453 173.46 175.275 173.664 176.007 174.072C176.739 174.48 177.309 175.05 177.717 175.782C178.137 176.514 178.347 177.342 178.347 178.266C178.347 179.19 178.137 180.018 177.717 180.75C177.309 181.482 176.739 182.058 176.007 182.478C175.275 182.886 174.453 183.09 173.541 183.09ZM173.541 181.956C174.213 181.956 174.813 181.806 175.341 181.506C175.881 181.194 176.301 180.756 176.601 180.192C176.901 179.628 177.051 178.986 177.051 178.266C177.051 177.546 176.901 176.904 176.601 176.34C176.301 175.776 175.881 175.344 175.341 175.044C174.813 174.732 174.213 174.576 173.541 174.576C172.869 174.576 172.263 174.732 171.723 175.044C171.195 175.344 170.775 175.776 170.463 176.34C170.163 176.904 170.013 177.546 170.013 178.266C170.013 178.986 170.163 179.628 170.463 180.192C170.775 180.756 171.195 181.194 171.723 181.506C172.263 181.806 172.869 181.956 173.541 181.956ZM188.313 170.4V183H187.017V171.552H184.047V170.4H188.313ZM195.249 170.292C196.917 170.292 198.195 170.844 199.083 171.948C199.971 173.04 200.415 174.588 200.415 176.592C200.415 177.996 200.175 179.184 199.695 180.156C199.215 181.128 198.543 181.866 197.679 182.37C196.815 182.862 195.807 183.108 194.655 183.108C193.407 183.108 192.411 182.88 191.667 182.424L192.189 181.38C192.789 181.776 193.605 181.974 194.637 181.974C196.029 181.974 197.121 181.536 197.913 180.66C198.705 179.772 199.101 178.488 199.101 176.808C199.101 176.496 199.083 176.154 199.047 175.782C198.735 176.466 198.237 177 197.553 177.384C196.869 177.756 196.083 177.942 195.195 177.942C194.367 177.942 193.629 177.786 192.981 177.474C192.345 177.162 191.847 176.724 191.487 176.16C191.127 175.584 190.947 174.918 190.947 174.162C190.947 173.394 191.133 172.716 191.505 172.128C191.877 171.54 192.387 171.09 193.035 170.778C193.695 170.454 194.433 170.292 195.249 170.292ZM195.393 176.844C196.029 176.844 196.587 176.724 197.067 176.484C197.559 176.244 197.943 175.914 198.219 175.494C198.495 175.074 198.633 174.606 198.633 174.09C198.633 173.61 198.501 173.166 198.237 172.758C197.985 172.35 197.607 172.02 197.103 171.768C196.599 171.516 195.999 171.39 195.303 171.39C194.391 171.39 193.647 171.642 193.071 172.146C192.507 172.638 192.225 173.298 192.225 174.126C192.225 174.954 192.507 175.614 193.071 176.106C193.647 176.598 194.421 176.844 195.393 176.844ZM203.265 175.422C203.001 175.422 202.773 175.326 202.581 175.134C202.401 174.942 202.311 174.708 202.311 174.432C202.311 174.156 202.401 173.928 202.581 173.748C202.773 173.556 203.001 173.46 203.265 173.46C203.529 173.46 203.757 173.556 203.949 173.748C204.141 173.928 204.237 174.156 204.237 174.432C204.237 174.708 204.141 174.942 203.949 175.134C203.757 175.326 203.529 175.422 203.265 175.422ZM203.265 183.09C203.001 183.09 202.773 182.994 202.581 182.802C202.401 182.61 202.311 182.376 202.311 182.1C202.311 181.824 202.401 181.596 202.581 181.416C202.773 181.224 203.001 181.128 203.265 181.128C203.529 181.128 203.757 181.224 203.949 181.416C204.141 181.596 204.237 181.824 204.237 182.1C204.237 182.376 204.141 182.61 203.949 182.802C203.757 182.994 203.529 183.09 203.265 183.09ZM210.392 175.8C211.712 175.872 212.714 176.232 213.398 176.88C214.094 177.516 214.442 178.35 214.442 179.382C214.442 180.102 214.268 180.744 213.92 181.308C213.572 181.86 213.056 182.298 212.372 182.622C211.688 182.946 210.854 183.108 209.87 183.108C208.958 183.108 208.094 182.964 207.278 182.676C206.474 182.376 205.826 181.98 205.334 181.488L205.964 180.462C206.384 180.894 206.942 181.248 207.638 181.524C208.334 181.788 209.078 181.92 209.87 181.92C210.902 181.92 211.7 181.698 212.264 181.254C212.828 180.798 213.11 180.174 213.11 179.382C213.11 178.602 212.828 177.99 212.264 177.546C211.7 177.102 210.848 176.88 209.708 176.88H208.808V175.926L212.3 171.552H205.856V170.4H213.956V171.318L210.392 175.8ZM221.29 183.108C220.318 183.108 219.448 182.85 218.68 182.334C217.924 181.818 217.33 181.08 216.898 180.12C216.478 179.148 216.268 178.008 216.268 176.7C216.268 175.392 216.478 174.258 216.898 173.298C217.33 172.326 217.924 171.582 218.68 171.066C219.448 170.55 220.318 170.292 221.29 170.292C222.262 170.292 223.126 170.55 223.882 171.066C224.65 171.582 225.25 172.326 225.682 173.298C226.114 174.258 226.33 175.392 226.33 176.7C226.33 178.008 226.114 179.148 225.682 180.12C225.25 181.08 224.65 181.818 223.882 182.334C223.126 182.85 222.262 183.108 221.29 183.108ZM221.29 181.92C222.022 181.92 222.664 181.716 223.216 181.308C223.78 180.9 224.218 180.306 224.53 179.526C224.842 178.746 224.998 177.804 224.998 176.7C224.998 175.596 224.842 174.654 224.53 173.874C224.218 173.094 223.78 172.5 223.216 172.092C222.664 171.684 222.022 171.48 221.29 171.48C220.558 171.48 219.91 171.684 219.346 172.092C218.794 172.5 218.362 173.094 218.05 173.874C217.738 174.654 217.582 175.596 217.582 176.7C217.582 177.804 217.738 178.746 218.05 179.526C218.362 180.306 218.794 180.9 219.346 181.308C219.91 181.716 220.558 181.92 221.29 181.92ZM234.018 170.4C235.626 170.4 236.886 170.784 237.798 171.552C238.71 172.32 239.166 173.376 239.166 174.72C239.166 176.064 238.71 177.12 237.798 177.888C236.886 178.644 235.626 179.022 234.018 179.022H230.634V183H229.302V170.4H234.018ZM233.982 177.852C235.23 177.852 236.184 177.582 236.844 177.042C237.504 176.49 237.834 175.716 237.834 174.72C237.834 173.7 237.504 172.92 236.844 172.38C236.184 171.828 235.23 171.552 233.982 171.552H230.634V177.852H233.982ZM255.132 170.4V183H253.854V172.92L248.904 181.398H248.274L243.324 172.974V183H242.046V170.4H243.144L248.616 179.742L254.034 170.4H255.132Z" fill="black"/>
</svg>
