<svg width="171" height="230" viewBox="0 0 171 230" fill="none" xmlns="http://www.w3.org/2000/svg">
<path d="M125.5 0H45.5V80H125.5V0Z" fill="#BC85F3"/>
<path d="M118.796 6.7041H52.2047V73.2953H118.796V6.7041Z" fill="#252653"/>
<path fill-rule="evenodd" clip-rule="evenodd" d="M77.6632 49.1828L80.4495 58.4514H88.2758L77.1618 21.1482C77.1411 21.0806 77.0894 21.0338 76.9809 21.0338L67.7847 21.0078C67.428 21.0078 67.4177 21.1951 67.4487 21.5487C67.5624 22.8334 67.5004 23.5512 67.2368 24.555L57.3841 58.4566L64.8072 58.4462L67.1179 49.1776L77.6632 49.1828ZM76.3296 42.4629H68.71L72.4061 27.4469L76.3296 42.4629ZM97.4048 46.1713L111.77 46.1921C112.675 45.0271 112.84 42.8373 112.814 41.4018C112.716 35.5764 108.881 30.0007 101.954 29.9643C90.3228 29.8967 88.1207 44.6942 92.0804 53.2294C93.3262 55.9132 95.8281 57.6192 98.7643 58.4306C100.103 58.7999 101.525 58.9871 102.962 58.9923C105.805 59.0027 108.695 58.311 111.016 56.9795C111.052 56.9587 111.114 56.9587 111.119 56.917V56.7506L111.114 51.9291C111.114 51.7106 110.948 51.5858 110.7 51.6638C107.764 52.5532 97.8183 55.3931 97.3582 46.4418C97.3531 46.3742 97.3376 46.1713 97.4048 46.1713ZM104.606 41.3394H97.291C97.3272 37.4281 99.1106 35.2071 101.866 35.1967C104.368 35.1863 105.96 36.934 106.037 41.2458C106.037 41.4434 106.037 41.3394 106.037 41.3394H104.606Z" fill="#BC85F3"/>
<path d="M70.1539 120L69.4293 117.621H65.7857L65.0611 120H62.7779L66.3052 109.965H68.8961L72.4371 120H70.1539ZM68.9234 115.844L68.1988 113.52C68.1532 113.365 68.0917 113.166 68.0142 112.925C67.9413 112.679 67.8661 112.43 67.7886 112.18C67.7157 111.924 67.6565 111.703 67.6109 111.517C67.5653 111.703 67.5015 111.936 67.4195 112.214C67.342 112.487 67.2668 112.747 67.1939 112.993C67.121 113.239 67.0686 113.415 67.0367 113.52L66.3189 115.844H68.9234ZM76.2376 120.137C75.3854 120.137 74.6904 119.804 74.1526 119.139C73.6194 118.469 73.3528 117.487 73.3528 116.192C73.3528 114.884 73.624 113.896 74.1663 113.226C74.7086 112.551 75.4173 112.214 76.2923 112.214C76.6569 112.214 76.9781 112.264 77.2561 112.364C77.5341 112.465 77.7734 112.599 77.9739 112.768C78.179 112.936 78.3522 113.125 78.4934 113.335H78.5618C78.5345 113.189 78.5003 112.975 78.4593 112.692C78.4228 112.405 78.4046 112.111 78.4046 111.811V109.363H80.4964V120H78.8968L78.4934 119.009H78.4046C78.2724 119.218 78.1061 119.41 77.9055 119.583C77.7096 119.752 77.4749 119.886 77.2014 119.986C76.928 120.087 76.6067 120.137 76.2376 120.137ZM76.969 118.476C77.5387 118.476 77.9397 118.307 78.1721 117.97C78.4091 117.628 78.5345 117.115 78.5481 116.432V116.206C78.5481 115.463 78.4342 114.896 78.2063 114.504C77.9785 114.107 77.5546 113.909 76.9348 113.909C76.4746 113.909 76.1145 114.107 75.8548 114.504C75.595 114.9 75.4651 115.472 75.4651 116.22C75.4651 116.967 75.595 117.53 75.8548 117.908C76.1191 118.286 76.4905 118.476 76.969 118.476ZM89.9023 116.165C89.9023 116.803 89.8158 117.368 89.6426 117.86C89.474 118.353 89.2256 118.77 88.8975 119.111C88.5739 119.449 88.182 119.704 87.7217 119.877C87.266 120.05 86.751 120.137 86.1768 120.137C85.639 120.137 85.1445 120.05 84.6934 119.877C84.2467 119.704 83.8571 119.449 83.5244 119.111C83.1963 118.77 82.9411 118.353 82.7588 117.86C82.5811 117.368 82.4922 116.803 82.4922 116.165C82.4922 115.317 82.6426 114.6 82.9434 114.012C83.2441 113.424 83.6725 112.977 84.2285 112.672C84.7845 112.367 85.4476 112.214 86.2178 112.214C86.9333 112.214 87.5667 112.367 88.1182 112.672C88.6742 112.977 89.1094 113.424 89.4238 114.012C89.7428 114.6 89.9023 115.317 89.9023 116.165ZM84.6182 116.165C84.6182 116.666 84.6729 117.088 84.7822 117.43C84.8916 117.771 85.0625 118.029 85.2949 118.202C85.5273 118.375 85.8304 118.462 86.2041 118.462C86.5732 118.462 86.8717 118.375 87.0996 118.202C87.332 118.029 87.5007 117.771 87.6055 117.43C87.7148 117.088 87.7695 116.666 87.7695 116.165C87.7695 115.659 87.7148 115.24 87.6055 114.907C87.5007 114.57 87.332 114.317 87.0996 114.148C86.8672 113.98 86.5641 113.896 86.1904 113.896C85.639 113.896 85.238 114.085 84.9873 114.463C84.7412 114.841 84.6182 115.409 84.6182 116.165ZM93.99 109.363V111.838C93.99 112.125 93.9808 112.41 93.9626 112.692C93.9489 112.975 93.9307 113.194 93.9079 113.349H93.99C94.1905 113.034 94.4639 112.768 94.8103 112.549C95.1566 112.326 95.6055 112.214 96.157 112.214C97.0137 112.214 97.7087 112.549 98.2419 113.219C98.7751 113.889 99.0417 114.871 99.0417 116.165C99.0417 117.035 98.9187 117.767 98.6726 118.359C98.4265 118.947 98.0824 119.392 97.6404 119.692C97.1983 119.989 96.6856 120.137 96.1023 120.137C95.5417 120.137 95.0997 120.036 94.7761 119.836C94.4525 119.635 94.1905 119.41 93.99 119.159H93.8464L93.4978 120H91.905V109.363H93.99ZM95.487 113.882C95.1224 113.882 94.8331 113.957 94.6189 114.107C94.4047 114.258 94.2474 114.483 94.1472 114.784C94.0515 115.085 93.9991 115.465 93.99 115.926V116.151C93.99 116.894 94.0993 117.464 94.3181 117.86C94.5368 118.252 94.9356 118.448 95.5144 118.448C95.9428 118.448 96.2823 118.25 96.5329 117.854C96.7881 117.457 96.9157 116.885 96.9157 116.138C96.9157 115.39 96.7881 114.827 96.5329 114.449C96.2777 114.071 95.9291 113.882 95.487 113.882ZM104.196 112.214C104.902 112.214 105.511 112.351 106.021 112.624C106.531 112.893 106.926 113.285 107.204 113.8C107.482 114.315 107.621 114.944 107.621 115.687V116.698H102.692C102.715 117.286 102.89 117.749 103.218 118.086C103.551 118.419 104.011 118.585 104.599 118.585C105.087 118.585 105.533 118.535 105.939 118.435C106.345 118.334 106.761 118.184 107.19 117.983V119.597C106.812 119.784 106.415 119.92 106 120.007C105.59 120.093 105.091 120.137 104.503 120.137C103.738 120.137 103.059 119.995 102.466 119.713C101.878 119.43 101.416 119 101.079 118.421C100.746 117.842 100.58 117.113 100.58 116.233C100.58 115.34 100.73 114.597 101.031 114.005C101.336 113.408 101.76 112.961 102.302 112.665C102.845 112.364 103.476 112.214 104.196 112.214ZM104.209 113.697C103.804 113.697 103.467 113.827 103.198 114.087C102.933 114.347 102.781 114.755 102.74 115.311H105.665C105.661 115.001 105.604 114.725 105.495 114.483C105.39 114.242 105.23 114.05 105.016 113.909C104.806 113.768 104.538 113.697 104.209 113.697ZM48.0098 139L47.2852 136.621H43.6416L42.917 139H40.6338L44.1612 128.965H46.752L50.293 139H48.0098ZM46.7793 134.844L46.0547 132.52C46.0092 132.365 45.9476 132.166 45.8702 131.925C45.7972 131.679 45.722 131.43 45.6446 131.18C45.5717 130.924 45.5124 130.703 45.4668 130.517C45.4213 130.703 45.3575 130.936 45.2754 131.214C45.198 131.487 45.1228 131.747 45.0498 131.993C44.9769 132.239 44.9245 132.415 44.8926 132.52L44.1748 134.844H46.7793ZM55.8982 132.923H54.0935V139H52.0086V132.923H50.8601V131.918L52.0086 131.357V130.797C52.0086 130.145 52.1179 129.639 52.3367 129.279C52.56 128.915 52.8722 128.66 53.2732 128.514C53.6788 128.363 54.1573 128.288 54.7087 128.288C55.1143 128.288 55.4835 128.322 55.8162 128.391C56.1489 128.454 56.42 128.527 56.6296 128.609L56.0964 130.141C55.9369 130.09 55.7638 130.045 55.5769 130.004C55.3901 129.963 55.1759 129.942 54.9343 129.942C54.6427 129.942 54.4285 130.031 54.2918 130.209C54.1596 130.382 54.0935 130.605 54.0935 130.879V131.357H55.8982V132.923ZM60.6011 137.476C60.8289 137.476 61.0499 137.453 61.2641 137.407C61.4829 137.362 61.6994 137.305 61.9136 137.236V138.788C61.6902 138.888 61.4123 138.97 61.0796 139.034C60.7514 139.103 60.3914 139.137 59.9995 139.137C59.5438 139.137 59.1336 139.064 58.769 138.918C58.409 138.768 58.1242 138.51 57.9145 138.146C57.7095 137.776 57.6069 137.264 57.6069 136.607V132.923H56.6089V132.041L57.7573 131.344L58.3589 129.73H59.6919V131.357H61.8315V132.923H59.6919V136.607C59.6919 136.899 59.7739 137.118 59.938 137.264C60.1066 137.405 60.3276 137.476 60.6011 137.476ZM66.8967 131.214C67.6031 131.214 68.2115 131.351 68.7219 131.624C69.2323 131.893 69.6265 132.285 69.9045 132.8C70.1825 133.315 70.3215 133.944 70.3215 134.687V135.698H65.3928C65.4156 136.286 65.591 136.749 65.9191 137.086C66.2518 137.419 66.7121 137.585 67.3 137.585C67.7876 137.585 68.2342 137.535 68.6398 137.435C69.0454 137.334 69.4624 137.184 69.8908 136.983V138.597C69.5126 138.784 69.1161 138.92 68.7014 139.007C68.2912 139.093 67.7922 139.137 67.2043 139.137C66.4387 139.137 65.7596 138.995 65.1672 138.713C64.5793 138.43 64.1167 138 63.7795 137.421C63.4468 136.842 63.2805 136.113 63.2805 135.233C63.2805 134.34 63.4309 133.597 63.7316 133.005C64.037 132.408 64.4608 131.961 65.0031 131.665C65.5454 131.364 66.1766 131.214 66.8967 131.214ZM66.9104 132.697C66.5048 132.697 66.1675 132.827 65.8986 133.087C65.6343 133.347 65.4816 133.755 65.4406 134.311H68.3664C68.3618 134.001 68.3049 133.725 68.1955 133.483C68.0907 133.242 67.9312 133.05 67.717 132.909C67.5074 132.768 67.2385 132.697 66.9104 132.697ZM76.5624 131.214C76.6672 131.214 76.788 131.221 76.9247 131.234C77.066 131.243 77.1799 131.257 77.2665 131.275L77.1093 133.23C77.0409 133.208 76.943 133.192 76.8154 133.183C76.6923 133.169 76.5852 133.162 76.4941 133.162C76.2252 133.162 75.9631 133.196 75.7079 133.265C75.4573 133.333 75.2317 133.445 75.0312 133.6C74.8307 133.75 74.6711 133.951 74.5527 134.201C74.4387 134.447 74.3818 134.75 74.3818 135.11V139H72.2968V131.357H73.8759L74.1835 132.643H74.2861C74.4364 132.383 74.6233 132.146 74.8466 131.932C75.0745 131.713 75.332 131.54 75.6191 131.412C75.9107 131.28 76.2252 131.214 76.5624 131.214ZM88.7709 139H83.015V129.006H88.7709V130.742H85.1341V132.937H88.5179V134.673H85.1341V137.25H88.7709V139ZM95.2032 132.923H93.3985V139H91.3136V132.923H90.1651V131.918L91.3136 131.357V130.797C91.3136 130.145 91.4229 129.639 91.6417 129.279C91.865 128.915 92.1772 128.66 92.5782 128.514C92.9838 128.363 93.4623 128.288 94.0137 128.288C94.4193 128.288 94.7885 128.322 95.1212 128.391C95.4539 128.454 95.725 128.527 95.9346 128.609L95.4014 130.141C95.2419 130.09 95.0688 130.045 94.8819 130.004C94.6951 129.963 94.4809 129.942 94.2393 129.942C93.9477 129.942 93.7335 130.031 93.5968 130.209C93.4646 130.382 93.3985 130.605 93.3985 130.879V131.357H95.2032V132.923ZM100.624 132.923H98.8194V139H96.7345V132.923H95.586V131.918L96.7345 131.357V130.797C96.7345 130.145 96.8438 129.639 97.0626 129.279C97.2859 128.915 97.5981 128.66 97.9991 128.514C98.4047 128.363 98.8832 128.288 99.4346 128.288C99.8402 128.288 100.209 128.322 100.542 128.391C100.875 128.454 101.146 128.527 101.356 128.609L100.822 130.141C100.663 130.09 100.49 130.045 100.303 130.004C100.116 129.963 99.9018 129.942 99.6602 129.942C99.3686 129.942 99.1544 130.031 99.0177 130.209C98.8855 130.382 98.8194 130.605 98.8194 130.879V131.357H100.624V132.923ZM105.252 131.214C105.958 131.214 106.567 131.351 107.077 131.624C107.587 131.893 107.982 132.285 108.26 132.8C108.538 133.315 108.677 133.944 108.677 134.687V135.698H103.748C103.771 136.286 103.946 136.749 104.274 137.086C104.607 137.419 105.067 137.585 105.655 137.585C106.143 137.585 106.589 137.535 106.995 137.435C107.401 137.334 107.818 137.184 108.246 136.983V138.597C107.868 138.784 107.471 138.92 107.056 139.007C106.646 139.093 106.147 139.137 105.559 139.137C104.794 139.137 104.115 138.995 103.522 138.713C102.934 138.43 102.472 138 102.135 137.421C101.802 136.842 101.636 136.113 101.636 135.233C101.636 134.34 101.786 133.597 102.087 133.005C102.392 132.408 102.816 131.961 103.358 131.665C103.901 131.364 104.532 131.214 105.252 131.214ZM105.265 132.697C104.86 132.697 104.523 132.827 104.254 133.087C103.989 133.347 103.837 133.755 103.796 134.311H106.721C106.717 134.001 106.66 133.725 106.551 133.483C106.446 133.242 106.286 133.05 106.072 132.909C105.862 132.768 105.594 132.697 105.265 132.697ZM113.755 139.137C112.999 139.137 112.354 139 111.821 138.727C111.288 138.449 110.882 138.02 110.604 137.441C110.326 136.863 110.187 136.122 110.187 135.22C110.187 134.285 110.344 133.524 110.659 132.937C110.978 132.344 111.417 131.909 111.978 131.631C112.543 131.353 113.197 131.214 113.94 131.214C114.469 131.214 114.924 131.266 115.307 131.371C115.695 131.471 116.032 131.592 116.319 131.733L115.704 133.347C115.376 133.215 115.07 133.107 114.788 133.025C114.505 132.939 114.223 132.896 113.94 132.896C113.575 132.896 113.272 132.982 113.031 133.155C112.789 133.324 112.609 133.579 112.491 133.921C112.372 134.263 112.313 134.691 112.313 135.206C112.313 135.712 112.377 136.131 112.504 136.464C112.632 136.797 112.817 137.045 113.058 137.209C113.3 137.368 113.594 137.448 113.94 137.448C114.373 137.448 114.758 137.391 115.095 137.277C115.432 137.159 115.761 136.995 116.08 136.785V138.569C115.761 138.77 115.426 138.913 115.075 139C114.728 139.091 114.289 139.137 113.755 139.137ZM121.357 137.476C121.585 137.476 121.806 137.453 122.02 137.407C122.239 137.362 122.455 137.305 122.669 137.236V138.788C122.446 138.888 122.168 138.97 121.835 139.034C121.507 139.103 121.147 139.137 120.755 139.137C120.299 139.137 119.889 139.064 119.525 138.918C119.165 138.768 118.88 138.51 118.67 138.146C118.465 137.776 118.363 137.264 118.363 136.607V132.923H117.364V132.041L118.513 131.344L119.114 129.73H120.448V131.357H122.587V132.923H120.448V136.607C120.448 136.899 120.53 137.118 120.694 137.264C120.862 137.405 121.083 137.476 121.357 137.476ZM129.833 136.73C129.833 137.25 129.71 137.69 129.464 138.05C129.222 138.405 128.86 138.676 128.377 138.863C127.894 139.046 127.292 139.137 126.572 139.137C126.039 139.137 125.581 139.103 125.198 139.034C124.82 138.966 124.437 138.852 124.05 138.692V136.97C124.464 137.157 124.909 137.312 125.383 137.435C125.861 137.553 126.281 137.612 126.641 137.612C127.046 137.612 127.336 137.553 127.509 137.435C127.686 137.312 127.775 137.152 127.775 136.956C127.775 136.828 127.739 136.715 127.666 136.614C127.598 136.509 127.447 136.393 127.215 136.266C126.982 136.133 126.618 135.963 126.121 135.753C125.643 135.552 125.248 135.35 124.938 135.145C124.633 134.939 124.405 134.698 124.255 134.42C124.109 134.137 124.036 133.78 124.036 133.347C124.036 132.64 124.31 132.109 124.856 131.754C125.408 131.394 126.144 131.214 127.064 131.214C127.538 131.214 127.99 131.262 128.418 131.357C128.851 131.453 129.295 131.606 129.751 131.815L129.122 133.319C128.744 133.155 128.386 133.021 128.049 132.916C127.716 132.811 127.377 132.759 127.03 132.759C126.725 132.759 126.495 132.8 126.34 132.882C126.185 132.964 126.107 133.089 126.107 133.258C126.107 133.381 126.146 133.49 126.224 133.586C126.306 133.682 126.461 133.789 126.688 133.907C126.921 134.021 127.26 134.169 127.707 134.352C128.14 134.529 128.516 134.716 128.835 134.912C129.154 135.104 129.4 135.343 129.573 135.63C129.746 135.912 129.833 136.279 129.833 136.73Z" fill="#828282"/>
<path d="M7.41471 228.621C6.78429 229.112 6.14017 229.126 5.48235 228.662C4.82452 228.198 4.60525 227.584 4.82452 226.82L7.16802 219.249L1.20649 215.033C0.54867 214.569 0.350226 213.955 0.611163 213.191C0.871003 212.427 1.39836 212.045 2.19323 212.045H9.55264L11.9372 204.187C12.0743 203.805 12.287 203.511 12.5753 203.306C12.8626 203.102 13.1707 203 13.4996 203C13.8285 203 14.1366 203.102 14.4238 203.306C14.7122 203.511 14.9249 203.805 15.0619 204.187L17.4465 212.045H24.8059C25.6008 212.045 26.1287 212.427 26.3896 213.191C26.6495 213.955 26.4505 214.569 25.7927 215.033L19.8311 219.249L22.1746 226.82C22.3939 227.584 22.1746 228.198 21.5168 228.662C20.859 229.126 20.2149 229.112 19.5844 228.621L13.4996 223.996L7.41471 228.621Z" fill="#070707"/>
<path d="M43.4147 228.621C42.7843 229.112 42.1402 229.126 41.4823 228.662C40.8245 228.198 40.6053 227.584 40.8245 226.82L43.168 219.249L37.2065 215.033C36.5487 214.569 36.3502 213.955 36.6112 213.191C36.871 212.427 37.3984 212.045 38.1932 212.045H45.5526L47.9372 204.187C48.0743 203.805 48.287 203.511 48.5753 203.306C48.8626 203.102 49.1707 203 49.4996 203C49.8285 203 50.1366 203.102 50.4238 203.306C50.7122 203.511 50.9249 203.805 51.0619 204.187L53.4465 212.045H60.8059C61.6008 212.045 62.1287 212.427 62.3896 213.191C62.6495 213.955 62.4505 214.569 61.7927 215.033L55.8311 219.249L58.1746 226.82C58.3939 227.584 58.1746 228.198 57.5168 228.662C56.859 229.126 56.2149 229.112 55.5844 228.621L49.4996 223.996L43.4147 228.621Z" fill="#070707"/>
<path d="M79.4147 228.621C78.7843 229.112 78.1402 229.126 77.4823 228.662C76.8245 228.198 76.6053 227.584 76.8245 226.82L79.168 219.249L73.2065 215.033C72.5487 214.569 72.3502 213.955 72.6112 213.191C72.871 212.427 73.3984 212.045 74.1932 212.045H81.5526L83.9372 204.187C84.0743 203.805 84.287 203.511 84.5753 203.306C84.8626 203.102 85.1707 203 85.4996 203C85.8285 203 86.1366 203.102 86.4238 203.306C86.7122 203.511 86.9249 203.805 87.0619 204.187L89.4465 212.045H96.8059C97.6008 212.045 98.1287 212.427 98.3896 213.191C98.6495 213.955 98.4505 214.569 97.7927 215.033L91.8311 219.249L94.1746 226.82C94.3939 227.584 94.1746 228.198 93.5168 228.662C92.859 229.126 92.2149 229.112 91.5844 228.621L85.4996 223.996L79.4147 228.621Z" fill="#070707"/>
<path d="M115.415 228.621C114.784 229.112 114.14 229.126 113.482 228.662C112.825 228.198 112.605 227.584 112.825 226.82L115.168 219.249L109.206 215.033C108.549 214.569 108.35 213.955 108.611 213.191C108.871 212.427 109.398 212.045 110.193 212.045H117.553L119.937 204.187C120.074 203.805 120.287 203.511 120.575 203.306C120.863 203.102 121.171 203 121.5 203C121.828 203 122.137 203.102 122.424 203.306C122.712 203.511 122.925 203.805 123.062 204.187L125.447 212.045H132.806C133.601 212.045 134.129 212.427 134.39 213.191C134.649 213.955 134.45 214.569 133.793 215.033L127.831 219.249L130.175 226.82C130.394 227.584 130.175 228.198 129.517 228.662C128.859 229.126 128.215 229.112 127.584 228.621L121.5 223.996L115.415 228.621Z" fill="#070707"/>
<path d="M151.415 228.621C150.784 229.112 150.14 229.126 149.482 228.662C148.825 228.198 148.605 227.584 148.825 226.82L151.168 219.249L145.206 215.033C144.549 214.569 144.35 213.955 144.611 213.191C144.871 212.427 145.398 212.045 146.193 212.045H153.553L155.937 204.187C156.074 203.805 156.287 203.511 156.575 203.306C156.863 203.102 157.171 203 157.5 203C157.828 203 158.137 203.102 158.424 203.306C158.712 203.511 158.925 203.805 159.062 204.187L161.447 212.045H168.806C169.601 212.045 170.129 212.427 170.39 213.191C170.649 213.955 170.45 214.569 169.793 215.033L163.831 219.249L166.175 226.82C166.394 227.584 166.175 228.198 165.517 228.662C164.859 229.126 164.215 229.112 163.584 228.621L157.5 223.996L151.415 228.621Z" fill="#E5E5E5"/>
</svg>
