<svg width="171" height="230" viewBox="0 0 171 230" fill="none" xmlns="http://www.w3.org/2000/svg">
<path d="M125.5 0H45.5V80H125.5V0Z" fill="#FF7C00"/>
<path d="M118.796 6.7041H52.2047V73.2953H118.796V6.7041Z" fill="#261300"/>
<path d="M105.459 32.0449H99.1419C98.9792 32.0449 98.8473 32.1777 98.8473 32.3414V58.4359C98.8473 58.5997 98.9792 58.7324 99.1419 58.7324H105.459C105.622 58.7324 105.753 58.5997 105.753 58.4359V32.3414C105.753 32.1777 105.622 32.0449 105.459 32.0449Z" fill="#FF7C00"/>
<path d="M102.3 28.5183C104.327 28.5183 105.97 26.9372 105.97 24.9867C105.97 23.0362 104.327 21.4551 102.3 21.4551C100.273 21.4551 98.6299 23.0362 98.6299 24.9867C98.6299 26.9372 100.273 28.5183 102.3 28.5183Z" fill="#FF7C00"/>
<path fill-rule="evenodd" clip-rule="evenodd" d="M85.195 49.4013L87.7848 58.0301C87.9192 58.5399 88.1828 58.6647 88.5395 58.6595H95.1717C95.6835 58.6647 95.7197 58.5086 95.6421 58.1654L84.6884 21.4031C84.6677 21.3355 84.616 21.2887 84.5127 21.2887L75.3268 21.2627C74.965 21.2627 74.9598 21.4499 74.9908 21.8036C75.1045 23.0831 75.0425 23.8009 74.7737 24.8047L65.0761 58.1862C64.9727 58.5034 64.9986 58.6595 65.4121 58.6647L71.6721 58.6595C72.3338 58.6387 72.37 58.4566 72.4837 58.1238L74.6548 49.4013H85.195ZM83.8562 42.6917H76.2521L79.9378 27.6914L83.8562 42.6917Z" fill="#FF7C00"/>
<path d="M70.1539 120L69.4293 117.621H65.7857L65.0611 120H62.7779L66.3052 109.965H68.8961L72.4371 120H70.1539ZM68.9234 115.844L68.1988 113.52C68.1532 113.365 68.0917 113.166 68.0142 112.925C67.9413 112.679 67.8661 112.43 67.7886 112.18C67.7157 111.924 67.6565 111.703 67.6109 111.517C67.5653 111.703 67.5015 111.936 67.4195 112.214C67.342 112.487 67.2668 112.747 67.1939 112.993C67.121 113.239 67.0686 113.415 67.0367 113.52L66.3189 115.844H68.9234ZM76.2376 120.137C75.3854 120.137 74.6904 119.804 74.1526 119.139C73.6194 118.469 73.3528 117.487 73.3528 116.192C73.3528 114.884 73.624 113.896 74.1663 113.226C74.7086 112.551 75.4173 112.214 76.2923 112.214C76.6569 112.214 76.9781 112.264 77.2561 112.364C77.5341 112.465 77.7734 112.599 77.9739 112.768C78.179 112.936 78.3522 113.125 78.4934 113.335H78.5618C78.5345 113.189 78.5003 112.975 78.4593 112.692C78.4228 112.405 78.4046 112.111 78.4046 111.811V109.363H80.4964V120H78.8968L78.4934 119.009H78.4046C78.2724 119.218 78.1061 119.41 77.9055 119.583C77.7096 119.752 77.4749 119.886 77.2014 119.986C76.928 120.087 76.6067 120.137 76.2376 120.137ZM76.969 118.476C77.5387 118.476 77.9397 118.307 78.1721 117.97C78.4091 117.628 78.5345 117.115 78.5481 116.432V116.206C78.5481 115.463 78.4342 114.896 78.2063 114.504C77.9785 114.107 77.5546 113.909 76.9348 113.909C76.4746 113.909 76.1145 114.107 75.8548 114.504C75.595 114.9 75.4651 115.472 75.4651 116.22C75.4651 116.967 75.595 117.53 75.8548 117.908C76.1191 118.286 76.4905 118.476 76.969 118.476ZM89.9023 116.165C89.9023 116.803 89.8158 117.368 89.6426 117.86C89.474 118.353 89.2256 118.77 88.8975 119.111C88.5739 119.449 88.182 119.704 87.7217 119.877C87.266 120.05 86.751 120.137 86.1768 120.137C85.639 120.137 85.1445 120.05 84.6934 119.877C84.2467 119.704 83.8571 119.449 83.5244 119.111C83.1963 118.77 82.9411 118.353 82.7588 117.86C82.5811 117.368 82.4922 116.803 82.4922 116.165C82.4922 115.317 82.6426 114.6 82.9434 114.012C83.2441 113.424 83.6725 112.977 84.2285 112.672C84.7845 112.367 85.4476 112.214 86.2178 112.214C86.9333 112.214 87.5667 112.367 88.1182 112.672C88.6742 112.977 89.1094 113.424 89.4238 114.012C89.7428 114.6 89.9023 115.317 89.9023 116.165ZM84.6182 116.165C84.6182 116.666 84.6729 117.088 84.7822 117.43C84.8916 117.771 85.0625 118.029 85.2949 118.202C85.5273 118.375 85.8304 118.462 86.2041 118.462C86.5732 118.462 86.8717 118.375 87.0996 118.202C87.332 118.029 87.5007 117.771 87.6055 117.43C87.7148 117.088 87.7695 116.666 87.7695 116.165C87.7695 115.659 87.7148 115.24 87.6055 114.907C87.5007 114.57 87.332 114.317 87.0996 114.148C86.8672 113.98 86.5641 113.896 86.1904 113.896C85.639 113.896 85.238 114.085 84.9873 114.463C84.7412 114.841 84.6182 115.409 84.6182 116.165ZM93.99 109.363V111.838C93.99 112.125 93.9808 112.41 93.9626 112.692C93.9489 112.975 93.9307 113.194 93.9079 113.349H93.99C94.1905 113.034 94.4639 112.768 94.8103 112.549C95.1566 112.326 95.6055 112.214 96.157 112.214C97.0137 112.214 97.7087 112.549 98.2419 113.219C98.7751 113.889 99.0417 114.871 99.0417 116.165C99.0417 117.035 98.9187 117.767 98.6726 118.359C98.4265 118.947 98.0824 119.392 97.6404 119.692C97.1983 119.989 96.6856 120.137 96.1023 120.137C95.5417 120.137 95.0997 120.036 94.7761 119.836C94.4525 119.635 94.1905 119.41 93.99 119.159H93.8464L93.4978 120H91.905V109.363H93.99ZM95.487 113.882C95.1224 113.882 94.8331 113.957 94.6189 114.107C94.4047 114.258 94.2474 114.483 94.1472 114.784C94.0515 115.085 93.9991 115.465 93.99 115.926V116.151C93.99 116.894 94.0993 117.464 94.3181 117.86C94.5368 118.252 94.9356 118.448 95.5144 118.448C95.9428 118.448 96.2823 118.25 96.5329 117.854C96.7881 117.457 96.9157 116.885 96.9157 116.138C96.9157 115.39 96.7881 114.827 96.5329 114.449C96.2777 114.071 95.9291 113.882 95.487 113.882ZM104.196 112.214C104.902 112.214 105.511 112.351 106.021 112.624C106.531 112.893 106.926 113.285 107.204 113.8C107.482 114.315 107.621 114.944 107.621 115.687V116.698H102.692C102.715 117.286 102.89 117.749 103.218 118.086C103.551 118.419 104.011 118.585 104.599 118.585C105.087 118.585 105.533 118.535 105.939 118.435C106.345 118.334 106.761 118.184 107.19 117.983V119.597C106.812 119.784 106.415 119.92 106 120.007C105.59 120.093 105.091 120.137 104.503 120.137C103.738 120.137 103.059 119.995 102.466 119.713C101.878 119.43 101.416 119 101.079 118.421C100.746 117.842 100.58 117.113 100.58 116.233C100.58 115.34 100.73 114.597 101.031 114.005C101.336 113.408 101.76 112.961 102.302 112.665C102.845 112.364 103.476 112.214 104.196 112.214ZM104.209 113.697C103.804 113.697 103.467 113.827 103.198 114.087C102.933 114.347 102.781 114.755 102.74 115.311H105.665C105.661 115.001 105.604 114.725 105.495 114.483C105.39 114.242 105.23 114.05 105.016 113.909C104.806 113.768 104.538 113.697 104.209 113.697ZM49.6742 139V129.006H51.7934V139H49.6742ZM56.5099 139H54.4249V128.363H56.5099V139ZM61.0692 139H58.9842V128.363H61.0692V139ZM70.5572 131.357V139H68.9576L68.6773 138.022H68.5679C68.4039 138.282 68.1988 138.494 67.9527 138.658C67.7066 138.822 67.4354 138.943 67.1392 139.021C66.843 139.098 66.5354 139.137 66.2164 139.137C65.6695 139.137 65.1933 139.041 64.7877 138.85C64.3821 138.654 64.0653 138.351 63.8375 137.94C63.6142 137.53 63.5025 136.997 63.5025 136.341V131.357H65.5875V135.821C65.5875 136.368 65.6854 136.781 65.8814 137.059C66.0774 137.337 66.3895 137.476 66.8179 137.476C67.2418 137.476 67.5744 137.38 67.816 137.188C68.0575 136.993 68.2261 136.708 68.3218 136.334C68.4221 135.956 68.4722 135.495 68.4722 134.953V131.357H70.5572ZM78.3567 136.73C78.3567 137.25 78.2337 137.69 77.9876 138.05C77.746 138.405 77.3837 138.676 76.9007 138.863C76.4176 139.046 75.816 139.137 75.096 139.137C74.5628 139.137 74.1048 139.103 73.722 139.034C73.3437 138.966 72.9609 138.852 72.5735 138.692V136.97C72.9882 137.157 73.4326 137.312 73.9065 137.435C74.385 137.553 74.8043 137.612 75.1643 137.612C75.5699 137.612 75.8593 137.553 76.0325 137.435C76.2102 137.312 76.2991 137.152 76.2991 136.956C76.2991 136.828 76.2626 136.715 76.1897 136.614C76.1214 136.509 75.971 136.393 75.7386 136.266C75.5061 136.133 75.1415 135.963 74.6448 135.753C74.1663 135.552 73.7721 135.35 73.4622 135.145C73.1568 134.939 72.929 134.698 72.7786 134.42C72.6328 134.137 72.5598 133.78 72.5598 133.347C72.5598 132.64 72.8333 132.109 73.3802 131.754C73.9316 131.394 74.6676 131.214 75.5882 131.214C76.0621 131.214 76.5133 131.262 76.9417 131.357C77.3746 131.453 77.819 131.606 78.2747 131.815L77.6458 133.319C77.2675 133.155 76.9098 133.021 76.5725 132.916C76.2399 132.811 75.9003 132.759 75.554 132.759C75.2486 132.759 75.0185 132.8 74.8636 132.882C74.7086 132.964 74.6311 133.089 74.6311 133.258C74.6311 133.381 74.6699 133.49 74.7473 133.586C74.8294 133.682 74.9843 133.789 75.2122 133.907C75.4446 134.021 75.7841 134.169 76.2307 134.352C76.6637 134.529 77.0397 134.716 77.3587 134.912C77.6777 135.104 77.9238 135.343 78.097 135.63C78.2701 135.912 78.3567 136.279 78.3567 136.73ZM83.4834 137.476C83.7113 137.476 83.9323 137.453 84.1465 137.407C84.3652 137.362 84.5817 137.305 84.7959 137.236V138.788C84.5726 138.888 84.2946 138.97 83.9619 139.034C83.6338 139.103 83.2738 139.137 82.8818 139.137C82.4261 139.137 82.0159 139.064 81.6514 138.918C81.2913 138.768 81.0065 138.51 80.7969 138.146C80.5918 137.776 80.4893 137.264 80.4893 136.607V132.923H79.4912V132.041L80.6396 131.344L81.2412 129.73H82.5742V131.357H84.7139V132.923H82.5742V136.607C82.5742 136.899 82.6562 137.118 82.8203 137.264C82.9889 137.405 83.21 137.476 83.4834 137.476ZM90.8933 131.214C90.9981 131.214 91.1189 131.221 91.2556 131.234C91.3969 131.243 91.5108 131.257 91.5974 131.275L91.4402 133.23C91.3718 133.208 91.2738 133.192 91.1462 133.183C91.0232 133.169 90.9161 133.162 90.8249 133.162C90.556 133.162 90.294 133.196 90.0388 133.265C89.7881 133.333 89.5626 133.445 89.362 133.6C89.1615 133.75 89.002 133.951 88.8835 134.201C88.7696 134.447 88.7126 134.75 88.7126 135.11V139H86.6277V131.357H88.2068L88.5144 132.643H88.6169C88.7673 132.383 88.9542 132.146 89.1775 131.932C89.4053 131.713 89.6628 131.54 89.9499 131.412C90.2416 131.28 90.556 131.214 90.8933 131.214ZM96.3959 131.2C97.4213 131.2 98.2075 131.424 98.7543 131.87C99.3012 132.317 99.5746 132.996 99.5746 133.907V139H98.1186L97.7153 137.961H97.6606C97.4418 138.234 97.2185 138.458 96.9907 138.631C96.7628 138.804 96.5008 138.932 96.2045 139.014C95.9083 139.096 95.5483 139.137 95.1245 139.137C94.6733 139.137 94.2677 139.05 93.9077 138.877C93.5522 138.704 93.2719 138.439 93.0668 138.084C92.8618 137.724 92.7592 137.268 92.7592 136.717C92.7592 135.906 93.044 135.309 93.6137 134.926C94.1834 134.538 95.0379 134.324 96.1772 134.283L97.5034 134.242V133.907C97.5034 133.506 97.3985 133.212 97.1889 133.025C96.9793 132.839 96.6876 132.745 96.3139 132.745C95.9448 132.745 95.5825 132.798 95.227 132.902C94.8715 133.007 94.5161 133.139 94.1606 133.299L93.4702 131.891C93.8758 131.676 94.3292 131.508 94.8305 131.385C95.3364 131.262 95.8582 131.2 96.3959 131.2ZM97.5034 135.459L96.6967 135.486C96.0222 135.505 95.5528 135.625 95.2885 135.849C95.0287 136.072 94.8989 136.366 94.8989 136.73C94.8989 137.049 94.9923 137.277 95.1791 137.414C95.366 137.546 95.6098 137.612 95.9106 137.612C96.3572 137.612 96.7332 137.48 97.0385 137.216C97.3484 136.951 97.5034 136.576 97.5034 136.088V135.459ZM105.228 137.476C105.456 137.476 105.677 137.453 105.891 137.407C106.11 137.362 106.326 137.305 106.54 137.236V138.788C106.317 138.888 106.039 138.97 105.706 139.034C105.378 139.103 105.018 139.137 104.626 139.137C104.17 139.137 103.76 139.064 103.396 138.918C103.036 138.768 102.751 138.51 102.541 138.146C102.336 137.776 102.234 137.264 102.234 136.607V132.923H101.236V132.041L102.384 131.344L102.986 129.73H104.319V131.357H106.458V132.923H104.319V136.607C104.319 136.899 104.401 137.118 104.565 137.264C104.733 137.405 104.954 137.476 105.228 137.476ZM115.317 135.165C115.317 135.803 115.231 136.368 115.057 136.86C114.889 137.353 114.641 137.77 114.312 138.111C113.989 138.449 113.597 138.704 113.137 138.877C112.681 139.05 112.166 139.137 111.592 139.137C111.054 139.137 110.559 139.05 110.108 138.877C109.662 138.704 109.272 138.449 108.939 138.111C108.611 137.77 108.356 137.353 108.174 136.86C107.996 136.368 107.907 135.803 107.907 135.165C107.907 134.317 108.057 133.6 108.358 133.012C108.659 132.424 109.087 131.977 109.643 131.672C110.199 131.367 110.863 131.214 111.633 131.214C112.348 131.214 112.982 131.367 113.533 131.672C114.089 131.977 114.524 132.424 114.839 133.012C115.158 133.6 115.317 134.317 115.317 135.165ZM110.033 135.165C110.033 135.666 110.088 136.088 110.197 136.43C110.307 136.771 110.477 137.029 110.71 137.202C110.942 137.375 111.245 137.462 111.619 137.462C111.988 137.462 112.287 137.375 112.515 137.202C112.747 137.029 112.916 136.771 113.02 136.43C113.13 136.088 113.184 135.666 113.184 135.165C113.184 134.659 113.13 134.24 113.02 133.907C112.916 133.57 112.747 133.317 112.515 133.148C112.282 132.98 111.979 132.896 111.605 132.896C111.054 132.896 110.653 133.085 110.402 133.463C110.156 133.841 110.033 134.409 110.033 135.165ZM121.586 131.214C121.69 131.214 121.811 131.221 121.948 131.234C122.089 131.243 122.203 131.257 122.29 131.275L122.132 133.23C122.064 133.208 121.966 133.192 121.838 133.183C121.715 133.169 121.608 133.162 121.517 133.162C121.248 133.162 120.986 133.196 120.731 133.265C120.48 133.333 120.255 133.445 120.054 133.6C119.854 133.75 119.694 133.951 119.576 134.201C119.462 134.447 119.405 134.75 119.405 135.11V139H117.32V131.357H118.899L119.207 132.643H119.309C119.46 132.383 119.646 132.146 119.87 131.932C120.098 131.713 120.355 131.54 120.642 131.412C120.934 131.28 121.248 131.214 121.586 131.214Z" fill="#828282"/>
<path d="M7.41471 228.621C6.78429 229.112 6.14017 229.126 5.48235 228.662C4.82452 228.198 4.60525 227.584 4.82452 226.82L7.16802 219.249L1.20649 215.033C0.54867 214.569 0.350226 213.955 0.611163 213.191C0.871003 212.427 1.39836 212.045 2.19323 212.045H9.55264L11.9372 204.187C12.0743 203.805 12.287 203.511 12.5753 203.306C12.8626 203.102 13.1707 203 13.4996 203C13.8285 203 14.1366 203.102 14.4238 203.306C14.7122 203.511 14.9249 203.805 15.0619 204.187L17.4465 212.045H24.8059C25.6008 212.045 26.1287 212.427 26.3896 213.191C26.6495 213.955 26.4505 214.569 25.7927 215.033L19.8311 219.249L22.1746 226.82C22.3939 227.584 22.1746 228.198 21.5168 228.662C20.859 229.126 20.2149 229.112 19.5844 228.621L13.4996 223.996L7.41471 228.621Z" fill="#070707"/>
<path d="M43.4147 228.621C42.7843 229.112 42.1402 229.126 41.4823 228.662C40.8245 228.198 40.6053 227.584 40.8245 226.82L43.168 219.249L37.2065 215.033C36.5487 214.569 36.3502 213.955 36.6112 213.191C36.871 212.427 37.3984 212.045 38.1932 212.045H45.5526L47.9372 204.187C48.0743 203.805 48.287 203.511 48.5753 203.306C48.8626 203.102 49.1707 203 49.4996 203C49.8285 203 50.1366 203.102 50.4238 203.306C50.7122 203.511 50.9249 203.805 51.0619 204.187L53.4465 212.045H60.8059C61.6008 212.045 62.1287 212.427 62.3896 213.191C62.6495 213.955 62.4505 214.569 61.7927 215.033L55.8311 219.249L58.1746 226.82C58.3939 227.584 58.1746 228.198 57.5168 228.662C56.859 229.126 56.2149 229.112 55.5844 228.621L49.4996 223.996L43.4147 228.621Z" fill="#070707"/>
<path d="M79.4147 228.621C78.7843 229.112 78.1402 229.126 77.4823 228.662C76.8245 228.198 76.6053 227.584 76.8245 226.82L79.168 219.249L73.2065 215.033C72.5487 214.569 72.3502 213.955 72.6112 213.191C72.871 212.427 73.3984 212.045 74.1932 212.045H81.5526L83.9372 204.187C84.0743 203.805 84.287 203.511 84.5753 203.306C84.8626 203.102 85.1707 203 85.4996 203C85.8285 203 86.1366 203.102 86.4238 203.306C86.7122 203.511 86.9249 203.805 87.0619 204.187L89.4465 212.045H96.8059C97.6008 212.045 98.1287 212.427 98.3896 213.191C98.6495 213.955 98.4505 214.569 97.7927 215.033L91.8311 219.249L94.1746 226.82C94.3939 227.584 94.1746 228.198 93.5168 228.662C92.859 229.126 92.2149 229.112 91.5844 228.621L85.4996 223.996L79.4147 228.621Z" fill="#070707"/>
<path d="M115.415 228.621C114.784 229.112 114.14 229.126 113.482 228.662C112.825 228.198 112.605 227.584 112.825 226.82L115.168 219.249L109.206 215.033C108.549 214.569 108.35 213.955 108.611 213.191C108.871 212.427 109.398 212.045 110.193 212.045H117.553L119.937 204.187C120.074 203.805 120.287 203.511 120.575 203.306C120.863 203.102 121.171 203 121.5 203C121.828 203 122.137 203.102 122.424 203.306C122.712 203.511 122.925 203.805 123.062 204.187L125.447 212.045H132.806C133.601 212.045 134.129 212.427 134.39 213.191C134.649 213.955 134.45 214.569 133.793 215.033L127.831 219.249L130.175 226.82C130.394 227.584 130.175 228.198 129.517 228.662C128.859 229.126 128.215 229.112 127.584 228.621L121.5 223.996L115.415 228.621Z" fill="#E5E5E5"/>
<path d="M151.415 228.621C150.784 229.112 150.14 229.126 149.482 228.662C148.825 228.198 148.605 227.584 148.825 226.82L151.168 219.249L145.206 215.033C144.549 214.569 144.35 213.955 144.611 213.191C144.871 212.427 145.398 212.045 146.193 212.045H153.553L155.937 204.187C156.074 203.805 156.287 203.511 156.575 203.306C156.863 203.102 157.171 203 157.5 203C157.828 203 158.137 203.102 158.424 203.306C158.712 203.511 158.925 203.805 159.062 204.187L161.447 212.045H168.806C169.601 212.045 170.129 212.427 170.39 213.191C170.649 213.955 170.45 214.569 169.793 215.033L163.831 219.249L166.175 226.82C166.394 227.584 166.175 228.198 165.517 228.662C164.859 229.126 164.215 229.112 163.584 228.621L157.5 223.996L151.415 228.621Z" fill="#E5E5E5"/>
</svg>
