<svg width="171" height="230" viewBox="0 0 171 230" fill="none" xmlns="http://www.w3.org/2000/svg">
<path d="M72.1666 79.9997C79.5266 79.9997 85.4999 74.0263 85.4999 66.6663V53.333H72.1666C64.8066 53.333 58.8333 59.3063 58.8333 66.6663C58.8333 74.0263 64.8066 79.9997 72.1666 79.9997Z" fill="#0ACF83"/>
<path d="M58.8333 40.0003C58.8333 32.6403 64.8066 26.667 72.1666 26.667H85.4999V53.3337H72.1666C64.8066 53.3337 58.8333 47.3603 58.8333 40.0003Z" fill="#A259FF"/>
<path d="M58.8333 13.3333C58.8333 5.97333 64.8066 0 72.1666 0H85.4999V26.6667H72.1666C64.8066 26.6667 58.8333 20.6933 58.8333 13.3333Z" fill="#F24E1E"/>
<path d="M85.4999 0H98.8332C106.193 0 112.167 5.97333 112.167 13.3333C112.167 20.6933 106.193 26.6667 98.8332 26.6667H85.4999V0Z" fill="#FF7262"/>
<path d="M112.167 40.0003C112.167 47.3603 106.193 53.3337 98.8333 53.3337C91.4733 53.3337 85.5 47.3603 85.5 40.0003C85.5 32.6403 91.4733 26.667 98.8333 26.667C106.193 26.667 112.167 32.6403 112.167 40.0003Z" fill="#1ABCFE"/>
<path d="M67.2349 120H65.15V110.006H70.8785V111.742H67.2349V114.319H70.6255V116.049H67.2349V120ZM75.0345 112.357V120H72.9495V112.357H75.0345ZM73.9954 109.363C74.3053 109.363 74.5719 109.436 74.7952 109.582C75.0185 109.723 75.1302 109.99 75.1302 110.382C75.1302 110.769 75.0185 111.038 74.7952 111.188C74.5719 111.334 74.3053 111.407 73.9954 111.407C73.6809 111.407 73.4121 111.334 73.1888 111.188C72.97 111.038 72.8606 110.769 72.8606 110.382C72.8606 109.99 72.97 109.723 73.1888 109.582C73.4121 109.436 73.6809 109.363 73.9954 109.363ZM79.7441 123.363C78.6777 123.363 77.862 123.176 77.2969 122.803C76.7363 122.434 76.4561 121.914 76.4561 121.244C76.4561 120.784 76.5996 120.399 76.8867 120.089C77.1738 119.779 77.5954 119.558 78.1514 119.426C77.9372 119.335 77.7503 119.187 77.5908 118.981C77.4313 118.772 77.3516 118.551 77.3516 118.318C77.3516 118.027 77.4359 117.785 77.6045 117.594C77.7731 117.398 78.0169 117.206 78.3359 117.02C77.9349 116.846 77.6159 116.568 77.3789 116.186C77.1465 115.803 77.0303 115.352 77.0303 114.832C77.0303 114.276 77.151 113.804 77.3926 113.417C77.6387 113.025 77.9941 112.727 78.459 112.521C78.9284 112.316 79.498 112.214 80.168 112.214C80.3092 112.214 80.4733 112.223 80.6602 112.241C80.847 112.259 81.0179 112.28 81.1729 112.303C81.3324 112.326 81.4395 112.344 81.4941 112.357H84.1602V113.417L82.9639 113.725C83.0732 113.893 83.1553 114.073 83.21 114.265C83.2646 114.456 83.292 114.659 83.292 114.873C83.292 115.693 83.0049 116.334 82.4307 116.794C81.861 117.25 81.068 117.478 80.0518 117.478C79.8102 117.464 79.5824 117.446 79.3682 117.423C79.2633 117.505 79.1836 117.591 79.1289 117.683C79.0742 117.774 79.0469 117.869 79.0469 117.97C79.0469 118.07 79.0879 118.154 79.1699 118.223C79.2565 118.286 79.3841 118.337 79.5527 118.373C79.7259 118.405 79.9401 118.421 80.1953 118.421H81.4941C82.3327 118.421 82.9707 118.601 83.4082 118.961C83.8503 119.321 84.0713 119.85 84.0713 120.547C84.0713 121.44 83.6976 122.133 82.9502 122.625C82.2074 123.117 81.1387 123.363 79.7441 123.363ZM79.833 122.003C80.3298 122.003 80.7559 121.955 81.1113 121.859C81.4714 121.768 81.7471 121.636 81.9385 121.463C82.1299 121.294 82.2256 121.091 82.2256 120.854C82.2256 120.663 82.1686 120.51 82.0547 120.396C81.9453 120.287 81.7767 120.21 81.5488 120.164C81.3255 120.118 81.0384 120.096 80.6875 120.096H79.6074C79.3522 120.096 79.1221 120.137 78.917 120.219C78.7165 120.301 78.557 120.415 78.4385 120.561C78.32 120.711 78.2607 120.884 78.2607 121.08C78.2607 121.367 78.3975 121.593 78.6709 121.757C78.9489 121.921 79.3363 122.003 79.833 122.003ZM80.168 116.206C80.5599 116.206 80.847 116.085 81.0293 115.844C81.2116 115.602 81.3027 115.274 81.3027 114.859C81.3027 114.399 81.207 114.055 81.0156 113.827C80.8288 113.595 80.5462 113.479 80.168 113.479C79.7852 113.479 79.498 113.595 79.3066 113.827C79.1152 114.055 79.0195 114.399 79.0195 114.859C79.0195 115.274 79.113 115.602 79.2998 115.844C79.4912 116.085 79.7806 116.206 80.168 116.206ZM94.6804 112.214C95.5463 112.214 96.2002 112.437 96.6423 112.884C97.0889 113.326 97.3122 114.037 97.3122 115.017V120H95.2204V115.536C95.2204 114.989 95.127 114.577 94.9402 114.299C94.7533 114.021 94.4639 113.882 94.072 113.882C93.5206 113.882 93.1286 114.08 92.8962 114.477C92.6638 114.868 92.5476 115.431 92.5476 116.165V120H90.4626V115.536C90.4626 115.172 90.4216 114.866 90.3396 114.62C90.2575 114.374 90.1322 114.189 89.9636 114.066C89.795 113.943 89.5785 113.882 89.3142 113.882C88.9268 113.882 88.6215 113.98 88.3982 114.176C88.1794 114.367 88.0222 114.652 87.9265 115.03C87.8353 115.404 87.7898 115.862 87.7898 116.404V120H85.7048V112.357H87.2976L87.5779 113.335H87.6941C87.849 113.071 88.0427 112.856 88.2751 112.692C88.5121 112.528 88.7719 112.408 89.0544 112.33C89.337 112.253 89.6241 112.214 89.9157 112.214C90.4763 112.214 90.9502 112.305 91.3376 112.487C91.7295 112.67 92.0303 112.952 92.24 113.335H92.4245C92.6524 112.943 92.9737 112.658 93.3884 112.48C93.8077 112.303 94.2383 112.214 94.6804 112.214ZM102.87 112.2C103.895 112.2 104.681 112.424 105.228 112.87C105.775 113.317 106.048 113.996 106.048 114.907V120H104.592L104.189 118.961H104.134C103.915 119.234 103.692 119.458 103.464 119.631C103.236 119.804 102.974 119.932 102.678 120.014C102.382 120.096 102.022 120.137 101.598 120.137C101.147 120.137 100.741 120.05 100.381 119.877C100.026 119.704 99.7455 119.439 99.5405 119.084C99.3354 118.724 99.2328 118.268 99.2328 117.717C99.2328 116.906 99.5177 116.309 100.087 115.926C100.657 115.538 101.511 115.324 102.651 115.283L103.977 115.242V114.907C103.977 114.506 103.872 114.212 103.663 114.025C103.453 113.839 103.161 113.745 102.788 113.745C102.418 113.745 102.056 113.798 101.701 113.902C101.345 114.007 100.99 114.139 100.634 114.299L99.9438 112.891C100.349 112.676 100.803 112.508 101.304 112.385C101.81 112.262 102.332 112.2 102.87 112.2ZM103.977 116.459L103.17 116.486C102.496 116.505 102.026 116.625 101.762 116.849C101.502 117.072 101.372 117.366 101.372 117.73C101.372 118.049 101.466 118.277 101.653 118.414C101.84 118.546 102.083 118.612 102.384 118.612C102.831 118.612 103.207 118.48 103.512 118.216C103.822 117.951 103.977 117.576 103.977 117.088V116.459Z" fill="#828282"/>
<path d="M7.41471 229.621C6.78429 230.112 6.14017 230.126 5.48235 229.662C4.82452 229.198 4.60525 228.584 4.82452 227.82L7.16802 220.249L1.20649 216.033C0.54867 215.569 0.350226 214.955 0.611163 214.191C0.871003 213.427 1.39836 213.045 2.19323 213.045H9.55264L11.9372 205.187C12.0743 204.805 12.287 204.511 12.5753 204.306C12.8626 204.102 13.1707 204 13.4996 204C13.8285 204 14.1366 204.102 14.4238 204.306C14.7122 204.511 14.9249 204.805 15.0619 205.187L17.4465 213.045H24.8059C25.6008 213.045 26.1287 213.427 26.3896 214.191C26.6495 214.955 26.4505 215.569 25.7927 216.033L19.8311 220.249L22.1746 227.82C22.3939 228.584 22.1746 229.198 21.5168 229.662C20.859 230.126 20.2149 230.112 19.5844 229.621L13.4996 224.996L7.41471 229.621Z" fill="#070707"/>
<path d="M43.4147 229.621C42.7843 230.112 42.1402 230.126 41.4823 229.662C40.8245 229.198 40.6053 228.584 40.8245 227.82L43.168 220.249L37.2065 216.033C36.5487 215.569 36.3502 214.955 36.6112 214.191C36.871 213.427 37.3984 213.045 38.1932 213.045H45.5526L47.9372 205.187C48.0743 204.805 48.287 204.511 48.5753 204.306C48.8626 204.102 49.1707 204 49.4996 204C49.8285 204 50.1366 204.102 50.4238 204.306C50.7122 204.511 50.9249 204.805 51.0619 205.187L53.4465 213.045H60.8059C61.6008 213.045 62.1287 213.427 62.3896 214.191C62.6495 214.955 62.4505 215.569 61.7927 216.033L55.8311 220.249L58.1746 227.82C58.3939 228.584 58.1746 229.198 57.5168 229.662C56.859 230.126 56.2149 230.112 55.5844 229.621L49.4996 224.996L43.4147 229.621Z" fill="#070707"/>
<path d="M79.4147 229.621C78.7843 230.112 78.1402 230.126 77.4823 229.662C76.8245 229.198 76.6053 228.584 76.8245 227.82L79.168 220.249L73.2065 216.033C72.5487 215.569 72.3502 214.955 72.6112 214.191C72.871 213.427 73.3984 213.045 74.1932 213.045H81.5526L83.9372 205.187C84.0743 204.805 84.287 204.511 84.5753 204.306C84.8626 204.102 85.1707 204 85.4996 204C85.8285 204 86.1366 204.102 86.4238 204.306C86.7122 204.511 86.9249 204.805 87.0619 205.187L89.4465 213.045H96.8059C97.6008 213.045 98.1287 213.427 98.3896 214.191C98.6495 214.955 98.4505 215.569 97.7927 216.033L91.8311 220.249L94.1746 227.82C94.3939 228.584 94.1746 229.198 93.5168 229.662C92.859 230.126 92.2149 230.112 91.5844 229.621L85.4996 224.996L79.4147 229.621Z" fill="#070707"/>
<path d="M115.415 229.621C114.784 230.112 114.14 230.126 113.482 229.662C112.825 229.198 112.605 228.584 112.825 227.82L115.168 220.249L109.206 216.033C108.549 215.569 108.35 214.955 108.611 214.191C108.871 213.427 109.398 213.045 110.193 213.045H117.553L119.937 205.187C120.074 204.805 120.287 204.511 120.575 204.306C120.863 204.102 121.171 204 121.5 204C121.828 204 122.137 204.102 122.424 204.306C122.712 204.511 122.925 204.805 123.062 205.187L125.447 213.045H132.806C133.601 213.045 134.129 213.427 134.39 214.191C134.649 214.955 134.45 215.569 133.793 216.033L127.831 220.249L130.175 227.82C130.394 228.584 130.175 229.198 129.517 229.662C128.859 230.126 128.215 230.112 127.584 229.621L121.5 224.996L115.415 229.621Z" fill="#070707"/>
<path d="M151.415 229.621C150.784 230.112 150.14 230.126 149.482 229.662C148.825 229.198 148.605 228.584 148.825 227.82L151.168 220.249L145.206 216.033C144.549 215.569 144.35 214.955 144.611 214.191C144.871 213.427 145.398 213.045 146.193 213.045H153.553L155.937 205.187C156.074 204.805 156.287 204.511 156.575 204.306C156.863 204.102 157.171 204 157.5 204C157.828 204 158.137 204.102 158.424 204.306C158.712 204.511 158.925 204.805 159.062 205.187L161.447 213.045H168.806C169.601 213.045 170.129 213.427 170.39 214.191C170.649 214.955 170.45 215.569 169.793 216.033L163.831 220.249L166.175 227.82C166.394 228.584 166.175 229.198 165.517 229.662C164.859 230.126 164.215 230.112 163.584 229.621L157.5 224.996L151.415 229.621Z" fill="#070707"/>
</svg>
