<svg width="26" height="26" xmlns="http://www.w3.org/2000/svg">

<symbol id="icon-bubble" viewBox="0 0 26 26">
<path d="M13 5.6875C13.2242 5.6875 13.4062 5.8695 13.4062 6.09375C13.4062 6.318 13.2234 6.5 13 6.5C8.67181 6.5 4.875 8.77825 4.875 11.375C4.875 11.5992 4.693 11.7812 4.46875 11.7812C4.2445 11.7812 4.0625 11.5992 4.0625 11.375C4.0625 8.29238 8.15506 5.6875 13 5.6875ZM13 1.625C5.81994 1.625 0 5.99056 0 11.375C0 14.7282 2.25794 17.6849 5.694 19.4399C5.694 19.4618 5.6875 19.4764 5.6875 19.5C5.6875 20.9568 4.59956 22.5249 4.121 23.348C4.12181 23.348 4.12262 23.348 4.12262 23.348C4.08444 23.4374 4.0625 23.5357 4.0625 23.6389C4.0625 24.0451 4.39156 24.375 4.79862 24.375C4.875 24.375 5.00906 24.3547 5.00581 24.3636C7.54487 23.9476 9.93687 21.6149 10.4926 20.9389C11.3043 21.0584 12.1412 21.125 13 21.125C20.1784 21.125 26 16.7594 26 11.375C26 5.99056 20.1793 1.625 13 1.625ZM13 19.5C12.2549 19.5 11.4904 19.4431 10.7283 19.3318C10.6494 19.3188 10.5706 19.3147 10.4926 19.3147C10.01 19.3147 9.54769 19.5293 9.2365 19.9079C8.88875 20.3312 7.89913 21.2761 6.72994 21.9708C7.04681 21.2436 7.29462 20.4287 7.31169 19.5886C7.31656 19.5366 7.319 19.4837 7.319 19.4391C7.319 18.8281 6.97694 18.2699 6.43338 17.992C3.42225 16.4547 1.625 13.9807 1.625 11.375C1.625 6.89488 6.7275 3.25 13 3.25C19.2709 3.25 24.375 6.89488 24.375 11.375C24.375 15.8551 19.2717 19.5 13 19.5Z" />
</symbol>

<symbol id="icon-calendar" viewBox="0 0 26 26">
<g clip-path="url(#clip0_6_111)">
<path d="M23.8339 2.4375H20.3125V0.8125C20.3125 0.363188 19.9493 0 19.5 0C19.0507 0 18.6875 0.363188 18.6875 0.8125V2.4375H13.8125V0.8125C13.8125 0.363188 13.4485 0 13 0C12.5515 0 12.1875 0.363188 12.1875 0.8125V2.4375H7.3125V0.8125C7.3125 0.363188 6.9485 0 6.5 0C6.0515 0 5.6875 0.363188 5.6875 0.8125V2.4375H2.16694C0.970125 2.4375 0 3.40681 0 4.60362V23.8331C0 25.0299 0.970125 26 2.16694 26H23.8339C25.0307 26 26 25.0299 26 23.8331V4.60362C26 3.40681 25.0307 2.4375 23.8339 2.4375ZM24.375 23.8331C24.375 24.1321 24.1321 24.375 23.8339 24.375H2.16694C1.86794 24.375 1.625 24.1321 1.625 23.8331V4.60362C1.625 4.30544 1.86794 4.0625 2.16694 4.0625H5.6875V5.6875C5.6875 6.13681 6.0515 6.5 6.5 6.5C6.9485 6.5 7.3125 6.13681 7.3125 5.6875V4.0625H12.1875V5.6875C12.1875 6.13681 12.5515 6.5 13 6.5C13.4485 6.5 13.8125 6.13681 13.8125 5.6875V4.0625H18.6875V5.6875C18.6875 6.13681 19.0507 6.5 19.5 6.5C19.9493 6.5 20.3125 6.13681 20.3125 5.6875V4.0625H23.8339C24.1321 4.0625 24.375 4.30544 24.375 4.60362V23.8331ZM5.6875 9.75H8.9375V12.1875H5.6875V9.75ZM5.6875 13.8125H8.9375V16.25H5.6875V13.8125ZM5.6875 17.875H8.9375V20.3125H5.6875V17.875ZM11.375 17.875H14.625V20.3125H11.375V17.875ZM11.375 13.8125H14.625V16.25H11.375V13.8125ZM11.375 9.75H14.625V12.1875H11.375V9.75ZM17.0625 17.875H20.3125V20.3125H17.0625V17.875ZM17.0625 13.8125H20.3125V16.25H17.0625V13.8125ZM17.0625 9.75H20.3125V12.1875H17.0625V9.75Z" />
</g>
<defs>
<clipPath id="clip0_6_111">
<rect width="26" height="26" fill="white"/>
</clipPath>
</defs>
</symbol>

<symbol id="icon-dashboard" viewBox="0 0 26 26">
<g clip-path="url(#clip0_6_110)">
<path d="M21.9375 4.05925L4.0625 4.0625C3.61319 4.0625 3.25 4.42244 3.25 4.87175V16.2467C3.25 16.6961 3.61319 17.0592 4.0625 17.0592H21.9375C22.3868 17.0592 22.75 16.6961 22.75 16.2467V4.87175C22.75 4.42244 22.3868 4.05925 21.9375 4.05925ZM21.9375 16.25H4.0625V4.87175H21.9375V16.25ZM23.5625 0.8125H2.4375C1.09119 0.8125 0 1.90287 0 3.25V19.5C0 20.8439 1.08713 21.9326 2.42937 21.9359H10.5625V22.9247L5.49087 23.5836C5.1285 23.6738 4.875 23.9988 4.875 24.3717C4.875 24.8211 5.23819 25.1842 5.6875 25.1842H20.3125C20.7618 25.1842 21.125 24.8211 21.125 24.3717C21.125 23.9988 20.8715 23.6738 20.5091 23.5828L15.4375 22.9247V21.9359H23.5706C24.9129 21.9326 26 20.8439 26 19.5V3.25C26 1.90287 24.908 0.8125 23.5625 0.8125ZM24.375 19.5C24.375 19.9477 24.0102 20.3125 23.5625 20.3125H2.4375C1.989 20.3125 1.625 19.9477 1.625 19.5V3.25C1.625 2.8015 1.989 2.4375 2.4375 2.4375H23.5625C24.0102 2.4375 24.375 2.8015 24.375 3.25V19.5Z" />
</g>
<defs>
<clipPath id="clip0_6_110">
<rect width="26" height="26" fill="white"/>
</clipPath>
</defs>
</symbol>

<symbol id="icon-eye" viewBox="0 0 26 26">
<g clip-path="url(#clip0_6_147)">
<path d="M25.9716 12.818C25.9634 12.7839 25.9683 12.7473 25.9553 12.714C25.9504 12.7002 25.9383 12.6929 25.9334 12.6799C25.9253 12.6604 25.9269 12.6384 25.9163 12.6197C23.5601 8.10956 18.4308 4.87825 13.0195 4.87825C7.60745 4.87825 2.47895 8.10469 0.121072 12.6141C0.110509 12.6327 0.112134 12.6547 0.104009 12.6742C0.0983215 12.6872 0.0869465 12.6945 0.0820715 12.7083C0.0690715 12.7416 0.0739465 12.7782 0.0658215 12.8123C0.0511965 12.8732 0.037384 12.9317 0.037384 12.9943C0.037384 13.0569 0.052009 13.1146 0.0658215 13.1763C0.0739465 13.2104 0.0690715 13.247 0.0820715 13.2803C0.0869465 13.2941 0.099134 13.3014 0.104009 13.3144C0.112134 13.3339 0.110509 13.3559 0.121072 13.3746C2.47813 17.8847 7.60745 21.1161 13.0195 21.1161C18.4308 21.1161 23.5601 17.8896 25.9163 13.3802C25.9277 13.3616 25.9261 13.3396 25.9334 13.3201C25.9383 13.3071 25.9504 13.2998 25.9553 13.286C25.9683 13.2527 25.9634 13.2161 25.9716 13.182C25.9854 13.1203 26 13.0617 26 13C26 12.9382 25.9854 12.8789 25.9716 12.818ZM13.0187 19.4902C8.45651 19.4902 3.9902 16.8976 1.76476 12.9943C4.00238 9.08619 8.4622 6.50244 13.0187 6.50244C17.5793 6.50244 22.0464 9.09594 24.2718 12.9984C22.0342 16.9073 17.5752 19.4902 13.0187 19.4902ZM13.0187 9.74919C13.2429 9.74919 13.4233 9.93037 13.4233 10.1554C13.4233 10.3789 13.2421 10.5609 13.0187 10.5609V10.5617C11.6748 10.5617 10.582 11.6545 10.582 12.9967C10.582 13.221 10.4 13.403 10.1766 13.403C9.95313 13.403 9.77032 13.221 9.77032 12.9967C9.77032 11.2052 11.2223 9.75325 13.0138 9.75C13.0154 9.75 13.0171 9.74919 13.0187 9.74919ZM13 7.3125C9.85807 7.3125 7.31251 9.85888 7.31251 13C7.31251 16.1411 9.85888 18.6875 13 18.6875C16.1403 18.6875 18.6875 16.1403 18.6875 13C18.6875 9.85806 16.1403 7.3125 13 7.3125ZM13 17.875C10.3114 17.875 8.12501 15.6886 8.12501 13C8.12501 10.3114 10.3114 8.125 13 8.125C15.6886 8.125 17.875 10.3114 17.875 13C17.875 15.6886 15.6886 17.875 13 17.875Z" />
</g>
<defs>
<clipPath id="clip0_6_147">
<rect width="26" height="26" fill="white"/>
</clipPath>
</defs>
</symbol>

<symbol id="icon-lab" viewBox="0 0 26 26">
<g clip-path="url(#clip0_6_153)">
<path d="M16.804 3.03225C16.4197 2.64875 15.9103 2.4375 15.3675 2.4375C14.8248 2.4375 14.3154 2.64875 13.9294 3.03306L12.7838 4.18031C12.3995 4.56381 12.1874 5.07406 12.1874 5.61763C12.1874 6.00031 12.2922 6.36675 12.4889 6.68444L1.45754 11.1036C0.719793 11.4278 0.190856 12.0932 0.0421681 12.8822C-0.108144 13.676 0.143731 14.4901 0.719793 15.0654L11.0548 25.2866C11.5 25.7319 12.0915 25.9846 12.7164 25.9992C12.731 26 12.7651 26 12.7797 26C12.9439 26 13.1104 25.9829 13.2754 25.9496C14.083 25.7822 14.7444 25.2241 15.0442 24.4644L19.3845 13.5964C19.7112 13.8117 20.0955 13.9271 20.4952 13.9271C21.0396 13.9271 21.549 13.715 21.9317 13.3315L23.0749 12.1875C23.4625 11.8024 23.6745 11.2913 23.6745 10.7469C23.6745 10.2026 23.4617 9.69069 23.0798 9.31044L16.804 3.03225ZM13.5354 23.8607C13.4346 24.115 13.2128 24.3027 12.9447 24.3579C12.8829 24.3709 12.8204 24.3758 12.7586 24.375C12.5522 24.3701 12.3532 24.2873 12.2045 24.1378L1.86298 13.91C1.67286 13.7207 1.58917 13.4493 1.63954 13.1844C1.68911 12.9212 1.86623 12.6986 2.11242 12.5913L7.16373 10.5682C10.5673 11.7 13.9717 10.6096 17.3769 14.2423L13.5354 23.8607ZM21.9309 11.0337L20.782 12.1818C20.6236 12.3411 20.366 12.3411 20.2076 12.1818L18.7711 10.7461L17.6076 13.6622L17.7043 13.416C15.2587 10.9744 12.7732 10.6665 10.5307 10.3911C9.81004 10.3025 9.11129 10.2099 8.42473 10.062L15.3237 7.29869L13.9302 5.90525C13.7718 5.74681 13.7718 5.48925 13.9302 5.33081L15.0791 4.18112C15.2375 4.02269 15.4951 4.02269 15.6535 4.18112L21.9301 10.4593C22.091 10.6178 22.091 10.8753 21.9309 11.0337ZM13.4062 17.0625C14.5258 17.0625 15.4374 16.1517 15.4374 15.0312C15.4374 13.9108 14.5266 13 13.4062 13C12.2857 13 11.3749 13.9108 11.3749 15.0312C11.3749 16.1517 12.2865 17.0625 13.4062 17.0625ZM13.4062 13.8125C14.0789 13.8125 14.6249 14.3585 14.6249 15.0312C14.6249 15.704 14.0789 16.25 13.4062 16.25C12.7326 16.25 12.1874 15.704 12.1874 15.0312C12.1874 14.3585 12.7326 13.8125 13.4062 13.8125ZM23.9687 0C22.8482 0 21.9374 0.910813 21.9374 2.03125C21.9374 3.15169 22.8482 4.0625 23.9687 4.0625C25.0891 4.0625 25.9999 3.15169 25.9999 2.03125C25.9999 0.910813 25.0891 0 23.9687 0ZM23.9687 3.25C23.2959 3.25 22.7499 2.704 22.7499 2.03125C22.7499 1.3585 23.2959 0.8125 23.9687 0.8125C24.6414 0.8125 25.1874 1.3585 25.1874 2.03125C25.1874 2.704 24.6414 3.25 23.9687 3.25ZM6.49992 13.8125C6.49992 14.7087 7.22873 15.4375 8.12492 15.4375C9.0211 15.4375 9.74992 14.7087 9.74992 13.8125C9.74992 12.9163 9.0211 12.1875 8.12492 12.1875C7.22873 12.1875 6.49992 12.9163 6.49992 13.8125ZM8.12492 13C8.57342 13 8.93742 13.3632 8.93742 13.8125C8.93742 14.2618 8.57342 14.625 8.12492 14.625C7.67642 14.625 7.31242 14.2618 7.31242 13.8125C7.31242 13.3632 7.67642 13 8.12492 13ZM9.74992 18.6875C9.74992 18.239 10.1139 17.875 10.5624 17.875C11.0109 17.875 11.3749 18.239 11.3749 18.6875C11.3749 19.136 11.0109 19.5 10.5624 19.5C10.1139 19.5 9.74992 19.136 9.74992 18.6875ZM22.7499 6.5C22.7499 6.0515 23.1139 5.6875 23.5624 5.6875C24.0109 5.6875 24.3749 6.0515 24.3749 6.5C24.3749 6.9485 24.0109 7.3125 23.5624 7.3125C23.1139 7.3125 22.7499 6.9485 22.7499 6.5Z" />
</g>
<defs>
<clipPath id="clip0_6_153">
<rect width="26" height="26" fill="white"/>
</clipPath>
</defs>
</symbol>

<symbol id="icon-lang" viewBox="0 0 26 26">
<path d="M10.5625 7.215V8.58812H25.9858C25.9643 8.14531 25.9179 7.5855 25.7522 7.215" fill="#EC1C24"/>
<path d="M25.025 5.84189H10.5625V7.21501H25.7522C25.5872 6.70273 25.3419 6.23554 25.025 5.84189" fill="#E6E7E8"/>
<path d="M21.9375 4.46875H10.5625V5.84188H25.025C24.347 4.99281 23.231 4.46875 21.9375 4.46875Z" fill="#EC1C24"/>
<path d="M25.9858 8.58813H10.5625V9.96126H26V9.04598C26 8.96432 25.9947 8.8847 25.9923 8.80467C25.9907 8.78273 25.9882 8.72626 25.9858 8.58813" fill="#E6E7E8"/>
<path d="M10.5625 11.3344H26V9.96124H10.5625V11.3344Z" fill="#EC1C24"/>
<path d="M10.5625 12.7075H26V11.3344H10.5625V12.7075" fill="#E6E7E8"/>
<path d="M10.5625 12.7075H26V14.0806H10.5625V12.7075Z" fill="#EC1C24"/>
<path d="M0 14.0806V15.4538H26V14.0806H10.5625H0Z" fill="#E6E7E8"/>
<path d="M0 15.4537H26V16.8269H0V15.4537Z" fill="#EC1C24"/>
<path d="M0.00203125 17.6715C0.00203125 17.6715 -0.001625 18.0042 0.008125 18.2H25.9919C26.0032 17.9993 25.998 17.6715 25.998 17.6715L26 16.8269H0L0.00203125 17.6715Z" fill="#E6E7E8"/>
<path d="M4.06247 22.3438H21.9375C23.2346 22.3438 24.3128 21.8725 25.0493 20.9463H0.946533C1.70703 21.8928 2.80553 22.3438 4.06044 22.3438" fill="#EC1C24"/>
<path d="M0.948601 20.9462H25.0514C25.3727 20.538 25.6127 20.0718 25.7583 19.5731H0.245789C0.394109 20.0704 0.633072 20.5359 0.950632 20.9462" fill="#E6E7E8"/>
<path d="M0.243743 19.5731H25.7562C25.8893 19.1265 25.9684 18.6655 25.9919 18.2H0.00811768C0.0483364 18.6696 0.0857114 19.0243 0.243743 19.5731Z" fill="#EC1C24"/>
<path d="M10.5625 4.46875H4.0625C1.37028 4.46875 0 6.46953 0 8.9375V14.0806H10.5625V4.46875Z" fill="#176496"/>
<path d="M1.13671 6.8965L1.35771 6.72669L1.57831 6.8965L1.49259 6.6235L1.71237 6.45653H1.44099L1.3569 6.18231L1.27321 6.45653H1.00224L1.22284 6.6235L1.13671 6.8965ZM2.59678 6.8965L2.81778 6.72669L3.03837 6.8965L2.95306 6.6235L3.17243 6.45653H2.90146L2.81737 6.18231L2.73368 6.45653H2.4619L2.68249 6.6235L2.59678 6.8965ZM4.20756 6.8965L4.42815 6.72669L4.64915 6.8965L4.56343 6.6235L4.78281 6.45653H4.51346L4.42815 6.18231L4.34406 6.45653H4.07471L4.29287 6.6235L4.20756 6.8965ZM5.80656 6.8965L6.02715 6.72669L6.24815 6.8965L6.16284 6.6235L6.38221 6.45653H6.11003L6.02715 6.18231L5.94346 6.45653H5.67209L5.89228 6.6235L5.80656 6.8965ZM7.41124 6.8965L7.63224 6.72669L7.85284 6.8965L7.76753 6.6235L7.98731 6.45653H7.71553L7.63184 6.18231L7.54815 6.45653H7.27718L7.49656 6.6235L7.41124 6.8965ZM1.91387 7.60947L2.13446 7.44006L2.35506 7.60947L2.27015 7.33687L2.48953 7.16991H2.21815L2.13406 6.89609L2.05159 7.16991H1.7794L1.99918 7.33687L1.91387 7.60947ZM3.37434 7.60947L3.59493 7.44006L3.81553 7.60947L3.73021 7.33687L3.94959 7.16991H3.67659L3.59493 6.89609L3.51084 7.16991H3.23987L3.45965 7.33687L3.37434 7.60947ZM4.98512 7.60947L5.20531 7.44006L5.4259 7.60947L5.34059 7.33687L5.56037 7.16991H5.2894L5.20531 6.89609L5.12121 7.16991H4.84984L5.06962 7.33687L4.98512 7.60947ZM6.58331 7.60947L6.80431 7.44006L7.02531 7.60947L6.93878 7.33687L7.15896 7.16991H6.88799L6.8039 6.89609L6.72062 7.16991H6.44924L6.66903 7.33687L6.58331 7.60947ZM8.19003 7.60947L8.40899 7.44006L8.62959 7.60947L8.54346 7.33687L8.76365 7.16991H8.49309L8.40859 6.89609L8.32531 7.16991H8.05393L8.27371 7.33687L8.19003 7.60947ZM9.09474 6.8965L9.31534 6.72669L9.53634 6.8965L9.45062 6.6235L9.66999 6.45653H9.40065L9.31493 6.18231L9.23124 6.45653H8.95784L9.18006 6.6235L9.09474 6.8965ZM1.11518 12.6019L1.33618 12.4341L1.55678 12.6019L1.47146 12.3313L1.69084 12.1639L1.41987 12.1647L1.33537 11.8909L1.25249 12.1647L0.980713 12.1639L1.20049 12.3313L1.11518 12.6019ZM2.57565 12.6019L2.79624 12.4341L3.01724 12.6019L2.93153 12.3313L3.1509 12.1639L2.88034 12.1647L2.79584 11.8909L2.71256 12.1647L2.44159 12.1639L2.66096 12.3313L2.57565 12.6019ZM4.18643 12.6019L4.40703 12.4341L4.62803 12.6019L4.54231 12.3313L4.76168 12.1639L4.48909 12.1647L4.40662 11.8909L4.32293 12.1647L4.05196 12.1639L4.27174 12.3313L4.18643 12.6019ZM5.78543 12.6019L6.00603 12.4341L6.22662 12.6019L6.14253 12.3313L6.36068 12.1639L6.08931 12.1647L6.00562 11.8909L5.92193 12.1647L5.65096 12.1639L5.87034 12.3313L5.78543 12.6019ZM7.38971 12.6019L7.61071 12.4341L7.83171 12.6019L7.74721 12.3313L7.96537 12.1639L7.6944 12.1647L7.61031 11.8909L7.52703 12.1647L7.25565 12.1639L7.47503 12.3313L7.38971 12.6019ZM9.07321 12.6019L9.29381 12.4341L9.51481 12.6019L9.42909 12.3313L9.64887 12.1639L9.37628 12.1647L9.2934 11.8909L9.20971 12.1647L8.93753 12.1639L9.15853 12.3313L9.07321 12.6019ZM1.13671 8.32325L1.35771 8.15344L1.57831 8.32325L1.49259 8.05025L1.71237 7.88328L1.44099 7.88409L1.3569 7.60947L1.27321 7.88409L1.00224 7.88328L1.22284 8.05025L1.13671 8.32325ZM2.59678 8.32325L2.81778 8.15344L3.03837 8.32325L2.95306 8.05025L3.17243 7.88328L2.90146 7.88409L2.81737 7.60947L2.73368 7.88409L2.4619 7.88328L2.68249 8.05025L2.59678 8.32325ZM4.20756 8.32325L4.42815 8.15344L4.64915 8.32325L4.56343 8.05025L4.78281 7.88328L4.51346 7.88409L4.42815 7.60947L4.34406 7.88409L4.07471 7.88328L4.29287 8.05025L4.20756 8.32325ZM5.80656 8.32325L6.02715 8.15344L6.24815 8.32325L6.16284 8.05025L6.38221 7.88328L6.11003 7.88409L6.02715 7.60947L5.94346 7.88409L5.67209 7.88328L5.89228 8.05025L5.80656 8.32325ZM7.41124 8.32325L7.63224 8.15344L7.85284 8.32325L7.76753 8.05025L7.98731 7.88328L7.71553 7.88409L7.63184 7.60947L7.54815 7.88409L7.27718 7.88328L7.49656 8.05025L7.41124 8.32325ZM1.91387 9.03662L2.13446 8.86722L2.35506 9.03662L2.27015 8.76403L2.48953 8.59625H2.21815L2.13406 8.32325L2.05159 8.59625H1.7794L1.99918 8.76403L1.91387 9.03662ZM3.37434 9.03662L3.59493 8.86722L3.81553 9.03662L3.73021 8.76403L3.94959 8.59625H3.67659L3.59493 8.32325L3.51084 8.59625H3.23987L3.45965 8.76403L3.37434 9.03662ZM4.98512 9.03662L5.20531 8.86722L5.4259 9.03662L5.34059 8.76403L5.56037 8.59625H5.2894L5.20531 8.32325L5.12121 8.59625H4.84984L5.06962 8.76403L4.98512 9.03662ZM6.58331 9.03662L6.80431 8.86722L7.02531 9.03662L6.93878 8.76403L7.15896 8.59625H6.88799L6.8039 8.32325L6.72062 8.59625H6.44924L6.66903 8.76403L6.58331 9.03662ZM8.19003 9.03662L8.40899 8.86722L8.62959 9.03662L8.54346 8.76403L8.76365 8.59625H8.49309L8.40859 8.32325L8.32531 8.59625H8.05393L8.27371 8.76403L8.19003 9.03662ZM9.09474 8.32325L9.31534 8.15344L9.53634 8.32325L9.45062 8.05025L9.66999 7.88328L9.40065 7.88409L9.31493 7.60947L9.23124 7.88409L8.95784 7.88328L9.18006 8.05025L9.09474 8.32325ZM1.11518 9.75L1.33618 9.58059L1.55678 9.75L1.47106 9.47781L1.69084 9.31044L1.41946 9.31125L1.33537 9.03662L1.25249 9.31125L0.980713 9.31044L1.20049 9.47781L1.11518 9.75ZM2.57565 9.75L2.79624 9.58059L3.01724 9.75L2.93153 9.47781L3.1509 9.31044L2.88034 9.31125L2.79584 9.03662L2.71256 9.31125L2.44159 9.31044L2.66056 9.47781L2.57565 9.75ZM4.18643 9.75L4.40703 9.58059L4.62762 9.75L4.54231 9.47781L4.76168 9.31044L4.48909 9.31125L4.40662 9.03662L4.32293 9.31125L4.05196 9.31044L4.27174 9.47781L4.18643 9.75ZM5.78543 9.75L6.00562 9.58059L6.22662 9.75L6.14253 9.47781L6.36068 9.31044L6.08931 9.31125L6.00562 9.03662L5.92193 9.31125L5.65096 9.31044L5.87034 9.47781L5.78543 9.75ZM7.38971 9.75L7.61071 9.58059L7.83131 9.75L7.74721 9.47781L7.96537 9.31044L7.69399 9.31125L7.61031 9.03662L7.52703 9.31125L7.25565 9.31044L7.47503 9.47781L7.38971 9.75ZM1.89234 10.4634L2.11293 10.2944L2.33353 10.4634L2.24862 10.1928L2.46759 10.0246H2.19621L2.11253 9.75L2.02924 10.0246H1.75787L1.97765 10.1928L1.89234 10.4634ZM3.35281 10.4634L3.5734 10.2944L3.79399 10.4634L3.70868 10.1928L3.92806 10.0246H3.65628L3.57299 9.75L3.48931 10.0246H3.21793L3.43812 10.1928L3.35281 10.4634ZM4.96399 10.4634L5.18378 10.2944L5.40478 10.4634L5.31784 10.1928L5.53884 10.0246H5.26787L5.18378 9.75L5.10009 10.0246H4.82871L5.04849 10.1928L4.96399 10.4634ZM6.56096 10.4634L6.78278 10.2944L7.00378 10.4634L6.91846 10.1928L7.13743 10.0246H6.86646L6.78237 9.75L6.69909 10.0246H6.42771L6.64749 10.1928L6.56096 10.4634ZM8.16565 10.4634L8.38746 10.2944L8.60846 10.4634L8.52274 10.1928L8.74293 10.0246H8.47196L8.38746 9.75L8.30378 10.0246H8.0324L8.25218 10.1928L8.16565 10.4634ZM9.07321 9.75L9.29381 9.58059L9.5144 9.75L9.42909 9.47781L9.64887 9.31044L9.37628 9.31125L9.2934 9.03662L9.20971 9.31125L8.93753 9.31044L9.15853 9.47781L9.07321 9.75ZM1.11518 11.1772L1.33618 11.0094L1.55678 11.1772L1.47106 10.9046L1.69084 10.7372L1.41946 10.738L1.33537 10.4634L1.25249 10.738L0.980713 10.7372L1.20049 10.9046L1.11518 11.1772ZM2.57565 11.1772L2.79624 11.0094L3.01724 11.1772L2.93153 10.9046L3.1509 10.7372L2.88034 10.738L2.79584 10.4634L2.71256 10.738L2.44159 10.7372L2.66056 10.9046L2.57565 11.1772ZM4.18643 11.1772L4.40703 11.0094L4.62762 11.1772L4.54231 10.9046L4.76168 10.7372L4.48909 10.738L4.40662 10.4634L4.32293 10.738L4.05196 10.7372L4.27174 10.9046L4.18643 11.1772ZM5.78543 11.1772L6.00562 11.0094L6.22662 11.1772L6.14253 10.9046L6.36068 10.7372L6.08931 10.738L6.00562 10.4634L5.92193 10.738L5.65096 10.7372L5.87034 10.9046L5.78543 11.1772ZM7.38971 11.1772L7.61071 11.0094L7.83131 11.1772L7.74721 10.9046L7.96537 10.7372L7.69399 10.738L7.61031 10.4634L7.52703 10.738L7.25565 10.7372L7.47503 10.9046L7.38971 11.1772ZM1.89234 11.8909L2.11293 11.7211L2.33353 11.8909L2.24862 11.6179L2.46759 11.4522H2.19621L2.11253 11.1772L2.02924 11.4522H1.75787L1.97765 11.6179L1.89234 11.8909ZM3.35281 11.8909L3.5734 11.7211L3.79399 11.8909L3.70868 11.6179L3.92806 11.4522H3.65628L3.57299 11.1772L3.48931 11.4522H3.21793L3.43812 11.6179L3.35281 11.8909ZM4.96399 11.8909L5.18378 11.7211L5.40478 11.8909L5.31784 11.6179L5.53884 11.4522H5.26787L5.18378 11.1772L5.10009 11.4522H4.82871L5.04849 11.6179L4.96399 11.8909ZM6.56096 11.8909L6.78278 11.7211L7.00378 11.8909L6.91846 11.6179L7.13743 11.4522H6.86646L6.78237 11.1772L6.69909 11.4522H6.42771L6.64749 11.6179L6.56096 11.8909ZM8.16565 11.8909L8.38746 11.7211L8.60846 11.8909L8.52274 11.6179L8.74293 11.4522H8.47196L8.38746 11.1772L8.30378 11.4522H8.0324L8.25218 11.6179L8.16565 11.8909ZM9.07321 11.1772L9.29381 11.0094L9.5144 11.1772L9.42909 10.9046L9.64887 10.7372L9.37628 10.738L9.2934 10.4634L9.20971 10.738L8.93753 10.7372L9.15853 10.9046L9.07321 11.1772Z" fill="white"/>
</symbol>

<symbol id="icon-location" viewBox="0 0 26 26">
<path d="M13.0016 14.4186C15.6902 14.4186 17.8766 12.2314 17.8766 9.54362C17.8766 6.85588 15.6902 4.66862 13.0016 4.66862C10.3131 4.66862 8.12663 6.85506 8.12663 9.54362C8.12663 12.2322 10.3131 14.4186 13.0016 14.4186ZM13.0016 5.48112C15.2425 5.48112 17.0641 7.30275 17.0641 9.54362C17.0641 11.7845 15.2425 13.6061 13.0016 13.6061C10.7608 13.6061 8.93913 11.7845 8.93913 9.54362C8.93913 7.30275 10.7608 5.48112 13.0016 5.48112ZM13 0C7.62288 0 3.25 4.31925 3.25 9.75081C3.25 15.4383 8.12581 21.2566 11.6805 25.3459C11.6935 25.3622 12.2639 26 12.9691 26C12.9707 26 13.0284 26 13.0317 26C13.7361 26 14.3073 25.3622 14.3203 25.3459C17.8766 21.2566 22.7516 15.4391 22.7516 9.75081C22.7516 4.31925 18.3779 0 13 0V0ZM13.0951 24.2799C13.078 24.2962 13.0284 24.3319 12.9854 24.3596C12.9773 24.3376 12.9171 24.2897 12.8806 24.2515C9.90275 20.8252 4.875 15.0426 4.875 9.75081C4.875 5.27069 8.52069 1.625 13 1.625C17.4817 1.625 21.1266 5.27069 21.1266 9.75163C21.1266 15.0426 16.0989 20.8252 13.0951 24.2799Z" />
</symbol>

<symbol id="icon-lock" viewBox="0 0 26 26">
<path d="M20.3125 10.5625V7.3125C20.3125 3.27356 17.0389 0 13 0C8.96106 0 5.6875 3.27356 5.6875 7.3125V10.5625C4.34119 10.5625 3.25 11.6537 3.25 13V18.6875C3.25 22.7264 6.52356 26 10.5625 26H15.4375C19.4764 26 22.75 22.7264 22.75 18.6875V13C22.75 11.6529 21.658 10.5625 20.3125 10.5625ZM7.3125 7.3125C7.3125 4.17138 9.85888 1.625 13 1.625C16.1411 1.625 18.6875 4.17138 18.6875 7.3125V10.5625H17.0625V7.31413C17.0625 5.07 15.2441 3.25162 13 3.25162C10.7559 3.25162 8.9375 5.07 8.9375 7.31413V10.5625H7.3125V7.3125ZM16.25 7.3125V10.5625H9.75V7.3125C9.75 5.51769 11.2052 4.0625 13 4.0625C14.7948 4.0625 16.25 5.51769 16.25 7.3125ZM21.125 15.4375V18.6875C21.125 21.8229 18.5729 24.375 15.4375 24.375H10.5625C7.42706 24.375 4.875 21.8229 4.875 18.6875V13C4.875 12.5515 5.239 12.1875 5.6875 12.1875C6.22944 12.1875 6.77056 12.1875 7.3125 12.1875H18.6875C19.2286 12.1875 19.7698 12.1875 20.3125 12.1875C20.7602 12.1875 21.125 12.5515 21.125 13V15.4375ZM13 15.4375C13.897 15.4375 14.625 16.1647 14.625 17.0625C14.625 17.5573 14.3585 18.499 14.0839 19.2416C13.8621 19.8412 13.6354 20.3109 13 20.3109C12.4158 20.3109 12.1379 19.8364 11.9169 19.2335C11.6456 18.4925 11.375 17.5557 11.375 17.0625C11.375 16.1647 12.103 15.4375 13 15.4375Z" />
</symbol>

<symbol id="icon-logout" viewBox="0 0 26 26">
<g clip-path="url(#clip0_6_122)">
<path d="M17.8783 0C13.3908 0 9.75325 3.63838 9.75325 8.125C9.75325 9.16906 9.97181 10.1571 10.3326 11.0736L0.4615 20.9438C0.176313 21.2298 0 21.5012 0 21.9375V24.375C0 25.2444 0.754813 26 1.625 26H4.0625C4.498 26 4.77344 25.8253 5.05862 25.5417L6.22456 24.375H8.12825C9.02525 24.375 9.75325 23.647 9.75325 22.75V21.125H11.3783C12.2752 21.125 13.0033 20.397 13.0033 19.5V17.5955L14.9281 15.6691C15.8454 16.0306 16.8326 16.25 17.8783 16.25C22.3641 16.25 26.0033 12.6116 26.0033 8.125C26.0033 3.63838 22.3641 0 17.8783 0ZM17.8783 14.625C16.6757 14.625 15.561 14.2756 14.5949 13.7052L14.3154 13.9839L11.8536 16.4466C11.5489 16.7513 11.3774 17.1641 11.3774 17.5955V19.5H9.75244C8.85544 19.5 8.12744 20.2272 8.12744 21.125V22.75H6.22456C5.79394 22.75 5.38038 22.9214 5.07569 23.2261L3.92356 24.3783L1.62744 24.375L1.625 22.0594L11.1028 12.5986C11.1028 12.5986 11.1028 12.5994 11.1036 12.6003L12.2972 11.4067C11.7268 10.4406 11.3774 9.32669 11.3774 8.12419C11.3774 4.53456 14.2886 1.62419 17.8774 1.62419C21.4662 1.62419 24.3774 4.53456 24.3774 8.12419C24.3774 11.7138 21.4679 14.625 17.8783 14.625ZM22.6038 6.69419C21.6929 5.42506 20.5839 4.31763 19.3091 3.40031C19.1019 3.25 18.8337 3.21263 18.5924 3.29713C17.4639 3.69444 16.6912 4.46631 16.2963 5.59488C16.2662 5.67938 16.2516 5.76713 16.2516 5.85406C16.2516 6.01575 16.302 6.17581 16.3995 6.3115C17.3136 7.58225 18.421 8.6905 19.6926 9.60456C19.9006 9.75406 20.1671 9.79225 20.4084 9.70856C21.5386 9.31369 22.3113 8.54019 22.7078 7.41081C22.7378 7.32631 22.7524 7.23856 22.7524 7.15163C22.7516 6.98994 22.7004 6.82988 22.6038 6.69419ZM20.1663 8.94563C18.9654 8.08194 17.9197 7.03625 17.0625 5.86381C17.3769 4.96763 17.9652 4.37937 18.8354 4.05925C20.0371 4.92456 21.0811 5.96781 21.9359 7.15569C21.6182 8.04537 21.0316 8.63037 20.1663 8.94563Z" />
</g>
<defs>
<clipPath id="clip0_6_122">
<rect width="26" height="26" fill="white"/>
</clipPath>
</defs>
</symbol>

<symbol id="icon-mail" viewBox="0 0 26 26">
<path d="M22.75 4.0625H3.25C1.45519 4.0625 0 5.5185 0 7.3125V17.875C0 19.6698 1.45519 21.125 3.25 21.125H22.75C24.5448 21.125 26 19.6698 26 17.875V7.3125C26 5.5185 24.5448 4.0625 22.75 4.0625ZM1.625 8.32812L7.31169 12.5938L1.625 16.8594V8.32812ZM24.375 17.875C24.375 18.772 23.6454 19.5 22.75 19.5H3.25C2.35381 19.5 1.625 18.772 1.625 17.875L7.9885 13.1016L11.5375 15.7641C11.9706 16.0875 12.4849 16.2516 13 16.2516C13.5143 16.2516 14.0286 16.0883 14.4617 15.7641L18.0115 13.1016L24.375 17.875ZM24.375 16.8594L18.6875 12.5938L24.375 8.32812V16.8594ZM13.9742 15.1141C13.6906 15.327 13.3542 15.4391 13 15.4391C12.6458 15.4391 12.3086 15.3262 12.025 15.1141L1.625 7.3125C1.625 6.41631 2.35381 5.6875 3.25 5.6875H22.75C23.6454 5.6875 24.375 6.41631 24.375 7.3125L13.9742 15.1141Z" />
</symbol>

<symbol id="icon-news" viewBox="0 0 26 26">
<g clip-path="url(#clip0_16_456)">
<path d="M23.5625 0H5.6875C4.34119 0 3.25 1.09037 3.25 2.4375V4.0625H2.4375C1.09119 4.0625 0 5.15287 0 6.5V22.75C0 24.5448 1.45519 26 3.25 26H22.75C24.5448 26 26 24.5448 26 22.75V2.4375C26 1.09037 24.908 0 23.5625 0ZM24.375 22.75C24.375 23.6454 23.6454 24.375 22.75 24.375H3.25C2.35381 24.375 1.625 23.6454 1.625 22.75V6.5C1.625 6.0515 1.989 5.6875 2.4375 5.6875H3.25V21.9375C3.25 22.3868 3.61319 22.75 4.0625 22.75C4.51181 22.75 4.875 22.3868 4.875 21.9375V2.4375C4.875 1.989 5.239 1.625 5.6875 1.625H23.5625C24.0102 1.625 24.375 1.989 24.375 2.4375V22.75ZM15.8421 10.5666C15.6187 10.5666 15.4359 10.3846 15.4359 10.1603C15.4359 9.93606 15.6187 9.75406 15.8421 9.75406H22.3421C22.5672 9.75406 22.7484 9.93606 22.7484 10.1603C22.7484 10.3846 22.5672 10.5666 22.3421 10.5666H15.8421ZM15.8421 8.12906C15.6187 8.12906 15.4359 7.94706 15.4359 7.72281C15.4359 7.49856 15.6187 7.31656 15.8421 7.31656H22.3421C22.5672 7.31656 22.7484 7.49856 22.7484 7.72281C22.7484 7.94706 22.5672 8.12906 22.3421 8.12906H15.8421ZM15.8421 5.69156C15.6187 5.69156 15.4359 5.50956 15.4359 5.28531C15.4359 5.06106 15.6187 4.87906 15.8421 4.87906H22.3421C22.5672 4.87906 22.7484 5.06106 22.7484 5.28531C22.7484 5.50956 22.5672 5.69156 22.3421 5.69156H15.8421ZM13.4062 21.9408C13.6305 21.9408 13.8125 22.1236 13.8125 22.347C13.8125 22.5721 13.6297 22.7533 13.4062 22.7533H6.90625C6.682 22.7533 6.5 22.5721 6.5 22.347C6.5 22.1236 6.682 21.9408 6.90625 21.9408H13.4062ZM13.4062 19.5033C13.6305 19.5033 13.8125 19.6861 13.8125 19.9095C13.8125 20.1346 13.6297 20.3158 13.4062 20.3158H6.90625C6.682 20.3158 6.5 20.1346 6.5 19.9095C6.5 19.6861 6.682 19.5033 6.90625 19.5033H13.4062ZM13.4062 17.0658C13.6305 17.0658 13.8125 17.2486 13.8125 17.472C13.8125 17.6971 13.6297 17.8783 13.4062 17.8783H6.90625C6.682 17.8783 6.5 17.6971 6.5 17.472C6.5 17.2486 6.682 17.0658 6.90625 17.0658H13.4062ZM22.3438 21.9408C22.5672 21.9408 22.75 22.1236 22.75 22.347C22.75 22.5721 22.5672 22.7533 22.3438 22.7533H15.8438C15.6187 22.7533 15.4375 22.5721 15.4375 22.347C15.4375 22.1236 15.6187 21.9408 15.8438 21.9408H22.3438ZM22.3438 19.5033C22.5672 19.5033 22.75 19.6861 22.75 19.9095C22.75 20.1346 22.5672 20.3158 22.3438 20.3158H15.8438C15.6187 20.3158 15.4375 20.1346 15.4375 19.9095C15.4375 19.6861 15.6187 19.5033 15.8438 19.5033H22.3438ZM22.3438 17.0658C22.5672 17.0658 22.75 17.2486 22.75 17.472C22.75 17.6971 22.5672 17.8783 22.3438 17.8783H15.8438C15.6187 17.8783 15.4375 17.6971 15.4375 17.472C15.4375 17.2486 15.6187 17.0658 15.8438 17.0658H22.3438ZM22.3438 12.1908C22.5672 12.1908 22.75 12.3727 22.75 12.597C22.75 12.8212 22.5672 13.0033 22.3438 13.0033H6.90625C6.682 13.0033 6.5 12.8212 6.5 12.597C6.5 12.3727 6.682 12.1908 6.90625 12.1908H22.3438ZM22.3438 14.6283C22.5672 14.6283 22.75 14.8111 22.75 15.0345C22.75 15.2596 22.5672 15.4408 22.3438 15.4408H6.90625C6.682 15.4408 6.5 15.2596 6.5 15.0345C6.5 14.8111 6.682 14.6283 6.90625 14.6283H22.3438ZM7.3125 10.5625H13C13.4493 10.5625 13.8125 10.1993 13.8125 9.75V4.06575C13.8125 3.61644 13.4493 3.25325 13 3.25325H7.3125C6.86319 3.25325 6.5 3.61644 6.5 4.06575V9.75C6.5 10.1985 6.86319 10.5625 7.3125 10.5625ZM8.125 4.875H12.1875V8.9375H8.125V4.875Z" />
</g>
<defs>
<clipPath id="clip0_16_456">
<rect width="26" height="26" fill="white"/>
</clipPath>
</defs>
</symbol>

<symbol id="icon-page" viewBox="0 0 26 26">
<g clip-path="url(#clip0_6_156)">
<path d="M25.5239 6.16281L20.6489 1.28781C20.3442 0.983125 19.9298 0.8125 19.5 0.8125H2.4375C1.09362 0.8125 0 1.90531 0 3.25V22.75C0 24.0939 1.09362 25.1875 2.4375 25.1875H23.5625C24.9064 25.1875 26 24.0939 26 22.75V7.3125C26 6.88106 25.8286 6.4675 25.5239 6.16281ZM24.375 22.75C24.375 23.1993 24.0118 23.5625 23.5625 23.5625H2.4375C1.98819 23.5625 1.625 23.1993 1.625 22.75V3.25C1.625 2.80069 1.98819 2.4375 2.4375 2.4375H18.6875V5.6875H18.6859C18.6859 7.03381 19.7779 8.125 21.1234 8.125H24.375V22.75ZM21.9359 7.3125H21.1234C20.228 7.3125 19.4984 6.58369 19.4984 5.6875H19.5V2.4375L24.375 7.3125H21.9359ZM12.5938 6.5C12.3695 6.5 12.1875 6.31881 12.1875 6.09375C12.1875 5.86869 12.3695 5.6875 12.5938 5.6875H16.6562C16.8797 5.6875 17.0625 5.8695 17.0625 6.09375C17.0625 6.318 16.8797 6.5 16.6562 6.5H12.5938ZM12.5938 8.9375C12.3695 8.9375 12.1875 8.7555 12.1875 8.53125C12.1875 8.307 12.3695 8.125 12.5938 8.125H16.6562C16.8797 8.125 17.0625 8.307 17.0625 8.53125C17.0625 8.7555 16.8797 8.9375 16.6562 8.9375H12.5938ZM12.1875 10.9688C12.1875 10.7437 12.3695 10.5625 12.5938 10.5625H22.3438C22.5672 10.5625 22.75 10.7445 22.75 10.9688C22.75 11.193 22.5672 11.375 22.3438 11.375H12.5938C12.3695 11.375 12.1875 11.193 12.1875 10.9688ZM22.3438 15.4375C22.5672 15.4375 22.75 15.6187 22.75 15.8438C22.75 16.0672 22.5672 16.25 22.3438 16.25H3.65625C3.432 16.25 3.25 16.0672 3.25 15.8438C3.25 15.6187 3.432 15.4375 3.65625 15.4375H22.3438ZM22.3438 17.875C22.5672 17.875 22.75 18.0562 22.75 18.2812C22.75 18.5047 22.5672 18.6875 22.3438 18.6875H3.65625C3.432 18.6875 3.25 18.5047 3.25 18.2812C3.25 18.0562 3.432 17.875 3.65625 17.875H22.3438ZM22.3438 20.3125C22.5672 20.3125 22.75 20.4937 22.75 20.7188C22.75 20.9422 22.5672 21.125 22.3438 21.125H3.65625C3.432 21.125 3.25 20.9422 3.25 20.7188C3.25 20.4937 3.432 20.3125 3.65625 20.3125H22.3438ZM22.3438 13C22.5672 13 22.75 13.182 22.75 13.4062C22.75 13.6305 22.5672 13.8125 22.3438 13.8125H3.65625C3.432 13.8125 3.25 13.6313 3.25 13.4062C3.25 13.1812 3.432 13 3.65625 13H22.3438ZM4.0625 11.375H9.75C10.1993 11.375 10.5625 11.0118 10.5625 10.5625V5.6875C10.5625 5.23819 10.1993 4.875 9.75 4.875H4.0625C3.61319 4.875 3.25 5.23819 3.25 5.6875V10.5625C3.25 11.011 3.61319 11.375 4.0625 11.375ZM4.875 6.5H8.9375V9.75H4.875V6.5Z" />
</g>
<defs>
<clipPath id="clip0_6_156">
<rect width="26" height="26" fill="white"/>
</clipPath>
</defs>
</symbol>

<symbol id="icon-pen" viewBox="0 0 26 26">
<g clip-path="url(#clip0_6_159)">
<path d="M23.8834 2.09625C22.5469 0.761312 20.787 0 19.0523 0C17.589 0 16.2419 0.54275 15.2579 1.52506L11.3035 5.50956C11.2913 5.52094 11.2775 5.52825 11.2653 5.54044C11.2588 5.54694 11.2548 5.55587 11.2483 5.56156L11.2499 5.56319L2.85756 14.0205C2.47081 14.4048 2.1905 14.8834 2.0345 15.4058L0.125938 22.3186C0.124312 22.3372 0 22.88 0 23.1562C0 24.726 1.27481 26 2.847 26C3.15981 26 3.76512 25.8505 3.78706 25.8472L10.6754 24.0362C11.1987 23.881 11.674 23.5982 12.0608 23.2107L24.4619 10.712C26.7174 8.45487 26.4631 4.67188 23.8834 2.09625ZM13.0114 19.3334C12.9447 18.6006 12.7376 17.8815 12.4272 17.199L20.1094 9.51762C20.579 11.0012 20.3377 12.5531 19.3083 13.5834C19.3018 13.5899 19.2936 13.5939 19.2879 13.6004L19.2993 13.611L13.0203 19.9404C13.0203 19.7381 13.0301 19.5398 13.0114 19.3334ZM12.0193 16.458C11.7163 15.9599 11.3717 15.4789 10.9452 15.0532C10.4487 14.5568 9.87919 14.1676 9.28444 13.8409L17.0292 6.09619C17.6369 6.36594 18.2195 6.75025 18.7338 7.26456C19.1734 7.7025 19.513 8.19325 19.7746 8.7035L12.0193 16.458ZM8.51987 13.4566C7.7675 13.1536 6.97937 12.9805 6.18962 12.9699L12.4483 6.66331C13.4062 5.72894 14.8013 5.46 16.1753 5.80044L8.51987 13.4566ZM3.38569 24.2718C3.29712 24.2921 3.02169 24.362 2.83481 24.375C2.16694 24.3669 1.625 23.8241 1.625 23.1562C1.63475 23.0198 1.68919 22.7849 1.70788 22.6996L2.56344 19.6007C3.49213 19.5756 4.4915 19.9371 5.27719 20.7244C6.07506 21.5207 6.45044 22.5396 6.40981 23.4796L3.38569 24.2718ZM7.21012 23.2676C7.19062 22.1772 6.747 21.0429 5.85162 20.1492C5.005 19.3018 3.89675 18.8126 2.79175 18.7688L3.601 15.8381C3.6595 15.6431 3.77569 15.4505 3.91869 15.2823C5.54856 14.1156 8.05513 14.4601 9.79631 16.2029C11.6383 18.044 11.9226 20.7415 10.504 22.3519C10.4097 22.4014 10.3147 22.4486 10.2123 22.4786L7.21012 23.2676ZM23.3114 9.56475L21.9432 10.9436C21.9432 10.7599 21.9651 10.5836 21.9481 10.3959C21.8051 8.82375 21.0722 7.30356 19.8819 6.11487C18.5583 4.7905 16.8033 4.03081 15.0654 4.02594L16.4109 2.66906C17.0844 1.99713 18.0245 1.625 19.0523 1.625C20.3596 1.625 21.7027 2.2165 22.7354 3.24594C23.7047 4.21362 24.2824 5.41613 24.3653 6.63244C24.4416 7.7675 24.0671 8.80831 23.3114 9.56475Z" />
</g>
<defs>
<clipPath id="clip0_6_159">
<rect width="26" height="26" fill="white"/>
</clipPath>
</defs>
</symbol>

<symbol id="icon-profile" viewBox="0 0 26 26">
<g clip-path="url(#clip0_6_114)">
<path d="M25.277 23.023C25.1137 22.9149 22.1505 20.9714 17.7427 20.0176C19.3596 17.9692 20.398 15.2141 20.8392 13.3802C21.4518 10.8387 21.2137 5.86625 18.773 2.76737C17.3462 0.956312 15.3499 0 13.0002 0C10.6504 0 8.6541 0.957125 7.22816 2.76737C4.78742 5.86544 4.55016 10.8379 5.16198 13.3794C5.60316 15.2132 6.64073 17.9684 8.25841 20.0168C3.8506 20.9706 0.887415 22.9141 0.724915 23.0222C0.129352 23.4187 -0.137148 24.1597 0.0708522 24.8438C0.277227 25.5304 0.910165 26 1.62516 26H24.3752C25.091 26 25.7223 25.5304 25.9303 24.8446C26.1391 24.1605 25.8726 23.4195 25.277 23.023ZM16.4671 19.0109L16.2022 19.3472C14.2644 21.5735 11.7375 21.5735 9.80054 19.3472L9.53485 19.0109C7.27204 16.1436 6.14917 12.3508 6.6326 8.73275C7.07542 5.25606 9.06767 1.625 13.0002 1.625C16.9327 1.625 18.9257 5.25688 19.3685 8.73356C19.8504 12.3532 18.7315 16.1419 16.4671 19.0109ZM1.62516 24.375C1.73729 24.3002 4.49004 22.4949 8.60129 21.606L10.6195 21.1697C11.3402 21.6426 12.1308 21.9375 13.0002 21.9375C13.8704 21.9375 14.6601 21.6426 15.3808 21.1697L17.399 21.606C21.4778 22.4884 24.2208 24.2734 24.3752 24.375H1.62516Z" />
</g>
<defs>
<clipPath id="clip0_6_114">
<rect width="26" height="26" fill="white"/>
</clipPath>
</defs>
</symbol>

<symbol id="icon-search" viewBox="0 0 26 26">
<g clip-path="url(#clip0_1_86)">
<path d="M16.25 0.00405884C10.8656 0.00405884 6.5 4.36962 6.5 9.75406C6.5 11.4002 6.91194 12.9496 7.63344 14.3106L0.853938 21.0884L0.859625 21.0933C0.329875 21.6141 0 22.3356 0 23.1376C0 24.7211 1.28375 26.0049 2.86731 26.0049C3.66762 26.0049 4.38994 25.675 4.91075 25.1444L4.90912 25.1428L11.6862 18.3666C13.0479 19.0905 14.5998 19.5041 16.25 19.5041C21.6344 19.5041 26 15.1385 26 9.75406C26 4.36962 21.6344 0.00405884 16.25 0.00405884ZM3.89594 24.1288C3.63431 24.4002 3.27194 24.57 2.86731 24.57C2.07512 24.57 1.43325 23.9289 1.43325 23.1367C1.43325 22.7321 1.60387 22.3706 1.87444 22.1081L1.86713 22.1016L8.42075 15.548C8.99356 16.3207 9.67606 17.0032 10.4471 17.5776L3.89594 24.1288ZM16.25 17.8799C11.7634 17.8799 8.125 14.2407 8.125 9.75487C8.125 5.26906 11.7634 1.62987 16.25 1.62987C20.7358 1.62987 24.375 5.26825 24.375 9.75487C24.375 14.2415 20.7358 17.8799 16.25 17.8799ZM16.25 4.06656C16.4734 4.06656 16.6562 4.24856 16.6562 4.47281C16.6562 4.69706 16.4734 4.87906 16.25 4.87906C13.5574 4.87906 11.375 7.06225 11.375 9.75406C11.375 9.97831 11.193 10.1603 10.9688 10.1603C10.7445 10.1603 10.5625 9.97831 10.5625 9.75406C10.5625 6.61293 13.1081 4.06656 16.25 4.06656Z" />
</g>
<defs>
<clipPath id="clip0_1_86">
<rect width="26" height="26" fill="white"/>
</clipPath>
</defs>
</symbol>

<symbol id="icon-set" viewBox="0 0 26 26">
<g clip-path="url(#clip0_1_88)">
<path d="M6.5 4.89206V2.4375C6.5 1.09362 5.40637 0 4.0625 0C2.71863 0 1.625 1.09362 1.625 2.4375V4.89206C0.6435 5.6355 0 6.79981 0 8.125C0 9.45019 0.6435 10.6145 1.625 11.3563V23.5625C1.625 24.9064 2.71863 26 4.0625 26C5.40637 26 6.5 24.9064 6.5 23.5625V11.3563C7.4815 10.6153 8.125 9.45019 8.125 8.125C8.125 6.79981 7.4815 5.6355 6.5 4.89206ZM3.25 2.4375C3.25 1.98819 3.61319 1.625 4.0625 1.625C4.51181 1.625 4.875 1.98819 4.875 2.4375V4.14375C4.61256 4.09094 4.34119 4.0625 4.0625 4.0625C3.78381 4.0625 3.51244 4.09094 3.25 4.14375V2.4375ZM4.875 23.5625C4.875 24.0118 4.51181 24.375 4.0625 24.375C3.61319 24.375 3.25 24.0118 3.25 23.5625V12.1046C3.51244 12.1591 3.78381 12.1875 4.0625 12.1875C4.34119 12.1875 4.61256 12.1591 4.875 12.1046V23.5625ZM6.39031 8.8075C6.37731 8.85056 6.36594 8.89281 6.3505 8.93587C6.27331 9.15038 6.17419 9.3535 6.04338 9.53388C6.04013 9.53875 6.03525 9.542 6.032 9.54688C5.89062 9.74025 5.72244 9.91169 5.5315 10.0563C5.52825 10.0596 5.52581 10.0612 5.52338 10.0628C5.32756 10.2107 5.109 10.3293 4.87419 10.4122C4.61987 10.504 4.34931 10.5625 4.0625 10.5625C3.77569 10.5625 3.50513 10.504 3.25 10.4114C3.01519 10.3285 2.79662 10.2099 2.60081 10.062C2.59838 10.0604 2.59594 10.0588 2.59269 10.0555C2.40175 9.91088 2.23356 9.73944 2.09219 9.54606C2.08894 9.54119 2.08406 9.53794 2.08081 9.53306C1.95 9.35188 1.85088 9.14875 1.77369 8.93506C1.75825 8.892 1.74688 8.84975 1.73388 8.80669C1.66969 8.58975 1.625 8.36306 1.625 8.125C1.625 7.88531 1.66969 7.65863 1.73469 7.44088C1.74769 7.39781 1.75906 7.35556 1.7745 7.31413C1.85088 7.09963 1.95 6.8965 2.08162 6.7145C2.08488 6.70962 2.08975 6.70638 2.093 6.7015C2.23438 6.50975 2.40256 6.33669 2.5935 6.19206C2.59675 6.19044 2.59919 6.18719 2.60162 6.18556C2.79662 6.04012 3.01519 5.92069 3.25 5.837C3.50513 5.746 3.77569 5.6875 4.0625 5.6875C4.34931 5.6875 4.61987 5.746 4.875 5.837C5.10981 5.9215 5.32837 6.04012 5.52419 6.18637C5.52662 6.188 5.52906 6.19125 5.53231 6.19288C5.72325 6.3375 5.89144 6.51056 6.03281 6.70231C6.03606 6.70719 6.04094 6.71044 6.04419 6.71531C6.175 6.8965 6.27413 7.09963 6.3505 7.31413C6.36594 7.35556 6.37812 7.39781 6.39031 7.44088C6.45531 7.65863 6.5 7.88531 6.5 8.125C6.5 8.36306 6.45531 8.58975 6.39031 8.8075ZM24.375 4.89206V2.4375C24.375 1.09362 23.2814 0 21.9375 0C20.5936 0 19.5 1.09362 19.5 2.4375V4.89206C18.5177 5.6355 17.875 6.79981 17.875 8.125C17.875 9.45019 18.5177 10.6145 19.5 11.3563V23.5625C19.5 24.9064 20.5936 26 21.9375 26C23.2814 26 24.375 24.9064 24.375 23.5625V11.3563C25.3557 10.6153 26 9.45019 26 8.125C26 6.79981 25.3557 5.6355 24.375 4.89206ZM21.125 2.4375C21.125 1.98819 21.4882 1.625 21.9375 1.625C22.3868 1.625 22.75 1.98819 22.75 2.4375V4.14375C22.4867 4.09094 22.2154 4.0625 21.9375 4.0625C21.658 4.0625 21.3866 4.09094 21.125 4.14375V2.4375ZM22.75 23.5625C22.75 24.0118 22.3868 24.375 21.9375 24.375C21.4882 24.375 21.125 24.0118 21.125 23.5625V12.1046C21.3866 12.1591 21.658 12.1875 21.9375 12.1875C22.2154 12.1875 22.4867 12.1591 22.75 12.1046V23.5625ZM24.2653 8.8075C24.2523 8.85056 24.2401 8.89281 24.2255 8.93587C24.1475 9.15038 24.0492 9.3535 23.9176 9.53388C23.9143 9.53875 23.9094 9.542 23.9062 9.54688C23.7648 9.74025 23.5966 9.91169 23.4065 10.0563C23.4032 10.0596 23.4 10.0612 23.3984 10.0628C23.2017 10.2107 22.984 10.3293 22.7492 10.4122C22.4949 10.504 22.2235 10.5625 21.9375 10.5625C21.6499 10.5625 21.3801 10.504 21.125 10.4114C20.8902 10.3285 20.6708 10.2099 20.4758 10.062C20.4726 10.0604 20.4709 10.0588 20.4677 10.0555C20.2759 9.91088 20.1077 9.73944 19.9664 9.54606C19.9631 9.54119 19.9583 9.53794 19.955 9.53306C19.825 9.35188 19.7251 9.14875 19.6487 8.93506C19.6324 8.892 19.6219 8.84975 19.6089 8.80669C19.5447 8.58975 19.5 8.36306 19.5 8.125C19.5 7.88531 19.5447 7.65863 19.6097 7.44088C19.6227 7.39781 19.6332 7.35556 19.6495 7.31413C19.7259 7.09963 19.8258 6.8965 19.9558 6.7145C19.9591 6.70962 19.9639 6.70638 19.9672 6.7015C20.1086 6.50975 20.2767 6.33669 20.4685 6.19206C20.4718 6.19044 20.4734 6.18719 20.4766 6.18556C20.6716 6.03931 20.891 5.92069 21.1258 5.83619C21.3801 5.746 21.6499 5.6875 21.9375 5.6875C22.2235 5.6875 22.4949 5.746 22.75 5.837C22.9848 5.9215 23.2026 6.04012 23.3992 6.18637C23.4008 6.188 23.4041 6.19125 23.4073 6.19288C23.5974 6.3375 23.7656 6.51056 23.907 6.70231C23.9102 6.70719 23.9151 6.71044 23.9184 6.71531C24.05 6.89813 24.1483 7.10125 24.2263 7.31494C24.2409 7.35638 24.2531 7.39944 24.2661 7.44169C24.3303 7.65863 24.375 7.88531 24.375 8.125C24.375 8.36306 24.3303 8.58975 24.2653 8.8075ZM15.4375 14.6421V2.4375C15.4375 1.09362 14.3439 0 13 0C11.6561 0 10.5625 1.09362 10.5625 2.4375V14.6421C9.581 15.3847 8.9375 16.5498 8.9375 17.875C8.9375 19.2002 9.581 20.3645 10.5625 21.1063V23.5625C10.5625 24.9064 11.6561 26 13 26C14.3439 26 15.4375 24.9064 15.4375 23.5625V21.1063C16.4182 20.3653 17.0625 19.2002 17.0625 17.875C17.0625 16.5498 16.4182 15.3855 15.4375 14.6421ZM12.1875 2.4375C12.1875 1.98819 12.5507 1.625 13 1.625C13.4493 1.625 13.8125 1.98819 13.8125 2.4375V13.8938C13.5492 13.8418 13.2779 13.8125 13 13.8125C12.7213 13.8125 12.4499 13.8409 12.1875 13.8938V2.4375ZM13.8125 23.5625C13.8125 24.0118 13.4493 24.375 13 24.375C12.5507 24.375 12.1875 24.0118 12.1875 23.5625V21.8546C12.4499 21.9091 12.7213 21.9375 13 21.9375C13.2779 21.9375 13.5492 21.9091 13.8125 21.8546V23.5625ZM15.3278 18.5575C15.3148 18.6006 15.3026 18.6428 15.288 18.6859C15.21 18.9004 15.1117 19.1035 14.9801 19.2839C14.9768 19.2887 14.9719 19.292 14.9687 19.2969C14.8273 19.4902 14.6591 19.6617 14.469 19.8063C14.4658 19.8096 14.4625 19.8112 14.4609 19.8128C14.2642 19.9607 14.0465 20.0793 13.8117 20.1622C13.5574 20.254 13.286 20.3125 13 20.3125C12.714 20.3125 12.4426 20.254 12.1875 20.1614C11.9527 20.0785 11.7341 19.9599 11.5383 19.812C11.5359 19.8104 11.5334 19.8088 11.5302 19.8055C11.3392 19.6609 11.1711 19.4894 11.0297 19.2961C11.0264 19.2912 11.0216 19.2879 11.0183 19.2831C10.8875 19.1019 10.7884 18.8988 10.7112 18.6851C10.6957 18.642 10.6844 18.5998 10.6714 18.5567C10.6072 18.3398 10.5625 18.1131 10.5625 17.875C10.5625 17.6353 10.6072 17.4086 10.6722 17.1909C10.6852 17.1478 10.6966 17.1056 10.712 17.0641C10.7892 16.8496 10.8883 16.6465 11.0191 16.4645C11.0224 16.4596 11.0273 16.4564 11.0305 16.4515C11.1719 16.2597 11.3401 16.0867 11.531 15.9421C11.5343 15.9404 11.5367 15.9372 11.5391 15.9356C11.7349 15.7893 11.9535 15.6707 12.1883 15.5862C12.4426 15.496 12.7132 15.4375 13 15.4375C13.286 15.4375 13.5574 15.496 13.8125 15.587C14.0473 15.6715 14.2651 15.7901 14.4617 15.9364C14.4633 15.938 14.4666 15.9412 14.4698 15.9429C14.6599 16.0875 14.8281 16.2606 14.9695 16.4523C14.9727 16.4572 14.9776 16.4604 14.9809 16.4653C15.1125 16.6481 15.2108 16.8512 15.2888 17.0649C15.3034 17.1064 15.3156 17.1494 15.3286 17.1917C15.3928 17.4086 15.4375 17.6353 15.4375 17.875C15.4375 18.1131 15.3928 18.3398 15.3278 18.5575Z" />
</g>
<defs>
<clipPath id="clip0_1_88">
<rect width="26" height="26" fill="white"/>
</clipPath>
</defs>
</symbol>

<symbol id="icon-stack" viewBox="0 0 26 26">
<path d="M25.9382 14.9947L22.6866 2.80231C22.49 2.10925 21.8473 1.625 21.125 1.625H4.875C4.15188 1.625 3.51 2.10925 3.31337 2.80231L0.06175 14.9947C0.0203125 15.1426 0 15.2913 0 15.4375V21.125C0 22.9198 1.45519 24.375 3.25 24.375H22.75C24.5448 24.375 26 22.9198 26 21.125V15.4375C26 15.2913 25.9797 15.1426 25.9382 14.9947ZM24.375 21.125C24.375 22.0204 23.6454 22.75 22.75 22.75H3.25C2.35381 22.75 1.625 22.0204 1.625 21.125V15.4375L4.87581 3.24919H21.1234L24.375 15.4375V21.125ZM19.2904 4.875H6.70963C6.34156 4.875 6.019 5.12281 5.92394 5.47869L3.12488 15.2287C3.06069 15.4733 3.11188 15.7333 3.26625 15.9331C3.42062 16.133 3.65787 16.25 3.90975 16.25H7.62125L8.79694 18.6022C9.07319 19.1523 9.63544 19.5 10.2513 19.5H15.7487C16.3646 19.5 16.926 19.1523 17.2023 18.6022L18.3779 16.25H22.0894C22.3421 16.25 22.5802 16.1322 22.7337 15.9323C22.8873 15.7324 22.9385 15.4724 22.8751 15.2279L20.0761 5.47787C19.981 5.122 19.6584 4.875 19.2904 4.875ZM19.7283 14.625H18.3779C17.7588 14.625 17.2022 14.9679 16.9244 15.5228L15.7487 17.875H10.2513L9.07563 15.5228C8.79775 14.9679 8.24119 14.625 7.62206 14.625H4.33388L6.70963 5.6875H19.2904L21.6661 14.625H19.7283Z" />
</symbol>

<symbol id="icon-study" viewBox="0 0 26 26">
<g clip-path="url(#clip0_6_112)">
<path d="M26 6.5C26 5.35763 25.2224 4.381 24.1101 4.12425L13.5371 1.68431C13.3599 1.6445 13.1796 1.625 13 1.625C12.8204 1.625 12.6401 1.6445 12.4516 1.68675L1.88987 4.12425C0.77675 4.381 0 5.35763 0 6.5C0 7.64237 0.777562 8.619 1.88906 8.87575L4.0625 9.37706V16.25C4.0625 18.4064 6.53088 20.3125 13 20.3125C19.4691 20.3125 21.9375 18.4064 21.9375 16.25V9.37706L24.1101 8.87575C25.2224 8.619 26 7.64237 26 6.5ZM20.3125 16.25C20.3125 17.1478 17.875 18.6875 13 18.6875C8.125 18.6875 5.6875 17.1478 5.6875 16.25V9.75244L12.4621 11.3157C12.6392 11.3555 12.8204 11.375 13 11.375C13.1796 11.375 13.3608 11.3555 13.5476 11.3132L20.3125 9.75244V16.25ZM13.1828 9.72969C13.1219 9.74269 13.0609 9.75 13 9.75C12.9391 9.75 12.8773 9.74269 12.8172 9.72969L2.25469 7.29219C1.88581 7.20688 1.625 6.87862 1.625 6.5C1.625 6.12138 1.88581 5.79313 2.25469 5.70781L12.8172 3.27031C12.8773 3.25731 12.9382 3.25 13 3.25C13.0618 3.25 13.1227 3.25731 13.1828 3.27031L23.7453 5.70781C24.1134 5.79313 24.375 6.12138 24.375 6.5C24.375 6.87862 24.1134 7.20688 23.7453 7.29219L13.1828 9.72969ZM23.5625 10.5625C23.5625 10.1132 23.9257 9.75 24.375 9.75C24.8235 9.75 25.1875 10.1132 25.1875 10.5625V17.875C25.1875 18.3243 24.8235 18.6875 24.375 18.6875C23.9257 18.6875 23.5625 18.3243 23.5625 17.875V10.5625ZM24.375 19.5C25.272 19.5 26 21.853 26 22.75C26 23.647 25.272 24.375 24.375 24.375C23.4772 24.375 22.75 23.647 22.75 22.75C22.75 21.853 23.4772 19.5 24.375 19.5Z" />
</g>
<defs>
<clipPath id="clip0_6_112">
<rect width="26" height="26" fill="white"/>
</clipPath>
</defs>
</symbol>

<symbol id="icon-vector" viewBox="0 0 26 26">
<path d="M25.9033 10.2026C25.6782 9.55338 25.1006 9.07806 24.4051 8.97487L17.6402 7.969L14.6997 1.86387C14.3902 1.22281 13.728 0.8125 13 0.8125C12.272 0.8125 11.6098 1.22281 11.3002 1.86387L8.35981 7.969L1.59412 8.97487C0.899436 9.07806 0.321748 9.55338 0.097498 10.2026C-0.125939 10.8534 0.0430606 11.57 0.53381 12.0591L5.49168 17.0089L4.342 23.8753C4.225 24.5667 4.52481 25.2606 5.11225 25.6652C5.43481 25.8871 5.81425 26 6.19369 26C6.50569 26 6.8185 25.9236 7.10206 25.7717L13 22.5964L18.8987 25.7717C19.1823 25.9236 19.4951 26 19.8063 26C20.1857 26 20.5652 25.8871 20.8886 25.6652C21.476 25.2606 21.7742 24.5667 21.658 23.8753L20.5075 17.0089L25.467 12.0591C25.9569 11.5692 26.1251 10.8526 25.9033 10.2026ZM19.1652 15.7324C18.7492 16.1468 18.5607 16.731 18.6558 17.3038L19.8063 24.1702L13.9076 20.9966C13.6248 20.8439 13.3128 20.7683 12.9992 20.7683C12.6872 20.7683 12.3744 20.8447 12.0916 20.9966L6.19287 24.1702L7.34337 17.3038C7.43925 16.731 7.25075 16.1468 6.83475 15.7324L1.87687 10.7827L8.64175 9.77519C9.26006 9.68338 9.79225 9.29662 10.0579 8.74494L13 2.64144L15.9412 8.74575C16.2077 9.29744 16.7391 9.68337 17.3566 9.776L24.1231 10.7835L19.1652 15.7324Z" />
</symbol>

<symbol id="icon-wallet" viewBox="0 0 26 26">
<g clip-path="url(#clip0_6_150)">
<path d="M13 16.25C13 15.3522 13.7272 14.625 14.625 14.625C15.5228 14.625 16.25 15.3522 16.25 16.25C16.25 17.1478 15.5228 17.875 14.625 17.875C13.7272 17.875 13 17.1478 13 16.25ZM23.5633 10.5625C23.5625 10.5625 23.5625 10.5625 23.5633 10.5625L23.5625 5.6875V3.25C23.5625 1.90369 22.4705 0.8125 21.125 0.8125H4.46875C2.00444 0.8125 0 2.81775 0 5.28125V21.5312C0 23.9948 2.00444 26 4.46875 26H19.0938C21.5573 26 23.5625 23.9948 23.5625 21.5312V20.3125C23.5625 20.3125 23.5625 20.3125 23.5633 20.3125C26.8117 17.8742 26.8117 13.0008 23.5633 10.5625ZM4.46875 2.4375H21.125C21.5727 2.4375 21.9375 2.8015 21.9375 3.25V8.2745C21.6824 8.1835 21.411 8.125 21.125 8.125H21.1242V4.0625C21.1242 3.61319 20.7602 3.25 20.3117 3.25H3.24919C2.80069 3.25 2.43669 3.61319 2.43669 4.0625V7.26619C1.93538 6.7535 1.625 6.05475 1.625 5.28125C1.625 3.71069 2.89738 2.4375 4.46875 2.4375ZM20.3117 4.875H3.24919V4.0625H20.3117V4.875ZM20.3117 5.6875V6.5H3.24919V5.6875H20.3117ZM20.3117 7.3125V8.125H4.46875C4.03 8.125 3.6205 8.01775 3.25 7.84062V7.3125H20.3117ZM21.9375 21.5312C21.9375 23.1018 20.6643 24.375 19.0938 24.375H4.46875C2.89738 24.375 1.625 23.1018 1.625 21.5312V8.72544C2.39769 9.36487 3.38894 9.75 4.46875 9.75H21.125C21.5727 9.75 21.9375 10.114 21.9375 10.5625V12.1875H14.625C12.3809 12.1875 10.5625 14.0059 10.5625 16.25C10.5625 18.4941 12.3817 20.3125 14.625 20.3125H21.9375V21.5312ZM22.9751 18.6875H14.625C13.2811 18.6875 12.1875 17.5939 12.1875 16.25C12.1875 14.9061 13.2811 13.8125 14.625 13.8125H21.9375C22.4388 13.806 22.9361 13.5631 23.2391 13.1592C23.3236 13.0455 23.3894 12.9179 23.4422 12.7847C23.4496 12.7668 23.4626 12.753 23.4691 12.7343C24.0532 13.5005 24.375 14.4397 24.375 15.4375C24.375 16.6871 23.8704 17.8466 22.9751 18.6875Z" />
</g>
<defs>
<clipPath id="clip0_6_150">
<rect width="26" height="26" fill="white"/>
</clipPath>
</defs>
</symbol>

<symbol id="icon-change" viewBox="0 0 26 26">
<path d="M13 0C8.06325 0 4.0625 4.00075 4.0625 8.9375C4.0625 12.2127 7.059 15.6837 8.15019 18.7322C9.77763 23.2781 9.59725 26 13 26C16.4531 26 16.2216 23.2911 17.8498 18.7509C18.9442 15.6959 21.9375 12.1875 21.9375 8.9375C21.9375 4.00075 17.9351 0 13 0ZM15.106 22.0805L11.0776 22.5834C10.9338 22.1674 10.7794 21.6808 10.5918 21.0454C10.5893 21.0373 10.5861 21.0283 10.5844 21.0202L15.6122 20.3921C15.5407 20.6318 15.4643 20.8837 15.3977 21.1096C15.2913 21.4744 15.1962 21.7913 15.106 22.0805ZM10.348 20.2378C10.2001 19.7486 10.0336 19.2335 9.84831 18.6875H16.1582C16.0582 18.9792 15.9583 19.2717 15.8722 19.5479L10.348 20.2378ZM13 24.375C12.1769 24.375 11.7983 24.2799 11.3774 23.3594L14.8208 22.9279C14.3219 24.2718 13.9587 24.375 13 24.375ZM16.796 17.0625H9.21294C8.80831 16.185 8.32244 15.3075 7.84306 14.4487C6.78275 12.5515 5.6875 10.5893 5.6875 8.9375C5.6875 4.90506 8.96756 1.625 13 1.625C17.0324 1.625 20.3125 4.90506 20.3125 8.9375C20.3125 10.5771 19.2156 12.5499 18.1545 14.4584C17.68 15.314 17.1974 16.1899 16.796 17.0625ZM13 4.0625C13.2234 4.0625 13.4062 4.2445 13.4062 4.46875C13.4062 4.693 13.2242 4.875 13 4.875C10.7599 4.875 8.9375 6.69744 8.9375 8.9375C8.9375 9.16175 8.7555 9.34375 8.53125 9.34375C8.307 9.34375 8.125 9.16175 8.125 8.9375C8.125 6.24894 10.3114 4.0625 13 4.0625Z"/>
</symbol>

</svg>
