<svg width="33" height="32" viewBox="0 0 33 32" fill="none" xmlns="http://www.w3.org/2000/svg">
<path d="M16.462 31.9903C25.0889 31.9903 32.0824 24.8312 32.0824 16C32.0824 7.1688 25.0889 0.00970459 16.462 0.00970459C7.83514 0.00970459 0.841675 7.1688 0.841675 16C0.841675 24.8312 7.83514 31.9903 16.462 31.9903Z" fill="#9E8CFC"/>
<path d="M11.5497 30.179C12.1887 30.3997 14.3346 31.1058 14.4259 30.4154C14.4754 30.0365 13.3429 29.6483 11.8096 28.8264C9.62893 27.6602 7.63397 26.1688 5.89166 24.4022C3.34854 21.879 1.88622 18.4464 1.81948 14.8431C1.68952 10.0056 3.55851 6.09492 6.63276 3.57129C2.87333 6.50737 0.622496 11.002 0.505922 15.8059C0.414639 19.3048 1.38163 22.2527 3.19802 24.936C3.76205 25.6732 4.42137 26.3303 5.1583 26.8898C6.89888 28.2221 9.44399 29.4542 11.5497 30.1774" fill="white"/>
<path d="M32.2974 12.3351C31.3289 7.72621 28.3181 4.49966 24.2908 2.22025C27.3774 4.43861 31.7095 9.15554 29.1489 13.3167C26.9828 16.6497 21.7224 15.9969 18.8369 14.4126C15.4146 12.5339 11.132 8.30702 15.3558 4.1756C18.0943 1.50168 26.8049 4.49966 25.2717 8.49645C24.3774 10.8213 20.8962 10.3046 19.3305 9.16806C18.1763 8.32894 17.2047 6.88709 17.7199 5.39827C17.8839 4.92079 17.8607 4.18029 17.1938 4.7251C16.7018 5.13213 16.4465 5.80218 16.3599 6.42839C15.6312 11.64 24.8075 15.6807 27.5306 10.6381C28.9431 8.02053 26.6533 4.21943 23.7709 2.6633C21.6048 1.48915 19.3506 0.664118 16.5873 0.864506C12.1686 1.17761 8.46154 3.97991 7.99584 8.54812C7.53168 13.0881 10.5317 17.1742 14.0639 19.618C17.7771 22.1854 22.7683 23.8778 27.3356 22.3467C31.4294 20.9737 33.1205 16.2192 32.2974 12.3383" fill="white"/>
</svg>
