<svg width="182" height="34" xmlns="http://www.w3.org/2000/svg">
<symbol id="logo" viewBox="0 0 182 34">
<path d="M1.17672 26.2565C0.392241 24.6545 0 22.7705 0 20.6047C0 18.4389 0.375898 16.5253 1.12769 14.8639C1.91218 13.1728 2.9745 11.719 4.31466 10.5026C7.15841 7.9808 10.7213 6.7199 15.0032 6.7199C19.4813 6.7199 23.1749 7.65445 26.0841 9.52356C29.3527 11.6597 30.9871 14.7155 30.9871 18.6911C30.9871 23.6161 29.7286 27.2504 27.2117 29.5942C24.7276 31.938 20.8378 33.1099 15.5426 33.1099C8.18804 33.1099 3.39943 30.8255 1.17672 26.2565ZM4.02047 19.7147C4.02047 26.7164 7.9102 30.2173 15.6897 30.2173C19.514 30.2173 22.6193 29.1789 25.0054 27.1021C27.3915 25.055 28.5846 22.37 28.5846 19.0471C28.5846 15.9319 27.1627 13.5585 24.319 11.9267C21.9001 10.5026 18.8439 9.79058 15.1503 9.79058C12.2085 9.79058 9.60991 10.7548 7.35453 12.6832C5.13182 14.6117 4.02047 16.9555 4.02047 19.7147Z"/>
<path d="M53.0016 23.9869C53.0016 20.4564 52.7892 17.8604 52.3642 16.199C52.6257 15.7539 52.2335 15.5314 51.1875 15.5314C50.0761 15.5314 48.6379 15.7836 46.8728 16.288C45.1078 16.7923 43.6695 17.2967 42.5582 17.801C39.9106 18.9581 38.4397 20.0855 38.1455 21.1832V33.288H34.8605C34.4355 32.2792 34.2231 29.4459 34.2231 24.788C34.2231 20.6344 34.3048 17.5785 34.4682 15.6204C34.6643 13.6623 34.8114 12.5497 34.9095 12.2827C35.7593 11.7784 36.4458 11.5262 36.9688 11.5262C37.7859 11.5262 38.1945 12.4014 38.1945 14.1518C38.1945 14.8342 38.1455 15.5017 38.0474 16.1545C37.982 16.7775 37.9494 17.2077 37.9494 17.445C43.2446 13.9145 47.3468 12.1492 50.2559 12.1492C53.5573 12.1492 55.4368 14.5672 55.8944 19.4031C56.0905 21.0942 56.1886 23.438 56.1886 26.4346L56.1395 29.9503C56.1395 31.2557 56.1722 32.5166 56.2376 33.733C55.9107 33.911 55.6492 34 55.4531 34C55.3551 33.9703 55.1426 33.9258 54.8157 33.8665C54.4889 33.8072 54.0639 33.7627 53.5409 33.733C53.2141 32.5462 53.0343 31.3447 53.0016 30.1283C52.9689 28.8822 52.9526 27.74 52.9526 26.7016L53.0016 23.9869Z"/>
<path d="M95.0695 26.3456C96.7038 21.5393 98.5997 12.7574 100.757 0C102.816 0 103.895 0.578534 103.993 1.7356C104.026 2.09162 104.042 2.3438 104.042 2.49215C104.075 2.64049 104.026 3.15969 103.895 4.04974C103.764 4.91012 103.568 6.12653 103.307 7.69895C103.078 9.27138 102.784 11.096 102.424 13.1728C102.064 15.2496 101.656 17.4154 101.198 19.6702C100.087 24.9808 98.9429 29.4607 97.7662 33.1099C96.5894 33.8517 95.6742 33.9703 95.0205 33.466C94.7263 33.199 94.4648 32.8429 94.236 32.3979C94.0072 31.9232 93.7457 31.3892 93.4515 30.7958C93.0266 30.2914 92.2421 28.9564 91.0981 26.7906C89.954 24.6248 89.0224 22.904 88.3033 21.6283C87.6169 20.3525 86.9468 19.1658 86.2931 18.0681C84.7895 15.6056 83.5311 14.1667 82.5178 13.7513C81.3411 15.4127 79.2491 19.9668 76.2419 27.4136C75.7189 28.719 75.245 29.9354 74.82 31.0628C74.3951 32.1606 74.0356 33.0506 73.7414 33.733L70.7015 33.5995L58.444 7.87696C58.3786 7.72862 58.3459 7.58028 58.3459 7.43194C58.3459 7.2836 58.3949 7.13525 58.493 6.98691C58.6237 6.83857 58.8362 6.70506 59.1304 6.58639C59.6861 6.40838 60.2417 6.31937 60.7974 6.31937C61.3531 6.31937 61.7453 6.42321 61.9741 6.63089C62.2356 6.8089 62.4318 7.04625 62.5625 7.34293C62.7259 7.63962 62.8567 7.96597 62.9547 8.32199C63.0528 8.67801 63.2326 9.13787 63.4941 9.70157C63.7883 10.2653 64.1968 11.096 64.7198 12.1937C65.2755 13.2914 65.8639 14.4485 66.4849 15.6649C67.106 16.8813 67.727 18.0977 68.3481 19.3141C68.9691 20.5009 69.5575 21.5986 70.1131 22.6073C71.2899 24.8325 72.0253 26.0785 72.3195 26.3456C76.1112 17.8604 78.4483 12.8316 79.3308 11.2592C80.2134 9.65707 80.769 8.67801 80.9978 8.32199C81.3574 7.81763 81.6352 7.56544 81.8314 7.56544C83.2369 7.56544 85.6067 10.4136 88.9407 16.1099C89.856 17.623 90.7058 19.0768 91.4903 20.4712C93.4188 23.8534 94.6119 25.8115 95.0695 26.3456Z"/>
<path d="M125.468 26.3456C123.017 29.8464 119.748 32.0122 115.662 32.8429C114.714 33.0209 113.848 33.1099 113.064 33.1099C112.312 33.1099 111.674 33.1099 111.151 33.1099C110.661 33.0803 110.105 33.0061 109.484 32.8874C108.863 32.7688 108.291 32.5759 107.768 32.3089C106.559 31.6859 105.954 30.8106 105.954 29.6832C105.823 29.1492 105.758 28.5558 105.758 27.9031C105.758 27.2208 105.922 26.3307 106.248 25.233C106.575 24.1353 107.164 22.9485 108.013 21.6728C108.896 20.397 109.958 19.2251 111.2 18.1571C113.783 15.9023 116.577 14.4485 119.585 13.7958C120.467 13.6178 121.268 13.5288 121.987 13.5288C122.739 13.5288 123.409 13.5733 123.997 13.6623C125.893 13.6623 127.168 14.8342 127.822 17.178C128.247 18.6614 128.492 20.7382 128.557 23.4084C128.655 26.0489 128.737 28.096 128.802 29.5497C128.9 30.9738 129.113 32.2792 129.44 33.466H126.547C126.416 32.6649 126.318 31.9529 126.253 31.3298C126.187 30.7068 126.122 30.1283 126.057 29.5942C125.893 28.3482 125.697 27.2653 125.468 26.3456ZM125.272 19.4476C125.272 17.7269 124.341 16.8665 122.477 16.8665C122.249 16.8368 122.02 16.822 121.791 16.822C119.405 16.822 116.888 17.8604 114.24 19.9372C112.998 20.8866 111.936 21.9546 111.053 23.1414C109.746 24.8325 109.092 26.3456 109.092 27.6806C109.092 29.4311 110.203 30.4695 112.426 30.7958C115.368 30.7365 118.179 29.5201 120.859 27.1466C122.003 26.1082 122.951 24.9808 123.703 23.7644C124.749 22.1326 125.272 20.6937 125.272 19.4476Z"/>
<path d="M132.185 16.5105C132.12 16.3621 132.087 16.199 132.087 16.0209C132.087 15.8133 132.169 15.5462 132.332 15.2199C132.496 14.8935 132.725 14.6117 133.019 14.3743C133.346 14.137 133.689 14.0332 134.048 14.0628C134.441 14.0628 134.751 14.2705 134.98 14.6859L143.217 28.5707C143.479 28.2147 143.887 27.562 144.443 26.6126C145.031 25.6335 145.685 24.5358 146.404 23.3194C147.156 22.103 147.924 20.8421 148.709 19.5366C149.526 18.2016 150.277 16.9852 150.964 15.8874C152.533 13.3656 153.464 12.1047 153.759 12.1047C154.445 12.1047 154.935 12.3421 155.23 12.8168C155.556 13.2618 155.72 13.603 155.72 13.8403C155.72 14.0777 155.72 14.2408 155.72 14.3298C153.889 17.9494 152.19 21.2871 150.621 24.3429C149.084 27.3988 148.055 29.3866 147.532 30.3063C147.041 31.1963 146.6 31.9084 146.208 32.4424C145.522 33.3621 144.851 33.822 144.198 33.822C143.544 33.822 142.792 33.3621 141.942 32.4424C141.092 31.493 140.128 30.2321 139.05 28.6597C137.154 25.8115 134.866 21.7618 132.185 16.5105Z"/>
<path d="M167.781 30.6178C170.658 30.6178 174.989 29.4311 180.774 27.0576C181.134 27.0576 181.428 27.1763 181.657 27.4136C181.886 27.6213 182 27.8735 182 28.1702C180.693 30.1876 178.192 31.76 174.498 32.8874C170.805 34.0148 167.356 34.2077 164.153 33.466C160.525 32.6056 158.318 30.7513 157.534 27.9031C157.469 27.3394 157.436 26.5829 157.436 25.6335C157.436 24.6841 157.697 23.438 158.22 21.8953C158.776 20.3229 159.708 18.8394 161.015 17.445C162.323 16.0506 163.859 14.9529 165.624 14.1518C167.389 13.3508 169.268 12.9503 171.262 12.9503C173.158 12.9503 175.283 13.5436 177.636 14.7304C178.748 15.2941 179.63 15.9319 180.284 16.644C180.938 17.356 181.265 18.0829 181.265 18.8246C181.265 19.0323 181.248 19.24 181.216 19.4476C181.15 21.2574 180.186 22.3997 178.323 22.8743C177.506 23.082 176.558 23.1859 175.479 23.1859L168.419 22.9188C166.065 22.9188 164.267 23.3787 163.025 24.2984C162.306 24.8028 161.8 25.5593 161.505 26.5681C162.323 29.2679 164.415 30.6178 167.781 30.6178ZM176.509 16.8665C175.79 16.3918 175.038 16.0506 174.253 15.8429C173.469 15.6353 172.815 15.5314 172.292 15.5314C171.769 15.5314 170.919 15.6946 169.742 16.0209C168.566 16.3176 167.52 16.6588 166.605 17.0445C164.349 17.9939 163.221 18.9878 163.221 20.0262C165.836 20.2339 167.798 20.3377 169.105 20.3377C172.733 20.3377 175.185 20.0558 176.46 19.4921C177.244 19.1955 177.636 18.8246 177.636 18.3796C177.636 17.8456 177.26 17.3412 176.509 16.8665Z"/>
</symbol>
</svg>
