<svg width="33" height="32" viewBox="0 0 33 32" fill="none" xmlns="http://www.w3.org/2000/svg">
<mask id="path-1-outside-1_3101_18" maskUnits="userSpaceOnUse" x="0.0638428" y="0" width="32" height="32" fill="black">
<rect fill="white" x="0.0638428" width="32" height="32"/>
<path d="M31.0638 8.78711C31.0638 4.49329 27.5798 1 23.2975 1C20.0757 1 17.2106 3.02039 16.0639 5.953C14.9171 3.02039 12.0518 1 8.83015 1C4.54788 1 1.06384 4.49329 1.06384 8.78711C1.06384 12.0134 3.00546 14.8292 5.91059 16C3.00546 17.1708 1.06384 19.9866 1.06384 23.2129C1.06384 27.5067 4.54788 31 8.83015 31C12.0518 31 14.9171 28.9796 16.0639 26.047C17.2106 28.9796 20.0757 31 23.2975 31C27.5798 31 31.0638 27.5067 31.0638 23.2129C31.0638 19.9866 29.1222 17.1708 26.2171 16C29.1222 14.8292 31.0638 12.0134 31.0638 8.78711ZM24.8904 15.6349C24.7211 15.6741 24.6011 15.8257 24.6011 16C24.6011 16.1743 24.7211 16.3259 24.8904 16.3651C28.0848 17.1096 30.3158 19.9254 30.3158 23.2129C30.3158 27.0933 27.1674 30.25 23.2975 30.25C19.9947 30.25 17.1063 27.9004 16.4299 24.6635C16.3937 24.4899 16.2409 24.3654 16.0639 24.3654C15.887 24.3654 15.7341 24.4899 15.698 24.6635C15.0214 27.9004 12.133 30.25 8.83015 30.25C4.96024 30.25 1.81186 27.0933 1.81186 23.2129C1.81186 19.9254 4.04293 17.1096 7.23733 16.3651C7.40662 16.3259 7.5266 16.1743 7.5266 16C7.5266 15.8257 7.40662 15.6741 7.23733 15.6349C4.04293 14.8904 1.81186 12.0746 1.81186 8.78711C1.81186 4.90674 4.96024 1.75 8.83015 1.75C12.133 1.75 15.0214 4.09961 15.698 7.33655C15.7341 7.51013 15.887 7.63464 16.0639 7.63464C16.2409 7.63464 16.3937 7.51013 16.4299 7.33655C17.1063 4.09961 19.9947 1.75 23.2975 1.75C27.1674 1.75 30.3158 4.90674 30.3158 8.78711C30.3158 12.0746 28.0848 14.8904 24.8904 15.6349Z"/>
</mask>
<path d="M31.0638 8.78711C31.0638 4.49329 27.5798 1 23.2975 1C20.0757 1 17.2106 3.02039 16.0639 5.953C14.9171 3.02039 12.0518 1 8.83015 1C4.54788 1 1.06384 4.49329 1.06384 8.78711C1.06384 12.0134 3.00546 14.8292 5.91059 16C3.00546 17.1708 1.06384 19.9866 1.06384 23.2129C1.06384 27.5067 4.54788 31 8.83015 31C12.0518 31 14.9171 28.9796 16.0639 26.047C17.2106 28.9796 20.0757 31 23.2975 31C27.5798 31 31.0638 27.5067 31.0638 23.2129C31.0638 19.9866 29.1222 17.1708 26.2171 16C29.1222 14.8292 31.0638 12.0134 31.0638 8.78711ZM24.8904 15.6349C24.7211 15.6741 24.6011 15.8257 24.6011 16C24.6011 16.1743 24.7211 16.3259 24.8904 16.3651C28.0848 17.1096 30.3158 19.9254 30.3158 23.2129C30.3158 27.0933 27.1674 30.25 23.2975 30.25C19.9947 30.25 17.1063 27.9004 16.4299 24.6635C16.3937 24.4899 16.2409 24.3654 16.0639 24.3654C15.887 24.3654 15.7341 24.4899 15.698 24.6635C15.0214 27.9004 12.133 30.25 8.83015 30.25C4.96024 30.25 1.81186 27.0933 1.81186 23.2129C1.81186 19.9254 4.04293 17.1096 7.23733 16.3651C7.40662 16.3259 7.5266 16.1743 7.5266 16C7.5266 15.8257 7.40662 15.6741 7.23733 15.6349C4.04293 14.8904 1.81186 12.0746 1.81186 8.78711C1.81186 4.90674 4.96024 1.75 8.83015 1.75C12.133 1.75 15.0214 4.09961 15.698 7.33655C15.7341 7.51013 15.887 7.63464 16.0639 7.63464C16.2409 7.63464 16.3937 7.51013 16.4299 7.33655C17.1063 4.09961 19.9947 1.75 23.2975 1.75C27.1674 1.75 30.3158 4.90674 30.3158 8.78711C30.3158 12.0746 28.0848 14.8904 24.8904 15.6349Z" fill="#3DB370"/>
<path d="M31.0638 8.78711C31.0638 4.49329 27.5798 1 23.2975 1C20.0757 1 17.2106 3.02039 16.0639 5.953C14.9171 3.02039 12.0518 1 8.83015 1C4.54788 1 1.06384 4.49329 1.06384 8.78711C1.06384 12.0134 3.00546 14.8292 5.91059 16C3.00546 17.1708 1.06384 19.9866 1.06384 23.2129C1.06384 27.5067 4.54788 31 8.83015 31C12.0518 31 14.9171 28.9796 16.0639 26.047C17.2106 28.9796 20.0757 31 23.2975 31C27.5798 31 31.0638 27.5067 31.0638 23.2129C31.0638 19.9866 29.1222 17.1708 26.2171 16C29.1222 14.8292 31.0638 12.0134 31.0638 8.78711ZM24.8904 15.6349C24.7211 15.6741 24.6011 15.8257 24.6011 16C24.6011 16.1743 24.7211 16.3259 24.8904 16.3651C28.0848 17.1096 30.3158 19.9254 30.3158 23.2129C30.3158 27.0933 27.1674 30.25 23.2975 30.25C19.9947 30.25 17.1063 27.9004 16.4299 24.6635C16.3937 24.4899 16.2409 24.3654 16.0639 24.3654C15.887 24.3654 15.7341 24.4899 15.698 24.6635C15.0214 27.9004 12.133 30.25 8.83015 30.25C4.96024 30.25 1.81186 27.0933 1.81186 23.2129C1.81186 19.9254 4.04293 17.1096 7.23733 16.3651C7.40662 16.3259 7.5266 16.1743 7.5266 16C7.5266 15.8257 7.40662 15.6741 7.23733 15.6349C4.04293 14.8904 1.81186 12.0746 1.81186 8.78711C1.81186 4.90674 4.96024 1.75 8.83015 1.75C12.133 1.75 15.0214 4.09961 15.698 7.33655C15.7341 7.51013 15.887 7.63464 16.0639 7.63464C16.2409 7.63464 16.3937 7.51013 16.4299 7.33655C17.1063 4.09961 19.9947 1.75 23.2975 1.75C27.1674 1.75 30.3158 4.90674 30.3158 8.78711C30.3158 12.0746 28.0848 14.8904 24.8904 15.6349Z" stroke="#3DB370" stroke-width="2" mask="url(#path-1-outside-1_3101_18)"/>
</svg>
