<svg width="171" height="230" viewBox="0 0 171 230" fill="none" xmlns="http://www.w3.org/2000/svg">
<path d="M125.5 0H45.5V80H125.5V0Z" fill="#87BCF6"/>
<path d="M118.796 6.7041H52.2047V73.2953H118.796V6.7041Z" fill="#252653"/>
<path fill-rule="evenodd" clip-rule="evenodd" d="M104.812 31.4519C98.8885 28.4456 88.6895 29.9019 88.6895 37.7454C88.6895 43.5863 92.706 45.8853 97.6168 47.8149C104.595 50.556 97.8133 55.7364 89.2943 50.3791C89.2943 50.3791 88.9893 50.2283 88.8394 50.3791C88.6895 50.53 88.6895 50.6808 88.6895 50.8368C88.6895 50.9877 88.6895 56.4646 88.6895 56.4646C91.667 57.9989 93.8898 58.7791 97.3274 58.7427C108.415 58.6283 110.013 47.945 104.115 43.836C103.045 43.087 100.181 41.5943 99.2762 41.2458C94.5876 39.4462 94.9857 36.8872 96.4744 35.5973C98.1183 34.1669 102.678 36.3306 104.595 37.5373C105.758 38.2603 105.95 37.3605 105.945 36.5699L105.929 32.8302C105.929 31.9408 105.624 31.868 104.812 31.4519ZM70.5711 40.7933V27.0933C70.5711 27.0256 70.8089 26.7916 70.8709 26.7916C76.6398 26.4951 79.9223 27.629 80.217 33.8288C80.553 40.9441 74.6238 41.095 70.5711 41.095V40.7933ZM63.6132 21.7672V58.5971H70.5711V46.7279C79.1211 47.3416 86.8337 44.2573 86.8337 34.3126C86.8337 30.3024 85.5931 26.2663 82.6517 23.8269C78.5421 20.4149 68.9376 21.1743 63.6132 21.7672Z" fill="#87BCF6"/>
<path d="M70.1539 120L69.4293 117.621H65.7857L65.0611 120H62.7779L66.3052 109.965H68.8961L72.4371 120H70.1539ZM68.9234 115.844L68.1988 113.52C68.1532 113.365 68.0917 113.166 68.0142 112.925C67.9413 112.679 67.8661 112.43 67.7886 112.18C67.7157 111.924 67.6565 111.703 67.6109 111.517C67.5653 111.703 67.5015 111.936 67.4195 112.214C67.342 112.487 67.2668 112.747 67.1939 112.993C67.121 113.239 67.0686 113.415 67.0367 113.52L66.3189 115.844H68.9234ZM76.2376 120.137C75.3854 120.137 74.6904 119.804 74.1526 119.139C73.6194 118.469 73.3528 117.487 73.3528 116.192C73.3528 114.884 73.624 113.896 74.1663 113.226C74.7086 112.551 75.4173 112.214 76.2923 112.214C76.6569 112.214 76.9781 112.264 77.2561 112.364C77.5341 112.465 77.7734 112.599 77.9739 112.768C78.179 112.936 78.3522 113.125 78.4934 113.335H78.5618C78.5345 113.189 78.5003 112.975 78.4593 112.692C78.4228 112.405 78.4046 112.111 78.4046 111.811V109.363H80.4964V120H78.8968L78.4934 119.009H78.4046C78.2724 119.218 78.1061 119.41 77.9055 119.583C77.7096 119.752 77.4749 119.886 77.2014 119.986C76.928 120.087 76.6067 120.137 76.2376 120.137ZM76.969 118.476C77.5387 118.476 77.9397 118.307 78.1721 117.97C78.4091 117.628 78.5345 117.115 78.5481 116.432V116.206C78.5481 115.463 78.4342 114.896 78.2063 114.504C77.9785 114.107 77.5546 113.909 76.9348 113.909C76.4746 113.909 76.1145 114.107 75.8548 114.504C75.595 114.9 75.4651 115.472 75.4651 116.22C75.4651 116.967 75.595 117.53 75.8548 117.908C76.1191 118.286 76.4905 118.476 76.969 118.476ZM89.9023 116.165C89.9023 116.803 89.8158 117.368 89.6426 117.86C89.474 118.353 89.2256 118.77 88.8975 119.111C88.5739 119.449 88.182 119.704 87.7217 119.877C87.266 120.05 86.751 120.137 86.1768 120.137C85.639 120.137 85.1445 120.05 84.6934 119.877C84.2467 119.704 83.8571 119.449 83.5244 119.111C83.1963 118.77 82.9411 118.353 82.7588 117.86C82.5811 117.368 82.4922 116.803 82.4922 116.165C82.4922 115.317 82.6426 114.6 82.9434 114.012C83.2441 113.424 83.6725 112.977 84.2285 112.672C84.7845 112.367 85.4476 112.214 86.2178 112.214C86.9333 112.214 87.5667 112.367 88.1182 112.672C88.6742 112.977 89.1094 113.424 89.4238 114.012C89.7428 114.6 89.9023 115.317 89.9023 116.165ZM84.6182 116.165C84.6182 116.666 84.6729 117.088 84.7822 117.43C84.8916 117.771 85.0625 118.029 85.2949 118.202C85.5273 118.375 85.8304 118.462 86.2041 118.462C86.5732 118.462 86.8717 118.375 87.0996 118.202C87.332 118.029 87.5007 117.771 87.6055 117.43C87.7148 117.088 87.7695 116.666 87.7695 116.165C87.7695 115.659 87.7148 115.24 87.6055 114.907C87.5007 114.57 87.332 114.317 87.0996 114.148C86.8672 113.98 86.5641 113.896 86.1904 113.896C85.639 113.896 85.238 114.085 84.9873 114.463C84.7412 114.841 84.6182 115.409 84.6182 116.165ZM93.99 109.363V111.838C93.99 112.125 93.9808 112.41 93.9626 112.692C93.9489 112.975 93.9307 113.194 93.9079 113.349H93.99C94.1905 113.034 94.4639 112.768 94.8103 112.549C95.1566 112.326 95.6055 112.214 96.157 112.214C97.0137 112.214 97.7087 112.549 98.2419 113.219C98.7751 113.889 99.0417 114.871 99.0417 116.165C99.0417 117.035 98.9187 117.767 98.6726 118.359C98.4265 118.947 98.0824 119.392 97.6404 119.692C97.1983 119.989 96.6856 120.137 96.1023 120.137C95.5417 120.137 95.0997 120.036 94.7761 119.836C94.4525 119.635 94.1905 119.41 93.99 119.159H93.8464L93.4978 120H91.905V109.363H93.99ZM95.487 113.882C95.1224 113.882 94.8331 113.957 94.6189 114.107C94.4047 114.258 94.2474 114.483 94.1472 114.784C94.0515 115.085 93.9991 115.465 93.99 115.926V116.151C93.99 116.894 94.0993 117.464 94.3181 117.86C94.5368 118.252 94.9356 118.448 95.5144 118.448C95.9428 118.448 96.2823 118.25 96.5329 117.854C96.7881 117.457 96.9157 116.885 96.9157 116.138C96.9157 115.39 96.7881 114.827 96.5329 114.449C96.2777 114.071 95.9291 113.882 95.487 113.882ZM104.196 112.214C104.902 112.214 105.511 112.351 106.021 112.624C106.531 112.893 106.926 113.285 107.204 113.8C107.482 114.315 107.621 114.944 107.621 115.687V116.698H102.692C102.715 117.286 102.89 117.749 103.218 118.086C103.551 118.419 104.011 118.585 104.599 118.585C105.087 118.585 105.533 118.535 105.939 118.435C106.345 118.334 106.761 118.184 107.19 117.983V119.597C106.812 119.784 106.415 119.92 106 120.007C105.59 120.093 105.091 120.137 104.503 120.137C103.738 120.137 103.059 119.995 102.466 119.713C101.878 119.43 101.416 119 101.079 118.421C100.746 117.842 100.58 117.113 100.58 116.233C100.58 115.34 100.73 114.597 101.031 114.005C101.336 113.408 101.76 112.961 102.302 112.665C102.845 112.364 103.476 112.214 104.196 112.214ZM104.209 113.697C103.804 113.697 103.467 113.827 103.198 114.087C102.933 114.347 102.781 114.755 102.74 115.311H105.665C105.661 115.001 105.604 114.725 105.495 114.483C105.39 114.242 105.23 114.05 105.016 113.909C104.806 113.768 104.538 113.697 104.209 113.697ZM51.2804 129.006C52.5701 129.006 53.5112 129.284 54.1036 129.84C54.6961 130.391 54.9923 131.152 54.9923 132.123C54.9923 132.561 54.9262 132.98 54.7941 133.381C54.6619 133.777 54.4454 134.131 54.1446 134.44C53.8484 134.75 53.4519 134.996 52.9552 135.179C52.4585 135.356 51.8455 135.445 51.1163 135.445H50.2071V139H48.088V129.006H51.2804ZM51.171 130.742H50.2071V133.709H50.9044C51.3009 133.709 51.645 133.657 51.9366 133.552C52.2283 133.447 52.4539 133.283 52.6134 133.06C52.7729 132.836 52.8527 132.549 52.8527 132.198C52.8527 131.706 52.7159 131.341 52.4425 131.104C52.1691 130.863 51.7452 130.742 51.171 130.742ZM59.0799 128.363V130.53C59.0799 130.909 59.0663 131.269 59.0389 131.61C59.0161 131.952 58.9979 132.194 58.9842 132.335H59.0936C59.2577 132.071 59.4513 131.856 59.6746 131.692C59.9025 131.528 60.1532 131.408 60.4266 131.33C60.7 131.253 60.994 131.214 61.3084 131.214C61.8599 131.214 62.3407 131.312 62.7508 131.508C63.161 131.699 63.48 132.002 63.7079 132.417C63.9357 132.827 64.0496 133.36 64.0496 134.017V139H61.9647V134.536C61.9647 133.989 61.8644 133.577 61.6639 133.299C61.4634 133.021 61.1535 132.882 60.7342 132.882C60.3149 132.882 59.9845 132.98 59.743 133.176C59.5015 133.367 59.3306 133.652 59.2303 134.03C59.1301 134.404 59.0799 134.862 59.0799 135.404V139H56.995V128.363H59.0799ZM73.4214 135.165C73.4214 135.803 73.3349 136.368 73.1617 136.86C72.9931 137.353 72.7447 137.77 72.4166 138.111C72.093 138.449 71.7011 138.704 71.2408 138.877C70.7851 139.05 70.2701 139.137 69.6959 139.137C69.1581 139.137 68.6636 139.05 68.2125 138.877C67.7658 138.704 67.3762 138.449 67.0435 138.111C66.7154 137.77 66.4602 137.353 66.2779 136.86C66.1002 136.368 66.0113 135.803 66.0113 135.165C66.0113 134.317 66.1617 133.6 66.4625 133.012C66.7632 132.424 67.1916 131.977 67.7476 131.672C68.3036 131.367 68.9667 131.214 69.7369 131.214C70.4524 131.214 71.0858 131.367 71.6373 131.672C72.1933 131.977 72.6285 132.424 72.9429 133.012C73.2619 133.6 73.4214 134.317 73.4214 135.165ZM68.1373 135.165C68.1373 135.666 68.192 136.088 68.3013 136.43C68.4107 136.771 68.5816 137.029 68.814 137.202C69.0464 137.375 69.3495 137.462 69.7232 137.462C70.0923 137.462 70.3908 137.375 70.6187 137.202C70.8511 137.029 71.0198 136.771 71.1246 136.43C71.2339 136.088 71.2886 135.666 71.2886 135.165C71.2886 134.659 71.2339 134.24 71.1246 133.907C71.0198 133.57 70.8511 133.317 70.6187 133.148C70.3863 132.98 70.0832 132.896 69.7095 132.896C69.1581 132.896 68.7571 133.085 68.5064 133.463C68.2603 133.841 68.1373 134.409 68.1373 135.165ZM78.6438 137.476C78.8717 137.476 79.0927 137.453 79.3069 137.407C79.5257 137.362 79.7421 137.305 79.9563 137.236V138.788C79.733 138.888 79.455 138.97 79.1223 139.034C78.7942 139.103 78.4342 139.137 78.0423 139.137C77.5865 139.137 77.1764 139.064 76.8118 138.918C76.4518 138.768 76.1669 138.51 75.9573 138.146C75.7522 137.776 75.6497 137.264 75.6497 136.607V132.923H74.6516V132.041L75.8001 131.344L76.4016 129.73H77.7346V131.357H79.8743V132.923H77.7346V136.607C77.7346 136.899 77.8167 137.118 77.9807 137.264C78.1494 137.405 78.3704 137.476 78.6438 137.476ZM88.7334 135.165C88.7334 135.803 88.6468 136.368 88.4736 136.86C88.305 137.353 88.0566 137.77 87.7285 138.111C87.4049 138.449 87.013 138.704 86.5527 138.877C86.097 139.05 85.582 139.137 85.0078 139.137C84.4701 139.137 83.9756 139.05 83.5244 138.877C83.0778 138.704 82.6882 138.449 82.3555 138.111C82.0273 137.77 81.7721 137.353 81.5898 136.86C81.4121 136.368 81.3232 135.803 81.3232 135.165C81.3232 134.317 81.4736 133.6 81.7744 133.012C82.0752 132.424 82.5036 131.977 83.0596 131.672C83.6156 131.367 84.2786 131.214 85.0488 131.214C85.7643 131.214 86.3978 131.367 86.9492 131.672C87.5052 131.977 87.9404 132.424 88.2549 133.012C88.5739 133.6 88.7334 134.317 88.7334 135.165ZM83.4492 135.165C83.4492 135.666 83.5039 136.088 83.6133 136.43C83.7227 136.771 83.8936 137.029 84.126 137.202C84.3584 137.375 84.6615 137.462 85.0352 137.462C85.4043 137.462 85.7028 137.375 85.9307 137.202C86.1631 137.029 86.3317 136.771 86.4365 136.43C86.5459 136.088 86.6006 135.666 86.6006 135.165C86.6006 134.659 86.5459 134.24 86.4365 133.907C86.3317 133.57 86.1631 133.317 85.9307 133.148C85.6982 132.98 85.3952 132.896 85.0215 132.896C84.4701 132.896 84.069 133.085 83.8184 133.463C83.5723 133.841 83.4492 134.409 83.4492 135.165ZM96.0681 136.73C96.0681 137.25 95.945 137.69 95.6989 138.05C95.4574 138.405 95.0951 138.676 94.612 138.863C94.129 139.046 93.5274 139.137 92.8073 139.137C92.2741 139.137 91.8161 139.103 91.4333 139.034C91.0551 138.966 90.6723 138.852 90.2849 138.692V136.97C90.6996 137.157 91.1439 137.312 91.6179 137.435C92.0964 137.553 92.5157 137.612 92.8757 137.612C93.2813 137.612 93.5707 137.553 93.7439 137.435C93.9216 137.312 94.0105 137.152 94.0105 136.956C94.0105 136.828 93.974 136.715 93.9011 136.614C93.8327 136.509 93.6823 136.393 93.4499 136.266C93.2175 136.133 92.8529 135.963 92.3562 135.753C91.8777 135.552 91.4835 135.35 91.1736 135.145C90.8682 134.939 90.6404 134.698 90.49 134.42C90.3441 134.137 90.2712 133.78 90.2712 133.347C90.2712 132.64 90.5447 132.109 91.0915 131.754C91.643 131.394 92.379 131.214 93.2995 131.214C93.7735 131.214 94.2247 131.262 94.653 131.357C95.086 131.453 95.5303 131.606 95.9861 131.815L95.3572 133.319C94.9789 133.155 94.6211 133.021 94.2839 132.916C93.9512 132.811 93.6117 132.759 93.2654 132.759C92.96 132.759 92.7299 132.8 92.5749 132.882C92.42 132.964 92.3425 133.089 92.3425 133.258C92.3425 133.381 92.3812 133.49 92.4587 133.586C92.5407 133.682 92.6957 133.789 92.9236 133.907C93.156 134.021 93.4955 134.169 93.9421 134.352C94.3751 134.529 94.751 134.716 95.07 134.912C95.3891 135.104 95.6351 135.343 95.8083 135.63C95.9815 135.912 96.0681 136.279 96.0681 136.73ZM100.06 128.363V130.53C100.06 130.909 100.046 131.269 100.019 131.61C99.9962 131.952 99.978 132.194 99.9643 132.335H100.074C100.238 132.071 100.431 131.856 100.655 131.692C100.883 131.528 101.133 131.408 101.407 131.33C101.68 131.253 101.974 131.214 102.289 131.214C102.84 131.214 103.321 131.312 103.731 131.508C104.141 131.699 104.46 132.002 104.688 132.417C104.916 132.827 105.03 133.36 105.03 134.017V139H102.945V134.536C102.945 133.989 102.845 133.577 102.644 133.299C102.443 133.021 102.134 132.882 101.714 132.882C101.295 132.882 100.965 132.98 100.723 133.176C100.482 133.367 100.311 133.652 100.21 134.03C100.11 134.404 100.06 134.862 100.06 135.404V139H97.975V128.363H100.06ZM114.402 135.165C114.402 135.803 114.315 136.368 114.142 136.86C113.973 137.353 113.725 137.77 113.397 138.111C113.073 138.449 112.681 138.704 112.221 138.877C111.765 139.05 111.25 139.137 110.676 139.137C110.138 139.137 109.644 139.05 109.193 138.877C108.746 138.704 108.356 138.449 108.024 138.111C107.695 137.77 107.44 137.353 107.258 136.86C107.08 136.368 106.991 135.803 106.991 135.165C106.991 134.317 107.142 133.6 107.443 133.012C107.743 132.424 108.172 131.977 108.728 131.672C109.284 131.367 109.947 131.214 110.717 131.214C111.432 131.214 112.066 131.367 112.617 131.672C113.173 131.977 113.609 132.424 113.923 133.012C114.242 133.6 114.402 134.317 114.402 135.165ZM109.117 135.165C109.117 135.666 109.172 136.088 109.281 136.43C109.391 136.771 109.562 137.029 109.794 137.202C110.027 137.375 110.33 137.462 110.703 137.462C111.072 137.462 111.371 137.375 111.599 137.202C111.831 137.029 112 136.771 112.105 136.43C112.214 136.088 112.269 135.666 112.269 135.165C112.269 134.659 112.214 134.24 112.105 133.907C112 133.57 111.831 133.317 111.599 133.148C111.366 132.98 111.063 132.896 110.69 132.896C110.138 132.896 109.737 133.085 109.486 133.463C109.24 133.841 109.117 134.409 109.117 135.165ZM120.656 131.214C121.517 131.214 122.212 131.549 122.741 132.219C123.274 132.889 123.541 133.871 123.541 135.165C123.541 136.031 123.416 136.76 123.165 137.353C122.914 137.94 122.568 138.385 122.126 138.686C121.684 138.986 121.176 139.137 120.601 139.137C120.232 139.137 119.916 139.091 119.651 139C119.387 138.904 119.161 138.784 118.974 138.638C118.788 138.487 118.626 138.328 118.489 138.159H118.38C118.416 138.341 118.444 138.528 118.462 138.72C118.48 138.911 118.489 139.098 118.489 139.28V142.363H116.404V131.357H118.099L118.393 132.349H118.489C118.626 132.144 118.792 131.954 118.988 131.781C119.184 131.608 119.419 131.471 119.692 131.371C119.97 131.266 120.292 131.214 120.656 131.214ZM119.986 132.882C119.622 132.882 119.332 132.957 119.118 133.107C118.904 133.258 118.747 133.483 118.646 133.784C118.551 134.085 118.498 134.465 118.489 134.926V135.151C118.489 135.644 118.535 136.061 118.626 136.402C118.722 136.744 118.879 137.004 119.098 137.182C119.321 137.359 119.626 137.448 120.014 137.448C120.333 137.448 120.595 137.359 120.8 137.182C121.005 137.004 121.157 136.744 121.258 136.402C121.363 136.056 121.415 135.634 121.415 135.138C121.415 134.39 121.299 133.827 121.066 133.449C120.834 133.071 120.474 132.882 119.986 132.882Z" fill="#828282"/>
<path d="M7.41471 228.621C6.78429 229.112 6.14017 229.126 5.48235 228.662C4.82452 228.198 4.60525 227.584 4.82452 226.82L7.16802 219.249L1.20649 215.033C0.54867 214.569 0.350226 213.955 0.611163 213.191C0.871003 212.427 1.39836 212.045 2.19323 212.045H9.55264L11.9372 204.187C12.0743 203.805 12.287 203.511 12.5753 203.306C12.8626 203.102 13.1707 203 13.4996 203C13.8285 203 14.1366 203.102 14.4238 203.306C14.7122 203.511 14.9249 203.805 15.0619 204.187L17.4465 212.045H24.8059C25.6008 212.045 26.1287 212.427 26.3896 213.191C26.6495 213.955 26.4505 214.569 25.7927 215.033L19.8311 219.249L22.1746 226.82C22.3939 227.584 22.1746 228.198 21.5168 228.662C20.859 229.126 20.2149 229.112 19.5844 228.621L13.4996 223.996L7.41471 228.621Z" fill="#070707"/>
<path d="M43.4147 228.621C42.7843 229.112 42.1402 229.126 41.4823 228.662C40.8245 228.198 40.6053 227.584 40.8245 226.82L43.168 219.249L37.2065 215.033C36.5487 214.569 36.3502 213.955 36.6112 213.191C36.871 212.427 37.3984 212.045 38.1932 212.045H45.5526L47.9372 204.187C48.0743 203.805 48.287 203.511 48.5753 203.306C48.8626 203.102 49.1707 203 49.4996 203C49.8285 203 50.1366 203.102 50.4238 203.306C50.7122 203.511 50.9249 203.805 51.0619 204.187L53.4465 212.045H60.8059C61.6008 212.045 62.1287 212.427 62.3896 213.191C62.6495 213.955 62.4505 214.569 61.7927 215.033L55.8311 219.249L58.1746 226.82C58.3939 227.584 58.1746 228.198 57.5168 228.662C56.859 229.126 56.2149 229.112 55.5844 228.621L49.4996 223.996L43.4147 228.621Z" fill="#070707"/>
<path d="M79.4147 228.621C78.7843 229.112 78.1402 229.126 77.4823 228.662C76.8245 228.198 76.6053 227.584 76.8245 226.82L79.168 219.249L73.2065 215.033C72.5487 214.569 72.3502 213.955 72.6112 213.191C72.871 212.427 73.3984 212.045 74.1932 212.045H81.5526L83.9372 204.187C84.0743 203.805 84.287 203.511 84.5753 203.306C84.8626 203.102 85.1707 203 85.4996 203C85.8285 203 86.1366 203.102 86.4238 203.306C86.7122 203.511 86.9249 203.805 87.0619 204.187L89.4465 212.045H96.8059C97.6008 212.045 98.1287 212.427 98.3896 213.191C98.6495 213.955 98.4505 214.569 97.7927 215.033L91.8311 219.249L94.1746 226.82C94.3939 227.584 94.1746 228.198 93.5168 228.662C92.859 229.126 92.2149 229.112 91.5844 228.621L85.4996 223.996L79.4147 228.621Z" fill="#E5E5E5"/>
<path d="M115.415 228.621C114.784 229.112 114.14 229.126 113.482 228.662C112.825 228.198 112.605 227.584 112.825 226.82L115.168 219.249L109.206 215.033C108.549 214.569 108.35 213.955 108.611 213.191C108.871 212.427 109.398 212.045 110.193 212.045H117.553L119.937 204.187C120.074 203.805 120.287 203.511 120.575 203.306C120.863 203.102 121.171 203 121.5 203C121.828 203 122.137 203.102 122.424 203.306C122.712 203.511 122.925 203.805 123.062 204.187L125.447 212.045H132.806C133.601 212.045 134.129 212.427 134.39 213.191C134.649 213.955 134.45 214.569 133.793 215.033L127.831 219.249L130.175 226.82C130.394 227.584 130.175 228.198 129.517 228.662C128.859 229.126 128.215 229.112 127.584 228.621L121.5 223.996L115.415 228.621Z" fill="#E5E5E5"/>
<path d="M151.415 228.621C150.784 229.112 150.14 229.126 149.482 228.662C148.825 228.198 148.605 227.584 148.825 226.82L151.168 219.249L145.206 215.033C144.549 214.569 144.35 213.955 144.611 213.191C144.871 212.427 145.398 212.045 146.193 212.045H153.553L155.937 204.187C156.074 203.805 156.287 203.511 156.575 203.306C156.863 203.102 157.171 203 157.5 203C157.828 203 158.137 203.102 158.424 203.306C158.712 203.511 158.925 203.805 159.062 204.187L161.447 212.045H168.806C169.601 212.045 170.129 212.427 170.39 213.191C170.649 213.955 170.45 214.569 169.793 215.033L163.831 219.249L166.175 226.82C166.394 227.584 166.175 228.198 165.517 228.662C164.859 229.126 164.215 229.112 163.584 228.621L157.5 223.996L151.415 228.621Z" fill="#E5E5E5"/>
</svg>
