<svg xmlns:rdf="http://www.w3.org/1999/02/22-rdf-syntax-ns#" xmlns="http://www.w3.org/2000/svg" xmlns:cc="http://web.resource.org/cc/" xmlns:dc="http://purl.org/dc/elements/1.1/" xmlns:svg="http://www.w3.org/2000/svg" version="1.0">
  <symbol id="suite-clubs" viewBox="0 0 40 40">
  <g id="layer1">
    <path id="path3395" d="m20 0c-4.731 0-8.571 4.032-8.571 9 0.041 3.126 1.654 5.768 3.333 8.281-1.871-1.416-3.951-2.272-6.1906-2.281-4.7314 0-8.5714 4.032-8.5714 9s3.84 9 8.5714 9c3.8326-0.064 6.8986-2.746 9.9106-5-0.539 6.733-1.635 10.514-8.006 12h19.048c-6.371-1.486-7.467-5.267-8.006-12 2.977 2.552 6.1 4.717 9.911 5 4.731 0 8.571-4.032 8.571-9s-3.84-9-8.571-9c-2.297 0-4.281 1.057-6.191 2.281 1.9-2.487 3.151-5.17 3.333-8.281 0-4.968-3.84-9-8.571-9z"/>
  </g>
  </symbol>

 <symbol id="suite-spades" viewBox="0 0 40 40">
  <g id="layer1">
    <path id="path3295" d="m9.9958 40c7.2112-1.603 7.9872-5.826 8.5312-13.594-1.253 2.075-3.531 3.607-7.25 3.594-6.1124-0.021-10.207-3.576-8.75-11.25 1.4688-7.737 12.469-10.737 17.469-18.75 5 8.0128 16 11.013 17.469 18.75 1.456 7.674-2.469 11.228-8.75 11.25-3.719 0.013-5.997-1.519-7.25-3.594 0.544 7.768 1.319 11.991 8.531 13.594h-20z"/>
  </g>
  </symbol>
  <symbol id="suite-hearts" viewBox="0 0 40 40">
  <g id="layer1">
    <path id="rect2277" d="m20 10c0.97-5 2.911-10 9.702-10 6.792 0 12.128 5 9.703 15-2.426 10-13.584 15-19.405 25-5.821-10-16.979-15-19.405-25-2.4254-10 2.9109-15 9.703-15 6.791 0 8.732 5 9.702 10z"/>
  </g>
  </symbol>
  <symbol id="suite-diamonds" viewBox="0 0 40 40">
  <g id="layer1">
    <path id="rect3462" d="m20-3.5527e-15c4 11 9 16 20 20-11 4-16 9-20 20-4-11-9-16-20-20 11-4 16-9 20-20z"/>
  </g>
  </symbol>
</svg>
