<svg width="64" height="64" fill="none" xmlns="http://www.w3.org/2000/svg">

<symbol id="check-circle" viewBox="0 0 64 64">
<path d="M32 1C14.8791 1 1 14.8791 1 32C1 49.1209 14.8791 63 32 63C49.1209 63 63 49.1209 63 32C63 14.8791 49.1209 1 32 1ZM32 7C45.8165 7 57 18.1814 57 32C57 45.8165 45.8186 57 32 57C18.1835 57 7 45.8186 7 32C7 18.1835 18.1814 7 32 7ZM49.5255 23.2834L46.7085 20.4436C46.1251 19.8555 45.1754 19.8516 44.5872 20.4351L26.9182 37.9621L19.4443 30.4275C18.8609 29.8394 17.9111 29.8355 17.323 30.4189L14.4831 33.2359C13.895 33.8192 13.8911 34.769 14.4746 35.3573L25.8223 46.7967C26.4056 47.3849 27.3554 47.3887 27.9435 46.8052L49.5171 25.4048C50.1051 24.8213 50.1089 23.8715 49.5255 23.2834Z"/>
</symbol>

<symbol id="chevron-down" viewBox="0 0 56 64">
<path d="M25.8786 47.6845L1.58575 23.3915C0.414125 22.2199 0.414125 20.3204 1.58575 19.1489L4.41913 16.3155C5.58875 15.1459 7.48438 15.1436 8.65675 16.3105L28 35.5631L47.3431 16.3105C48.5155 15.1436 50.4111 15.1459 51.5807 16.3155L54.4141 19.1489C55.5857 20.3205 55.5857 22.22 54.4141 23.3915L30.1214 47.6845C28.9497 48.856 27.0503 48.856 25.8786 47.6845Z"/>
</symbol>

<symbol id="facebook" viewBox="0 0 40 64">
<path d="M34.8925 36L36.67 24.4175H25.5562V16.9013C25.5562 13.7325 27.1087 10.6438 32.0862 10.6438H37.1387V0.7825C37.1387 0.7825 32.5537 0 28.17 0C19.0175 0 13.035 5.5475 13.035 15.59V24.4175H2.86124V36H13.035V64H25.5562V36H34.8925Z"/>
</symbol>

<symbol id="linkedin" viewBox="0 0 56 64">
<path d="M52 4H3.9875C1.7875 4 0 5.8125 0 8.0375V55.9625C0 58.1875 1.7875 60 3.9875 60H52C54.2 60 56 58.1875 56 55.9625V8.0375C56 5.8125 54.2 4 52 4ZM16.925 52H8.625V25.275H16.9375V52H16.925ZM12.775 21.625C10.1125 21.625 7.9625 19.4625 7.9625 16.8125C7.9625 14.1625 10.1125 12 12.775 12C15.425 12 17.5875 14.1625 17.5875 16.8125C17.5875 19.475 15.4375 21.625 12.775 21.625ZM48.0375 52H39.7375V39C39.7375 35.9 39.675 31.9125 35.425 31.9125C31.1 31.9125 30.4375 35.2875 30.4375 38.775V52H22.1375V25.275H30.1V28.925H30.2125C31.325 26.825 34.0375 24.6125 38.075 24.6125C46.475 24.6125 48.0375 30.15 48.0375 37.35V52Z"/>
</symbol>

<symbol id="pinterest" viewBox="0 0 62 64">
<path d="M62 32C62 49.125 48.125 63 31 63C27.8 63 24.725 62.5125 21.825 61.6125C23.0875 59.55 24.975 56.175 25.675 53.4875C26.05 52.0375 27.6 46.1125 27.6 46.1125C28.6125 48.0375 31.5625 49.675 34.7 49.675C44.05 49.675 50.7875 41.075 50.7875 30.3875C50.7875 20.15 42.425 12.4875 31.675 12.4875C18.3 12.4875 11.1875 21.4625 11.1875 31.25C11.1875 35.8 13.6125 41.4625 17.475 43.2625C18.0625 43.5375 18.375 43.4125 18.5125 42.85C18.6125 42.425 19.1375 40.3125 19.375 39.3375C19.45 39.025 19.4125 38.75 19.1625 38.45C17.9 36.8875 16.875 34.0375 16.875 31.375C16.875 24.5375 22.05 17.925 30.875 17.925C38.4875 17.925 43.825 23.1125 43.825 30.5375C43.825 38.925 39.5875 44.7375 34.075 44.7375C31.0375 44.7375 28.75 42.225 29.4875 39.1375C30.3625 35.45 32.05 31.475 32.05 28.8125C32.05 26.4375 30.775 24.45 28.125 24.45C25.0125 24.45 22.5125 27.6625 22.5125 31.975C22.5125 34.725 23.4375 36.575 23.4375 36.575C23.4375 36.575 20.375 49.55 19.8125 51.975C19.1875 54.65 19.4375 58.425 19.7 60.875C8.175 56.3625 0 45.1375 0 32C0 14.875 13.875 1 31 1C48.125 1 62 14.875 62 32Z"/>
</symbol>

<symbol id="twitter" viewBox="0 0 64 64">
<path d="M57.4212 18.9645C57.4619 19.533 57.4619 20.1016 57.4619 20.6701C57.4619 38.0101 44.264 57.9899 20.1421 57.9899C12.7106 57.9899 5.80713 55.8375 0 52.1016C1.05587 52.2234 2.071 52.264 3.1675 52.264C9.29938 52.264 14.9441 50.193 19.4517 46.66C13.6852 46.5381 8.85275 42.7615 7.18775 37.5635C8 37.6853 8.81213 37.7665 9.665 37.7665C10.8426 37.7665 12.0204 37.604 13.1167 37.3199C7.10662 36.1015 2.59888 30.8224 2.59888 24.4468V24.2844C4.345 25.259 6.37563 25.8681 8.52775 25.9493C4.99475 23.5939 2.68012 19.5736 2.68012 15.0254C2.68012 12.5889 3.32975 10.3554 4.46688 8.40613C10.9237 16.3655 20.6294 21.5634 31.5125 22.132C31.3095 21.1574 31.1876 20.1423 31.1876 19.127C31.1876 11.8985 37.0354 6.01025 44.3044 6.01025C48.081 6.01025 51.4921 7.594 53.8881 10.1524C56.8525 9.58388 59.6951 8.48738 62.213 6.98488C61.2383 10.0306 59.1672 12.589 56.4465 14.2133C59.0861 13.9291 61.6445 13.198 63.9997 12.1829C62.2132 14.7818 59.9796 17.0964 57.4212 18.9645Z"/>
</symbol>

<symbol id="youtube" viewBox="0 0 72 64">
<path d="M68.7068 15.5104C67.9217 12.5541 65.6084 10.2259 62.6713 9.43575C57.3475 8 35.9999 8 35.9999 8C35.9999 8 14.6524 8 9.32853 9.43575C6.39141 10.226 4.07816 12.5541 3.29303 15.5104C1.86653 20.8687 1.86653 32.0485 1.86653 32.0485C1.86653 32.0485 1.86653 43.2282 3.29303 48.5866C4.07816 51.5429 6.39141 53.7741 9.32853 54.5643C14.6524 56 35.9999 56 35.9999 56C35.9999 56 57.3474 56 62.6713 54.5643C65.6084 53.7741 67.9217 51.5429 68.7068 48.5866C70.1333 43.2282 70.1333 32.0485 70.1333 32.0485C70.1333 32.0485 70.1333 20.8687 68.7068 15.5104ZM29.018 42.1989V21.8981L46.8604 32.0488L29.018 42.1989Z"/>
</symbol>

<symbol id="quote-left" viewBox="0 0 64 64">
<path d="M58 32H48V24C48 19.5875 51.5875 16 56 16H57C58.6625 16 60 14.6625 60 13V7C60 5.3375 58.6625 4 57 4H56C44.95 4 36 12.95 36 24V54C36 57.3125 38.6875 60 42 60H58C61.3125 60 64 57.3125 64 54V38C64 34.6875 61.3125 32 58 32ZM22 32H12V24C12 19.5875 15.5875 16 20 16H21C22.6625 16 24 14.6625 24 13V7C24 5.3375 22.6625 4 21 4H20C8.95 4 0 12.95 0 24V54C0 57.3125 2.6875 60 6 60H22C25.3125 60 28 57.3125 28 54V38C28 34.6875 25.3125 32 22 32Z"/>
</symbol>

<symbol id="search" viewBox="0 0 64 64">
<g clip-path="url(#clip0_1_152)">
<path d="M63.1296 55.3321L50.6662 42.8708C50.1037 42.3084 49.3411 41.9959 48.541 41.9959H46.5034C49.9537 37.5838 52.0038 32.0344 52.0038 25.9975C52.0038 11.6364 40.3655 0 26.0019 0C11.6384 0 0 11.6364 0 25.9975C0 40.3586 11.6384 51.9949 26.0019 51.9949C32.0398 51.9949 37.5903 49.9451 42.0031 46.4955V48.5328C42.0031 49.3327 42.3156 50.0951 42.8781 50.6576L55.3416 63.1188C56.5166 64.2937 58.4168 64.2937 59.5794 63.1188L63.1171 59.5817C64.2922 58.4068 64.2922 56.507 63.1296 55.3321ZM26.0019 41.9959C17.1638 41.9959 10.0007 34.8466 10.0007 25.9975C10.0007 17.1608 17.1513 9.99902 26.0019 9.99902C34.84 9.99902 42.0031 17.1483 42.0031 25.9975C42.0031 34.8341 34.8526 41.9959 26.0019 41.9959Z"/>
</g>
<defs>
<clipPath id="clip0_1_152">
<rect width="64" height="64"/>
</clipPath>
</defs>
</symbol>

<symbol id="thumbs-up" viewBox="0 0 64 64">
<path d="M58.2837 35.8363C59.38 33.98 60 32 60 29.6063C60 24.1044 55.3477 18.9088 49.2725 18.9088H44.7125C45.3275 17.3075 45.8187 15.3925 45.8187 13.0913C45.8187 3.992 41.1075 0 33.91 0C26.2091 0 26.6484 11.8666 24.94 13.575C22.0966 16.4184 18.7381 21.8809 16.345 24H4C1.79087 24 0 25.7909 0 28V58C0 60.2091 1.79087 62 4 62H12C13.8616 62 15.426 60.7282 15.8722 59.0062C21.4359 59.1314 25.2547 63.9987 38.0975 63.9987C39 63.9987 40 64 40.875 64C50.5146 64 54.8732 59.0721 54.9925 52.0838C56.6574 49.7806 57.5299 46.6935 57.16 43.71C58.3918 41.4035 58.868 38.6671 58.2837 35.8363ZM50.565 42.565C52.135 45.2062 50.7225 48.7412 48.8225 49.7612C49.785 55.8587 46.6215 57.9987 42.1825 57.9987H37.455C28.5001 57.9987 22.7014 53.2713 16 53.2713V30H17.365C20.91 30 25.8625 21.1387 29.1825 17.8175C32.7275 14.2725 31.5462 8.36375 33.91 6C39.8187 6 39.8187 10.1225 39.8187 13.0913C39.8187 17.9875 36.2738 20.1813 36.2738 24.9088H49.2725C51.9112 24.9088 53.9888 27.2725 54 29.6362C54.0112 31.9987 52.3975 34.3625 51.2163 34.3625C52.9024 36.1819 53.2626 40.017 50.565 42.565ZM11 54C11 55.6569 9.65687 57 8 57C6.34312 57 5 55.6569 5 54C5 52.3431 6.34312 51 8 51C9.65687 51 11 52.3431 11 54Z"/>
</symbol>

</svg>
