<svg width="200" height="57" viewBox="0 0 200 57" fill="none" xmlns="http://www.w3.org/2000/svg">
<path d="M10.2957 0.195277C6.22571 1.92977 1.69784 6.77615 0.273336 12.8979C-1.50729 20.6011 5.97134 23.866 6.58184 22.7947C7.29409 21.5193 5.25909 21.1112 4.80121 17.1321C4.24159 11.9796 6.63271 6.16398 9.68521 3.66427C10.2448 3.20514 10.2448 3.86832 10.2448 5.04166C10.2448 7.23528 10.1431 26.6718 10.1431 30.753C10.1431 36.2625 9.93959 37.997 9.53259 39.6805C9.12559 41.415 8.46421 42.5883 8.97296 43.0475C9.53259 43.5576 11.9237 42.3333 13.2973 40.3947C14.9762 38.048 15.5358 35.2933 15.6376 32.2324C15.7393 28.5593 15.7393 22.7437 15.7393 19.4788C15.7393 16.4179 15.7902 7.54137 15.6885 2.18484C15.6376 0.858466 12.0255 -0.518926 10.2957 0.195277ZM155.646 25.9576C155.493 28.8144 154.882 31.0591 154.119 32.6405C152.593 35.7014 149.439 36.6196 148.116 32.2324C147.404 29.8347 147.353 25.8556 147.862 22.4886C148.37 19.0707 149.897 16.5199 152.339 16.775C154.781 17.0301 155.9 20.142 155.646 25.9576ZM114.691 43.7107C114.64 48.455 113.928 52.6382 112.3 53.8115C110.011 55.546 107.009 54.2197 107.62 50.7507C108.179 47.6898 110.825 44.5269 114.691 40.7008C114.691 40.7518 114.691 41.6191 114.691 43.7107ZM114.03 25.9066C113.877 28.5083 113.216 31.1101 112.504 32.5895C110.977 35.6504 107.823 36.6196 106.5 32.1814C105.585 29.1715 105.839 25.2944 106.246 22.8457C106.806 19.6828 108.23 16.724 110.723 16.724C113.216 16.775 114.386 19.4788 114.03 25.9066ZM90.3221 25.9066C90.1695 28.6614 89.6607 30.957 88.7958 32.6405C87.2187 35.6504 84.1662 36.6196 82.7926 32.2324C81.826 29.0695 82.1312 24.7843 82.5382 22.4376C83.1487 18.9686 84.675 16.5199 87.0152 16.775C89.4572 17.0301 90.6273 20.142 90.3221 25.9066ZM199.093 29.1205C198.482 29.1205 198.228 29.7327 198.024 30.753C197.261 34.324 196.447 35.1402 195.379 35.1402C194.209 35.1402 193.14 33.3547 192.886 29.7837C192.683 26.9779 192.683 21.8254 192.988 16.724C193.039 15.6527 192.733 14.6324 189.935 13.6121C188.714 13.153 186.985 12.5408 186.069 14.6324C183.576 20.6521 182.609 25.3965 182.406 27.335C182.406 27.437 182.253 27.437 182.253 27.233C182.101 25.7025 181.795 22.8457 181.744 16.928C181.744 15.7547 181.49 14.7854 180.218 13.9692C179.404 13.4591 176.911 12.5408 175.996 13.6121C175.232 14.5304 174.317 16.928 173.35 19.7849C172.587 22.1315 172.078 23.713 172.078 23.713C172.078 23.713 172.078 17.4382 172.078 15.0405C172.078 14.1222 171.468 13.8162 171.264 13.7651C170.45 13.5101 168.771 13.102 168.11 13.102C167.245 13.102 167.042 13.5611 167.042 14.2753C167.042 14.3773 166.889 22.5396 166.889 28.2533C166.889 28.5083 166.889 28.7634 166.889 29.0695C166.431 31.7222 164.854 35.2933 163.175 35.2933C161.496 35.2933 160.682 33.8138 160.682 26.9779C160.682 22.9988 160.784 21.2643 160.835 18.4075C160.886 16.775 160.937 15.4996 160.937 15.1935C160.937 14.3263 159.41 13.8672 158.698 13.7141C157.986 13.5611 157.375 13.4591 156.867 13.5101C156.205 13.5611 155.696 14.0202 155.696 14.6324C155.696 14.9895 155.696 15.6017 155.696 15.6017C154.832 14.2243 153.407 13.255 152.44 12.9489C149.897 12.1837 147.251 12.8469 145.216 15.6527C143.639 17.8973 142.672 20.397 142.265 24.0701C142.011 26.7228 142.062 29.4266 142.571 31.7222C141.96 34.273 140.892 35.3443 139.671 35.3443C137.941 35.3443 136.669 32.4875 136.822 27.5391C136.924 24.2741 137.585 21.9785 138.297 18.6625C138.602 17.2341 138.348 16.5199 137.738 15.8057C137.178 15.1425 135.957 14.8364 134.227 15.2446C133.006 15.5506 131.226 15.8567 129.598 16.1118C129.598 16.1118 129.699 15.7037 129.75 15.0405C130.157 11.4185 126.24 11.7246 125.019 12.8979C124.256 13.5611 123.747 14.3773 123.594 15.8567C123.289 18.1524 125.171 19.2747 125.171 19.2747C124.561 22.1315 123.035 25.8046 121.458 28.5083C120.644 29.9367 119.982 31.008 119.168 32.1304C119.168 31.7222 119.168 31.2631 119.168 30.855C119.168 24.8863 119.219 20.193 119.27 18.5095C119.321 16.877 119.372 15.6017 119.372 15.3466C119.372 14.6834 118.965 14.4793 118.202 14.1222C117.489 13.8672 116.675 13.6631 115.81 13.6121C114.742 13.5101 114.081 14.1222 114.081 14.7854C114.081 14.9385 114.081 15.7037 114.081 15.7037C113.216 14.3263 111.791 13.357 110.825 13.0509C108.281 12.2857 105.635 12.9489 103.6 15.7547C102.023 17.9993 100.955 21.1112 100.65 24.1211C100.395 26.9269 100.446 29.3246 100.802 31.3141C100.395 33.3037 99.2252 35.3953 97.9025 35.3953C96.2236 35.3953 95.257 33.9159 95.257 27.0799C95.257 23.1008 95.3587 21.3663 95.4096 18.5095C95.4605 16.877 95.5113 15.6017 95.5113 15.2956C95.5113 14.4283 93.9851 13.9692 93.2728 13.8162C92.5097 13.6631 91.8992 13.5611 91.3905 13.6121C90.7291 13.6631 90.2712 14.2243 90.2712 14.6834V15.7037C89.4063 14.3263 87.9818 13.357 87.0152 13.0509C84.4715 12.2857 81.826 12.9999 79.791 15.7547C78.4682 17.5912 77.3998 19.6318 76.8402 24.0701C76.6876 25.3454 76.6367 26.5698 76.6367 27.6921C76.128 30.906 73.7877 34.6301 71.9053 34.6301C70.7861 34.6301 69.7177 32.4875 69.7177 27.8451C69.7177 21.7234 70.0738 12.9999 70.1756 12.1327C70.1756 12.1327 72.5667 12.0817 73.0246 12.0817C74.1947 12.0817 75.314 12.0817 76.8911 12.0306C77.7051 11.9796 78.4682 9.12282 77.6542 8.76572C77.2981 8.61267 74.6526 8.45963 73.5842 8.45963C72.7193 8.45963 70.2773 8.25557 70.2773 8.25557C70.2773 8.25557 70.4808 2.43992 70.5317 1.82774C70.5826 1.3176 69.9212 1.06252 69.5651 0.909481C68.6493 0.501365 67.8353 0.348321 66.8687 0.144263C65.546 -0.110809 64.9355 0.144262 64.7828 1.26658C64.5793 3.00107 64.5285 8.05151 64.5285 8.05151C63.5618 8.05151 60.1532 7.84745 59.1866 7.84745C58.2708 7.84745 57.3042 11.8266 58.5252 11.8266C60.0006 11.8776 62.5443 11.9286 64.2232 11.9796C64.2232 11.9796 64.1723 20.8562 64.1723 23.6109C64.1723 23.917 64.1723 24.1721 64.1723 24.4782C63.2566 29.3246 60.0006 31.9263 60.0006 31.9263C60.7128 28.7124 59.2883 26.3147 56.6937 24.2741C55.7271 23.5089 53.8447 22.0805 51.7588 20.5501C51.7588 20.5501 52.9798 19.3257 54.0482 16.928C54.8113 15.1935 54.8622 13.255 52.9798 12.8469C49.8765 12.1327 47.3327 14.4283 46.5696 16.877C45.9591 18.7646 46.3152 20.142 47.4345 21.6214C47.5362 21.7234 47.5871 21.8254 47.6888 21.9275C46.9766 23.3049 46.01 25.0904 45.196 26.5188C42.9575 30.4469 41.2277 33.5588 39.9558 33.5588C38.9383 33.5588 38.9383 30.3959 38.9383 27.488C38.9383 24.9373 39.1418 21.1112 39.2945 17.1831C39.3453 15.8567 38.684 15.1425 37.6156 14.4793C36.9542 14.0712 35.5297 13.255 34.7157 13.255C33.4947 13.255 29.9335 13.408 26.5757 23.1518C26.1687 24.3762 25.3038 26.6208 25.3038 26.6208L25.3547 14.9385C25.3547 14.6834 25.2021 14.3773 24.8968 14.2243C24.3372 13.9182 22.811 13.306 21.4882 13.306C20.8268 13.306 20.5216 13.6121 20.5216 14.1733L20.4198 32.4365C20.4198 33.8138 20.4707 35.4463 20.5725 36.1605C20.7251 36.8747 20.9286 37.4359 21.183 37.793C21.4373 38.1501 21.7935 38.4052 22.3022 38.5072C22.811 38.6092 25.4565 38.9663 25.6091 37.946C25.7617 36.7217 25.7617 35.3953 27.1862 30.4979C29.3738 22.8457 32.172 19.0706 33.5456 17.7443C33.8 17.4892 34.0543 17.4892 34.0543 17.8973C34.0035 19.5808 33.8 23.764 33.6473 27.335C33.2912 36.8747 35.021 38.6602 37.5138 38.6602C39.3962 38.6602 42.0926 36.7727 44.9416 31.9773C46.7222 29.0185 48.452 26.0596 49.7238 23.968C50.5887 24.7843 51.5553 25.6515 52.522 26.5698C54.7605 28.7124 55.5236 30.753 55.0148 32.6915C54.6587 34.171 53.2342 35.7014 50.6905 34.222C49.9782 33.8138 49.6221 33.4567 48.9098 32.9466C48.5028 32.6915 47.8923 32.5895 47.5362 32.8956C46.5696 33.6098 46.0608 34.5281 45.7556 35.6504C45.4503 36.7217 46.5696 37.3338 47.6888 37.844C48.6555 38.3031 50.7413 38.6602 52.115 38.7112C57.3042 38.8643 61.5268 36.2115 64.4267 29.2225C64.9355 35.2423 67.174 38.6602 70.9896 38.6602C73.5842 38.6602 76.128 35.3443 77.2472 32.0283C77.5525 33.3547 78.0612 34.5281 78.6717 35.4973C81.6225 40.1907 87.3713 39.1704 90.2712 35.1912C91.187 33.9669 91.2887 33.5078 91.2887 33.5078C91.6957 37.2828 94.7482 38.6092 96.478 38.6092C98.4112 38.6092 100.446 37.6909 101.82 34.528C101.972 34.8851 102.176 35.1912 102.379 35.4973C105.33 40.1907 111.079 39.1704 113.979 35.1912C114.132 34.9872 114.233 34.8341 114.335 34.6811L114.437 37.1808C114.437 37.1808 112.809 38.7112 111.791 39.6295C107.314 43.7107 103.957 46.8226 103.702 50.4446C103.397 55.0359 107.111 56.7704 109.96 56.9744C112.961 57.2295 115.505 55.546 117.082 53.2504C118.456 51.2098 119.372 46.8225 119.321 42.4353C119.27 40.7008 119.27 38.4562 119.219 36.1095C120.796 34.273 122.526 31.9773 124.154 29.2736C125.935 26.3147 127.817 22.3866 128.784 19.3257C128.784 19.3257 130.412 19.3257 132.192 19.2237C132.752 19.1727 132.904 19.3257 132.803 19.7338C132.701 20.244 130.564 28.3553 132.497 33.7628C133.82 37.4359 136.771 38.6602 138.501 38.6602C140.536 38.6602 142.52 37.1298 143.537 34.7831C143.639 35.0382 143.792 35.2933 143.944 35.4973C146.895 40.1907 152.644 39.1704 155.544 35.1912C156.205 34.273 156.561 33.5078 156.561 33.5078C157.172 37.4359 160.224 38.6092 161.954 38.6092C163.786 38.6092 165.464 37.844 166.889 34.5791C166.94 36.0585 167.042 37.2318 167.194 37.5889C167.296 37.793 167.805 38.0991 168.161 38.2521C169.84 38.8643 171.519 38.5582 172.129 38.4562C172.587 38.3541 172.892 37.997 172.943 37.1298C173.045 34.7831 172.994 30.804 173.706 27.8451C174.927 22.8967 175.996 20.9582 176.555 20.0399C176.86 19.5298 177.166 19.4277 177.217 19.9889C177.217 21.1112 177.318 24.4782 177.776 28.9675C178.132 32.2834 178.59 34.222 178.946 34.8341C179.964 36.6196 181.185 36.6707 182.202 36.6707C182.864 36.6707 184.186 36.5176 184.034 35.3443C183.983 34.7831 184.085 31.4162 185.255 26.5188C186.018 23.3559 187.29 20.448 187.799 19.4278C187.951 19.0196 188.053 19.3257 188.053 19.4278C187.951 21.6214 187.748 28.7634 188.613 32.6915C189.834 37.997 193.293 38.6092 194.514 38.6092C197.109 38.6092 199.245 36.6196 199.958 31.4162C200.11 30.0898 199.856 29.1205 199.093 29.1205Z" fill="white"/>
</svg>
