<svg width="200" height="48" viewBox="0 0 200 48" fill="none" xmlns="http://www.w3.org/2000/svg">
<path d="M78.7437 17.1367H85.0737V37.1038H78.7437V17.1367Z" fill="white"/>
<path d="M86.3953 17.1367H92.4922V19.8666H92.6086C94.0844 17.7216 95.9872 16.5518 98.7446 16.5518C103.094 16.5518 105.657 19.6716 105.657 24.1174V37.1038H99.327V25.4044C99.327 23.2984 98.2785 21.8553 96.2203 21.8553C94.1234 21.8553 92.7252 23.6104 92.7252 26.0672V37.1038H86.3953V17.1367Z" fill="white"/>
<path d="M85.7054 11.7948C85.7054 9.68874 84.0053 7.98169 81.9084 7.98169C79.8114 7.98169 78.1113 9.68874 78.1113 11.7948C78.1113 13.9006 79.8114 15.6077 81.9084 15.6077C84.0053 15.6077 85.7054 13.9006 85.7054 11.7948Z" fill="white"/>
<path d="M150.177 16.8482C149.996 16.8319 149.789 16.8246 149.547 16.8246C147.139 16.8246 145.508 17.8775 144.11 20.2564H143.993V17.1366H137.935V37.1035H144.265V28.134C144.265 23.978 146.557 22.0522 150.177 22.3882V16.8482Z" fill="white"/>
<path d="M181.24 24.507C178.716 24.0392 176.464 23.8442 176.464 22.4404C176.464 21.1923 177.668 20.6074 179.221 20.6074C180.968 20.6074 182.172 21.1533 182.405 22.9473H188.23C187.92 19.0085 184.891 16.5515 179.26 16.5515C174.561 16.5515 170.677 18.7355 170.677 22.9473C170.677 27.6268 174.367 28.5629 177.823 29.148C180.464 29.616 182.871 29.811 182.871 31.6048C182.871 32.8918 181.667 33.5938 179.765 33.5938C177.856 33.5938 176.593 32.7826 176.206 31.137H170.174C170.618 35.2416 174.206 37.7275 179.803 37.7275C185.007 37.7275 188.852 35.4657 188.852 31.098C188.852 25.989 184.735 25.0921 181.24 24.507Z" fill="white"/>
<path d="M159.996 21.0751C162.054 21.0751 163.53 22.5961 163.763 24.9752H155.919C156.346 22.5961 157.589 21.0751 159.996 21.0751ZM160.346 33.1254C157.744 33.1254 156.268 31.4487 155.88 28.7578H170.171C170.21 24.7021 169.045 21.2311 166.676 19.0474C164.967 17.4875 162.715 16.5514 159.879 16.5514C153.821 16.5514 149.666 21.1141 149.666 27.081C149.666 33.1254 153.705 37.6885 160.268 37.6885C162.792 37.6885 164.812 37.0255 166.481 35.8555C168.229 34.6466 169.394 32.9307 169.821 31.1369H163.647C163.103 32.3847 162.016 33.1254 160.346 33.1254Z" fill="white"/>
<path d="M200 32.3953C199.707 32.4069 199.313 32.424 198.951 32.424C197.592 32.424 196.738 32.0339 196.738 30.474V21.1144H200V17.1366H196.738V10.8189H190.563V17.1366H188.62V21.1144H190.563V31.8389C190.563 36.1289 193.204 37.3376 196.893 37.3376C198.301 37.3376 199.365 37.2318 200 37.1073V32.3953Z" fill="white"/>
<path d="M116.961 32.4044C116.709 32.4142 116.417 32.424 116.145 32.424C114.786 32.424 113.931 32.0339 113.931 30.474V21.1144H116.961V17.1366H113.931V10.8189H107.757V17.1366H105.698V21.1144H107.757V31.8389C107.757 36.1289 110.397 37.3376 114.087 37.3376C115.335 37.3376 116.312 37.2542 116.961 37.1486V32.4044Z" fill="white"/>
<path d="M130.749 24.9752C130.516 22.5962 129.04 21.0751 126.982 21.0751C124.574 21.0751 123.332 22.5962 122.904 24.9752H130.749ZM116.652 27.081C116.652 21.1143 120.807 16.5516 126.865 16.5516C129.7 16.5516 131.953 17.4875 133.661 19.0474C136.03 21.2313 137.195 24.7021 137.156 28.7579H122.866C123.254 31.4487 124.729 33.1256 127.332 33.1256C129.001 33.1256 130.089 32.3847 130.632 31.1369H136.807C136.38 32.9307 135.215 34.6466 133.467 35.8557C131.797 37.0255 129.778 37.6885 127.254 37.6885C120.691 37.6885 116.652 33.1256 116.652 27.081Z" fill="white"/>
<path d="M67.7506 22.3233C70.236 22.3233 71.634 20.8413 71.634 18.6182C71.634 16.3955 70.197 15.0306 67.7506 15.0306H62.896V22.3233H67.7506ZM56.4875 9.21987H67.4798C70.8582 9.21987 73.3437 10.1557 75.0524 11.7937C76.8388 13.4705 77.8485 15.8496 77.8485 18.6574C77.8485 24.0001 74.1592 27.7831 68.4505 27.7831H62.896V37.1035H56.4875V9.21987Z" fill="white"/>
<path d="M47.7981 24.0001C47.7981 37.2548 37.0981 48 23.8992 48C10.7002 48 0.000244141 37.2548 0.000244141 24.0001C0.000244141 10.7451 10.7002 0.000148773 23.8992 0.000148773C37.0981 0.000148773 47.7981 10.7451 47.7981 24.0001Z" fill="black"/>
<path d="M23.8989 -9.53674e-05C10.7 -9.53674e-05 0 10.7451 0 23.9998C0 34.1674 6.29935 42.8593 15.1895 46.3562C14.9807 44.4574 14.7919 41.5371 15.2724 39.4641C15.7067 37.591 18.0748 27.5345 18.0748 27.5345C18.0748 27.5345 17.36 26.0968 17.36 23.9713C17.36 20.6341 19.2861 18.1427 21.6844 18.1427C23.7234 18.1427 24.7082 19.68 24.7082 21.5233C24.7082 23.5826 23.4027 26.6612 22.729 29.5143C22.1659 31.903 23.9218 33.8511 26.268 33.8511C30.5156 33.8511 33.7808 29.3533 33.7808 22.8609C33.7808 17.1145 29.6691 13.0969 23.798 13.0969C16.998 13.0969 13.0066 18.2188 13.0066 23.5121C13.0066 25.5749 13.7978 27.7868 14.7852 28.9892C14.9805 29.2268 15.0091 29.435 14.9509 29.6776C14.7695 30.4356 14.3664 32.0657 14.2872 32.3994C14.183 32.8387 13.9408 32.9319 13.4879 32.7202C10.5031 31.325 8.63689 26.9426 8.63689 23.4226C8.63689 15.8519 14.1144 8.89915 24.4279 8.89915C32.7184 8.89915 39.1612 14.8318 39.1612 22.7604C39.1612 31.0317 33.9679 37.6884 26.7597 37.6884C24.338 37.6884 22.0613 36.4249 21.282 34.9325C21.282 34.9325 20.0837 39.5148 19.7931 40.6378C19.2536 42.7224 17.7971 45.3354 16.8228 46.9295C19.0589 47.6248 21.4352 47.9998 23.8989 47.9998C37.0981 47.9998 47.798 37.2546 47.798 23.9998C47.798 10.7451 37.0981 -9.53674e-05 23.8989 -9.53674e-05Z" fill="white"/>
</svg>
