<svg width="200" height="140" viewBox="0 0 200 140" fill="none" xmlns="http://www.w3.org/2000/svg">
<mask id="mask0_19300_362" style="mask-type:alpha" maskUnits="userSpaceOnUse" x="0" y="0" width="200" height="140">
<path d="M0 0H200V140H0V0Z" fill="#FFFFFE"/>
</mask>
<g mask="url(#mask0_19300_362)">
<path fill-rule="evenodd" clip-rule="evenodd" d="M83.0443 15.3261C89.5001 8.59135 98.4854 4.42082 108.412 4.42082C121.647 4.42082 133.118 11.7892 139.294 22.7682C144.777 20.3121 150.715 19.0441 156.721 19.0471C180.544 19.0471 199.882 38.5735 199.882 62.6682C199.882 86.7629 180.544 106.289 156.721 106.289C153.809 106.289 150.971 105.996 148.191 105.442C142.787 115.095 132.456 121.652 120.691 121.652C115.901 121.662 111.173 120.573 106.868 118.469C101.39 131.364 88.6325 140.427 73.7795 140.427C58.2648 140.427 45.1031 130.627 40.0295 116.848C37.7714 117.326 35.4697 117.566 33.1619 117.564C14.706 117.564 -0.220459 102.385 -0.220459 83.7433C-0.220459 71.217 6.50013 60.3118 16.4707 54.417C14.3555 49.534 13.2667 44.2666 13.2722 38.9434C13.2722 17.4276 30.6987 0.0380859 52.1693 0.0380859C64.7428 0.0380859 75.9928 6.04335 83.0516 15.3644" fill="#FFFFFE"/>
<path fill-rule="evenodd" clip-rule="evenodd" d="M28.9266 72.7997C28.8008 73.1283 28.9714 73.1969 29.0119 73.2551C29.3876 73.5277 29.7692 73.7252 30.1516 73.947C32.1957 75.0301 34.1222 75.347 36.1369 75.347C40.2398 75.347 42.7913 73.1585 42.7913 69.6364V69.5672C42.7913 66.3103 39.9089 65.124 37.2178 64.2766L36.8655 64.1624C34.8288 63.5007 33.0714 62.9245 33.0714 61.5835V61.515C33.0714 60.3655 34.1008 59.5181 35.6891 59.5181C37.4538 59.5181 39.5567 60.1069 40.9023 60.8518C40.9023 60.8518 41.3008 61.1097 41.4457 60.7243C41.5244 60.5158 42.2104 58.6759 42.2839 58.4696C42.3619 58.2537 42.2251 58.0909 42.0847 58.0069C40.5405 57.0637 38.4082 56.4226 36.2023 56.4226L35.7928 56.4241C32.0354 56.4241 29.4104 58.701 29.4104 61.9578V62.0278C29.4104 65.4615 32.3075 66.5815 35.0133 67.3552L35.4486 67.4907C37.4192 68.0979 39.1251 68.6255 39.1251 70.0107V70.08C39.1251 71.3547 38.0148 72.3053 36.2354 72.3053C35.5435 72.3053 33.3383 72.2935 30.9486 70.78C30.6597 70.6113 30.495 70.4897 30.2722 70.3534C30.1545 70.2819 29.8604 70.153 29.7325 70.5391L28.9236 72.7938L28.9266 72.7997ZM88.9972 72.7938C88.8714 73.1224 89.042 73.191 89.0839 73.2492C89.4582 73.5218 89.8413 73.7193 90.2236 73.9411C92.2678 75.0242 94.1942 75.3411 96.2089 75.3411C100.312 75.3411 102.863 73.1526 102.863 69.6305V69.5613C102.863 66.3044 99.9883 65.1181 97.2898 64.2707L96.9376 64.1565C94.9008 63.4949 93.1435 62.9186 93.1435 61.5776V61.5091C93.1435 60.3596 94.1729 59.5122 95.7611 59.5122C97.5258 59.5122 99.6214 60.101 100.974 60.8459C100.974 60.8459 101.373 61.1038 101.518 60.7184C101.596 60.5099 102.283 58.67 102.349 58.4637C102.428 58.2478 102.291 58.085 102.151 58.001C100.607 57.0578 98.4744 56.4167 96.2685 56.4167L95.8582 56.4182C92.1008 56.4182 89.4758 58.6951 89.4758 61.9519V62.0219C89.4758 65.4556 92.3729 66.5756 95.0788 67.3493L95.5133 67.4849C97.4913 68.092 99.1898 68.6196 99.1898 70.0049V70.0741C99.1898 71.3489 98.0795 72.2994 96.3001 72.2994C95.6067 72.2994 93.3957 72.2876 91.0133 70.7741C90.7244 70.6054 90.5553 70.489 90.3361 70.3475C90.2619 70.3003 89.9156 70.1647 89.7972 70.5332L88.9883 72.7879L88.9972 72.7938ZM130.018 65.8911C130.018 67.8805 129.647 69.45 128.922 70.5626C128.199 71.6605 127.106 72.1984 125.584 72.1984C124.062 72.1984 122.974 71.665 122.26 70.57C121.542 69.4647 121.18 67.8879 121.18 65.8984C121.18 63.909 121.544 62.3469 122.26 61.249C122.972 60.1584 124.055 59.6353 125.584 59.6353C127.113 59.6353 128.202 60.1636 128.922 61.249C129.652 62.3469 130.018 63.909 130.018 65.8984V65.8911ZM133.444 62.2069C133.107 61.0647 132.584 60.0626 131.885 59.2226C131.186 58.3826 130.305 57.7047 129.253 57.2184C128.209 56.7284 126.974 56.4816 125.577 56.4816C124.18 56.4816 122.952 56.7299 121.9 57.2184C120.856 57.7077 119.966 58.3826 119.268 59.2226C118.571 60.0626 118.047 61.0647 117.709 62.2069C117.374 63.3416 117.205 64.5795 117.205 65.8984C117.205 67.2174 117.374 68.4553 117.709 69.59C118.045 70.7321 118.569 71.7342 119.268 72.5742C119.967 73.4142 120.856 74.0847 121.9 74.5637C122.952 75.0412 124.187 75.2843 125.577 75.2843C126.966 75.2843 128.202 75.0412 129.246 74.5637C130.29 74.0862 131.18 73.4142 131.878 72.5742C132.576 71.7342 133.099 70.7321 133.437 69.59C133.771 68.4553 133.941 67.2174 133.941 65.8984C133.941 64.5869 133.771 63.3416 133.437 62.2069H133.444ZM161.599 71.6384C161.486 71.3046 161.161 71.4306 161.161 71.4306C160.663 71.6215 160.132 71.7983 159.566 71.8867C158.995 71.9766 158.36 72.0216 157.691 72.0216C156.036 72.0216 154.713 71.5272 153.771 70.5479C152.823 69.5679 152.293 67.9911 152.301 65.8542C152.306 63.909 152.775 62.45 153.617 61.33C154.448 60.2247 155.727 59.65 157.419 59.65C158.83 59.65 159.911 59.8143 161.044 60.1695C161.044 60.1695 161.312 60.2866 161.441 59.9322C161.741 59.0996 161.963 58.5027 162.286 57.5891C162.377 57.3275 162.154 57.217 162.072 57.1853C161.628 57.0114 160.58 56.7262 159.785 56.6061C159.043 56.4926 158.182 56.4337 157.212 56.4337C155.771 56.4337 154.491 56.6805 153.396 57.1698C152.3 57.6583 151.374 58.334 150.638 59.174C149.903 60.014 149.344 61.0161 148.969 62.1582C148.598 63.293 148.41 64.5382 148.41 65.8572C148.41 68.7014 149.175 71.0077 150.69 72.6951C152.205 74.3898 154.484 75.2445 157.455 75.2445C159.212 75.2445 161.013 74.8886 162.307 74.3751C162.307 74.3751 162.555 74.2557 162.447 73.9669L161.602 71.6384H161.599ZM167.594 63.9753C167.758 62.87 168.06 61.949 168.535 61.2342C169.246 60.1437 170.33 59.5469 171.852 59.5469C173.374 59.5469 174.381 60.1466 175.102 61.2342C175.58 61.9526 175.788 62.9069 175.866 63.9753L167.557 63.9738L167.594 63.9753ZM179.138 61.5437C178.846 60.4458 178.124 59.3332 177.653 58.8247C176.903 58.0216 176.175 57.4542 175.447 57.1447C174.396 56.6969 173.266 56.4671 172.124 56.4691C170.675 56.4691 169.359 56.7144 168.293 57.2133C167.227 57.7158 166.33 58.3996 165.624 59.2543C164.919 60.1091 164.388 61.1185 164.05 62.2754C163.712 63.4175 163.541 64.6701 163.541 65.9817C163.541 67.3227 163.718 68.568 164.067 69.6954C164.419 70.8301 164.986 71.8249 165.751 72.6501C166.516 73.4827 167.493 74.1312 168.67 74.588C169.839 75.0412 171.258 75.2762 172.883 75.2711C176.236 75.26 178.001 74.5121 178.721 74.1069C178.85 74.0346 178.971 73.9101 178.82 73.5513L178.063 71.4218C177.946 71.1042 177.626 71.2192 177.626 71.2192C176.795 71.5301 175.618 72.0886 172.861 72.0813C171.06 72.0783 169.729 71.5456 168.891 70.7107C168.038 69.856 167.611 68.6107 167.545 66.8423L179.163 66.8512C179.163 66.8512 179.468 66.8482 179.5 66.5491C179.513 66.4253 179.898 64.1617 179.154 61.5459L179.138 61.5437ZM74.7266 63.9753C74.8906 62.87 75.1935 61.949 75.6678 61.2342C76.3795 60.1437 77.4619 59.5469 78.9839 59.5469C80.506 59.5469 81.5133 60.1466 82.2339 61.2342C82.7111 61.9526 82.92 62.9069 82.9986 63.9753L74.6898 63.9738L74.7266 63.9753ZM86.2707 61.5437C85.9795 60.4458 85.256 59.3332 84.7854 58.8247C84.0354 58.0216 83.3075 57.4542 82.5795 57.1447C81.5286 56.6969 80.398 56.4671 79.256 56.4691C77.8075 56.4691 76.4913 56.7144 75.4251 57.2133C74.3589 57.7158 73.4619 58.3996 72.756 59.2543C72.0523 60.1091 71.5207 61.1185 71.1825 62.2754C70.845 63.4175 70.6751 64.6701 70.6751 65.9817C70.6751 67.3227 70.8508 68.568 71.2016 69.6954C71.5531 70.8301 72.1207 71.8249 72.8781 72.6501C73.6428 73.4827 74.6207 74.1312 75.7972 74.588C76.9663 75.0412 78.3781 75.2762 80.0104 75.2711C83.3633 75.26 85.1281 74.5121 85.8486 74.1069C85.9766 74.0346 86.0986 73.9101 85.9464 73.5513L85.1891 71.4218C85.0722 71.1042 84.7516 71.2192 84.7516 71.2192C83.9207 71.5301 82.7442 72.0886 79.9869 72.0813C78.1928 72.0783 76.8545 71.5456 76.0163 70.7107C75.1633 69.856 74.7369 68.6107 74.6707 66.8423L86.2883 66.8512C86.2883 66.8512 86.5942 66.8482 86.6258 66.5491C86.6383 66.4253 87.0236 64.1617 86.2788 61.5459L86.2707 61.5437ZM49.653 71.5647C49.1979 71.2007 49.1347 71.1116 48.9839 70.8751C48.7538 70.5192 48.6361 70.013 48.6361 69.3645C48.6361 68.3477 48.9744 67.6109 49.6729 67.1172C49.6655 67.1186 50.6729 66.2477 53.0406 66.2772C54.0944 66.2961 55.1458 66.3859 56.1876 66.5461V71.8293H56.1891C56.1891 71.8293 54.7185 72.1469 53.0567 72.2471C50.6964 72.3893 49.6523 71.5662 49.6597 71.5684L49.653 71.5647ZM54.2707 63.3858C53.8001 63.3512 53.1898 63.3342 52.4619 63.3342C51.4692 63.3342 50.506 63.458 49.6089 63.7012C48.7045 63.9458 47.8883 64.3245 47.1898 64.8285C46.4894 65.3293 45.9132 65.9848 45.506 66.7443C45.095 67.5106 44.8854 68.4096 44.8854 69.4264C44.8854 70.458 45.0641 71.3496 45.417 72.0791C45.7629 72.8026 46.2835 73.4282 46.9317 73.8991C47.5766 74.3692 48.3729 74.717 49.292 74.9233C50.2038 75.1318 51.2332 75.2372 52.3656 75.2372C53.5567 75.2372 54.7406 75.137 55.8876 74.9432C56.8646 74.7743 57.8378 74.5847 58.8067 74.3743C59.1935 74.2852 59.6229 74.168 59.6229 74.168C59.9097 74.0951 59.8876 73.7878 59.8876 73.7878L59.881 63.1773C59.881 60.8489 59.2604 59.1173 58.0354 58.0489C56.8148 56.9804 55.0281 56.4425 52.7119 56.4425C51.8442 56.4425 50.4398 56.5604 49.6016 56.7292C49.6016 56.7292 47.0722 57.2214 46.0281 58.0407C46.0281 58.0407 45.7986 58.1822 45.9236 58.5027L46.7472 60.7133C46.8494 60.9999 47.128 60.9019 47.128 60.9019C47.128 60.9019 47.2156 60.8673 47.3185 60.8061C49.5464 59.5903 52.37 59.6272 52.37 59.6272C53.62 59.6272 54.5905 59.8814 55.2376 60.3787C55.8707 60.8658 56.1935 61.6019 56.1935 63.1493V63.6407C55.2008 63.4963 54.2817 63.4131 54.2817 63.4131L54.2707 63.3858ZM147.653 57.3953C147.67 57.3564 147.679 57.3146 147.679 57.2723C147.679 57.23 147.671 57.188 147.655 57.149C147.638 57.1099 147.614 57.0745 147.584 57.045C147.554 57.0154 147.518 56.9922 147.479 56.9767C147.281 56.9016 146.295 56.6931 145.538 56.6459C144.082 56.5545 143.273 56.8006 142.545 57.1278C141.826 57.4527 141.03 57.9752 140.589 58.5794L140.588 57.1646C140.588 56.9701 140.45 56.8132 140.255 56.8132H137.284C137.091 56.8132 136.952 56.9701 136.952 57.1646V74.4804C136.952 74.574 136.989 74.6636 137.055 74.7298C137.121 74.7959 137.21 74.8332 137.304 74.8334H140.348C140.441 74.8332 140.531 74.7959 140.596 74.7297C140.662 74.6636 140.699 74.5739 140.699 74.4804V65.7857C140.699 64.6215 140.827 63.4646 141.082 62.7352C141.334 62.0138 141.676 61.4383 142.097 61.0257C142.499 60.6272 142.991 60.3315 143.531 60.1636C144.038 60.0178 144.563 59.9439 145.09 59.944C145.696 59.944 146.362 60.1002 146.362 60.1002C146.585 60.1253 146.71 59.9882 146.785 59.7863C146.985 59.2551 147.55 57.6642 147.66 57.3474" fill="black"/>
<path fill-rule="evenodd" clip-rule="evenodd" d="M119.221 49.404C118.845 49.2901 118.462 49.199 118.075 49.1314C117.554 49.0443 117.027 49.0033 116.499 49.0091C114.401 49.0091 112.747 49.603 111.586 50.776C110.433 51.9402 109.649 53.7138 109.255 56.0474L109.113 56.8351H106.48C106.48 56.8351 106.159 56.8218 106.091 57.1733L105.659 59.5901C105.629 59.8215 105.728 59.9659 106.037 59.9644H108.6L105.999 74.5119C105.796 75.6835 105.563 76.6473 105.305 77.3775C105.05 78.0981 104.802 78.6382 104.496 79.0302C104.199 79.4097 103.918 79.689 103.434 79.8518C103.034 79.9867 102.574 80.0485 102.069 80.0485C101.788 80.0485 101.415 80.0014 101.139 79.9461C100.863 79.8916 100.72 79.8297 100.513 79.7428C100.513 79.7428 100.213 79.6278 100.094 79.9299C99.9979 80.1768 99.3148 82.0594 99.2339 82.2922C99.1516 82.5221 99.267 82.7034 99.4126 82.7557C99.7538 82.878 100.007 82.9561 100.472 83.0659C101.118 83.2184 101.662 83.228 102.171 83.228C103.239 83.228 104.212 83.0777 105.018 82.7859C105.83 82.4919 106.537 81.9798 107.162 81.2864C107.838 80.5385 108.263 79.7553 108.669 78.6869C109.071 77.628 109.414 76.3135 109.688 74.7816L112.302 59.9644H116.122C116.122 59.9644 116.444 59.9762 116.511 59.6262L116.943 57.2094C116.974 56.978 116.875 56.8336 116.565 56.8351H112.857C112.875 56.7511 113.043 55.4439 113.469 54.2134C113.651 53.688 113.993 53.2643 114.282 52.9733C114.553 52.6961 114.886 52.4883 115.254 52.3676C115.657 52.2427 116.077 52.1821 116.499 52.1878C116.848 52.1878 117.191 52.2298 117.452 52.2843C117.811 52.361 117.951 52.4015 118.045 52.4295C118.423 52.5452 118.474 52.4332 118.548 52.2497L119.435 49.8093C119.526 49.547 119.304 49.4364 119.221 49.404ZM67.4023 74.5429C67.4023 74.7374 67.2641 74.8958 67.07 74.8958H63.9942C63.7994 74.8958 63.6611 74.7374 63.6611 74.5429V49.7349C63.6611 49.5411 63.7994 49.3841 63.9942 49.3841H67.07C67.2641 49.3841 67.4023 49.5411 67.4023 49.7349V74.5429Z" fill="black"/>
</g>
</svg>
