<svg width="200" height="62" viewBox="0 0 200 62" fill="none" xmlns="http://www.w3.org/2000/svg">
<path d="M79.6973 47.8255V42.8288C80.3033 43.3386 80.9094 43.7465 81.7175 44.1544C82.5255 44.5623 83.3336 44.8682 84.2427 45.1741C85.1518 45.4801 85.9599 45.684 86.869 45.786C87.7781 45.888 88.5862 45.9899 89.2932 45.9899C91.8185 45.9899 93.7377 45.4801 95.0508 44.5623C96.3639 43.6445 96.97 42.2169 96.97 40.3814C96.97 39.3616 96.768 38.5459 96.3639 37.832C95.9599 37.1182 95.3538 36.4044 94.6468 35.8945C93.9397 35.2827 93.0306 34.7728 92.0205 34.161C91.0104 33.6511 89.8993 33.0393 88.7882 32.4274C87.5761 31.8156 86.3639 31.1018 85.3538 30.4899C84.2427 29.8781 83.3336 29.1643 82.5256 28.3485C81.7175 27.5327 81.1114 26.7169 80.6064 25.6972C80.1013 24.6774 79.8993 23.5557 79.8993 22.2301C79.8993 20.5985 80.3033 19.1708 81.0104 17.9472C81.7175 16.7235 82.6266 15.7037 83.8387 14.9899C84.9498 14.1741 86.2629 13.6643 87.7781 13.2564C89.2932 12.8485 90.8084 12.6445 92.3235 12.6445C95.8589 12.6445 98.3841 13.0524 100 13.9702V18.763C97.8791 17.3353 95.2528 16.5195 91.9195 16.5195C91.0104 16.5195 90.1013 16.6215 89.1922 16.8255C88.2831 17.0294 87.475 17.3353 86.768 17.7432C86.0609 18.1511 85.4548 18.763 85.0508 19.4768C84.6468 20.1906 84.3437 21.0064 84.3437 22.0261C84.3437 22.9439 84.5458 23.7597 84.8488 24.3715C85.1518 25.0853 85.6569 25.6972 86.3639 26.207C87.071 26.7169 87.8791 27.3287 88.7882 27.8386C89.6973 28.3485 90.8084 28.9603 92.0205 29.5722C93.3336 30.184 94.5458 30.8978 95.6569 31.6116C96.768 32.3255 97.7781 33.1412 98.6872 33.957C99.5963 34.7728 100.202 35.7926 100.707 36.8123C101.212 37.832 101.414 39.0557 101.414 40.3814C101.414 42.1149 101.111 43.6445 100.404 44.8682C99.6973 46.0919 98.7882 47.1116 97.6771 47.8255C96.465 48.6413 95.1518 49.1511 93.6367 49.457C92.1215 49.763 90.5054 49.9669 88.7882 49.9669C88.1821 49.9669 87.5761 49.9669 86.667 49.8649C85.8589 49.763 84.9498 49.661 84.1417 49.457C83.3336 49.2531 82.4245 49.0491 81.7175 48.8452C80.7074 48.4373 80.1013 48.1314 79.6973 47.8255Z" fill="white"/>
<path d="M125.858 49.2532H120.101L108.989 36.9143H108.888V49.2532H104.747V11.115H108.888V35.2828H108.989L119.596 23.4538H124.949L113.131 35.8946L125.858 49.2532Z" fill="white"/>
<path d="M149.798 23.454L138.182 53.3323C136.06 58.635 133.131 61.2863 129.394 61.2863C128.384 61.2863 127.475 61.1843 126.768 60.9803V57.3093C127.677 57.6152 128.485 57.7172 129.192 57.7172C131.212 57.7172 132.727 56.4935 133.838 54.0461L135.858 49.1514L125.959 23.454H130.505L137.374 43.2369C137.475 43.4409 137.677 44.1547 137.879 45.1744H137.98C138.081 44.7665 138.182 44.1547 138.485 43.2369L145.656 23.3521H149.798V23.454Z" fill="white"/>
<path d="M156.161 35.1809V38.7499C156.161 40.8914 156.869 42.7269 158.182 44.1545C159.596 45.6842 161.313 46.398 163.333 46.398C165.757 46.398 167.677 45.4802 169.091 43.5427C170.505 41.6052 171.212 38.9539 171.212 35.5888C171.212 32.7335 170.606 30.4901 169.293 28.8585C167.98 27.2269 166.263 26.4111 164.04 26.4111C161.717 26.4111 159.798 27.2269 158.384 28.9605C156.869 30.4901 156.161 32.6315 156.161 35.1809ZM156.263 45.4802L156.161 61.0822H152.121V23.4539H156.161V27.9407H156.263C158.283 24.4736 161.212 22.842 165.05 22.842C168.283 22.842 170.909 23.9638 172.727 26.3091C174.545 28.6545 175.454 31.7138 175.454 35.5888C175.454 39.8716 174.444 43.3388 172.323 45.8881C170.303 48.4374 167.475 49.7631 163.838 49.7631C160.606 49.8651 157.98 48.4374 156.263 45.4802Z" fill="white"/>
<path d="M195.859 33.9573C195.859 31.6119 195.253 29.6744 194.142 28.3487C193.03 27.023 191.515 26.4112 189.495 26.4112C187.576 26.4112 185.96 27.125 184.647 28.4507C183.333 29.8783 182.525 31.6119 182.121 33.9573H195.859ZM200 37.4244H182.121C182.222 40.2796 182.929 42.523 184.445 44.0527C185.859 45.5823 187.879 46.398 190.404 46.398C193.232 46.398 195.859 45.4803 198.283 43.5428V47.4178C196.061 49.0494 193.131 49.8652 189.394 49.8652C185.859 49.8652 183.03 48.7434 180.909 46.398C178.889 44.0527 177.879 40.7895 177.879 36.5066C177.879 32.5296 178.99 29.2665 181.212 26.7171C183.434 24.1678 186.263 22.9441 189.596 22.9441C192.929 22.9441 195.455 24.0658 197.273 26.2072C199.091 28.3487 200 31.4079 200 35.2829V37.4244Z" fill="white"/>
<path d="M30.6061 49.7632C20.404 49.7632 15.7576 44.5625 15.7576 40.6875C15.7576 38.75 17.2727 37.3224 19.2929 37.3224C23.6364 37.3224 22.5252 43.9507 30.7071 43.9507C34.8485 43.9507 37.2727 41.4013 37.2727 39.0559C37.2727 37.6283 36.4646 35.9967 33.7374 35.3849L24.6465 33.0395C17.3737 31.204 16.0606 27.023 16.0606 23.25C16.0606 15.398 23.2323 12.5428 30 12.5428C36.2626 12.5428 43.7374 16.0099 43.7374 20.8026C43.7374 22.8421 42.0202 23.9638 40.101 23.9638C36.3636 23.9638 36.9697 18.6612 29.4949 18.6612C25.7576 18.6612 23.8384 20.3947 23.8384 22.8421C23.8384 25.2895 26.7677 26.1053 29.2929 26.7171L35.9596 28.2467C43.3333 29.8783 45.2525 34.2632 45.2525 38.4441C45.2525 44.7664 40.303 49.7632 30.6061 49.7632ZM58.7879 36.0987C59.0909 34.4671 59.1919 32.7336 59.1919 31C59.1919 14.8882 46.3636 1.83553 30.505 1.83553C28.7879 1.83553 27.1717 1.9375 25.5555 2.24342C23.0303 0.81579 20.202 0 17.0707 0C7.67676 0 0 7.75 0 17.3355C0 20.4967 0.80808 23.352 2.22222 25.9013C1.91919 27.5329 1.81818 29.2664 1.81818 31C1.81818 47.1118 14.6465 60.1645 30.505 60.1645C32.2222 60.1645 33.8384 60.0625 35.4545 59.7566C37.9798 61.1842 40.8081 62 43.9394 62C53.3333 62 61.0101 54.25 61.0101 44.6645C61.0101 41.6053 60.202 38.648 58.7879 36.0987Z" fill="white"/>
</svg>
